<?xml version="1.0" encoding="UTF-8"?>
<svg id="_레이어_2" data-name="레이어 2" xmlns="http://www.w3.org/2000/svg" xmlns:xlink="http://www.w3.org/1999/xlink" viewBox="0 0 399 1000">
  <defs>
    <style>
      .cls-1 {
        fill: none;
      }

      .cls-2 {
        fill: #e6e7e8;
      }

      .cls-3 {
        clip-path: url(#clippath);
      }
    </style>
    <clipPath id="clippath">
      <rect class="cls-1" width="399" height="1000"/>
    </clipPath>
  </defs>
  <g id="Layer_1" data-name="Layer 1">
    <g class="cls-3">
      <g>
        <g>
          <path class="cls-2" d="M365.4,120.74c-.06-.14-1.85-1.81-2.28-2.13-.16-.03-.32-.03-.48-.02-.51.19-1.25.79-1.72.99-.18.08-.4.05-.58.14l-4.81,5.38c.57-2.7-.55-1.3-1.71-2.39-1.9-1.79-4.4-5.33-6.03-7.22-.33-.35-.68-.69-1.02-1.03-.86-.64-2.51-.15-2.39-3.16-.8.57-1.32.94-2.3.54-1.07-.43-1.3-1.52-2-2-.93-.64-.35.99-1.69-.78-.94-.3-1.91-.6-2.71-1.19.62-.37,1.53.02,2.71,1.19-.4-.53-1.66-1.91-1.69-2.03-.19-.84,1.69-1.82,1.76-2.85-.5-.43-.67-1.06-.98-1.59-.1-.17-.04-.43-.14-.58-.29,0-.62-.44-.71-.44-.18,0-.38.1-.58.14-.39.06-.77.2-1.15.27-.54.03-1.16.35-1.73.4l.32-1.28c-1.27.15-2.06,1.24-2.48,2.4.13.77.4,1.53.54,2.3,1.75,4.46,2.84,9.75,5.61,13.58l-1.66.69c-.83-.8-3.22-2.09-4.4-3.22-17.25-16.56-35.51-36.36-53.94-51.18.33.97.47,1.34,1.12,2.17,3.06,3.89,10.63,9.6,14.58,13.41,4.89,4.72,9.56,9.72,14.44,14.43,6.88,6.64,17.5,14.86,23.37,21.87,2.4,2.86.35,1.69-.61,2.57-3.24,2.96-7.37,8.19-10.65,11.62-1.15,1.19-2.33,2.77-3.36,3.83-.47.48-1.34.98-2.03,1.69.41.33,1.08.54,1.42.88.65.65,1.09,1.57,1.74,2.17.34.32,5.47,3.96,5.32,5.5-.02.19-.1.35-.29.46-1.84,0-3.25-1.89-4.98-3.09.41.69.76,1.45,1.12,2.17.17.08.31.17.43.27.39.2.8.4,1.04.83.13.23.22.53.22.94-.92.63-3.66,3.63-4.07,3.38-.56-1.11.22-1.31.74-2,.48-.64,2.42-2.21,2.39-2.69,0-.08-.6-.4-.77-.73-1.23-.98-3-2.97-4.27-2.65,0,.09-.58.31-.33.85.62,1.32,5.87,3.63,1.51,4.39-.17.02-.34.04-.54.08-.01-.29.5-1.1.3-1.24-.08-.06-1.23-.08-1.93-.47-4.07-2.3-1.26-2.97,1.16-5.47,0,.19.16.39.14.58.97.49,1.96,1.15,2.85,1.76-.61-1.03-1.29-1.75-1.83-2.61-.35-.16-1.04-.13-1.29-.31-.42-.3-.77-1.3-1.56-1.46-2.16,2.22-3.97,4.36-6.41,6.37-.14.12.13.92-1.01.84.31-1.23-1.98-5.28-1.86-5.55.08-.18,2.46-2.08,2.99-2.61.83-.84,1.24-2.04,2.48-2.4.03-.15-.13-.37-.14-.58-.25-.13-.49-.27-.71-.44-.97-.73-1.4-1.51-1.83-2.61l-.58.14c-.39-1.6-4.46-5.38-6.23-5.83-.02-.21-.18-.53-.14-.58-3.08-2.47-5.67,4.16-7.72,4.65-1.7.41-5.84-3.4-7.78-2.74-1.04.35-4.89,4.65-5.07,5.5-.21,1,.85,2.18-.24,2.33l-4.1-4.5c.77-.16,1.56-.35,2.2-.86,3.56-2.84,9.3-9.41,12.79-13-1.06-1.92-3.1-3.23-4.23-5.09l-2.28-.24-13.36,13.7c-.34.83,4.39,4.42,1.89,4.36-.19,0-3.05-1.83-3.22-1.97-2.29-1.92-4.68-6.72-5.26-7.23-.22-.19-4.63-.45-1.97-2.95-.7.07-.65-.86-.85-1.02-.5-.4-1.65-.14-1.55-1.46.71.02,1.8.76,2.13,1.32.16.28.13.8.27,1.15,1.61-1.51,5.44-4.21,6.56-5.54,2.28-2.7,4-6.06,7.01-9.2,1.26-1.31,2.24-1.96,3.49-3.25,4.66-4.8,9.36-9.76,14.28-14.29.23-.21.71-.52,1.07-.79.28-.21.5-.39.46-.47l-13.51-13.28-.72-.71s-.08.02-.14.07c-.33.26-1.1,1.21-1.31,1.49-4.24,5.43-9.29,10.01-14.14,14.87-.82.82-1.66,1.6-2.48,2.4l-.29.47c-.05.1-.09.19-.15.24-1.62,1.61-3.17,3.46-5.14,4.7-.12.06-.25.14-.39.25-.35-.54-1.52-3.2-1.38-3.32.34-.31,1.26.28,1.58.22.12-.02-.4-1.99.31-2.49.73-.08,1.11-.72,1.59-.98.21-.11.34-.33.51-.42,1.11-.61-.2,1.05.5.8.74-.27.9-.51,1.22-1.2-2.06-2.05-4.36-3.96-6.29-6.13l1.19-.73.4-.25c1.83,2.08,4.1,3.67,5.67,5.96,1.65-1.83,3.74-3.27,5.51-4.94-.99-1.92-6.11-4.59-5.53-6.62.11-.38.61-.54.76-.77.85-1.23,6.52-7.25,7.59-7.85.76-.43,1.03-.18,1.05.65-.46.54-.92,1.39-1.39,1.85.89-.26,3.04.72,3.33,1.43.47,1.14-2.01,2.35-.39,3.35,1.2-1.05,1.44-1.53,1.86.17,1.42-1.53,1.95-1.96,3.49-3.25.25-.21.4-.71.87-.82.04-.03.09-.04.13-.06-.03-.06-.06-.11-.1-.16-.19-.15-.43-.41-.73-.82-1.72-2.96-4.72-4.05-6.5-6.99-.12-.02-.67-1.1-1.72-.85-1.06.25-1.08,1.48-1.16,1.53-.16.09-.42.04-.58.14-.16.1-.42.03-.58.14-.16.1-.43.03-.58.14-1.91,3.81-5.32,6.68-8.47,9.52-.22.2-.18.88-.43,1.09-1.2.97-4.03.96-4.8,3.54-.21-.12-1.03-.31-1.29-.31-.15,0-.44.07-.58.14,1.3.87.16,2.71-.44.71-.18.07-.4.05-.58.14l-.04,2.44c-.17.02-.76.96-1.29.92-.04-2.13-.39-.97-1.59-.24-.17.1-.43.03-.58.14-.43,1.14-5.11,5.45-5.68,5.58-1.18.28-2.9-1.15-4.42-1.61-.39-.06-.78-.1-1.16-.12-.72.14-1.65.3-2.3.54-.88.94-2.26.96-2.48,2.4-.04.16.15.38.14.58l-.17,1.86c-.01.19.14.39.14.58l-.17,1.86c0,.19.13.38.14.58l-.17,1.86c.02.19.11.38.14.58.13.87.02,1.75.17,2.61l84.63,79.01c1.37.2,1.03-1.18,1.45-1.55.64-2.25,2.68-3.64,4.24-5.25.87-.9,1.98-1.73,2.34-2.98.16-.1.43-.03.58-.14,1.46-1.07,3.87-4,5.39-5.52-2.91-2.07-.1-.74-.68-2.88-.95.87-1.95,0-2.16,1.11l-2.44-.04c-.26-.98,1.07-2.27,1.19-2.7.08-.32-.41-1.22-.4-1.73,1.19-.59,1.18.06,2,.75-.72-1.98-.39-.99-1.12-2.17l-.58.14c-1.5.63-2.52-.44-3.86-.92.57-.69,1.49-1.65,1.9-2.27l3.15.48c.28.37.56.67.85,1.02.62.76,4.34,4.15,4.41,5.4,0,.1,0,.19-.05.26,0,.02-.06.03-.14.06-.59.18-2.78.63-1.18,2.08,1.03-1.08,2.36-2.08,3.49-3.25l.58-.14-.14-.58c.28-.31.71-.54,1.02-.85.19-.19.31-.48.44-.71.76-.89,1.62-1.61,2.48-2.4.32-.3.7-.54,1.02-.85,1.12-1.08,1.93-2.11,2.92-3.12.98-1,2.58-1.56,2.92-3.12.71-.26.74-.65,1.02-.85,1.09-.79,2.54-1.75,2.92-3.12.15-.11.44-.03.58-.14.05-.04.1-.13.15-.24l.29-.47c.96-.92,1.28-1.6,1.9-2.27.49-.53.97-1.01,1.46-1.56-.49.15-.85.11-1.16-.03.29-.06.66-.05,1.16.03.66-.74,1.25-1.53,1.9-2.27,2.54-2.9,5.66-5.74,7.6-9.08.1.02.46-.08.58-.14.75-.36.66-1.17.88-1.42.45-.49,2.41-1.1,1.8-2.46ZM254.74,86.73l.15-.63c.06.03.11.05.16.08,1.2.56,1.29,1.24.42,2.01-.1.09-.21.18-.33.27-.22-.48-.22-1.19-.41-1.73ZM256.4,85.13c.14.19.34.51.64,1.06.35.63.09.32.14.58l-.14-.58-1.42-.88c.3-.06.37-.35.49-.39.07-.02.15.03.28.21ZM252.91,84.12l-.71-.44c-.12-.86.75-1.37,1.46-1.56.19.48-.24,1.74-.17,1.86l-.58.14ZM258.82,111.9c-.44-.11.11-1.06,1.01-.83.44.11-.11,1.06-1.01.83ZM270.89,101.18c-1.37,1.59-2.98,3.76-5.08,4.23l.95-1.13c-2.55.24-2.6-5.03-5.04-3.38-1.56-1.66,3.09-4.65,4.1-5.83.53,1.16.5,1.93,1.25,2.75.89.95,2.86,3.29,3.69,2.78-.41-.69-.68-1.5-1.12-2.17-.87-.5-1.59-1.18-2.27-1.9l.15-.63c1.24.47,1.5,1.6,2.12,2.53.48.28,2.01,1.31,2.13,1.32-.07.64-.5.98-.88,1.42ZM256.9,95.95l-.38-.47c-.08-.27.13-.49.37-.67.17-.13.36-.25.44-.36,1.01-1.39,2.87-3.48,4.26-4.47,1.08-.77,1.96-1.27,3.32-1.39.81.81,1.64,1.63,2.4,2.48,2,2.22,3.69,4.29,5.79,6.54.33.35,1.69,1.29,1.56,1.45-.76.11-1.57.49-2.3.55-1.7-2.18-4.18-4.77-6.81-5.7-.1-.17-.03-.45-.14-.58-.32-.4-1.58-1.17-2.13-1.32-.57,1.48-2.01,2.19-2.92,3.12-.52.53-.79,2.16-2.16,2.33-.92-.1-.98-1.21-1.29-1.52ZM282.26,138.56l-.13.11-1.7-2.04,1.83,1.93.87-.74.12,1.79-1-1.05ZM286.6,142.78c-.23-.21-3.15-.47-.22-1.47l1.25,2.74c-1.25.21-.94-1.19-1.03-1.28ZM291.84,141.25c.05.03.51,1.17-.01,1.21-1.78-.53-.81-1.71.01-1.21ZM291.09,143.25c.42-.15,2.34-.04,2.44.04,1.54,1.2-1.5,1.89-2.44-.04ZM300.13,136.48c-.11-.03-.21-.07-.32-.14-1.76,1.44-5.12-3.18-5.12-3.9,0-.98,4.08-4.01,4.82-5.14.02.03.37.09.71.44l.14.58c-2.88.77.13,1.84.54,2.3.27.31.6.7.85,1.02.27.34.75.92,1,1.44.13.27.19.53.12.73.4-.44,2.24-.76,1.32-2.13.38.47,1.01.71.98,1.59-.51.9-3.31,3.52-4.25,4.02-1.16.62-.59-.41-.79-.8ZM333.17,104.22c.11-.2.26-.29.4-.12.26.32.22.81.08,1.09-.1.19-.24.29-.38.19-.07-.05-.12-.12-.16-.2-.13-.28-.08-.71.06-.97ZM334.65,106.15c-.22-.26-.38-.56-.47-.85.2.17.35.48.47.85ZM333.4,102.92c.52-.24.97.31,1.2.34.1-.03.18-.03.27-.03.28-.07.61-.23.89-.24-.15.41-.17.87-.31,1.29-.38-.09-.66-.75-.79-.96-.02-.02-.03-.04-.05-.06-.4-.14-1.29.79-1.28-.3.01,0,.02,0,.04-.02.01,0,.03-.01.04-.02ZM330.69,125.45c-.7.93-1.67,1.6-2.48,2.4-.53.53-.96,1.02-1.46,1.56-.73.78-3.34,2.97-3.38,3.6-.08,1.42,2.64,2.19,3.41,4.3,1.36.4,3.53-2.35,4.65-3.52.52-.54.73-1.27.88-1.42,1.05-1.06,2.91-3.32,4.13-3.1-1.94,3.76-6.2,6.47-8.68,9.64-.25-.11-.47-.33-.71-.44-2.22-.99-4.26-3.25-5.52-5.39,2.54-1.27,5.8-6.94,8.61-8.7,1.5-.94.48.85.54,1.08ZM341.18,133.93c.1.12.04.39.14.58-3.25,3.56-4.99-.08-.98-1.59l.14.58-.44.7,1.15-.26ZM335.18,142.02c.01.07.02.13.03.19-.07-.03-.13-.06-.2-.09l.17-.1ZM329.61,142.23c-.45.72,0,2.11-1.62.26-.11-.47-1.38-.97.17-1.86.34.18.79,1.36,1.56,1.46-.04.04-.08.09-.11.14ZM328.68,151.3c.08.03.15.06.19.1l-.85-1.02-.14-.58c.38-.11.77-.16,1.15-.27.37.93,1.5,1.93,1.38,3.32-.76.38-.93-.81-1.55-1.46-.07-.03-.13-.07-.19-.1,0,0,0,0,0,0ZM337.86,135.32c.53,1.08.14,1.25-.17,1.86-.07.13-.41.69-.44.71-.39.24-1.6.21-1.73.41-.1.15,1.45,2.45,1.1,3.37l-2.87-.53c0-.51-.35-1.17-.41-1.73.89-.9,2.08-2.53,3.36-3.83.06-.09.8-.15,1.15-.27ZM312.79,151.53l-.14-.58c.42.1.46.3.14.58ZM310.37,150.27c-.39-.81-.03-1.26.46-1.93l.69,1.66-1.15.27ZM313.07,152.68c.48-.19.58,1.03.55,1.08-.52.81-1.91.19-.55-1.08ZM316.35,173.18c-.82,1.17-2.83-.38-2.84-1.76.1-.21,3.5.82,2.84,1.76ZM325,160.82l.14.58-.5.42.63.16c.09.17.04.41.14.58-1.31.29-2.12-.22-2.2-1.61.07-.63,1.2.03,1.8-.12ZM323.37,164.24c-.16.12-.25.52-.44.71l-.54-2.3s-.09-.31.04-.51c.06-.1.17-.18.39-.2l.55,2.3ZM337.99,129.15c-2.31-2.14-4.95-4.36-6.82-6.86,3.99,2.48,8.03,6.32,11.5,9.63,2.18,2.08,4.79,4.24,6.33,6.86-3.8-2.98-7.47-6.34-11.01-9.63Z"/>
          <path class="cls-2" d="M327.1,164.59c.14-.11.44-.02.58-.14.07-.06.18-.06.29-.07l.29-.07c.14-.11.44-.02.58-.14.21-.17,1.68-2.28,2.34-2.98l-.55-1.08-3.51,4.47Z"/>
          <path class="cls-2" d="M330.1,97.02c-.05-.46.06-.9.31-1.29.06.15.07.3.06.44-.02.31-.16.59-.37.85.04.38.18.78.27,1.15.28-.55,1.13-.9.75-2l.58-.14c-.07-.18-.05-.41-.14-.58-.09-.18-.04-.42-.14-.58-.28,0-.67-.45-.71-.44-1.38.44-2.32,1.91-2.23,3.32.02.27.06.55.16.81.12.09,1.2-1.23,1.46-1.56Z"/>
          <path class="cls-2" d="M333.81,156.93c-.83.84-1.96,1.42-2.4,2.69l.63.15c.79-.85,1.68-1.59,2.48-2.4.12-.12.46-.02.58-.14.22-.37.67-1.92.75-2-.92.29-1.41,1.05-2.03,1.69Z"/>
          <path class="cls-2" d="M301.4,86.12c3.81,3.62,7.83,7.06,11.62,10.65.91.87,1.91,2.46,3,3.5,5.67,5.4,11.29,10.86,17.1,16.1-.4-3.48-2.1-6.85-3.3-10.17-1.14-3.16-2.25-6.39-3.45-9.52-.6-1.57-1.13-3.2-1.74-4.75-.4-1.03.18-1.84-1.47-1.18,1.24,1.8,1.36,3.87,2.02,5.85.15.45.71.68.75.79,1.09,3.21,1.68,7.28,3.58,10.1l.17,3.31-15.04-14.28-1.04.12c-3.25-4.06-7.34-7.86-11.17-11.36-1.36-1.24-3.34-3.63-4.42-4.47-.42-.33-.86-.05-1.14.16-.14.11-.23.2-.25.18-.08-.07-.31-.4-.62-.84-.74-1.05-1.97-2.81-2.93-3.78-2.6-2.63-5.51-5.08-7.92-7.87l-.14-.58c.19,0,.42-.17.58-.14.86.19,1.13.4,2.57.61-.74-.28-1.67-.8-2.71-1.19-.15-.06-.42.19-.58.14-.08-.03-.17-.09-.25-.16-.15-.11-.3-.24-.46-.28-1.06-.29-2.83-1.61-3.79-.63l12.53,11.96c2.76,2.64,5.74,5.11,8.5,7.73Z"/>
          <path class="cls-2" d="M273.19,61.73c-.51,1.81,2.93,3.1,3.96,3.93-.25-.74-.31-1.56-.54-2.3-.85-.31-2.16-1.57-3.42-1.63Z"/>
          <path class="cls-2" d="M290.03,68.73c-.69-.12-1.29-.09-1.86-.17.7.26,1.27.49,2,.75l-.14-.58Z"/>
          <path class="cls-2" d="M323.31,90.1c.49-.26.02-1.33-.12-1.8l-.58.14c.24.5.11,1.81.69,1.67Z"/>
          <path class="cls-2" d="M338.39,109.05c1.27-.17,2.21,0,2.82.49.58.47.87,1.23.87,2.29,1-3.2.19-2.41-.95-4.03-2.63,2.41-3.87-.34-.14-.58-.27-.34-.55-.7-.85-1.02l-3.46.81c1.04.04,1.7.09,1.93.48.17.29.11.75-.23,1.55Z"/>
          <path class="cls-2" d="M331.04,101.05c.87-.9,1.73-2.78,1.49-4-.83.52-.99,1.31-1.32,2.13-.6,1.49-.17,1.32-.17,1.86Z"/>
          <path class="cls-2" d="M336.14,155.17c-.11,0-.23,0-.29.07l.29-.07Z"/>
          <path class="cls-2" d="M336.43,155.1l-.29.07c.11,0,.23,0,.29-.07Z"/>
          <path class="cls-2" d="M337.31,153.68l-.44.71c.27-.13.33-.63.44-.71Z"/>
          <path class="cls-2" d="M339.31,105.19l-.38.4c.12.16.39.09.51.18l-.14-.58Z"/>
          <path class="cls-2" d="M306.85,96.39c-2.44-2.37-9.04-9.35-11.36-10.74-.82-.49-1.34.39-1.41.36-4.37,5.62-9.77,10.35-14.58,15.58-1.06,1.15-2.6,2.1-3.42,3.54.2,1.82.96-.41,2.43,0,.42.12.6.67.79.76-1.86-.92-.8.52-1.4.94-.39.27-1,.15-1.34.31-.17.08-.39.07-.58.14-2.87,1.1-2.54,1.02-4.78,2.94.29.53.79.38,1.29.31,1.46-.22,2.54-1.24,2.57.61-.33.17-.91.11-1.15.27l.68,2.88c.2-.01.39-.14.58-.14.13-.69,1.27-.41,1.59-.98l1.29.31c1.37-1.34,3.24-2.65,4.51-4.1.16-.19.28-.49.44-.71.32-.45.56-.97.88-1.42,1.31.89,4.93.35,4.98,3.09.5.19,1.06.09,1.48-.23.3.12-.1,1.08-.06,1.12.05.04.91-.47,1.24.12.62,1.13.91,3.25,1.71,4.66.1.17.04.44.14.58.43.6,2.01,1.79,2.68.96,4.92-4.87,9.4-10.35,14.75-14.78.32-.27,1.17-.82,1.44-1.11.07-.07.11-.13.09-.16-.2-.13-.37-.29-.56-.43-1.82-1.35-3.28-3.11-4.89-4.68ZM280.24,109.93l-3.31.17c.63-.51,1.98-2.16,2.49-2.41.2-.1.44.75.95.96.2.09.45.08.75-.14-.32.49.96.23-.88,1.42Z"/>
          <path class="cls-2" d="M297.38,120.18c.44.64.98,1.2,1.49,1.79,1.55,1.78,3.28,3.89,4.94,5.53,1.35-.3,2.69-.66,4.03-.95.19-.04.38-.1.58-.14,1.62-.27,3.33-.92,4.88.07.15.1.75.82.85,1.02.29.19.54.26.78.25.67-.03,1.14-.68,1.53-.79.45-.12.75-.1.98,0,.56.23.75.9,1.73,1.19,1.46-1.52,2.91-3.2,4.38-4.67,1.55-1.55,3.44-2.81,5.09-4.23.15-.13.59-.58.81-.87.08-.11.14-.21.12-.25-3.25-2.04-14.52-15.31-17.05-15.77.26,1.29-.47,2.05-1.18,2.96-3.91,5.08-10.27,9.54-13.94,14.86Z"/>
          <path class="cls-2" d="M328.62,119.25c.47-.03.84-.08,1.13-.16-.18-.15-.5-.07-1.13.16Z"/>
          <path class="cls-2" d="M314.15,127.5c.04.2.1.36.17.51-.03-.16-.08-.33-.17-.51Z"/>
          <path class="cls-2" d="M291.76,117.56c.1.02.41-.08.58-.14-.15-.34-.11-.91-.27-1.15l-.02.09-.28,1.2Z"/>
          <path class="cls-2" d="M313.95,132.23c-.95-.03-2.32-.94-3.03-.31l-.04,2.43c.69-.06,1.03.43,1.42.88,1.66-1.77,3.3-3.8,4.82-5.38-1.08-.1-2.14-.24-2.88.68.03.08-1.23.84.71.45-.01.23-.05.41-.1.57-.16.53-.49.7-.9.69Z"/>
          <path class="cls-2" d="M301.65,133.85c-.35.33-.28.83-.38.93,1,1.45,1.34-.71,1.59-.98-.02.06-.88-.26-1.21.05Z"/>
          <path class="cls-2" d="M325.16,157.75c.69.72.84-.21.9-.21l-.71-.44s-.46.37-.19.65Z"/>
          <path class="cls-2" d="M329.44,99.52s0,.06.01.08c.02.09.04.17.09.27l1.09-.55-.27-1.15c-.2.39-1,.7-.93,1.35Z"/>
          <path class="cls-2" d="M265.92,70.82c-.76.11-2.6,3-3.81,3.24,1.01,1.84,1.73,3.51,3.88,4.52,1.39.08,3.2-3,4.15-3.98-.83-.55-3.68-3.87-4.22-3.79Z"/>
          <path class="cls-2" d="M268.65,68.27c-.16.16-.82.11-1.15.28.2,1.39.88-.2,1.15-.28Z"/>
        </g>
        <g>
          <path class="cls-2" d="M153.29,517.98c-.07-.27.25-.63.18-.89-.04-.13.03-.29.09-.45l.09-.45c-.07-.26.25-.63.18-.89-.11-.41-2.13-3.81-2.69-5.18l-1.87.09,4.03,7.77Z"/>
          <path class="cls-2" d="M60.46,473.49c.4.15.8.27,1.24.29.21-.1-.96-2.46-1.26-3.04-.67-.22-1.23-.66-1.61-1.25.25.02.46.09.65.19.42.22.73.6.96,1.06.56.18,1.2.24,1.79.35-.59-.75-.55-2.15-2.33-2.32l.18-.89c-.3,0-.6-.19-.89-.18-.31,0-.62-.21-.89-.18-.17.4-1.06.65-1.07.72-.26,2.22,1.21,4.46,3.24,5.24Z"/>
          <path class="cls-2" d="M149.08,508.76l.62-.79c-.69-1.65-1.15-3.37-1.8-5-.09-.24.27-.65.18-.89-.38-.54-2.27-2.17-2.33-2.32-.17,1.48.58,2.64,1.08,3.93.65,1.7.75,3.65,2.25,5.08Z"/>
          <path class="cls-2" d="M10.62,511.04c5.46-2.2,10.82-4.8,16.26-7,7.5-3.03,14.88-6.49,22.33-9.51,1.8-.73,4.66-1.11,6.82-1.98,11.18-4.51,22.41-8.91,33.47-13.73-5.13-1.66-10.95-1.41-16.36-1.85-5.16-.41-10.39-.92-15.55-1.23-2.58-.15-5.21-.45-7.77-.59-1.7-.09-2.46-1.43-2.59,1.31,3.32-.59,6.29.56,9.49.89.63.06,1.23-.41,1.49-.52.03-.01.06-.01.09-.02,5.2.52,11.29,2.28,16.45,1.41l4.75,1.88-29.61,11.99-.5,1.54c-7.77,1.98-15.69,5.28-23.05,8.44-2.6,1.12-7.23,2.38-9.08,3.35-.72.38-.62,1.18-.5,1.69.06.26.13.45.09.46-.16.06-.75.18-1.58.34-1.95.37-5.2.98-7.16,1.7-5.34,1.97-10.64,4.49-16.08,6.1l-.89-.18c.13-.27.03-.69.18-.89.81-1.08,1.28-1.34,2.5-3.22-.86.86-2.18,1.83-3.39,3.04-.18.18,0,.71-.18.89l-.38.25c-.25.13-.53.26-.69.46-1.08,1.31-4.07,2.94-3.3,4.91l24.75-9.95Z"/>
          <path class="cls-2" d="M46.42,475.86c-.04-.86-1.86-.88-2.6-.98l-.18.89c.85-.02,2.6,1,2.78.09Z"/>
          <path class="cls-2" d="M80.57,465.46c.51-.05,1.12.32,2.03,1.32.57-1.89,1.4-3.1,2.48-3.65,1.03-.52,2.28-.44,3.77.24-3.85-3.44-3.26-1.8-6.26-1.24,1.7,5.22-2.94,5.21-.89-.18-.65.16-1.33.33-1.97.54l-1.06,5.36c.72-1.43,1.21-2.32,1.9-2.39Z"/>
          <path class="cls-2" d="M64.19,470.56c1.71,1.8,1.74,1.08,2.5,1.43-.7-1.8-2.8-4.19-4.66-4.64.2,1.49,1.21,2.23,2.15,3.21Z"/>
          <path class="cls-2" d="M145.75,499.75l.09-.45c-.07.16-.13.33-.09.45Z"/>
          <path class="cls-2" d="M145.84,499.3c.07-.16.13-.32.09-.45l-.09.45Z"/>
          <path class="cls-2" d="M144.61,496.88l-.11-.17s.05.1.11.17Z"/>
          <path class="cls-2" d="M144.61,496.88l.6.9c-.01-.36-.4-.68-.6-.9Z"/>
          <path class="cls-2" d="M78.66,463.21l-.89-.18.32.78c.31-.06.37-.5.58-.6Z"/>
          <path class="cls-2" d="M55.56,498.78c-.06-.14-.11-.23-.17-.22-.31.2-.64.34-.96.51-3.06,1.7-6.45,2.61-9.68,3.88-4.88,1.91-18.88,6.73-22.29,9.09-1.21.84-.3,2.14-.39,2.2,5.09,9.71,8.3,20.3,12.56,30.37.94,2.22,1.29,4.99,2.79,7.05,2.68.87.04-1.61,1.54-3.41.43-.51,1.32-.42,1.57-.62-2.48,2.02.23,1.46.43,2.57.13.72-.42,1.5-.42,2.08,0,.3-.16.59-.18.89-.28,4.72-.18,4.21,1.09,8.58.92-.07,1.04-.87,1.25-1.61.62-2.19-.13-4.36,2.49-3.22.02.58-.42,1.34-.35,1.78l4.47.89c.11-.29.06-.64.18-.89-.88-.62.24-2.04-.36-2.86l1.25-1.61c-1.01-2.77-1.65-6.24-2.87-8.93-.16-.35-.5-.7-.72-1.07-.43-.74-1-1.41-1.43-2.14,2.08-1.28,3.63-6.69,7.5-5.02.58-.57.8-1.43.61-2.23.36-.34,1.45.83,1.53.79.09-.04-.08-1.58.96-1.66,1.98-.15,5.14.79,7.62.57.31-.03.63.23.89.18,1.11-.22,3.79-1.68,3.06-3.14-3.7-10-8.53-19.78-11.33-30.09-.17-.62-.4-2.16-.64-2.72ZM46.79,548.88l-1.88,4.75c-.32-1.21-1.77-4.15-1.79-5.03,0-.35,1.33-.14,1.95-.71.25-.23.4-.57.28-1.15.48.77.93-1.2,1.43,2.14Z"/>
          <path class="cls-2" d="M89.7,484.95c-4.94,3.26-30.72,10.61-32.97,13.86,1.98.46,2.57,1.97,3.4,3.54,4.64,8.72,6.84,20.47,11.96,29.02,1.17-.21,2.31-.61,3.45-.95,3.48-1.05,7.55-2.12,10.9-3.41.44-2.08.79-4.18,1.24-6.26.06-.3.1-.6.18-.89.65-2.44.83-5.26,3.21-6.8.23-.15,1.63-.53,1.97-.54.45-.28.71-.6.84-.93.39-.96-.23-2.04-.13-2.64.11-.71.34-1.11.62-1.38.68-.64,1.74-.48,2.77-1.67-1.21-3.01-2.64-6.11-3.77-9.11-1.19-3.17-1.76-6.62-2.7-9.83-.09-.3-.43-1.2-.7-1.69-.11-.19-.2-.32-.27-.33Z"/>
          <path class="cls-2" d="M90.67,486.96c.26-.67.42-1.23.5-1.69-.33.16-.41.66-.5,1.69Z"/>
          <path class="cls-2" d="M93.04,512.52c.3.07.57.09.82.09-.24-.06-.51-.1-.82-.09Z"/>
          <path class="cls-2" d="M63.33,536.43l1.5,1.16c.09-.12.15-.62.18-.89-.57,0-1.34-.43-1.79-.35l.12.09Z"/>
          <path class="cls-2" d="M97.17,519.85l3.39,1.6c.35-1,1.26-1.18,2.14-1.43-1.42-3.46-3.23-7.04-4.48-10.18-.82,1.45-1.7,2.85-.89,4.47.14,0,.39,2.26,1.08-.7.31.17.54.33.74.5.65.56.67,1.13.39,1.7-.65,1.31-2.8,2.66-2.37,4.04Z"/>
          <path class="cls-2" d="M93.98,534.1c.24.7.98.92,1.06,1.12,2.68-.48-.14-2.33-.36-2.86.07.07-.92,1.08-.7,1.73Z"/>
          <path class="cls-2" d="M142.46,516.35c1.46-.51.24-1.31.27-1.39l-1.07.72c.05,0,.23.88.8.68Z"/>
          <path class="cls-2" d="M63.53,473.26s.08.02.13.03c.13.03.27.05.44.04l-.08-1.88-1.79-.35c.42.53.34,1.85,1.3,2.17Z"/>
          <path class="cls-2" d="M161.01,539.95c-2.75-2.32-3.39-6.07-4.66-9.29-.71-1.79-1.17-3.88-2.69-5.18-.04-.29.23-.63.18-.89-.57-2.73-3.14-7.97-4.31-11.08-4.76,2.76-1.1-.33-4.47-.88.62,1.88-1.23,2.73.18,3.74l-1.61,3.39c-1.54-.26-2.5-2.95-3.03-3.39-.39-.32-1.97-.2-2.68-.54-.07-2.04.83-1.63,2.32-2.32-3.23-.24-1.63-.09-3.75.18l-.18.89c-.07,2.51-2.22,3.25-3.75,4.83-.61-1.23-1.37-3.13-1.97-4.11l2.68-4.12c.7-.16,1.3-.36,1.97-.54,1.47-.39,8.58-3.45,10.39-2.75.14.06.26.13.33.23.02.02,0,.11,0,.23-.13.94-.89,4.3,2.16,2.98-.86-2.13-1.41-4.63-2.33-6.97l.18-.89-.89-.18c-.26-.59-.31-1.34-.54-1.97-.14-.39-.47-.74-.72-1.07-.77-1.64-1.23-3.3-1.8-5-.21-.64-.32-1.33-.54-1.97-.79-2.26-1.73-4.05-2.51-6.07-.78-2.01-.55-4.62-2.51-6.07.08-1.15-.43-1.45-.54-1.97-.41-2.02-.84-4.68-2.51-6.07-.05-.28.24-.63.18-.89-.02-.1-.12-.22-.24-.36l-.48-.71c-.68-1.92-1.42-2.82-1.97-4.11-.43-1.02-.8-2.01-1.26-3.04-.11.78-.39,1.26-.78,1.6.1-.44.35-.96.78-1.6-.62-1.4-1.35-2.73-1.97-4.11-2.45-5.41-4.45-11.59-7.89-16.43.09-.12.18-.7.18-.89-.03-1.28-1.23-1.67-1.43-2.14-.4-.94-.01-4.08-2.31-4.1-.23,0-3.71,1.45-4.44,1.84-.14.2-.24.43-.33.66-.06.84.31,2.26.29,3.04,0,.3-.19.6-.18.89l4.48,10.18c-3.42-2.51-2.18-.05-4.44.87-3.72,1.52-10.28,2.77-13.97,3.86-.7.25-1.4.51-2.09.77-1.44.8-1.8,3.42-5.95,1.34.29,1.49.48,2.44-.7,3.57-1.28,1.22-2.96.85-4.09,1.54-1.48.9,1.16,1.12-2.17,1.87-1.02,1.12-2.05,2.29-3.39,3.04-.13-1.11,1-2.13,3.39-3.04-.99.22-3.73,1.12-3.93,1.08-1.3-.27-1.47-3.52-2.87-4.29-.92.43-1.9.26-2.86.36-.3.03-.62-.22-.89-.18-.18.42-1.02.59-1.07.72-.11.25-.09.59-.18.89-.16.58-.21,1.2-.35,1.79-.31.77-.25,1.85-.54,2.69l-1.59-1.26c-.6,1.87.43,3.68,1.79,5.01,1.17.31,2.4.42,3.58.71,7.37.39,15.48,2.23,22.62.78l-.09,2.76c-1.65.66-4.99,3.19-7.32,4.12-34.21,13.65-73.61,26.65-106.12,43.06,1.58.16,2.18.2,3.75-.18,7.4-1.82,20.24-8.8,28.09-11.91,9.73-3.85,19.73-7.22,29.43-11.06,13.7-5.42,31.98-15.07,45.56-18.84,5.54-1.54,2.6.58,3.22,2.5,2.09,6.43,6.8,15.55,9.51,22.33.94,2.37,2.41,5.03,3.23,7.15.38.97.52,2.5,1.08,3.93.72-.36,1.45-1.18,2.14-1.43,1.33-.49,2.89-.53,4.16-1.06.67-.28,9.03-5.16,11.1-3.95.25.14.43.36.47.7-1.18,2.58-4.72,3.35-7.5,5.02,1.23-.13,2.51-.14,3.75-.18.23-.12.44-.27.65-.43.53-.41,1.06-.86,1.82-.93.41-.04.88.03,1.46.29.3,1.69,2.76,7.45,2.15,7.86-1.91.07-1.69-1.15-2.32-2.32-.58-1.08-1.57-4.8-2.24-5.07-.11-.05-.94.59-1.52.61-2.15,1.1-6.08,2.32-6.43,4.3.13.07.07,1.01.98,1,2.25-.03,8.83-5.92,7.12.69-.08.24-.16.51-.23.81-.41-.16-1.22-1.4-1.55-1.21-.13.08-.89,1.68-1.89,2.41-5.81,4.24-4.96-.12-6.94-5.11.26.12.65.03.89.18,1.31-1.05,2.86-2.01,4.29-2.87-1.84.19-3.27.7-4.83.9-.37.32-.71,1.04-1.03,1.42-.07.04-.14.11-.21.2-.69.4-2.31.26-3.04,1.26,1.74,4.45,3.59,8.34,4.85,13.04.07.28,1.37.4.54,1.96-1.54-1.21-8.67-.59-8.98-.92-.21-.22-1.34-4.77-1.76-5.85-.65-1.7-2.08-3.04-1.8-5-.2-.14-.6-.05-.89-.18-.34.26-.69.51-1.07.72-1.64.89-3.01,1.01-4.83.9l-.18.89c-2.49-.47-10.38,2.83-12.15,5.02-.3-.11-.86-.08-.89-.18-5.42,2.74,2.23,10.59,1.6,13.79-.52,2.65-8.49,6.03-8.8,9.16-.17,1.68,3.4,9.82,4.49,10.62,1.27.93,3.6.2,3.12,1.81l-8.92,2.89c.26-1.19.51-2.41.2-3.63-1.72-6.8-7.27-19.03-10.08-26.21-3.37.26-6.5,2.29-9.83,2.7l-1.78,3.04,10.7,27.46c.96,1,9-3.34,7.32.12-.13.26-4.51,3.12-4.81,3.26-4.16,1.99-12.41,2.28-13.49,2.78-.41.19-3.58,6.2-5.39.89-.35,1.02-1.61.36-1.97.54-.89.45-1.25,2.23-3.04,1.25.48-.98,2.21-2.05,3.21-2.14.5-.05,1.21.34,1.79.35-1.1-3.23-2.44-10.31-3.59-12.72-2.33-4.92-5.95-9.47-8.43-15.68-1.04-2.61-1.32-4.39-2.33-6.97-3.76-9.59-7.72-19.35-10.95-29.12-.15-.46-.29-1.32-.43-2-.11-.53-.23-.95-.37-.94l-27.23,10.49-1.45.56s-.02.12,0,.24c.15.63,1,2.31,1.25,2.78,4.92,9.4,8.13,19.4,11.84,29.3.62,1.66,1.19,3.34,1.8,5l.47.71c.11.13.2.25.24.37,1.23,3.3,2.83,6.65,3.32,10.2.01.21.04.44.1.7-.98.14-5.45.09-5.54-.17-.22-.67,1.19-1.59,1.31-2.08.05-.19-3.06-.7-3.29-2.03.36-1.07-.3-2.01-.36-2.86-.03-.36-.25-.68-.27-.98-.15-1.94,1.35.95,1.44-.19.09-1.2-.14-1.59-.91-2.47-4.19,1.59-8.33,3.59-12.6,4.91l-.27-2.13-.09-.73c4.08-1.24,7.76-3.41,11.97-4.15-1.51-3.48-2.21-7.33-3.42-10.88-3.32.16-10.33,5.64-12.81,3.54-.46-.39-.37-1.19-.59-1.56-1.18-1.97-6.01-13.76-6.17-15.65-.12-1.34.4-1.56,1.58-1.06.47.99,1.36,2.17,1.71,3.12.2-1.41,2.95-3.8,4.13-3.76,1.9.07,2.02,4.32,4.45,2.68-.72-2.35-1.23-2.99,1.43-2.5-1.24-2.96-1.5-3.99-2.33-6.97-.13-.48-.74-1.02-.59-1.74,0-.08,0-.15,0-.22-.1,0-.19.02-.29.04-.33.17-.85.34-1.62.5-5.25.53-8.69,4.04-13.94,4.67-.1.16-1.96.24-2.29,1.87-.33,1.64,1.39,2.45,1.4,2.6.03.29-.21.61-.18.89.03.29-.22.62-.18.89.04.29-.23.62-.18.89,4.13,5.11,5.98,11.71,7.96,17.94.14.44,1.13.81,1.26,1.3.6,2.3-1.22,6.26,1.91,8.98-.3.22-1.09,1.25-1.25,1.61-.09.22-.18.66-.18.89,2.04-1.26,3.91,1.5.72,1.07-.01.3-.18.6-.18.89l3.4,1.6c-.09.25.87,1.68.47,2.4-3.02-1.3-1.6-.07-1.35,2.07.03.3-.23.62-.18.89,1.32,1.33,4.38,10.63,4.21,11.52-.36,1.84-3.46,3.33-5.07,5.17-.33.52-.64,1.03-.91,1.55-.27,1.1-.63,2.5-.71,3.58.75,1.83-.09,3.78,1.8,5,.2.15.62.03.89.18l2.5,1.43c.25.14.63.04.89.18l2.5,1.43c.27.11.62.07.89.18l2.5,1.43c.29.09.6.09.89.18,1.3.38,2.46,1.09,3.77,1.42l164.7-68.37c1.15-1.8-.99-2.2-1.25-3.02ZM-3.16,566.53c.35-.08.94-.15,1.89-.23,1.1-.09.5.07.89.18l-.89-.18-2.14,1.43c.1-.46-.25-.74-.23-.94.01-.1.14-.19.48-.26ZM-6.81,570.77l-1.07.72c-1.28-.39-1.44-1.92-1.26-3.04.8.04,2.29,1.45,2.5,1.43l-.18.89ZM-1.98,569.87l-.79-.62c.08-.07.14-.11.22-.18,1.55-1.32,2.56-1.02,3.09.68.06.2.12.4.17.64-.81,0-1.8-.45-2.68-.53ZM15.28,571.86c-.73,1.23-2.33.6-2.95.85l-.89.24c-.43-.06-.6-.49-.7-.94-.08-.33-.12-.66-.23-.84-1.31-2.31-3.06-6.24-3.55-8.82-.39-2-.53-3.55.17-5.54,1.65-.61,3.33-1.27,5-1.8,4.38-1.39,8.37-2.44,12.87-3.95.7-.23,2.88-1.56,3.03-1.26-.33,1.13-.31,2.51-.7,3.58-4.14.99-9.35,2.82-12.33,5.92-.31.03-.65-.24-.89-.18-.77.19-2.64,1.47-3.21,2.15,1.72,1.74,1.79,4.22,2.51,6.07.41,1.06,2.52,2.48,1.89,4.52ZM31.26,566.24l-.98-2.04c-1.29,3.72-8.71.44-7.95,4.92-3.31,1.13-4.56-7.3-5.56-9.46,1.97,0,3.03.53,4.65,0,1.9-.64,6.44-1.91,6.25-3.41-1.23.13-2.53,0-3.75.18-1.26.9-2.66,1.47-4.11,1.97l-.79-.62c1.45-1.44,3.2-1.09,4.9-1.36.69-.5,3.11-1.99,3.21-2.15.85.5,1.06,1.33,1.43,2.14,1.35,2.93,3.37,6.58,2.69,9.82ZM35.93,580.18c-.43.55-1.41-.82-.52-1.95.43-.55,1.41.82.52,1.95ZM84.49,532.2l.89.18c-.75,4.53,2.67.99,3.58.71.6-.19,1.35-.39,1.97-.54.65-.16,1.76-.47,2.65-.48.46,0,.87.07,1.1.3-.36-.84.36-3.62-2.15-3.21.9-.24,1.64-.96,2.86-.36.93,1.29,2.83,6.89,2.93,8.52.12,2.02-.95.57-1.62.59-.11.13-.23.26-.4.36.9,3.39-7.73,5.15-8.74,4.69-1.38-.63-3.03-8.28-4.14-10.04.06-.01.36-.46,1.07-.72ZM88.3,564.53l-3.94,1.09,3.87-1.33-.49-1.7,2.6.97-2.11.73.07.24ZM96.91,560.89c-.44.19-2.67,4.12-2.2-.62h4.65c-.5,1.87-2.27.55-2.45.62ZM99.8,553.36c-1.88,2.16-2.91.05-1.69-.79.08-.05,1.96.03,1.69.79ZM100.44,554.88c.06-.68,1.44-3.31,1.61-3.39,2.67-1.39,1.69,3.3-1.61,3.39ZM122.56,532.32c-1.37.03-1.78-.76-2.41-1.87l2.76.09-.35,1.78ZM124.97,529.55c.41-.52.71-.46.89.18l-.89-.18ZM116.62,501.41c-2.81,2.49-7.27,3.91-11.08,4.31-.17-4.38-6.04-12.56-6.71-17.61-.36-2.7,1.5-.13,1.86-.08.86,1.57,1.18,3.36,1.8,5,.4,1.08.82,1.99,1.26,3.04.63,1.52,2.04,6.58,2.9,7.03,1.94,1.01,4.75-2.31,8.19-2.04,1.43-1.65-1.05-6.44-1.98-8.76-.43-1.08-1.31-1.83-1.43-2.14-.82-2.15-2.8-6.2-1.72-7.77,4.03,5.12,5.12,12.81,7.99,18.31-.32.28-.76.44-1.07.72ZM118.9,480.48l.37-1.78c.23-.07.57.2.89.18,2.93,6.82-3.29,6.95-2.86.36l.89.18.71,1.07ZM118.36,485.19c.14.28.27.56.38.84-.09-.14.3-1.21.36-1.78,1.86-.05,1.85.6,2.5,1.42.15.18.71,1.01.72,1.07.09.7-.73,2.38-.53,2.69.15.23,4.36-.47,5.43.6l-2.57,3.68c-.71-.32-1.87-.25-2.68-.53-.7-1.83-2.22-4.53-3.23-7.15-.15-.29-.25-.56-.38-.84ZM126.79,492.28c.11.03.19.05.29.08-.08.08-.17.15-.25.22l-.04-.3ZM120.37,501.22c.47-.36,2.41-.24,3.04-1.26.03.09.08.17.13.25.72,1.1,2.96,1.34-.66,2.43-.74-.14-2.24,1.33-2.5-1.43ZM135.67,507.3c.09-.09.18-.17.26-.2l-1.97.54-.89-.18c.08-.6.26-1.19.35-1.79,1.54.08,3.66-.88,5.54.18.05,1.3-1.72.79-3.03,1.25-.09.08-.18.13-.26.2,0,0,0,0,0,0ZM110.54,480.14c-4.47,1.87-9.27,4.16-13.96,5.2,6.02-4.02,13.98-7.24,20.83-10,4.31-1.74,9-4.01,13.65-4.51-6.6,3.44-13.65,6.44-20.51,9.32ZM72.5,471.02c-.22-.28-.25-.55.1-.64.62-.16,1.27.2,1.58.59.2.25.25.52.03.65-.11.07-.24.1-.38.1-.48,0-1.05-.34-1.32-.7ZM76.14,470.17c-.51.15-1.02.18-1.49.11.37-.18.9-.18,1.49-.11ZM74.02,467.86c-.37.47-1.48.45-1.85.51-.04.01-.07.02-.12.03-.46.47.28,2.31-1.24,1.61,0-.02,0-.04,0-.06,0-.03,0-.05,0-.07,0-.89,1.06-1.16,1.24-1.47.06-.11.1-.24.13-.39.08-.43.07-1,.23-1.4.47.47,1.12.8,1.61,1.25ZM127.66,530.08c.04-.8,1.81-.16,1.87-.08.81,1.24-.95,2.8-1.87.08ZM146.68,518.52l.89.18.27.97.62-.79c.29-.02.61.21.89.18-.42,2.02-1.66,2.83-3.66,2.07-.84-.5.8-1.66.98-2.6ZM147.58,523.35s-.49-.07-.69-.39c-.1-.15-.14-.36-.03-.67l3.58.7c.07.3.56.68.72,1.07l-3.58-.71ZM154.22,541.38c-.23-.27,3.37-4.39,4.28-2.85,1.12,1.9-2.33,3.73-4.28,2.85Z"/>
        </g>
        <g>
          <path class="cls-2" d="M280.84,665.7c-.42.12-1.03-.36-1.44-.23-.21.06-.46-.03-.72-.12l-.72-.12c-.41.13-1.02-.36-1.44-.23-.65.2-5.97,3.63-8.13,4.6l.25,2.99,12.21-6.89Z"/>
          <path class="cls-2" d="M210.56,816.93c-.31,1.09-.98,2-1.91,2.65.01-.4.12-.74.27-1.05.33-.69.92-1.2,1.64-1.6.26-.91.31-1.94.47-2.88-1.16.98-3.41,1-3.58,3.86l-1.44-.23c0,.48-.26.97-.23,1.44.03.49-.3,1.01-.23,1.44.65.26,1.1,1.67,1.21,1.67,3.57.29,7.07-2.18,8.2-5.48.22-.64.38-1.3.4-1.99-.17-.32-3.88,1.68-4.79,2.18Z"/>
          <path class="cls-2" d="M258.35,676.84c2.68-1.14,5.8-1.4,7.99-3.89l-1.3-.94c-2.6,1.19-5.32,2.04-7.9,3.16-.37.16-1.06-.39-1.44-.23-.79.59-2.99,3.33-3.49,3.79-.03.02-.06.04-.09.07,2.37.19,4.19-1.08,6.23-1.95Z"/>
          <path class="cls-2" d="M265.75,868.72c-5.28-11.83-11.22-23.44-16.48-35.18-1.27-2.83-2.04-7.39-3.56-10.8-7.86-17.62-15.54-35.35-23.86-52.76-2.36,8.3-1.64,17.6-2.03,26.27-.37,8.28-.88,16.68-1.08,24.95-.1,4.13-.42,8.35-.49,12.47-.05,2.73-2.15,4.02,2.25,4.06-1.13-5.28.54-10.1.88-15.24.07-.99-.7-1.9-.91-2.33-.02-.06-.03-.11-.06-.18.53-8.35,3-18.18,1.31-26.39l2.73-7.7,20.87,46.69,2.49.71c3.61,12.31,9.34,24.8,14.81,36.39,1.93,4.1,4.21,11.43,5.87,14.34.65,1.14,1.93.92,2.74.7.41-.11.71-.23.73-.18.11.24.33,1.19.63,2.5.7,3.1,1.86,8.27,3.12,11.36,3.45,8.44,7.78,16.76,10.68,25.38l-.23,1.44c-.44-.2-1.11,0-1.44-.23-1.77-1.23-2.21-1.97-5.3-3.81.21.21.42.41.62.61,1.28,1.3,2.71,3.04,4.44,4.64.3.28,1.14-.04,1.44.23l.43.59c.23.39.45.83.78,1.08,2.16,1.65,4.94,6.34,8.05,5.01l-17.33-39.03c-3.82-8.61-8.29-17.04-12.12-25.61Z"/>
          <path class="cls-2" d="M307.16,950.8c2.86-3.64-3.76-9.83-5.34-12.69-.12,1.92-.75,3.84-.93,5.76,1.65,1.51,3.44,5.61,6.27,6.93Z"/>
          <path class="cls-2" d="M275.34,919.05c1.11.71,2.19,1.15,3.19,1.65.28.17.58.33.9.48-1.34-1.25-2.43-2.32-3.86-3.58l-.23,1.44Z"/>
          <path class="cls-2" d="M219.55,839.06c-1.37.12-1.3,3.02-1.42,4.22l1.44.23c-.07-1.36,1.45-4.22-.02-4.45Z"/>
          <path class="cls-2" d="M200.97,785.02c-.11-.81.45-1.81,1.99-3.32-3.06-.8-5.04-2.06-5.98-3.76-.88-1.61-.84-3.62.18-6.04-5.28,6.36-2.7,5.32-1.63,10.08,8.25-3.02,8.51,4.4-.23,1.44.3,1.03.6,2.12.97,3.11l8.64,1.4c-2.33-1.07-3.78-1.81-3.94-2.91Z"/>
          <path class="cls-2" d="M210.05,810.93c2.78-2.84,1.63-2.85,2.14-4.09-2.83,1.22-6.54,4.71-7.16,7.71,2.37-.4,3.5-2.06,5.02-3.62Z"/>
          <path class="cls-2" d="M252.12,678.79l-.72-.12c.27.1.53.2.72.12Z"/>
          <path class="cls-2" d="M250.68,678.56l.72.12c-.26-.1-.53-.19-.72-.12Z"/>
          <path class="cls-2" d="M247.6,680.78l1.41-1.02c-.57.04-1.07.69-1.41,1.02Z"/>
          <path class="cls-2" d="M247.6,680.78l-.26.19c.07-.02.16-.09.26-.19Z"/>
          <path class="cls-2" d="M197.47,788.2l-.23,1.44,1.23-.55c-.12-.49-.82-.57-1-.89Z"/>
          <path class="cls-2" d="M262.97,840.19c3.33,7.7,11.84,29.82,15.82,35.14,1.41,1.89,3.43.37,3.55.51,15.24-8.7,32-14.43,47.87-21.82,3.49-1.63,7.91-2.35,11.13-4.87,1.25-4.34-2.59.03-5.54-2.27-.84-.66-.74-2.08-1.07-2.48,3.37,3.85,2.32-.45,4.08-.83,1.14-.25,2.42.59,3.35.55.47-.02.96.22,1.44.23,7.57.19,6.74.05,13.66-2.22-.16-1.47-1.44-1.61-2.65-1.91-3.54-.86-6.96.45-5.29-3.81.92-.07,2.17.6,2.87.46l1.16-7.2c-.47-.16-1.03-.05-1.44-.23-.95,1.45-3.28-.27-4.55.74l-2.65-1.91c-4.38,1.78-9.88,2.99-14.13,5.11-.55.27-1.1.84-1.67,1.21-1.15.74-2.19,1.68-3.35,2.41-2.17-3.26-10.91-5.43-8.45-11.71-.95-.9-2.33-1.2-3.6-.85-.57-.55,1.24-2.37,1.18-2.49-.07-.14-2.52.23-2.71-1.45-.35-3.16.98-8.26.48-12.22-.06-.49.33-1.03.23-1.44-.41-1.76-2.91-5.96-5.2-4.71-15.8,6.48-31.16,14.77-47.5,19.84-.99.31-3.43.77-4.32,1.17-.22.1-.37.2-.35.28.33.48.58,1.01.88,1.5,2.89,4.79,4.55,10.17,6.75,15.26ZM336.35,834.32l7.7,2.73c-1.91.58-6.54,3.07-7.94,3.15-.56.03-.3-2.12-1.25-3.08-.38-.39-.94-.6-1.85-.38,1.2-.82-1.97-1.42,3.35-2.41Z"/>
          <path class="cls-2" d="M231.63,769.31c5.5,7.71,18.73,48.54,24.05,51.96.62-3.19,3-4.22,5.47-5.65,13.68-7.92,32.36-12.11,45.74-20.79-.4-1.87-1.1-3.67-1.71-5.47-1.87-5.51-3.81-11.96-6.08-17.24-3.35-.58-6.74-1.03-10.08-1.63-.48-.09-.97-.12-1.44-.23-3.95-.9-8.46-1.04-11.06-4.74-.26-.36-.94-2.58-.97-3.11-.48-.71-1-1.1-1.54-1.29-1.56-.57-3.24.48-4.22.36-1.15-.14-1.79-.47-2.24-.91-1.06-1.04-.87-2.75-2.82-4.34-4.75,2.1-9.63,4.58-14.36,6.55-5,2.08-10.49,3.18-15.57,4.87-.47.16-1.89.76-2.66,1.22-.3.18-.51.35-.51.45Z"/>
          <path class="cls-2" d="M234.79,767.63c-1.09-.37-1.99-.6-2.73-.7.28.52,1.07.62,2.73.7Z"/>
          <path class="cls-2" d="M275.55,762.4c.1-.48.11-.91.1-1.32-.09.39-.13.82-.1,1.32Z"/>
          <path class="cls-2" d="M317.26,806.1c-.2-.14-1-.2-1.44-.23,0,.14-.02.27-.02.4-.11.85-.57,1.88-.44,2.49l.14-.19,1.77-2.46Z"/>
          <path class="cls-2" d="M280.43,751.82c2.14.96,4.41,4.33,6.6,3.55l2.37-5.52c-1.62-.51-1.95-1.95-2.41-3.35-5.45,2.47-11.08,5.56-16.04,7.75,2.37,1.24,4.66,2.56,7.2,1.16,0-.22,3.59-.76-1.19-1.69.25-.51.5-.89.76-1.2.86-1.06,1.77-1.13,2.71-.71Z"/>
          <path class="cls-2" d="M310.01,759.67c1.1-.42,1.42-1.62,1.74-1.76-.92-4.25-3.72.35-4.55.74.1-.11,1.78,1.41,2.82,1.02Z"/>
          <path class="cls-2" d="M278.85,683.11c-.91-2.3-2.1-.31-2.24-.36l1.21,1.67c0-.08,1.39-.42,1.04-1.31Z"/>
          <path class="cls-2" d="M214.42,811.84c.01-.07.03-.14.05-.21.04-.21.06-.44.04-.7l-3.01.24-.47,2.88c.82-.7,2.94-.66,3.39-2.21Z"/>
          <path class="cls-2" d="M332.28,936.92c1.83.46,8.74-4.4,11.74-3.81-.58-5.15-.66-9.63-4.61-13.96-3.08-1.49-10.11,3.84-13.19,5.17,1.37,2.04,4.75,12.27,6.05,12.6Z"/>
          <path class="cls-2" d="M326.54,940.62c.79-3.12-1.79-.76-2.7-.48.61-.04,1.88.53,2.7.48Z"/>
          <path class="cls-2" d="M323.84,940.14c-.06,0-.13,0-.17.03.05,0,.11,0,.17-.03Z"/>
          <path class="cls-2" d="M320.32,649.92c-2.94-1.74-3.46,1.71-4.76,2.18-3.56,4.54-9.52,5.77-14.59,7.99-2.82,1.23-6.14,2.09-8.13,4.6-.46.09-1.02-.34-1.44-.23-4.34,1.07-12.58,5.48-17.48,7.52,4.68,7.46-.46,1.77-1.15,7.2,2.97-1.09,4.45,1.82,5.98-.51l5.52,2.39c-.33,2.48-4.58,4.17-5.25,5.05-.49.65-.2,3.17-.71,4.32-3.26.23-2.65-1.24-3.85-3.58-.21,5.19-.05,2.62.51,5.99l1.44.23c4.02-.03,5.33,3.37,7.94,5.72-1.94,1.04-4.94,2.36-6.46,3.39l-6.74-4.05c-.29-1.11-.66-2.06-.97-3.11-.7-2.32-6-13.54-4.99-16.46.08-.23.19-.42.35-.54.04-.03.17-.02.37,0,1.51.15,6.93,1.18,4.65-3.63-3.36,1.5-7.33,2.52-11.01,4.13l-1.44-.23-.23,1.44c-.93.45-2.13.57-3.11.97-.62.25-1.15.79-1.67,1.21-2.58,1.32-5.21,2.15-7.9,3.16-1.02.38-2.11.58-3.11.97-3.57,1.4-6.37,3-9.58,4.36-3.17,1.35-7.36,1.14-9.57,4.36-1.85-.07-2.29.78-3.11.97-3.21.77-7.44,1.61-9.58,4.36-.45.1-1.03-.35-1.44-.23-.15.04-.34.21-.56.4l-1.11.8c-3.04,1.19-4.42,2.44-6.46,3.39-1.6.75-3.17,1.39-4.79,2.18,1.26.13,2.04.56,2.6,1.16-.71-.14-1.56-.51-2.6-1.16-2.21,1.07-4.3,2.32-6.46,3.39-8.51,4.22-18.29,7.77-25.84,13.56-.2-.14-1.13-.25-1.44-.23-2.04.11-2.6,2.06-3.35,2.41-1.48.7-6.53.25-6.42,3.92.01.37,2.53,5.86,3.2,7.01.34.21.7.36,1.07.49,1.35.04,3.59-.62,4.84-.64.48,0,.97.26,1.44.23l16.02-7.75c-3.82,5.61.04,3.49,1.64,7.05,2.65,5.87,5.02,16.29,6.97,22.12.44,1.11.9,2.2,1.35,3.31,1.36,2.26,5.58,2.69,2.49,9.44,2.37-.55,3.88-.91,5.75.92,2.02,1.99,1.53,4.69,2.69,6.45,1.52,2.32,1.72-1.92,3.12,3.36,1.85,1.56,3.78,3.15,5.06,5.25-1.78.27-3.46-1.48-5.06-5.25.42,1.57,2,5.91,1.95,6.23-.36,2.09-5.55,2.55-6.69,4.83.74,1.44.53,3.03.74,4.55.07.47-.32,1-.23,1.44.68.26,1,1.59,1.21,1.67.41.16.95.12,1.44.23.94.22,1.93.26,2.88.47,1.26.45,2.97.3,4.33.71l-1.93,2.62c3.03.85,5.87-.9,7.91-3.14.44-1.88.53-3.87.93-5.76.21-11.82,2.69-24.9-.04-36.23h4.42c1.14,2.58,5.39,7.78,7.01,11.47,23.78,53.94,46.82,116.24,74.93,167.32.16-2.53.2-3.5-.51-5.99-3.33-11.74-15.23-31.87-20.65-44.27-6.71-15.35-12.67-31.15-19.37-46.46-9.45-21.61-25.93-50.31-32.73-71.81-2.78-8.78.78-4.19,3.81-5.3,10.16-3.7,24.48-11.76,35.18-16.48,3.73-1.65,7.92-4.13,11.25-5.57,1.53-.66,3.97-.98,6.23-1.95-.62-1.13-1.96-2.25-2.41-3.35-.86-2.09-1.01-4.59-1.93-6.59-.48-1.05-8.76-14.16-6.96-17.54.22-.41.55-.7,1.09-.79,4.2,1.75,5.62,7.36,8.45,11.71-.28-1.97-.37-4.01-.51-5.99-.2-.36-.46-.69-.73-1.01-.69-.83-1.44-1.65-1.6-2.86-.08-.65,0-1.41.38-2.36,2.69-.58,11.77-4.85,12.45-3.89.23,3.05-1.74,2.78-3.57,3.85-1.7,1-7.59,2.78-7.98,3.88-.07.19.99,1.47,1.06,2.39,1.88,3.38,4.06,9.59,7.25,10.04.11-.2,1.61-.17,1.54-1.63-.17-3.6-9.97-13.79.69-11.42.4.11.82.22,1.3.32-.24.66-2.17,2.04-1.85,2.55.13.21,2.74,1.33,3.96,2.88,7.12,9.05.09,7.94-7.79,11.39.18-.43.02-1.05.23-1.44-1.75-2.03-3.38-4.46-4.83-6.69.41,2.93,1.3,5.19,1.72,7.67.54.58,1.7,1.07,2.32,1.57.08.11.18.22.33.33.68,1.08.54,3.69,2.18,4.79,7.02-3.04,13.14-6.22,20.59-8.5.44-.13.56-2.21,3.11-.97-1.86,2.53-.45,13.9-.97,14.41-.35.35-7.56,2.42-9.26,3.14-2.69,1.14-4.74,3.49-7.9,3.16-.21.32-.05.96-.23,1.44.44.53.86,1.08,1.21,1.67,1.51,2.57,1.78,4.75,1.72,7.67l1.44.23c-.61,4.01,5.11,16.44,8.73,19.15-.16.48-.08,1.38-.23,1.44,4.7,8.52,16.82-4.17,21.97-3.35,4.26.67,10.13,13.23,15.16,13.56,2.69.18,15.52-6,16.73-7.78,1.42-2.09.12-5.77,2.73-5.09l5.13,14.11c-1.92-.35-3.88-.67-5.81-.11-10.79,3.13-30.03,12.72-41.36,17.62.61,5.38,4.04,10.27,4.87,15.57l4.97,2.68,43.32-18.68c1.55-1.59-5.85-14.2-.22-11.71.43.19,5.25,7.04,5.49,7.5,3.43,6.54,4.35,19.72,5.21,21.42.33.65,10.12,5.38,1.72,8.57,1.66.5.67,2.56.97,3.11.77,1.39,3.64,1.88,2.17,4.78-1.59-.72-3.4-3.42-3.61-5.02-.1-.79.47-1.95.47-2.88-5.1,1.94-16.35,4.49-20.15,6.46-7.74,4.01-14.81,10.06-24.61,14.39-4.11,1.81-6.95,2.37-11.02,4.13-15.12,6.57-30.51,13.45-45.97,19.17-.72.27-2.1.53-3.18.8-.84.21-1.51.43-1.48.65l18.32,42.97.98,2.29s.19.02.38-.03c1-.27,3.63-1.73,4.38-2.16,14.76-8.4,30.58-14.1,46.2-20.61,2.62-1.09,5.28-2.09,7.9-3.16l1.1-.8c.2-.18.39-.34.57-.41,5.21-2.15,10.47-4.9,16.11-5.88.34-.03.71-.09,1.13-.2.28,1.55.46,8.71.04,8.87-1.06.4-2.61-1.82-3.4-1.98-.3-.06-.95,4.93-3.05,5.38-1.73-.51-3.2.6-4.55.74-.58.06-1.07.43-1.56.49-3.1.35,1.44-2.21-.38-2.29-1.93-.08-2.54.32-3.91,1.59,2.78,6.61,6.22,13.11,8.58,19.87l-3.4.55-1.16.19c-2.21-6.46-5.9-12.22-7.32-18.92-5.48,2.61-11.6,3.95-17.21,6.08.45,5.31,9.62,16.2,6.4,20.3-.6.76-1.89.66-2.46,1.03-3.09,2-21.67,10.4-24.68,10.77-2.13.26-2.52-.55-1.78-2.47,1.56-.81,3.4-2.3,4.9-2.92-2.27-.23-6.25-4.51-6.25-6.39,0-3.05,6.8-3.48,4.03-7.27-3.72,1.28-4.71,2.13-4.09-2.14-4.67,2.15-6.29,2.63-11.02,4.13-.77.24-1.59,1.24-2.76,1.04-.13.02-.24.02-.35.03,0,.15.04.3.08.46.29.52.59,1.35.9,2.56,1.14,8.37,6.96,13.67,8.26,22.03.26.15.5,3.13,3.12,3.55,2.64.43,3.85-2.36,4.08-2.39.46-.06.98.3,1.44.23.46-.07,1,.32,1.44.23.46-.09,1.01.33,1.44.23,7.94-6.9,18.39-10.24,28.25-13.76.7-.25,1.23-1.85,2.01-2.08,3.64-1.09,10.09,1.6,14.26-3.57.37.47,2.06,1.68,2.65,1.91.35.14,1.06.25,1.44.23-2.14-3.19,2.17-6.34,1.67-1.21.48,0,.97.26,1.44.23l2.37-5.53c.4.12,2.63-1.48,3.81-.88-1.9,4.9-.02,2.57,3.39,2.05.47-.07,1.01.32,1.44.23,2.05-2.19,16.76-7.62,18.19-7.39,2.96.47,5.52,5.34,8.56,7.81.84.51,1.69.97,2.53,1.36,1.77.36,4.03.86,5.76.93,2.89-1.31,6.05-.07,7.9-3.16.23-.33.01-1,.23-1.44l2.14-4.09c.21-.41.03-1.02.23-1.44l2.14-4.09c.17-.45.07-.99.23-1.44l2.14-4.09c.13-.46.11-.97.23-1.44.53-2.1,1.6-4,2.06-6.12l-118.75-259.59ZM221.15,724.04l1.67-1.19-2.87-.48c-.12-.36.28-.93.23-1.44,10.75-5.08,11.31,4.87.74,4.55l.23-1.44ZM241.25,709.55c.04-.17.07-.31.11-.47.13.13.24.26.36.39l-.48.08ZM264.43,694.09c.14.14.22.27.34.41,0,0,0,0,0,0-.16-.14-.28-.28-.33-.4l.97,3.11-.23,1.44c-.96-.1-1.92-.35-2.88-.47.03-2.47-1.62-5.81-.03-8.87,2.08-.16,1.37,2.71,2.17,4.78ZM228.83,722.32c-.19-2.97.85-2.99,2.13-4.08.28-.24,1.57-1.19,1.67-1.21,1.12-.18,3.85,1.03,4.33.69.36-.25-1-6.95.64-8.72l6.04,3.9c-.48,1.16-.29,3-.7,4.32-2.88,1.22-7.11,3.82-11.25,5.57-.46.26-.88.43-1.32.65.44-.24.88-.47,1.32-.65-.22.16-1.96-.41-2.87-.47ZM254.12,714.3c1.71-1.21,1.97-4.81,3.93.92-.18,1.18,2.25,3.5-2.14,4.09-.6-.74-.53-3.84-2.18-4.79.14-.06.27-.14.39-.22ZM208.76,791.84c.27.8.34,1.63.26,2.37-.31-.58-.35-1.43-.26-2.37ZM209.29,797.5c-.29-.98.25-2.05.85-2.55.39-.33.81-.43,1.04-.09.12.18.17.38.18.6.04.77-.49,1.7-1.04,2.16-.43.36-.87.43-1.03-.12ZM208.58,800.37c-1.42.06-1.92-1.63-2.42-1.9-.17-.09-.39-.15-.63-.18-.7-.11-1.6-.06-2.25-.28.73-.78,1.21-1.83,1.91-2.65.09.11.18.2.27.29.51.73.55,2.13.64,2.64.02.09.04.16.06.18.77.7,3.69-.58,2.64,1.89-.04,0-.06,0-.1,0-.04,0-.08,0-.12,0ZM214.67,725.54c-3.03-6.79-6.93-14.17-7.99-21.57,5.87,10.36,11.08,21.46,16.07,32.29,3.25,7.04,7.19,14.59,9.11,22.04-6.77-9.4-12.37-21.95-17.19-32.75ZM226.38,737.46c7.96-6.75,20.2-8.92,28.83-13.82.47.49.75,1.2,1.21,1.67,4.14,4.35,6.66,11.4,7.52,17.48-7,.52-19.75,10.38-27.8,11.74-4.31.73-.29-2.39-.23-2.97,2.46-1.46,5.3-2.09,7.9-3.16,1.71-.7,3.14-1.43,4.79-2.18,2.4-1.1,10.42-3.64,11.08-5.04,1.51-3.15-3.97-7.47-3.73-12.99-2.72-2.19-10.24,2.05-13.9,3.67-1.7.75-2.85,2.21-3.35,2.41-3.39,1.44-9.76,4.84-12.33,3.19ZM289.76,674.53c-.07,0-.09.78-.58,1.13-.23.17-.57.24-1.08.08l.92-5.76c.47-.13,1.06-.94,1.67-1.21l-.93,5.76ZM282.09,676.25l.23-1.44,1.53-.49-1.3-.95c-.05-.47.29-.98.23-1.44,3.26.56,4.63,2.49,3.51,5.73-.75,1.37-2.7-1.19-4.21-1.41ZM300.97,710.34c-.86-.63-.78-1.11.23-1.44l-.23,1.44ZM301.42,703.03c1.94-1.37,4.54,1.37.24,2.98-1.28-.02-.36-2.89-.24-2.98ZM302.68,718v-4.42s2.86.46,2.86.46c.12,2.2-1.12,2.89-2.86,3.96ZM313.43,656.2c2.97-1.9,6.1,3.52,4.81,6.68-.43.38-7.21-5.14-4.81-6.68ZM324.55,769.43c-.93,2.24-13.07,5.32-15.82,7.2-.02-.1-.76-.55-1.21-1.67l.23-1.44c7.29.95,1.43-4.33.93-5.76-.33-.95-.7-2.15-.97-3.11-.29-1.03-.86-2.79-.92-4.21-.03-.74.06-1.39.41-1.78-1.33.63-5.81-.36-5.02,3.62-.44-1.43-1.62-2.57-.74-4.55,2-1.56,10.86-4.92,13.46-5.17,3.22-.31.97,1.49,1.04,2.56.21.17.42.36.6.62,5.37-1.63,8.69,12.07,8.01,13.71ZM339.32,752.01c-.09-.12-.06-3.14,1.17-2.75,3.57,2.89.24,4.66-1.17,2.75ZM337.37,745.77c-2.38-4.19,5.18-2.89,5.52,2.38-1.09-.06-5.37-2.12-5.52-2.38ZM351.83,756.99l-.28-7.43c3.04.69,1.02,3.6,1.16,3.88.33.7,6.74,4.04-.87,3.55ZM358.63,767.15l-2.68.88,1.4-4.21,1.28,3.33.39-.13,1.97,6.24-2.36-6.12ZM349.44,863.04c4.61-2.33,10.33-5.77,15.56-4.86l-3.22,1.68c6.03,1.85,1.2,13.91,8.32,12.44,1.99,5.24-11.41,7.71-14.82,9.43-.12-3.15.68-4.88-.28-7.43-1.13-3.01-3.42-10.19-5.8-9.81.27,1.96.14,4.05.51,5.99,1.51,1.96,2.51,4.17,3.39,6.46l-.94,1.3c-2.38-2.24-1.93-5.06-2.45-7.76-.84-1.08-3.35-4.86-3.62-5.02.75-1.39,2.06-1.76,3.35-2.41ZM351.28,897.33c-1.08-2.6-2.21-5.25-3.16-7.9-2.47-6.93-4.39-13.26-7.05-20.36-.41-1.1-2.66-4.53-2.18-4.77,1.83.46,4.04.35,5.76.92,1.82,6.56,5.04,14.8,10.17,19.38.07.49-.34,1.05-.23,1.44.35,1.22,2.5,4.15,3.62,5.02,2.69-2.85,6.64-3.11,9.57-4.36,1.67-.72,3.83-4.17,7.12-3.28,2.01,1.1,1.1,3.69,1.52,4.68l.43,1.42c-.08.7-.75.99-1.46,1.18-.52.14-1.05.24-1.33.41-3.62,2.22-9.81,5.24-13.9,6.19-3.18.73-5.65,1.05-8.88.04ZM375.62,920.49c-.54,2.07-2.99,2.42-4.79,2.18.01-1.28,2.19-3.75,2.14-4.09l1.44.23,1.21,1.67ZM372.7,911.15l-.94,1.3c-.12-.12-.19-.22-.29-.34-2.2-2.4-1.77-4.04.92-4.98.32-.11.64-.22,1.02-.31.05,1.29-.62,2.91-.7,4.32ZM367.42,913.23c-.15-.56-.29-1.49-.48-3.01-.21-1.76.08-.81.23-1.44l-.23,1.44,2.42,3.35c-.74-.14-1.17.45-1.49.42-.17-.02-.31-.21-.45-.75ZM383.94,850.87c-.9-.66,1.24-2.31,3.09-.95.9.66-1.24,2.31-3.09.95Z"/>
        </g>
      </g>
      <rect class="cls-1" width="399" height="1000"/>
    </g>
  </g>
</svg>