<?xml version="1.0" encoding="UTF-8"?>
<svg id="_레이어_2" data-name="레이어 2" xmlns="http://www.w3.org/2000/svg" xmlns:xlink="http://www.w3.org/1999/xlink" viewBox="0 0 399 1000">
  <defs>
    <style>
      .cls-1 {
        fill: none;
      }

      .cls-2 {
        fill: #e6e7e8;
      }

      .cls-3 {
        clip-path: url(#clippath);
      }
    </style>
    <clipPath id="clippath">
      <rect class="cls-1" width="399" height="1000"/>
    </clipPath>
  </defs>
  <g id="Layer_1" data-name="Layer 1">
    <g class="cls-3">
      <g>
        <path class="cls-2" d="M266.32,157.11c2.54,2.6,5.36,6.59,8.38,8.6.23.16,1.47-.12,1.9.66l-1.15.45c.31.31.7.56.99.76.07.1.17.2.36.27,2.18,2.4,6.22,8.31,8.89,9.67,1.25.64,21.88,5.08,23.88,5.2,3.43.21,12.4-4.99,16.11-6.68,2.92-1.33,5.68-2.76,8.54-4.13,1.96-.94,9.84-3.61,10.76-4.57.6-.64,1.4-4.94,1.78-6.13.13-.42.3-.82.44-1.27-.34-1.19-.2-1.36,1.04-1.35.03-.23-.07-.94-.15-1.19.91-1.24,1.43-3,1.84-4.48.05-.17-.12-.41-.08-.6l.52-.67c0-.18-.05-.58-.08-.6-.29-.17-1.58.72-1.43-1.63-1.26.18.47,2.03-1.7.82-.17-.52-.09-1.22-.24-1.78l-.58.08-.45,1.26c-.83-1.79-2.53-2.09-2.4-4.53.02-.37-.15-.8-.15-1.19-.09-.03-.37-.87-.66-.51-.11.14-1.2,3.15-2.07,2.69-.13-.07-1.55-2.37-1.57-2.52-.04-.33,2.47-.31-.62-2.63l.47,5.98-1.26-.44c-.02-1.68-.9-1.69-.6.08.11.65.85,3.17,1.16,3.37.16.1,3.44.84,3.63.85.09.25.2.44.31.59.21,1.1-1.28,2.32.23,3.58.47-.59.77-.07,1.55-2.02.17-.42-.58-1.52.71-2.24.06-.03.1-.07.18-.11l-.08-.79c.34-.01.99.9,1.35,1.04.15.06.4-.1.6-.08.11,1.4-.67,2.43-2.07,2.69,1.9,2.04,1.7-.27,3.06-.92.13-.06.27-.12.44-.14.19-.03.41-.08.6-.08.23,1.43-.61,3.08-1.25,4.4-.41.85-.96,1.83-1.48,2.61-3.04,4.59-8.25,9.14-12.98,11.97-2.11,1.26-5.73,3.31-7.95,4.06-.94.32-7.34,1.82-7.66,1.6.31-1.43.43-2.9.65-4.32.07-.44.7-1.12.36-1.86-.53.41-1.68-.63-.96,1.94l-1.19.15c.04.67.38,1.03-.44,1.27l-.08-.6c-.02-.2-.05-.4-.08-.6l.6-.08c-.04-.66-.06-1.51-.83-1.71.31-2.2,2.72.26,2.67-2.77-1.75.51-1.61-.63-.53-1.74.59-.1.28.83.45,1.15.39.75,1.04,1.1.9,2.3.43.06.89.4,1.27.44-.12-.53-.18-.83-.14-1.01.06-.3.39-.25,1.18-.34l.69.82-.54.37c.84.05.89,1.21,2.38-.31-.19-.21-.41-.41-.67-.52l-.6.08c-.21-.03-.52-.52-.67-.52,2.28-1.21-.49-2.56.35-4.29l.24.1.09.04-.02-.17c.08-.02.16-.02.23-.01.21.03.38.18.53.35.06.06.11.13.16.2l.08.03.94.39c3.49.78,2.83-.37,5.28-1.29,0,1.4.2,2.38,1.72,1.6.61-.32,0-1.23.07-1.83.04-.37-.23-.91-.15-1.19-2.16-.33-1.72-.46-2.09-2.15-.08-.36-.15-.82-.15-1.19-1.66-.28-1.43-1.34-3.13-.8-.27-.84-.38-2.72-.47-2.83-.39-.42-2.06-.24-1.93-1.71-.2.03-.51.01-.6.08-.27.21-.44.07-.52.67l.6-.08c.15,1.69,1.08,3.32-.65,4.32.11.08.52,1.74,1.12,1.66.47-.07.64-3.01,1.85-2.04.17.14-.86,1.94-.88,2.53-1.34.79-3.15,1.06-4.69,1.21l.21-3.05c-.91-.11-1.03-.85-1.35-1.04-.82-.49-2.04-1.09-2.61-1.48-1.84-1.27-1.72-1.29-2.84-3.26-.52-.9-.51-3.96-2.12-2.46l1.53,2.54c-.1.41-.41.88-.44,1.27-.01.16.03.45.08.6.11.32.33.5.67.52.07.17.02.4.08.6l-.56.4.71.8c.21.51.57,1.15.83,1.71.02.28.01.49,0,.63-.04,1.59-.37.02-.54-.44-.02-.04-.03-.07-.05-.11-1.63-1.93-2.73-1.46-4.92-.57.47,1.35.81,2.05.47,3.57.76-.54,1.4-.72,2.3-.9,1.99-.4,2.25-.79,2.54.88.11.66.41,1.64-.02,2.22-.07.09-.15.17-.26.24-.24-.15-.46-.42-.67-.52-.58-.28-1.22-.35-1.86-.36-.06.28.27.81.09,1.12-.06.11-1.84-.13-2.24.98.11.12.02.87.32,1.32,1.64,2.46,1.29,1.98-1.72,1.89-.52-.58-.36-.74-1.42-1.63-.2-.17-.45-.4-.67-.52.13-.54.48-1.21,1.04-1.35l-.08-.6c-.15-.55-.05-1.3-.23-1.79-.7-1.87-2.23-.11-2.46-.29-.01-1.48-.98-2.66-.54-4.17.91.54.46,1.99,1.41,1.63.82-1.87-.59-2.06-.86-2.26-.01-.01-.02-.03-.04-.04-.27-.63.36-2.12-.38-2.97.3-.22,2.92.56,3.72.72.7.6.6,1.71.9,2.3,1.39-.49,2.51-2.23,4.01-1.73l-.23-1.79c-.59-.21-1.23-.38-1.86-.36,1.7-1.25.66-.97.36-1.86-.12-.36-.02-.93-.15-1.19l-.44,1.27c-.85.63-1.98.43-2.98.39-1.24-.05-2.02.93-1.94-.96l3.65.13c.59-.01.47-.29.52-.67.04-.26-.08-.88-.15-1.19-.32-1.31-1.16-2.28-1.65-3.42-.77.16-1.62.12-2.38.31-1.08.27-2.75,1.5-1.86-.36.17-.36.73-1.12,1.04-1.34l-.08-.6c-1.89-.49-1.3-1.03-1.42-1.63-.08-.39-.1-.8-.15-1.19-.55.13-.78-.73-.75-1.11l.59-.08h0s0,0,0,0c.2-.04.35-.08.47-.13.58-.04,1,.39,1.38.49.33.09.65.33.97.46l.22-.62c-.09-.17.02-.46-.08-.6l-1.35-1.04c-.1-.15.02-.44-.08-.6l-.63-.94c-.06-.09-.11-.15-.12-.17-.3-.6-.6-.98-.83-1.71-.54,0-1.09-.44-1.27-.44-.2,0-.4.06-.6.08l-.6.08c-.19.03-.41.02-.6.08-.28.08-.79.53-1.11.75-.16.1-.47-.03-.6.08l-.52.67c.2,1.59.42,3.18.62,4.76.02.2.05.4.08.6l.54,4.17c-.67.13-1.58-.63-2.1-.81-.05.34-.15.71-.28,1.12.2.39,1.05.75.83,1.71-.21.05-.52.07-.88.07-1.84.02-5.17-.42-5.75.19-.07.07.47.45.24,1.78l.15,1.19c.2-.03.4-.05.6-.08.19-.03.42-.02.6-.08.33-.11.94-.95,1.11-.76l.82,1.71.85-1.7.12-.23v.12s-.12,3.53-.12,3.53c.59-.34,1.14-1.75,1.82-2.52.25-.28.52-.47.82-.5-.69-.21-1.36-.45-2.02-.71.62.18,1.33.41,2.12.7-.04,0-.07,0-.11,0,.2.06.4.12.61.18.28.07.81-.2,1.19-.15.3.66-.36,1.42-.37,1.86-.02.95.35,2.41-.13,3.29-.32.59-1.31.39-1.59.71-.54.59-.3,2.16-1.02,2.77-.83.7-2.56-.8-2.35.55,2.99.26,2.74,3.55,4.89,5.13l-3.01.09c-.39.41,6.36,5.25,7.1,5.74,2.05,1.35,4.16.49,3.89,4.33-9.6-.42-20.22-4.71-27.97-10.3-3.2-2.31-8.43-7.09-10.99-10.08-6.77-7.87-12.98-20.82-13.76-31.23-.13-1.75.58-13.12,1.27-13.77.11-.11,1.68.64,1.86.37l.52-3.09,2.93,6.62,3.58,4.04c-.27-.74.25-1.31.37-1.86.12.11.26.21.42.3,1.21.72,3.29.91,4.58.87l-.39-2.98c-.2.04-.41.05-.62.07-.18.04-.37.07-.57.08-.74.21-1.67,1.6-2.46-.29-.42-1.01.48-2.23-1.42-1.63-1.21-3.45-1.99-2.33-2.99-4.08-.76-1.32-.79-4.73-1.9-3.22l.11-1.47-2.25,1.2c-.6-.45,3.65-8.07,4.28-9.03,1.07-1.65,2.62-2.71,3.66-4.41l-.62-.22c-1.23,1.4-2.48,2.67-3.7,4.11-3.33,3.93-7.09,7.56-10.03,11.83l1.08,31.43c.3,1.96,13.14,14.56,15.56,17.03ZM326.88,162.67c.65.57.69,1.24.43,1.74-.31.59-1.06.93-1.7.53-.52-.32-.98-1.12-1.1-2.66.61.39,2.19.23,2.37.39ZM313.68,172.16c.36-1.55.74.22,1.35,1.04-.47-.14-.77-.26-.98-.38-.64-.36-.25-.59-.37-.66ZM309.51,172.7c.68-.97.42-2.77,2.07-2.68-.75,1.63-1.05,3.12-.57,4.91.96.12.3-.77.63-1.09.39-.38.92-.26.99-.33.15.23.41.48.67.52l.08.6,1.27.44c.55.7.91,1.39.9,2.3-1.26.24-8.77.33-9.08-.04-1.24-1.44,2.08-3.26,3.03-4.62ZM297.94,151.19l-.08-.6c.41.15.44.35.08.6ZM297.99,140.9c-.16.03-.32.06-.47.06.04-.6-.54-1.63.07-1.83,1.29-.41.93.5,1.12,1.67-.21-.03-.47.04-.72.09ZM301.69,140.42c-.35-.12-.98-.55-1.27-.44-2.15-2.2,1.5-3.5,1.27.44ZM300.57,155.09c-.43-.15.22-1.06,1.11-.74.43.15-.22,1.06-1.11.74ZM300.85,152.63l.3-2.45,2.16,2.74-2.46-.29Z"/>
        <path class="cls-2" d="M355.27,82.02c-1.44,1.04-2.82.5-2.89,3.4-2.07-1.5-3.11-2.38-5.53-2.91-.04,0-.13-.46-.67-.52-.34-.04-.8.15-1.19.15l-.54.37.62.22c3.38.97,5.85,3.45,8.59,5.55-1.21.43-1.58.54-2.98.39,1.18,1.72,3.46,1.26,4.17-.55.65-1.66-2.48-5.19.5-5.51.99.46,4.03,3.58,4.19,4.3.4,1.85-2.13,4.92-1.94,7.39.11,1.46,2.03,3.31,1.59,4.12-.1.19-1.72.51-2.24,1.23-.89,1.21-.24,3.19-.63,4.24-.27.73-1.42.31-1.78.98-.17.32-.39,5.71-.95,7.19-.64,1.68-2.32,1.62-2.53,2.08-.65,1.37,1.87,2.73-2.77,2.68.72-3.71-3.22-.1-3.31,1.41-.06,1.03,2.3,4.67-.95,2.92-.21-.12.17-.8-.42-.7-.58.1.14,1.23-.46,1.32-.67.1-2.24-.59-3.23-.7-.94-.1-2.71.41-3.11.22-.51-.24-.14-2.51-1.31-2.8-3.16,2-1.49,2.62-.28,4.86.03.16.09.3.15.43,0,.04.01.07.01.11.08.77-.38,1.31,1.51,1.31.04,0,.08,0,.12,0,.08,0,.16,0,.26,0-.08.07-.16.14-.25.2-.08.06-.16.12-.25.18-1.74,1.16-4.1,1.11-.88,3.13-.51-1.29,1-1.25,1.05-1.34.68-1.18.89-2.46.13-3.65,1.39-.74,1.86-1.49,2.54.88-.84.94-.23,1.4-.36,1.86l.6-.08c-.04.7.26,1.61.31,2.38,0,.13-.61.67.15,1.19-.09.06-.57.79-1.63,1.42-.17.1-.56.04-.86.08-.12.01-.22.04-.3.1-.05.04.21.45.12,1.17-.07.57-.32,3.39.46,3.57,1.73.41,3.77-.84,3.75-2.72-.01-1.21-2.06-2.09-.95-3.7,1.71-.33,1.01.59,1.96,1.94-.11-.31,0-.76.17-1,.13-.18.28-.25.41-.06.24.37.13.89-.07,1.15-.11.15-.25.21-.37.11.55.68.89,1.23,1.94.96-.19-.7-.2-1.62-.31-2.38-.03-.2-.04-.4-.08-.6-.66-.24-1.29-.75-1.94-.96-.1-.59-.12-1.2-.23-1.79-.21-1.08-.58-1.49-.9-2.3-.13-.32-.05-.82-.15-1.19.09,0,1.62.29,1.86.36.14,1.03.64,1.94.98,2.9.06.18.03.4.08.6l.6-.08.52-.67c-.28-.4-.16-1.61-.9-2.3.82.52,1.04-.73,1.11-.75.16-.05.53-.11.6-.08.16-.17.29-.25.41-.3-.11.12-.24.22-.41.3.06.03.71,1.03.75,1.11l.6-.08,1.35,1.04c-.2,1.01.54,2.58-1.48,2.61.03.07-.39.88-.29,1.54.08.56.8,1.28.68,1.43-1.12,1.39-1.25-.95-1.34-1.03-.1-.09-.85.18-1.19.15.53.9,1.07,2.11-.29,2.46.12.45.78,1.08.83,1.71-.2.02-.5.02-.6.08l-.45-.35-.21-.17.15,1.19c.18,1.18,2.02.68,2.44,1.03.45.38.16,1.25.33,1.64.28.64,1.12,1.24.91,2.31,1.02.21,1.26-.57,1.71-.83.35-.21,1.01.21,1.15-.46.39-1.79-1.05-.16-1.23-.14-.37.04-1-.77-1.35-1.04-.41-.96-1.37-2.91-2.25-3.34.83-2.13.89-1.01,1.71-.83.3.07.82-.18,1.19-.15.06-.41.37-.85.44-1.27.11-.66.63-4.68.57-4.92,1.79-.69,1.3,1.24,1.58,2.82-.94.44-1.58.85-1.7,1.1-.08.17.09.27.6.25.3-.01.71-.06,1.25-.17.09.59.17,1.19.23,1.79.29,2.65,1.26,3.25-1.99,3.29.21,1,2.42,1.09,2.56,1.77.04.2-.51,3.39-.6,4.02-.2,1.37-2.18,4.38-.5,5.51.56-1.9,1.1-3.77,1.69-5.67,2.67-8.55,3.63-12.3.36-21.38l8.7-29.27c0-1.82-1.58-3.23-2.31-4.71-1.04-2.08-2.11-4.2-3.23-6.24-1.14-.12-1.36,1.23-1.63,1.42ZM339.75,125.8l.22-.62.37.54c-.1.11-.54-.03-.6.08ZM341.69,127.16c-.03.07-.09.15-.22.23l-.04-.33-.03-.27c.27.1.36.22.29.36ZM350.53,125.61l-.5.06-.76-1.11c.04-1.1-.45-2.42-.46-3.57.21-.73,1.21,1.22,1.42,1.63l.38,2.96v.02s-.08.01-.08.01Z"/>
        <path class="cls-2" d="M353.69,79.19c.39.28-.67,1.43,2.54.88-.65-1.19-1.08-2.84-1.73-4.01-.67.55-.87,1.33-.88,2.14,0,.33.03.66.07.99Z"/>
        <path class="cls-2" d="M323.11,167.29c-.13-.36-.31-.78-.53-1.23l.17,1.29c.18.02.28,0,.36-.05Z"/>
        <path class="cls-2" d="M322.53,165.71c.23.13.61.2,1.14.22-.1-.09-.2-.25-.32-.42l-.89-.37.07.57Z"/>
        <path class="cls-2" d="M344.5,144.27c-.12-.14-.5-.2-1.16-.17.67.26.95.29,1.16.17Z"/>
        <path class="cls-2" d="M332.57,140.36c1.01-.71.79-3.53.08-3.95-.63-.37-1.61.82-1.7.83-.63.05-2.11-.58-2.46-.28-.18.15.62.69.55,1.01-.06.27-.86.57-.91.85-.1.6.73,1.03.75,1.11l.6-.08c.17.22.58.36.67.52.42.75.92,1.36.9,2.3,1.75.47,3.64,1.12,5.38,1.72,1.55-1.97-1.94-4.24-3.85-4.03ZM331.17,139.02l-.15-1.19,1.39,1.33c0,.8-1-.2-1.23-.14Z"/>
        <path class="cls-2" d="M331.04,142.67c-.18-.05-.35-.07-.5-.07.15.06.31.09.5.07Z"/>
        <path class="cls-2" d="M337.62,132.73c-.07-.67-.18-1.05-.33-1.29.06.34.16.76.33,1.29Z"/>
        <path class="cls-2" d="M327.68,69.85c.3.2,2.1-.88,2.95-.38-1.5-2.25-1.75-3.12-1.36-5.87-2.95.03-2.92,5.37-1.59,6.25Z"/>
        <path class="cls-2" d="M332.8,104.91c-.48-.1-.42.65-.51.67-1.69.45-3.68-.47-5.43.1l4.4,1.24c.02.12.92.69.87,1.93-.05,1.26-1.21,2-.74,3.8.41,1.59,2.49-2.28,2.58-3.39.09-1.11-1.15-3.09-1.16-4.35Z"/>
        <path class="cls-2" d="M317.15,68.19c-1.27-1.02-3.65-.5-4.09,1.14.88-.39,1.95-.86,2.9-.98.22.75.78,1.56.9,2.3.11-.18,2.05-1.15,2.7-.36.98,1.19-.7,3.56,2.01,3.99-.96-3.28-.07-5.7-4.42-6.09Z"/>
        <path class="cls-2" d="M330.9,160.24c-.02-.13.77-1.19-.11-2.17-.06-.07-.11-.14-.19-.21l.19.04,1.67.32c.17,1.18,1.96,2.2-1.48,2.61.07.56.53,1.21.83,1.71l4.24.05-.89-2.3c2.19.73,5.36.62,4.53-2.4-1.37.35-1.88.33-3.06-.21-1.17-.54-2.76-2.22-3.74-3.14-1.4-.05-.66.45-.73,1.3-.02.19.08.4.08.6l-.6.08c-.11-.07-.77.35-1.09,0-.68-.74.51-1.52-1.52-1.48l.44-1.26-1.79.23c-.22-1.49-.63-3.18-2.32-3.66-.76-.22-2.69.39-2.91.71-.14.22.55.75.75,1.11,2.33-.35,4.52,1.91,4.19,4.3-.04.18-1.05,1.34-.36,1.86.31.23,1.88-.45,2.3-.9.08.29,1.07.82.82,1.71l-1.26-.45c.01.4.14.8.15,1.19.54.09,1.49-.48,1.86.36Z"/>
        <path class="cls-2" d="M310.82,136.21c-.78-.46-1.81,3.16-1.91,3.88l3.05.21c-.24-1.34-.09-2.55-1.14-4.09Z"/>
        <path class="cls-2" d="M333.25,122.4c.94-1.88-1.64-1.8-2.54-2.3-.35-.19-.13-1.19-.59-.92l-1.85,2.04c.75.58,4.79,1.56,4.98,1.18Z"/>
        <path class="cls-2" d="M329.05,145.95c-.99-1.98-3.26.46-5.44.1-.1.41.25,1.23.23,1.78,1.2-.56,4.95-.94,5.2-1.88Z"/>
        <path class="cls-2" d="M325.14,139.19c.18,0,.5-.02.6-.08-.25-.37-.49-.75-.75-1.11-.83-1.19-1.06-1.81-1.06-3.49-1.3.35-.73,2.3-.21,3.05l-2.46-.28c.07.54,3.09,1.96,3.28,1.99l.6-.08Z"/>
        <path class="cls-2" d="M316.93,150.55l-1.36.73-.42-.49c-.1.12-1.01-.09-1.16.44,1.23,2.5,1.37.37,3.3.47.14,0,.43.67,2.34.93-.43-1.14-1.93-1.47-2.69-2.07Z"/>
        <path class="cls-2" d="M313.06,118.35c.33-.07,2.25-3.15,2.85-3.69-.23-.64-2.16.45-2.34.61-.31.27-2.28,3.44-.51,3.08Z"/>
        <path class="cls-2" d="M317.03,155.99c.29.59,1.89.86,1.94.96,1.08-.94-.63-2.93-1.28-2.85-.66.08-.54,1.6-.66,1.89Z"/>
        <path class="cls-2" d="M351.3,93.43l-3.65-.14c-1.11,1.35,4.54,2.82,3.65.14Z"/>
        <path class="cls-2" d="M337.24,129.76c.1.04.51.38.67.52l-.08-.6c.02-.34.42-.5.52-.67.75-1.3.54-1.41.88-2.54l-1.71.83-.29,2.46Z"/>
        <path class="cls-2" d="M345.62,138.36c-.92,0-1.71-.29-2.98.39l1.42,1.63c.27-.47,1.51-1.03,1.55-2.02Z"/>
        <path class="cls-2" d="M320.28,150.72c-.69.44.44,1.79-.66,1.9,3.19.44,3.42.23.66-1.9Z"/>
        <path class="cls-2" d="M320.57,131.92c-.15.16,1.98,3.02,2.69,2.06.47-.63-1.64-2.61-2.69-2.06Z"/>
        <path class="cls-2" d="M344,157.44s.07-.03.11-.04c.11-.04.22-.07.33-.13l-1.83-.47-1.3-.33c-.39.19-.73.54-1.11.75.12,0,.26.02.4.04.9.14,2.19.58,3.4.18Z"/>
        <path class="cls-2" d="M347.14,145.42c1.07.82,2.62-1.19,1.55-2.01-1.07-.82-2.62,1.19-1.55,2.01Z"/>
        <path class="cls-2" d="M312.43,142.47c.38-1.39-.38-1.49-.38-1.58l-.88,2.54c.09-.04.73.99,1.27-.96Z"/>
        <path class="cls-2" d="M355.02,94.15c-1.03.36-2.71.24-3.46,1.36.95.57,2.62-.33,3.54-.76l-.08-.6Z"/>
        <path class="cls-2" d="M324.93,123.48l2.97-.39-.15-1.19c-1.52,1.12-3.55-.43-2.82,1.57Z"/>
        <path class="cls-2" d="M305.39,136.3c.09-.83-.5-.4-1.06-.63.03-.28-.08-.61-.36-.99,1.36-1.89.73-2.28,3.42-1.66-.57-3.65-.37-1.67-2.74-2.33-1.47-.41-5.58-5.85-6.38-7.38-2.51-4.75-3.92-11.44-1.53-16.46-.05-.54-.82-.15-1.22-.14l3.77-3.51c1.22,1.93,3.26,3.86,4.95,5.41,1.34,1.23,2.71,2.56,4.11,3.7l.52-.67c-.73-.67-3.03-2.63-3.86-3.43-.07-.08-.15-.17-.26-.27-5.43-6.86-3.75-11.18-3.04-18.69.14-1.52-.69-.44-1.21-.13-.29-.85.32-1.65.28-2.46-1,.73-2.76.64-3.63,1.09-.62.32-.46,1.3-1.24,1.83-2.96,2.01-6.55,1.19-9.78.8-1.25,3.18,3.63,1.56,1.21,4.68,2.54.52.4-.43,2.21-1.8.88-.67,6.18-.9,7.52-2.49,1.59,1.75-3.73,5.91-4.17,8.21-.55,2.85,1.96,4.55,1.93,7.22l-2.38.31c-4.67-1.22-.11-2.12-2.84-3.26.17-.31-.02-1.3.36-1.86.14-.19,1.94.34.88-2.53-1.83,1.68-7.13-.66-3.34,2.25.83.63,2.39,1.04,0,2.42l-1.04-1.07c.58,2.8-.75,2.83-3.12,4.03.2,1,1.83,1.23,2.73.79.88-.43.93-1.97,1.58-2.64.51-.53.86,0,.89-.04-.75,1.79.1,5.4-.68,6.71-.93,1.56-1.26.8-1.82-.33-2.57,2.57-.66,2.9.28,4.51.18.3-.98.65-1.08,1.03,1.26.02,2.52-.39,2.61,1.47-1.54.78-2.96.01-2.61-1.47-.76-.01-1.6.29-2.38.3.95-3.43-1.89-4.73.79-7.96-.54-.05-1.39.33-1.79.23l-1.25,1.98c-1.14-.56-.98-1.89-.69-2.94-2.01-.24-.92-.09-2.23,1.5-1.41-1.41-3.71-4.93-3.14-.8-.11.22-1.08-.49-1.26-.45-.12-.87-.53-1.48-1.42-1.63-.05.19-.4,1.21-.44,1.27-.43.14-.77.14-1.01.05-.12-.04-.22-.1-.29-.18-.37-.38-.07-1.09,1.14-1.07l-.07-.56v-.02s-.01,0-.02,0c-.49.29-1.16.13-1.68-.06.03,0,.05-.02.08-.03,0,0,0,0,0,0,.05-.06.08-.1.13-.14.21-.52-.42-1.96-.69-2.52-.26-.54-1.14-2.27-1.42-1.63-.38.95.43,3.68,1.13,4.09-1.16.09-1.62.81-1.71.83-.24.28-.3.54-.26.77.11.68,1.11,1.12,1.11,1.24.04.69-1.89.79-1.58,1.71l1.94.97c.76-.54,1.23-.84,2.02-.5.11.06.23.13.36.19.22,1.54-.9,1.13-.96,1.76-.15,1.45.63,2.72-.47,4.24-.06.08-.1.16-.18.25.06-.03.13-.05.19-.07.89-.33,1.77.34,2.27.37,6.33.35,4.44,1.16,8.8,2.49.1,0,.18,0,.27,0-.03,0-.06,0-.08,0-.07,0-.14,0-.19-.02l1.94.96c1.56,1.56,6.36-.04,8.57-.63.71-.19,1.53-1.25,1.78-1.26.67-.04,1.53,2.1,2.19,2.65.97.82,1.84.8,2.96,2.08,2.21,2.52.78,4.66,2.19,7.59-.43.22-.6-.53-.67-.52-.39.04-4.57,1-4.69,1.21-.08.14.15.82.16,1.19,1.75-.53,2.71-.29,4.24.06.44.1.92,0,1.27.44.48-.67,1.45-2.71,2.15-2.09.7.62-.32,1.66-.36,1.86-.08.4-.41.86-.44,1.27,0,.09.21,1.7.23,1.79.2,0,.4-.07.6-.08.85-.01,1.72.37,2.97-.39ZM269.45,108.97c-.12.2-.24.4-.22.55-.7.13-.74-.46-.75-1.11.95-.23,1.21-.15,1.2.06,0,.13-.12.32-.24.51ZM274.93,116.04c-.62-2.44.56-2.59.58-.08l-.58.08ZM279.02,114.91l.58-.08c1.68,2.86-1.48,3.27-.58.08ZM285.15,120.16c-.73-.57.3-1.9,1.03-1.34s-.3,1.9-1.03,1.34Z"/>
        <path class="cls-2" d="M322.65,147.99c-1.63-.07-1.17.53-.96,1.94,1.25.13,2.02-.95.96-1.94Z"/>
        <path class="cls-2" d="M325.99,70.98c.07-.86-.54-1.38-.87-2-.51-.98-.89-2.28-2.39-2.12-.88,1.77.41,1.9,1.79,2.2-.77,1.13.31,1.5.9,2.3.17-.11.52-.08.56-.38Z"/>
        <path class="cls-2" d="M336.6,138.92c.06-1.37-.85-2.42-2.16-2.74-.29.46,1.97,3.32,2.16,2.74Z"/>
        <path class="cls-2" d="M330.53,129.41c1.63.07,1.17-.54.96-1.94-.09-.29-.65-.46-.67-.52-.49-1.63.45-2.41-1.94-.96l-3.86,2.92c1.7-.13,3.1-1.22,4.61-1.8.18-.07.41-.02.6-.08.83.62.15,1.97.31,2.38Z"/>
        <rect class="cls-2" x="324.41" y="132.56" width="1.19" height="1.79" transform="translate(-14.46 42.89) rotate(-7.39)"/>
        <path class="cls-2" d="M316.35,139.11c.39-.05,1.05-1.59.66-1.89-1.02-.78-2.31,2.1-.66,1.89Z"/>
        <path class="cls-2" d="M321.28,139.7c-1.18,1.09-.92,1.99.6,2.34l-.6-2.34Z"/>
        <path class="cls-2" d="M318.15,141.3l-.07-.58c-4.81-.98-1.53,2.39.07.58Z"/>
        <path class="cls-2" d="M309.14,141.87c.17.64.09,1.41.27,2.08.16.32.35.26.63.23-.34-1.61,1.21-2.88-.9-2.3Z"/>
        <path class="cls-2" d="M349.37,78.54c.28.14,1.09.49,1.27.44.22-2.29-1.72-2.61-1.27-.44Z"/>
        <path class="cls-2" d="M325.33,154.6l-.2-1.48-1.11.75.08.6c.38.02,1.25.9,1.23.14Z"/>
        <path class="cls-2" d="M330.91,146.31c.73.57,1.76-.77,1.03-1.34-.73-.57-1.76.77-1.03,1.34Z"/>
        <path class="cls-2" d="M326.95,143.8c-.63-.19-1.56-1.47-1.11.75.38-.21.9-.21,1.11-.75Z"/>
        <rect class="cls-2" x="341.76" y="140.04" width=".59" height="2.4" transform="translate(-15.33 45.19) rotate(-7.39)"/>
        <path class="cls-2" d="M313.76,74.68c.73.57,1.76-.77,1.03-1.34s-1.76.77-1.03,1.34Z"/>
        <path class="cls-2" d="M324.28,71.8c.63.56,1.05.97,1.9.66.11-.11-.57-.87-.75-1.11-.27.18-1.26-.16-1.15.45Z"/>
        <path class="cls-2" d="M329.6,103.5c.44.28,1.12,1.78,1.94.95.54-.55-1.53-.88-1.94-.95Z"/>
        <path class="cls-2" d="M305.21,134.81c1.14,1.5,1.91.16,1.15-.45-.05-.04-1.29-.06-1.15.45Z"/>
        <path class="cls-2" d="M303.79,142.57c-.16-.01-.58.05-.6.08-.04.08.08,1.06.15,1.19.05.09.47-.15.6-.08l.6-.08c.09-.1-.16-.49-.08-.6-.32,0-.61-.51-.67-.52Z"/>
        <path class="cls-2" d="M320.71,147.03c.19.07.43.38.67.52.08-1.99-1.07-2.6-.67-.52Z"/>
        <path class="cls-2" d="M344.84,146.33c-.52.34.86.93,1.26.44.27-.33-.68-.82-1.26-.44Z"/>
        <path class="cls-2" d="M319.6,147.78l-1.27-.44c.05.94,1.08.32,1.27.44Z"/>
        <path class="cls-2" d="M347.48,138.72c-1.33-.02-1.53.61-.8.69.22.02.5,0,.88-.1.06-.13-.1-.39-.08-.6Z"/>
        <path class="cls-2" d="M325.53,142.16c.89.32,1.54-.58,1.11-.74-.89-.32-1.54.58-1.11.74Z"/>
        <path class="cls-2" d="M348.62,110.11c.89.32,1.54-.58,1.11-.74-.89-.32-1.54.58-1.11.74Z"/>
        <path class="cls-2" d="M328.33,103.07l.08.58c.39.02.87-.2,1.19-.15-.27-.17-.18-.9-1.26-.44Z"/>
        <path class="cls-2" d="M347.83,85.41c-.89-.32-1.54.58-1.11.74.89.32,1.54-.58,1.11-.74Z"/>
        <path class="cls-2" d="M316.43,71.91c1.1.14.25-.96.44-1.26.02.1-.75.88-.44,1.26Z"/>
        <path class="cls-2" d="M346.48,147.33c.64-.13-.13-.87-.37-.56-.12.15.17.6.37.56Z"/>
        <path class="cls-2" d="M324.27,144.15c.36-.25.34-.45-.08-.6l.08.6Z"/>
        <path class="cls-2" d="M323.67,141.81l-.6.08.37.54c.37-.04.2-.6.22-.62Z"/>
        <path class="cls-2" d="M337.53,136.68c.13.64.87-.13.56-.37-.15-.12-.6.17-.56.37Z"/>
        <path class="cls-2" d="M321.25,134.86l.08.6c.36-.25.34-.45-.08-.6Z"/>
        <path class="cls-2" d="M336.36,115.95l.08.6c.36-.25.34-.45-.08-.6Z"/>
        <path class="cls-2" d="M334.29,104.71l.08.6c.36-.25.34-.45-.08-.6Z"/>
        <path class="cls-2" d="M303.82,84.45c.36-.25.33-.45-.08-.6l.08.6Z"/>
        <path class="cls-2" d="M324.88,64.77c.64-.13-.13-.87-.37-.56-.12.15.17.6.37.56Z"/>
        <path class="cls-2" d="M275.44,97.92c.23,0,.47-.03.73-.2l-.73.2Z"/>
        <path class="cls-2" d="M264.57,115.56c.36.02.59-.01.75-.09-.24,0-.49.03-.75.09Z"/>
        <path class="cls-2" d="M268.94,118.66c-.12,0-.23,0-.34.01.14.06.25.04.34-.01Z"/>
        <path class="cls-2" d="M263.38,101.79l-.91-4.72-3.18,5.85,2.38-.31-1.34-1.02c1.43-.81,1.72-.52,3.04.2Z"/>
        <path class="cls-2" d="M286.59,93.94c-.71-1.48-2.67-.58-4.32-.64-.15,0-.63-.45-1.27-.44-.2,0-.4.07-.6.08l-.6.08c.33-.7.99-1.51,1.55-2.02-.77,0-1.6.28-2.38.31-.19.15-.31.53-.52.67-.13.09-.4,0-.6.08-2.12.81-1.19-.17-1.86-.36l-.6.08c-.31-.05-1.15-.65-1.26-.44l.23,1.79c.62.25,1.15.59,1.86.37-2.18,3.48-.07,2.08.31,2.38.24.18.48.79.75,1.11l1.26.44c-.13-1.42.14-2.1-1.42-1.63.13-.57.48-1.13,1.04-1.35.4-.15,1.28-.19,1.79-.23.02,1.77,1.39,1.55,1.86.36.03-.08-.03-.43-.08-.6l.6-.08,1.42,1.63c.28-.13.82-.04,1.19-.15-.51-1.46.31-1.32,1.63-1.43Z"/>
        <path class="cls-2" d="M263.29,96.35c.22.18,1.88-.66,2.3-.9,1.45-.41,1.7,1.21,2.46,1.56.88.41,1.8-.7,3.37,1.32.06.07.41.12.67.52l3.35-.93c-.89-.04-1.44-1.15-1.55-1.13-2.13.23-2.03,2.3-3.02-2.63-1.18,1.49-2.63-.79-4.24-.05l-.08-.6-2.3.9c-.25.5-1.55.72-.96,1.94Z"/>
        <path class="cls-2" d="M293.88,94.21c-.84-.74-2.78,3.22-2.59,3.35,1.46.96,3.08-2.92,2.59-3.35Z"/>
        <path class="cls-2" d="M283.65,104.01c-.91.78-.23.64-1.63,1.42-.99,2.55-.37,1.91,1.35,1.04-.1-.52.66-1.64.28-2.45Z"/>
        <path class="cls-2" d="M265.33,102.76l-2.93.68c1.2,1.06,3.7,1.18,2.93-.68Z"/>
        <path class="cls-2" d="M284.23,99.1c-.58-.56-2.38.29-2.98.38-.19.03-.42.09-.6.08-.12-.01-.3-.21-.47-.37l-.2-.15c-.2,0-.4.07-.6.08l-.6.08c.21.4.04,1.62.24,1.78.1.08,1.13-.72,1.7-.83,1.28-.24,5.07.48,3.49-1.05Z"/>
        <path class="cls-2" d="M263.44,111.47l.51-.67.35-1.5-.59-.28c-.04.47-.89,1.46-.28,2.46Z"/>
        <path class="cls-2" d="M279.99,97.81c.17-.04.33-.07.43-.04.16.04.39-.1.6-.08.51-1.78-3.02-.95-1.79.23,0,0,0,0,0,0,.09.08.44-.04.75-.11Z"/>
        <path class="cls-2" d="M267.24,112.8h0s.42-1.21.42-1.21l.02-.06c-.07,0-.14,0-.21.01-.35.04-.76.2-.98.14l-.6.08c-.03.45.74,1.04.75,1.11l.6-.08Z"/>
        <path class="cls-2" d="M265.87,106.92c-.22.02-.66-.38-.97-.46l-.22.62c.11.08.02.87.16,1.19l1.03-1.35Z"/>
        <path class="cls-2" d="M276.07,106.2c.8.3,1.95-1.22,1.63-1.41-.8-.3-1.95,1.22-1.63,1.41Z"/>
        <path class="cls-2" d="M282.15,101.78l-.08-.58c-2.51.03-2.36,1.2.08.58Z"/>
        <path class="cls-2" d="M269.43,87.69c.61-.34,3.18-1.79,3.42-1.65,0,.7-.86,1.26-.96,1.93-.07.48.24,1.22.24,1.79.68,0,.45-.54.51-.67.57-1.12.36-2.28,1.06-3.2.98-1.3,2-.98,1.01.51-.21.89.19,3.11-.06,4.24.37.04.9-.28,1.39-.19.72.13.21,1.45,1.14,1.07-.22-1.08-.91-4.36,1.41-3.21.36.76.11,1.29,1.42,1.63.09-.1.63.01.91-.16.04-.02.09-.04.12-.07.05-.07-.13-.37-.12-.71,0-.13.03-.27.12-.4l2.02,1.55c.19-.25,1.8.16,1.75-.53l-2.61-1.48c.06-.4.38-.28.55-.37.26-.14,1.51-.76,1.71-.83.49-.18,1.23-.08,1.79-.23.17-.23.33-.46.52-.67.16.1.57.4.67.52.16.18-.01.95.15,1.19-.04-.03-.12-.02-.21,0-.19.04-.45.14-.67.12l-.23.63c.09-.01,1.75.44,1.88.1.39.41.8.88,1,1.25.02.03.04.06.05.09.09,0,.16-.04.25-.06,1.61-.32,1.93-2.44,2.11-2.67.12-.16.48-.65.52-.67.27-.14.83-.04,1.19-.15.24-.08,1.9-.62,2.02-.62,1.17-.04,2.36,1.67,4.53-.23.83-.73.62-1.79,1.08-2.38,1.08-1.37,2.49-2.55,3.5-4.27.46-.78-.06-2.22,1.55-2.02.41-3.9,2.53-5.7,2.92-7.62.15-.75-.6-1.37-.43-2.24.1-.52,3.07-2.6,3.71-3.05,3.87-1.2,2.52.54,3.79,1.67.14.13,3.27,1.61,3.46,1.56.25-.06,1.39-.68,1.51-1.04-.93-1.42-5.72-1.04-5.34-3.85,1.28,0,1.85.07,3.05.21-.16-.14-.29-.28-.41-.41-1.59-1.81-.38-3.52,1.06-1.45.43.62.39,1.52.54,1.71,1.47,1.95,2.21,1.9,4.48,1.84.34-.62-1.76-.73-2.01-1.38-.23-.61-1.05-4.07.4-3.85,3.06.47,4.75,3.39,7.33,4.4,3.71,1.45,7.45-.36,9.34,4.92.03.08.19,1.45.23,1.79l3.29,2c.48-.08,2.83-.4,2.98-.39.48.06,2.52,1.52,2.09,2.15-.91-.11-1.69.74-2.3.91-.93-.81-2.21-1.41-3.29-2-1.48-.8-1.89-1.03-3.29-2-2.38-1.64-4.24-1.25-3-4.45-1.14-.2-.96.65-1.11.74-.74.46-1.21.06-1.59,1.72l1.22.14c-.33.5-1.86,1.67-1.55,2.01,2.34,1.69,7.58-.29,6.49,3.4,1.14-.55,3.2.73,3.73.73-.14,2.51.94,1.41,1.42,1.63,1.22.56,2.42,1.22,3.8,1.32-.7-.55-1.59-1.4-2-2.29-.07-.15-.13-.3-.17-.46.84-.3,2.77.57,3.72.73.07-.1-.65-3.03.96-1.94.72.49.32,2.82.47,3.57.04.21,0,.46.08.6.62.05.9-.1,1.02-.35.37-.77-.86-2.48,1.05-2.34-3.33-5.94-6.52-11.99-10.18-17.75-.77-.58-16.89-3.33-18.42-3.22-1.67.11-10.77,2.61-11.76,3.54-2.12,5.1-10.39,13.3-11.62,18.11-.04.17,1.24,1.9-.5,3.07l-4.26-2.45-1.19.15c-3.71-.6-8.21.41-11.98.95-1.97.28-4,.42-5.95.77-.39.07-.8.07-1.19.15-.19.04-.41.02-.6.08l.08.6c-1.34.73.33.51.64.72-.16.33-.3.68-.41,1.06l.08.6c-.42-.2-1.84-1.13-1.93-.96.3,1.16.25,1.52.04,1.65-.14.02-.27.04-.39.07-.2.01-.42.04-.62.22-1.43,1.37-2.99,2.7-4.3,4.19-.33.38-1.15.63-1.04,1.34,1.14.19.98-.67,1.11-.74ZM349.57,73.07l-.08-.6c.41.15.44.35.08.6ZM341.18,64.47c.78.88,2.84,1.74,3.36,2.6.52.86.35,1.81.66,2.49.27.58,2.34.23.78,1.55-3.01.79-1.95-.05-2.54-.88-.48.08-.95-.38-1.27-.44-1.01-.2-1.43.68-1.42-1.63.52.08,1.09.7,1.86.36.44-.57-2.66-2.81-1.43-4.05ZM295.46,78.27c1.28.06,1.24,1.32,1.49,2.23,2.13.43,3.4,3.36.39,2.98-.23-.95-.13-2.06-.39-2.98-.45-.09-1.58.37-1.79.23-.1-.07.68-1.77.29-2.45ZM294.5,82.62l.41.85c-.1.43-.53.35-.55.38-.57.13-1.23.08-1.79.23l1.92-1.47ZM288.18,82.84c-.04-.19-.05-.4-.08-.6.37.06,1,.48,1.27.44-.13.48.58,1.42-.36,1.86-.38-.51-.7-1.08-.83-1.71ZM290.5,86.78c.04.26.18.66.15.94-.02.16-.1.27-.29.29-.74-.44-1.18-.96-1.13-1.34,0-.06.02-.12.06-.17.14-.2.49-.33,1.14-.31.07.1.04.39.08.6ZM288.41,79.33c.24-.12.61-.23,1.09-.3.14.22.03.85.15,1.19-.37,0-.65-.05-.89-.09-.81-.17-.93-.52-.36-.8ZM282.01,86.67l.44-1.27c-.09.13-.13.76-.44,1.27ZM284.39,86.36c-.75.03-.98-.75-1.35-1.04.7-.98,1.15-2.13,1.43-1.97.13.07.22.41.28,1.14-.14.62-.46,1.19-.36,1.86ZM282.28,79.37s.06-.03.09-.04c.23-.05.83-.03,1.1-.12.99.75.23,1.89.31,2.38.8.22,1.12-.62,1.35,1.04-.21.06-.37.09-.51.11-.64.07-.71-.34-.83-1.15-.27-.08-.99.39-1.25-.24-.13-.32-.3-1.9-.25-1.99ZM282.38,81.99c.77.02,1.37,1.08.81,2.1-.28-.49-1.51-.82-1.65-.99-.08-.1-.01-.39-.08-.6.29-.38.61-.52.91-.51ZM282.22,83.62c.09.31-.02.47-.17.55-.12.07-.25.09-.31.1-.01,0-.03,0-.04.02-.4-.08-.6-.07-.67-.52l1.19-.15ZM276.86,84.31l.67.52c.21.03.45-.13.6-.08.17.07.44-.15.6-.08-.15-.44-.09-1.1.44-1.27,1.47,1.41,2.4,3.89.31,2.38.3.33,1.56,1.5,1.42,1.63l-2.38.31c-.11-.32,0-1.24-.49-1.18l-1.96.89-.24-1.78c.18-.29-.81-1.41,1.04-1.34Z"/>
        <path class="cls-2" d="M282.76,101.71c-.32.89.58,1.54.74,1.11.32-.89-.58-1.54-.74-1.11Z"/>
        <path class="cls-2" d="M266.36,101.41c-.89-.32-1.54.58-1.11.74.89.32,1.54-.58,1.11-.74Z"/>
        <path class="cls-2" d="M345.34,126.89c.14.2.31.37.48.53-.07-.14-.22-.31-.48-.53Z"/>
        <path class="cls-2" d="M337.32,163.04c1.54-.21,3.98-.68,4.53-2.39-1.23.88-5.15-.01-4.53,2.39Z"/>
        <path class="cls-2" d="M328.25,167.85c.64,1.18,1.89,1.78,3.21,1.39-.64-1.18-1.89-1.78-3.21-1.39Z"/>
        <path class="cls-2" d="M293.83,89.07h.4s1.42.06,1.42.06c-.19-.35-.37-.6-.54-.75-.43-.4-.82-.18-1.28.69Z"/>
        <path class="cls-2" d="M282.41,90.28c-.06,0-.1,0-.16,0-.15.07-.41.27-.89.7.41,0,.87.31,1.27.44-.27-.48-.1-1.04-.22-1.15Z"/>
        <path class="cls-2" d="M285.22,88.07c.21-.2.35-.45.52-.67-.18.17-.52.46-.52.67Z"/>
        <path class="cls-2" d="M294.79,129.2c1.47.75-.7,1.61,3.21,1.4v-2.42s-1.65,1.41-1.65,1.41c-.08-1.8-.86-1.46-1.79-2.18-.33-.25-1.18-.95-1.35-1.04-.14-.07-.42.14-.6.08-.03-.01-.02-.46-.3-.53-.03,0-.06,0-.09.01-.73,2.79-1.98.99-3.26.39-.59-.28-1.16-.54-1.65-.99-.84.88,1.05,1.74,1.72,2.64.45.61.96,2.39,1.08,2.45.22.12,1.28-.66,2.18-.67.22.1.48.2.78.28.11.27,1.11.69.83,1.7l-3.5,1.06c.07.02.12.09.16.17.19.37.14,1.24.18,1.29.47.55.51.31,1.24,1.37.1.15-.03.46.08.6.07.29-.14.54-.45.77-.69.49-1.96.8-2.37.81,1.69,1.54.09,2.83-.1,3.96-.07.41,2.66-.33.2,1.48.07-.01.63.45,1.27.44.18,0,.67-.8,1.03-.66.13.05.79,1.75,2.1,1.46-.14-.54-.18-1.22-.23-1.79l-2.46-.29c-.2-.16.29-1.84.29-2.45,0-.08-1.29-.83-.45-1.16,1.23-.48.81.3,1.04,1.08.16.54.09,1.21.24,1.78l.45-.06.14-.02s-.02-.08-.02-.12c-.2-.82.28-1.67.32-2.34.01-.19-.07-.4-.08-.6,0-.39-.13-.8-.15-1.19.16.16.55.21.67.52.18-.07.44.01.6-.08-.05-1.26-.57-2.66-.49-3.88.08-1.28.96-1.51.99-1.63.25-.91.22-2.1.21-3.05Z"/>
        <path class="cls-2" d="M293.33,140.34s-.04.02-.05.03c-.05.08-.07.21-.07.38.04-.14.08-.28.12-.42Z"/>
        <path class="cls-2" d="M285.9,158.24c-.25.22-.64,2.53-.87,3.1.87-.3,1.19,0,1.86.36,2.93,1.62,1.36,3.42,4.8-.32l-4.28-.36c-.37-.94.67-.47.88-.84.16-.28-.5-.72.08-1.1.77-.5,1.61-.66,2.82-1.58.76-.58,2.01-.96,2.15-2.09-1.22.37-2.32.51-3.49,1.05-1.32.6-1.19.96-2.15,2.09-.57-.23-1.18-.6-1.8-.33Z"/>
        <path class="cls-2" d="M273.42,146.5c-1.76.39-2.62.48-4.24-.06-1.01-.1-1.26.42-1.05,1.34-.61.57-2.84-2.66-.3-2.38-.19-.17-1.17-2.29-2.09-2.15-.78,1.16.56,4.83,1.34,5.23.29.15,5.52-1.16,6.41-1.39.7,1.04,3.47,3.61,4.78,4.22l-3.07-5.05,1.47-2.62c-.94-1.24-2.27-1.89-3.8-1.31.8,1.12.92,2.17,1.06,3.49,0,.04-.52-.13-.52.67Z"/>
        <path class="cls-2" d="M293.73,125.71c.57-.14,1.21-.09,1.79-.23l-.16-1.18c-1.97.35-4.21.12-5.87,1.36,1.39-.13,3.43-.66,4.24.06Z"/>
        <path class="cls-2" d="M267.3,141.24l4.32.65c-.35-.37-.82-1.59-.91-1.64-.15-.1-3.59.36-3.41.99Z"/>
        <path class="cls-2" d="M283.91,129.4c.23-.22.44-2.32-.6-2.33l-1.29,1.68c-.47,1.11,1.48,1.03,1.89.65Z"/>
        <path class="cls-2" d="M288.35,122.47c.16-.39.19-.74,0-.9-.64-.52-1.19.32-1.42,1.24-.12.5-.15,1.01-.05,1.36.51-.17,1.19-1,1.48-1.7Z"/>
        <path class="cls-2" d="M259.96,131.3c1.61-.78.58-1.16.27-2.46-1.61.78-.58,1.16-.27,2.46Z"/>
        <path class="cls-2" d="M286.99,134.45c.09.19-.02.5.08.6l.6-.08-.08-.6-.83-1.71c-.52.75-.08,1.17.23,1.79Z"/>
        <path class="cls-2" d="M286.69,150.83l-.08-.58c-2.51.03-2.36,1.2.08.58Z"/>
        <path class="cls-2" d="M279.76,162.63l.58-.08c-.02-.59-.22-1.19-.22-1.78-.19.56-.82.91-.36,1.86Z"/>
        <path class="cls-2" d="M291.68,165.92c.89.32,1.54-.58,1.11-.74-.89-.32-1.54.58-1.11.74Z"/>
        <path class="cls-2" d="M280.55,159.51l-.58.08c0,.39.14.79.15,1.19.06-.19.91-.2.44-1.26Z"/>
        <path class="cls-2" d="M267.83,145.41l.46.35c-.17-.15-.34-.34-.46-.35Z"/>
        <path class="cls-2" d="M287.98,137.35l.54-.37-.07-.02c-.16-.03-.35-.1-.55-.2-.03.08.03.53.08.6Z"/>
        <path class="cls-2" d="M282.65,96.27c.08-.1-.03-.32-.16-.45-.07-.07-.15-.12-.22-.11-.28.05-.28.22-.19.37.12.2.43.37.57.19Z"/>
        <path class="cls-2" d="M271.43,104.98c-.05.04-.11.08-.17.1-.07.06-.12.13-.13.2,0,.02-.02.04-.02.06,0,0,0,0,0,.01.03.12.08.18.13.21.2.1.52-.23.49-.46-.04-.04-.07-.07-.07-.13-.05-.04-.15-.02-.24.02Z"/>
        <path class="cls-2" d="M279.48,85.79c-.18-.2.08-.73-.75-1.11.24.72.09.64.75,1.11Z"/>
        <path class="cls-2" d="M313.11,163.15l-.38-.55c-.94-.02-1.03.09-.77,1l.63.23c.1-.32.08-.61.52-.67Z"/>
        <path class="cls-2" d="M289.89,133.48c-1.42.13-2.1-.14-1.63,1.42.19-.07.44,0,.6-.08.37-.2,1.49-1.2,1.03-1.34Z"/>
        <path class="cls-2" d="M135.3,478.57c-3.01-3.34-6.1-6.4-9.15-9.64-2.09-2.22-9.01-11.59-10.68-12.4-1.1-.53-7.19.23-8.94.23-.62,0-1.23-.06-1.88-.05-1.44.95-1.73.84-2.24-.81-.32.05-1.23.49-1.52.71-2.04-.69-4.61-.63-6.75-.55-.25,0-.49.33-.76.36l-1.12-.41c-.24.08-.75.31-.76.36-.11.46,1.63,1.81-1.56,2.6.77,1.6,2.5-1.49,1.82,1.92-.63.44-1.59.63-2.28,1.07l.35.74,1.88.06c-2.04,1.87-1.72,4.27-5.02,5.13-.51.13-1.01.54-1.52.71,0,.13-1.01.87-.4,1.1.24.09,4.71.25,4.46,1.62-.04.2-2.5,3.08-2.69,3.17-.43.19-1.46-3.16-3.25,1.95l7.78-3.17-.05,1.87c-2.23.74-1.87,1.92.36.76.82-.43,3.86-2.48,4-2.98.07-.25-.34-4.95-.4-5.2.29-.23.5-.45.66-.66,1.38-.75,3.64.72,4.67-1.83-.99-.38-.42-1-3.35-1.22-.63-.05-1.77,1.42-3.29,0-.07-.07-.14-.11-.22-.19l-1.02.45c-.16-.45.78-1.7.81-2.23.01-.22-.3-.48-.36-.76,1.82-.74,3.53-.14,4.47,1.62,1.92-3.4-1.08-2.16-2.52-3.69-.14-.15-.27-.31-.37-.52-.12-.24-.28-.51-.36-.76,1.81-.91,4.37-.49,6.4-.21,1.31.18,2.85.5,4.11.86,7.42,2.1,15.7,7.12,21.49,12.21,2.58,2.27,6.85,6.24,8.79,8.88.82,1.12,5.55,9.02,5.39,9.54-2.03.2-4.05.66-6.04.97-.62.1-1.8-.46-2.64.31.77.53-.13,2.51,3,.45l.71,1.52c.87-.34,1.22-.94,1.88.05l-.76.36c-.26.12-.51.24-.76.36l-.36-.76c-.86.34-1.99.72-1.93,1.83-3.07.53-.8-3.74-4.83-2.38,1.43,2.12-.15,2.42-2.1,1.44-.38-.75.98-.73,1.34-1.09.83-.83,1.03-1.86,2.69-2.19-.1-.59.15-1.36.05-1.88-.66.39-1.03.6-1.28.62-.42.04-.5-.42-.95-1.43l.8-1.28.72.56c-.29-1.14,1.23-1.7-1.43-3.05-.2.35-.37.71-.41,1.12l.36.76c.04.3-.47.92-.4,1.12-2.58-2.53-3.21,1.74-5.87,1.36l.03-.36v-.14s-.21.1-.21.1c-.06-.1-.09-.2-.11-.3-.05-.29.07-.58.24-.86.06-.1.13-.2.2-.29v-.13s.13-1.41.13-1.41c-.44-4.99-1.7-3.62-3.97-6.5,1.86-.59,3.09-1.28,1.4-2.97-.68-.68-1.64.51-2.47.69-.51.11-1.11.69-1.52.71.48,3.02.12,2.49-1.98,3.71-.45.26-1.03.54-1.52.71.34,2.33-1.18,2.47.26,4.52-1.01.72-3.47,1.66-3.57,1.84-.39.7.56,2.85-1.45,3.3.12.26.24.68.36.76.39.28.28.56,1.12.41l-.36-.76c2.19-.92,3.97-2.85,6.04-.97.06-.18,2.1-1.44,1.74-2.2-.29-.6-4.29.42-3.51-1.61.11-.28,2.95.32,3.75.1,1.62,1.45,2.76,3.75,3.6,5.74l-4.16,1.02c.25,1.25-.69,1.73-.81,2.24-.3,1.3-.58,3.19-.86,4.11-.91,3-.99,2.85-3.14,5.18-.99,1.07-5.07,2.37-2.38,3.88l2.73-3.12c.59-.05,1.35.17,1.88.05.21-.05.58-.23.76-.36.38-.28.53-.65.41-1.12.2-.16.52-.19.76-.36l.77.58.76-1.29c.6-.5,1.29-1.24,1.93-1.83.36-.14.64-.23.84-.26,2.14-.62.19.48-.35.91-.04.04-.08.07-.13.12-1.88,2.99-.78,4.26,1.33,6.8,1.6-1.2,2.39-1.95,4.56-2.14-1.04-.79-1.55-1.55-2.18-2.68-1.38-2.48-2.02-2.66.1-3.76.84-.43,2.01-1.25,2.97-.91.15.05.3.13.44.25-.1.39-.36.79-.41,1.12-.12.9.05,1.78.31,2.64.4-.04.96-.7,1.45-.59.18.04.61,2.51,2.26,2.57.12-.2,1.15-.39,1.63-.99,2.59-3.23,2.09-2.56,3.25,1.49-.55.94-.84.8-1.57,2.59-.14.34-.33.77-.41,1.12-.78.06-1.81-.12-2.23-.81l-.76.36c-.67.44-1.72.62-2.28,1.07-2.2,1.73.81,3.02.66,3.4-1.97.64-3.13,2.43-5.33,2.5.34-1.44,2.46-1.46,1.57-2.58-2.84-.3-2.49,1.67-2.65,2.11-.01.03-.03.04-.04.07-.72.63-2.98.42-3.8,1.78-.43-.31-.5-4.14-.62-5.28.5-1.18,2.02-1.53,2.69-2.19-1.25-1.64-4.05-2.4-4.01-4.61l-2.29,1.06c-.03.88.02,1.8.31,2.64-2.39-1.74-1.57-.47-2.64.31-.43.31-1.23.42-1.52.71l1.88.05c1.21.86,1.42,2.46,1.78,3.81.46,1.68,2.1,2.31-.45,2.99l-1.38-4.92c-.26-.78-.58-.5-1.12-.4-.36.06-1.13.48-1.52.71-1.61.98-2.56,2.51-3.86,3.66.55.96.84,2.11,1.42,3.05.82,1.32,3.17,3.03.31,2.64-.56-.08-1.8-.5-2.23-.81l-.76.36c.16,2.73-.82,2.18-1.57,2.59-.49.27-1.02.48-1.52.71.41.67-.64,1.36-1.17,1.47l-.35-.75h0s0-.01,0-.02c-.13-.25-.26-.43-.37-.58-.3-.76.1-1.5.07-2.06-.02-.48.16-1.01.2-1.49l-.92-.03c-.19.2-.62.17-.76.36l-.81,2.24c-.16.19-.59.16-.76.36l-.99,1.25c-.09.12-.16.21-.18.23-.67.65-1.05,1.22-1.93,1.83.23.71-.12,1.64-.05,1.88.08.26.25.5.36.76l.36.76c.12.25.21.54.36.76.22.34,1.05.82,1.47,1.17.2.16.16.64.36.76l1.12.41c2.03-.94,4.06-1.91,6.09-2.85.25-.12.51-.24.76-.36l5.33-2.49c.45.85-.17,2.37-.19,3.14.47-.08,1.01-.1,1.62-.1.43-.43.55-1.72,1.93-1.83.16.26.31.67.47,1.14.81,2.45,1.64,7.08,2.69,7.59.13.06.4-.82,2.28-1.07l1.52-.71c-.12-.25-.23-.51-.36-.76-.12-.24-.2-.55-.36-.76-.29-.4-1.67-.84-1.48-1.16l1.93-1.83-2.63-.4-.36-.06.16-.05,4.75-1.35c-.71-.65-2.82-.77-4.14-1.35-.48-.21-.85-.5-1.01-.89.02,1.01-.03,2-.09,2.99-.03-.91-.02-1.95.04-3.13.01.05.04.09.06.14,0-.3,0-.59-.03-.89-.03-.41-.61-1-.71-1.53.76-.69,2.05-.13,2.64-.31,1.28-.38,3.07-1.49,4.44-1.23.93.18,1.08,1.57,1.62,1.83,1.02.47,3.01-.52,4.13.19,1.29.81.02,3.76,1.73,2.91-.93-4.09,3.57-5.16,4.76-8.71l1.4,3.98c.71.34,4.3-10.72,4.63-11.91.93-3.3-1.12-5.76,4.12-7.03,3.53,12.98,2.33,28.97-1.83,41.68-1.72,5.24-5.88,14.26-8.76,18.95-7.62,12.38-22.24,26.17-35.81,31.64-2.27.92-17.75,4.81-18.9,4.16-.19-.11.13-2.51-.29-2.63l-4.35.62,7.58-6.72,3.86-6.5c-.87.67-1.85.23-2.64.3.09-.21.16-.44.22-.68.45-1.92-.19-4.77-.79-6.48l-3.81,1.79c.14.25.25.52.36.79.13.22.25.46.36.73.59.9,2.85,1.55.66,3.4-1.17.99-3.17.31-1.57,2.59-4.09,3.09-2.27,3.64-4.17,5.73-1.44,1.58-5.97,3.07-3.49,3.9l-2,.48,2.56,2.49c-.35.99-12.32-1.44-13.86-1.86-2.66-.73-4.73-2.34-7.44-3l-.03.92c2.39,1.04,4.62,2.18,7.06,3.19,6.66,2.77,13.1,6.25,20.05,8.34l41.46-14.81c2.49-1.23,13.83-23.72,16.09-27.99,2.38-4.5,6.51-9.95,7.91-14.84.11-.38-.78-1.91.08-2.82l1.09,1.34c.28-.54.45-1.17.6-1.64.11-.14.19-.31.21-.59,2.27-3.92,8.44-11.83,9.11-15.98.32-1.94-2.54-31.35-3.22-34.06-1.18-4.67-11.94-14.41-15.76-18.65ZM120.51,483.4c-.21.83-1.07,1.79-3.08,2.59.26-.98-.62-3.02-.49-3.32.48-1.11,1.37-1.45,2.14-1.31.92.17,1.68,1.01,1.43,2.04ZM97.98,525.73c-.01.52-.32,1.55-.05,1.88-2.01,3.81-5.31-.52.05-1.88ZM98.01,531.74c-1.1-1.55.27-1.45,1.76-2.2.05.29.25.6.43.92.11.2.22.4.28.6-.82.2-1.94,1.42-2.47.68ZM113.19,526.5c.02-.61.28-.73.76-.36l-.76.36ZM111.23,522.3l2.74-4.05.66,3.4-3.4.65ZM116.57,519.82c.02-.64,1.5-.16,1.45,1.17-.02.64-1.5.16-1.45-1.17ZM136.03,494c.02.68-.02,1.14-.09,1.47-.2,1-.68.59-.72.77-2.22.18-.03-1.08.81-2.24ZM145.17,503.64c-1.4,2.26-5.23-1.39-7.45-2.08-1.59-.49-3.87.62-4.46-1.62,2.49.3,4.6.08,6.79-1.33-.25-1.34-1.15-.08-1.72-.38-.67-.36-.73-1.11-.86-1.18.24-.3.47-.75.4-1.12l.76-.36.05-1.88c.7-1.03,1.46-1.8,2.69-2.18.85,1.58,4.17,11.55,3.81,12.13Z"/>
        <path class="cls-2" d="M-2.71,479.12c2,1.48,1.87,3.55,5.76,2.4-1.13,3.4-1.85,5.15-1.53,8.61,0,.06-.55.37-.41,1.12.09.47.54,1.01.71,1.52l.73.57.03-.92c-.14-4.92,2.12-9.27,3.74-13.82,1.09,1.44,1.39,1.88,1.79,3.8,1.8-2.3.21-5.15-2.5-5.33-2.49-.16-5.86,5.51-7.56,1.68.19-1.51,3.05-6.9,3.95-7.42,2.3-1.32,7.46.75,10.68-.55,1.9-.77,3.56-4.12,4.83-3.87.3.06,1.42,2.07,2.59,2.46,1.98.67,4.36-1.04,5.93-.96,1.09.06,1.02,1.76,2.07,1.96.5.1,7.79-1.91,9.99-1.79,2.51.14,3.15,2.4,3.85,2.5,2.1.29,2.84-3.66,4.75,2.55-5.26.62,1.23,4.34,3.29,3.81,1.4-.36,5.25-5.06,4.29.02-.06.34-1.13.12-.75.86.38.73,1.58-.72,1.96.06.42.85.16,3.24.44,4.61.26,1.29,1.7,3.44,1.62,4.05-.1.79-3.29,1.25-3.17,2.94,4.01,3.37,4.13.87,6.61-1.69.2-.11.35-.25.51-.38.05-.02.09-.04.14-.06.99-.43,1.91-.06,1.11-2.58-.02-.05-.04-.11-.05-.16-.04-.11-.07-.22-.11-.34.13.07.25.16.37.24.12.08.23.17.34.25,2.29,1.83,3.23,4.99,4.54-.16-1.51,1.23-2.1-.8-2.23-.83-1.86-.41-3.66-.14-4.92,1.38-1.58-1.53-2.78-1.84.1-3.76,1.6.72,1.97-.3,2.64-.31l-.36-.76c.95-.25,2.04-1.03,3.05-1.43.17-.07,1.15.53,1.52-.71.11.1,1.3.43,2.59,1.57.21.19.3.73.47,1.12.07.15.15.28.26.36.07.05.51-.47,1.51-.66.79-.15,4.66-1.01,4.57-2.14-.19-2.47-2.72-4.67-5.22-3.85-1.6.53-1.92,3.64-4.53,2.84-1.17-2.14.36-1.6,1.76-3.44-.36.28-1.01.33-1.41.2-.29-.09-.45-.27-.25-.52.39-.48,1.14-.56,1.57-.4.24.09.39.24.31.44.68-1.03,1.26-1.71.45-3-.85.55-2.07.96-3.05,1.42-.25.12-.51.23-.76.36-.04.98-.46,2.04-.45,3-.74.39-1.55.67-2.28,1.07-1.35.75-1.74,1.41-2.69,2.19-.38.31-1.07.41-1.52.71-.05-.12-.31-2.28-.31-2.64,1.32-.62,2.31-1.68,3.45-2.54.21-.16.52-.21.76-.36l-.36-.76-1.12-.41c-.41.54-2.07.9-2.69,2.19.34-1.32-1.41-1.08-1.47-1.17-.13-.19-.37-.67-.36-.76-.29-.14-.46-.28-.57-.43.2.09.4.22.57.43.01-.09,1.06-1.38,1.17-1.47l-.36-.76.81-2.23c1.43-.16,3.21-1.82,4.11.86.08-.07,1.34.14,2.18-.27.71-.34,1.37-1.61,1.62-1.51,2.33.91-.74,2.08-.8,2.23-.08.18.6,1.06.71,1.52.91-1.02,2.19-2.16,3.2-.94.07.09.12.18.2.28.55-.36,1.11-1.5,1.93-1.83.11.25.23.66.36.76l-.28.75-.13.36,1.52-.7c1.5-.75.05-2.99.34-3.69.31-.76,1.6-.75,2.04-1.13.74-.65,1.17-2.02,2.69-2.19-.15-1.44-1.3-1.44-1.83-1.92-.42-.38-.14-1.44-1.1-1.35-2.56.25.24,1.47.34,1.7.21.48-.6,1.66-.81,2.24-1.11.95-3.29,3.07-3.5,4.42-3.19-.2-1.72-.76-1.83-1.93-.04-.42-.58-1.01-.71-1.52-.57.09-1.3-.14-1.88-.05-.93.14-6.5,1.15-6.8,1.33-1.68-2.09,1.1-2.26,3.09-3.3.98,1.06,1.81,1.75,2.19,1.79.27.03.33-.24.08-.91-.14-.39-.39-.92-.75-1.6.75-.37,1.52-.73,2.28-1.07,3.42-1.52,3.8-3.06,5.24,1.26,1.25-.7.43-3.7,1.27-4.17.25-.14,4.73-.77,5.62-.91,1.91-.31,6.76,1.04,7.56-1.68-2.77.06-5.5.14-8.28.16-12.54.08-17.95.39-28.67,8.62l-42.74.85c-2.43.76-3.64,3.48-5.3,5.09-2.34,2.27-4.7,4.61-6.95,6.96.33,1.57,2.22,1.3,2.59,1.57ZM63.28,478.02c.11.01.24.06.4.19l-.42.2-.34.16c.01-.41.14-.58.36-.55ZM61.93,480.42c.19.09.19.73.36.76l-.92-.03.57-.73ZM53.59,468.55l3.79-1.76h.02s.05.1.05.1l.3.64-1.15,1.48c-1.48.41-3.04,1.63-4.57,2.13-1.06.03,1.12-2.14,1.57-2.58Z"/>
        <path class="cls-2" d="M124.72,485.73c-.43.33-.9.75-1.42,1.23l1.64-.77c-.05-.25-.13-.37-.23-.46Z"/>
        <path class="cls-2" d="M122.85,487.17c.08-.36.01-.9-.19-1.61-.09.17-.25.38-.43.61l-.11,1.35.73-.34Z"/>
        <path class="cls-2" d="M84.91,466.99c-.13.22-.05.75.27,1.62.06-1.01-.02-1.39-.27-1.62Z"/>
        <path class="cls-2" d="M68.72,465.18c.17-.03.36-.12.55-.22-.17.04-.35.11-.55.22Z"/>
        <path class="cls-2" d="M79.46,486.15c-.22,1,1.78,1.8,1.83,1.92.34.81.12,3.06.67,3.4.27.17.65-1.13,1.11-1.16.39-.03,1.13.91,1.52.85.84-.12,1.06-1.41,1.17-1.47l-.36-.76c.22-.31.23-.93.41-1.12.83-.87,1.43-1.81,2.69-2.19-.12-2.54-.05-5.34,0-7.9-3.29-1.22-4.83,4.39-3.74,6.84-1.37-1.04-5.05.45-5.3,1.58ZM83.57,487l-1.52.71,1.18-2.42c1.08-.34.16,1.42.34,1.7Z"/>
        <path class="cls-2" d="M88.49,485.62c.01.26.06.49.12.7.01-.23,0-.46-.12-.7Z"/>
        <path class="cls-2" d="M72.44,481.07c-.86.38-1.32.69-1.59.99.43-.22.95-.54,1.59-.99Z"/>
        <path class="cls-2" d="M42.93,498.57c1.7-.47,3.18.76,5.38-.63,1.95-1.23-4.1-2.35-5.62-1.99-1.52.36-3.63,2.85-5.31,3.4.08.69,1.04.28,1.11.4,1.32,2.06.93,5.11,2.45,7.2l-.22-6.39c.16-.08.53-1.52,2.2-1.99Z"/>
        <path class="cls-2" d="M1.31,527.36c-3.96,2.68-7.57,2.51-6.24,8.48-.82,2.12.89,5.08,3.26,4.97-.9-1.01-1.98-2.24-2.54-3.45.91-.62,1.74-1.71,2.69-2.19-.29-.08-2.41-2.24-1.63-3.44,1.17-1.82,5.05-.58,4.47-4.38Z"/>
        <path class="cls-2" d="M112,478.34c-.17.08-1.92-.52-2.84,1.08-.07.11-.14.21-.2.35l-.03-.27-.28-2.37c1.5-.73,2.09-3.55,4.11.86.72-.34,1.39-1.22,1.93-1.83l-1.73-5.68-2.69,2.17c.04-3.23-1.45-7.41-5.13-5.02,1.05,1.67,1.25,2.37,1.02,4.17-.23,1.79-1.78,4.62-2.6,6.33.52,1.89.88.68,2.05.42.26-.06.5-.28.76-.36l.36.76c-.04.18.79.88.47,1.45-.7,1.22-2.25-.03-1.33,2.66l-1.87-.05,1.06,2.29c-1.89.92-3.97,2.2-3.89,4.65.03,1.11,1.66,3.43,2.18,3.57.35.1.77-1.06,1.16-1.47-1.45-2.95.63-6.84,3.95-7.42.25-.03,2.23.84,2.63-.31.18-.52-1.4-2.32-2.18-2.69.35-.23.64-1.77,1.94-1.83l-.06,1.87c.52-.19,1.01-.53,1.53-.71-.11-.75-1.27-1.78-.31-2.64Z"/>
        <path class="cls-2" d="M94.47,516.24l-1.02-4.16c-1.69.89-3.36,1.2-4.97,3.26-.28,1.23,4.99,1.07,5.99.9Z"/>
        <path class="cls-2" d="M57.56,496.84l3.51,1.6c.46-1.24.04-7.06-.54-7.15-2.9-.46-1.71,2.96-1.99,4.37-.11.55-1.53.68-.97,1.18Z"/>
        <path class="cls-2" d="M93.73,486.89c-2.23,2.17,2,4.15,2.45,7.21.59-.05,1.54-.85,2.28-1.07-1.26-1.36-3.36-6.2-4.72-6.14Z"/>
        <path class="cls-2" d="M84.79,497.56l.68,3.39c.69-.32,1.3-4.96,1.26-5.23l-.36-.76c-.08-.23-.24-.66-.36-.76-.38.49-.78.98-1.17,1.47-1.24,1.61-1.97,2.19-4.2,2.9,1.02,1.58,3.38,0,4.15-1.02Z"/>
        <path class="cls-2" d="M106.56,502.6l-.48.77c.21.08.31,1.38,1.08,1.36,2.81-2.71-.08-1.98-.78-4.6-.05-.19.71-.86.24-3.52-1.34,1.06-1.14,3.2-1.62,4.47l1.55,1.51Z"/>
        <path class="cls-2" d="M59.38,520.59c.5.3,5.56,1.58,4.33-.63-.23-.41-5.16-1.66-6.13-2.23-.76.58,1.52,2.69,1.81,2.86Z"/>
        <path class="cls-2" d="M109.42,498.57c.39.85,2.36.04,2.8.08.66-.63.35-2.89.45-3-1.72-1.04-3.63,2.09-3.26,2.92Z"/>
        <path class="cls-2" d="M14.2,479.55l1.37,4.92c2.28.9,1.83-7.26-1.37-4.92Z"/>
        <path class="cls-2" d="M68.64,482.85c.02-.15.29-.84.4-1.12l-.76.36c-.46.12-.85-.35-1.12-.41-2.06-.45-2.11-.13-3.76-.1l1.83,1.93,3.4-.66Z"/>
        <path class="cls-2" d="M79.9,469.23c-.74-.16-2.01-1.58-3.35-1.22.39,1.23.34,2.41,1.79,3.8l1.56-2.59Z"/>
        <path class="cls-2" d="M106.63,496.62c-.77-4.44-1.15-4.66-2.81-.07.87.73,2.2-1.34,2.81.07Z"/>
        <path class="cls-2" d="M80.23,499.7c-1.04-.36-2.78,3.3-1.61,4.46.28.13,3.18-3.92,1.61-4.46Z"/>
        <path class="cls-2" d="M102.54,466.06c.42.44,1.02.74,1.47,1.17-.05-.17-.09-.35-.12-.56-.19-1.26-.16-3.17-1.21-4.61-.03-.04-.07-.08-.1-.13-.1-.13-.19-.26-.31-.38l.15,2.64.11,1.87Z"/>
        <path class="cls-2" d="M85.32,462.98c.64-1.77-2.7-2.98-3.34-1.21s2.7,2.98,3.34,1.21Z"/>
        <path class="cls-2" d="M96.15,510.53c-2.01.08-1.82,1.14-1.94,1.18l3.76.1c-.1-.1,1.02-1.39-1.82-1.28Z"/>
        <path class="cls-2" d="M16.87,478.32c.35-1.51-1.56-3.36-2.52-4.4l-.76.36c.92,1.23,1.47,3.51,3.28,4.04Z"/>
        <path class="cls-2" d="M65.5,501.95l-1.78-3.8-1.52.71c2.14,1.56.94,4.92,3.29,3.09Z"/>
        <path class="cls-2" d="M90.91,522.54c-1.15.23-.32.84-.39,1.68-.39.07-.78.36-1.17.9-3.1-1.01-3.36,0-3.67-3.85-4.62,2.31-2.07,1.2-1.95,4.65.08,2.13-5.43,9.93-7.12,11.65-5.26,5.37-13.59,10.1-21.3,9.05-.7.29.15,1.15.34,1.69l-6.29-3.54c2.06-2.45,3.76-6,5.11-8.9,1.07-2.31,2.26-4.71,3.19-7.06l-1.12-.4c-.59,1.27-2.21,5.16-2.94,6.61-.08.13-.17.28-.25.46-6.84,10.15-13.32,9.76-23.64,12.01-2.08.45-.29,1.1.35,1.67-1.02.75-2.34.28-3.41.67,1.4,1.02,2.03,3.41,3,4.38.7.69,1.93.07,2.97.88,3.94,3.1,4.38,8.23,5.22,12.7,4.78.31.54-5.5,5.73-3.61-.38-3.6-.74-.35-3.34-2.18-1.27-.89-3.82-7.86-6.52-8.98,1.65-2.87,9.47,2.46,12.72,2.07,4.04-.48,5.24-4.55,8.81-5.65l1.42,3.04c.37,6.75-2.79,1.04-3.14,5.18-.48-.09-1.73.59-2.64.31-.32-.1-.37-2.73-3.75-.09,3.03,1.73,2.15,9.8,4.42,3.49.49-1.37.37-3.62,3.22-1.04l-.99,1.84c3.48-1.97,4.09-.2,6.7,2.44,1.25-.69.86-2.97-.1-3.98-.94-1-3.02-.41-4.2-.98-.92-.45-.37-1.15-.43-1.18,2.71.23,7.16-2.43,9.24-1.95,2.48.58,1.6,1.34.33,2.57,4.52,2.34,4.15-.36,5.9-2.29.33-.37,1.28,1.04,1.84.99-.51-1.69-1.6-3.19.86-4.11,1.7,1.72,1.28,3.95-.86,4.11.31,1.02,1.07,2.01,1.42,3.05-4.98.19-5.51,4.53-10.95,2.34.16.75,1.03,1.71,1.06,2.29l3.17.83c-.26,1.76-2.11,2.11-3.62,2.16.54,2.79.27,1.27,2.95,2.33-1.28,2.47-5,7.04.27,4.52.34.05-.19,1.65-.06,1.88-1.11.53-1.75,1.34-1.57,2.59.28-.02,1.79.02,1.88.05.37.51.51.96.5,1.32,0,.18-.05.33-.12.46-.35.66-1.43.56-1.91-1.06l-.72.34h-.03s0,.03.02.03c.6.54.66,1.49.64,2.26-.02-.04-.05-.06-.08-.09,0,0,0,0,0,0-.09-.04-.16-.07-.25-.11-.78-.06-2.44,1.39-3.07,1.99-.61.58-2.54,2.48-1.57,2.58,1.43.11,4.72-2.14,4.97-3.24.61,1.5,1.77,1.81,1.83,1.93.48.19.85.17,1.14.02.86-.44,1.02-1.95,1.18-2.01.9-.34,1.86,2.19,2.95,1.38l.46-3c-1.04-.78-1.65-1.28-1.52-2.48.04-.18.07-.36.1-.57,1.96-.96,1.89.72,2.76.54,2-.41,3.36-2,5.86-1.18.14.04.26.07.41.13-.07-.07-.12-.15-.18-.22-.82-1.04-.3-2.51-.48-3.18-2.22-8.6-.35-6.42-.42-12.8-.05-.13-.06-.24-.1-.36.01.03.04.07.05.1.03.09.05.18.06.26l.45-3c1.41-2.74-2.76-8.46-4.49-11.17-.56-.87-2.32-1.51-2.44-1.84-.34-.87,2.14-2.94,2.6-4.04.68-1.64.28-2.79,1.51-4.83,2.43-4.02,5.88-3.03,9.19-6.14.47.49-.45,1.02-.41,1.11.22.5,3.28,5.67,3.61,5.73.22.04,1.02-.55,1.52-.71-1.45-2.11-1.54-3.48-1.73-5.68-.05-.63-.4-1.22.05-1.88-1.1-.36-4.23-.78-3.7-1.97.53-1.2,2.34-.28,2.63-.31.57-.07,1.32.18,1.88.05.12-.03,2.18-1,2.28-1.07-.09-.26-.27-.5-.36-.76-.38-1.13-.25-2.46-1.79-3.8ZM69.41,583.64c-.71-1.18-.71-1.55-.43-1.63.18-.05.48.03.78.1.32.08.64.15.82.06.48.88-.3,1.18-1.16,1.47ZM76.5,571.05l.35.75c-2.99,1.86-3.69.36-.35-.75ZM75.78,555.61c.44-1.22,2.67-.41,2.22.81-.44,1.22-2.67.41-2.22-.81ZM73.6,566.82l-.35-.74c3.1-3.46,4.99.58.35.74Z"/>
        <path class="cls-2" d="M99.17,494.55c.6,2.2,1.21,1.33,3,.45-.35-1.72-2.12-2.29-3-.45Z"/>
        <path class="cls-2" d="M81.13,479.8c-1.86.51-2.87,2.17-2.74,4.05.73.2,3.59-4.04,2.74-4.05Z"/>
        <rect class="cls-2" x="77.53" y="496.76" width="2.51" height="1.67" transform="translate(-203.47 80.3) rotate(-25.08)"/>
        <path class="cls-2" d="M87.2,506.65c-.61,1.69,3.78,2.19,2.8.08-.24-.5-2.56-.72-2.8-.08Z"/>
        <path class="cls-2" d="M67.18,495.6l5.53,3.9c-.9-2.21-2.95-3.61-4.36-5.38-.17-.21-.2-.54-.36-.76.47-1.37,2.56-1.04,3.05-1.42-.6-2.2-1.21-1.33-3-.45-.35.24-.33,1.07-.41,1.12-1.96,1.34-3.41.42-.45,3Z"/>
        <path class="cls-2" d="M91.56,498.12l-2.87,1.79c1.96,1.11,3.04.38,2.87-1.79Z"/>
        <path class="cls-2" d="M92.16,503.4l-.74.35c.74,6.84,3.84,1.02.74-.35Z"/>
        <path class="cls-2" d="M96.75,515.17c.78-.5,1.85-.72,2.65-1.25.36-.35.19-.57.04-.94-2,1.14-4.36-.39-2.69,2.19Z"/>
        <path class="cls-2" d="M106.85,488.17l-1.89.9,1.47,1.16.76-.36c-.13-.52.67-2.05-.34-1.7Z"/>
        <path class="cls-2" d="M91.19,483.44c-.44,1.22,1.78,2.02,2.22.81.44-1.22-1.78-2.02-2.22-.81Z"/>
        <path class="cls-2" d="M91.75,490.6c.02.92-1.29,2.7,1.47,1.17-.44-.42-.66-1.11-1.47-1.17Z"/>
        <rect class="cls-2" x="80.23" y="471.13" width="3.35" height=".82" transform="translate(-192.14 79.16) rotate(-25.08)"/>
        <path class="cls-2" d="M2.94,536.8c-.44,1.22,1.78,2.02,2.22.81.44-1.22-1.78-2.02-2.22-.81Z"/>
        <path class="cls-2" d="M37.32,501.22c-.96-.49-.52,2.42-.45,2.99.18-.71,1.9-2.25.45-2.99Z"/>
        <path class="cls-2" d="M87.93,522.08c-.03.08.46,1.75,1.08,1.34,1.52-2.16-.6-2.62-1.08-1.34Z"/>
        <path class="cls-2" d="M100.31,522.78c.13.01,1.38-.56,1.52-.71.1-.1-.4-.56-.36-.76l-.36-.76c-.16-.08-.59.43-.76.36.14.42-.43,1.03-.41,1.12.05.22.31.76.36.76Z"/>
        <path class="cls-2" d="M98.71,497.55c0-.29.33-.73.41-1.12-2.68.74-3.01,2.53-.41,1.12Z"/>
        <path class="cls-2" d="M87.56,463.79c-.55-.22-.8,1.26-.04,1.87.67.54.87-1.54.04-1.87Z"/>
        <path class="cls-2" d="M100.14,500.59c1.23-.46-.03-1.58.05-1.88l-.05,1.88Z"/>
        <path class="cls-2" d="M77.5,466.15c-.06-.3-.21-.67-.51-1.13-.2-.02-.48.3-.76.36.54,1.78,1.47,1.79,1.27.77Z"/>
        <path class="cls-2" d="M90.17,493.19c.05-1.33-1.43-1.81-1.45-1.17-.05,1.33,1.43,1.81,1.45,1.17Z"/>
        <path class="cls-2" d="M37.6,476.03c.05-1.33-1.43-1.81-1.45-1.17-.05,1.33,1.43,1.81,1.45,1.17Z"/>
        <path class="cls-2" d="M36.83,506.08l.75-.35c-.13-.52-.64-1.08-.7-1.52-.11.44-1.12.63-.04,1.87Z"/>
        <path class="cls-2" d="M6.43,488.76c.05-1.33-1.43-1.81-1.45-1.17-.05,1.33,1.43,1.81,1.45,1.17Z"/>
        <path class="cls-2" d="M.34,535.22c-.29-1.53-1.38.08-1.87-.05.13-.07,1.49.62,1.87.05Z"/>
        <path class="cls-2" d="M88.14,463.05c-.45-.8-1.11.55-.58.74.25.09.72-.48.58-.74Z"/>
        <path class="cls-2" d="M93.35,494.02c-.49-.38-.74-.26-.76.36l.76-.36Z"/>
        <path class="cls-2" d="M90.49,495.83l.36.76.57-.73c-.21-.47-.88-.01-.92-.03Z"/>
        <path class="cls-2" d="M77.75,479.52c.8-.45-.55-1.11-.74-.58-.09.25.48.72.74.58Z"/>
        <path class="cls-2" d="M83,501.65c-.49-.38-.74-.26-.76.36l.76-.36Z"/>
        <path class="cls-2" d="M51.35,489.55c-.49-.38-.74-.26-.76.36l.76-.36Z"/>
        <path class="cls-2" d="M37.25,497.08c-.49-.38-.74-.26-.76.36l.76-.36Z"/>
        <path class="cls-2" d="M22.42,546.7c-.49-.38-.74-.26-.76.36l.76-.36Z"/>
        <path class="cls-2" d="M51.89,577.93l.58.89c-.08-.3-.24-.61-.58-.89Z"/>
        <path class="cls-2" d="M80.63,585.82c-.13-.49-.27-.78-.43-.96.11.32.25.64.43.96Z"/>
        <path class="cls-2" d="M83.06,579.11c.01-.21-.05-.35-.16-.45.06.16.11.31.16.45Z"/>
        <path class="cls-2" d="M38.32,578.7c.86-.8,1.67-.69,1.57-2.59-.18-.08-.25-.84-.6-1.15-.05-.04-.09-.11-.15-.13-.12-.04-.44.32-.89.46-.18.05-.37.07-.59.01l1.21-3.35c-.42-.15-.55-2.47-1.45-2.11l-.87,4.11c-.56.1-.53-.38-.73-.57-.3-.29-1.65-1.69-1.83-1.93-.45-.58-.63-1.61-1.07-2.28-.37-.13-.75-.25-1.12-.41.06-.25.3-.93.41-1.12.17-.29,1.27-.38,1.52-.71-.02.06.03.16.1.28.14.23.37.55.44.85l.94.04c-.05-.12-.16-2.53-.67-2.55.39-.69.83-1.44,1.25-1.86.03-.03.07-.08.1-.1-.05-.12-.12-.2-.18-.31-1.03-1.87-3.68-1.59-4.35-1.65-.04,0-.07-.01-.12-.02-.27-.1-1.08-.36-1.12-.41-.3-.3-.4-1.09-.71-1.52-.2-.28-1.63-2.28-1.69-2.43-.55-1.54,1.23-3.86-2.23-5.95-1.32-.8-2.64-.06-3.64-.43-2.28-.85-4.46-2.24-7.18-2.86-1.24-.28-2.94,1.03-3.35-1.22-5.37,1.11-8.68-.94-11.4-.65-1.07.12-1.57,1.38-2.81,1.53-.73.09-4.78-2.99-5.64-3.65-3.24-4.65-.35-3.59.62-5.77.11-.24.76-5.05.61-5.28-.19-.3-1.5-1.57-2.03-1.57-1.49,1.85,1.05,8.07-2.86,8.76-.55-1.71-.69-2.49-1.02-4.16-.12.27-.25.5-.38.72-1.74,2.89-4.53,2-2.39-.8.65-.84,1.86-1.17,2.05-1.45,1.97-2.8,1.6-3.76.55-6.75-.97-.18-.22,2.66-.98,3.26-.72.57-4.98,3.13-5.3,1.1-.67-4.28,2.5-7.77,2.75-11.65.36-5.57-3.66-9.78,2.59-14.55.1-.08,1.86-.87,2.28-1.07l1.26-5.23c-.31-.6-1.74-3.6-1.78-3.81-.12-.67.95-4.01,1.97-3.71.24,1.26,1.7,1.94,2.19,2.69-.69,1.59-.95,3.54-1.26,5.23-.44,2.31-.57,2.96-1.26,5.23-1.18,3.87.14,6.18-4.66,5.89.22,1.61,1.27,1,1.47,1.17.93.79.59,1.59,2.97,1.39l-.33-1.69c.81.23,3.01,1.77,3.34,1.22,1.25-3.83-3.61-9.99,1.77-10.1-1.22-1.28-.39-4.58-.61-5.29,3.41-.88,1.48-1.85,1.57-2.59.22-1.87.6-3.75.15-5.64-.44,1.17-1.18,2.72-2.2,3.65-.17.16-.35.3-.54.42-.76-1-.42-3.94-.61-5.28-.16-.05-3.77,2.16-3-.45.35-1.17,3.62-1.63,4.56-2.14.26-.14.62-.21.76-.36-.2-.84-.52-1.16-.9-1.21-1.18-.17-2.95,2.2-3.57-.41-6.51,6.97-13.22,13.79-19.34,21.12-.44,1.27,2.75,23.94,3.54,25.94.86,2.17,8.07,13.25,9.73,14.17,7.7.65,22.15,8.2,29.1,7.8.24-.01,2.01-2.47,4.31-.63l-1.46,6.72.71,1.52c.78,5.2,4.04,10.77,6.36,15.58,1.21,2.51,2.26,5.15,3.56,7.61.26.49.43,1.04.71,1.52.14.24.2.53.36.76l.76-.36c1.55,1.48.54-.66.69-1.17.51.07,1.04.11,1.59.1l.76-.36c-.09.64-.72,2.93-.46,2.99,1.42-.9,1.93-.98,2.18-.75.08.17.17.34.26.49.1.26.23.55.56.73,2.44,1.33,4.88,2.83,7.42,3.95.64.28,1.33,1.27,2.23.81-.22-1.6-1.31-1.03-1.47-1.17-.71-.66-3.75-3.48-3.65-3.86.94-.29,2.05.61,2.99.46.66-.11,1.53-.84,2.28-1.08-.28-.91-.91-.36-1.11-.4-1.74-.29-3.2.48-4.72-.05-2.15-.75-2.16-2.25.25-1.57,1.27-.1,4.06-1.58,5.69-1.73-.11-.5-.76-1.08-.85-1.77-.13-1.01,1.84-.9.95-1.98-1.35.75-5.43,3.06-4.88-.51ZM-12.22,490.53l-.76.36c.02-.61.28-.73.76-.36ZM-18.08,499.78c.92-1.06,2.27-1.23,3.04-1.94.65-.6-.69-3.22,1.73-1.69,2.33,3.67.76,2.63-.1,3.76.31.61-.1,1.43-.05,1.88.16,1.44,1.52,1.62-1.57,2.59-.12-.73.47-1.76-.31-2.63-.94-.34-2.61,4.75-4.79,3.63.84-1.41,1.11-4.52,2.04-5.59ZM34.66,574.85l-1.63-.04c.37-.02,1.01-.11,1.63.04ZM31.2,563.48c.32-.17.81-.53,1.19-.6.22-.04.41.02.5.26-.28,1.17-.78,1.98-1.3,2.08-.08.02-.17.02-.25,0-.33-.1-.65-.52-.9-1.39.1-.13.5-.22.76-.36ZM30.6,572.11c.88-.07,1.79.11,2.64-.31.36.99-.58,1.62-.81,2.23-1.61-.52-3.33-.63-3.23-1.07.04-.2.45-.46,1.4-.86ZM28.87,566.42c-.52.72-1.14,1.39-1.93,1.83-.24.13-.51.23-.76.36-.08-.52.21-1.54.05-1.88.7-.04,1.65-1.38,2.64-.31ZM22.16,569.44c-.27-.27-.56-.72-.86-1.33.23-.29,1.11-.4,1.52-.71.15.49.22.88.25,1.22.13,1.16-.3,1.46-.91.82ZM20.07,557.55c.07.65,1.16,1.95,1.06,2.29-.05.17-2.64-.15-3.4.65-.46-1.73,1.23-2.21,2.34-2.94-.33-3.03,3.03-5.96,3.81-1.79-1.17.71-2.69,1.05-3.81,1.79ZM24.92,559c.61-.05.7.55.74.57.42.71.63,1.61,1.07,2.28l-2.77-1.94.96-.91ZM27.36,576.42c-.37.31-2.41,1.21-2.55,1.18-.03-.04-.06-.07-.09-.11-.16-.28-.4-1.1-.62-1.42.58-1.64,2.42-1.11,3.05-1.42-.05-1.16-1.31-1.23.81-2.24.17.25.28.45.36.64.37.83-.15,1.09-1.18,1.6.02.39.94,1.15.21,1.77ZM29.33,577.34c-.63-.23-.95-.6-1.07-1-.3-1.03.86-2.29,2.45-1.98-.54.59-.45,2.36-.63,2.62-.1.15-.51.18-.76.36ZM30.51,575.86c.38-.26.63-.17.8-.01.14.13.22.29.27.37.01.01.02.03.04.05.07.57.16.83-.41,1.12l-.7-1.52ZM35.94,583.53c-.47-.12-1.53,1.68-2.23-.81l.41-1.12c-.04-.29-.37-.54-.36-.76.02-.25-.39-.53-.36-.76-.53.38-1.43.59-1.88-.05,1.25-2.56,4.17-4.86,3.05-1.43.31-.54,1.34-2.71,1.56-2.59l1.43,3.04c-.38.28-1.66.52-1.36,1.16l2.02,2.24-2.28,1.07Z"/>
        <path class="cls-2" d="M49.24,578.23c.14-.39.85-.98,1.17-1.47l.05-1.87c-1.84.78-2.86.71-1.57,2.58-.81.06-1.72-.15-2.23-.81-.37-.47-.8-1.62-1.07-2.28,2.36-.78,1.48-2.52-.31-2.64-.13,0-.56.23-.76.36l-.36-.76,1.57-2.59c-.3-.32-.41-1.08-.71-1.52-1.73,1.3-1.89.15-2.6-1.57-1.67,1.58.36,3.81.98,6.04.05.2-.33,1.03-.05,1.88.09.26.26.5.36.76l.36.76c-1.08-.14-2.44-.68-3.35-1.22.32,1.02,1.05,2.02,1.42,3.05.27.19.84.19,1.12.41.17.13.17.53.36.76,1.99,2.49.28,1.66.31,2.64l.36.76c.06.44-.37,1.81-.05,1.87l2.29-1.06c.06-.94.3-1.78-.3-2.64,5.57,1.42,2.81-.79,3.04-1.42Z"/>
        <path class="cls-2" d="M66.01,598.22l-1.42-3.04-.8,2.22c-1.69-1.57-1.42-2.07-1.02-4.15l-5.91,3.22,9.16,1.75Z"/>
        <path class="cls-2" d="M52.56,595.24c.78.13,1.62,1.76,2.99.45.14-.37-1.68-2.23-2.18-2.69-1.17-1.76.89-2.78,1.03-3.94.17-1.35-1.7-2.11.33-5.05.07-.1-.02-.6.41-1.12l-2.66-4.08c.33,1.2-.91,2.41-.85,2.55,1.21,2.74,3.94,1.73-2.22,5.14,2.48.94.07,3.84,1.74,5.68l-.76.36,2.19,2.69Z"/>
        <path class="cls-2" d="M39.68,555.8c-.64,1.44,5.49,2.34,5.57,2.03.66-2.36-5.2-2.86-5.57-2.03Z"/>
        <path class="cls-2" d="M59.69,566.85c3.82.23,2.7-.32.81-2.23-.65.36-2.47-.19-3.39.67,1.42.88.95.03,2.58,1.57Z"/>
        <path class="cls-2" d="M63.22,590.25l2.15,3.62c.91-2.05,0-5.43-2.15-3.62Z"/>
        <path class="cls-2" d="M72.25,589.73c.65-.15,2.32.57,3.4-.67l-1.11-.39-2.16.17-.13.9Z"/>
        <path class="cls-2" d="M53.19,570.82c-.87-1.6-1.52-6.97-2.89-4.21-.5,1.01,1.4,3.06,1.77,3.81.12.24.31.52.36.76.04.17-.15.49-.29.79l-.12.33c.08.26.27.5.36.76l.36.76c.44-.45,2.14-.75,2.28-1.08.07-.17-1.44-1.21-1.83-1.92Z"/>
        <path class="cls-2" d="M49.79,571.48c-2.59.07.02,4.43,1.06,2.29,0,0,0,0,0,0,.07-.15-.24-.57-.47-.96-.12-.21-.23-.41-.24-.56,0-.23-.3-.47-.36-.76Z"/>
        <path class="cls-2" d="M74.99,585.67c.61-.15,1.07-1.43,1.17-1.47l-.36-.76h0s-1.78-.05-1.78-.05h-.08c.02.09.06.18.11.28.2.45.59.93.6,1.25l.36.76Z"/>
        <path class="cls-2" d="M69.26,589.28c.06-.18,1.15-.4,1.52-.72l-2.23-.8c.12.29-.22,1.04-.2,1.49l.92.03Z"/>
        <path class="cls-2" d="M63.24,574.46c.06-1.19-2.46-2.08-2.58-1.58-.06,1.19,2.46,2.08,2.58,1.58Z"/>
        <path class="cls-2" d="M54.76,568.23l-.75.35c1.1,3.34,2.61,2.64.75-.35Z"/>
        <path class="cls-2" d="M55.57,566c-1.33-.05-1.81,1.43-1.17,1.45,1.33.05,1.81-1.43,1.17-1.45Z"/>
        <path class="cls-2" d="M62.45,590.61c.05-1.33-1.43-1.81-1.45-1.17-.05,1.33,1.43,1.81,1.45,1.17Z"/>
        <path class="cls-2" d="M61.37,473.26c.21-.27.36-.57.5-.86-.16.15-.33.42-.5.86Z"/>
        <path class="cls-2" d="M113,468.59c-.94-1.97-2.6-5.01-5.12-5.02,1.7,1.27,2.17,6.87,5.12,5.02Z"/>
        <path class="cls-2" d="M123.28,478.63c1.3-1.36,1.57-3.28.49-4.87-1.3,1.36-1.57,3.28-.49,4.87Z"/>
        <path class="cls-2" d="M32.84,558.06l-.15-.54-.54-1.91c-.39.4-.64.74-.77,1.04-.35.74.1,1.17,1.47,1.41Z"/>
        <path class="cls-2" d="M40.75,572c-.52.57-1.34.57-1.44.78-.03.05,0,.12.08.21.16.17.54.44,1.31.89-.17-.54.04-1.29.05-1.88Z"/>
        <path class="cls-2" d="M35.17,569.97c-.35-.2-.74-.27-1.12-.41.31.17.83.51,1.12.41Z"/>
        <path class="cls-2" d="M102.04,536.89c-.2,0-.4,0-.6.02.02.01.05.05.07.05.13.04.32,0,.54-.07Z"/>
        <path class="cls-2" d="M130.05,535.18c-.44-.09-.74.98-1.49.37-1-.81-1.56-1.87-3.3-3.09-1.1-.77-2.14-2.27-3.7-1.98,1.02,1.47,1.67,2.87,2.89,4.21,1.36,1.5,1.78,1.19,3.71,1.98-.07.85-.29,1.83.32,2.54.4.23,3.65-.23,4.51-.16-.77-1.03-.52-1.59-.31-2.64.91-4.59,3.99-3.27-2.47-6.26l1.34,5.86c-1.09.89-.92-.7-1.49-.82Z"/>
        <path class="cls-2" d="M86.46,534.83l-3.22,1.03,2.57,1.6c-2.37.88-1.59,1.77-2.14,3.31-.2.55-.76,1.98-.81,2.24-.04.21.37.5.36.76,0,.04-.61.23-.58.63.02.04.04.08.05.12,4.03-.21,2.16,2.22,1.91,4.18-.12.9-.23,1.78-.63,2.62,1.53.75,1.87-2.14,2.78-3.42.61-.86,2.78-2.29,2.81-2.48.06-.34-1.43-1.43-1.82-2.62.04-.34.06-.72.05-1.16.32-.26.44-1.77,1.92-1.83l2.91,4.21c0-.1.06-.19.16-.28.42-.41,1.59-.71,1.64-.79.54-.86.2-.81,1.3-2.23.16-.2.62-.16.76-.36.36-.21.78-.05,1.21.28.94.71,1.9,2.27,2.09,2.82,1.33-2.91,3.74-1.33,5.32-1.56.58-.08-1.57-3.41,1.89-.89-.04-.08.33-1.03.05-1.88-.08-.24-1.36-.56-1.31-1.1.01-.19,2-1.8,1.06-3.42-.66.41-1.55.76-2.28,1.07l.66,3.41c-.13.33-2.58.39-3.4.66-.1.03-.55,2.07-1.35,1.09-1.17-1.44.06-1.21,1-1.85.65-.44,1.58-.64,2.28-1.07l-.27-.57-.08-.18s-.1.05-.14.08c-1.01.61-2.34.34-3.26.57-.26.07-.5.27-.76.36-.52.18-1,.52-1.52.71.14-.28.05-.83.4-1.12-.17-.2-.17-.59-.36-.76-1.65.6-3.3,1.89-4.96,2.31-1.73.44-2.42-.63-2.6-.63-1.32.05-2.89.6-4.16,1.02.37-2.28,2.45.25.5-4.88Z"/>
        <path class="cls-2" d="M112.94,557.71c-1.26,1.78-1.56,3.83-.13,5.63,1.15-1.55,2.5-2.15,4.2-2.9.05-.02.05.76,1.12.41,1.27,2.19,1.75,3.29,1.73,5.69.29,1.39,1.1,1.5,2.23.83,1.02.57-2.34,4.92-3.04,1.41-.14.32-2.55,2.53-1.98,3.7,1.87.55,6.2-2.81,6.4-4.01.08-.45-3.9-6.86-4.59-7.96,1.08-1.38,3.34-6.17,3.6-8.17l-5.43,6.24-4.12-.85Z"/>
        <path class="cls-2" d="M80.68,540.32l-1.51.71c1.3,2.48,1.94,5.56,4.32,7.25-.77-1.8-2.33-4.29-1.73-5.69-.43-.69-.64-1.58-1.07-2.28Z"/>
        <path class="cls-2" d="M110.93,567.13c-.06.24,2.01,4.64,2.77,4.13l-.97-6.04c-.34.63-1.77,1.77-1.81,1.91Z"/>
        <path class="cls-2" d="M90.85,554.13c-.39-.22-3.28.4-2.85,1.79l2.79,1.01c1.68.16.74-2.41.07-2.8Z"/>
        <path class="cls-2" d="M78.52,551.55c-.43,1.08.93,1.46,2.26,1.37.71-.05,1.42-.23,1.84-.52-.44-.6-1.85-1.16-2.9-1.24-.59-.04-1.07.06-1.2.39Z"/>
        <path class="cls-2" d="M100.18,585.96c1.73,1.82,1.79.27,3.39-.68-1.73-1.82-1.79-.27-3.39.68Z"/>
        <path class="cls-2" d="M96.28,547.87c.21-.21.68-.18.76-.36l-.36-.76-.76.36-1.93,1.83c1.23.37,1.59-.39,2.28-1.07Z"/>
        <path class="cls-2" d="M118.25,541.3l-.75.35c1.1,3.34,2.61,2.64.75-.35Z"/>
        <path class="cls-2" d="M136.94,545.53l-.35-.75c-.78.27-1.5.8-2.28,1.06.83.02,1.56.71,2.63-.31Z"/>
        <path class="cls-2" d="M136.26,528.23c.05-1.33-1.43-1.81-1.45-1.17-.05,1.33,1.43,1.81,1.45,1.17Z"/>
        <path class="cls-2" d="M132.44,545.81l.35.75c.52-.18,1-.53,1.52-.7-.28,0-.66-1.13-1.87-.04Z"/>
        <path class="cls-2" d="M119.05,568.77l.28-.77c-.13.29-.31.6-.28.77Z"/>
        <path class="cls-2" d="M99,544.86l-.03.82c.12,0,.69-.27.76-.36l-.73-.57v.1Z"/>
        <path class="cls-2" d="M47.19,570.75c.21-.25.31-.73,0-.84-.16-.06-.41.17-.53.4-.06.12-.1.25-.05.33.19.34.42.29.58.1Z"/>
        <path class="cls-2" d="M64.11,581.44s.06.01.08,0c0,0,0,0,.02-.01.15-.09.2-.18.22-.27.05-.31-.53-.6-.83-.45-.03.06-.07.12-.14.15-.03.09.03.2.12.31.08.05.15.11.21.18.11.07.22.1.32.09Z"/>
        <path class="cls-2" d="M34.57,578.6c-.19.33-1.01.21-1.17,1.47.85-.62.81-.39,1.17-1.47Z"/>
        <path class="cls-2" d="M123.45,500.82l-.57.74c.37,1.26.56,1.33,1.65.6l.04-.94c-.48,0-.85.15-1.12-.41Z"/>
        <path class="cls-2" d="M93.75,544.42c.77,1.84.71,2.86,2.58,1.57-.18-.23-.18-.59-.36-.76-.42-.42-2.23-1.48-2.23-.81Z"/>
        <path class="cls-2" d="M375.62,735.57c-.1-3.59-3.31-6.27-4.85-9.14-2.18-4.05-4.43-8.15-6.76-12.1-2.25-.16-2.61,2.51-3.13,2.91-2.77,2.14-5.53,1.16-5.48,6.88-4.17-2.84-6.27-4.5-11.08-5.4-.08-.02-.29-.9-1.36-.98-.67-.05-1.57.35-2.34.38l-1.05.77,1.24.4c6.72,1.71,11.75,6.45,17.28,10.4-2.37.92-3.08,1.16-5.84.96,2.43,3.32,6.9,2.27,8.18-1.33,1.18-3.31-5.21-10.07.64-10.9,1.97.84,8.18,6.8,8.53,8.22.9,3.62-3.9,9.83-3.37,14.68.31,2.88,4.21,6.41,3.39,8.03-.19.38-3.35,1.12-4.33,2.55-1.67,2.43-.27,6.31-.98,8.41-.49,1.45-2.78.7-3.46,2.05-.32.64-.42,11.29-1.43,14.23-1.15,3.35-4.47,3.34-4.87,4.26-1.2,2.74,3.86,5.26-5.29,5.45,1.19-7.36-6.36,0-6.44,2.99-.05,2.04,4.83,9.07-1.68,5.81-.43-.22.28-1.58-.87-1.35-1.14.23.36,2.42-.83,2.64-1.32.24-4.46-1.03-6.42-1.18-1.85-.14-5.31.98-6.12.63-1.02-.44-.42-4.93-2.76-5.43-6.11,4.14-2.77,5.26-.25,9.61.08.31.2.58.32.84.01.07.03.14.04.21.21,1.52-.66,2.61,3.06,2.5.08,0,.16,0,.24-.01.17,0,.32,0,.5-.02-.15.15-.31.28-.47.41-.16.13-.31.25-.48.36-3.36,2.39-8.01,2.45-1.54,6.22-1.08-2.52,1.89-2.54,1.98-2.71,1.27-2.36,1.61-4.9.04-7.2,2.69-1.55,3.57-3.06,5.05,1.58-1.59,1.9-.36,2.78-.6,3.7l1.17-.19c-.03,1.38.6,3.17.76,4.68.03.25-1.16,1.35.38,2.34-.18.11-1.08,1.6-3.13,2.91-.33.21-1.1.12-1.7.21-.23.03-.44.09-.58.21-.09.07.45.87.32,2.3-.1,1.13-.43,6.7,1.13,7.01,3.43.69,7.38-1.88,7.23-5.6-.1-2.38-4.19-4-2.1-7.23,3.35-.76,2.04,1.1,3.98,3.71-.24-.6-.06-1.49.27-1.98.24-.36.54-.5.8-.14.5.72.31,1.75-.06,2.28-.21.29-.48.43-.72.24,1.13,1.32,1.84,2.37,3.89,1.77-.42-1.36-.5-3.18-.76-4.68-.07-.39-.11-.78-.19-1.17-1.31-.43-2.59-1.41-3.89-1.77-.24-1.16-.3-2.36-.57-3.51-.49-2.12-1.25-2.9-1.93-4.49-.27-.63-.15-1.61-.38-2.34.19-.02,3.21.47,3.7.6.33,2.03,1.39,3.78,2.11,5.66.14.35.08.79.19,1.17l1.17-.19.98-1.36c-.58-.77-.42-3.16-1.93-4.49,1.66.98,2-1.5,2.15-1.55.31-.1,1.05-.25,1.17-.19.3-.34.56-.51.8-.61-.21.24-.45.45-.8.61.12.06,1.47,1.98,1.55,2.15l1.17-.19,2.72,1.96c-.33,2,1.23,5.05-2.75,5.24.06.14-.71,1.76-.48,3.05.2,1.09,1.65,2.48,1.42,2.78-2.13,2.81-2.53-1.8-2.71-1.95-.21-.17-1.67.4-2.34.38,1.03,1.63,2.09,3.8.04,4.7-.15.05-.29.09-.46.16.27.89,1.61,2.08,1.74,3.32-.38.05-.99.06-1.17.19l-.91-.67-.43-.31.37,2.34c.44,2.32,4.03,1.22,4.88,1.88.91.71.4,2.46.75,3.21.59,1.25,2.28,2.37,1.93,4.49,2.02.35,2.45-1.2,3.31-1.74.68-.43,2,.36,2.25-.98.65-3.56-2.08-.24-2.44-.19-.72.1-2.01-1.45-2.72-1.96-.87-1.87-2.89-5.64-4.64-6.45,1.5-4.24,1.7-2.04,3.32-1.74.59.11,1.6-.4,2.34-.38.09-.81.69-1.71.79-2.53.17-1.31.94-9.26.83-9.73,3.48-1.47,2.64,2.36,3.28,5.47-1.82.92-3.07,1.77-3.28,2.28-.14.35.2.53,1.2.46.49-.03,1.14-.13,1.95-.3.15-.03.32-.06.51-.11.21,1.16.4,2.34.57,3.51.73,5.22,2.69,6.32-3.73,6.61.47,1.97,4.84,2.01,5.16,3.33.09.39-.79,6.71-.94,7.97-.32,2.71-4.02,8.77-.64,10.9.98-3.78,1.93-7.51,2.98-11.28,4.73-17.02,6.4-24.47-.61-42.18l15.34-58.25ZM333,804.52l.4-1.24.77,1.05c-.19.22-1.07-.03-1.17.19ZM336.9,807.08c-.06.14-.18.3-.41.47l-.1-.64-.09-.53c.55.18.72.41.6.7ZM354.25,803.48l-.98.15-1.56-2.14c.01-2.16-1.04-4.75-1.12-7.01.37-1.44,2.47,2.34,2.89,3.13l.93,5.81v.03s-.16.03-.16.03Z"/>
        <path class="cls-2" d="M357.39,709.82c.02.65.09,1.31.21,1.94.79.52-1.23,2.86,5.05,1.58-1.36-2.3-2.3-5.53-3.66-7.81-1.28,1.13-1.64,2.69-1.6,4.28Z"/>
        <path class="cls-2" d="M355.35,853.69c-.59-.32-3.08,1.51-2.92-3.12-2.47.43,1.06,3.97-3.31,1.73-.36-1.02-.24-2.39-.58-3.5l-1.14.19-.81,2.52c-1.75-3.49-5.13-3.97-5.02-8.79.02-.74-.35-1.57-.38-2.34-.17-.06-.79-1.7-1.33-.97-.21.28-2.16,6.29-3.92,5.42-.26-.13-3.21-4.58-3.25-4.87-.1-.65,4.85-.76-1.39-5.16l1.29,11.76-2.52-.79c-.14-3.31-1.88-3.28-1.17.19.26,1.28,1.87,6.2,2.49,6.57.31.19,6.84,1.44,7.2,1.46.2.49.41.85.64,1.15.48,2.16-2.38,4.66.68,7.04.9-1.19,1.52-.19,2.94-4.07.31-.84-1.25-2.95,1.26-4.46.12-.07.2-.15.34-.22l-.21-1.55c.67-.04,2.01,1.71,2.72,1.96.29.1.77-.23,1.17-.19.3,2.75-1.18,4.84-3.92,5.43,3.87,3.91,3.34-.63,5.98-2,.25-.13.53-.24.85-.31.37-.07.8-.19,1.17-.19.54,2.8-1.01,6.11-2.18,8.75-.75,1.7-1.78,3.67-2.75,5.24-5.71,9.24-15.7,18.53-24.85,24.41-4.08,2.62-11.1,6.88-15.42,8.49-1.83.68-14.36,4.04-15.01,3.62.52-2.83.66-5.74,1.01-8.55.11-.88,1.31-2.26.6-3.7-1.01.84-3.35-1.15-1.77,3.89l-2.34.38c.13,1.31.81,2.01-.79,2.53l-.19-1.17c-.06-.39-.13-.78-.19-1.17l1.17-.19c-.13-1.29-.21-2.98-1.74-3.32.47-4.36,5.38.35,5.09-5.62-3.42,1.12-3.22-1.14-1.14-3.41,1.16-.23.61,1.62.96,2.24.81,1.45,2.12,2.11,1.93,4.49.84.09,1.78.73,2.53.79-.27-1.04-.41-1.63-.35-1.98.1-.59.76-.51,2.31-.74l1.42,1.58-1.04.76c1.66.05,1.83,2.33,4.68-.76-.39-.41-.82-.78-1.36-.98l-1.17.19c-.42-.05-1.07-1-1.36-.98,4.43-2.52-1.12-5.02.42-8.48l.47.18.19.07-.05-.34c.16-.05.31-.05.45-.04.41.05.76.33,1.07.66.11.12.22.25.32.38l.17.06,1.87.7c6.93,1.32,5.56-.91,10.33-2.87.08,2.75.54,4.68,3.48,3.04,1.19-.66-.06-2.42.02-3.61.05-.73-.51-1.77-.38-2.34-4.28-.51-3.43-.8-4.26-4.11-.18-.71-.34-1.61-.38-2.34-3.28-.44-2.9-2.56-6.22-1.39-.59-1.65-.91-5.34-1.11-5.54-.8-.8-4.08-.34-3.91-3.24-.39.06-1.01.06-1.17.19-.53.43-.87.16-.98,1.36l1.17-.19c.41,3.32,2.33,6.48-1.02,8.56.22.15,1.14,3.4,2.32,3.2.92-.16,1.08-5.98,3.53-4.14.34.26-1.57,3.88-1.58,5.04-2.59,1.64-6.14,2.29-9.17,2.67l.23-6.02c-1.79-.15-2.08-1.61-2.72-1.96-1.64-.91-4.1-2.01-5.24-2.75-3.71-2.39-3.48-2.45-5.81-6.26-1.07-1.75-1.25-7.78-4.34-4.72l3.17,4.91c-.17.82-.75,1.76-.79,2.53-.02.31.08.88.19,1.17.23.63.68.97,1.36.98.14.33.06.79.19,1.17l-1.08.81,1.46,1.52c.44,1,1.19,2.23,1.74,3.32.05.55.06.96.03,1.23.02,3.14-.72.07-1.09-.83-.04-.08-.07-.13-.11-.22-3.33-3.7-5.47-2.7-9.73-.83,1.01,2.63,1.72,3.99,1.14,7.01,1.47-1.1,2.71-1.51,4.48-1.92,3.89-.91,4.39-1.71,5.05,1.58.26,1.3.92,3.2.09,4.37-.13.18-.29.35-.5.5-.49-.28-.94-.8-1.36-.98-1.17-.51-2.43-.62-3.7-.6-.1.55.58,1.57.25,2.2-.12.22-3.63-.15-4.36,2.07.23.23.09,1.71.71,2.58,3.38,4.75,2.66,3.82-3.27,3.83-1.07-1.1-.76-1.45-2.91-3.13-.41-.32-.92-.75-1.36-.98.22-1.07.87-2.41,1.96-2.72l-.19-1.17c-.33-1.07-.18-2.57-.57-3.51-1.5-3.65-4.41-.07-4.86-.42-.11-2.91-2.09-5.19-1.33-8.18,1.82,1.02,1.03,3.9,2.89,3.12,1.5-3.73-1.3-4.02-1.83-4.4-.03-.03-.05-.05-.08-.08-.58-1.22.58-4.2-.94-5.83.58-.46,5.8.92,7.39,1.19.14.18.27.31.39.39,1,1.19.97,3.06,1.54,4.09,2.71-1.06,4.82-4.56,7.8-3.66l-.56-3.51c-1.19-.37-2.44-.67-3.7-.6,3.28-2.56,1.24-1.95.6-3.7-.26-.71-.09-1.83-.38-2.34l-.79,2.53c-1.64,1.3-3.88.97-5.85.95-2.46-.03-3.93,1.95-3.88-1.77l7.2.03c1.16-.06.9-.6.98-1.36.06-.52-.21-1.72-.38-2.34-.7-2.56-2.42-4.43-3.47-6.64-1.52.37-3.19.33-4.68.76-2.11.6-5.33,3.13-3.7-.6.32-.73,1.38-2.25,1.96-2.72l-.19-1.17c-3.76-.84-2.63-1.95-2.91-3.13-.18-.76-.25-1.56-.38-2.34-1.07.29-1.59-1.39-1.55-2.15l1.15-.19h.02s0,0,.01,0c.39-.08.69-.18.93-.28,1.14-.11,1.99.71,2.76.89.66.15,1.3.6,1.94.85l.4-1.23c-.19-.34,0-.91-.19-1.17l-2.72-1.96c-.2-.29,0-.86-.19-1.17l-1.31-1.82c-.13-.17-.22-.3-.24-.33-.63-1.16-1.25-1.9-1.74-3.32-1.06.04-2.18-.8-2.53-.79-.39.01-.78.15-1.17.19l-1.17.19c-.38.07-.81.07-1.17.19-.54.17-1.52,1.1-2.15,1.55-.3.21-.93-.02-1.17.19l-.98,1.36c.49,3.11,1.03,6.24,1.51,9.35.06.39.13.78.19,1.17l1.32,8.18c-1.32.29-3.15-1.15-4.18-1.47-.08.67-.25,1.41-.49,2.23.41.75,2.12,1.41,1.74,3.32-.42.11-1.02.17-1.73.19-3.63.15-10.22-.51-11.33.72-.13.15.96.85.57,3.5l.38,2.34c.39-.07.78-.12,1.17-.19.37-.07.82-.06,1.17-.19.65-.24,1.79-1.94,2.14-1.56l1.73,3.32,1.56-3.41.22-.47v.24s-.01,6.96-.01,6.96c1.15-.71,2.13-3.52,3.43-5.09.48-.57,1-.96,1.59-1.03-1.38-.36-2.7-.81-4.02-1.28,1.24.31,2.65.73,4.23,1.26-.07,0-.14.01-.21.02.4.11.8.22,1.22.31.56.12,1.59-.44,2.34-.38.64,1.29-.62,2.83-.6,3.69.02,1.88.84,4.73-.05,6.49-.6,1.19-2.55.85-3.1,1.5-1.03,1.2-.46,4.28-1.85,5.53-1.59,1.43-5.11-1.43-4.61,1.22,5.9.32,5.62,6.83,9.97,9.81l-5.93.36c-.74.84,12.87,9.96,14.35,10.87,4.12,2.53,8.24.7,7.94,8.3-18.95-.23-40.16-8.03-55.78-18.57-6.44-4.35-17.06-13.47-22.3-19.19-13.83-15.1-26.88-40.24-29.06-60.73-.36-3.43.34-25.91,1.65-27.22.22-.22,3.36,1.15,3.68.62l.83-6.13,6.18,12.86,7.32,7.73c-.57-1.44.41-2.6.62-3.7.25.21.53.39.84.56,2.42,1.35,6.54,1.59,9.08,1.43l-.95-5.85c-.39.09-.8.13-1.21.18-.35.09-.72.16-1.12.2-1.45.46-3.2,3.27-4.87-.41-.89-1.97.8-4.42-2.91-3.13-2.6-6.73-4.06-4.48-6.15-7.86-1.58-2.56-1.85-9.28-3.94-6.24l.12-2.9-4.36,2.51c-1.21-.85,6.7-16.14,7.87-18.06,2.02-3.33,5-5.51,6.93-8.92l-1.24-.39c-2.33,2.84-4.73,5.42-7.05,8.34-6.32,7.96-13.52,15.34-19.04,23.95l4.07,61.9c.71,3.85,26.8,27.89,31.72,32.61,5.18,4.96,10.97,12.66,17.05,16.44.47.29,2.9-.32,3.79,1.19l-2.24.96c.63.58,1.41,1.07,2,1.45.14.2.35.38.72.51,4.44,4.59,12.78,16,18.14,18.52,2.51,1.18,43.46,8.66,47.41,8.78,6.78.2,24.14-10.62,31.36-14.17,5.68-2.79,11.02-5.8,16.59-8.68,3.81-1.97,19.19-7.73,20.92-9.68,1.15-1.29,2.46-9.83,3.13-12.2.24-.83.55-1.64.79-2.53-.73-2.32-.47-2.67,1.96-2.72.05-.46-.19-1.85-.38-2.34,1.72-2.51,2.63-6.01,3.35-8.94.08-.35-.26-.8-.19-1.17l.98-1.36c-.02-.35-.13-1.14-.19-1.17ZM309.9,878.01c1.32,1.09,1.44,2.41.95,3.41-.58,1.19-2.02,1.89-3.32,1.15-1.05-.6-2-2.14-2.32-5.17,1.23.73,4.33.32,4.69.62ZM252.14,857.18l-.19-1.17c.82.27.89.66.19,1.17ZM251.6,836.87c-.31.08-.63.15-.92.15.04-1.19-1.17-3.18.03-3.61,2.53-.89,1.86.92,2.31,3.23-.41-.04-.91.11-1.42.23ZM256.34,834.91c-4.38-4.2,2.75-7,2.53.79-.7-.21-1.97-1.03-2.53-.79ZM257.56,864.69c-.86-.28.36-2.1,2.14-1.52.86.28-.36,2.1-2.14,1.52ZM257.96,859.83l.44-4.85,4.43,5.27-4.87-.42ZM284.46,897.54c.61-3.08,1.47.38,2.72,1.96-.93-.24-1.54-.47-1.95-.69-1.28-.66-.53-1.16-.76-1.27ZM270.58,908.17c-2.53-2.77,3.91-6.55,5.69-9.3,1.27-1.96.65-5.48,3.92-5.42-1.37,3.26-1.88,6.21-.82,9.71,1.91.18.55-1.53,1.18-2.19.74-.77,1.79-.56,1.93-.71.31.44.83.93,1.36.98l.19,1.17,2.53.79c1.12,1.34,1.87,2.68,1.92,4.48-2.46.54-17.26,1.19-17.91.48Z"/>
        <path class="cls-2" d="M302.75,887.37c-.28-.71-.66-1.51-1.12-2.4l.41,2.53c.35.03.56-.03.71-.13Z"/>
        <path class="cls-2" d="M301.52,884.28c.46.24,1.21.37,2.26.37-.19-.18-.41-.49-.66-.81l-1.78-.67.18,1.11Z"/>
        <path class="cls-2" d="M343.5,840.65c-.25-.26-1-.36-2.3-.27,1.34.47,1.9.51,2.3.27Z"/>
        <path class="cls-2" d="M352.2,819.41c-.03.24.02.53.09.83,0-.24-.02-.52-.09-.83Z"/>
        <path class="cls-2" d="M319.65,825.87c-1.27-.69-3.12,1.71-3.31,1.74-1.23.14-4.19-1.01-4.87-.4-.34.3,1.27,1.32,1.14,1.95-.11.53-1.67,1.19-1.74,1.74-.17,1.19,1.51,1.99,1.55,2.15l1.17-.19c.34.42,1.17.67,1.36.98.87,1.46,1.9,2.63,1.93,4.49,3.49.82,7.25,1.99,10.71,3.06,2.93-3.99-4.08-8.24-7.83-7.71,1.94-1.46,1.34-7.02-.09-7.8ZM316.91,831.11l-.38-2.34,2.82,2.53c.04,1.59-1.99-.33-2.44-.19Z"/>
        <path class="cls-2" d="M316.87,838.32c-.36-.08-.69-.11-1-.11.3.11.63.17,1,.11Z"/>
        <path class="cls-2" d="M329.23,818.32c-.18-1.31-.43-2.05-.73-2.53.14.67.37,1.49.73,2.53Z"/>
        <path class="cls-2" d="M305.73,694.94c.61.37,4.09-1.87,5.8-.93-3.11-4.34-3.64-6.04-3.05-11.5-5.81.24-5.43,10.78-2.75,12.42Z"/>
        <path class="cls-2" d="M317.03,765.11c-3.3,1-7.28-.71-10.7.54l8.74,2.17c.05.24,1.86,1.3,1.84,3.75-.02,2.48-2.26,4.02-1.23,7.54.92,3.12,4.76-4.65,4.87-6.85.1-2.2-2.46-6.02-2.56-8.51-.96-.16-.79,1.3-.97,1.35Z"/>
        <path class="cls-2" d="M284.87,692.33c-2.56-1.93-7.22-.76-8,2.49,1.71-.83,3.79-1.82,5.66-2.11.49,1.47,1.64,3.02,1.93,4.49.21-.37,3.96-2.4,5.29-.88,2.01,2.29-1.17,7.07,4.2,7.75-2.1-6.4-.48-11.23-9.08-11.73Z"/>
        <path class="cls-2" d="M317.68,872.98c-.05-.26,1.44-2.4-.36-4.27-.13-.13-.23-.27-.39-.4l.38.06,3.32.53c.41,2.32,4,4.21-2.75,5.24.18,1.11,1.11,2.35,1.74,3.32l8.36-.15-1.9-4.49c4.36,1.31,10.6.89,8.78-5.02-2.67.78-3.7.77-6.04-.23-2.34-1-5.57-4.2-7.58-5.97-2.77-.02-1.26.93-1.37,2.61-.02.38.19.78.19,1.17l-1.17.19c-.23-.12-1.5.73-2.15.07-1.39-1.42.9-3.04-3.09-2.82l.79-2.52-3.51.56c-.52-2.92-1.45-6.22-4.8-7.07-1.52-.38-5.28.93-5.68,1.58-.27.44,1.13,1.45,1.54,2.14,4.56-.83,9.03,3.49,8.53,8.22-.06.35-2,2.7-.6,3.69.63.44,3.68-1.01,4.48-1.92.18.56,2.15,1.55,1.73,3.33l-2.51-.81c.05.78.33,1.57.37,2.35,1.06.14,2.91-1.04,3.7.6Z"/>
        <path class="cls-2" d="M276.61,826.83c-1.56-.86-3.37,6.35-3.53,7.77l6.03.22c-.55-2.63-.33-5.02-2.51-7.99Z"/>
        <path class="cls-2" d="M319.98,798.23c1.74-3.76-3.35-3.45-5.15-4.39-.7-.36-.34-2.34-1.23-1.78l-3.52,4.14c1.51,1.1,9.55,2.78,9.9,2.02Z"/>
        <path class="cls-2" d="M313.14,844.92c-2.08-3.85-6.39,1.11-10.71.53-.16.82.56,2.41.57,3.5,2.33-1.19,9.69-2.16,10.14-4.03Z"/>
        <path class="cls-2" d="M305.03,831.83c.35-.02.98-.07,1.17-.19-.52-.71-1.02-1.44-1.55-2.15-1.7-2.3-2.2-3.51-2.31-6.82-2.54.77-1.3,4.58-.22,6.02l-4.86-.39c.17,1.06,6.22,3.67,6.6,3.72l1.17-.19Z"/>
        <path class="cls-2" d="M289.53,854.73l-2.64,1.52-.86-.95c-.18.25-1.99-.11-2.26.94,2.58,4.85,2.72.65,6.53.72.28,0,.89,1.29,4.68,1.69-.92-2.22-3.89-2.78-5.43-3.92Z"/>
        <path class="cls-2" d="M280.72,785.38c-.6.56-4.29,6.92-.81,6.11.65-.15,4.24-6.35,5.39-7.45-.49-1.25-4.22,1.02-4.58,1.35Z"/>
        <path class="cls-2" d="M290.06,865.44c.6,1.14,3.78,1.58,3.89,1.77,2.07-1.93-1.43-5.73-2.69-5.54-1.3.2-.96,3.19-1.19,3.77Z"/>
        <path class="cls-2" d="M313.13,807.73c.35-.15.8-.06,1.17-.19,1.67,1.17.42,3.87.76,4.68,3.21.04,2.27-1.13,1.77-3.89-.19-.57-1.32-.86-1.36-.98-1.06-3.18.75-4.78-3.89-1.77l-7.42,5.99c3.35-.37,6.04-2.61,8.97-3.84Z"/>
        <path class="cls-2" d="M353.76,739.98l-7.2-.04c-2.1,2.74,9.13,5.29,7.2.04Z"/>
        <path class="cls-2" d="M328.29,812.48c.19.08,1.03.72,1.36.98l-.19-1.17c.01-.67.8-1.02.98-1.36,1.4-2.62.99-2.81,1.58-5.05l-3.32,1.74-.41,4.87Z"/>
        <path class="cls-2" d="M339.5,829.87l2.9,3.12c.5-.94,2.92-2.12,2.94-4.07-1.82.06-3.4-.48-5.84.96Z"/>
        <path class="cls-2" d="M296.15,854.87c-1.33.9.97,3.5-1.18,3.78,6.31.67,6.76.23,1.18-3.78Z"/>
        <path class="cls-2" d="M300.98,821.69c.88-1.27-3.39-5.04-5.42-3.9-.29.33,4.08,5.83,5.42,3.9Z"/>
        <path class="cls-2" d="M343.33,866.64c.07-.03.14-.06.21-.09.21-.09.43-.16.64-.27l-3.64-.81-2.58-.57c-.76.4-1.4,1.1-2.15,1.55.24,0,.51.02.8.05,1.79.22,4.35,1,6.72.14Z"/>
        <path class="cls-2" d="M348.78,842.75c2.15,1.55,5.08-2.51,2.93-4.06-2.15-1.55-5.08,2.51-2.93,4.06Z"/>
        <path class="cls-2" d="M280.16,839.08c.67-2.76-.84-2.91-.86-3.09l-1.58,5.05c.18-.09,1.5,1.91,2.44-1.97Z"/>
        <path class="cls-2" d="M361.34,742.35l-.19-1.17c-2.02.77-5.33.64-6.74,2.89,1.92,1.06,5.15-.81,6.93-1.72Z"/>
        <path class="cls-2" d="M303.62,800.86l5.83-.94-.38-2.33c-2.94,2.3-7.03-.63-5.46,3.27Z"/>
        <path class="cls-2" d="M265.9,827.35c.13-1.64-1.01-.75-2.13-1.18.05-.55-.19-1.19-.77-1.94,2.56-3.82,1.31-4.54,6.63-3.48-1.35-7.15-.83-3.27-5.55-4.43-2.92-.72-11.36-11.2-13.05-14.15-5.25-9.2-8.45-22.31-4.04-32.35-.12-1.07-1.62-.24-2.42-.2l7.22-7.16c2.52,3.74,6.67,7.41,10.09,10.36,2.71,2.34,5.51,4.88,8.34,7.05l.98-1.36c-1.49-1.28-6.14-4.99-7.82-6.53-.14-.16-.31-.33-.52-.52-11.12-13.18-8.09-21.82-7.15-36.66.19-3-1.39-.82-2.4-.17-.62-1.67.53-3.27.4-4.88-1.92,1.51-5.4,1.43-7.1,2.38-1.21.68-.83,2.59-2.34,3.68-5.72,4.15-12.84,2.76-19.23,2.17-2.27,6.35,7.25,2.85,2.68,9.16,5.03.87.77-.87,4.24-3.69,1.69-1.38,12.13-2.15,14.68-5.37,3.25,3.35-6.98,11.88-7.71,16.44-.9,5.66,4.14,8.86,4.25,14.12l-4.67.75c-9.28-2.11-.34-4.18-5.81-6.26.31-.62-.13-2.57.6-3.7.25-.39,3.85.55,1.57-5.05-3.51,3.43-14.11-.87-6.44,4.64,1.67,1.2,4.77,1.9.17,4.77l-2.11-2.05c1.33,5.48-1.3,5.62-5.9,8.14.45,1.95,3.69,2.31,5.44,1.4,1.71-.9,1.72-3.94,2.95-5.31.97-1.08,1.7-.06,1.76-.13-1.36,3.58.53,10.64-.93,13.27-1.74,3.14-2.43,1.65-3.61-.54-4.91,5.22-1.12,5.76.83,8.88.37.59-1.9,1.34-2.06,2.11,2.49-.04,4.94-.93,5.24,2.75-2.99,1.64-5.84.21-5.24-2.75-1.51.03-3.14.67-4.68.74,1.66-6.83-4.02-9.22,1.06-15.74-1.07-.07-2.72.73-3.51.56l-2.35,3.97c-2.28-1.04-2.04-3.67-1.53-5.75-3.98-.35-1.82-.12-4.3,3.09-2.86-2.69-7.62-9.5-6.23-1.38-.2.45-2.16-.89-2.52-.81-.29-1.7-1.15-2.89-2.91-3.13-.09.38-.71,2.42-.79,2.53-.83.31-1.5.32-1.99.17-.24-.08-.43-.19-.58-.34-.75-.73-.2-2.15,2.18-2.18l-.18-1.1v-.05s-.03,0-.04.01c-.96.61-2.27.32-3.31,0,.06-.01.1-.04.15-.07,0,0,0,0,.01,0,.09-.11.16-.19.24-.29.39-1.04-.94-3.85-1.51-4.93-.55-1.05-2.38-4.4-2.89-3.12-.7,1.9,1.08,7.23,2.48,7.99-2.28.25-3.13,1.7-3.32,1.74-.45.57-.55,1.08-.46,1.53.27,1.33,2.25,2.14,2.27,2.38.12,1.35-3.69,1.68-3.01,3.47l3.88,1.78c1.47-1.11,2.37-1.74,3.95-1.11.23.12.47.23.73.35.54,3.03-1.7,2.28-1.79,3.53-.21,2.87,1.41,5.33-.67,8.4-.11.17-.19.33-.33.5.12-.07.25-.1.37-.15,1.73-.7,3.52.55,4.5.58,12.51.31,8.83,2,17.5,4.37.2-.02.35,0,.53,0-.05,0-.11.02-.16.02-.14,0-.27,0-.37-.02l3.89,1.77c3.17,2.97,12.54-.48,16.87-1.77,1.4-.42,2.94-2.56,3.44-2.6,1.31-.12,3.15,4.04,4.47,5.09,1.95,1.56,3.68,1.46,5.96,3.91,4.51,4.84,1.84,9.14,4.78,14.82-.84.45-1.21-1-1.34-.98-.77.1-8.95,2.25-9.16,2.68-.14.28.35,1.6.38,2.33,3.42-1.15,5.32-.74,8.37-.15.87.17,1.81-.07,2.53.79.91-1.35,2.69-5.43,4.1-4.26,1.43,1.18-.53,3.28-.6,3.69-.13.8-.75,1.73-.79,2.53,0,.18.51,3.34.57,3.51.39-.02.78-.17,1.17-.19,1.68-.07,3.42.61,5.84-.96ZM193.34,775.68c-.23.4-.46.81-.39,1.09-1.37.31-1.48-.86-1.54-2.14,1.87-.51,2.38-.36,2.37.04,0,.26-.22.63-.44,1.01ZM204.58,789.28c-1.37-4.77.94-5.14,1.15-.19l-1.15.19ZM212.58,786.8l1.14-.18c3.49,5.53-2.71,6.54-1.14.18ZM224.98,796.78c-1.48-1.07.47-3.77,1.95-2.7,1.48,1.07-.47,3.77-1.95,2.7Z"/>
        <path class="cls-2" d="M300.66,849.34c-3.21-.04-2.27,1.13-1.77,3.89,2.47.19,3.92-1.99,1.77-3.89Z"/>
        <path class="cls-2" d="M302.47,697.28c.09-1.7-1.15-2.68-1.83-3.9-1.07-1.91-1.9-4.44-4.84-4.03-1.62,3.54.93,3.73,3.67,4.22-1.44,2.27.71,2.95,1.93,4.49.33-.23,1.02-.2,1.07-.78Z"/>
        <path class="cls-2" d="M327.6,830.58c.02-2.71-1.83-4.72-4.43-5.28-.55.92,4.09,6.43,4.43,5.28Z"/>
        <rect class="cls-2" x="303.22" y="818.77" width="2.36" height="3.54" transform="translate(-127.03 59.09) rotate(-9.18)"/>
        <path class="cls-2" d="M287.69,832.21c.77-.12,1.96-3.2,1.19-3.76-2.05-1.48-4.42,4.28-1.19,3.76Z"/>
        <path class="cls-2" d="M297.43,833.07c-2.26,2.22-1.69,3.97,1.32,4.58l-1.32-4.58Z"/>
        <path class="cls-2" d="M291.36,836.43l-.18-1.14c-9.55-1.64-2.87,4.81.18,1.14Z"/>
        <path class="cls-2" d="M273.65,838.11c.38,1.25.27,2.78.67,4.07.33.62.7.48,1.26.41-.78-3.15,2.22-5.76-1.93-4.49Z"/>
        <path class="cls-2" d="M349.03,710.75c.57.26,2.19.89,2.53.79.28-4.53-3.56-5.04-2.53-.79Z"/>
        <path class="cls-2" d="M306.34,862.21l-.49-2.91-2.14,1.54.19,1.17c.76.02,2.51,1.69,2.44.2Z"/>
        <path class="cls-2" d="M316.84,845.51c1.48,1.07,3.43-1.63,1.95-2.7-1.48-1.07-3.43,1.63-1.95,2.7Z"/>
        <path class="cls-2" d="M308.88,840.81c-1.26-.33-3.16-2.79-2.15,1.55.74-.44,1.76-.47,2.15-1.55Z"/>
        <rect class="cls-2" x="337.92" y="832.46" width="1.16" height="4.73" transform="translate(-128.99 64.78) rotate(-9.19)"/>
        <path class="cls-2" d="M278.58,705.34c1.48,1.07,3.43-1.63,1.95-2.7-1.48-1.07-3.43,1.63-1.95,2.7Z"/>
        <path class="cls-2" d="M299.15,699.01c1.27,1.07,2.12,1.85,3.78,1.18.22-.22-1.18-1.67-1.54-2.14-.52.37-2.49-.24-2.24.96Z"/>
        <path class="cls-2" d="M315.48,762.95c1.04-1.11-3.07-1.64-3.88-1.76.89.52,2.31,3.45,3.88,1.76Z"/>
        <path class="cls-2" d="M265.44,824.43c2.34,2.89,3.78.19,2.23-.95-.1-.07-2.55-.05-2.23.95Z"/>
        <path class="cls-2" d="M263.13,839.81c-.31-.02-1.15.13-1.17.19-.07.17.22,2.08.38,2.34.1.17.92-.33,1.17-.19l1.17-.19c.17-.19-.35-.96-.19-1.17-.62.02-1.23-.97-1.36-.98Z"/>
        <path class="cls-2" d="M296.77,847.57c.39.12.87.73,1.36.98.03-3.92-2.26-5.06-1.36-.98Z"/>
        <path class="cls-2" d="M344.3,844.69c-1,.7,1.75,1.77,2.52.78.52-.66-1.39-1.57-2.52-.78Z"/>
        <path class="cls-2" d="M294.62,849.11l-2.53-.79c.16,1.84,2.16.57,2.53.79Z"/>
        <path class="cls-2" d="M347.5,830.94c.43.03.99-.02,1.73-.25.11-.26-.22-.76-.19-1.17-2.62.05-2.99,1.31-1.54,1.42Z"/>
        <path class="cls-2" d="M308.12,836.15c-1.78-.57-3,1.24-2.14,1.52,1.78.57,3-1.24,2.14-1.52Z"/>
        <path class="cls-2" d="M349.51,773.04c1.78.57,3-1.24,2.14-1.52-1.78-.57-3,1.24-2.14,1.52Z"/>
        <path class="cls-2" d="M309.08,760.41l.19,1.15c.76.02,1.71-.46,2.33-.36-.55-.32-.41-1.76-2.52-.78Z"/>
        <path class="cls-2" d="M346.43,724.38c-1.78-.57-3,1.24-2.14,1.52,1.78.57,3-1.24,2.14-1.52Z"/>
        <path class="cls-2" d="M283.67,699.71c2.18.2.42-1.9.78-2.52.04.2-1.42,1.77-.78,2.52Z"/>
        <path class="cls-2" d="M347.59,846.55c1.26-.29-.31-1.71-.77-1.07-.22.3.37,1.17.77,1.07Z"/>
        <path class="cls-2" d="M303.61,841.66c.7-.51.63-.9-.19-1.17l.19,1.17Z"/>
        <path class="cls-2" d="M302.27,837.08l-1.17.19.77,1.05c.72-.11.36-1.19.4-1.24Z"/>
        <path class="cls-2" d="M329.29,826.11c.29,1.26,1.71-.31,1.07-.77-.3-.22-1.17.37-1.07.77Z"/>
        <path class="cls-2" d="M297.27,824.69c.7-.51.63-.9-.19-1.17l.19,1.17Z"/>
        <path class="cls-2" d="M325.88,786.47c.7-.51.63-.9-.19-1.17l.19,1.17Z"/>
        <path class="cls-2" d="M321.12,764.45c.7-.51.63-.9-.19-1.17l.19,1.17Z"/>
        <path class="cls-2" d="M259.59,725.21c.7-.51.63-.9-.19-1.17l.19,1.17Z"/>
        <path class="cls-2" d="M299.9,685.1c1.26-.29-.31-1.71-.77-1.07-.22.3.37,1.17.77,1.07Z"/>
        <path class="cls-2" d="M204.48,753.54c.45,0,.92-.09,1.43-.45l-1.43.45Z"/>
        <path class="cls-2" d="M184.13,789c.71.02,1.17-.07,1.47-.22-.48.03-.97.09-1.47.22Z"/>
        <path class="cls-2" d="M192.94,794.84c-.24.02-.46.03-.67.04.28.1.49.07.67-.04Z"/>
        <path class="cls-2" d="M180.94,761.92l-2.08-9.26-5.9,11.74,4.66-.76-2.7-1.94c2.78-1.69,3.36-1.12,6.01.21Z"/>
        <path class="cls-2" d="M226.2,744.99c-1.49-2.87-5.3-.98-8.56-1-.29,0-1.27-.85-2.53-.79-.39.02-.78.16-1.17.19l-1.17.19c.6-1.41,1.86-3.05,2.94-4.07-1.51.03-3.14.65-4.68.76-.37.3-.58,1.07-.98,1.36-.24.18-.78.03-1.17.19-4.14,1.73-2.36-.26-3.7-.6l-1.17.19c-.62-.09-2.31-1.2-2.52-.79l.56,3.51c1.25.45,2.29,1.09,3.7.62-4.08,7-.02,4.11.76,4.66.12.15.23.26.33.34.39.51.8,1.33,1.22,1.8l2.52.79c-.34-2.79.14-4.15-2.89-3.13.23-1.13.87-2.27,1.96-2.72.78-.32,2.5-.46,3.51-.57.15,3.5,2.85,2.98,3.7.6.06-.17-.09-.84-.19-1.17l1.17-.19,2.91,3.13c.54-.28,1.62-.14,2.34-.38-1.1-2.85.52-2.62,3.13-2.92Z"/>
        <path class="cls-2" d="M180.42,751.2c.45.33,3.67-1.41,4.48-1.92,2.84-.9,3.42,2.27,4.94,2.92,1.76.75,3.52-1.48,6.72,2.39.11.14.82.2,1.36.98l6.56-2.03c-1.75-.02-2.92-2.17-3.13-2.14-4.18.58-3.86,4.67-6.11-5-2.24,3-5.23-1.39-8.37.16l-.19-1.17-4.49,1.93c-.47,1.01-3.01,1.52-1.77,3.88Z"/>
        <path class="cls-2" d="M240.61,745.08c-1.7-1.42-5.29,6.53-4.9,6.77,2.94,1.81,5.89-5.95,4.9-6.77Z"/>
        <path class="cls-2" d="M221.03,765.04c-1.74,1.59-.41,1.28-3.12,2.9-1.79,5.08-.6,3.79,2.72,1.96-.23-1.02,1.21-3.28.4-4.86Z"/>
        <path class="cls-2" d="M184.83,763.7l-5.74,1.52c2.43,2.02,7.37,2.09,5.74-1.52Z"/>
        <path class="cls-2" d="M221.87,755.32c-1.18-1.07-4.68.72-5.84.93-.37.07-.83.21-1.17.19-.24-.02-.61-.4-.96-.69l-.4-.29c-.39,0-.78.17-1.17.19l-1.17.19c.44.77.19,3.19.58,3.5.2.16,2.19-1.48,3.31-1.73,2.51-.56,10.03.62,6.82-2.29Z"/>
        <path class="cls-2" d="M181.65,781l.97-1.36.61-2.99-1.17-.52c-.05.94-1.66,2.93-.4,4.86Z"/>
        <path class="cls-2" d="M213.43,753.03c.33-.09.65-.16.85-.11.32.08.76-.22,1.17-.19.9-3.53-6.01-1.68-3.51.56,0,0,0,0,0,0,.18.16.86-.1,1.48-.27Z"/>
        <path class="cls-2" d="M188.05,783.56l1.17-.19h0s.76-2.4.76-2.4l.04-.11c-.13-.01-.28.02-.42.04-.69.1-1.49.44-1.92.33l-1.17.19c-.04.89,1.52,2,1.55,2.15Z"/>
        <path class="cls-2" d="M186.16,771.87c-.44.05-1.33-.7-1.94-.85l-.4,1.23c.23.15.1,1.71.39,2.34l1.95-2.72Z"/>
        <path class="cls-2" d="M206.22,769.82c1.59.54,3.77-2.53,3.13-2.88-1.59-.54-3.77,2.53-3.13,2.88Z"/>
        <path class="cls-2" d="M217.94,760.72l-.19-1.15c-4.96.21-4.58,2.51.19,1.15Z"/>
        <path class="cls-2" d="M191.99,733.74c1.17-.7,6.16-3.73,6.64-3.46.03,1.38-1.62,2.54-1.77,3.87-.11.94.55,2.4.58,3.51,1.35-.03.84-1.09.97-1.36,1.06-2.25.58-4.52,1.89-6.38,1.85-2.62,3.89-2.06,2.03.95-.36,1.76.57,6.11.15,8.37.72.05,1.76-.61,2.72-.47,1.42.21.5,2.84,2.32,2.05-.49-2.12-2.06-8.54,2.57-6.41.75,1.48.29,2.53,2.91,3.13.17-.21,1.24,0,1.79-.37.08-.05.18-.08.23-.16.1-.15-.27-.72-.27-1.38,0-.26.04-.53.21-.81l4.07,2.94c.36-.51,3.56.21,3.42-1.15l-5.23-2.76c.09-.8.72-.57,1.05-.76.51-.3,2.93-1.58,3.32-1.74.96-.38,2.43-.24,3.51-.57.32-.46.63-.92.98-1.36.32.18,1.15.76,1.36.98.33.34.03,1.86.38,2.34-.08-.05-.23-.02-.42.02-.37.1-.88.3-1.32.27l-.41,1.25c.18-.03,3.49.75,3.71.08.79.79,1.63,1.68,2.04,2.41.03.06.08.12.1.17.18-.02.32-.09.49-.13,2.93-.68,3.57-4.37,3.92-5.25.03-.05.05-.09.07-.15.24-.32.91-1.32.98-1.36.52-.29,1.63-.12,2.34-.38.46-.16,3.71-1.33,3.94-1.35,2.3-.16,4.76,3.16,8.92-.73,1.59-1.48,1.1-3.56,1.99-4.76,2.04-2.77,4.76-5.18,6.64-8.63.86-1.58-.27-4.38,2.94-4.07.58-7.71,4.63-11.39,5.28-15.2.25-1.49-1.27-2.66-.99-4.4.17-1.03,5.89-5.32,7.13-6.24,7.56-2.6,5,.91,7.58,3.06.29.24,6.56,2.98,6.91,2.87.48-.14,2.7-1.43,2.91-2.14-1.93-2.73-11.34-1.69-10.77-7.26,2.53-.09,3.65.02,6.03.22-.31-.26-.59-.53-.83-.79-3.25-3.47-.96-6.91,2-2.92.89,1.2.87,2.97,1.17,3.34,3.03,3.75,4.48,3.62,8.94,3.35.62-1.24-3.52-1.32-4.04-2.59-.5-1.2-2.32-7.96.55-7.61,6.06.74,9.57,6.39,14.73,8.22,7.41,2.63,14.67-1.18,18.71,9.13.06.17.46,2.85.57,3.51l6.6,3.73c.93-.18,5.55-.97,5.85-.95.96.09,5.07,2.83,4.26,4.1-1.8-.16-3.29,1.56-4.48,1.93-1.89-1.55-4.44-2.65-6.6-3.73-2.96-1.48-3.78-1.92-6.6-3.73-4.79-3.09-8.43-2.2-6.19-8.59-2.26-.32-1.85,1.34-2.15,1.54-1.43.95-2.38.19-3.03,3.5l2.42.2c-.62,1.01-3.56,3.4-2.94,4.06,4.71,3.18,14.93-1.04,13,6.3,2.21-1.16,6.36,1.25,7.41,1.21-.12,4.96,1.93,2.72,2.91,3.13,2.45,1.02,4.85,2.26,7.58,2.37-1.41-1.04-3.23-2.65-4.09-4.39-.15-.29-.27-.59-.36-.89,1.65-.64,5.5.95,7.38,1.21.13-.2-1.47-5.94,1.77-3.89,1.45.92.81,5.53,1.14,7.01.09.41.04.91.19,1.17,1.22.05,1.77-.26,1.99-.75.69-1.53-1.84-4.84,1.93-4.68-6.93-11.51-13.59-23.24-21.16-34.36-1.55-1.09-33.51-5.51-36.52-5.22-3.28.32-21.07,5.82-22.96,7.71-3.86,10.18-19.65,26.86-21.79,36.43-.07.33,2.57,3.67-.8,6.08l-8.55-4.57-2.34.38c-7.35-.95-16.15,1.32-23.57,2.61-3.87.67-7.86,1.07-11.69,1.89-.77.16-1.58.19-2.34.38-.38.1-.8.07-1.17.19l.19,1.17c-2.6,1.53.68.99,1.31,1.39-.3.67-.56,1.37-.75,2.12l.19,1.17c-.83-.38-3.7-2.11-3.87-1.77.67,2.28.59,2.99.18,3.24-.27.05-.52.1-.76.17-.39.04-.83.1-1.2.48-2.74,2.79-5.72,5.52-8.22,8.53-.63.76-2.23,1.32-1.96,2.7,2.25.31,1.9-1.38,2.15-1.54ZM349.09,699.94l-.19-1.17c.82.27.89.66.19,1.17ZM332.03,683.51c1.58,1.68,5.7,3.26,6.79,4.92,1.08,1.66.79,3.55,1.46,4.87.56,1.12,4.62.31,1.63,3-5.88,1.74-3.85.02-5.05-1.58-.95.18-1.89-.68-2.53-.79-2.01-.34-2.78,1.43-2.91-3.13,1.03.12,2.2,1.32,3.69.6.83-1.15-5.42-5.37-3.07-7.89ZM242.72,713.54c2.52.04,2.53,2.52,3.08,4.3,4.23.71,6.91,6.41.95,5.85-.51-1.86-.39-4.05-.95-5.85-.9-.15-3.09.82-3.51.56-.21-.13,1.22-3.52.43-4.86ZM241.1,722.19l.87,1.66c-.16.85-1.02.73-1.06.78-1.12.29-2.43.23-3.51.57l3.7-3.01ZM230.38,726.33c-.78-.98-1.45-2.09-1.74-3.32-.09-.38-.12-.78-.19-1.17.73.09,2.01.88,2.53.79-.22.96,1.23,2.77-.6,3.7ZM233.48,730.63c.1.5.4,1.3.35,1.84-.03.31-.18.54-.55.58-1.48-.83-2.39-1.83-2.32-2.56.01-.12.03-.24.1-.34.26-.41.95-.68,2.23-.69.14.19.11.76.19,1.17ZM228.88,716.08c.47-.25,1.19-.49,2.14-.65.3.43.12,1.66.38,2.34-.73,0-1.28-.05-1.76-.13-1.61-.28-1.86-.97-.76-1.56ZM216.73,730.94l.69-2.19c-.11.5-.24,1.41-.69,2.19ZM221.41,730.18c-1.48.11-1.98-1.42-2.72-1.96,1.32-1.98,2.14-4.26,2.7-3.97.25.13.45.79.62,2.23-.25,1.23-.83,2.38-.6,3.7ZM216.8,716.53c.09-.03.16-.06.24-.09.49-.09,1.6-.11,2.1-.29,2,1.41.57,3.7.76,4.68,1.59.39,2.18-1.3,2.72,1.96-.41.14-.72.21-1,.25-1.26.18-1.41-.62-1.71-2.21-.54-.13-1.92.83-2.47-.39-.26-.58-.64-3.27-.63-3.81v-.09ZM217.17,721.7c1.52-.01,2.76,2.05,1.73,4.09-.59-.95-3.02-1.52-3.31-1.86-.17-.2-.05-.76-.19-1.17.55-.76,1.18-1.05,1.76-1.06ZM216.96,724.92c.2.61-.02.92-.29,1.09-.22.14-.48.19-.61.22-.05.01-.09.02-.08.03-.79-.13-1.19-.11-1.36-.98l2.34-.37ZM206.43,726.61l1.36.98c.41.05.88-.29,1.17-.19.33.12.87-.32,1.17-.19-.31-.86-.24-2.16.79-2.53,2.99,2.69,4.97,7.53.76,4.68.62.64,3.16,2.86,2.9,3.12l-4.67.77c-.23-.63-.07-2.45-1.04-2.29l-3.81,1.87-.57-3.5c.34-.59-1.68-2.72,1.96-2.72Z"/>
        <path class="cls-2" d="M219.13,760.55c-.57,1.78,1.24,3,1.52,2.14.57-1.78-1.24-3-1.52-2.14Z"/>
        <path class="cls-2" d="M186.79,760.98c-1.78-.57-3,1.24-2.14,1.52,1.78.57,3-1.24,2.14-1.52Z"/>
        <path class="cls-2" d="M345.07,807.34c-.14-.27-.45-.61-.98-1.01.29.38.63.71.98,1.01Z"/>
        <path class="cls-2" d="M330.51,878.1c3.03-.52,7.8-1.58,8.78-5-2.38,1.81-10.15.29-8.78,5Z"/>
        <path class="cls-2" d="M312.93,888.15c1.34,2.29,3.85,3.39,6.41,2.54-1.34-2.29-3.84-3.39-6.41-2.54Z"/>
        <path class="cls-2" d="M242.67,733.5c-.87-.75-1.62-.31-2.48,1.45h.8s2.8,0,2.8,0c-.4-.68-.76-1.15-1.11-1.45Z"/>
        <path class="cls-2" d="M217.74,738.04c-.06-.05-.16-.05-.31.03-.3.15-.8.56-1.72,1.43.8-.02,1.73.55,2.53.79-.57-.92-.26-2.03-.5-2.25Z"/>
        <path class="cls-2" d="M223.15,733.5c.4-.4.66-.9.98-1.36-.35.35-1,.93-.98,1.36Z"/>
        <path class="cls-2" d="M244.56,814.02c2.95,1.39-1.28,3.23,6.41,2.56l-.16-4.76-3.16,2.87c-.28-3.55-1.78-2.83-3.66-4.18-.66-.48-2.4-1.8-2.72-1.96-.27-.14-.82.3-1.17.19-.06-.02-.07-.91-.63-1.04-.06,0-.12.02-.18.03-1.26,5.55-3.85,2.07-6.39.97-1.18-.51-2.32-1-3.31-1.86-1.6,1.79,2.18,3.36,3.56,5.09.93,1.17,2.04,4.65,2.27,4.76.43.22,2.49-1.38,4.26-1.46.44.19.96.36,1.56.51.23.53,2.23,1.28,1.74,3.31l-6.83,2.31c.14.03.24.16.33.32.4.72.35,2.43.44,2.52.96,1.06,1.02.58,2.52,2.62.21.29-.02.91.19,1.17.15.56-.24,1.08-.84,1.54-1.33,1-3.81,1.69-4.62,1.74,3.43,2.93.35,5.58.06,7.81-.11.82,5.23-.81.48,2.9.13-.03,1.27.85,2.53.79.36-.02,1.28-1.62,2-1.36.25.09,1.67,3.4,4.22,2.75-.3-1.05-.43-2.39-.57-3.51l-4.87-.42c-.4-.31.47-3.64.42-4.86,0-.15-2.59-1.55-.95-2.25,2.4-1.03,1.62.55,2.12,2.06.35,1.05.25,2.39.58,3.5l.88-.14.27-.04c-.03-.08-.03-.15-.06-.23-.44-1.61.44-3.3.48-4.63.01-.38-.17-.78-.19-1.17-.04-.78-.31-1.56-.38-2.34.33.3,1.1.39,1.36.98.34-.16.86,0,1.17-.19-.18-2.47-1.28-5.2-1.21-7.62.07-2.52,1.79-3.04,1.85-3.28.44-1.81.31-4.15.22-6.03Z"/>
        <path class="cls-2" d="M242.37,836.06s-.08.05-.1.07c-.1.16-.12.43-.11.75.08-.28.14-.55.2-.83Z"/>
        <path class="cls-2" d="M228.84,871.82c-.47.46-1.1,5.03-1.53,6.17,1.69-.65,2.35-.08,3.7.6,5.87,3,2.9,6.67,9.44-.93l-8.46-.44c-.78-1.82,1.3-.98,1.69-1.71.29-.56-1.04-1.38.08-2.17,1.48-1.04,3.13-1.4,5.47-3.28,1.47-1.19,3.91-2.02,4.11-4.25-2.39.81-4.54,1.16-6.83,2.29-2.37,1.18-2.32,1.86-3.74,3.78-.12.14-.24.3-.37.49-1.13-.42-2.36-1.1-3.56-.55Z"/>
        <path class="cls-2" d="M203.5,849.45c-3.45.87-5.14,1.1-8.37.15-2-.14-2.45.91-1.98,2.71-1.17,1.17-5.76-5.06-.73-4.67-.38-.32-2.45-4.43-4.25-4.1-1.47,2.33,1.41,9.49,2.97,10.23.58.28,10.8-2.63,12.56-3.15,1.45,2,7.07,6.91,9.68,8.03l-6.37-9.77,2.75-5.25c-1.93-2.39-4.59-3.59-7.57-2.35,1.66,2.16,1.95,4.22,2.3,6.81.01.08-1.04-.23-.98,1.36Z"/>
        <path class="cls-2" d="M242.26,807.19c1.11-.32,2.38-.25,3.51-.57l-.38-2.33c-3.86.8-8.29.49-11.5,3.05,2.74-.34,6.72-1.5,8.37-.15Z"/>
        <path class="cls-2" d="M191.09,839.44l8.55,1.02c-.72-.71-1.72-3.08-1.89-3.19-.3-.18-7.06.94-6.66,2.17Z"/>
        <path class="cls-2" d="M223.12,815.08c.44-.44.73-4.6-1.32-4.56l-2.44,3.39c-.86,2.21,2.98,1.94,3.76,1.17Z"/>
        <path class="cls-2" d="M231.46,801.14c.29-.78.34-1.47-.07-1.78-1.29-1-2.33.7-2.73,2.54-.21.98-.24,2.01,0,2.69.99-.37,2.29-2.05,2.8-3.45Z"/>
        <path class="cls-2" d="M176.01,820.3c3.13-1.64,1.06-2.32.39-4.86-3.13,1.64-1.06,2.32-.39,4.86Z"/>
        <path class="cls-2" d="M229.52,824.85c.2.36-.01.99.19,1.17l1.17-.19-.19-1.17-1.74-3.32c-.98,1.52-.08,2.31.57,3.51Z"/>
        <path class="cls-2" d="M229.93,857.16l-.19-1.15c-4.96.21-4.58,2.51.19,1.15Z"/>
        <path class="cls-2" d="M216.99,880.85l1.15-.19c-.07-1.16-.51-2.34-.55-3.5-.34,1.12-1.57,1.85-.59,3.69Z"/>
        <path class="cls-2" d="M240.71,886.61c1.78.57,3-1.24,2.14-1.52-1.78-.57-3,1.24-2.14,1.52Z"/>
        <path class="cls-2" d="M218.36,874.64l-1.15.19c.04.78.33,1.56.36,2.33.11-.37,1.78-.46.78-2.52Z"/>
        <path class="cls-2" d="M192.41,847.64l.93.67c-.34-.29-.69-.65-.93-.67Z"/>
        <path class="cls-2" d="M193.34,848.31c.15.13.29.24.43.31l-.43-.31Z"/>
        <path class="cls-2" d="M231.63,830.5l1.05-.77-.14-.04-1.1-.35c-.05.16.09,1.04.19,1.17Z"/>
        <path class="cls-2" d="M218.59,749.83c.14-.2-.07-.62-.34-.88-.14-.13-.29-.23-.43-.2-.54.12-.55.45-.36.74.25.39.87.7,1.13.33Z"/>
        <path class="cls-2" d="M197,767.69c-.1.08-.21.16-.33.21-.14.12-.23.26-.25.4,0,.04-.04.08-.03.11,0,.01,0,.01.01.03.06.23.16.34.28.4.41.19,1.01-.48.93-.94-.02-.1-.06-.19-.15-.25-.11-.08-.29-.03-.47.05Z"/>
        <path class="cls-2" d="M211.68,729.36c-.37-.38.1-1.45-1.55-2.15.51,1.4.22,1.25,1.55,2.15Z"/>
        <path class="cls-2" d="M282.79,879.82l-.78-1.06c-1.86.02-2.02.24-1.45,2.01l1.25.41c.18-.65.13-1.21.98-1.36Z"/>
        <path class="cls-2" d="M235.17,822.75c-2.79.34-4.15-.14-3.13,2.89.38-.15.87-.02,1.17-.19.73-.41,2.86-2.46,1.96-2.7Z"/>
      </g>
    </g>
  </g>
</svg>