<?xml version="1.0" encoding="UTF-8"?>
<svg id="_레이어_2" data-name="레이어 2" xmlns="http://www.w3.org/2000/svg" xmlns:xlink="http://www.w3.org/1999/xlink" viewBox="0 0 399 1000">
  <defs>
    <style>
      .cls-1 {
        fill: none;
      }

      .cls-2 {
        fill: #e6e7e8;
      }

      .cls-3 {
        clip-path: url(#clippath);
      }
    </style>
    <clipPath id="clippath">
      <rect class="cls-1" width="399" height="1000"/>
    </clipPath>
  </defs>
  <g id="Layer_1" data-name="Layer 1">
    <g class="cls-3">
      <g>
        <path class="cls-2" d="M342.2,67.97c1.14,1.63,2.3,3.25,3.48,4.86-1.14-1.68-2.3-3.32-3.48-4.86Z"/>
        <path class="cls-2" d="M233.55,99.48l.69.7c1.44-3.12,2.29-6.98,4.23-9.82,1.56-2.28,3.33-2.92,4.79-4.69,1.34-1.62.81-1.42-.58-2.33-.83.75-2.32,1.38-3.5,2.37-.6.5-1.12,1.09-1.41,1.84-.07.18.04.46,0,.7-.04.2-.03.5,0,.7h-.7c-.09.18.08.49,0,.7-.02.05-.07.15-.13.27l-.57,1.14c-.08.2.08.5,0,.7l-.7.7c-.08.2.08.5,0,.7l-.7,1.4c-.08.2.08.5,0,.7l-.7.7c-.07.21.07.49,0,.7l-.7,1.4c-.04.22.03.47,0,.7v.7Z"/>
        <path class="cls-2" d="M288.98,53.17c-.28-.28-.42-1.02-.7-1.4-.23,0-.47,0-.7,0-.23,0-.47-.02-.7,0-.77.06-1.42.4-2.1.7v.7c1.38-.11,2.82.03,4.21,0Z"/>
        <path class="cls-2" d="M257.41,67.21l-.69,2.8c1.64-.53,3.31-3.66,4.56-4.21.35-.15.58.98,1.05,1.4.36.32,1.87,1.68,2.1,1.4-.06-1.57-1.1-2.69-.59-4.4.46-1.56,4.2-4.13,4.63-4.9.49-.87.04-1.83.17-2.63h-.7c-.22.05-.49-.06-.7,0l-.28.14c-.28.17-.64.43-1.12.56-.21.06-.47-.05-.7,0-.04.42-.61.55-.7.7-.99,1.58-1.34,3.62-2.81,4.91-.48-1.41-.69-3.41-1.4-4.91-.07-.02-.76-1.25-1.35-.65-.34.34.47,1.67-.74,1.35.6-2.23-.82-2.66-2.81-2.1-.4,1.66-.36,4.12-1.09,5.58-.8,1.62-2.67,1.47-3.12,2.83,3.25,0,3.85,3.6,6.31,2.12Z"/>
        <path class="cls-2" d="M265.13,64.75c1.43.39,2.39,2.56,2.95,2.98.4.3,2.53-.62,2.6-.51.36.51.31,3.82,2.41,3.44.78-.14,11.28-10.21,9.57-11.87-2.74-1.07-3.41,1.11-4.05,1.34-1.29.47-3.08.21-4.34,1.14-1.24.92-1.31,3.02-1.44,3.12-.33.27-4.92-3.49-7.71.35Z"/>
        <path class="cls-2" d="M290.36,55.25c-.41.5-1.02-.47-2.08,2.13,1.49-.7,6.11-1.2,8.3-1.9,1.72-.55,1.77-.04,1.52-2.31-3.03.01-6.09-.07-9.12,0,.5.5,2.31.95,1.38,2.08Z"/>
        <path class="cls-2" d="M237.06,107.9c2.71-.51,1.1-2.27,4.21-3.5,3.23-1.29,1.73.66,2.41.64.54-.02,1.99-.54,3.21-.64l.7-1.4c-2.35-.61-4.51.43-6.31.69-3.14.46-1.57-.7-2.5-2.73-.53-1.17-1.54-2.6-2.41-3.58-1.12,3.84.67,6.76.71,10.52Z"/>
        <path class="cls-2" d="M253.24,76.72l3.46,5.92c-2.61,2.69.91,2.77,2.46,4.2,1.78-.7.22-2.7.34-2.79.38-.29,4.61.79,2.62-1.98-.24-.33-1.51.32-1.21-.82,2.37.96,1.82.16,2.8-.71-1.18-2.46-1.14-2.34-3.51-2.81-.25,0-.46-.02-.65-.04.23,0,.45,0,.65.04.06-.45-.09-.99,0-1.4-.44.14-1.02.66-1.4.7-2.12.21-1.88-3.92-4.91-.7-.1.11-.61.04-.65.39ZM257.41,77.73v1.4c-.12-.15-.29-.2-.5-.22-.87-.09-2.31.44-2.3-2.58,1.49-.43,2.64,1.36,2.81,1.4Z"/>
        <path class="cls-2" d="M265.13,77.03c.29-2.15,1.57-1.26-.7-3.51-3.45.37-2.59,3.92.7,3.51Z"/>
        <path class="cls-2" d="M259.51,72.82c.03.24-.06.5,0,.7l.69,1.39h0s.7.01.7.01c.3-1.02-.47-2.12,1.4-2.81-1.09-1.15-.32-1.96-1.05-2.8-.18.83-1.83,2.93-1.76,3.5Z"/>
        <path class="cls-2" d="M258.8,76.22c0,.22,0,.47.01.81.11-.25.08-.53-.01-.81Z"/>
        <path class="cls-2" d="M251.79,77.73v-2.1c-1.35.73-2.55.39-2.1,2.1h2.1Z"/>
        <path class="cls-2" d="M239.16,97.37v-2.81c-1.07.34-1.38,1.01-1.4,2.1.32.02,1.21,1,1.4.7Z"/>
        <rect class="cls-2" x="265.13" y="69.31" width="1.4" height="2.1"/>
        <path class="cls-2" d="M253.91,71.43v.68c.56-.07,1.96.14,2.09,0,.17-.17-.1-2.12,0-2.8h-.69c.11,1.35.13,2.37-1.4,2.11Z"/>
        <path class="cls-2" d="M232.15,103.69c.02.35.61.96.7,1.4,2.58.2,1.92-2-.7-1.4Z"/>
        <path class="cls-2" d="M233.55,107.9c1.51-.14,2.15-2.71.36-2.1-.19.07-.21.66-.36.7-.15.04-.56.05-.7,0,.06.23-.06.5,0,.7h.7c.03.23-.04.47,0,.7Z"/>
        <path class="cls-2" d="M258.81,73.53h-2.11c-.02.76.88,1.08,1.4,1.4-.01-.23.96-1.22.7-1.4Z"/>
        <path class="cls-2" d="M244.08,90l.69.36c-.13.25.09.97,0,1.4-2.74-.39-2.15.38-2.1,2.81-.59.04-.52-.26-2.1,0,1.24,3,2.67,5.75,6.32,4.91-1.46,3.34,1.52,2.55,3.51,4.21.23-.02.9.73,1.39.7.14-2.56,2.84-7.95,1.06-9.86-.21-.22-1.13-.14-2.45-1.37-.16.28-.4.58-.7.7l.7,3.51-4.2-.71c-.4-1.29.61-1.21.7-1.4.2-.44.87-1.22.7-1.4-.44-.1-1.05.1-1.4,0l-.23-.23c-.14-.18-.29-.4-.47-.47.5-.41,1.81-1.34,1.91-1.73.1-.4-.48-1.25-.5-1.78-.01-.23,0-.47,0-.7-.38.14-1.12.47-1.4.7l-.36-.69c-1.09-.16-1.2-.05-1.04,1.04Z"/>
        <path class="cls-2" d="M256.7,88.96c-.77-.77-2.16.63-1.4,1.4.77.77,2.16-.63,1.4-1.4Z"/>
        <path class="cls-2" d="M247.94,93.17h.05s1.7-.01,1.7-.01l-.7-1.4h-.7c-.02.26-.51.7-.64,1.03-.08.19-.04.34.3.38Z"/>
        <path class="cls-2" d="M264.42,79.84c.28-.53.44-.59.7-1.4-1.87-.12-1.6-.03-.7,1.4Z"/>
        <path class="cls-2" d="M240.57,111.4c.99.5,1.87-.44,1.4-.69-.99-.5-1.87.44-1.4.69Z"/>
        <path class="cls-2" d="M295.19,136.34c-1.44.22-2.55.98-4.44,1.07-4.37.2-11.67-2.24-15.21-1.77-2,.26-3.4,2.35-5.5,2.45.51,2.43,4.67,2.99,1.61,4.75-4.06,2.33-9.99-1.04-14.24.15l.71,2.1c-2.17.77-3.12.3-4.92,0-.98-2.02-2.14-4.17-2.81-6.31-3.05-9.78-2.27-11.84.7-21.05l-4.2-1.05c.85-1.92,2.97-1.3,3.83-1.09.2.05.34.08.36.04.02-.03.03-.1.04-.18.1-.7-.05-3.22-.04-4.03.03-1.4-.01-2.81,0-4.21l-1.4-1.4c-3.02.23-.86,3.97-4.91,2.82-.25.14.59,1,.7,1.4l2.81.35c.02.62-2.17.76-2.81,1.05-2.42,1.1-5.84,3.26-8.42,3.51.15.32-.15,1.08,0,1.4,1.92-.43,1.29,1.04,1.76,2.06,1.97,4.25,4.04,8.39,5.95,12.68.09.2-.09.51,0,.7l.7.7c.09.19-.09.51,0,.7l.7.7c.09.19-.09.51,0,.7l.7.7c.09.19-.09.51,0,.7,1.36,1.31,1.95,3.26,2.81,4.91.88,1.69,1.91,3.27,2.81,4.91,1.1,2.01,1.16,2.68,1.59,3.89.09.24.19.5.32.8.03.06.18.22.4.43,1.44,1.36,6.31,5.3,7.28,5.99.09.07.19.14.29.2,2.6,1.85,6.15,4.21,9.79,6.46,4.01,2.47,8.13,4.79,11.2,6.08,12.82,5.41,27.9,6.44,41.4,3.51,1.16-.25,2.84-1,4.21-1.4.22-.06.49.07.7,0l2.81-1.4c.21-.07.5.08.7,0,2.96-2.23,6.4-3.59,9.82-4.91,2.96-2.65,6.1-4.64,8.79-7.7.89-1.01,3.41-6.67,5.24-4.93.15.15-.67,3.47,2.11,2.1.22-.11.14-4.71-.03-4.88-.31-.31-1.93.42-2.07-.37,8.34-8.76,9.91-24.12,9.15-35.81-.4-6.18-2.57-12.29-4.24-17.86-.76-2.54-9.05-11.56-11.23-14.03-1.3-2.36-3.07-5.5-4.98-8.55-1.61-2.57-3.31-5.07-4.92-7.01-.44-.53-.87-1.02-1.29-1.46-1.09-1.13-2.89-.98-3.54-2.63-.18-.1-.52.1-.7,0l-.7-.7c-.18-.1-.51.09-.7,0-2.5-1.25-6.58-3.79-9.12-4.21-.58-.1-1.47-.03-2.1,0-.99-1.33-3.37-.54-4.91-.69-.21,1.15,1.79.94,2.8,1.4,3.47,1.56,6.6,3.64,9.82,5.61,2.79,1.71,4.46,2.86,7.02,4.91h-.7c1.14.67,2.38,1.42,3.51,2.1l-3.51-2.1c-2.34-1.37-4.96-2.37-7.02-4.21-2.08.79-4.09,1.59-6,2.74-.37.23-2.45.37-1.01,1.47.29.22,2.1-.14,2.81,0-1.8,2.37,1.22,2.9,3.15,4.22l.36-2.11c5.99-1.23,5.64,3.49,8.11,6.97,4.42,6.24,12.61,15.27,15.58,22.3,1.07,2.53,1.15,4.61,1.56,7.21-.99.77-2.38-1.94-2.78-1.05-.02.04.57.56.38.86-.21.32-1.3,0-1.14,1.21.14,1.07,1.02,1.68,1.44,2.49-1.33.18-1.11,1.75-1.4,2.1-.15.18-.53.56-.7.7,1.21,1.44-.16,1.9-.7,2.81-.27.45-.05,1.65-1.05,2.09-1.46-1.91-3.01-2.46-5.26-2.79-.17-1.3-1.73-3.21-1.41-4.91-4.41,2.46-.48,3.84.71,5.61,3.35,4.99,1.54,7.15-2.99,10.74-5.51,4.38-5.58,1.72-9.29,2.94-1.67.55-3.26,2.28-5.94,2.84-1.66.35-3.26.44-4.94.32.12-.61-.07-1.43,0-2.1-1.68.47-1.18,1.51-.69,2.81-2.63.44-5.97.4-8.69.78-5.42.76-10.18,1.03-14.57,1.69Z"/>
        <path class="cls-2" d="M368.96,105.79c-.47-1.1-1.43-1.88-2.1-2.81-2.38,2.85,1.69,6.5,2.1,2.81Z"/>
        <path class="cls-2" d="M242.67,98.78c-.54-.12-.91-.02-1.24.2-.3.2-.56.5-.86.86l2.1.35v-1.4Z"/>
        <path class="cls-2" d="M243.02,100.88c.25-.02.32-.13.31-.27-.02-.26-.38-.59-.61-.46-.02.01-.04.01-.06.03-.16.16.11.72.35.7Z"/>
        <path class="cls-2" d="M139.49,517c-.18-.85-.75-2.02-1.14-2.88,1.29-2.07-1.09-4.9-1.71-7.09-1.69.33-.32,2.95-.39,4.59-.26,5.59-1.4,11-2.36,16.49-.83,4.74-1.49,7.65-2.92,12.26l-.38-.96c-.3,1.92-.65,4.02-.98,5.94l.98-5.94c.61-3.94.55-8.07,1.96-11.88-2.21-2.42-4.39-4.74-7-6.73-.51-.39-1.84-3.15-2.56-.59-.14.51,1.33,2.79,1.51,3.85-4.22-1.18-3.31,3.23-4.06,6.6l3.09-.65c4.94,7.53-1.71,9.61-5.14,14.88-6.14,9.44-14.07,25.54-22.07,33.41-2.89,2.84-5.69,4.08-9.02,6.04-1.59-.94,1.37-4.31-.07-4.37-.07,0-.46,1.08-.97.98-.55-.11-.71-1.77-2.28-.91-1.39.77-1.74,2.31-2.63,3.32-.96-1.72-3-.57-3.64-.78-.32-.1-1.06-.42-1.34-.58-1.32,2.43-2.69.82-4.22.56-.77-.13-2.28.83-3.43-.31,1.83-3.03,1.73-5.45.97-8.72,1.68-.93,3.45-4.1,5.96-4.59-5.76-4.69-5.52,1.43-7.3,4.01-5.01,7.29-8.95,5.97-16.31,1.74-8.98-5.17-5.37-6.7-9.05-11.12-1.66-1.99-4.88-3.23-7.11-6.58-1.38-2.08-2.36-4.22-3.12-6.59.9-.16,1.92-.88,2.88-1.15-1.56-2.05-2.7-.79-4.22.57-2.02-3.37-3.79-7.95-5.78-11.46-3.98-7.01-6.93-13.37-10.22-19.02-1.08-1.85-2.72-2.95-3.87-5.5-2.64-5.87-3.26-17.19-5.82-21.78-1.45-2.6-5.06-3.38-6.33-6.2-3.05,2.01-1.56,8.01-5.63,4.77-5.39-4.29-3.99-14.23-7.93-19.41l-2.48,2.11c-2.23-2.55-2.09-4.1-2.67-6.73,2.24-2.43,4.55-5.19,7.12-7.26,11.73-9.48,14.98-9.53,29.19-10.45l-.83-6.31c3.09.13,3.39,3.37,3.56,4.65.04.31.08.5.14.52.05.01.15-.01.27-.04,1.01-.25,4.37-1.82,5.5-2.24,1.93-.72,3.84-1.55,5.76-2.29l1.16-2.68c-1.95-4.01-5.9.98-6.52-5.19-.33-.27-1.05,1.35-1.53,1.72l1.05,4.04c-.84.36-2.22-2.56-2.97-3.28-2.81-2.71-7.63-6.22-9.36-9.62-.37.38-1.56.39-1.92.76,1.63,2.39-.72,2.33-1.86,3.53-4.75,5-9.29,10.07-14.12,15.02-.22.22-.74.16-.96.38l-.58,1.34c-.22.23-.74.15-.96.38l-.58,1.34c-.22.23-.75.15-.96.38l-.58,1.34c-.21.23-.75.15-.96.38-1.06,2.57-3.4,4.43-5.2,6.5-1.84,2.12-3.44,4.39-5.2,6.5-2.16,2.59-3.05,3.04-4.46,4.29-.28.25-.58.53-.92.87-.07.07-.2.36-.37.78-1.08,2.7-3.83,11.51-4.25,13.21-.04.16-.08.34-.12.5-1.12,4.56-2.44,10.7-3.53,16.9-1.21,6.83-2.15,13.72-2.26,18.62-.45,20.48,6.3,41.67,17.64,58.55.97,1.45,2.91,3.35,4.2,5,.2.26.17.7.38.96l3.44,3.08c.21.24.16.72.38.96,4.66,2.83,8.38,6.81,12.05,10.78,5.24,2.61,9.65,5.84,15.3,7.86,1.86.66,10.98,1.06,9.59,4.5-.12.29-5.12.96-1.73,4.02.27.24,6.52-2.36,6.66-2.69.25-.59-1.62-2.41-.61-3.04,16.51,6.67,38.38.48,53.97-6.9,8.24-3.9,15.42-10.17,22.15-15.48,3.06-2.42,10.92-18.65,13.12-22.97,2.53-3.06,5.86-7.18,9-11.45,2.64-3.59,5.14-7.28,6.93-10.54.49-.88.93-1.74,1.3-2.55.96-2.11-.22-4.49,1.68-6.26.03-.3-.41-.66-.38-.96l.58-1.34c.03-.3-.41-.65-.38-.96.35-4.1,1.62-11.05.82-14.76Z"/>
        <path class="cls-2" d="M134.45,546.61c-1.61,2.44-3.2,4.91-4.76,7.39,1.68-2.47,3.29-4.95,4.76-7.39Z"/>
        <path class="cls-2" d="M47.58,416.77c3.97.9,5.81,2.98,9.01,4.02,2.95.95,2.38.33,2.87-2.06-1.48-.73-3.15-2.43-5.14-3.5-1.01-.54-2.09-.94-3.28-.94-.28,0-.6.31-.96.38-.29.06-.7.23-.96.38l-.38-.96c-.29-.03-.62.37-.96.38-.08,0-.24-.02-.44-.04l-1.86-.16c-.32,0-.64.38-.96.38l-1.34-.58c-.32,0-.64.38-.96.38l-2.3-.2c-.32,0-.64.38-.96.38l-1.34-.58c-.32.01-.64.37-.96.38l-2.3-.2c-.33.06-.63.3-.96.38l-.96.38-.59,1.32c5.05.28,10.8-.66,15.73.46Z"/>
        <path class="cls-2" d="M127.39,464.03c-.12-.32-.26-.64-.38-.96-.12-.32-.23-.66-.38-.96-.5-1.02-1.32-1.72-2.1-2.5l-.96.38c.9,1.83,1.48,3.88,2.28,5.76.23-.53,1.18-1.12,1.54-1.72Z"/>
        <path class="cls-2" d="M89.53,430.14l-4.21.57c1.62,1.96,6.81,2.55,8.23,3.96.4.39-1.03,1.33-1.35,2.2-.25.67-1.28,3.46-.78,3.63,2.12-.93,3.09-2.96,5.71-3.19,2.38-.21,7.93,3.51,9.21,3.68,1.45.2,2.52-.94,3.69-1.19l-.38-.96c-.19-.28-.18-.71-.38-.96l-.35-.31c-.38-.29-.93-.64-1.37-1.23-.19-.26-.19-.67-.38-.96-.6.18-1.08-.53-1.34-.58-2.69-.51-5.68.13-8.24-1.18,1.67-1.43,4.29-2.8,5.96-4.58-.01-.11,1.29-1.72.16-2.21-.64-.28-2.03,1.55-2.25-.29,3.38-.38,3.2-2.57,1.35-4.99-2.49.36-5.83,1.73-8.23,1.54-2.65-.21-3.45-2.85-5.56-2.74,1.75,4.46-2.84,7.22.52,9.78Z"/>
        <path class="cls-2" d="M106.8,450.02c-1.93-1.2-4.84-.15-5.06-.28-.54-.31,2.11-8.62-4.66-10.36.25,2.17-2.21,4.66-2.47,5.66-.19.71,2.21,3.13,2.11,3.29-.5.77-5.06,2.49-3.4,5.17.61.99,20.1,9.91,21.43,6.66-.02-4.33-3.37-4.07-4.03-4.82-1.35-1.51-1.96-4.1-3.92-5.32Z"/>
        <path class="cls-2" d="M67.62,442.15c.6.37,1.42,6.74,4.14,2.51.32-.5-1.26-1.89.47-2.1-.03,3.77.77,2.57,2.49,3.45,2.72-2.95,2.58-2.82,1.94-6.32-.13-.35-.23-.65-.3-.91.13.31.24.62.3.91.64-.16,1.31-.66,1.92-.76-.44-.53-1.46-1.04-1.72-1.54-1.43-2.78,4.34-4.69-1.7-7.1-.21-.08-.39-.8-.89-.68l-6.23,7.95c-5.1-2.12-3.29,2.74-4.41,5.64,1.93,2.06,3.81-1.16,4-1.04ZM75.53,431.25c1.39,1.81-.43,4.36-.4,4.6l-1.92.76c.14-.24.12-.51.03-.81-.36-1.24-1.86-2.92,2.29-4.56Z"/>
        <path class="cls-2" d="M130.8,478.23c-1.66-4.14-3.21-8.38-4.94-12.48-.42.96-.05,3.67-2.1,3.02-.9-.29.1-1.65-4.05-1.7,1.76,1.66,4.96,7.71,7.1,10.33,1.69,2.06,1.02,2.4,3.98.83Z"/>
        <path class="cls-2" d="M33.24,422.93c1.31-1.37,2.72-3.52,3.6-5.24-5.86.55-8.89,4.58-14.02,6.67,2.17,3.43,3.7.28,7.08,3.86,3.52,3.73.03,2.72.43,3.64.32.74,1.82,2.43,2.62,4.04l2.29.2c-.43-3.54-3.03-5.94-4.37-8.27-2.34-4.04.11-2.54,2.38-4.9Z"/>
        <path class="cls-2" d="M80.28,446.03c3.09-.77,2.57,1.47,4.42-2.86-2.38-4.52-6.77-1.42-4.42,2.86Z"/>
        <path class="cls-2" d="M54.06,427.53c-.4-.45-1.25-1.28-1.72-1.54l.76-.87c-.37-1.58-.58-1.67-1.98-.86l-.11,1.14c-.42-.05-1.28.66-1.92.76-.95-3.95-1.68-2.73-4.98-1.36-.37-.79.07-.86-1.14-2.88-3.43,3.32-6.42,6.78-3.3,11.31-5.37-.19-2.67,3.46-3.86,7.08.15.3-.5,1.63-.21,2.29,3.58-1.19,12.42-.41,14.07-3.9.19-.41-.42-1.62.54-4.1-.47-.07-1.01-.24-1.34-.58l-4.42,2.85-1.31-6.13c1.55-1.24,2,.18,2.29.2.71.03,2.14.53,2.29.2-.1-.66-.71-1.38-.75-1.93l.19-.44c.17-.28.39-.62.39-.9.84.47,2.81,1.75,3.4,1.67.6-.08,1.44-1.33,2.16-1.65.31-.14.64-.25.96-.38Z"/>
        <path class="cls-2" d="M85.48,439.53c.98-2.11,2.52-1.5,3.27-2.95-1.23.21-5.01-.92-5.75-.51-.31.17-.72.2-.96.38l-1.52,1.7-.02.02.38.96c1.56-.14,2.65-1.79,4.6.4Z"/>
        <path class="cls-2" d="M76.85,437.39c.4.02.77-.18,1.1-.46-.3.1-.65.25-1.1.46Z"/>
        <path class="cls-2" d="M74.97,427.02c-1.73-1.45-1.92-3.28-4.01-1.73l1.14,2.87,2.87-1.14Z"/>
        <path class="cls-2" d="M38.35,421.52l3.84-1.51c-1.05-1.29-2.13-1.35-3.64-.78.14.46-.71,2.19-.2,2.29Z"/>
        <rect class="cls-2" x="88.23" y="442.35" width="3.09" height="2.05" transform="translate(-156.96 64.22) rotate(-21.61)"/>
        <path class="cls-2" d="M85.88,429.36l-.37-.94c-1.78.88-3.18,1.46-3.65-.78l-.94.37c.4.74.87,2.76,1.13,2.87.33.14,2.86-1.28,3.83-1.52Z"/>
        <path class="cls-2" d="M25.91,415.35c-.47.22-.99,1.35-1.54,1.72,1.12,3.65,3.78,1.55,1.54-1.72Z"/>
        <path class="cls-2" d="M23.98,418.91c-.19-.23-1.01.07-1.15-.11-.13-.18-.37-.75-.38-.96-.28.2-.72.18-.96.38l.38.96c-.3.16-.67.21-.96.38,1.02,1.99,4.87,1.48,3.07-.65Z"/>
        <path class="cls-2" d="M81.65,435.49l-1.13-2.89c-1.06.38-1.02,1.79-1.16,2.68.31-.14,2.18.65,2.29.21Z"/>
        <path class="cls-2" d="M56.71,439.82c-.63,1.46,2.03,2.62,2.67,1.15.63-1.46-2.03-2.62-2.67-1.15Z"/>
        <path class="cls-2" d="M48.87,431.26l.03.07.93,2.32,1.53-1.72-.38-.96c-.36.11-1.24-.32-1.75-.33-.31,0-.49.13-.36.61Z"/>
        <path class="cls-2" d="M76.05,446.59c.87.1,1.04.28,2.3.2-.85-2.63-.82-2.2-2.3-.2Z"/>
        <path class="cls-2" d="M21.62,432.6c.16-1.62-1.62-2.32-1.7-1.54-.16,1.62,1.62,2.32,1.7,1.54Z"/>
        <path class="cls-2" d="M97.19,603.74c1.26-1.25,1.8-2.97,2.7-4.4-5.19-1.72-7.97,5.84-2.7,4.4Z"/>
        <path class="cls-2" d="M37.39,425.5c-.43-.3-.99-.49-1.64-.71l.66,3.06.09-.04,1.82-.73c-.13-.8-.46-1.26-.94-1.59Z"/>
        <path class="cls-2" d="M35.65,428.71c.16.33.36.37.54.28.35-.17.6-.84.3-1.08-.02-.02-.03-.05-.07-.06-.3-.13-.92.54-.77.86Z"/>
        <path class="cls-2" d="M319.52,891.12c-3.6.51-7.2,1.07-10.8,1.66,3.68-.47,7.32-1.02,10.8-1.66Z"/>
        <path class="cls-2" d="M367.63,696.91c-.26-.3-.88-.28-1.15-.58l-1.71-2.31c-.27-.3-.88-.28-1.15-.58l-.57-1.73c-.28-.29-.87-.29-1.15-.58l-1.71-2.31c-.33-.26-.8-.34-1.15-.58l-1.15-.58-1.71.54c3.9,4.93,9.51,9.51,12.54,15.02,2.44,4.43,2.01,7.86,3.69,11.7,1.54,3.53,1.65,2.49,4.29.98-.54-1.97-.34-4.93-.98-7.67-.32-1.39-.85-2.72-1.83-3.83-.23-.26-.78-.31-1.15-.58-.29-.22-.8-.46-1.15-.58l.58-1.15c-.21-.29-.86-.27-1.15-.58-.07-.07-.18-.24-.32-.44l-1.39-1.87c-.26-.3-.88-.28-1.15-.58l-.57-1.73Z"/>
        <path class="cls-2" d="M387.69,816.46c.69-.22,2.01.17,2.87.01.2-.38.38-.77.58-1.15.2-.37.42-.76.58-1.15.54-1.31.51-2.65.59-4.02l-1.15-.58c-.95,2.35-2.38,4.58-3.48,6.87Z"/>
        <path class="cls-2" d="M345.89,680.15l-.58,1.15c-.4-.15-.74-.45-1.15-.58-1.01,2.59,2.64,5.76,3.13,2.32.05-.37-.9-.88-.84-1.16.06-.27.39-.96.58-1.15-.42-.1-.76-.52-1.15-.58Z"/>
        <path class="cls-2" d="M401.59,752.18c-1.99-2.65-.19-5.57-2.04-7.43-2.7,5.31-9.06,3.3-8.67,8.55l-4-3.45c-.49,3.12,3.24,8.44,3.1,10.92-.04.7-2.08.14-3.15.55-.83.32-4.28,1.66-4.02,2.27,2.62,1.21,5.3.44,7.68,2.68,2.16,2.04,3.27,10.27,4.17,11.61,1.01,1.52,2.95,1.58,4.14,2.46l.58-1.15c.11-.4.51-.75.58-1.15v-.58c-.04-.59-.17-1.4.01-2.29.08-.39.47-.73.58-1.15-.66-.41-.4-1.45-.57-1.73-1.75-2.92-4.8-5.17-5.7-8.64,2.71.38,6.14,1.68,9.18,1.77.09-.1,2.67-.22,2.18-1.67-.28-.83-3.12-.6-1.59-2.33,3.14,2.82,5.02.86,5.76-2.86-2.39-2.02-6.42-4-8.22-6.39Z"/>
        <path class="cls-2" d="M383.74,801.5c4.01-3.59,1.01-6.49,1.16-7.72.3-2.5,2.21-5.2,1.72-8.03-.48-2.78-3.84-4.63-3.91-4.94-.16-.76,9.77-5.14,5.8-12.87-1.81,2.01-6.16,1.78-7.3,2.36-.82.41-1.09,4.64-1.33,4.67-1.13.17-6.49-2.65-7.61,1.1-.42,1.39,7.35,26.87,11.47,25.43Z"/>
        <path class="cls-2" d="M371.38,749.19c.22-.41.41-.74.6-1.02-.18.38-.37.73-.6,1.02.68.47,1.7.67,2.29,1.16.13-.84-.24-2.22.01-2.87,1.41-3.62,7.95.17,5.21-7.44-.09-.26.43-1.03-.1-1.39l-12.53.76c-2.23-6.49-5.27-.8-8.88.54-.33,3.49,4.22,2.59,4.27,2.87.15.87-5.1,6.88,1.07,5.92.73-.11.72-2.74,2.34-1.29-3.53,3.08-1.76,2.84-1.16,5.16,4.99.1,4.76.08,7.48-3.41ZM372.19,742.81c.86-1.36,1.19-4.14,6.13-1.63-.54,2.79-4.41,3.19-4.61,3.42l-2.29-1.16c.34-.07.57-.31.78-.64Z"/>
        <path class="cls-2" d="M383.15,817c-.47-1.07,1.62-1.27-1.76-5.16-.09,3.01-3.09,10.98-3.76,15.12-.53,3.27-1.39,2.93,2.51,4.4,2.49-4.96,5.15-9.89,7.54-14.89-1.23.4-3.46,2.98-4.54.54Z"/>
        <path class="cls-2" d="M368.46,757.79c3.27,2.24.76,3.6,6.31,1.76,2.25-5.94-4.26-7.47-6.31-1.76Z"/>
        <path class="cls-2" d="M340.47,699.61c-.43.9-.76,3.69-1.6,5.77l1.7,2.3c2.94-3.32,3.03-7.72,4.09-10.88,1.83-5.51,2.45-1.99,6.53-1.82,2.35.09,5.52-.37,7.84-.97-5.34-5-11.59-4.5-17.76-7.55-1.4,4.85,2.79,3.67,2.24,9.77-.57,6.34-2.51,2.27-3.04,3.4Z"/>
        <path class="cls-2" d="M379.98,752.1c-.42-.15-.78-.51-1.15-.58h-2.84s-.03-.01-.03-.01l-.58,1.15c1.41,1.33,3.85.99,3.42,4.61,2.77-.82,3.47,1.11,5.44.6-1.21-.98-3.27-5.42-4.27-5.77Z"/>
        <path class="cls-2" d="M373.69,747.48c.31.39.8.57,1.34.65-.34-.19-.77-.4-1.34-.65Z"/>
        <path class="cls-2" d="M353.56,863.94c-5.41,4.37-11.4,7.77-17.29,11.4-5.09,3.14-8.35,4.92-13.82,7.39l.58-1.15c-2.03,1.31-4.28,2.71-6.34,3.99l6.34-3.99c4.17-2.68,7.97-6.14,12.67-7.97.43-4.05.79-8,.5-12.07-.06-.8,1.42-4.31-1.56-2.87-.6.29-1.5,3.54-2.34,4.57-2.38-4.9-5.74-.41-9.49,1.66l3.15,2.34c-2.94,10.8-10.36,6.33-18.08,7.48-13.84,2.07-35.37,7.96-49.29,7-5.02-.35-8.49-1.93-13.06-3.41-.44-2.25,5.14-2.28,4-3.67-.05-.07-1.39.46-1.71-.09-.35-.6,1.06-2.12-1.03-2.87-1.86-.67-3.59.28-5.26.29.81-2.31-1.94-3.27-2.28-4.03-.17-.39-.48-1.32-.57-1.73-3.35.77-2.97-1.83-4-3.47-.52-.82-2.65-1.44-2.54-3.45,4.33-.8,6.5-2.88,8.91-6.28,2.25.8,6.66-.17,9.18,1.76-.38-9.23-5.88-3.96-9.75-3.48-10.91,1.34-12.94-3.4-15.06-13.75-2.6-12.62,1.8-10.52,2.89-17.59.49-3.19-1.02-7.21.27-12.05.8-3,1.98-5.68,3.56-8.33.89.71,2.4,1.07,3.44,1.73.62-3.14-1.49-3.17-4.01-3.45,1.47-4.66,4.28-10.08,5.9-14.83,3.24-9.49,6.73-17.47,9.28-25.19.84-2.53.51-4.97,1.93-8.13,3.28-7.3,13.31-17.2,15.47-23.37,1.23-3.49-1.02-7.5.56-11-4.39-1.18-8.75,5.15-9.09-1.31-.45-8.56,9.95-15.45,11.52-23.38l-4.01-.57c.53-4.18,2.09-5.33,4.06-8.03,4.11.08,8.58-.04,12.63.64,18.49,3.1,21.22,6.08,33.79,18.55l5.19-5.98c2.42,2.98-.34,5.93-1.39,7.15-.25.29-.4.49-.36.56.03.05.14.13.26.21,1.06.73,5.29,2.57,6.62,3.28,2.26,1.21,4.61,2.3,6.89,3.48l3.45-1.13c2.13-5.12-5.78-4.68-.54-10.34-.02-.53-2.12.14-2.86,0l-2.9,4.3c-1.03-.49.55-4.18.61-5.46.2-4.85-.5-12.22,1.23-16.65-.65-.03-1.65-1.14-2.29-1.16-.89,3.48-2.76,1.25-4.82,1.18-8.57-.3-17.04-.34-25.62-.76-.39-.02-.76-.56-1.15-.58l-1.73.57c-.39-.02-.76-.56-1.15-.58l-1.73.57c-.39-.02-.76-.57-1.15-.58l-1.73.57c-.39-.01-.76-.57-1.15-.58-3.26,1.13-6.93.49-10.34.52-3.49.04-6.92.42-10.34.52-4.19.13-5.34-.33-7.66-.61-.47-.06-.97-.11-1.57-.14-.13,0-.5.11-1.03.3-3.41,1.22-13.87,5.93-15.8,6.93-.18.09-.38.2-.57.3-5.17,2.72-11.96,6.55-18.65,10.65-7.35,4.5-14.54,9.31-19.19,13.25-19.43,16.46-33.59,40.22-39.95,64.69-.55,2.1-.71,5.47-1.19,8.03-.07.4-.51.74-.58,1.15l-.03,5.74c-.05.4-.54.75-.58,1.15,1.2,6.67.57,13.42-.1,20.1,1.88,7.03,2.52,13.8,5.3,20.72.92,2.28,8.07,11.09,3.72,12.63-.36.13-5.11-3.97-5.17,1.71,0,.45,7.57,4.12,7.99,3.98.75-.25.91-3.49,2.32-3.07,7.4,20.86,31.19,36.12,50.91,44.55,10.43,4.46,22.18,5.97,32.67,7.85,4.77.86,26.36-5.22,32.19-6.73,4.94-.17,11.51-.47,18.08-1.07,5.52-.5,11.02-1.22,15.52-2.24,1.22-.28,2.39-.57,3.44-.9,2.76-.85,4-3.91,7.21-3.6.31-.22.27-.92.58-1.15l1.73-.57c.31-.22.27-.92.58-1.15,4.1-3.05,11.62-7.6,14.41-11.41.64-.87,1.26-2.37,1.74-3.44,2.99-.51,3.66-5.06,5.19-7.44-1.7-1.3-3.01,2.14-4.6,3.42Z"/>
        <path class="cls-2" d="M380.08,732.01l-1.73,3.42,3.43,1.73c-.08-2.8,1.47-4.48-1.7-5.16Z"/>
        <path class="cls-2" d="M356.72,698.57l4.58,2.33c.33-2.03-.5-3.09-2.28-4.03-.31.51-2.62,1.14-2.3,1.7Z"/>
        <rect class="cls-2" x="377.49" y="762.52" width="2.55" height="3.84" transform="translate(-474.33 756.96) rotate(-63.14)"/>
        <path class="cls-2" d="M388.61,749.26l.57-1.12c-2.29-.93-3.98-1.75-2.29-4.04l-1.11-.57c-.36.98-1.85,3.08-1.74,3.42.14.42,3.55,1.6,4.58,2.31Z"/>
        <path class="cls-2" d="M352.2,681.9c-.6-.26-2.07.2-2.87-.01-2.47,4.05,1.67,4.79,2.87.01Z"/>
        <path class="cls-2" d="M379.4,750.37l1.75-3.43c-1.23-.67-2.5.53-3.45,1.13.39.17,1.19,2.57,1.7,2.3Z"/>
        <path class="cls-2" d="M364.68,712.7l-1.16.84c-.3-.43-1.66-.65-2.29-1.16,2.89-4.15,1.16-3.82-2.84-5.76.43-.99.86-.64,1.74-3.44-5.92-.45-11.6-.39-13.25,6.25-4.25-5.15-5.42.37-9.77,2.24-.16.39-1.93.87-2.3,1.7,4.06,2.35,10.62,11.22,15.23,9.88.54-.16,1.16-1.73,4.26-2.88-.33-.5-.61-1.13-.57-1.73l-6.3-1.77,4.62-6.27c2.44.42,1.47,2.01,1.71,2.29.56.68,1.28,2.43,1.7,2.3.53-.64.7-1.8,1.17-2.29l.56-.18c.4-.08.89-.15,1.16-.38.25,1.16.69,4.06,1.25,4.54.57.49,2.43.25,3.32.65.39.18.76.39,1.15.58.09-.74.16-2.22.01-2.87h1.43c1.17-1.65,1.07-1.93-.84-2.56Z"/>
        <path class="cls-2" d="M354.82,730.74c-1.88.62-.76,4.05,1.12,3.43,1.88-.62.76-4.05-1.12-3.43Z"/>
        <path class="cls-2" d="M358.33,718.11c-.4-.25-.73-1.41-1.14-1.9-.25-.29-.53-.35-.87.17l-.04.09-1.39,2.78h2.86s.58-1.14.58-1.14Z"/>
        <path class="cls-2" d="M364.46,754.32c.62.9.6,1.21,1.71,2.31,1.74-2.96,1.37-2.58-1.71-2.31Z"/>
        <path class="cls-2" d="M332.65,689.28c-1.64,1.19-.82,3.42-.03,2.85,1.64-1.19.82-3.42.03-2.85Z"/>
        <path class="cls-2" d="M235.64,903.54c2.19.14,4.25-.78,6.32-1.12-2.68-6.24-12.01-2.61-6.32,1.12Z"/>
        <path class="cls-2" d="M349.23,701.98l.11.06,2.18,1.1c.64-.78.79-1.47.7-2.18-.08-.65-.36-1.32-.69-2.11l-2.3,3.14Z"/>
        <path class="cls-2" d="M347.79,701.98c-.18.42-.05.64.18.73.44.19,1.28-.13,1.26-.62,0-.04.02-.07,0-.11-.13-.39-1.26-.42-1.44,0Z"/>
      </g>
    </g>
  </g>
</svg>