<?xml version="1.0" encoding="UTF-8"?>
<svg id="_레이어_2" data-name="레이어 2" xmlns="http://www.w3.org/2000/svg" xmlns:xlink="http://www.w3.org/1999/xlink" viewBox="0 0 399 1000">
  <defs>
    <style>
      .cls-1 {
        fill: none;
      }

      .cls-2 {
        fill: #e6e7e8;
      }

      .cls-3 {
        clip-path: url(#clippath);
      }
    </style>
    <clipPath id="clippath">
      <rect class="cls-1" width="399" height="1000"/>
    </clipPath>
  </defs>
  <g id="Layer_1" data-name="Layer 1">
    <g class="cls-3">
      <g>
        <path class="cls-2" d="M302.75,177.2c-.12-.19-.23-.38-.35-.55.1.22.21.42.35.55Z"/>
        <path class="cls-2" d="M259.11,112.66c-.1.17-2.25.89-2.45,2.77l1.83-.32.62,3.08c.35-.44.81-.86,1.23-1.23.72-.64,1.05-.79,1.84-1.23.98-.55,4.64-2.27,5.53-2.46.35-.07.83.03,1.23,0,.1.69-.53.54-.61.61-.84.68-3.44,1.71-3.61,1.97-.3.46,1.03,1.68-.69,2.95-.73.54-2.13.46-3.07,0-1.54.58-1.69,1.63,0,1.84-.25.84-.53.62-1.23.61-.07-.45-.17-.79-.31-1.03-.33-.6-.86-.55-1.54.42-1.47,3.67-.76,2.24.81,5.55.22.46-.25,1.18-.2,1.21.12.06,2.66.03,2.79-.03.11-.05-.31-.98-.19-1.08.12-.11,2.3-1.04,2.93-1.34l-.61-2.46c1.01.64,1.93.91,3.07,1.23,5.14,1.45,1.9-.18,3.01-1.56,1.06-1.31,2-.27,2.43-.43.17-.07.38-.85.71-1.08.81-.59.84-.66,1.84-1.23,1.44-.82,2.82-1.68,4.3-2.46,1.43-.75,1.93-1.13,3.07-1.84.9-.56,1.25-.89,2.46-.61,1.58-.89,3.31-1.63,4.92-2.46.54-.28,1.04-1.12,1.87-1.49.38-.17,4.7-1.75,4.89-1.58.83.77-1.86,1.75-1.36,2.9-1.42.43-2.81.79-4.17,1.4-.84.38-1.34,1.35-2.24,1.64-.83.27-3.09-.28-3.78.34-.27.24-.15,1.38-.74,2-.63.68-2.39,1.03-3.33,1.63-.62.39-1.93,3.81-2.2.54-.11-.02-.46-.66-.84-.55-1.81.49-.38,1.97-.39,2.4,0,.93-.45.9-.61,1.23-.17.33-.71.64-.61,1.23-.66-.01-1.9.77-3.07,0,1.15,2.74.57,4.29,3.68,3.07.69,3.82-2.59.22-3.48,2.11-.05.1.42.32.41.34.59.07,1.28-.1,1.84,0-.01.09-.02.16-.02.25-.11.41-.57.85-.59.98-.02.17-.04.51,0,.61.54.17.84.06,1-.14.29-.37.17-1.04.23-1.08.14-.1,1.37.02,1.84,0,.73-.02,2.01.53,3.07,0v.6c-.38.08-.95-.1-1.23,0,.88.62.17,4.12,0,4.3-1.13,1.18-.74-.46-1-1.15-.2,0-.48-.02-.84-.08-.1.45-.43,1.31-.61,1.84.27.38.67.72.62,1.22,1.1.25.39-1,.61-1.22,1.05-1.04,1.47,2.71,3.07.61.29.4.85,1.54.61,1.84-.04.05-.67.48-1.19.82-.33.22-.61.4-.66.41.21.24.82.69,1.09,1,.08.09.14.17.14.23-.04.37-.03.85,0,1.23h-.61c-.04.19.03.42,0,.61v.61c2.47,3.69,1.39,4.24,4.92,7.38.24.21.37.91.61,1.23,1.87-.55,6.01,1.58,4.86,4.25-.71.37-1.74.36-2.4.67-1.24.59-1.04.8-1.73,1.19-.35.2-1.26-.12-1.8.19-1.81,1.06-3.66,10.31-3.86,12.54-.12,1.32,1.45.58,1.23,1.14-.73,1.43-2.16,1.58-3.07,2.15-1.01.64-1.94,1.41-3.07,1.84.1.22.52.41.61.61,1.54,0,4.03-2.71,3.69,0-.53,1.25-1.12,2.47-2.46,3.07.3.65.39,1.34.61,1.84h4.3s-1.22,2.77-1.22,2.77l3.07.3c.66-.45,4.08-3.23,4.29-3.07-.03,2.28,2.26,2.4,3.09,3.07-.73,1.61-.5,2.22,0,3.69.56.09,1.38-.14,1.84,0-.18-.14-.31-.33-.43-.52.14.15.28.32.43.52,1.4.42,2.58,1.71,3.07,3.07.59,1.63.09,2.13-.62,3.68l1.85.31-1.84,2.16c.65,1.41,1.13,3.51,2.45,4.3,1-3.85.31-7.81.62-11.68.36-4.47.84-9.04,1.23-13.52.22-2.53.99-1.68,1.23-2.46-1.67-1.45-2.7-4.56-3.69-6.76-.48-1.07-3.09-5.44-2.45-6.15,3.66.72,1.88,1.21,2.48,3.34.28,1,.87,1.73,1.2,2.81.13.45-.07,1.21,0,1.77,0,.02,0,.05,0,.07l.03-.02,1.19-.61c-.98,2.79,1.97,3.15,1.23,5.54.1.09,1.07-.27,1.25.42.21.83-.66,2.55-.63,3.27,0,.21-.05.46,0,.61,1.9-.28,3.22-1.64,4.92-2.46.17-.08.45.08.61,0l.46.76-2.3,1.69h4.3c.21-.4.41-.81.61-1.22l-1.84-1.84c1.25-.56,2.44-1.27,3.69-1.84.2-.41.41-.82.61-1.23-2.36-.64-4.97,2.54-6.76,1.23.48-2,1.23-2.11,1.25-2.26.21-1.16-.72-2.27-.67-2.94.03-.45,2.31.24.04-2.79h2.46s-1.84-2.46-1.84-2.46c2.11.48,5.51-1.82,7.11-1.81.55,0-.16,1.51.87,1.19-.35-1.83,1.38-.92,1.97-1.27.74-.44.54-1.48,1.73-1.18,3.94-7.96,7.72-16.03,11.68-23.97l10.31-24.41,2.6-.79c2.32-4.68,4.47-9.46,6.76-14.14.45-1.47-1.45-.86-1.17-2.04.68-2.87,4.96-7.99,5.21-10.83.12-1.35-2.23-1.95-1.55-3.08.03-.05.83.07,1.19-.47,1.87-2.8,1.84-4.9,2.95-7.38,1.14-2.57,3.88-9.47,5.37-11.22,1.26-1.48,1.89,2.02,2.75.6-1.26-2.54-3.37-5.52-4.92-7.99-4.13-.06-8.14,3.15-11.52,4.15-3.19.95-7.05.45-10.36,1.91-1.27.56-2.51,3.59-3.93.7-4.68,2.86-7.38,5.55-11.22,8.13-6.91,4.64-17.34,8.48-24.85,12.66-13.52,7.51-26.82,15.62-40.14,23.47-.03,1.61.72,1.75,1.23,2.46.91-1.57,3.92-3.11,3.69-.61,2.92.03,1.66-2.97,1.84-3.07.75-.39,5.46.25,4.92,2.45-3.3-1.47-4.66,4.9-7.37,1.23-.58.45-1.25.8-1.84,1.23.04.17-.02.4,0,.61.2,2.03-.61,2.85-1.24,4.57l-1.22-.88ZM276.94,128.02c-.06-.03.09-.32.19-.62.18.21.29.4.33.58-.23.07-.41.1-.52.04ZM290.15,164.91v-.61c.4.2.4.41,0,.61ZM286.77,142.78v.61c-.56.14-.67,1.71-.61-1.23.48-.16.5.6.61.61ZM283.7,145.85c2.43-.73,2.8,2.17.61,1.84-.35-.58-.5-1.18-.61-1.84ZM285.54,129.87l.61.61c-.65,1.53-1.5,3.56-3.07,4.3-.06-2.03,1.46-3.39,2.45-4.92ZM282.52,145.23h-.04s-.01-.05-.02-.08c.02.03.04.05.06.08ZM290.46,124.96s.04-.04.06-.06c.31-.38,1.16-2.35,1.78-.24.26.9-.51.8-.61.91l-1.23-.61ZM339.64,74.55v-1.22s1.84,0,1.84,0c-.21.89-.99,1.41-1.84,1.22ZM341.48,87.46v-1.22c.85-.19,1.63.33,1.84,1.22h-1.84ZM343.94,77.32c-.08-.54,1.18-.35,1.22-.3.7.71-.26,1.98-1.22.3ZM344.55,84.38c.45-1.14,1.98-1.9,3.07-1.83-.5,1.29-1.69,2.06-3.07,1.83ZM347.63,99.75c-.42-.21.36-1.04,1.22-.6.42.21-.36,1.04-1.22.6ZM347.63,85.61c-.42-.21.36-1.04,1.22-.6.42.21-.36,1.04-1.22.6ZM349.46,81.93c.09.09.05,1.86.62,2.45-1.67,1.43-2.48-4.36-.62-2.45ZM347.01,67.79c.33.32,1.2.56,1.84,1.23.96,1.01,1.55,1.11,1.23,3.08l1.83-.62c.17,2.84-.06,6.64-3.68,4.91l1.21-.64c.13-.49-.6-.54-.6-.59-.61-.02-1.23.03-1.84,0-.41-.02-.82.02-1.23,0,.4-1.58,1.14-.59,1.23-.61.56-.14,1.14-.62,1.84-.61-.11-.4-.47-.82-.61-1.23-.18-.02-.44-.03-.61,0-.1.02-.13.77-.61.61-.08-.37.1-1.08,0-1.23-.06-.05-.11-.1-.17-.15-.45-.36-1.6-1.15-1.67-1.07l.31,1.83c-2.81-.91-.13-1.6-1.85-3.04-.31.12-.69.58-.92.6-.61.05-1.24-.02-1.84,0,0-1.07,1.58-.98,1.84-1.22.18-.17-.34-1.32.31-1.24.46,1.64,1.18,1.35,2.77,1.24-.07-.3.18-.82-.08-1.13-.3-.35-4.88-.96-3.01-2.27,3.15-2.21,3.17,1.03,4.32,2.16ZM343.33,64.41c-1.56,1.34-2.11-2.38-2.46-2.77l.61-.61c.61.42,3.45,2.51,1.85,3.38ZM276.94,109.58c-.42-.21.36-1.04,1.22-.6.42.21-.36,1.04-1.22.6ZM285.54,111.43s-1.3.23-1.22-.3c.96-1.68,1.92-.41,1.22.3ZM291.7,96.68c.21-.42,1.04.36.6,1.22-.21.42-1.04-.36-.6-1.22ZM292.91,103.44c-.21.42-1.04-.36-.6-1.22.21-.42,1.04.36.6,1.22ZM295.99,102.82c-1.07.1-1.43.2-1.22-.91.16-.43.57-.28.61-.31-.32-3.5,2.69-.58,1.22-3.07,2.7,0,.99,1.7,0,2.45-.21.16-.37.44-.61.61-.13.1-.49-.1-.61,0,.03.31.86,1.04.61,1.22ZM307.67,103.44c-.16,3.83-5.91,3.74-8.6,5.53-.22.15-.81,1.6-1.22,1.23-.08-.36.11-1.07,0-1.23-.47-.61-1.68-.42-1.23-1.84.56-.11,1.41.15,1.84,0,3.07-1.04,6.13-2.64,9.22-3.68ZM302.76,97.91c.06-.07,1.7.62,1.75.7.17.22.15,1.68.08,1.76-.91,1.04-2.24-1.95-1.83-2.46ZM294.77,134.17c.06-1.1,2.33-1.25,3.07-1.22-.83-2.75,2.57-1.89,4.92-1.84,2.24.05.97-.74,2.02-.55,2.08.37,5.3,1.91,7.2,3.01,1.22.7,1.45.66,2.46,1.84-1.03,1.57-2.25-.08-3.07-.61-.36-.24-.65-.95-1.23-1.23v1.84c-.69-.28-3.09-1.1-3.69-1.23-3.57-.76-7.95.5-11.68,0ZM305.21,140.32c2.57.59,2.35-.67,3.69,3.07-1.86-.29-1.6-1.69-3.69-2.45v-.61ZM315.25,154.97c-1.08,8.12-8.34,4.35-10.52,5.81-.23.15-.09.92-.18.99-1.21.88-1.21-.9-1.83-1.41-1.19-1-2.35-1.43-3.29-2.89-1.23-1.89-2.86-7.82-1.4-9.59,5.37-6.53,18.61-3.28,17.23,7.1ZM322.42,88.68c.33-1.22,1.31-1.38,2.46-1.22-.33,1.22-1.31,1.38-2.46,1.22ZM331.64,85c-.77.41-2.14-.98-1.84-1.22.77-.41,2.14.98,1.84,1.22ZM335.02,83.16c.4.2.4.41,0,.61v-.61ZM334.41,81.93c.4.2.4.41,0,.61v-.61ZM332.88,73.33c.21-.42,1.04.36.6,1.22-.21.42-1.04-.36-.6-1.22ZM332.26,70.87c.58.44-2.95,1.98-3.07,1.84-1.02-1.2,1.92-1.99,3.07-1.84ZM328.57,88.69s-1.3.23-1.22-.3c.96-1.68,1.92-.41,1.22.3ZM327.96,84.39c.15.11-.85,1.22-.66,1.83l-6.1-.3c1.49-.06,5.54-2.38,6.76-1.53ZM320.59,79.47c.34.27,1.7.61,1.76.68.16.21.34,1.72-.23,1.77-.74-.8-1.78-1.28-1.53-2.46ZM323.03,97.3v1.22s-2.45,0-2.45,0c-.74-.34,2.11-1.56,2.45-1.22ZM318.12,88.08c.67.67-.55,1.89-1.22,1.22-.67-.67.55-1.89,1.22-1.22ZM313.21,90.53l2.45.62c.56.32-3.38,2.91-2.45-.62ZM314.43,94.22s-1.3.23-1.22-.3c.96-1.68,1.92-.41,1.22.3ZM316.89,92.38c.67.67-.55,1.89-1.22,1.22-.67-.67.55-1.89,1.22-1.22ZM316.89,81.93v.6s-1.83.62-1.83.62c-.3-1.61.35-1.29,1.83-1.22ZM313.81,88.08c.67.67-.55,1.89-1.22,1.22s.55-1.89,1.22-1.22ZM311.98,83.78c.21-.42,1.04.36.6,1.22-.21.42-1.04-.36-.6-1.22ZM315.05,99.42c.62-.34,1.77-.21,1.84-.28.14-.12-.13-1.12,0-1.22,1.31-1.05,1.44,1.29,1.22,2.45-.5.16-.54-.6-.61-.61-2.43-.5-1.66,1.04-2.74,1.87l-4.64,2.42c.49-2.87,2.59-3.37,4.92-4.63ZM308.9,94.83c-.1-.08.88-1.74.62-2.45h.6c1,1.29-.19,3.24-1.22,2.45ZM309.82,83.15c1.14.76-.09,1.03-.3,1.24-.58.58-1.21,1.12-1.23,0,0-.59.85-1.37,1.53-1.24ZM304.92,85.61c.48.22.21,1.18.3,1.24.19,0,.34.03.48.07.76-.07,1.84-.54,1.36,1.78-.62-.23-1.17-.48-1.84-.61-.51-.1-1.64.15-1.85,0-.13-.1.31-2.59,1.55-2.46ZM304.33,95.49c1.2-.99,0-1.98,2.73-1.89.18-.05.3-.04.39,0,.28,0,.56,0,.84,0l-1.23,1.22c.26.53,1.78.42,1.22,1.84-.59.23-1.14-.61-1.22-.61-.2,0-.41,0-.61,0-.09,0-.41.64-.88.66-.74.02.14-1.54-.96-1.27v1.84s3.07,0,3.07,0c-.93,2.49-3.17-.01-4.92-.62-.24.17-.41.42-.61.61-.34.33-1.21.58-1.22,1-.02.72.82,1.76.6,2.68l-.91-1.22-1.53,1.23c-.07-1.39.71-3.48,1.84-4.3.59-.43,1.39-.37,1.84-.61.36-.19.94-.05,1.57-.57ZM299.48,89.98c.57-.08.66.49.81.55.25.14.4.29.51.44.37-.28.78-1.09,1.32-1.06.44,1.62-.81,2.98-2.45,2.46-.28-.09-.6-1.25-1-1.26-.84-.02-3.93,2.73-3.92.35l4.71-1.48ZM287.39,91.76c.68.13.57.61.61.61.38.07.89-.09,1.23,0,.01-2.1,7.19-3.11,4.92-1.23-.19.16-2.96-.35-1.23.62h.92c.31.12.23.39.31.61.03.09-.55.84,0,1.23,1.27-.71,2.03-.37,3.07-.61.08-.02.14-.96,1.23-.61l-1.23,1.22c-1.39.59-2.33,1.07-3.69.61-1.1-.37-.55-1.4-3.07-.61-.19.06-.41.56-.61.61-.63.17-2.63.99-3.07.61-.17-.15.1-1.36,0-1.84-.07-.34-1.71-1.69.61-1.23ZM287.38,98.53c.67.67-.55,1.89-1.22,1.22-.67-.67.55-1.89,1.22-1.22ZM282.48,94.84c.21-.42,1.04.36.6,1.22-.21.42-1.04-.36-.6-1.22ZM283.08,99.76c.67.67-.55,1.89-1.22,1.22-.67-.67.55-1.89,1.22-1.22ZM283.08,105.9c.18-.31-.42-1.69.33-1.88,1.26-.33,3.71.3,5.2.04.58-1.26,3.46-3.16,2.47-.31-.21.59-1.88.72-2.47.92-1.29.43-2.49.43-3.69,1.23.1.4-.28.68-.61.61-.31-.06-1.02-.86-1.23-.61-1.06,1.24,1.93,1.52,1.84,2.45-3.95,1.47-1.76-.23-1.92-.52-.14-.26-1.72-.51-1.76-1.01-.04-.58,1.78-.83,1.83-.92ZM281.24,109.59c.42.21-.36,1.04-1.22.6-.42-.21.36-1.04,1.22-.6ZM278.78,108.05c-.08-.54,1.18-.35,1.22-.3.7.71-.26,1.98-1.22.3ZM280.01,97.3v1.22h-2.46c.33-1.23,1.31-1.38,2.46-1.22ZM276.33,99.14c.21-.42,1.04.36.6,1.22-.21.42-1.04-.36-.6-1.22ZM275.38,103.29c.67.04.67-2.28,2.17-1.69.37,2.32-1.06,2.69-3.07,2.45-.26-1.93-.11-.82.9-.76ZM273.83,109.03c.21.17-.26,1.25.34,1.17l1.53-1.23c-.3.86.61,1.41.61,1.54,0,.48-3.52,1.66-3.67,1.54-1.08-.87-.13-4.12,1.19-3.02ZM272.02,102.22h1.22l-.3,1.84c-.65-.56-1.12-.93-.92-1.84ZM272.63,113.28c.67.67-.55,1.89-1.22,1.22-.67-.67.55-1.89,1.22-1.22ZM268.94,107.75c.42.21-.36,1.04-1.22.6-.42-.21.36-1.04,1.22-.6ZM266.49,112.05c.67.67-.55,1.89-1.22,1.22-.67-.67.55-1.89,1.22-1.22ZM262.81,110.21c.3-.64,1.47,1.66,1.22,2.46-1.18-.3-1.38-1.36-1.22-2.46Z"/>
        <path class="cls-2" d="M268.95,158.76c1.13-.02,2.07-.61,1.84-1.84h-2.46c.23.5.32,1.2.61,1.84Z"/>
        <path class="cls-2" d="M303.74,178.8c.11.08.21.16.25.25l.62-.61h-1.23c.06.13.22.25.37.36Z"/>
        <path class="cls-2" d="M348.24,70.26c-.6-.07-1.26.08-1.84,0-.21-.03-.44.05-.61,0,.11.21.21.32.3.36-.11.33.15.78.76,1.33.08.07.15.12.17.15-.06-1.91,1.24-.67,1.23-1.84Z"/>
        <path class="cls-2" d="M345.78,69.63c-.03-.2.05-.42,0-.61-.53.29-.55.5,0,.61Z"/>
        <path class="cls-2" d="M274.48,132.33l-3.07,1.84,4.92.62c-.45-.64-.5-1.94-1.84-2.46Z"/>
        <path class="cls-2" d="M273.86,120.65c.2,0,.42-.03.61,0l1.23-1.22c-.28.03-.71-.04-.99-.04-.08,0-.15.03-.23.04-.03.04-.05.06-.08.1-.15.25-.33.9-.53,1.13Z"/>
        <path class="cls-2" d="M271.1,127.42c-1.16.82-1.04,1.32.3,1.84l-.3-1.84Z"/>
        <path class="cls-2" d="M282.47,150.77s-1.3-.23-1.22.3c.96,1.68,1.92.41,1.22-.3Z"/>
        <path class="cls-2" d="M278.17,145.23l-1.22-1.22c-.18,1.28-.06,1.4,1.22,1.22Z"/>
        <path class="cls-2" d="M273.87,139.4c-.08.54,1.18.35,1.22.3.7-.71-.26-1.98-1.22-.3Z"/>
        <path class="cls-2" d="M255.9,113.95c.72.04,1-.3.79-1.12-.01-.06-.02-.11-.04-.17h-.61c-.17.23-.7,1.15-.61,1.22.18.04.33.06.48.07Z"/>
        <path class="cls-2" d="M286.77,154.46l-.61-.61-.61.61c.38-.04.99.11,1.23,0Z"/>
        <path class="cls-2" d="M258.49,107.75c-.86-.44-1.64.39-1.22.6.86.44,1.64-.39,1.22-.6Z"/>
        <path class="cls-2" d="M268.64,130.49v.61c.4-.2.4-.41,0-.61Z"/>
        <path class="cls-2" d="M255.12,115.73v.61c.4-.2.4-.41,0-.61Z"/>
        <path class="cls-2" d="M313.82,167.37l-.31-.6-.31.6c.2,0,.41,0,.61,0Z"/>
        <polygon class="cls-2" points="305.83 182.73 308.29 182.73 307.97 181.5 305.83 182.73"/>
        <path class="cls-2" d="M278.77,132.64l-.6-.31c0,.19.03.43,0,.61l.6-.3Z"/>
        <path class="cls-2" d="M151.35,527.6c-.34.2-.67.39-.96.58.38-.17.73-.35.96-.58Z"/>
        <path class="cls-2" d="M113.68,547.17c.62,1.24.56,3.02,1.08,4.17.98,2.17,1.34,1.82,1.99,3.03.33.61-.25,2.17.27,3.11,1.77,3.17,17.69,6.67,21.54,7.09,2.27.25,1.05-2.48,2.02-2.09,2.45,1.31,2.66,3.79,3.62,5.38,1.07,1.77,2.37,3.4,3.08,5.37.39-.17.72-.89,1.08-1.04.06-2.67-4.55-7.06.12-6.37,2.15.96,4.24,2.02,5.23,4.35,1.13-.5,2.33-.62,3.21-1l.15-7.44,4.74,2.21.62-5.29c-.75-1.15-5.44-7.15-5.17-7.52,3.95.12,4.23-3.82,5.42-5.23,2.76,1.32,3.82.94,6.37.12.18-.96-.2-2.39.06-3.19-.26.3-.57.53-.91.73.26-.23.56-.47.91-.73.78-2.41,3.05-4.41,5.41-5.21,2.84-.96,3.69-.08,6.35,1.2l.59-3.18,3.66,3.25c2.45-1.08,6.11-1.84,7.52-4.1-6.62-1.85-13.49-.8-20.17-1.46-7.71-.77-15.6-1.76-23.33-2.58-4.37-.46-2.86-1.76-4.21-2.21-2.56,2.84-7.97,4.51-11.81,6.15-1.87.8-9.51,5.15-10.71,4.03,1.37-6.3,2.15-3.21,5.85-4.18,1.74-.46,3.01-1.45,4.9-1.98.78-.22,2.09.17,3.07.06.04,0,.09,0,.13,0l-.03-.05-1.01-2.08c4.78,1.79,5.52-3.3,9.61-1.95.16-.17-.43-1.86.77-2.14,1.44-.34,4.38,1.22,5.63,1.2.37,0,.79.09,1.06.02-.42-3.29-2.72-5.63-4.09-8.58-.13-.29.15-.77.02-1.06l1.32-.77,2.85,4.03.16-7.43c-.7-.37-1.4-.74-2.1-1.1l-3.25,3.13c-.93-2.18-2.12-4.26-3.06-6.44-.7-.37-1.4-.74-2.1-1.1-1.11,3.79,3.53,8.06,2.26,11.1-.12.2-.24.4-.36.63-3.45-.89-3.61-2.19-3.86-2.24-1.99-.4-3.94,1.17-5.1,1.07-.78-.07.5-3.98-4.82-.16l.06-4.24-4.29,3.1c.9-3.63-2.96-9.58-2.9-12.36.02-.96,2.61.33,2.08-1.46-3.18.54-1.55-2.41-2.13-3.44-.73-1.3-2.54-.98-1.99-3.03-13.63-7.07-27.44-13.87-41.05-20.99l-41.86-18.64-1.27-4.51c-8.01-4.16-16.2-8.04-24.21-12.16-2.53-.82-1.54,2.47-3.57,1.95-4.93-1.27-13.64-8.85-18.54-9.37-2.33-.25-3.45,3.79-5.38,2.58-.09-.06.15-1.44-.77-2.07-4.77-3.32-8.41-3.35-12.66-5.34-4.4-2.05-16.25-7.03-19.22-9.66-2.51-2.23,3.56-3.19,1.13-4.73-4.43,2.09-9.65,5.64-13.98,8.23-.25,7.13,5.18,14.18,6.8,20.05,1.53,5.54.55,12.19,2.95,17.97.92,2.21,6.11,4.46,1.08,6.82,4.78,8.19,9.34,12.94,13.67,19.67,7.79,12.1,14.09,30.25,21.05,43.38,12.52,23.62,26.11,46.88,39.24,70.17,2.79.11,3.04-1.18,4.29-2.04-2.69-1.62-5.24-6.89-.94-6.39.16-5.04-5.08-2.97-5.24-3.29-.65-1.32.62-9.43,4.4-8.42-2.65,5.65,8.32,8.22,1.88,12.79.76,1.02,1.34,2.18,2.06,3.23.3-.07.7.05,1.06.02,3.52-.27,4.9,1.16,7.86,2.3l-1.57,2.07c.29.18,1.47,3.93,4.71,4.32l-.49-3.17,5.34-.96c-.74-.62-1.46-1.43-2.08-2.17-1.08-1.27-1.32-1.84-2.06-3.23-.92-1.72-3.77-8.1-4.07-9.64-.12-.61.08-1.44.05-2.12,1.2-.15.92.93,1.03,1.08,1.14,1.48,2.85,6.01,3.28,6.3.79.53,2.93-1.72,5.08,1.3.9,1.27.72,3.69-.1,5.31.95,2.68,2.77,2.97,3.19.06,1.44.46,1.06.93,1.02,2.15-.78.1-1.37.27-1.8.5-1.05.55-.98,1.46.67,2.67,6.29,2.67,3.85,1.39,9.62-1.22.8-.36,2.03.47,2.08.38.12-.21.14-4.6.04-4.82-.09-.2-1.7.5-1.88.29-.18-.21-1.72-4.01-2.22-5.11l-4.27.97c1.15-1.73,1.64-3.31,2.23-5.26,2.67-8.84-.25-3.29-2.6-5.26-2.24-1.87-.4-3.46-.66-4.21-.11-.3-1.45-.69-1.85-1.26-.99-1.42-1.12-1.48-2.06-3.23-1.36-2.52-2.8-4.93-4.11-7.52-1.25-2.5-1.89-3.37-3.08-5.37-.94-1.57-1.5-2.18-.98-4.27-1.49-2.76-2.7-5.78-4.09-8.58-.46-.93-1.9-1.83-2.52-3.28-.28-.67-2.87-8.18-2.56-8.5,1.36-1.41,2.96,3.28,4.96,2.45.7,2.47,1.27,4.88,2.29,7.25.63,1.47,2.28,2.36,2.76,3.93.44,1.45-.59,5.32.46,6.54.4.47,2.37.31,3.44,1.34,1.16,1.12,1.71,4.17,2.71,5.81.66,1.08,6.51,3.47.86,3.83-.04.18-1.15.78-.98,1.44.79,3.14,3.38.73,4.13.75,1.6.04,1.55.8,2.1,1.1.57.3,1.08,1.24,2.1,1.1-.05,1.15,1.28,3.31-.1,5.31,4.78-1.89,7.43-.84,5.44-6.26,6.63-1.06.29,4.49,3.54,6.09.18.09.56-.72.6-.7.13-1.02-.12-2.22.06-3.19.17.03.32.05.46.06.7.23,1.41,1.01,1.64,1.04.3.05.89.09,1.06.02.32-.93.14-1.44-.22-1.74-.62-.51-1.8-.33-1.87-.43-.17-.24.07-2.37.06-3.19-.02-1.27.99-3.45.11-5.31l1.04.02c.13.66-.21,1.64-.03,2.12,1.09-1.49,7.14-.15,7.44.15,2,1.99-.82,1.27-2.03,1.68,0,.35-.06.83-.16,1.45.77.18,2.25.79,3.17,1.12.66-.45,1.27-1.13,2.14-1.04.48-1.89-1.72-.71-2.09-1.09-1.75-1.85,4.74-2.45,1.16-5.29.7-.49,2.68-1.41,3.21-1,.09.07.81,1.18,1.37,2.08.36.58.67,1.08.69,1.15.42-.35,1.22-1.39,1.77-1.85.16-.14.3-.23.4-.23.64.09,1.48.09,2.13.04l-.02,1.06c.33.08.72-.04,1.06.02l1.06.02c6.45-4.14,7.38-2.25,12.91-8.25.38-.41,1.58-.62,2.15-1.02-.9-3.25,2.93-10.34,7.51-8.26ZM129.68,548.97l-1.06-.02c.37-.68.72-.68,1.06.02ZM17.97,445.32c.38-.71,1.79.66,1,2.13-.38.71-1.79-.66-1-2.13ZM19.06,498.49c.25.86-1.06.92-1.08,1.03-.95,4.19,1.75,2.91,3.15,4.79l4.03,8.1c-4.95-.95-5.73-4.59-7.85-8.65-.56-1.08-.31-3.07-.42-3.2-.21-.24-1.94.18-2.12-.05-1.77-2.29,2.27-2.45,4.28-2.03ZM20.42,537.83c-6.06.43-.9-4.67-5.26-2.22.08-4.67,2.98-1.66,4.24.07.27.36.75.66,1.04,1.08.16.24-.19.84-.02,1.06.54-.04,1.83-1.46,2.13-1.02.14,1.85.3,2.48-1.61,2.08-.73-.28-.46-.99-.52-1.06ZM23.52,542.15c.71.38-.66,1.79-2.13,1-.71-.38.66-1.79,2.13-1ZM14.3,524.95c-.13-.1,1.13-2.91,1.26-3.01.39-.28,2.91-.2,3.04-.08,1.77,1.6-3.44,3.81-4.3,3.09ZM13.91,489.88l2.11.04-.09,4.24c-.61,1.28-2.62-3.7-2.03-4.28ZM9.18,514.23c-.14.17-2.98-1.57-4.21-1.16l.02-1.04c2.26-1.68,5.6.43,4.19,2.19ZM7.74,506.76c-2.87-1.72-.65-3.33.56-2.1.08.08.36,2.26-.56,2.1ZM5.21,500.34c1.18-1.14,3.25,1.02,2.07,2.15-1.18,1.14-3.25-1.02-2.07-2.15ZM3.05,502.43c.57-.96,4.92,5.94-1.16,4.21l1.16-4.21ZM-.79,480.03c.08.08.36,2.26-.56,2.1-2.87-1.72-.65-3.33.56-2.1ZM-1,490.65c-2.1-.61-2.34-2.31-2.02-4.29,2.1.61,2.34,2.31,2.02,4.29ZM-2.42,454.49l-.06,3.18-2.11-.04c-.3-1.47.63-2.81,2.17-3.14ZM-6.47,444.85c.38-.71,1.79.66,1,2.13-.38.71-1.79-.66-1-2.13ZM-5.09,482.15l-.72,10.53c-.05-2.58-3.93-9.66-2.41-11.73.19-.26,2.08,1.51,3.13,1.2ZM-9.23,477.74c-.68-1.34,1.77-3.67,2.17-3.15.68,1.34-1.77,3.67-2.17,3.15ZM-9.06,468.71l-1.06-.02c.37-.68.72-.68,1.06.02ZM-10.76,446.89c2.2.9,3.5,2.99,3.06,5.37-1.96-.81-3.21-3.48-3.06-5.37ZM-11.77,443.69c.16-.15,3.22-.03,4.26-.99,2.41,2.94-7.62,4.15-4.26.99ZM-11.21,469.73l-1.06-.02c.37-.68.72-.68,1.06.02ZM-47.12,457.88l-1.04-1.08c.74-1.04,4.45-5.89,5.91-3.08,2.26,2.74-4.18,3.56-4.87,4.16ZM-28.38,478.42c-2.11,1.72-3.37-3.38-3.07-5.36.78-.99,3.32,5.16,3.07,5.36ZM-27.19,472.07c-.71-.38.66-1.79,2.13-1,.71.38-.66,1.79-2.13,1ZM-24.85,460.43l-2.11-.04.07-3.18c1.53.39,2.4,1.76,2.05,3.22ZM-21.39,445.61l-1.06-2.12c-.84-.24-.96,1.02-1.03,1.03-.05,1.06,0,2.13-.06,3.19-.05.7,0,1.42-.05,2.12-2.72-.75-.98-1.99-1.01-2.14-.23-.98-1.04-1.99-1-3.21-.69.17-1.43.78-2.15,1.02-.05.31-.06.75-.02,1.06.02.18,1.33.25,1.04,1.07-.65.13-1.87-.21-2.12-.03-.09.11-.18.19-.27.29-.65.76-2.04,2.73-1.91,2.85l3.17-.47c-1.67,4.82-2.78.17-5.32,3.1.2.54.98,1.22,1,1.61.06,1.05-.08,2.14-.07,3.19-1.85-.04-1.64-2.76-2.05-3.23-.29-.32-2.29.55-2.13-.57,2.85-.75,2.37-2,2.23-4.74-.52.11-1.42-.35-1.95.1-.61.51-1.82,8.4-4.02,5.12-3.72-5.52,1.89-5.44,3.89-7.39.57-.55,1-2.06,2.19-3.15,1.77-1.63,1.97-2.64,5.36-2.03l-1-3.19c4.92-.2,11.48.32,8.36,6.52ZM-19.93,453.08c-.93.12-.56-2.05-.48-2.12,1.26-1.18,3.41.52.48,2.12ZM-16.98,493.52c.49-.57,1.11-2.92,1.24-3.02.37-.27,2.99-.53,3.05.45-1.4,1.26-2.28,3.04-4.3,2.57ZM-12.85,499.99l1.04.02,1.01,3.19c-2.8.47-2.21-.65-2.05-3.21ZM-8.89,514.94c-1.02,0-2.34-1.52-2.08-2.69,1.35-1.95,1.77.19,2.13.56.98,1.03,1.9,2.13-.04,2.12ZM-9.83,508.54c-.71-.38.66-1.79,2.13-1,.71.38-.66,1.79-2.13,1ZM-2.69,523.57c-.18.23-4.46-.62-4.2-2.77.4-.82,2.04-.32,2.15-.47.01-.33.06-.59.13-.83-.1-1.32-.88-3.21,3.11-2.29-.42,1.07-.87,2.01-1.12,3.16-.19.88.21,2.84-.07,3.2ZM-.26,507.66c-1.18,1.14-3.25-1.02-2.07-2.15,1.18-1.14,3.25,1.02,2.07,2.15ZM-.11,500.23c-1.18,1.14-3.25-1.02-2.07-2.15s3.25,1.02,2.07,2.15ZM.46,525.76c2.82-.71,5.12,1.5,4.17,4.32-.16.49-2.19,1-2.22,1.68-.07,1.45,4.58,6.88.48,6.78l-2.4-8.19c-.12-.99.86-1.13.98-1.39.25-.42.52-.69.78-.87-.48-.65-1.86-1.39-1.79-2.32ZM5.26,552.42c-.59.12-2.98,2.91-2.1-1.1.26-1.18,1.07-.97,1.08-1.04.13-.66-.13-1.54.04-2.12-3.63-.09-5.13-12.52-1.96-8.54.27.34-.71,5.1,1.02,2.15l.05-1.58c.21-.53.66-.39,1.06-.52.16-.05,1.43.99,2.13.04-1.18-2.22-.58-3.53-.96-5.33-.03-.14-1.65-.28-1.01-2.14l2.07,2.17c.97,2.42,1.77,4.07.94,6.4-.67,1.89-2.44.9-1.16,5.29.09.32.95.73,1.04,1.08.28,1.1,1.62,4.58.95,5.32-.26.29-2.35-.22-3.18-.05ZM8.31,559.9c-.71-.38.66-1.79,2.13-1,.71.38-.66,1.79-2.13,1ZM10.17,522.15c-1.66-2.11-3.42-.07-3.17-4.78-.08-.32-.06-.53.01-.67,0-.49,0-.97.04-1.45l2.07,2.16c.93-.43.79-3.06,3.22-2.06.38,1.03-1.09,1.95-1.1,2.1-.02.35-.02.71-.02,1.06,0,.16,1.1.74,1.11,1.54,0,1.27-2.66-.29-2.22,1.62l3.18.08.12-5.32c4.27,1.68-.13,5.47-1.24,8.48.28.42.7.72,1.04,1.08.55.6.97,2.11,1.69,2.14,1.24.06,3.07-1.37,4.66-.95l-2.15,1.54,2.07,2.69c-2.41.07-6-1.34-7.38-3.32-.72-1.03-.6-2.42-1-3.21-.32-.62-.06-1.62-.94-2.74ZM13.94,543.03c.71.38-.66,1.79-2.13,1-.71-.38.66-1.79,2.13-1ZM14.51,568.54c-2.1-.61-2.34-2.31-2.03-4.28l2.11.04-.09,4.24ZM14.85,551.54c1.18-1.14,3.25,1.02,2.07,2.15-1.18,1.14-3.25-1.02-2.07-2.15ZM15.55,570.67c-.71-.38.66-1.79,2.13-1,.71.38-.66,1.79-2.13,1ZM18.91,561.18c-1.18,1.14-3.25-1.02-2.07-2.15,1.18-1.14,3.25,1.02,2.07,2.15ZM20.71,578.22l.04-2.11,3.17.58c-.99,1.11-1.65,1.91-3.21,1.53ZM23.97,574.03c-3.34.38-1.43.17-1.29-1.58.09-1.16-3.91-1.23-2.85-3.81,4.02-.56,4.61,1.92,4.14,5.38ZM28.98,562.42c-1,.05-1.38-3.11-1.53-3.2-.52-.32-2.93.66-3.24-.64-.53-2.19.65-6.41.24-8.99-2.16-1.04-5.34-6.09-.45-4.28,1.02.38,1.19,3.28,1.51,4.3.71,2.25.66,4.32,2,6.42.69-.15,1.16.5,1.04,1.08-.11.53-1.53,1.73-1.1,2.1,2.11,1.87,2.7-3.28,4.3-3.1,2.4,6.88-.46,3.03-.96,3.3-.45.24-.94,2.96-1.81,3ZM31.18,585.86c-.38.71-1.79-.66-1-2.13.38-.71,1.79.66,1,2.13ZM31.02,566.72c-.93.12-.56-2.05-.48-2.12,1.26-1.18,3.41.52.48,2.12ZM34.22,594.41c-1.09-.53,2.91-2.48,4.28-2.02-.56,2.03-2.39,2.35-4.28,2.02ZM39.86,577.53c1.18-1.14,3.25,1.02,2.07,2.15-1.18,1.14-3.25-1.02-2.07-2.15ZM39.6,590.27c-1.18,1.14-3.25-1.02-2.07-2.15,1.18-1.14,3.25,1.02,2.07,2.15ZM37.73,577.48c-1.55,1.84-7.12.08-5.18-2.15.3-.35,2.16.5,2.04-.55l-2.07-2.69c1.48.55,2.46-1,2.68-1,.83,0,2.76,6.14,2.54,6.4ZM37.09,555.16c.08.08.36,2.26-.56,2.1-2.87-1.72-.65-3.33.56-2.1ZM33.78,562.54c.38-.71,1.79.66,1,2.13-.38.71-1.79-.66-1-2.13ZM33.61,569.96c-.38.71-1.79-.66-1-2.13.38-.71,1.79.66,1,2.13ZM35.38,533.85c-.63.13-1.85-.23-2.12-.03-1.08.78-.79,2.9-3.22,2.06-.17-.97.3-2.43.06-3.19-1.7-5.34-4.36-10.68-6.06-16.05,6.62.4,6.27,10.34,9.27,15.05.25.39,2.74,1.45,2.08,2.16ZM93.11,515.85c-.57,3.21-2.98,2.71-4.36,6.29l-1.06-.02c1.1-4.42-1.08-4.09,5.42-6.27ZM90.24,555.1c-.26-.84,1.05-.85,1.08-1.03l1.06.02c.23.97,2.94,1.21-2.15,1.01ZM96.53,559.49c-1.17-4.23,3.84-4.76,3.21-1-1.02.58-2.06.83-3.21,1ZM70.78,522.55c.71-3.59,3.48-9.09,5.44-12.34,1.26-2.09,1.18-2.48,3.27-4.19,2.68,1.83-.21,3.89-1.16,5.29-.42.62-1.67,1.08-2.17,2.08l3.19.06c-.5,1.19-2.01,5.31-2.25,6.33-1.43,6.15.6,13.75-.4,20.18-1.89-.14-2.09-4.07-2.01-5.35-4.78,1.34-3.19-4.5-3.02-8.56.16-3.87-1.24-1.7-.88-3.51ZM65.43,569.68c.11.4.16.72.05.9-.06.1-.54-.17-1.06-.35.37-.31.71-.49,1.01-.55ZM60.18,543.91c1.56-.42,1.36.9,1.56,1.09l-1.1,2.1s-.06-.07-.1-.1c-.65-.56-4.02-2.09-.36-3.09ZM68.97,555.77l1.08-1.04c2.62,1.17,6.11,2.7,7.33,5.45-3.52.04-5.82-2.64-8.42-4.4ZM95.42,561.51v.07c-.05,0-.1.02-.15.03.05-.03.1-.07.15-.1ZM100.51,534.79c-11.1-9.49-5.06-32.27,12.84-29.54,14,2.14,7.25,14.56,9.69,18.38.26.4,1.59.18,1.7.35,1.47,2.13-1.59,2.07-2.5,3.11-1.77,2.03-2.55,4.01-5.1,5.59-3.31,2.06-13.62,4.68-16.63,2.11Z"/>
        <path class="cls-2" d="M115.23,582.17l-.09,4.24c.88-.38,2.08-.52,3.21-1,0-1.96-.98-3.59-3.12-3.24Z"/>
        <path class="cls-2" d="M154.15,525.95c.15-.18.29-.35.43-.42l-1.03-1.09-.06,2.13c.24-.1.45-.38.65-.63Z"/>
        <path class="cls-2" d="M72.85,574.98l3.07,5.37,1.24-8.48c-1.13.75-3.37.8-4.31,3.11Z"/>
        <path class="cls-2" d="M50.71,574.69c.37.23,1.24.51,1.72.81.06.05.12.1.21.15.02-.35-.04-.73.02-1.06l-2.07-2.17c.04.48-.1,1.22-.11,1.72,0,.17,0,.32.05.41.02.04.09.09.17.14Z"/>
        <path class="cls-2" d="M67.43,580.2l-3.19.45c1.38,2.04,2.25,1.85,3.19-.45Z"/>
        <path class="cls-2" d="M104.99,561.78c-.08.07-.45,2.24.48,2.12,2.93-1.6.78-3.31-.48-2.12Z"/>
        <path class="cls-2" d="M93.12,571.1c2.21.35,2.42.15,2.15-2.07l-2.15,2.07Z"/>
        <path class="cls-2" d="M85.05,576.27c.92.15.64-2.03.56-2.1-1.21-1.23-3.43.39-.56,2.1Z"/>
        <path class="cls-2" d="M38.55,605.06c-.1.02-.19.03-.29.07l-.02,1.06c.4.3,1.96,1.24,2.09,1.1.07-.31.11-.57.13-.82.1-1.25-.48-1.75-1.91-1.41Z"/>
        <path class="cls-2" d="M111.51,554.46l-1.08,1.04,1.03,1.08c-.06-.66.22-1.71.05-2.12Z"/>
        <path class="cls-2" d="M29.83,601.78c-.79,1.48.62,2.85,1,2.13.79-1.48-.62-2.85-1-2.13Z"/>
        <path class="cls-2" d="M69.47,585.01l1.06.02c-.34-.7-.69-.7-1.06-.02Z"/>
        <path class="cls-2" d="M43.52,607.89l1.06.02c-.34-.7-.69-.7-1.06-.02Z"/>
        <path class="cls-2" d="M134.72,508.15l-1.05.51,1.03.55c0-.35.02-.71.02-1.06Z"/>
        <polygon class="cls-2" points="161.1 518.22 158.95 518.72 161.01 522.47 161.1 518.22"/>
        <path class="cls-2" d="M73.53,567.57l-.56,1.03c.33,0,.75-.05,1.06.02l-.5-1.05Z"/>
        <path class="cls-2" d="M312.03,663.68c.1.47.19.92.3,1.34-.04-.51-.13-.98-.3-1.34Z"/>
        <path class="cls-2" d="M359.15,791.53c-.26.02-.08,2.15-.39,2.28-.31.13-5.29.45-6.75.59l-.52,5.3c-1.55-1.99-3.19-3.16-5.21-4.59-9.17-6.48-3.89-.97-7.06.98-3.02,1.86-4.14-.87-5.11-.86-.39,0-1.35,1.41-2.17,1.65-2.02.59-2.13.72-4.52,1.14-3.43.6-6.76,1.34-10.25,1.85-3.36.49-4.61.88-7.38,1.49-2.17.48-3.09.89-5.3-.51-3.75.65-7.71.89-11.47,1.41-1.26.17-2.84,1.49-4.75,1.65-.88.07-10.54.16-10.79-.31-1.11-2.12,4.92-2.16,4.73-4.78,3.11.15,6.11.41,9.24.15,1.94-.16,3.6-1.72,5.6-1.67,1.84.05,5.92,2.72,7.72,1.99.7-.28,1.27-2.62,2.87-3.45,1.74-.91,5.46-.37,7.75-.89,1.5-.34,6.5-6.18,4.74.49.19.12.45,1.62,1.28,1.68,3.93.3,2.14-3.62,2.45-4.47.67-1.83,1.52-1.47,2.08-2,.57-.54,1.85-.76,2.08-2,1.3.49,4.31-.2,6.08,2.15-.35-6.24,1.89-8.89-5.13-8.68,1.33-8.05,5.29,1.39,8.39-1.74.17-.17-.61-.92-.58-.97-1.13-.55-2.61-.71-3.65-1.3.09-.18.17-.35.25-.51.53-.72,1.71-1.24,1.83-1.49.17-.33.45-.99.43-1.22-.95-.72-1.61-.71-2.09-.42-.83.52-1.07,1.95-1.21,1.99-.35.1-2.7-.99-3.65-1.3-1.47-.47-3.6-2.47-6.08-2.17l.43-1.19c.81.11,1.81.87,2.43.85-1.3-1.84,2.57-8.29,3.04-8.52,3.07-1.54,1.15,1.44,1.16,2.99.4.14.94.38,1.62.74.51-.81,1.78-2.3,2.51-3.22-.27-.94-.81-1.9-.38-2.86-2-1.28-1.47,1.71-2.06,1.99-2.81,1.31-1.01-6.4-5.66-3.37-.3-.99-.6-3.64.08-4.08.12-.08,1.67-.48,2.93-.78.81-.2,1.5-.35,1.59-.36-.24-.62-1.13-1.95-1.46-2.75-.1-.24-.15-.43-.12-.55.34-.7.67-1.67.86-2.44l1.22.43c.22-.35.23-.84.43-1.22l.43-1.22c-2.25-8.86.13-9.38-4.31-17.61-.07-.15-.14-.3-.25-.46-.33-.59-.11-2.06-.35-2.87-4.09-.21-10.79-7.36-6.64-11.83,1.66-.24,3.7.52,5.22.36,2.88-.3,2.61-.85,4.26-1.14.83-.14,2.41,1.13,3.69.89,4.33-.82,14.49-17.85,16.46-22.12,1.16-2.53-2.46-2.16-1.64-3.13,2.46-2.33,5.39-1.61,7.6-2.11,2.45-.55,4.84-1.42,7.38-1.49-.04-.51-.74-1.18-.79-1.65-3.05-1.09-9.89,2.54-7.31-2.59,1.93-2.11,3.96-4.11,7.03-4.36-.14-1.5.18-2.93.08-4.09l-8.52-3.04,4.37-4.62-5.86-2.75c-1.61.43-10.34,3.53-10.66,3.07,1.66-4.51-2.78-6.35-3.95-8.26,2.58-2.67,2.55-4.04,2.59-7.31-1.04-.58-2.83-.69-3.65-1.3.25.41.39.86.5,1.33-.16-.39-.33-.83-.5-1.33-2.48-1.82-3.91-5.21-3.93-8.25-.02-3.65,1.32-4.29,3.82-6.86l-3.44-1.91,5.16-2.98c-.31-3.25.23-7.75-1.83-10.25-4.69,6.93-6.11,15.25-9.44,22.7-3.85,8.59-8.03,17.31-11.94,25.92-2.21,4.86-3.13,2.63-4.16,4.01,2.29,4.04,2.14,10.93,2.55,15.99.2,2.46,2.29,12.95.54,13.9-6.74-4.01-2.87-3.72-2.57-8.35.14-2.18-.52-4.04-.4-6.41.05-.99,1-2.35,1.25-3.52.01-.05.04-.1.04-.15h-.07s-2.78.38-2.78.38c3.9-4.83-1.69-7.64,1.45-11.83-.14-.25-2.31-.22-2.18-1.71.16-1.79,3.09-4.59,3.55-6.03.13-.42.41-.87.43-1.22-3.95-.78-7.54.98-11.47,1.41-.38.04-.83-.48-1.22-.43l-.38-1.82,5.75-1.74-8.52-3.04c-.69.67-1.39,1.33-2.08,2l2.36,4.95c-2.87.23-5.73.81-8.6,1.06-.69.67-1.39,1.33-2.08,2,3.94,2.74,10.66-.98,13.67,1.66.18.21.37.43.59.66-2.36,3.63-3.92,3.33-4.07,3.59-1.23,2.15-.17,5-.73,6.29-.38.88-4.4-2.11-2.04,5.5l-4.87-1.7,1.93,6.14c-3.85-2.43-12.19-.27-15.37-1.41-1.09-.39,1.39-2.88-.88-2.96-.6,3.88-3.38.86-4.79,1.13-1.78.34-2.11,2.56-4.26,1.13-13.4,13-26.55,26.32-39.99,39.28l-37.59,41.11-5.7-.27c-7.88,7.64-15.5,15.59-23.33,23.25-1.92,2.6,2.26,2.73.88,4.86-3.37,5.2-15.45,12.33-17.94,17.78-1.18,2.59,3.04,5.43.91,7.19-.1.09-1.6-.72-2.69.09-5.67,4.23-7.1,8.41-11.02,12.55-4.06,4.28-14.35,16.04-18.54,18.45-3.53,2.04-2.31-5.34-5.03-3.12.7,5.91,2.79,13.3,4.12,19.29,8.13,3.03,18.35-.52,25.74-.13,6.98.37,14.28,4.06,21.87,3.51,2.9-.21,7.5-5.34,8.29,1.38,11.28-2.37,18.52-5.8,27.94-8.21,16.95-4.34,40.31-4.62,58.13-7.6,32.06-5.36,64.11-12.09,96.03-18.28,1.2-3.18-.2-3.96-.71-5.73-2.9,2.48-9.96,3.39-7.74-1.38-5.76-2.12-5.39,4.72-5.81,4.78-1.77.25-10.64-4.34-8.02-8.31,5.49,5.23,12.68-6.44,15.47,2.74,1.47-.48,3.03-.71,4.52-1.14.03-.38.32-.78.43-1.22,1.04-4.17,3.22-5.21,5.68-8.18l1.79,2.61c.32-.26,5.09-.18,6.79-3.77l-3.85-.66.94-6.53c-1,.62-2.2,1.13-3.3,1.57-1.88.75-2.63.82-4.52,1.14-2.34.4-10.79,1.24-12.69.98-.75-.1-1.63-.64-2.43-.88.29-1.44,1.43-.7,1.64-.77,2.14-.75,8.02-.97,8.53-1.36.92-.7-.86-4.04,3.45-5.36,1.82-.55,4.54.59,6.09,2.16,3.46-.07,4.49-2.05,1.3-3.65,1.08-1.49,1.48-.86,2.87-.35-.18.93-.21,1.68-.12,2.26.23,1.43,1.31,1.69,3.34.25,5.49-6.23,3.08-3.9,2.3-11.56-.11-1.06,1.33-2.16,1.24-2.26-.2-.21-5.25-1.92-5.54-1.9ZM327.92,698.1c-.65-.69-.5-1.09.43-1.22l-.43,1.22ZM329.72,741.25c-.01.06-.01.12-.03.18-.02-.07-.04-.14-.06-.21l.08.03ZM327.74,739.17c-4.98-.26-4.16-5.5-.69-4.41.24.12.49.23.76.32.28,1.4.17,2.69-.08,4.09ZM312.85,769.53l-.79-1.65c2.36-2.58,5.47-6,9.1-6.37-1.3,4.08-5.28,5.69-8.32,8.02ZM320.26,744.74c-1.07-.02-.58-1.54-.77-1.64l.43-1.22c1.21.11,2.53-2.93.34,2.86ZM328.6,779.24c.09.1-.4.56-.81,1.09-.21-.54-.29-1-.25-1.38.5.02.89.09,1.06.28ZM168.69,785.56c.68.72-1.45,1.81-2.85.33-.68-.72,1.45-1.81,2.85-.33ZM163.98,818.16c-1.69,1.95-5.25,2.37-7.38,1.47,1.88-2.2,4.79-2.89,7.38-1.47ZM160.22,832.59c-.22,1.11-2.58-.14-2.63-.26-.88-1.9,1.91-3.73,2.63.26ZM158.75,813.56c.68.72-1.45,1.81-2.85.33-.68-.72,1.45-1.81,2.85-.33ZM153.02,814.27c4.32-1.65,1.86,10.38-.5,5.3-.11-.24,1.2-3.73.5-5.3ZM152.37,858.58c4.03-1.56,2.5,6.19,2.93,7.22l-1.65.79c-.91-1.25-5.08-7.39-1.28-8ZM156.83,849.88c-.48.21-.25,2.85-1.48,2.23.24-3.58-1.4-3.5-4.61-4.39-.07.64-.94,1.5-.63,2.29.36.9,8.99,5.32,4.36,6.61-7.8,2.16-5.55-4.27-7.03-7.32-.42-.87-1.99-1.94-2.79-3.73-1.2-2.67-2.29-3.29-.28-6.96l-4.07-.07c1.66-5.75,4.78-13.12,10.74-7.14l-2.85.41c-.6.87.8,1.5.79,1.58,1.2.47,2.46.81,3.65,1.3.8.32,1.64.54,2.43.88-1.91,2.85-2.67.36-2.86.34-1.21-.11-2.7.43-4.08-.08-.07.86.35,1.94.35,2.87.34.17.84.36,1.22.43.21.04.8-1.44,1.63-.79-.1.79-.96,2.08-.85,2.44.09.15.15.28.23.42.63,1.04,2.36,3.41,2.55,3.3l.68-3.84c4.92,3.78-.88,3.27,1.52,7.33.7-.02,1.78-.66,2.25-.54,1.23.34,2.43.91,3.65,1.31-.76,2.12-3.82.83-4.51,1.13ZM166.8,841.09l-.86,2.42-3.64-1.3c1.03-1.62,2.96-2.09,4.5-1.12ZM171.36,816.65c-1.81-.22-3-1.8-2.79-3.71l3.65,1.29-.86,2.42ZM182.42,826.06l-.43,1.22c-.65-.69-.5-1.09.43-1.22ZM182.78,828.93l-.43,1.22c-.65-.69-.5-1.09.43-1.22ZM179,845.42c.72-.68,1.81,1.45.33,2.85-.72.68-1.82-1.45-.33-2.85ZM178.83,853.57c-.84-1.28,7.23-1.85,7.37-1.48,1.17,3.09-5.19,2.59-7.37,1.48ZM192.78,829.72c-1.81.27-3.55-3.45-2.8-3.71,1.81-.27,3.55,3.45,2.8,3.71ZM315.63,815.77c.68.72-1.45,1.81-2.85.33-.68-.72,1.45-1.81,2.85-.33ZM299.89,806.07c.12-.06,2.74.45,2.21,1.46-3.08,2.65-4.1-.53-2.21-1.46ZM279.67,816.71c.72-.68,1.81,1.45.33,2.85-.72.68-1.82-1.45-.33-2.85ZM277.33,830.95c-.72.68-1.81-1.45-.33-2.85.72-.68,1.81,1.45.33,2.85ZM299.5,775.89c-.89.54-3.95,3.83-3.7-.78.11-1.96,1.56-1.23,1.85-1.38l2,2.08c-.06.03-.1.04-.16.07ZM271.64,698.92c7.85-15.32,19.58-2.76,24.92-4.11.56-.14.82-1.76,1.06-1.83,3.02-.88,1.77,2.63,2.63,4.08,1.66,2.82,3.64,4.49,4.49,8.03,1.1,4.61.16,17.51-3.96,19.99-15.22,9.16-39.17-6.58-29.14-26.17ZM281.23,735c-4.67-2.97-5.13-.33-5.15-8.67,3.48,1.89,1.98,4.48,5.58,7.45l-.43,1.22ZM274.48,746.31c6.54,4.02,16.09,4.6,23.12,8.22-.89,2.13-5.49.84-6.94.26-.29,6.03-6.42,1.95-11.04.2-4.41-1.67-2.44.78-4.39-.33-3.87-2.2-9.15-7.51-12.15-11.02-1.93-2.25-2.41-2.32-3.57-5.38,3.14-2.39,4.41,1.74,5.66,3.38.55.73.61,2.34,1.57,3.3l1.3-3.65c1.18,1.03,5.35,4.36,6.44,5.03ZM271.37,801.42c.54-.14,2.73-2.6,3.29-1.57-.09.78-.98,2.04-.85,2.44.49,1.54,3.04,2.02,1.14,4.51-1.18-.17-2.69-1.28-3.65-1.29-6.81-.09-14,.93-20.85.82,3.01-7.48,14.34-3.26,20.93-4.9ZM268.91,823.84c-5.36-1.9-.77-4.07,1.72-4.86.52-.17,1.05-.61,1.65-.79.34-.1.9.54,1.22.43.16-.64-.98-2.68-.36-2.85,2.19.55,2.98.61,1.78,2.66-.61.73-1.32.16-1.43.19-1.83,7.16-5.74-.75-4.58,5.22ZM256.28,820.74c-.17.11-2.92-2.42-2.98-2.61-.17-.56.88-3.44,1.07-3.54,2.53-1.43,3.07,5.43,1.91,6.15ZM227.59,805.08c1.09.04.65,1.57.77,1.64,4.47,2.71,4.02-.9,6.74-1.79l10.89-1.54c-3,5.34-7.5,4.85-13,5.72-1.46.23-3.66-.83-3.85-.75-.36.15-.53,2.31-.87,2.42-3.33,1.17-1.95-3.56-.69-5.72ZM232.78,821.31c-3.08,2.65-4.1-.53-2.21-1.46.12-.06,2.74.45,2.21,1.46ZM210.84,825.19c-1.51,2.19-3.57,1.81-5.73.68,1.51-2.19,3.57-1.81,5.73-.68ZM198.67,820.87c.12-.06,2.74.45,2.21,1.46-3.08,2.65-4.1-.53-2.21-1.46ZM208,844.74c-.47-.78-2.94-2.4-3-2.59-.17-.53.54-3.65,1.69-3.35.91,2.1,2.63,3.8,1.31,5.94ZM196.86,829.8c-.23-.32,2.54-1.82,2.59-3.15l11.87,4.88c-3-.93-12.65.82-14.46-1.73ZM215.68,807.7l.86-2.42,4.86,1.73c1.24,1.19-5.28,1.6-5.71.69ZM217.06,842.45l.42-1.19,4.07.06c-.53,3.41-1.6,2.3-4.49,1.13ZM218.94,829.42c-.86-1.8,2.43-3.36,3.28-1.56s-2.43,3.36-3.28,1.56ZM224.4,821.76c-.86-1.8,2.43-3.36,3.28-1.56.86,1.8-2.43,3.36-3.28,1.56ZM230.39,828.01l-4.41-2.95c-.88-1.02,8.74-3.39,4.41,2.95ZM228.07,842.26c-.72.68-1.81-1.45-.33-2.85.72-.68,1.81,1.45.33,2.85ZM227.47,832.45c-.86-1.8,2.43-3.36,3.28-1.56s-2.43,3.36-3.28,1.56ZM235.82,843.64c-.4,1.17-2.65,2.11-3.9,1.37-1.73-2.31.9-1.97,1.47-2.24,1.56-.73,3.19-1.37,2.44.86ZM237.81,826.52c-1.07-3.26,2.65-6.29,4.14-3.99.14.22-2.96,2.83-2.95,4.41l-1.19-.42ZM243.35,843.6c-.79-.78.42-2.48.29-2.66-.37-.14-.66-.3-.9-.47-1.56-.39-4.04-.22-1.44-4.47,1.07.89,1.98,1.78,3.21,2.51.94.56,3.36.85,3.66,1.31.19.29-2.42,4.91-4.81,3.79ZM244.74,826.24c-.4-.03-.63-.13-.77-.27-.56-.19-1.12-.38-1.66-.6l3.29-1.56c-.14-1.24-3.22-2.09-1.13-4.51,1.34-.04,1.83,2.01,2,2.07.4.15.81.29,1.22.43.18.06,1.27-.99,2.2-.68,1.47.48-1.35,2.96,1.01,3.19l1.31-3.63-6.09-2.18c3.58-4.28,6.26,2.25,9.3,4.69.6-.16,1.1-.54,1.65-.79.9-.41,2.8-.31,3.12-1.12.54-1.4-.39-4.07.7-5.74l.95,3.07,3.9-1.35c-.84,2.8-3.85,6.4-6.67,7.23-1.47.43-3.02-.24-4.08-.08-.84.13-1.9-.56-3.52.03-3.08,1.1-1.39,3.92-6.73,1.82ZM255.97,837.09c-.39-.46-.59-.86-.71-1.24-.93.3-2.32,1.61-3.37,1.17.27-3.53,3.69-5.33,6.59-3.15.5.38.32,2.91,1.08,3.2,1.64.64,9.7-2.64,8,2.06l-10.37-.38c-1.19-.24-.97-1.43-1.23-1.66ZM282.41,843.73c-1.26-.75-.71-1.6-.79-1.65-.71-.41-1.83-.45-2.44-.86-1.5,4.16-16.42,1.1-10.61-1.02.49-.18,5.61,2.77,2.87-.36l-1.81-.66c-.54-.44-.19-.91-.19-1.42,0-.2,1.69-1.27.86-2.44-3.01.51-4.29-.69-6.52-.94-.17-.02-.95,1.79-2.86.34l3.29-1.56c3.17-.19,5.37-.48,7.74,1.38,1.92,1.51.1,3.16,5.66,3.38.41.02,1.21-.82,1.65-.79,1.37.1,5.91-.11,6.51.95.23.41-1.15,2.63-1.28,3.65-.09.72,2.21,4.55-2.08,2ZM287.17,830.33c-.86-1.8,2.43-3.36,3.28-1.56.86,1.8-2.43,3.36-3.28,1.56ZM294.3,841.08c-.72.68-1.81-1.45-.33-2.85.72-.68,1.81,1.45.33,2.85ZM296.56,830.92c-.86-1.8,2.43-3.36,3.28-1.56.86,1.8-2.43,3.36-3.28,1.56ZM298.89,822.24c-2.73-.23-7.14-3.21-10.27-3.73-2.03,2.09-9.07,3.82-5.11-1.13.83-1.03,4.23-.11,5.54-.09,2.87.05,5.24.9,8.17.16.09-.86,1.03-1.15,1.65-.79.57.33,1.41,2.43,2,2.08,2.97-1.71-2.75-4.37-1.93-6.15,8.85-.13,3.32,1.69,3.44,2.37.11.61,3.06,2.23,2.77,3.24-.33,1.17-4.11.4-4.28.54-.57.48-.36,3.63-1.98,3.5ZM300.92,837.95l.86-2.42,4.86,1.73c-1.51,2.19-3.56,1.81-5.72.69ZM309.97,812.39c.68.72-1.45,1.81-2.85.33-.68-.72,1.45-1.81,2.85-.33ZM310.9,817.51c-.22,1.11-2.58-.14-2.63-.26-.88-1.9,1.91-3.73,2.63.26ZM309.5,836.88c-.72.68-1.81-1.45-.33-2.85.72-.68,1.81,1.45.33,2.85ZM314.3,829.33c-1.31-.55-2.92,4.04-5.49,1.82.9-4.85,3.99-4.58,7.8-2.7-.85,4-.35,1.71-2.31.88ZM343.38,818.75c2.13,1.43,1.79,3.66.68,5.72-1.03,1.05-1.74-4.31-.68-5.72ZM341.36,816.67c.86,1.8-2.43,3.36-3.28,1.56-.86-1.8,2.43-3.36,3.28-1.56ZM320.19,833.82l-2.42-.86,1.89-3.43c.9,1.57,1.57,2.63.53,4.29ZM321.41,819.05c-.29-.49,1.4-2.3.15-2.56l-3.9,1.35c1.2-1.49-.21-3.22-.13-3.47.32-.95,8.14-.82,8.36-.47,1.52,2.49-2.65,8.25-4.48,5.15ZM326.76,811.48c-.86-1.8,2.43-3.36,3.28-1.56.86,1.8-2.43,3.36-3.28,1.56ZM330.18,825.02c-.68-.72,1.45-1.81,2.85-.33.68.72-1.45,1.81-2.85.33Z"/>
        <path class="cls-2" d="M366.04,723.97c-2.26-.75-4.52-.25-4.94,2.35l4.86,1.73c-.1-1.16.2-2.6.08-4.08Z"/>
        <path class="cls-2" d="M311.21,659.82c-.15-.24-.29-.47-.31-.66l-1.65.77,2.43.88c-.02-.31-.26-.66-.47-.99Z"/>
        <path class="cls-2" d="M146.75,843.55c1.13.56,2.55.73,3.64,1.31.4.21.92.21,1.22.43-.08-.5-.2-.77-.34-.92.44-.58.25-1.64-.57-3.17-.11-.19-.2-.35-.23-.42-1.22,3.83-2.94.45-3.72,2.78Z"/>
        <path class="cls-2" d="M151.18,846.51c-.07.42-.39.8-.43,1.22,1.26-.21,1.45-.6.43-1.22Z"/>
        <path class="cls-2" d="M334.57,766.27c.43,1.59-.37,4.2,1.92,6.17l7.38-1.48-9.3-4.69Z"/>
        <path class="cls-2" d="M329.25,796.19c.08-.04.17-.1.26-.18-.39-.15-.85-.24-1.22-.43l-3.29,1.56c.57.14,1.38.58,1.94.78.2.07.37.11.49.09.06,0,.14-.06.23-.14.4-.34,1.06-1.23,1.6-1.68Z"/>
        <path class="cls-2" d="M339.73,784.55c2.88-.81,2.99-1.88.7-3.86l-.7,3.86Z"/>
        <path class="cls-2" d="M336.27,730.55c-.72-4-3.52-2.17-2.63-.26.06.12,2.41,1.38,2.63.26Z"/>
        <path class="cls-2" d="M338.26,744.29l1.56,3.28c1.25-2.42,1.1-2.73-1.56-3.28Z"/>
        <path class="cls-2" d="M342.68,758.86c.53-1.01-2.09-1.51-2.21-1.46-1.88.92-.87,4.1,2.21,1.46Z"/>
        <path class="cls-2" d="M358.01,823.57c-.01.12-.03.23-.04.36l1.22.43c.5-.34,2.18-1.78,2.08-1.99-.33-.2-.62-.35-.9-.47-1.4-.6-2.2-.12-2.36,1.66Z"/>
        <path class="cls-2" d="M328.49,721.61l1.64-.77c-.78-.19-1.89-.91-2.43-.88l.79,1.65Z"/>
        <path class="cls-2" d="M350.88,832.37c1.4,1.48,3.52.38,2.85-.33-1.4-1.48-3.52-.38-2.85.33Z"/>
        <path class="cls-2" d="M346.77,780.2l.43-1.22c-.93.12-1.08.53-.43,1.22Z"/>
        <path class="cls-2" d="M363.18,818.93l.43-1.22c-.94.13-1.08.53-.43,1.22Z"/>
        <path class="cls-2" d="M284.42,675.81c-.41-.13-.81-.29-1.22-.43l.19,1.41,1.03-.98Z"/>
        <polygon class="cls-2" points="304.72 651.5 309.83 650.56 304.96 648.83 304.72 651.5"/>
        <path class="cls-2" d="M329.19,769.85c.12-.38.24-.88.43-1.22l-1.41.17.98,1.04Z"/>
      </g>
    </g>
  </g>
</svg>