<?xml version="1.0" encoding="UTF-8"?>
<svg id="_레이어_2" data-name="레이어 2" xmlns="http://www.w3.org/2000/svg" xmlns:xlink="http://www.w3.org/1999/xlink" viewBox="0 0 399 1000">
  <defs>
    <style>
      .cls-1 {
        fill: none;
      }

      .cls-2 {
        fill: #e6e7e8;
      }

      .cls-3 {
        clip-path: url(#clippath);
      }
    </style>
    <clipPath id="clippath">
      <rect class="cls-1" width="399" height="1000"/>
    </clipPath>
  </defs>
  <g id="Layer_1" data-name="Layer 1">
    <g class="cls-3">
      <g>
        <path class="cls-2" d="M283.21,124.32c3.37.55,6.9.71,10.3,1.12-1.82-2.89-2.43-4.86,1.61-5.49l1.66,8-1.1.42c.95,1.63,2.73,3.19,3.69,4.68.5.78.73,2.54.84,2.62,1.41.99,5.85-2.3,4.51,4.29-1.4,6.9-6.96,15.74-9.72,22.86l.58-.08c.16-.16.26-.46.5-.65,1.06-.86,3.65-1.73,4.96-2.42.16-.08.41,0,.58-.08,2.45-2.44,4.1-5.51,5.92-8.42-.09-2.04-1.9-.46-2.55-1.78-1.68-3.39,2.29-4.76,4.43-6.1-.4-2.01-.05-4-1.42-6.27.11-.15,2.3.2,2.39.28.33.33-.75,8.02,1.23,9.21.9-.46,1.85-.69,2.81-.96.18-.05.4-.02.58-.08.78-1.19,2.12-1.23,3.31-1.62.18-.06.4-.02.58-.08.77-1.21,2.15-1.2,3.31-1.62.18-.06.4-.01.58-.08l1.08-.73c.18-.07.4,0,.58-.08l1.32-.65c.12-.07.24-.12.33-.16.17-.07.4,0,.58-.08l1.08-.73c.17-.07.4,0,.58-.08l1.22-.59c.16-.08.31-.16.44-.21.17-.07.4,0,.58-.08l1.08-.73c.17-.07.4,0,.58-.08l1.18-.57c.18-.09.34-.18.48-.23.17-.07.41,0,.58-.08l1.08-.73c.17-.07.41,0,.58-.08l1.65-.81c.17-.08.41,0,.58-.08l1.08-.73c.17-.08.41,0,.58-.08l1.65-.81c.17-.08.41,0,.58-.08l1.08-.73c.17-.08.41,0,.58-.08l.94-.46c.27-.14.52-.26.71-.35.17-.07.41,0,.58-.08l1.08-.73c.17-.08.41,0,.58-.08.19-.82,1.04-.66,1.65-.81l-1.62-3.3c1.6-.58,3.47.77,3.27,2.49.19-.05.4-.02.58-.08l1.65-.81c.18-.07.4,0,.58-.08l1.08-.73c.17-.07.4,0,.58-.08l1.2-.59c.17-.09.32-.17.45-.22.17-.07.4,0,.58-.08l1.08-.73c.17-.07.41,0,.58-.08l1.15-.56c.19-.1.36-.18.5-.25.17-.07.41,0,.58-.08l1.08-.73c.17-.08.41,0,.58-.08l1.65-.81c.17-.08.41,0,.58-.08l1.08-.73c.17-.08.41,0,.58-.08l1.65-.81c.17-.08.41,0,.58-.08l1.08-.73c.16-.08.41,0,.58-.08l2.15-1.46c.07-.13-.13-.4-.08-.58l.35-1.81c.03-.18-.1-.39-.08-.58l.35-1.81c.02-.19-.09-.39-.08-.58l.27-2.38c0-.19-.08-.39-.08-.58l.35-1.81c0-.19-.05-.39-.08-.58-.09-.77-.21-1.54-.31-2.31-1.02-.38-2.54-1.73-3.01-2.61-.47-.86.16-.98.17-1.12.05-1.97.5-3.56,1.04-5.42-2.94,1.71-5.43,1.58-8.5,2.31-.82-2.77,5.81-4.83,7.73-3.65.67.42.67,1.27.77,1.34.89.6,1.98,1.36,3.12,1.34.02-.19-.09-.39-.08-.58l.35-1.81c.01-.19-.09-.39-.08-.58l.27-2.38c0-.19-.08-.39-.08-.58l.35-1.81c0-.19-.07-.38-.08-.58-.01-.38-.15-.77-.15-1.15-1.46.1-1.81.91-1.65-1,.15-1.79.71-3.54.8-5.33-.63,0-1.21-.18-1.8-.37l-9.23,1.23c.03.15-.15,2.64-.19,2.96-.41-.05-.64-.2-.84-.41-.16-.17-.29-.36-.47-.58-.05-.07-.04-.18-.04-.29l-.04-.29c-.38-.48-1.18-.82-1.39-1.58-.17.07-.42,0-.58.08-.24.12-.65,1.05-1,1.31,1.2.14,2.29,1.85,3.27,2.5-.29.32-.18,1.24-1.19,1.26-1.36.03-3.81-2.04-5.81-.9,1.34,2.69,4.75,3.67,5.03,6.95-1.47-.29-1.14-1.97-2.16-2.92-1.13-1.05-3.82-.49-2.64-2.3-1.15.05-2.33.43-3.47.46-2.7.06-2.72-1-3.92-3l.58-.08c.3-.41,1.41-2.36,1.42-2.54.02-.2-.58-.78-.73-1.08.84-1.88.13-2.84-.62-4.61-1.31.18-1.62.37-2.46-.85-.39-.56-.54-1.58-.89-2.23-.18-.03-.4.11-.58.08.29,1.03.12,2.54.46,3.46-1.01.26-2.2-1.36-1.65.81l-.58.08c.09.37.32,2.3.39,2.88-.87.62-.28,2.03-.19,2.96.54-.16.46-.16.5-.65l.58-.08.65.5c-.69,1.34-1.27,1.04-1.58,1.38-.11.12-.08,1.81-2.07,2.04-.7-1.17.8-1.44.92-1.88.05-.19.34-1.72.35-1.81.01-1.41-.21-4.19-1.75-4.46,0,.52-.11,1.12-.36,1.8.07.82.27,5.06.12,5.27-1.03,1.37-2.13-.84-2.54-1.43-.5-.72-.4-2.01-1.96-1.49.27.5.53.92.57,1.38.02.29-.04.58-.26.92-.31.08-.84.17-1.15.15l-3.58-4.81c.04-.08.94-1.25,1-1.31.2-.2.34-.52.5-.65-.15-.06-.27-.1-.38-.14-.1-.03-.18-.04-.24-.05-.72-.27-1.4-.72-1.91-1.24.62.33.87.35.99.23.27-.26-.11-1.21,1.23-1.1l.31,2.3c.35-.29,4.45-2.83,4.72-2.9.98-.25,1.17.75,1.47.9.22.11,1.01-.27,1.15-.15-.15-.53-.11-1.17-.23-1.73,1.22-.15.07,2.02,1.8.34-.07-.37-.78-1.08-.81-1.65-.14,0-.59-.55-1.41-.37-1.93.4-3.92,1.85-6.01,1.95.42-1.79,2.66-1.35,4.06-1.83.66-.23.75-1.14.82-1.16l-2.04-2.08-.58.08c-.38.08-.77.09-1.15.15-.64,1.47-1.6,1.03-2.81.96-.37-.02-.9.23-1.15.15-.29,1.17-1.3-.14-1.31-1-.09-.13,0-.39-.08-.58-.7-.49-1.04-1.25-1.36-2.01-.29-.68.41-.76.4-.8-.09-.34-2.93-2.13-4.23-5.31l-3.85-2.42c.15-.21-.01-.31-.09-.43-.02-.03-.04-.07-.04-.1-.01-.15.19-.35,1.13-.78.63.38.6,1.2.86,1.5.04.03.07.05.11.08.1.05.22.06.41,0l.43-1.23c-.31-.56-.99-.8-1.23-.94-.03-.02-.05-.04-.08-.06-.54-.82-.92-2.77-1.86-3.66-.47-.45-1.38-.57-1.98-.87-.1-.06-.2-.13-.31-.2-3.17-2.74-6.63-5.58-9.39-8.73-1.09.13-2.78.77-3.54-.11-.77.09-1.55.17-2.31.31-.98.17-3.47.21-3.95.61-.23.19-1.06,5.15-1.05,5.93.04,4.12,3.17,12.17,1.92,15.19-.57,1.38-2.74,1.75-1.68,4.15-2.5,3.45-5.19,10.78-6.8,15-.39,1.03-.13,2.71-1.27,3.69-.03.18.1.39.08.58l-.42,1.23c-.03.19.1.39.08.58l-.42,1.23c-.02.19.09.39.08.58l-.42,1.23c0,.19.06.38.08.58.02.19.05.39.08.58.44,2.91,1.4,5.18,2.23,7.92.11.36.05.79.15,1.15-2.08,1.46-3.4,3.62-5.15,5.39-.19.19-.31.46-.5.65-.04.18.11.39.08.58l-.42,1.23c-.03.18.11.4.08.58l-.42,1.23c-.03.18.11.4.08.58l-.42,1.23c-.04.18.12.4.08.58l-.42,1.23c-.04.18.12.41.08.58-.46,1.76-.64,2.34-2.5,3.27.08.02.42.76,1.12.87ZM301.77,77.48c.04.14.07.3.06.47-.34.23-.43,1.63-1.58,1.39l-.08-.58c.15-.37.38-.87.42-1.23l-.15-1.15-.08-.58c.25.42,1.17.87,1.4,1.69ZM306.05,89.72c-.2.04-.48-.39-.37-.54.24-.31.99.41.37.54ZM307.18,87.22c-.45-.31-.9-.63-1.31-1-.31-.28-2.14-1.96-2.04-2.07,2.29.08,1.36-.91,1.57-1.39l-.61-.22-.11-.86,1.3,1c3.87-.1.49,2.04.32,2.32-.44.71,1.77.62,1.91,1.2.07.31-.93.8-1.03,1.02ZM314.71,125.84c.63-1.83,6.73-1.8,7.45-1.28,1.02.73-.06,1.03-.64,1.32-2.36,1.21-4.93,2.39-6.81-.03ZM345.64,80.63c.15.56-.45.84-.47.91l-.15-1.15c.08.06.48-.11.62.24ZM346.86,85.43l.5-.65c.04.41-.51.61-.5.65ZM346.9,81.32l-.34-.12-.26-.09.25-.17.28-.19c.04.11.11.47.08.58ZM344.83,83.36c0-.21-.12-.43-.08-.58l.58-.08c.04.39.12.77.15,1.15-.18-.19-.47-.31-.65-.5ZM345.06,85.09l.04.29c-.03-.1-.07-.2-.04-.29ZM340.4,89.82l.15,1.15-1.73.23c.08-.86.75-1.45,1.57-1.38ZM339.22,94.09c.38.75-.9.6-1.08.73-.11-.49.07-.55.5-.65.14-.03.56-.1.58-.08ZM332.64,93.2c-.03-.9-.99-3.23.11-3.53l1.04,3.38c-.37.09-.78.06-1.15.16.05,1.21.84,2.92-.69,3.61-.04-2.31-1.42-3.05.69-3.61ZM337.37,89.05c.12.1.31,2.26.39,2.88.05.38.1.77.15,1.15-.27.11-.44.13-.53.06-.1.02-.21.05-.31.07v.12c.42.03.7.12.86.26.03.08.07.16.13.23.01.09,0,.2-.06.32.02.03.05.06.07.1-.04,0-.07,0-.11,0,.02-.03.03-.06.04-.09-.6-1.01-2.19-.34-2.62-2.48-.04-.18-.1-.43-.08-.58.06-.35,1.52-2.52,2.07-2.04ZM333.91,87.71c-.47,0-1.08-.1-1.46-.35l-.23-1.73c.9-.08,1.5,1.27,1.96,1.5l-.27.58ZM331.68,99.2l.15,1.15c-1.23.24-1.99.65-1.88-.92.56-.12,1.16-.11,1.73-.23ZM330.01,97.67l-.08-.58c.4.14.43.33.08.58ZM329.91,102.59c.3.05,3.82-.02,3.96-.16.11-.12-.25-.88-.15-1.15,3.9,2.12-.7,4.18-1.28,5.44-.09.19.07,3.65.5,4.05.92-1.34.57-2.97,1.45-4.45,1.32-2.24,3.21-4.56,5.03-6.4-3.08-1,.83-1.09-.27-2.01-1.8-1.49-2.53,1.42-2.57-1.72l.58-.08c1.34-.22,2.6,1.09,3.34,1.62.13.04.28.11.43.22.26.02.9-.53,1.4-.51,1.38.06,2.16.98,3.79-.19l-1.88-.92.99-1.31-1.65.8c.28-1.37-.78-2.99,1.34-3.11.1.73-1.22,1.97.51,1.69.52-.08-.06-.71.57-1.24.31-.26,1.12-.05,1.3-.18.6.85,2.04.3,2.96.19.19-.02.39-.03.58-.08,1.37-.32,2.65.05.96-1.6-.87-.67-1.42.28-1.62,1.1-.41-.36-.92-.62-1.31-1-.08-.07.09-.64-.3-.97-.26-.22-1.1-.1-1.67-.53l.25-.61s.07-.01.11-.02c1.27-.36,1.94.83,3.09,1.22.65.21,1.56-.22,1.89-.13.2.06,2.53,2,3.27,2.5,2.22,1.48,6.09,4.08,6.19,6.8.02.48-.55,2.39-.77,3.04-.64,1.89-4.67,6.36-2.95,7.94.21.19,3.43.41,3.59,1.13.08.37-1.14,7.18-1.37,7.48-.08.1-1.48-.62-2.53-.19-.46.19-2.99,3.77-2.79.05,0-.12,1.15-1.19,1.56-1.72.61-.8,1.91-1.23,1.42-2.54-1.15.19-2.6.79-2.07,2.04-1.07.28-2.85.42-3.12.52-.71.26-.48,2.04-2.17,2.41-2.76.61-6.95.63-9.97,1.45-.71.19-1.53.59-2.23.89-.18.08-.43,0-.58.08l-.16.21c-.09.15-.19.34-.34.44-.35.25-.76.46-1.08.73-.18.16-.45.83-1,1.31-3.73,3.24-4.46,3.34-9.72,3.58l-5.77-.91c2.38-.03,3.96-1.05,5.17-3.04l.1,2.92c3.13-1.74,5.13.08,7.92-2.23.49-.41,1.18-.94,1.58-1.38,1.05-1.19-.74-1.24,2.08-2.04.54-.15,1.19-.08,1.73-.23.14-.04.33-.49.5-.65-1.68-.11-1.5.95-2.26-1.47-.46.03-2.22,1.78-2.36,2.08-.71-.92-.48-2.49-1.18-3.53-1.33-1.98-1.7.2-3.07.59-1.26.36-2.53-.39-3.79-.09.21.74,1.83,2.14.03,2.34-.5.06-.41-.92-1.09-1.27-.75-.39-1.7-.83-2.48-1.19-.66-.31-1.62-.48-2.46-.85-.14-.03-.24-.06-.31-.1.1.02.2.05.31.1l-.08-.58c2.28-.24,1.38-1.14,1.58-1.38.04-.05.86-.14,1.15-.15.24-.01.76.62,1.21.17.54-.54.24-1.13.37-1.55-.63-.18-1.28-.88-1.6-.96-.31-.07.44,1.07-1.86,1.42-.19.03-.38.05-.58.08l-.58.08s-.73.14-1.06,0c-.06-.03-.12-.06-.15-.12-.21-.43-.31-.72-.33-.92-.12-1.06,1.93.51,2.03.4.1-.12-.21-.82-.15-1.15.03-.17-.06-.43.11-.54.03-.02.05-.04.09-.05l1.52.37c0-.62-.78-1.88-.39-2.88-1.06.72-2.14,1.52-3.22,2.19-.13.08.13-.21-.99.67-.34.27-1.1.1-1.24.22-.21.18.66.77.73,1.07,2.41.61,1.31,1.64,1.46,2.15l-3.46.46.27-2.38c-.09-.06-.12-.79-.5-1.07-.51-.37-1.47-.39-1.52-.72-.15-1.08,2.01-3.46,2.15-5.09.21-2.28-.6-3.04-1.09-4.72,3.96-.12,1.37-.97,1.62-2.19.24-1.14,1.78-1.99-1.01-2l-1.35,3.12c-1.08-2.95.5-5.08-4.08-4.16.16-1.53,3.34-.94,1.59-2.54-1.43-1.31-.25-.72-.4-1.72-.34-2.24-1.97-5.59-.13-7.61l.51,1.69c-.77.46-.45.45-.42,1.23.01.38.11.78.16,1.16.41.04.45-.65.49-.66.6-.03,1.42.5,1.88.92.35.32.88-.08.15,1.15-.33.11-.58.44-.77.61-.09.08-.16.12-.22.09-.08-.03-.14-.18-.18-.52-.02-.16-.04-.35-.06-.6-.35.65-.68.91-.35,1.81.55-.28,1.69-.8,2.23-.89,3.74-.58,3.06,1.78,4.8,2.88.16.1,2.8,1.08,3.39,1.31,1.64.64,2.31.16,2.38.27.26.37.04,1.8.32,2.51.25.63,1.16.16,1.22.22.33.31.49.82,1.38,1.58.95.8.51,1.84,2.77,2.2ZM348.76,92.17c.06.01.12.01.19.04.14.05.16.19.09.34-.02.05-.06.1-.11.15-.2.22-.59.4-1.05.23-.04-.02-.07-.04-.09-.07-.04-.05-.05-.11-.03-.18.06-.25.42-.57.91-.53.03,0,.06.01.1.02ZM322.77,87.49c.42.07.34.53.37.53l-1.08.73c0-.05.01-.1.02-.15-.04-.41-.56-1.31.69-1.12ZM329.25,85.44c.42.15-.21,1.02-1.07.72-.42-.15.21-1.02,1.07-.72ZM327.26,83.66c.05.88-.94,2.45-1.31,3.4-.16.41.71,1.44-1,1.31-.1,1.25-.78,2.52-1.27,3.69-.64.66-.89.69-1.01.52-.15-.2-.11-.66-.3-.75-.31-.14-.61.56-1.65.04.52-.47,1.07-.9,1.58-1.39.91-.87,1.63-1.87,2.58-2.69-.05-.58-.17-1.15-.23-1.73.13-.13.84-.04,1.15-.15,0-1.13.39-1.7,1.14-2.5l.33.25ZM324.41,79.92c.72-1.38,1.63-1.36,2.34-.03l-2.34.03ZM319.59,61.48c-.1.06,0,.76-.49.65-.22-.7-.07-1.7-.32-2.31,1.56-.48,1.49.34.81,1.65ZM318.24,55.79c1.49.47,1.41,2.41,2.89,2.5.12,0,.24.03.38,0,.1.34-.04.48-.2.55-.13.06-.28.06-.3.09l-.58.08c-.51-.63-1.72-.81-1.73.23-.06-.14-1.44-.23-1.54-2.44-.07-1.49.3-.66,1.07-1.02ZM301.1,68.07c.67-1.38,1.2-2.24,1.84-3.77-.53.69-1.86-.27-1.3-1,.56-.73,1.84.3,1.3,1,.07-.17.85-.39.92-1.08.07-.67-.64-1.15-.65-1.3-.12-2.92.86-5.43.65-8.31.06-.17-.16-.51-.08-.58l.21-.6.36.53c.08.06,0,.39.08.58l-.11-5.27c.8-.23,1.29,1.44,1.39,1.93.29,1.44.22,8.52.64,8.95l-.58.08.08.58.08.58.15,1.15c-.19,0-.38.07-.58.08-.28,1.61,1.54,1.5,2.38.27,2.71.59,12,7.41,12.81,9.73.14.4-.14,1.03-.16,1.49,1.91-.78,3.66-3.28,4.01-5.23,1.18-.26.52,1.53.27,2.03l1.76.05-2.85,5.07-.3-2.3c-.44-.25-2.29,1.14-2.73,1.53-3.52,3.18-.32,7.08-5.69,10.15-.28.16-.57.71-1.08.73l-.58.08c.64.57,1.71,2.24,2.77,3.15l-.21.6c-.76-.87-2.84-1.58-3.23-2.7-.1-.29-.1-.62.09-.98l-.08-.58c-.71-.28-2.02.05-2.81-.39-2.48-1.38-2.54-7.75-6.42-7.19-1.29-1.38-2.85-4.2-3.16-6.04-.29-1.71.18-1.83.77-3.04Z"/>
        <path class="cls-2" d="M305.41,82.76l.58-.08c-.16,0-.57.05-.58.08Z"/>
        <path class="cls-2" d="M276.04,128.64l-.26.35c.1-.09.18-.21.26-.34,0,0,0,0,0,0Z"/>
        <path class="cls-2" d="M253.06,156.69c3.61,3.3,6.8,7.66,9.77,11.61.1.14-.02.44.08.58,1.57.72,2.43,2.36,3.42,3.65,2.07.07,7.23-2.4,8.75-2.25.52.05,5.57,5.68,6.52,6.66.26.6.15.98-.11,1.2-.33.27-.9.27-1.38.06-.61-.28-2.8-4.35-4.04-4.57-1.28-.23-4.13,1.68-5.89,1.32.08.37.05.8.16,1.15.08.27,1.26,1.99,1.46,2.15.24.19.87.24,1.23.42.57.29,1.41.25,1.88.92.17.05.4-.12.58-.08l.65.5c.18.04.4-.11.58-.08.73.15,1.74.06,2.38.27l3.88-1.69c.8.8,1.44,1.68,2.62,2,1.27-2.3,2.51-4.65,3.77-6.96-.1-.78-2.83-3.98-3.58-4.81-.37-.41-1.38-.89-1.96-1.5l.13-1.16v-.03c.06.02.11.07.16.1.86.46,1.52,1.46,2.17,1.94,1.36.97,2.78,1.9,4.42,2.34.12-.21.4-.39.5-.65-2.96-1.01-1.14-4.35-.48-6.32,2.28-6.78,5.28-11.13,7.12-18.64.26-1.05.54-1.84.77-3.04l-.73-1.08c-.28.95-.42,1.97-.77,3.04-1.44,4.45-5.99,17.97-8.91,20.9-1.85,1.85-4.37.97-6.5-.05,2.33-3.39,4.16-7.1,5.68-10.93,2.71-6.82,3.33-14.88,8.34-20.29-3.04.51-17.73.76-18.99-1.97-.43-.92.03-2.17.11-3.14-.07.05-.18.05-.29.04l-.29.04c-.09.08-.16.2-.24.31-.08.13-.16.27-.26.34-1.06.91-2.08,1.86-3.15,2.77-.12.11-.45-.03-.58.08-.9,1.72-3.02,3.18-4.97,4.68-.91.84-1.83,1.66-2.75,2.48-1.11,1.32-1.6,2.78-.7,4.53l-2.03-2.07c-.12.11-.46-.03-.58.08-1.26,2.15-3.86,3.72-5.89,5.36-.54.5-1.07,1-1.61,1.5-.5.6.11,1.98-1.27,1.98l2.46,3.15c-6.59-3.99-4.62-1.84-1.71,2.59.1.15-.02.43.08.58ZM273.53,178.02c-.48-.13-1.36-.95-1.92-1.21l1.11-.44c1.6.41,3.43.66,4.88,1.4-.94.27-3.21.49-4.07.25ZM272.37,160.56l-2.44,1.5c-3.58-2.52.32-4.45,2.44-1.5ZM267.86,157.64l-1.8-.34.59,2.26c-4.68-2.35-1.24-6.26,1.2-1.92ZM263.24,153.86c-.25,1.09-1.64.43-1.67.52-.32.84,1.25,1.97,1.53,2.73-.62.77-2.75-1.31-3.19-1.92-.21-.29-.02-1.39-.23-1.73l3.56.4ZM255.1,149.95c.81.32,2.21.29,2.81.8.55.47-.23,1.14-.2,1.2-2.29-.11-.15,1.51.91,2.52l-.53.36c-2.19-.95-3.72-2.39-3-4.88Z"/>
        <path class="cls-2" d="M319.74,45.03c.52-.06,1.04-.14,1.56-.22-.48.03-1,.09-1.56.22Z"/>
        <path class="cls-2" d="M325.39,47.79c-.08-.43-.21-.79-.37-1.13.11.39.22.77.37,1.13Z"/>
        <path class="cls-2" d="M320.97,49.86c.54.44,2.88,2.3,3.26,2.52.64.38,1.58-1.03,2.2-1.2-.06-.18-.03-.39-.08-.58-.05-.19-.02-.4-.08-.58l-.81-1.65c-.07-.18,0-.4-.08-.58-1.93-3.93-2.25-1.91-5.65-2.77-.58.06-1.15.16-1.73.23-.39.05-.77.11-1.15.15.8,1.44,2.86,3.43,4.12,4.44Z"/>
        <path class="cls-2" d="M358.32,83.31c.37.29.61.44.8.47.09.01.18,0,.25-.04.21-.14.35-.56.61-1.24.2-.54-.76-1.4.71-1.26l.37.53c.06-.4.39-1.47.63-1.85.83-.1-.49,1.99,1.67,1.54,1.17-.24,1.23-.45,2.96.19l.5-.07h.07c.07-.29-.18-.8-.15-1.16-.42-.48-1.15-.82-1.39-1.58-1.04-.15-2.17.02-3.04-.77-.19-.01-.39.08-.58.08-.55-.01-1.19.26-1.73.23.39,1.1-2.43,2.77-1.69,4.92Z"/>
        <path class="cls-2" d="M320.56,73.1c-.01.37.15.78.15,1.15.85-1.04.8-1.42-.15-1.15Z"/>
        <path class="cls-2" d="M340.7,74.89c.36.22.61.45.74.7.3,0,.48-.01.62-.04.27-.06.31-.23.46-.69.03-.09-.01-.21-.05-.35l-.03-.23c-.19.01-.38.07-.58.08-.93.06-2.82-.25-2.96-.19.11.48,1.01.74,1.8.72Z"/>
        <path class="cls-2" d="M325.79,85.9c0,.38.14.77.15,1.15.09-.24.13-.45.12-.62.1-.63,0-.82-.27-.53Z"/>
        <path class="cls-2" d="M328.13,55.06l-.08-.58c-3.05-1.74-1.21,1.73.08.58Z"/>
        <path class="cls-2" d="M324.56,59.06c-.31.87.57,1.49.72,1.07.31-.87-.57-1.49-.72-1.07Z"/>
        <path class="cls-2" d="M323.76,61.81l.6.21c-.07-.17,0-.4-.08-.58-.11.1-.2.16-.29.2l-.23.16Z"/>
        <path class="cls-2" d="M351.76,82.1c.09.15.34.23,1.14.17-.35.38-1.13.69-1.65.82.74,1.24,2.41.39,2.05,2.34l-.52.39c1.86,2.66,4.67-3.22.61-4.19.2-.34.24-.85.42-1.23.85.26,1.66.33,2.46.85l.35-1.8c-.62-.06-2.34.4-3.11.47-.17.01-.3.02-.36-.01-.16-.09.16-1.25-.44-1.11l-1.14,2.5c.23.33.06.64.17.83Z"/>
        <path class="cls-2" d="M357.17,86.61c.12.07.19-.02.22-.19.07-.39-.02-1.18.01-1.22-.01.06-1,.45-.42,1.23.07.1.13.15.19.18Z"/>
        <path class="cls-2" d="M350.33,80.57l.07.02.54.18c-.06-.17-.04-.39-.08-.58l-.49.34-.04.03Z"/>
        <path class="cls-2" d="M350.71,79.05c0-.08.89-.08.42-1.23-1.23-.15-1,.7-1.07.73-.17.06-.38.03-.58.08l1.31,1c-.01-.2-.09-.41-.08-.58Z"/>
        <path class="cls-2" d="M344.84,116.89c1.02.21.95,1.6,1.44,1.5.52-.1.14-1.12.63-1.55.36-.31,1.33.17,1.79-.22.54-.46.24-1.34.37-1.55,2.17-3.62,1.35-4.35-2.69-2.57l2.11,2.65c-.88,1.5-2.74-.37-2.95-.19-.05.04.3.98-.23,1.2-1.1.46-2.99.18-4.24.57.46,1.19,2.64-.08,3.77.15Z"/>
        <path class="cls-2" d="M325.76,107.63c-.45.25-1.62-.16-1.69.53-.2,1.94,1.57.09,1.77.05,1.08-.21,1.92-.17,2.96.19-1.61-1.98.47-1.76.31-2.09-.99-2.02-2.23.72-3.34,1.32Z"/>
        <polygon class="cls-2" points="355.14 107.81 354.05 106.21 351.61 107.7 355.14 107.81"/>
        <path class="cls-2" d="M324.73,113.05l.81,1.65c2.26-.24,2.36-2.94-.81-1.65Z"/>
        <path class="cls-2" d="M329.23,115.97c1.03-.75,2.05-.6,1.49-1.96l-1.72.23.23,1.73Z"/>
        <path class="cls-2" d="M350.79,97.24c.64-.07.79-.83,1-1.31-.02-.78-.11-1.06-.27-1.09-.28-.05-.78.65-1.54.74l.08.58.73,1.08Z"/>
        <path class="cls-2" d="M338.26,117.69c.08-.1-.52-.85-.73-1.07l-1.08.73c.1.11-.84,1.72,1.81.34Z"/>
        <path class="cls-2" d="M316.07,114.21c-1.3,2.28,1.33,2.92.58-.08-.18-.05-.42.13-.58.08Z"/>
        <path class="cls-2" d="M326.23,115.49c.61.54,1.02.94,1.84.63l-.15-1.15-1.69.51Z"/>
        <path class="cls-2" d="M357.29,97.54l.58-.08c.02-.12,1.18-1.63-.58.08Z"/>
        <path class="cls-2" d="M344.7,110.97l.08.58c.35-.24.32-.43-.08-.58Z"/>
        <path class="cls-2" d="M312.19,95.96s-.02-.01-.03-.02v.11s.06.36.06.36v.11s.05-.04.07-.05c.26-.21.23-.38-.11-.51Z"/>
        <path class="cls-2" d="M107.41,500.59l.25.96c-.04-.27-.2-.94-.25-.96Z"/>
        <path class="cls-2" d="M23.98,460.66l-.64-.37c.17.15.4.26.63.37,0,0,0,0,0,0Z"/>
        <path class="cls-2" d="M121.59,617.38c-.13-1.06.05-2.07.24-3.11l-4-15.29c-.24.07-4.47.3-5.03.29,0-.69.21-1.12.52-1.51.25-.3.55-.57.89-.91.1-.1.29-.11.48-.12l.48-.13c.73-.75,1.14-2.16,2.37-2.66-.15-.28-.08-.7-.25-.96-.25-.38-1.9-.88-2.41-1.41,0,2.05-2.65,4.24-3.53,6.03-.6-.42-2.12-.04-2.36-1.74-.33-2.28,2.64-6.84.31-9.98-4.26,2.82-5.19,8.76-10.67,9.93.18-2.54,3.08-2.33,4.48-4.25,1.54-2.12.02-6.53,3.33-4.92-.33-1.92-1.21-3.83-1.49-5.74-.67-4.54,1.12-4.78,4.23-7.24l.25.96c.75.42,4.27,1.88,4.57,1.87.33,0,1.2-1.14,1.66-1.46,3.34,1.02,4.82-.37,7.65-2-.57-2.17-.96-2.66.91-4.32.86-.77,2.55-1.23,3.57-1.96,0-.32-.27-.64-.25-.96-1.68.7-4.25.73-5.74,1.5-.65-1.64,1.84-4-1.71-2.62l-.25-.96c-.61.24-3.82,1.02-4.78,1.25-1.22-1.34-3.48-.05-5.03.29.38.88.36.74,1.21.71l.25.96-.71,1.21c-2.4-.89-2.03-1.92-2.66-2.37-.23-.16-3.07.24-3.86-3.06,1.83-1.42,2.58,1.05,3.36,1.15.32.04,2.96.22,3.12.21,2.38-.27,7.02-1.23,7.14-3.88-.88.11-1.91.05-3.11-.24-1.37.29-8.47,1.52-8.86,1.29-2.52-1.45.97-3.76,1.88-4.57,1.11-.99,3.3-1.1,2.11-3.61-.78.55-1.44,1.09-2.21,1.25-.48.1-.99.05-1.61-.25-.2-.51-.46-1.38-.5-1.91l7.35-7.03c.14.06,2.3,1.32,2.41,1.41.37.3.95.46,1.21.71.07-.27.12-.48.15-.68.03-.17.04-.31.03-.42.3-1.26.93-2.51,1.69-3.47-.42,1.1-.4,1.54-.18,1.72.5.4,2.01-.44,2.12,1.85l-3.81,1c.56.53,5.7,6.91,5.87,7.35.62,1.6-1.02,2.13-1.21,2.67-.14.39.67,1.65.5,1.91.86-.37,1.95-.43,2.86-.74.5,2.03-3.38.53-.2,3.11.61-.2,1.65-1.54,2.62-1.71-.03-.24.8-1.1.33-2.45-1.08-3.16-3.93-6.22-4.53-9.72,3.1.33,2.82,4.19,3.93,6.47.52,1.06,2.07,1.03,2.13,1.14l3.07-3.87-.25-.96c-.21-.62-.32-1.28-.5-1.91-2.61-.78-2.07-2.48-2.21-4.53-.04-.63-.57-1.47-.5-1.91-2.04-.25-.03-2.22,1.41-2.41.21-.17.66-.08.96-.25.68-1.28,1.9-2.01,3.1-2.71,1.09-.63,1.36.53,1.43.5.55-.22,2.98-5.39,8.06-8.24l3.28-6.99c.39.21.53-.08.71-.25.05-.04.1-.08.16-.09.25-.05.63.25,1.54,1.75-.5,1.14-1.89,1.25-2.35,1.77-.04.07-.07.13-.11.2-.06.18-.06.38.1.68l2.16.47c.88-.64,1.14-1.84,1.33-2.27.03-.05.06-.09.08-.14,1.27-1.09,4.48-2.13,5.79-3.9.65-.88.67-2.4,1.04-3.47.09-.19.18-.39.28-.61,3.95-5.9,8.02-12.34,12.75-17.63-.44-1.81-1.88-4.52-.54-5.99-.32-1.27-.61-2.57-1-3.82-.5-1.61-1.07-5.8-1.85-6.53-.37-.35-8.91-.71-10.21-.53-6.94.93-19.84,7.87-25.2,6.4-2.45-.67-3.52-4.25-7.34-1.97-6.34-3.49-19.24-6.5-26.69-8.34-1.81-.45-4.6.35-6.49-1.37-.32-.01-.64.26-.96.25l-2.16-.46c-.32,0-.64.25-.96.25l-2.16-.46c-.32.01-.63.23-.96.25l-2.16-.46c-.32.05-.64.18-.96.25-.32.07-.64.16-.96.25-4.81,1.34-8.43,3.44-12.88,5.41-.58.26-1.33.25-1.91.5-2.89-3.2-6.8-4.98-10.15-7.56-.36-.28-.84-.42-1.21-.71-.31-.02-.64.27-.96.25l-2.16-.46c-.31-.02-.64.27-.96.25l-2.16-.46c-.31-.01-.65.27-.96.25l-2.16-.46c-.31-.03-.65.28-.96.25l-2.16-.46c-.32-.03-.66.29-.96.25-3.06-.4-4.07-.58-6.03-3.53-.02.14-1.19.86-1.24,2.07-.23,5.8.25,11.78.26,17.58,4.49-3.66,7.68-5.11,9.59,1.57l-13.14,4.45-.94-1.77c-2.54,1.95-4.81,5.27-7.11,7.18-1.22,1.01-4.13,1.76-4.24,1.96-1.38,2.59,5.08,9.38-6.29,8.5-11.92-.93-27.98-8.44-40.55-11.63l.25.96c.31.24.83.35,1.21.71,1.66,1.6,3.67,5.78,5.12,7.85.18.25.08.7.25.96,4.63,3.62,10.13,5.77,15.43,8.22,3.42-.57.39-3.29,2.48-4.67,5.36-3.54,8.49,2.88,11.2,6.2,3.31-1.09,6.73-.92,10.26-3.7.28.16.15,3.92.03,4.08-.49.63-13.67.41-15.27,3.99.96,1.41,1.55,2.97,2.21,4.53.13.3.12.66.25.96,2.18,1.07,2.51,3.32,3.41,5.24.14.29.11.66.25.96,2.2,1.04,2.47,3.36,3.41,5.24.15.29.1.67.25.96l1.46,1.66c.15.28.1.67.25.96l1.36,2.09c.14.2.26.37.34.52.16.28.09.68.25.96l1.46,1.66c.16.28.09.68.25.96l1.26,1.93c.18.26.34.49.45.69.16.27.09.68.25.96l1.46,1.66c.16.27.09.68.25.96l1.21,1.86c.19.28.37.54.49.76.16.27.09.68.25.96l1.46,1.66c.16.27.09.68.25.96l1.71,2.62c.16.27.09.68.25.96l1.46,1.66c.16.27.09.68.25.96l1.71,2.62c.16.27.09.69.25.96l1.46,1.66c.16.27.09.69.25.96l.97,1.49c.29.43.55.82.74,1.13.16.27.09.68.25.96l1.46,1.66c.17.27.08.69.25.96,1.43.16,1.33,1.62,1.71,2.62l5.23-3.41c1.31,2.57-.57,6-3.52,6.03.12.3.11.67.25.96l1.71,2.62c.15.28.09.68.25.96l1.46,1.66c.16.28.09.68.25.96l1.24,1.91c.18.26.35.51.46.71.16.27.09.68.25.96l1.46,1.66c.16.27.09.68.25.96l1.19,1.82c.2.29.38.57.52.79.16.27.09.68.25.96l1.46,1.66c.16.27.09.69.25.96l1.71,2.62c.16.27.09.69.25.96l1.46,1.66c.17.27.09.69.25.96l1.71,2.62c.17.26.08.69.25.96l1.46,1.66c.17.26.08.7.25.96l2.91,3.32c.24.09.64-.31.96-.25l3.12.21c.3.02.63-.26.96-.25l3.12.21c.32,0,.63-.24.96-.25l4.07-.04c.32-.03.63-.22.96-.25l3.12.21c.32-.05.64-.17.96-.25,1.28-.32,2.55-.68,3.82-1,.43-1.79,2.38-4.64,3.76-5.62,1.35-.96,1.69.07,1.93.05,3.33-.32,6.11.09,9.35.62-3.49-4.6-3.8-8.83-5.66-13.84,4.49-1.96,9.36,8.79,7.76,12.27-.56,1.22-2.01,1.4-2.09,1.57-.82,1.62-1.88,3.63-1.62,5.53.32-.01.63-.24.96-.25l3.12.21c.32-.02.63-.23.96-.25l4.07-.04c.32-.02.63-.22.96-.25l3.12.21c.32-.04.63-.2.96-.25.64-.1,1.27-.41,1.91-.5-.48-2.43-1.91-2.86,1.34-2.99,3.05-.12,6.1.46,9.14.23ZM111.53,571l1.21.71c-.68.16-1.14-.73-1.21-.71ZM119.64,566.84c-.09.15.29.79-.27,1.1-.92.37-1.51-.59-1.64-.6l1.91-.5ZM118.47,570.21l.13-.61.1-.46.34.39.38.43c-.18.09-.77.28-.96.25ZM115.56,566.89l.25.96c-.64.14-1.27.37-1.91.5.28-.34.42-.85.71-1.21.35-.03.7-.29.96-.25ZM111.74,567.89l-.47.12c.16-.08.33-.15.47-.12ZM102.03,534.68c-2.12.08-4.41-.79-6.49-1.37-1.24-.94-1.34-1.36-1.09-1.6.3-.29,1.09-.33,1.2-.66.18-.55-1.07-.92-.41-2.77.9.77,1.74,1.62,2.66,2.37,1.66,1.34,3.49,2.35,5.07,3.78.96-.21,1.91-.53,2.87-.75.25.19.24,1.4.5,1.91,1.9-.24,2.94.3,4.44,1.4l-.36.61c-1.47.27-4.32-1.07-6-1.5-.73-.19-2.28,1.5-2.41-1.41ZM100.58,575.59c0,.11,0,.21-.02.32-.06.25-.29.31-.55.22-.09-.03-.18-.08-.28-.15-.41-.3-.79-.91-.61-1.72.02-.08.06-.12.1-.17.07-.07.17-.1.29-.09.43.05,1.04.59,1.08,1.42,0,.05-.01.11-.01.17ZM100.89,561.53l-.74-2.86c1.47-.04,2.59.97,2.65,2.37l-1.9.5ZM98.68,557c-.64.17-1.27.33-1.91.5-.24-.43-.31-.72-.21-.89-.06-.17-.13-.34-.18-.5h-.2c.03.74-.06,1.23-.26,1.52-.13.07-.26.15-.37.27-.15.04-.34.02-.55-.04-.05.04-.08.09-.15.13,0-.08-.02-.12-.02-.19.06.03.11.04.17.06,1.58-1.22.12-3.77,3.62-4.93.29-.1.71-.26.96-.25.6.02,4.56,2.04,3.86,3.07-.15.22-3.75.99-4.77,1.25ZM84.41,545.42c.31.93.43,1.94.75,2.86l-1.91.5c-.66-2.02-1.5-3.22,1.16-3.36ZM87.41,545.14l.96-.25c-.16.7-.47.79-.96.25ZM102.24,531.56l-1.46-1.66c.09,0,.17,0,.25,0,.68-.16,2.09-1.22,2.03.93-.02.72-.82.68-.82.74ZM95.47,548.65c1.51-.25,5.24-2.34,5.98-.55l-5.47,2.46c-.23-.6-.26-1.31-.51-1.9-2.02.33-4.75,2.02-6.23-.4,3.89-.56,4.84-3.02,6.23.4ZM95.11,558.96c.08.22.29.93.25.96-1.18.8-1.19-1.39-1.46-1.66.79-.29.94,0,1.21.71ZM107.85,541.32c-.16.74-1.77-.13-1.43-1.66.16-.74,1.77.13,1.43,1.66ZM105,549.64c-.11-.79-.06-1.83.28-2.53l2.87-.74c.33,1.49-1.83,2.79-2.12,3.61l-1.03-.33ZM116.14,532.02c2.48.93,2.63,2.46.54,3.94l-.54-3.94ZM146.21,520.06c-.12-.16-1.28.15-1.2-.69,1.13-.51,2.85-.48,3.82-1.01,1.14,2.53-.27,2.59-2.62,1.71ZM151,522.42c-.12-.21-.17-.45-.22-.49l-.25-.96c.95-1,1.01-3.07-.75-2.87.23-.13.09-2.47,3.79-3.1,2.49-.42,1.17.37,1.94,1.6-.48,2.62-3.76,2.87-3.62,5.38.01.21,0,.41.07.65-.55.23-.82.03-.97-.22ZM131.27,490.27c2.46.84,4.02,1.56,6.74,2.32-1.28-.75.06-3.19,1.41-2.41,1.34.79-.13,3.16-1.41,2.41.31.09.83,1.35,2.01,1.32,1.15-.03,1.81-1.32,2.06-1.36,4.89-.81,9.33.32,14.13-.63.3.06.82-.38.96-.25l1.06.23-.81.72c-.09.16-.66.09-.96.25l8.85-1.28c.55,1.3-2.15,2.47-2.96,2.75-2.36.79-14.32,2.14-14.95,2.95l-.25-.96-.96.25-.96.25-1.91.5c-.03-.32-.19-.63-.25-.96-2.77-.13-2.21,2.91.04,4.07-.42,4.69-9.98,21.76-13.73,23.62-.64.32-1.77-.02-2.55.04,1.71,3.06,6.29,5.49,9.64,5.66.68,1.93-2.47,1.19-3.36.88l.28,2.97-9.13-3.75,3.81-.98c.33-.79-2.39-3.62-3.15-4.28-6.1-5.28-12,.93-18.29-7.47-.33-.44-1.31-.81-1.46-1.66l-.25-.96c-.83,1.19-3.42,3.35-4.73,5.32l-1.06-.23c1.31-1.47,2.07-5.11,3.88-6,.48-.23,1.02-.29,1.67-.05l.96-.25c.32-1.25-.51-3.39.07-4.82,1.8-4.47,12.54-5.89,10.77-12.31,2.06-2.46,6.49-5.67,9.51-6.57,2.83-.84,3.13-.07,5.28.66ZM112.1,491.2l.96-.25c.65.17,1.55.45,2.16.46.02,0,.04,0,.07-.02l1.84-.48.96-.25c-.66.51-1.23,2.15-2.55,2.71-.23.1-.49.18-.77.2-.46-.52-2.84-.39-2.66-2.37ZM104.74,498.23c.35,3.88,1.81,2.11,2.67,2.36l.24-1.07,1.42-.37-1.41,2.4c.98,6.5-3.33,1.25-3.84,1.01-1.29-.6-.68,3.11-1.63,3.46-.5.18-1.54-1.41-1.93-1.52.44-.82.87-1.65,1.41-2.41.41-.58,2.86-4.01,3.06-3.86ZM95.82,503.11c-.09-.27.37-.71.68-.75.05,0,.1.02.15.02.57.33-.49,1.75-.83.73ZM36.75,525.22c3.21.68,4.44,10.96,3.71,12.29-1.02,1.87-1.74.11-2.35-.8-2.53-3.73-5.05-7.82-1.36-11.49ZM90.27,599.03c-.81.13-4.15-.43-5.28-.66-3.32-.68-11.68-6.55-13.99-3.32-.28.4.03,5.87-1.15,6.29-.61.22-12.33-.43-12.88-.76-.18-.11.73-2.63-.21-4.3-.41-.73-6.98-4.26-.67-4.7.2-.01,2.25,1.7,3.22,2.27,1.47.87,2.47,2.96,4.57,1.86-.55-1.9-1.87-4.21-3.86-3.07-.69-1.74-1.31-4.71-1.53-5.15-.59-1.15-3.53-.39-4.52-3.16-1.61-4.53-2.51-11.58-4.53-16.5-.47-1.15-1.31-2.46-1.96-3.57-.17-.29-.08-.72-.25-.96l-.39-.23c-.27-.12-.61-.26-.81-.48-.49-.53-.93-1.18-1.46-1.66-.31-.28-1.49-.58-2.41-1.41-6.24-5.6-6.55-6.82-8.05-15.64l.34-9.91c.55,4.01,2.59,6.45,6.2,8.08l-4.89.77c3.58,4.91.93,8.66,5.41,12.88.79.74,1.82,1.8,2.66,2.37,2.22,1.52,1.93-1.5,3.87,3.07.37.88.38,1.99.75,2.87.1.23.89.45,1.21.71-.16-2.86-1.92-2.33,2-4.11-.14-.77-3.47-3.36-4-3.54,1.39-1.39,4.09-1.33,5.7-2.73,3.06-2.65-.68-2.82-1.63-5.04-.87-2.05.12-4.34-.64-6.4-1.2.52-3.22,3.53-3.94.53-.2-.83,1.46-.89,1.92-2.1.5-1.34,1.04-3.04,1.49-4.42.38-1.18.47-2.82.91-4.32.01-.24.05-.41.1-.53-.02.16-.04.34-.1.53l.96-.25c.87,3.79,2.21,2.08,2.66,2.37.1.06.41,1.43.5,1.91.07.41-.89,1.41-.03,2.07,1.02.79,1.96.16,2.69.29.16-1.1,1.22-2.34,1.28-2.89.06-.54-1.7.97-2.78-2.84-.09-.32-.16-.64-.25-.96l-.25-.96c.07-.06-.39-1.2-.21-1.79.03-.11.08-.21.18-.27.68-.45,1.15-.67,1.49-.75,1.76-.42-.46,3.36-.25,3.5.22.15,1.34-.52,1.91-.49.29.02.71-.2.94.07.04.04.08.07.11.15l-.3,2.65c1.05-.14,3.01-1.71,4.78-1.26-1.43-1.64-3-3.28-4.36-4.98-.16-.2.38.18-1.33-1.53-.53-.52-.4-1.84-.63-2.05-.34-.32-1.17,1.27-1.65,1.46-.52,4.18-2.49,2.55-3.32,2.91l-1.49-5.74,4.07-.04c.08-.17,1.31-.36,1.7-1.07.51-.94.34-2.57.9-2.72,1.78-.48,6.25,2.66,9.03,2.57,3.88-.13,5-1.64,7.73-2.83,1.02,6.65,1.91,2.11,4.03,2.28,1.98.16,3.72,2.58,3.16-2.12l-5.53-1.62c4.75-2.43,8.66-.21,6.16-7.73,2.61-.04,2.27,5.44,4.61,2.15,1.91-2.68,1.16-.57,2.82-1.04,3.71-1.04,9.01-4.48,12.8-1.8l-2.74,1.22c-.94-1.21-.86-.67-2.16-.46-.64.1-1.29.35-1.92.52.02.7,1.2.62,1.21.69.18,1.01-.55,2.49-1.16,3.37-.46.66.31,1.46-1.91.5-.25-.54-.86-.89-1.19-1.17-.15-.13-.23-.24-.2-.35.04-.14.28-.27.84-.42.26-.07.59-.14,1.01-.22-1.17-.46-1.67-.96-3.12-.21.58.88,1.7,2.69,1.96,3.57,1.75,6.18-2.37,5.53-3.86,8.68-.14.29-1.23,4.94-1.49,5.99-.73,2.9.21,3.92.05,4.06-.57.52-3.03.44-4.17,1.07-1,.56-.03,1.99-.11,2.1-.45.62-1.28.99-2.37,2.66-1.15,1.76-2.99,1.23-3.12,5.12-.02.52.82,6.44,1.09,6.64.22.16,1.44-.6,1.91-.5-2.75,7.02-7.19-.32-9.44-1.03-.33-.11-6.13.87-6.73,1.68,2.46,1.27,5.13.35,7.79,1.51,4.04,1.76,8.35,4.47,11.83,7.15,1.04-5.39,2.02,1.17,3.33-.88,2.14-3.34-2.93-3.97,2.36-4.69l.25.96c.65,2.21-1.3,4.6-2.04,5.96-.04.23-.12.49-.29.77.02.44,1.08,1.4,1.15,2.25.18,2.34-1.2,3.84,1.1,6.35l1.15-3.36,2.42,1.4-1.69-2.61c2.37.19,4.88-1.94,5.51,1.62-1.21.32-3.58-1.64-2.74,1.22.25.86,1.19-.24,2.22.71.51.47.31,1.88.58,2.15-1.31,1.19-.09,3.5.29,5.03.08.31.14.65.25.96.83,2.25.47,4.47,2.9,1.29.95-1.61-.76-2.34-2.19-2.5.52-.76.86-1.68,1.41-2.41.11-.15,1.1.02,1.57-.7.32-.49-.06-1.88.54-2.92l1.07.3c.03.06.04.12.06.18.88,2.07-1,3.44-1.41,5.46-.23,1.13.7,2.58.61,3.16-.05.35-2.85,4.68-3.53,6.03-2.04,4.05-5.6,11.11-10.18,11.85Z"/>
        <path class="cls-2" d="M173.97,516.88c.21.87.45,1.73.69,2.59-.15-.81-.36-1.66-.69-2.59Z"/>
        <path class="cls-2" d="M170.49,526.99c.7-.22,1.29-.52,1.82-.85-.64.27-1.26.54-1.82.85Z"/>
        <path class="cls-2" d="M162.53,525.98c-.5,1.16,2.06,2.44,2.48,3.46.28-.14.65-.13.96-.25.3-.12.67-.11.96-.25l2.62-1.71c.28-.15.68-.1.96-.25,6.23-4.06,2.75-4.19,3.48-10.1-.23-.96-.51-1.91-.75-2.87-.16-.64-.34-1.27-.5-1.91-2.27,1.64-5.18,5.53-6.63,7.86-.62,1-3.27,5.34-3.56,6.01Z"/>
        <path class="cls-2" d="M126.89,594.56c-.09-.93-.68-1.95-.75-2.87-1.78.89-5.17-3.52-8.65-1.82-.42.68-.62,1.12-.63,1.44,0,.16.03.3.13.41.29.32,1.01.48,2.21.77.95.23,2.2-1.58,2.27.93l-.82.74c.69.02,2.56.35,3.25.68.34,1.39-3.45-.41-2.25,3.14.65,1.93,1.01,1.98.29,5.03l.22.84.03.12c.48.05,1.3-.46,1.91-.5.73-.8,1.15-2.11,2.37-2.66.03-1.78-.49-3.65.66-5.28-.02-.32-.22-.63-.25-.96Z"/>
        <path class="cls-2" d="M126.84,524.11c-.62.05-1.28.41-1.91.5,1.92,1.21,2.56,1.05,1.91-.5Z"/>
        <path class="cls-2" d="M128.01,558.42c-.29.65-.63,1.13-1.02,1.39.07.5.12.81.2,1.03.16.44.45.47,1.25.63.15.03.36-.07.58-.15l.38-.1c-.07-.32-.19-.63-.25-.96-.29-1.56-.17-4.81-.29-5.03-.78.29-1.04,1.86-.84,3.18Z"/>
        <path class="cls-2" d="M105.52,536.16c1.08.03,1.38-.16.84-.57-.64.08-1.27.39-1.91.5.42.11.78.12,1.08.07Z"/>
        <path class="cls-2" d="M6.53,501.45l1.66-1.46c-1.65-.28-3.4-.3-5.28-.66-7.8-1.49-31.53-6.34-37.07-10.66-3.5-2.73-2.54-7.17-1.27-10.97,6.2,3.22,12.83,5.53,19.61,7.3,12.06,3.14,25.76,2.52,35.93,9.83-1.49-5.01-4.97-29.72-.63-32.41,1.46-.91,3.66-.4,5.32-.47-.1-.1-.11-.29-.13-.48l-.12-.48c-.16-.14-.37-.24-.57-.33-.24-.11-.48-.21-.63-.37-1.76-1.59-3.56-3.11-5.32-4.74-.2-.19-.05-.77-.25-.96-3.09-1.15-5.99-4.43-8.92-7.41-1.61-1.37-3.18-2.74-4.76-4.12-2.46-1.59-5.01-2.12-7.78-.23l3.07-3.86c-.2-.18-.04-.78-.25-.96-3.89-1.67-7.07-5.73-10.26-8.81-.96-.81-1.91-1.6-2.87-2.4-1.12-.72-3.31.6-3.59-1.73l-4.8,4.8c5.35-11.93,2.14-8.17-4.72-2.35-.23.19-.74.06-.96.25-4.81,6.77-11.5,13.06-17.53,18.88-.21.2-.75.05-.96.25-.88,2.79-3.46,4.59-5.44,6.53.32,3.51,5.54,11.68,5.6,14.27.02.89-8.4,10.57-9.87,12.37-.96.56-1.63.46-2.05.06-.52-.5-.65-1.46-.38-2.31.34-1.08,6.74-5.61,6.85-7.76.12-2.21-3.69-6.6-3.45-9.64-.6.21-1.34.25-1.91.5-.43.19-3.1,2.54-3.32,2.91-.27.45-.23,1.52-.46,2.16-.36,1.02-.13,2.43-1.16,3.37-.04.3.29.66.25.96l-.71,1.21c-.03.31.27.65.25.96-.09,1.27.27,2.94.04,4.07l3.66,6.19c-1.18,1.52-2.54,2.78-2.82,4.82,4.14,1.66,8.36,3.26,12.51,4.9,1.3-.34,6.12-5.6,7.35-7.03.61-.71,1.21-2.51,2.12-3.62l1.98-.03h.05c-.03.1-.1.19-.13.28-.59,1.55-2.15,2.86-2.81,4.07-1.36,2.49-2.63,5.09-3.03,7.94.38.15.75.6,1.21.71,1.09-5.19,7.09-2.83,10.55-2.12,11.89,2.43,19.85,6.59,32.89,8.12,1.82.21,3.21.52,5.28.66ZM-16.29,429.81c-.37,1.44-.02,3.78-.77,4.91-.68,1.03-1.97-.14-2.06-.09-.29-3.87-2.57.06-4.06,2.06l-.72-.81c1.15-3.89,3.25-6.77,7.61-6.06ZM-24.1,438.99c.45-.42,2.34-.32,2.87-.75l.06,6.09c-1.89-.2-1.07-2.68-1.22-2.71-1.48-.37-3.06,2.51-4.27,3.15-1.42-.88,1.64-4.91,2.56-5.78ZM-26.58,452.91l.2-3.1-3.69,1.47c2.98-8.38,10.29-3.4,3.49,1.63ZM-30.56,461.11l-3.04-3.79c3.49-6.55,7.56-.38,3.04,3.79ZM-58.1,463.21l.55,1c.11.25.25.51.43.78-.35,2.78-.4,5.91-1.35,8.52-.65-1.53-1.49-5.3-1.27-6.81.12-.84,1.31-2.49,1.65-3.49Z"/>
        <path class="cls-2" d="M158.81,533.11l.96-.25c2.3-5.5-3.16-1.68-.96.25Z"/>
        <path class="cls-2" d="M149.67,529.36c1.52.34,2.39-1.27,1.66-1.43-1.52-.34-2.39,1.27-1.66,1.43Z"/>
        <path class="cls-2" d="M146.3,528.21c.28-.15.67-.1.96-.25l-.4-.45-.32-.36-.23,1.06Z"/>
        <path class="cls-2" d="M119.31,581.22c.62.26,1.49.23,2.16.46-.26,1.48-.21,2.87-.91,4.31l3.11.22c-.03-1.06-1.17-3.86-1.44-5.14-.06-.27-.09-.5-.05-.6.12-.29,2.14,0,1.78-.97l-4.45-1.39c-.51.45-1.06.23-1.36.45-.23.18-.31.62-.05,1.96-.71-.51-1.4-1.75-1.72-2.61-1.93,1.51-.16,4.14-3.51,3.94l-.76-.79c-4.09,3.68,6.4,7.2,7.19.16Z"/>
        <path class="cls-2" d="M125.25,576.6c0-2.1-1.39-1.54-1.45-1.66-.14-.27-.13-.64-.25-.96l-1.41,2.41c.34-.06.67-.24.96-.25.13,0,.32,1.48,2.16.45Z"/>
        <path class="cls-2" d="M111.97,588.26c-.15.14-.23.26-.27.35-.09.22.08.31.37.33.68.04,1.98-.28,2.05-.23-.11,0-.97-1.6-2.15-.45Z"/>
        <path class="cls-2" d="M120.45,575.84l-.03.12-.2.94c.27-.14.65-.15.96-.25l-.67-.75-.06-.07Z"/>
        <path class="cls-2" d="M61.78,579.93c-2.71-1.17.06-4.69-.3-5.01-.08-.07-1.59.71-2.08-.14-1.01-1.75-.93-5-1.84-7.03-1.9,1.03.68,4.44.53,6.38-.14,1.76-2.49,1.94-2.23,2.74.28.86,1.92,0,2.74.74.59.54,0,2.28.74,2.96.76.7,1.91.3,2.46.27.07,0,.14.02.23.02,6.56,2.89,7.61,1.36,3.77-5.07l-4.02,4.11Z"/>
        <polygon class="cls-2" points="75.55 589.6 78.02 587.43 75 583.63 75.55 589.6"/>
        <path class="cls-2" d="M60.39,539.45l-2.62,1.71c.88,3.76,5.45,3.36,2.62-1.71Z"/>
        <path class="cls-2" d="M60.01,549.75l-.75-2.86-2.86.75c1.47,1.58,1.44,3.33,3.61,2.1Z"/>
        <path class="cls-2" d="M94.12,578.62l-1.66,1.46c.26,1.06,1.57,1.16,2.41,1.41,1.32-.2,1.76-.41,1.78-.68.03-.49-1.26-1.18-1.57-2.43l-.96.25Z"/>
        <path class="cls-2" d="M57.03,561.77l-1.46-1.66c-.17.19-3.07-1.06-.2,3.11.18.11,1.33-1.06,1.65-1.45Z"/>
        <path class="cls-2" d="M68.78,540.31c.58,1.78.69,3.2.29,5.02,3-3.13,3.06.43,3.59.09,3.2-2.09-1.67-3.61-2.93-5.36-.51-.71-.07-2.77-1.24-2.75-3.31.07.17,2.67.28,3Z"/>
        <path class="cls-2" d="M56.89,526.06c.04-.32-.31-.68-.25-.96-4.11-1.71-4.65,2.86.25.96Z"/>
        <path class="cls-2" d="M57.81,545.22l-1.22-2.74c-.78,1.14-1.36,1.91-.69,3.23l1.9-.5Z"/>
        <path class="cls-2" d="M93.3,591.09l.25.96c.2,0,2.99,1.64-.25-.96Z"/>
        <path class="cls-2" d="M68.06,572.67l-.96.25c.48.54.8.45.96-.25Z"/>
        <path class="cls-2" d="M86.58,514.77s.01-.03.02-.06l-.18.05-.6.16-.18.05s.07.06.1.09c.4.39.68.3.83-.28Z"/>
        <path class="cls-2" d="M319.01,762.84c6.29,6.54,8.96,11.35-1.23,15.18l-8.63-19.96,2.65-1.7c-3.37-3.73-8.84-6.85-12.13-10.19-1.74-1.77-3.27-6.23-3.6-6.37-4.22-1.82-14.01,9.14-14.08-8.75-.07-18.74,9.63-44.79,12.99-64.82l-1.46.51c-.34.51-.44,1.35-.95,1.97-2.29,2.8-8.56,6.48-11.62,9-.37.31-1.08.21-1.46.51-5.06,7.69-7.72,16.56-10.88,25.15,1.33,5.27,5.19.18,7.62,3.27,6.22,7.92-3.41,13.64-8.26,18.29,2.12,5.03,2.29,10.39,7.09,15.56-.21.46-6.1.73-6.37.56-1.05-.68-2.38-21.31-8.18-23.35-2.08,1.68-4.44,2.79-6.79,4.02-.45.24-1.02.26-1.46.51-1.39,3.53-4.87,4.34-7.74,6-.44.25-1.02.26-1.46.51-1.35,3.58-4.94,4.29-7.74,6-.43.26-1.03.25-1.46.51l-2.41,2.49c-.42.27-1.04.24-1.46.51l-3.1,2.4c-.29.24-.55.45-.78.6-.41.28-1.05.23-1.46.51l-2.41,2.49c-.41.28-1.05.23-1.46.51l-2.85,2.21c-.38.31-.73.59-1.02.79-.41.28-1.05.23-1.46.51l-2.41,2.49c-.41.28-1.05.23-1.46.51l-2.75,2.13c-.41.33-.8.64-1.12.87-.41.28-1.05.23-1.46.51l-2.41,2.49c-.41.29-1.06.22-1.46.51l-3.87,3c-.4.29-1.06.22-1.46.51l-2.41,2.49c-.4.29-1.06.22-1.46.51l-3.87,3c-.4.29-1.06.22-1.46.51l-2.41,2.49c-.4.29-1.06.22-1.46.51l-2.2,1.7c-.63.5-1.21.96-1.67,1.3-.4.29-1.06.22-1.46.51l-2.41,2.49c-.4.29-1.07.22-1.46.51-.06,2.25-2.35,2.28-3.87,3l5.99,7.73c-3.85,2.38-9.45-.13-9.86-4.73-.46.22-1.03.26-1.46.51l-3.87,3c-.42.27-1.05.23-1.46.51l-2.41,2.49c-.41.28-1.05.23-1.46.51l-2.82,2.18c-.39.32-.75.61-1.05.81-.41.28-1.05.23-1.46.51l-2.41,2.49c-.41.28-1.05.23-1.46.51l-2.7,2.09c-.43.35-.84.67-1.17.91-.41.28-1.06.23-1.46.51l-2.41,2.49c-.4.29-1.06.22-1.46.51l-3.87,3c-.4.29-1.06.22-1.46.51l-2.41,2.49c-.4.29-1.06.22-1.46.51l-3.87,3c-.39.3-1.07.22-1.46.51l-2.41,2.49c-.38.3-1.08.21-1.46.51l-4.82,4.97c-.11.39.56.97.51,1.46l.08,4.9c0,.48.48.95.51,1.46l.08,4.9c.05.5.45.96.51,1.46l.59,6.36c.08.5.42.96.51,1.46l.08,4.9c.12.49.35.98.51,1.46.66,1.96,1.38,3.89,2.05,5.85,2.86.45,7.55,3.13,9.26,5.16,1.68,1.99.1,2.65.17,3.02.92,5.17.63,9.55.23,14.69,6.74-6.04,13.31-7.06,20.9-10.61,3.63,6.77-12.54,15.74-18.18,13.68-1.97-.72-2.44-2.96-2.72-3.07-2.64-1.08-5.91-2.47-8.84-1.82.06.5.45.96.51,1.46l.08,4.9c.07.5.44.96.51,1.46l.59,6.36c.08.5.43.96.51,1.46l.08,4.9c.1.5.39.96.51,1.46.24.99.8,1.93,1.02,2.92,3.74-1.06,4.23-3.35,4.84,1.71.57,4.75.07,9.59.8,14.31,1.64-.34,3.25-.18,4.89-.02l23.38-8.2c-.15-.37-1.04-6.95-1.1-7.82,1.08-.1,1.78.18,2.42.63.5.35.96.79,1.53,1.27.17.14.21.44.25.73l.26.73c1.26,1.04,3.52,1.51,4.46,3.36.42-.27,1.09-.21,1.46-.51.56-.44,1.13-3.08,1.9-3.95-3.2.28-6.96-3.6-9.87-4.74.58-.98-.2-3.32,2.42-3.91,3.52-.8,11.02,3.25,15.63-.79-4.96-6.3-14.35-6.99-16.87-15.4,3.98-.04,4.04,4.52,7.21,6.45,3.51,2.14,10.21-.79,8.12,4.57,2.96-.76,5.83-2.38,8.78-3.06,7-1.63,7.62,1.14,11.84,5.69l-1.46.51c-.56,1.22-2.39,6.91-2.33,7.38.06.52,1.93,1.72,2.49,2.41-1.17,5.35,1.2,7.48,4.1,11.69,3.31-1.17,4.03-1.84,6.87.87,1.31,1.25,2.25,3.83,3.51,5.33.5-.03.97-.5,1.46-.51-1.31-2.53-1.69-6.55-3.07-8.77,2.48-1.23,6.48,2.36,3.87-3l1.46-.51c-.45-.93-2.07-5.83-2.56-7.31,1.93-2.08-.37-5.45-1.1-7.82-1.32.7-1.11.66-.95,1.97l-1.46.51-1.97-.95c1.08-3.86,2.75-3.41,3.36-4.46.22-.38-.77-4.76,4.29-6.43,2.45,2.68-1.3,4.17-1.37,5.4-.03.51.03,4.66.08,4.9.73,3.69,2.82,10.8,6.97,10.66-.29-1.36-.32-2.98-.03-4.9-.62-2.11-3.45-13.04-3.15-13.68,1.94-4.12,6,1.04,7.38,2.35,1.7,1.61,2.13,5.02,5.92,2.83-.96-1.15-1.89-2.12-2.23-3.29-.21-.73-.2-1.55.18-2.54.78-.39,2.1-.89,2.92-1.02l11.92,10.59c-.07.22-1.77,3.77-1.9,3.95-.42.62-.6,1.54-.95,1.97.42.08.77.12,1.07.15.26.02.48.02.66,0,2.01.31,4.03,1.13,5.64,2.21-1.78-.52-2.46-.44-2.71-.06-.55.83.95,3.09-2.62,3.54l-2.05-5.83c-.76.94-10.07,9.79-10.73,10.11-2.42,1.17-3.46-1.32-4.32-1.55-.63-.17-2.49,1.26-2.92,1.02.68,1.3.93,3,1.52,4.38-3.11,1.05-1.26-5.22-4.88.08.39.93,2.62,2.38,3,3.87.37-.08,1.83,1.1,3.88.21,4.8-2.09,9.22-6.94,14.61-8.32-.11,4.89-6.19,4.94-9.6,6.97-1.59.94-1.35,3.37-1.51,3.48l6.43,4.31,1.46-.51c.93-.41,1.96-.66,2.92-1.02.88-4.17,3.6-3.54,6.79-4.02.97-.15,2.22-1.07,2.92-1.02.13-3.22,3.47-.33,3.95,1.9.3.3.21,1.02.51,1.46,2.09.89,3.38,2.71,4.63,4.5,1.12,1.62-.66,2.19-.6,2.29.42.83,8.8,3.97,13.89,11.54l11.33,4.23c-.27.63.2.81.47,1.07.08.07.13.15.16.24.11.38-.31,1.02-2.53,2.63-1.85-.64-2.2-2.79-3.06-3.45-.11-.05-.21-.09-.32-.14-.28-.08-.61-.05-1.06.24l-.46,3.43c1.12,1.3,3.02,1.55,3.71,1.78.08.04.14.08.23.11,1.86,1.85,3.9,6.72,6.84,8.54,1.45.9,3.84.74,5.56,1.18.31.12.64.24.99.36,9.73,5.43,20.3,10.96,29.17,17.67,2.78-.92,6.82-3.52,9.28-1.61,1.95-.66,3.94-1.29,5.85-2.05,2.45-.98,8.92-2.41,9.96-3.72.5-.63-.03-14-.47-16.02-2.34-10.72-14.82-29.99-13.21-38.55.74-3.92,6.19-6.05,2.15-11.73,4.64-10.35,7.7-30.89,9.62-42.76.47-2.89-1.13-7.14,1.31-10.31-.02-.49-.49-.97-.51-1.46l.44-3.44c-.03-.5-.47-.96-.51-1.46l.44-3.44c-.06-.5-.44-.96-.51-1.46l.44-3.44c-.12-.5-.36-.97-.51-1.46-.15-.49-.33-.98-.51-1.46-2.71-7.34-6.44-12.74-10.1-19.43-.47-.87-.56-2.04-1.02-2.92,4.62-4.93,6.91-11.26,10.51-16.82.39-.6.56-1.37.95-1.97,0-.48-.5-.96-.51-1.46l.44-3.44c0-.49-.5-.97-.51-1.46l.44-3.44c-.02-.49-.51-.97-.51-1.46l.44-3.44c0-.49-.52-.98-.51-1.46l.44-3.44c0-.5-.54-.99-.51-1.46.24-4.84.39-6.43,4.74-9.87-.23-.02-1.5-1.75-3.4-1.67-9.09.38-18.37,1.89-27.44,2.65ZM323.36,892.27c-.19-.35-.34-.74-.41-1.18.76-.79.24-4.48,3.36-4.46l.51,1.46c-.18,1.04-.51,2.48-.44,3.44,0,.03.02.06.04.11l.99,2.81.51,1.46c-.88-.96-3.51-1.64-4.56-3.64ZM305.62,862.7c.41-.17,1.12.45,1.24.92,0,.09,0,.19,0,.28-.45.93-2.8-.54-1.24-1.21ZM304.01,869.83c1.34.58,2.69,1.15,3.95,1.9.95.57,6.63,3.96,6.43,4.29-6.01,1.04-3.07,3.1-3.35,4.47l1.71.24.76,2.18-3.93-1.9c-10.02,2.35-2.38-5.05-2.07-5.87.78-2.09-4.95-.67-5.61-2.11-.35-.76,2-2.58,2.13-3.21ZM263.55,773.25c-.65,5.1-16.56,8.33-18.72,7.37-3.05-1.36-.39-2.71.95-3.78,5.51-4.42,11.57-8.88,17.77-3.59ZM208,900.22c.1.55.54,1.06.51,1.46l-1.46.51c-.3-.98-.74-1.93-1.02-2.92.57.39,1.38.54,1.97.95ZM205.38,906.88l-.56.59-.62.65c-.17-.28-.54-1.17-.51-1.46l.96.13.73.1ZM200.61,897.88c-.34-1.05.99-1.87.95-1.97l-.95,1.97ZM207.35,907.75c-.7-1.39.73-2.43.72-2.63l1.02,2.92c-.25-.12-1.19.55-1.75-.29ZM206.46,895.83l-.25-.73c.14.24.28.5.25.73ZM216.03,880.98l-1.02-2.91,4.38-1.53c.25,2.29-1.19,4.18-3.36,4.44ZM238.89,854.92l.51,1.46c-1.12-.15-1.29-.64-.51-1.46ZM234.44,867.97c-.77-3.12-3.76-7.17-.17-9.79,1.36,6,5.34,7.18.17,9.79.58,2.33,4.32,7.88,1.63,9.27l-4.54-8.24c.91-.44,2.01-.58,2.91-1.03ZM239.62,887.49c-2.29.7-4.59-2.5-5.91-2.85l.39-1.66c1.22-.27,2.85-.33,3.99.12l1.52,4.39ZM233.7,851.82l-1.02-2.92c3.07-1.29,4.83-2.76,5.4,1.38-1.41.61-2.97.92-4.37,1.54ZM218.28,868.71c-.33.16-1.41.57-1.46.51-1.39-1.75,2.02-2.04,2.41-2.49.55,1.2.11,1.47-.95,1.97ZM224.36,881.34c-.36-.2-2.02-5.73-2.57-7.3-.34-.97-.68-1.95-1.02-2.92.64-.43,1.09-.57,1.36-.45.25-.12.51-.24.76-.34l-.03-.31c-1.14.15-1.92.06-2.4-.21-.13-.2-.27-.38-.46-.54-.08-.23-.08-.52,0-.86-.07-.08-.16-.12-.23-.21.12-.01.18-.04.29-.06-.03.09-.05.18-.07.27,2.1,2.32,5.9-.29,8.17,5.03.19.44.5,1.08.51,1.46.04.94-2.61,7.39-4.3,6.42ZM247.46,886.36c-1.17-.16-.02-2.78,2.41-2.45,1.17.16.02,2.78-2.41,2.45ZM252.63,849.53c-1-1.5-3.11.21-3.3.09-1.03-.63-1.72-1.88-4.46-3.36-2.9-1.56-2.31-4.52-8.4-4.23-.81.04-9.96,2.11-10.23,2.56-.23.37,1.12,2.17,1.02,2.93-11.31-3.41-.42-11.28.41-14.88.12-.53-2.14-9.46-3.48-10.3-1.67,4,.11,8.05-1.37,12.37-2.24,6.54-5.91,13.61-9.66,19.39,8.56.94-1.58,3.3,1.8,5.09,5.5,2.91,5.83-5.08,7.63,3.09l-1.46.51c-3.37,1.29-7.36-1.44-9.57-2.42-.37-.03-.78-.13-1.24-.35-.69.08-2.05,1.87-3.37,2.08-3.64.58-6.16-1.39-9.79,2.53l5.4,1.37-1.88,3.95,3.86-2.98c0,3.72,3.65,7.37-1.82,8.82-.66-1.84,2.1-5.8-2.25-4.13-1.31.5.53,1.83-.82,3.55-.67.86-2.9.73-3.28,1.18-2.03-1.89-5.47.31-7.82,1.1-.48.16-1.01.3-1.46.51-3.4,1.59-6.93,1.3-1.65,4.69,2.64,1.28,3.55-1.49,3.62-3.74,1.25.71,2.74,1.13,3.95,1.9.24.15.11,1.73,1.3,2.37.8.43,2.92-.33,4.63.48l-.33,1.72c-.09.06-.18.07-.28.12-3.11,1.63-5.5-1.13-8.71-1.5-1.8-.21-3.94,1.42-4.85,1.35-.55-.04-7.68-3.86-9.87-4.74-6.58-2.67-18.07-7.34-19.81-14.39-.31-1.24.14-6.53.36-8.33.64-5.28,8.74-19.09,3.4-22.28-.66-.39-9.16.79-9.97-1-.41-.92-.91-19.32-.46-20.23.15-.3,4.2.81,6.69-.88,1.09-.74,5.76-11.44,7.25-1.64.05.3-2.36,3.73-3.14,5.32-1.17,2.4-4.31,4.24-2.33,7.37,2.9-1.11,6.34-3.45,4.3-6.42,2.64-1.3,7.19-2.64,7.85-3.05,1.72-1.06.16-5.57,4.36-7.46,6.87-3.09,17.77-5.4,25.2-9.17,1.74-.88,3.67-2.36,5.33-3.51.43-.3,1.12-.22,1.46-.51l.31-.64c.15-.44.32-.99.64-1.33.77-.84,1.72-1.6,2.41-2.49.4-.51.72-2.39,1.9-3.95,7.96-10.47,9.81-11.1,23.41-14.57l15.52-.74c-6.2,1.36-9.74,4.88-11.83,10.72l-1.83-7.55c-7.22,6.21-13.41,2.56-19.43,10.09-1.06,1.33-2.57,3.08-3.36,4.46-2.08,3.66,2.58,2.82-4.31,6.43-1.32.69-3.05.85-4.38,1.54-.35.18-.59,1.45-.95,1.97,4.44-.62,3.4-3.29,6.67,2.6,1.18-.32,4.81-5.85,5.02-6.7,2.35,2,2.6,6.22,4.99,8.56,4.53,4.44,4.32-1.43,7.67-3.19,3.09-1.63,6.8-.36,9.92-1.81-.96-1.81-5.92-4.58-1.33-6.09,1.27-.42,1.57,2.17,3.53,2.73,2.15.61,4.88,1.24,7.09,1.77,1.9.45,4.47.38,6.87.87.37,0,.65.02.85.09-.26,0-.54-.02-.85-.09l.51,1.46c-5.81,1.84-2.97,3.72-3.36,4.46-.08.16-2.18.83-2.92,1.02-.63.16-2.32-1.2-3.24.21-1.11,1.7,0,3.08-.12,4.25,1.73.12,3.81,1.61,4.68,1.63.85.02-1.73-2.54,4.08-4.71.48-.18.98-.33,1.46-.51l1.46-.51c.1.1,1.82-.76,2.77-.56.18.04.34.1.45.24.79,1.01,1.19,1.71,1.36,2.23.88,2.7-5.31-.29-5.51.06-.21.37.98,2.02,1.01,2.92.01.46.4,1.08,0,1.48-.06.07-.1.14-.22.19l-4.17-.13c.36,1.62,3.06,4.49,2.57,7.3,2.38-2.45,4.75-5.11,7.22-7.45.29-.27-.23.62,2.21-2.28.75-.89,2.82-.86,3.12-1.25.45-.58-2.13-1.66-2.49-2.39-6.6-.28-4.31-3.57-4.97-4.82l8.78-3.07.58,6.35c.28.1.73,2.01,1.9,2.53,1.53.68,4.05.21,4.36,1.07.97,2.72-3.36,10.1-2.86,14.43.7,6.05,3.19,7.6,5.4,11.72-10.26,2.44-3.05,3.26-3.05,6.58,0,3.11-3.56,6.14,3.71,4.67l1.83-8.85c4.41,7.1,1.44,13.5,12.87,8.64.4,4.07-8.21,4.24-2.78,7.48,4.44,2.64,1.04,1.74,1.98,4.27,2.1,5.66,8.15,13.5,4.45,19.76l-2.25-4.12c1.77-1.62.93-1.42.44-3.44-.25-.99-.71-1.96-1.05-2.93-1.08.12-.81,1.95-.92,1.98-1.56.42-3.96-.55-5.41-1.39-1.09-.64-2.25.67-1.02-2.92.8-.46,1.28-1.46,1.68-2,.18-.25.35-.39.52-.36.22.05.46.41.76,1.25.14.4.3.9.47,1.54.57-1.89,1.29-2.74-.08-4.9-1.29,1.02-3.98,3.01-5.33,3.51-9.43,3.52-8.94-3-14.06-4.92-.47-.18-7.88-1.29-9.55-1.57-4.63-.77-6.09.83-6.34.59-.88-.82-1.07-4.67-2.2-6.38ZM193,879.38c-.17,0-.32.03-.51,0-.4-.06-.51-.41-.41-.83.04-.15.1-.3.2-.45.41-.68,1.32-1.35,2.62-1.17.12.02.2.07.27.14.12.1.18.26.17.45-.02.68-.79,1.7-2.08,1.86-.08.01-.18,0-.26,0ZM264.43,874.26c.34,1.04,2.17,3.11-1.19,3.28-1.13.06-1.17-1.2-1.25-1.19l2.41-2.49c-.04.1-.02.23.03.39ZM254.61,890.43l-1-.48c-.6-2.26,1.13-6.88,1.59-9.57.2-1.16-2.63-3.37,1.9-3.95-.4-3.31.68-6.99,1.31-10.31,1.31-2.06,1.95-2.27,2.36-1.9.48.43.65,1.66,1.18,1.79.88.21,1.29-1.79,4.28-.99-1.1,1.5-2.31,2.93-3.36,4.46-1.89,2.76-3.23,5.76-5.26,8.41.45,1.48,1.06,2.91,1.54,4.38-.26.41-2.16.55-2.92,1.02.62,2.94-.1,4.63-1.61,7.12ZM256.97,899.47l6.09-1.34c-1.14,3.99-3.51,4.42-6.09,1.34ZM286.5,941.62c.94,1.7,1.11,4.39,2.07,5.84-3.81,2.1-4.08-.09-3-3.87.24-.21-.39-1.98.93-1.97ZM292.15,957.68c-4.15-.42-4.96-5.51-8.87-4.97-.33.05-.63.06-1.01.19-.44-.84-.15-1.28.23-1.54.32-.22.69-.32.73-.4l1.46-.51c1.68,1.36,4.92,1.19,4.38-1.54.23.34,3.87-.18,5.32,5.53.98,3.84-.43,1.87-2.25,3.24ZM327.81,965.51c-1.54-3.59-5.17-22.1-6.51-22.97l1.46-.51-.51-1.46-.51-1.46-1.02-2.92c.5-.09.97-.38,1.46-.51-.14-4.34-4.82-3.09-6.36.59-7.37-.06-35.26-12.82-38.65-18.44-.58-.96-.19-2.77-.39-3.97-4.56,3.07-7.77,10.53-7.61,15.79-2.92,1.3-2.18-3.71-1.81-5.13l-4.61.81,4.7-14.75,2.02,5.83c1.28.41,5.35-4.2,6.29-5.47,7.46-10.2-2.98-18.63,9.34-29.53.65-.58,1.09-2.15,2.41-2.49l1.46-.51c-1.97-1.15-5.66-4.92-8.92-6.72l.22-1.69c2.46,1.85,8.25,2.59,9.87,5.3.43.71.58,1.56.29,2.6l.51,1.46c1.99.34,5.24-1.23,7.54-.51,7.22,2.25,10.8,18.84,20.61,15.26,4.11,2.91,9.69,9.41,11.48,14.03,1.67,4.31.51,4.88-.36,8.33-1,3.96-1.92,6.48-2.77,10.82,1.01-2.1,4.99-.31,3.94,1.89s-4.95.21-3.94-1.89c-.1.49-2,1.46-1.8,3.31.19,1.79,2.29,2.66,2.39,3.04,1.89,7.54.68,14.62,2.79,22-.06.48.7,1.24.51,1.46l-.23,1.69-1.23-1.18c-.26-.12-.23-1.02-.51-1.46l3.13,13.66c-1.96,1.02-4.14-3.04-4.67-4.28Z"/>
        <path class="cls-2" d="M311.04,880.5l-1.46.51c.41-.1,1.45-.44,1.46-.51Z"/>
        <path class="cls-2" d="M362.78,745.06l.5-1.05c-.21.28-.36.66-.5,1.04,0,0,0,0,0,0Z"/>
        <path class="cls-2" d="M408.04,661.04c-.33-.33-.18-1.14-.51-1.46-11.19-6.66-21.87-16.29-31.73-24.98-.34-.3-.17-1.16-.51-1.46-4.47-1.02-7.61-4.83-10.89-7.67-5.44.95-17.55,10.15-21.59,10.57-1.38.15-17.59-11.78-20.59-13.84-.99-1.43-.92-2.49-.35-3.19.71-.87,2.2-1.2,3.57-.89,1.73.39,9.63,9.81,13,9.72,3.46-.1,9.85-6.61,14.63-6.61-.41-.91-.56-2.07-1.03-2.91-.36-.65-4.36-4.52-4.97-4.82-.73-.36-2.4-.16-3.44-.44-1.65-.43-3.82.1-5.41-1.39-.48-.03-.99.54-1.46.51l-1.97-.95c-.49,0-.97.51-1.46.51-1.99.01-4.55.79-6.36.59l-9.2,6.51c-2.53-1.65-4.67-3.61-7.9-3.8-2.07,6.68-4.03,13.48-6.05,20.18.7,1.98,9.52,8.85,11.92,10.59,1.18.86,4.07,1.57,5.92,2.85l.29,3.09v.08c-.15-.03-.3-.13-.45-.17-2.5-.73-4.74-3-6.71-3.87-4.06-1.8-8.28-3.46-12.79-3.72-.19.61-.84,1.25-.95,1.97.29.06.55.1.79.14,7.27,1.56,4.52,10.76,3.87,16.08-2.28,18.89-7.76,31.84-8.5,52.42-.1,2.87-.4,5.08-.36,8.33l2.49,2.41c.23-2.62.04-5.35.36-8.33,1.34-12.38,5.89-50.07,11.93-59.26,3.82-5.81,10.88-4.89,16.97-3.39-4.24,10.1-7.01,20.74-8.91,31.56-3.37,19.23-.65,40.57-10.78,57.38,7.64-2.96,45.79-11.55,50.56-5.12,1.6,2.16,1.09,5.67,1.41,8.24.14-.17.44-.21.73-.26l.73-.25c.19-.26.32-.6.45-.94.14-.39.27-.78.5-1.04,2.26-2.95,4.41-5.96,6.72-8.92.27-.34,1.2-.17,1.46-.51,1.4-4.97,6.16-9.92,10.44-14.87,1.93-2.69,3.88-5.31,5.83-7.96,2.16-4.05,2.68-8.1-.63-12.18l6.42,4.3c.26-.34,1.21-.17,1.46-.51,2.12-6.29,8.05-11.78,12.45-17.15,1.15-1.6,2.25-3.19,3.39-4.79.98-1.84-1.35-5.09,2.25-5.84l-8.1-6.88c19.32,6.84,13.03,2.3,3.07-7.67ZM342.67,615.03c1.33.08,4.06,1.73,5.66,2.13l-1.5.98c-.38.21-.77.45-1.17.77-4.38-.19-9.29.13-13.48-1.02,2.3-1.2,8.09-3,10.48-2.85ZM355.12,659.92l5.54-5.23c10.68,4.62,1.56,11.76-5.54,5.23ZM368.44,665.08l4.87-.08-2.77-5.58c13.47,3.59,6.62,15.64-2.1,5.66ZM382.53,672.45c.08-2.97,4.05-2.02,4.09-2.25.39-2.35-4.31-4.46-5.47-6.28,1.2-2.33,7.89,1.93,9.35,3.27.71.65.79,3.61,1.54,4.38l-9.51.87ZM405.84,678.22c-2.29-.39-5.91.44-7.76-.57-1.7-.93-.03-3.1-.12-3.23,6.02-.95-.42-4-3.74-6.09l1.18-1.22c6.22,1.3,10.99,4.21,10.44,11.11Z"/>
        <path class="cls-2" d="M294.07,986.55c-1.33.43-2.64.92-3.96,1.41,1.25-.34,2.55-.77,3.96-1.41Z"/>
        <path class="cls-2" d="M277.84,982.4c.44,1.07.98,1.95,1.56,2.74-.5-.96-1-1.9-1.56-2.74Z"/>
        <path class="cls-2" d="M288.25,974.63c-1.65-.85-8.76-4.43-9.85-4.8-1.87-.63-3.56,3.53-5.09,4.31.26.43.29,1,.51,1.46.23.46.26,1.03.51,1.46l3,3.87c.27.42.24,1.05.51,1.46,7.14,9.21,6.9,3.76,16.23,4.16,1.47-.48,2.92-1.03,4.38-1.54.98-.34,1.95-.69,2.92-1.02-2.86-3.33-9.3-7.39-13.13-9.36Z"/>
        <path class="cls-2" d="M172.85,907.62c-1.11-.57-1.83-.83-2.33-.8-.25.01-.46.08-.62.25-.47.49-.62,1.64-.92,3.55-.23,1.51,2.74,3.23-1.16,3.67l-1.25-1.19c.05,1.08-.22,4.04-.65,5.17-2.12.72.2-5.45-5.2-3.12-2.93,1.26-2.96,1.83-7.82,1.1l-1.28.45-.18.06c-.02.76.89,1.97,1.02,2.92,1.34,1.04,3.45,1.53,4.46,3.36,2.79-.18,5.64-1.23,8.33.36.5-.07.96-.42,1.46-.51,1.44-.26,2.96-1.31,4.38-1.54-1.62-2.66,4.84-8.52,1.75-13.74Z"/>
        <path class="cls-2" d="M276.78,913.84c-.16-.96-.8-1.94-1.02-2.92-1.65,3.16-1.31,4.13,1.02,2.92Z"/>
        <path class="cls-2" d="M223.32,920.05c-1.05-.37-1.84-.84-2.31-1.42-.77.17-1.25.29-1.59.45-.67.31-.68.77-.82,2.04-.03.25.15.55.31.88l.2.58c.5-.14.96-.38,1.46-.51,2.4-.65,7.49-.88,7.82-1.1-.55-1.18-3.05-1.38-5.08-.91Z"/>
        <path class="cls-2" d="M255.23,882.07c.09,1.7.42,2.14,1,1.23-.21-.99-.77-1.94-1.02-2.92-.12.68-.09,1.23.03,1.69Z"/>
        <path class="cls-2" d="M266.8,964.94l.51,1.46c8.89,2.9,2.23-5.15-.51-1.46Z"/>
        <path class="cls-2" d="M273.93,952.58c.33-2.42-2.29-3.57-2.45-2.41-.33,2.42,2.29,3.58,2.45,2.41Z"/>
        <path class="cls-2" d="M274.01,945.54l.52-.55-1.69-.23c.28.42.24,1.04.51,1.46l.65-.68Z"/>
        <path class="cls-2" d="M187.54,907.39c.71-1.17,2.56-2.4,3.86-3.02-2.6-2.82-6.48.28-6.61-4.98l1.13-1.28c-6.27-5.92-10.43,10.91.66,11.25-.33,1-.17,2.36-.44,3.44-2.35-.22-4.51.03-6.86-.88l.06,4.89c1.65-.19,5.88-2.32,7.84-2.91.21-.06.41-.12.57-.15.12,0,.23,0,.37,0,.47.16.27,3.34,1.75,2.66l1.61-7.12c-.77-.74-.5-1.63-.88-2.07-.3-.34-1.02-.41-3.07.17Z"/>
        <path class="cls-2" d="M174.08,898.41c-.35-.12-.47.16-.46.62.02,1.06.69,3.05.62,3.18,0-.17,2.37-1.72.42-3.42-.24-.21-.43-.33-.58-.38Z"/>
        <path class="cls-2" d="M195.05,910.55l.1-.1-.19-.02-1.5-.19c.25.41.32.99.51,1.46l1.08-1.14Z"/>
        <path class="cls-2" d="M198.43,915.06l-3.95-1.9c.14.52.47,1.01.51,1.46.02.2-2.27.69-.43,3.43,3.29-.27,2.24-2.37,2.41-2.48.4-.25.99-.29,1.46-.51Z"/>
        <path class="cls-2" d="M189.85,812.83c-2.77,0-3.35-3.65-4.57-3.13-1.31.55.24,3-.81,4.38-.76,1-3.56.28-4.53,1.53-.99,1.28-.22,3.01-.11,3.87,0,.11-.01.22,0,.36-3.68,10.61-1.16,12.06,8.4,5.24l-6.93-5.76c1.49-4.38,7.34-.51,7.78-1.11.1-.13-1.31-2.4-.05-3.26,2.61-1.8,7.7-2.08,10.74-3.76-1.85-2.84-6.84,1.63-9.9,1.64Z"/>
        <polygon class="cls-2" points="171.63 845.65 177.18 840.44 167.92 842.07 171.63 845.65"/>
        <path class="cls-2" d="M244.34,811.98l-3-3.87c-5.77,1.85-4.56,8.94,3,3.87Z"/>
        <path class="cls-2" d="M228.2,812.71l4.37-1.53-1.54-4.37c-2.27,2.5-5.02,2.67-2.83,5.91Z"/>
        <path class="cls-2" d="M184.96,867.27c-1.63.54-1.61,2.6-1.9,3.95.48,2.03.86,2.7,1.29,2.69.76-.01,1.69-2.12,3.6-2.77l-.51-1.46-2.49-2.41Z"/>
        <path class="cls-2" d="M206.56,807.2c-.15.29,1.82,1.94,2.48,2.39l2.41-2.49c-.32-.25,1.27-4.93-4.89.09Z"/>
        <path class="cls-2" d="M244.06,825.21c-2.7,1.14-4.92,1.49-7.81,1.1,5.27,4.28-.29,4.84.32,5.62,3.67,4.73,5.42-3.07,8-5.26,1.05-.89,4.32-.47,4.13-2.29-.52-5.16-4.14.61-4.64.82Z"/>
        <path class="cls-2" d="M264.8,804.81c.5.02,1.02-.57,1.46-.51,2.15-6.63-5.06-6.9-1.46.51Z"/>
        <path class="cls-2" d="M233.97,805.78l1.02,2.91,4.12-2.25c-1.87-1.08-3.15-1.89-5.14-.66Z"/>
        <path class="cls-2" d="M167.86,869.98l-1.46.51c.02.32-2.19,4.87,1.46-.51Z"/>
        <path class="cls-2" d="M193.41,828.2l-.51-1.46c-.78.82-.61,1.31.51,1.46Z"/>
        <path class="cls-2" d="M286.23,849.75s.05.02.09.02l-.09-.27-.32-.92-.1-.28c-.06.06-.08.11-.13.17-.56.68-.39,1.11.55,1.26Z"/>
      </g>
    </g>
  </g>
</svg>