<?xml version="1.0" encoding="UTF-8"?>
<svg id="_레이어_2" data-name="레이어 2" xmlns="http://www.w3.org/2000/svg" xmlns:xlink="http://www.w3.org/1999/xlink" viewBox="0 0 399 1000">
  <defs>
    <style>
      .cls-1 {
        fill: none;
      }

      .cls-2 {
        fill: #e6e7e8;
      }

      .cls-3 {
        clip-path: url(#clippath);
      }
    </style>
    <clipPath id="clippath">
      <rect class="cls-1" width="399" height="1000"/>
    </clipPath>
  </defs>
  <g id="Layer_1" data-name="Layer 1">
    <g class="cls-3">
      <g>
        <path class="cls-2" d="M241.55,126.14c.84,3.08,1.04,4.62,2.75,7.5l.83,1.07c.11.15,0,.46.12.6.06.07.98.56,1.43.95.07.38.2.7.21.92.02.25-.09.39-.56.38.13-1.76-1.16-1.63-1.68-2.14-.6-.59-1.74-.98-2.06-1.85-.24-.64.02-1.16.04-1.54,0-.23-.07-.41-.41-.54-.29-.11-.75-.19-1.5-.23.18.79.28,1.6.48,2.38.65,2.55,0,3.19,2.75,4.4.18.03.4-.14.6-.12l.72.48c.19,0,.39-.11.6-.12.19,0,.4-.08.6-.12.2-.04.4-.08.6-.12l1.19-.24c1.32.9,4.04,1.71,5.48,2.61.18.04.41-.15.59-.12l.72.48c.19.03.41-.15.59-.12,1.11.17,2.19.65,2.62.71,2.08.28,4.11.61,6.19,0,.88-1.42,1.96-2.88,2.85-4.29.22-2.91.54-5.19-.96-7.85,2.11.38,1.27,4.05,2.86,4.99,1.29-1.98,2.35-3.81,3.8-5.72-.6-.38-1.45-.47-2.03-.83-.24-.15-.48-.35-.72-.48-.99-.51-1.6-2.44-3.22-.59-1.91-.87-2.41-1.36-4.77-2.14-.42-.42-1.7-2.53-1.84-2.61-.12-.07-1.28,0-2.43.18-.15.02-.31.05-.46.08-.82.15-1.56.35-1.82.58-.11-.12.05-.83-.31-1.05-.69-.43-2.64.27-3.58.16-2.16-.27-3.48-.72-5.28-1.59-2.68,1.67-4.34,2.63-4.99,5.96ZM259.25,122.25c.08.04.16.1.24.16-.14-.06-.27-.12-.41-.17-.04-.01-.07-.03-.11-.04.09,0,.19.01.27.05ZM256.54,123.73c.09.13.94-.1.83,1.07-.59.09-1.19.3-1.78.36.2,1.07,1.66,1.53,2.27,2.02.43.35,1.06.6,1.43.95,1.1,1.03.73,1.22-.11,2.5-.15.22-.28.58-.48.72.11.38.11.81.24,1.19.23.68,1.52,3.12,1.31,3.45l-2.97.6.24-1.9-1.8.35c-.29-.47.39-1.19.36-1.31-.19-.13-.28-.27-.3-.41-.6-.6-1.79-1.48-1.02-3.05-.99-.09-3.18-.54-3.4-1.49,1.5-.72,1.56-2.89,2.38-3.61.76-.67,1.44.02,1.84-.02-.1-.55.5-1.14.95-1.43Z"/>
        <path class="cls-2" d="M271.69,127.59c-.22,0-.46.02-.74.05.28.02.51,0,.74-.05Z"/>
        <path class="cls-2" d="M240.23,125.78c.17-.23.35-.46.48-.72,1.61-3.33,2.12-3.08,4.52-5.25.44-.4.5-.74.35-1.31-.2,0-.4.12-.59.12-1.3.01-2.63.44-3.81-.47-.2,0-.4.12-.6.12l-1.67.96c.19,1.2.51,2.38.72,3.57.17,1,.42,1.98.6,2.98Z"/>
        <path class="cls-2" d="M276.74,94.89c.98.72,2.12,1.33,2.86,1.9,2.19,1.67,7.43,7.66,9.89,6.06.16-.1.27-1.11.65-1.37.42-.23.57.96.95,1.05l.18-.04c.14-.08,1.92-2.37,2.02-2.56.22-.41-.63-3.36,2.66-1.79-1.7,2.56-4.47,4.65-4.03,7.87l.31,1.25c1.42,3.52,3.03,5.58-.81,8.22-.11-1.04.03-2.04-.01-3.09,0-.11.01-.21.02-.32,0-.05.01-.12.02-.18.1-.91.3-2.47-.76-3.06-1.81-1.01-.68,1.98-.7,2.62-.03.72-.12,1.22-.24,1.91l-1.54-1.54c-.28,1.76-2.19,3.21-.83,5.12-.42.51-.5,2.18-1.67,2.17-1.18,0-1.54-2.08-2.61-1.93-.73,2.66,3.09,4.42,2.72,5.65l-14.01,15.2-1.13-1.01c-.73,1.71-2.97,2.1-1.96,4.11-.55.28-3.45,3.77-4.04,4.53-.99.44-1.36.07-1.43-.95.18-.23.15-.98.36-1.31-.14-.19-.32-.29-.51-.36-.79-.27-1.89.37-2.46.96-.81-.59-2.21-.89-3.22-.59-2.33,3.1-7.76,10.08-9.13,13.28-.26.6-.69.98,0,1.56l30.22,22.13c.06.02.13,0,.2,0,.45-.04,1.11-.52,1.88-1.23,2.03-1.88,4.72-5.32,5.68-6.26-.78-.56-1.73-.55-2.62-.71-.22-.61-.49-1.21-.96-1.67-.2-.2-1.68-.45-1.43-.94,2.6-.95.44-6.38.7-8.82.05-.09-.22-.68.47-.71.19.56.17,1.24.37,1.78,1.49-1.82,2.77.77,5.24,1.42,1.14.3,1.72-.42,1.79-.36l.48-.72c1.68-3.24.99-2.86-1.43-.95-.32-2.23-2.14-5.48-2.79-1.6l-1.5-1.25c.02-.53.24-1.28.14-1.71-.14-.58-.58-.59-.61-.67-.37.23-.69.62-1.07.84-.88.49-1.14.2-1.19.24l-1.67-2.13,2.28-.47.1-.02-.08-.02-1.22-.33c1.75-3.63,2.12-.68,3.1,0l1.33-.57c2.37,2.44,3.81.77,4.31-4.99,2.55-2.5,3.25-5.9,2.08-10.19,3.36-2.96,4.7-4.34,3.33-8.72l1.25-.92c.31-2.01,1.55-3.41,3.74-4.2-7.31-1.26.51-8.62,4.18-2.92l1.59.15c5.68,3.96,11.65,6.99,17.91,9.1l1.08,1.39c8.57-6.85,11.8-16.45,16.44-25.95.57-1.17,1.09-2.31,1.66-3.49,6.58-13.53,12.69-27.3,19.5-40.72l-1.64-3.36c.64-.25,1.29,1.27,1.99,1.56.09,0,.19,0,.3.03.14-.02.29-.11.44-.29.18-.22-.82-.8-.75-.99.04-.11,1.32-.83,1.79-1.66.8-1.38,5-10.01,5.17-11.01.12-.68.37-1.28-.31-1.81-3.82-1.42-7.81-2.49-11.65-3.81-3.15.12-7.03,4.24-8.85,6.75-6.04,8.29-11.92,16.82-18.56,24.78-2.48,2.98-6.3,8.22-9.43,9.97-2.09,1.16-4.02,2.63-3.74-.95,1.5-2.27,4.37-5.6-.79-3.09-.9-1.48.89-1.17.89-1.81-.01-1.74-.98-2.33-.3-4.5.25-.79.86-1.19.95-1.43.32-.86.8-1.65.71-2.62l-.59.12-.48.72c-3.04,2.79-6.32,6.08-9.39,8.71-.53,2.22-1.78,6.55-3.32,8.1-1.57,1.58-4.63,2.46-6.07,3.7-.28.24-.85,1.57-1.43,2.15-.37.04-.63.01-.85-.05-2.01-.54,2.19-4.92,2.2-5.5.04-2.26-2.29-.47-2.56-.4.65,1.86-.15,2.52-1.88,2.9l1.06,5.32c-1.41.96-1.53-.05-2.15.07-1.73.36-6.81,4.78-3.81-1.97.12-.28.22-.49.31-.66.52-1.02.56-.34,2.54-.54l-.51-2.53-.09-.44c-.04.09-.08.16-.11.24-1.26,2.71-1.2,1.17-2.02,1.42-.53.16-1,.89-.95,1.43-1.36.14-2.85.77-4.17.84-3.75.21-2.83-1.78-3.58-2.38-.16-.13-1.18.58-1.25-.06.56-1.41,2.69-1.56,2.54-2.84-.07-.12-.12-.26-.11-.44-.26-.04-.52-.3-.72-.47-2.05.78-4.24.96-4.17,3.94-1.13.09-1.62-2.66-2.69-1.02-.23.35-1.47,4.16-1.29,4.63.42,1.07,2.46,1.5,3.28,2.11ZM288.92,115.35l-.12-.6s.47,0,.12.6ZM293.24,136.77c-.55-.67.53-2.27.82-2.02.55.67-.53,2.27-.82,2.02ZM362.81,47.19c2.59-.69-1.37,4.5-1.95,4.1-.71-.49,1.74-4.04,1.95-4.1ZM364.53,44.98c.52-.78,1.94.17,1.42.95-.52.78-1.94-.17-1.42-.95ZM337.01,108.12c.15-3.13-2.46-4.56-2.75-7.49.94-1.68,7.35,6.45,2.75,7.49ZM357.64,50.7c.13-.45,1.08.14.82,1.07-.13.45-1.08-.14-.82-1.07ZM356.44,54.04l-1.42-.95c1.21-.42,1.34-.33,1.42.95ZM358.83,56.65c-.12.23-4.43-1.38-4.76-2.13,1.08-.38,5.81.09,4.76,2.13ZM352.59,62.56c-.12.43-.32.47-.6.12l.6-.12ZM345.27,66.2c-.34-.17.72-1.79,1.55-1.54.34.17-.73,1.78-1.55,1.54.34.22-.36,1.06-.54.42-.06-.2.37-.52.54-.42ZM341.43,79.36c.5-.18.57,1.07.53,1.13-.55.82-1.97.13-.53-1.13ZM341.16,101.09l-.58.12c-.79-2.42.38-2.65.58-.12ZM338.07,98c2.11-.94,1.44,2.73,2.02,3.92l-2.02-3.92ZM339.81,79.07c.52,1.49-1.21,2.64-2.49,2.97-.08-.65,2.32-3.1,2.49-2.97ZM337.82,96.81c-1.88.51-3.21.09-4.05-1.65,2.8-.48,3.91-1.81,4.05,1.65ZM334.01,99.44c.45.12-.14,1.08-1.07.82-.45-.13.14-1.08,1.07-.82ZM333.1,84.14c.5-.18.57,1.07.53,1.13-.55.82-1.97.13-.53-1.13ZM332.33,88.02c.45.13-.14,1.08-1.07.82-.45-.12.14-1.08,1.07-.82ZM322.25,114.81c-.52.78-1.94-.17-1.42-.95.52-.78,1.94.17,1.42.95ZM321.77,112.44c.45.13-.14,1.08-1.07.82-.45-.12.14-1.08,1.07-.82ZM320.1,107.2c.33.17-.72,1.78-1.55,1.54-.33-.17.72-1.78,1.55-1.54ZM317.73,110.78l2.37-.48.24,1.18c-.26.39-3.27-.23-2.61-.7ZM317.37,112.09c.52-.78,1.94.17,1.42.95-.52.78-1.94-.17-1.42-.95ZM311.25,84.83c-.52.78-1.94-.17-1.42-.95.52-.78,1.94.17,1.42.95ZM280.38,94.49c1.4.26,5.14-2.7,5.16,1.1-2.41-1.62-3.67.09-6.07.6l-2.27-2.02c-.07-.31-1.51-2.32-.18-2.43.51-.04,2.23,2.54,3.35,2.74Z"/>
        <path class="cls-2" d="M287.47,105.11l-7.26.85,3.35,4.27c.95.44,3.56-4.11,3.91-5.12Z"/>
        <path class="cls-2" d="M291.32,62.84l.61,2.97c-.76.81-1.46,2.17-1.98,2.6-.43.37-.59-.22-.64-.22-.22.01-.44.15-.59.12.77,1.53-.37,1.92-.71,2.62.19.17.38.27.58.34,1.21.39,2.63-.85,3.72-.87,1.15-.03,2.89,1.29,4.39.65-.53,2.62-2.6.93-4,.94-.93,0-1.92.4-2.54.38-.8,1.27-2.67.37-3.51.99-1.17.86-.84,2.65-1.12,3.66-.05.17-.92.56-.96,1.16-.06.91.62.61.73.74l.83-2.03c2.65-2.11,5.56-1.39,3.51,2.09,2.33,0,.37,1.02.52,2.66.05.18.1.37.14.6,1.3.39,1.9-.26,2.86-1.2.02-.02.05-1.2.54-.41l.3,4.58c1.91-.52,3.17-1.5,5.11-2.27-1.66-1.25-1.07-1.12-1.08-2.26l.59-.12c.32.42.89.98,1.43.95l1.84-3.17c-2.75-.22-1.46-3.48-1.61-4.93-.12-1.16-1.22-5.39-.6-6.08.34-.37,1.62.3,1.9.24l1.44,4.04,2.08-1.97c-3.24-.59-.25-3.26,1.73-.66.01-.1.31-.31.41-.64.03-.11.04-.23.01-.37,0-.03-.02-.05-.03-.07-.36-1.39-2.07-1.51-2.9-2.14-1.9-1.43-3.8-2.49-5.72-3.8-.48-.33-.95-.63-1.43-.95-1.44-.96-2.83-1.9-4.29-2.85.11.71-.81,2.51-1.31,2.74-.13.06-1.02-.54-1.22-.3-.65.74.21,3.06-3.41,1.86l2.68,2.55,1.71-2.2ZM295.38,61.4c.16.09.84-.25,1.19-.24-.27.61-.14,1.29-.24,1.91l.59-.12c.18-.08.43-.03.6-.12,1.1.91.59,1.04.36,1.79-.37,1.18-1.8,3.86-2.69,2.07-.17-.34.43-.86.43-.99-.3-.45-.48-.84-.58-1.18-.4-.1-.95.09-1.56-.25-1-.55-.63-.98-.96-1.67-.12-.25-.44-.43-.72-.48-.08-.18-.05-.41-.12-.59,3.53-3.13,2.62-.69,3.69-.13Z"/>
        <path class="cls-2" d="M278.26,80.95c.8-.69,4.33-4.66,3.2-5.6l-4.04,4.53c-.51,1.37-.73,1.49.84,1.07Z"/>
        <path class="cls-2" d="M286.11,70.7c.04-.39-.47-.58-.72-.48-.56.24-1.09.99-1.9,1.05-.27.02-1.06-2.29-1.79-.93-.76,1.42,2.76,2.19,4.4.35Z"/>
        <path class="cls-2" d="M282.08,84.52c.83.36,1.27-.16,1.79-.36.45-.18,1.32,0,1.64-.44.12-.16.13-1.78.26-2.42l2.14-1.67c-.13-.06-.25-2.49-1.91-.23-.12.16-.28.98-.36,1.31-1.39.36-2.12,1.46-1.9,2.86l-3.21-.58c-.07.08,1.38,1.46,1.55,1.54Z"/>
        <path class="cls-2" d="M269.47,89.53c.47-.15,1.69-.21,1.78-.36.72-1.08-1.78-4.86-1.78.36Z"/>
        <path class="cls-2" d="M272.11,105.73l-.65-1.72c-.96,1.02-.75,1.48.65,1.72Z"/>
        <path class="cls-2" d="M285.62,65.22c.92.26,1.51-.7,1.07-.82-.92-.26-1.51.7-1.07.82Z"/>
        <path class="cls-2" d="M299.92,148.43c-1.49,1.24-2.66,1.84-4.63,1.56.96,3.65.72,1.97,4.05,1.66l.48-.72c-.22-.06-2.38.56-1.43-.95.23-.37,2.47.33,1.54-1.55Z"/>
        <path class="cls-2" d="M289.83,162.85c.15.13-.02,1.27.54,1.15,2.32-.5,3.78-4.8-.07-1.86-.05.1.22.68-.48.72Z"/>
        <path class="cls-2" d="M303.74,81.39c-.1.07-.42.1-.59.12.16.79.32,1.59.48,2.38.86-.64.31-1.51.11-2.5Z"/>
        <path class="cls-2" d="M286.85,89.75c.98-2.01-.02-2.57-1.79-2.74-1.86-.17-1.86.09-3.45,1.32,1.42,1.79,3.07,2.22,5.24,1.42Z"/>
        <path class="cls-2" d="M288.02,83.32c-.21-.14-2.52,2.29-3.2,2.5l.12.59c2.34-.6,5.06-.74,3.08-3.1Z"/>
        <path class="cls-2" d="M295.89,85.45c-.95.3-2.01.33-2.98.6l.12.6c1.58.05,3.06,1.91,2.86-1.2Z"/>
        <path class="cls-2" d="M288.86,81.29c.03-.41.37-.97.36-1.31l-2.08,1.97c1.15.94,1.61-.63,1.72-.66Z"/>
        <path class="cls-2" d="M288.1,88.26c-1.44,1.26-.02,1.94.53,1.13.03-.05-.03-1.3-.53-1.13Z"/>
        <path class="cls-2" d="M292.44,83.67c-.13.25-.31.48-.48.72.06-.05.75.66,1.12-.54l-.64-.18Z"/>
        <path class="cls-2" d="M255.24,129.57c1.27.68,2.37.99,3.81.47l-1.07-2.26c-.37,0-.96.31-1.19.24.21.14.31.34.34.53.08.56-.53,1.08-1.47,0-.18-.5,1.08-.57,1.13-.53-.15-.05-.45-.77-1.21-.87-2.61-.37-2.65,1.19-.34,2.42Z"/>
        <path class="cls-2" d="M256.44,132.42l.36-1.3c-2.35.25-.53.82-.36,1.3Z"/>
        <path class="cls-2" d="M302.31,83.53c1.05-2.42-2.74-.78-3.21-.59.85.64,3.07.92,3.21.59Z"/>
        <path class="cls-2" d="M302.5,84.43c-.02,1.46.67.58,1.37.65l-.24-1.19c-.31.23-1.12-.14-1.13.54Z"/>
        <path class="cls-2" d="M299.47,87.83c-1.1-.59-1.31.78-.93,1.24.13.15.32.21.57.06.02-.01.07-.15.13-.33.12-.38.27-.95.23-.97Z"/>
        <path class="cls-2" d="M303.61,74.6c-.46.17-.76.12-.99-.05-1.16-.87.25-5.42-1.58-5-1.18.27-.15,4.05.07,4.93.21.51.16,1.23.36,1.78,1.26.12,1.5-1.18,2.14-1.67Z"/>
        <path class="cls-2" d="M304.97,81.5s.02-.03.02-.05l-.36.07-.24.05c.26.33.45.3.57-.07Z"/>
        <path class="cls-2" d="M290.19,94.03c.99-.02,1.75-.52,2.2-1.28.19-.32.34-.69.41-1.09-.82.23-1.83.49-2.38.96-.4.34-.57.78-.23,1.41Z"/>
        <path class="cls-2" d="M292.93,89.15c-.26.92.7,1.51.82,1.07.26-.92-.7-1.51-.82-1.07Z"/>
        <path class="cls-2" d="M18.56,462.97c.1.42.25.76.42,1.07-.11-.33-.25-.67-.42-1.07Z"/>
        <path class="cls-2" d="M18.12,421.31c.8.47,1.33.4,2.1-.09-.1-.29-.36-.53-.45-.82-.63-1.92-1.88-3.69-1.08-5.85-.08-.29-.36-.53-.45-.82l-2.19-2.02c-1.68.84-3.27,1.87-4.94,2.73-1.39.72-2.73,1.55-4.12,2.27.42.14.84.3,1.28.37,5.67.83,5.54,1.69,9.86,4.23Z"/>
        <path class="cls-2" d="M-9.31,430.01c.08.29.35.53.45.82.1.28.31.55.45.82.15.28.3.55.45.82l.91,1.65c-.71,2.37-.64,6.76-1.3,9.31.03.29.42.53.45.82l-.37,1.28c.04.29.41.53.45.82.26,1.72.06,3.54.17,4.2.56,3.2,1.02,6.36,2.9,9.14,2.51.63,5.16,1.55,7.67,2.21,4.4-1.02,7.93-1.62,11.16-5.08.42,3.29-5.39,3.76-6.05,6.55,3.53.98,6.72,1.7,10.22,2.95.29-1.07.02-2.35.28-3.38.11-.42.3-.87.37-1.28.29-1.71,2.86-3.51-.63-5.03.4-3.22.89-4.19.93-8.04.05-.07.11-.17.17-.27.7-1.04,2.78-3.44,2.83-3.66.05-.21-.6-1.89-1.4-3.51-.08-.25-.18-.47-.33-.64-.6-1.14-1.24-2.14-1.71-2.42.12-.22,1.24-.31,1.41-.95.32-1.22-1.63-3.78-1.9-5.21-.61-3.31-.57-5.48-.11-8.55-3.72-3.18-5.91-5.18-11.13-4.6-4.15,2.67-6.34,3.69-9.79,7.56l-1.19,1.73c-.17.23-.68.23-.82.45-.07.11-.37,1.72-.74,2.56-.53.29-.94.61-1.26.74-.36.14-.62.04-.83-.65,2.66-.63,1.87-2.47,2.37-3.47.59-1.16.64-3.03,1.78-3.91.84-.65,1.72-.5,2.29-.66.34-.09.57-.3.61-.86.03-.47-.07-1.19-.36-2.32-1.08.63-2.23,1.16-3.29,1.82-3.46,2.14-4.72,1.47-5.22,6.11.03.28.4.52.45.82l-.37,1.28ZM21.07,443.17c-.02.14-.07.29-.13.43.03-.23.05-.46.07-.68,0-.06,0-.12,0-.18.05.14.07.28.05.43ZM.52,443.91c.56-.64,1.95.03,2.1-.08.11-.35.27-.54.46-.63.61-1.17,1.35-3.34,4.03-2.92-.33-1.51-.69-4.95.62-5.72,1.77,1.88,5,.96,6.45,1.84,1.34.81.64,2.14.89,2.72.77-.41,1.91.2,2.56.74-.15.2.59,1.34-1.19,1.73-.41-.83-1-1.61-1.37-2.46-1.49.79-1.49,3.17-1.93,4.29-.31.8-.4,1.84-.74,2.56-1.01,2.11-1.46,1.65-3.75,1-.4-.11-.99-.15-1.28-.37-.52.34-1.15.55-1.65.91-.9.66-3.9,3.7-4.49,3.54l-2.27-4.11,2.92-.53-1.36-2.49Z"/>
        <path class="cls-2" d="M37.08,545.14c14.11,9.47,29.81,9.77,46,12.19,1.99.3,3.92.54,5.93.83,23.06,3.41,46.24,6.02,69.25,9.83l4.2-3.98c.67.82-1.28,2.49-1.37,3.67.04.13.08.28.09.46.1.2.29.38.63.52.41.17.8-1.58,1.12-1.57.19,0,1.84,1.56,3.28,1.88,2.41.54,17.12,2.71,18.68,2.51,1.06-.14,2.07-.05,2.52-1.3.31-6.31.03-12.7.2-18.99-1.65-4.6-9.54-8.41-14.09-9.94-15.06-5.06-30.41-9.77-45.26-15.87-5.56-2.28-15.09-5.47-19.12-9.29-2.69-2.54-5.76-4.71-.33-5.97,4.06,1.16,10.31,3.85,4.2-2.6,1.76-2.02,2.15.77,3.08.47,2.57-.83,2.99-2.54,6.51-2.54,1.28,0,2.16.72,2.56.74,1.42.07,2.8.41,4.2-.17l-.45-.82-1.28-.37c-5.54-3.19-11.93-6.51-17.24-9.82-3.52.25-10.5.43-13.52-1.13-3.07-1.58-5.8-5.7-8.3-7.24-.49-.3-2.71-.52-3.83-1.11-.23-.53-.31-.93-.32-1.27-.13-3.22,8.28.95,9.15.69,3.36-.99-.38-3.61-.59-3.96-2.45,1.83-3.79.95-5.16-1.43l-7.36,4.04c-2.07-1.63-.63-2.29-1.11-3.14-1.33-2.39-10.24-7.84,1.13-6.55.47.05.82.1,1.12.15,1.75.29.76.67,1.98,3.51l3.5-1.94.61-.34c-.15-.02-.28-.04-.41-.05-4.59-.59-2.29-1.23-3.05-2.32-.48-.7-1.78-1.06-2.56-.74-.84-1.94-2.46-3.85-3.18-5.76-2.07-5.44,1.31-5.02,1.84-6.39.11-.29-1.4-1.47-.5-1.87,2.34.18,3.57,3.25,5.38,2.43.14-.16.33-.29.6-.37-.06-.4.2-.9.37-1.28-2.11-2.66-3.4-5.82-7.76-4.32-.66-1.62,3.17-3.63.25-4.45-.62-.17-6.84-.23-7.44.26-1.38,1.12-1.07,4.33-1.58,5.83-.6,1.78-.98,3.75-1.47,5.11-1.45,4.01-7.86,14.55-4.34,17.44.22.18,1.77-.12,2.33.32.54.52-1.15,1.29-1.1,1.89l.14.25c.19.17,4.4,1.73,4.73,1.79.7.13,4.66-2.5,3.88,3.1-4.57-1.31-8.95-4.44-13.5-2.29l-1.7,1.04c-4.54,3.73-6.82,7.08-12.52,2.63,1.49-.65,3.03-.91,4.57-1.46.16-.04.32-.08.48-.13.08-.02.19-.04.28-.06,1.39-.28,3.79-.71,4.17-2.56.65-3.14-3.24-.07-4.19.18-1.07.29-1.85.39-2.92.54l1.56-3c-2.73.41-5.77-1.74-7.95,1.15-.95-.38-3.45.27-3.99-1.46-.55-1.74,2.36-3.25,1.63-4.75-4.26.16-5.09,6.63-7.08,6.66l-28.98-13.61.96-2.14c-2.87-.29-4.48-3.41-6.99-.98-.67-.69-7.18-3.35-8.58-3.86-1.1-1.25-.74-1.98.74-2.56.42.16,1.51-.23,2.1-.09.21-.3.29-.61.29-.92.04-1.3-1.43-2.61-2.57-3.19.5-1.47.29-3.68-.63-5.03-5.67-2-18.5-6.77-23.87-7.29-1-.1-1.77-.56-2.3.74l-18.61,54.96c0,.09.06.2.1.3.27.64,1.28,1.41,2.7,2.21,3.72,2.12,10.06,4.5,11.89,5.47.47-1.41,0-2.81-.17-4.2.8-.6,1.55-1.29,2.02-2.19.2-.38-.12-2.69.72-2.55,2.62,3.39,9.63-2.33,13.36-3.08.15.03.9-.64,1.27.36-.74.54-1.76.82-2.46,1.37,3.38,1.36.15,4.45.34,8.4.09,1.83,1.42,2.34,1.36,2.47l1.28.37c5.56.97,4.69.13.74-2.56,3.15-1.51,7.09-5.72,1.06-4.87l1.15-2.8c.8-.21,2-.24,2.59-.6.79-.48.61-1.13.7-1.22-.52-.44-1.24-.73-1.73-1.19-1.14-1.08-.83-1.6-.91-1.65l2.38-3.46,1.76,3.14.08.14v-.14s-.09-1.96-.09-1.96c6.18.9,1.99,2.82,1.44,4.58l1.46,1.7c-2.49,4.64.63,5.98,9.38,4.05,4.89,2.61,10.23,2.05,16.02-1.68,5.94,3.59,8.61,4.92,14.43.86l1.94,1.42c3.11-.48,5.76.71,7.95,3.57-1.55-11.38,12.98-3.26,6.27,4.82l.51,2.41c-3.2,10.24-4.9,20.47-5.1,30.71l-1.55,2.24ZM18.83,500.41c-.73,1.12-3.6.27-3.37-.27.73-1.12,3.6-.27,3.37.27ZM90.05,553.5c3.2-2.3,4.1-.68.45.81l-.45-.81ZM184.29,562.68c1.39.4.66,2.94-.73,2.54-1.39-.4-.66-2.94.73-2.54ZM173.25,560.19c.39-1.28,6.78.68,6.96.98,2.23,3.5-7.28.08-6.96-.98ZM172.62,555.17c.72-.02.29,1.66-1.19,1.71-.72.02-.29-1.66,1.19-1.71ZM167.87,552.41c1.19,1.59,1.12,1.83-.73,2.54l.73-2.54ZM165.31,551.67c1.06,1.43,2.58,8.62-.93,8.02-.4-.07-.02-7.19.93-8.02ZM152.3,552.41l.45.82c-.69.02-.84-.25-.45-.82ZM143.1,543.53c.27-.18.95.31.87.6.09-.58,2.98.23,3,1.56-.09.58-2.96-.24-3-1.56-.17.6-1.73-.04-.87-.6ZM121.31,545.89c-1.46-.44-1.11-2.84,1.42-1.31.5.66-1.32,1.34-1.42,1.31ZM122.41,542.05c-1.97,1.46-4.46-.56-5.55-2.29.92-.42,5.66,1.98,5.55,2.29ZM111.79,534.5c.5.66-1.32,1.34-1.42,1.31-1.46-.44-1.11-2.84,1.42-1.31ZM105.7,535.17c.02.72-1.66.29-1.71-1.19-.02-.72,1.66-.29,1.71,1.19ZM101.32,499.99c1.39.4.66,2.94-.73,2.54s-.66-2.94.73-2.54ZM95.82,540.63c2.02,3.92,4.5,4.93-.56,6.75-1.62-2.54-1.63-4.69.56-6.75ZM93.62,548.3c2.37,2.68-3.37,3.4-4.86,4.81l4.86-4.81ZM87.89,541.79c-.02-.72,1.66-.29,1.71,1.19.02.72-1.66.29-1.71-1.19ZM87.97,543.9c2.92.61-6.1,13.87-9.79,7.55,4.7-1.25,5.59-5.75,9.79-7.55ZM72.71,469.58c1.27-4.31-1.84-5.37-3.72-8.68l1.93-4.29c.42-.25,2.73-3.32,3.5-1.4.3.73-2.71,4.48-2.49,6.23.27,2.2,6.38,6.33.78,8.14ZM71.65,526.04c-.09.57-2.97-.23-2.99-1.57.09-.57,2.97.23,2.99,1.57ZM65.26,524.2l1.82,3.28-1.64.9c-.7-.21-1.18-4.94-.18-4.19ZM64.7,530.95c.02.72-1.66.29-1.71-1.19-.02-.72,1.66-.29,1.71,1.19ZM63.17,524.29c1.39.4.66,2.94-.73,2.54-1.39-.4-.66-2.94.73-2.54ZM62.15,530.22c1.39.4.66,2.94-.73,2.54-1.39-.4-.66-2.94.73-2.54ZM45.91,483.31s.22.7-.82.45l.82-.45Z"/>
        <path class="cls-2" d="M59.53,476.87l-4.63-10.33-4.75,6.94c-.21,1.61,7.74,3.35,9.38,3.4Z"/>
        <path class="cls-2" d="M100.7,454.13l-8.57-3.86c-2.26-.12-2.55-.39-1.19,1.73,1.4.86,8.91,4.23,9.76,2.12Z"/>
        <path class="cls-2" d="M109.74,458.81c.59-.12.64-.96.37-1.28-.61-.71-1.98-1.14-2.44-2.32-.15-.39,2.89-2.64.54-3.07-2.46-.45-1.94,5.1,1.54,6.67Z"/>
        <path class="cls-2" d="M88.81,461.77c.47.58.62,1.95,1.41,2.22.28.1,2.69-.64,3.7-.75l3.47,2.38c.03-.22,3.56-1.53-.54-2.92-.3-.1-1.58.04-2.1.09-1.18-1.88-3.14-2.45-5.11-1.47l-.64-5.02c-.16-.07-1.52,2.71-1.55,3.01-.14,1.39.82,1.8,1.36,2.47Z"/>
        <path class="cls-2" d="M75.51,445.47c1.93.56,6.36-4.89-1.36-2.47.44.62,1.1,2.4,1.36,2.47Z"/>
        <path class="cls-2" d="M97.97,460c-1.37.33-.62,1.2-.75,1.42l3.38.28c4.35,2.93,4.65,7.56-1.45,6.17,1.09,3.44-1.34,1.03-3.69,2-.24.16-.51.32-.82.49.03,2.11,1.27,2.69,3.1,3.66.05.03,1.8-.49.86.61l-6.62,2.58c1.66,2.58,3.69,3.98,5.73,6.5,1.07-3.03,1.15-2.1,2.84-2.64l.45.82c-.47.67-1.03,1.77-.74,2.56l5.53,1.24c-.96-4.17,4.46-3.78,6.53-4.68,1.65-.72,7.39-4.32,8.7-3.72.71.33.31,2.53.53,2.92l-5.3,4.01,3.87,2.15c-.63-5.06,4.7-1.89,1.77,2.25.16-.03.6.31,1.13.31.18,0,.36-.04.55-.15.04-.02.06-.05.1-.07,1.88-1.18,1.27-3.76,1.8-5.28,1.22-3.47,1.91-6.77,2.95-10.22.26-.86.49-1.7.74-2.56.75-2.58,1.49-5.07,2.21-7.67-.99.49-4.09-.03-4.66-.65-.15-.16.32-1.75-.12-1.95-1.39-.62-4.43,1.73-4.34-4.18l-2.52,5.15,4.05,1.5-4.11,2.28c-1.55-.75-3.89-1.15-4.77-1.71-.74-.47.05-.97.02-1.04-.12-.31-.42-.58-.45-.82-1.91,1.85-3.01.35-4.2.17-.16.35-.22.69-.22,1.02-.02,1.97,2.48,3.49,3.02,5.09.58,1.69-.56,4.87,1.09,6.79-4.12.43-2.59-3.41-3.25-5.48-.44-1.37-1.49-2.65-1.74-3.58-2.25-.58-1.79-3.78-3.1-4.73-1.82-1.33-4.31-.01-5.94.05-.27,0-1.25-1.11-2.17-.88ZM119.92,470.36c.42-.41,1.48.24,1.66.17.53-.65,1.02-1.11,1.46-1.41-.04-.63-.58-1.37-.36-2.43.35-1.73,1.16-1.39,2.01-2.19.31-.29.43-.84.37-1.28.22-.2.58-.26.82-.45,6.27,3.76,2.24,3.54,1.9,5.39-.05.28.76,1.12.91,1.65-1.02-.11-1.97.4-2.92.54l.45.82c.2.23.24.62.45.82-.83,2.05-1.25,1.36-2.47,1.36-1.92,0-6.54-.86-4.3-3Z"/>
        <path class="cls-2" d="M53.71,452.69c-1.96-.95-2.54-.42-2.25,1.76l2.25-1.76Z"/>
        <path class="cls-2" d="M119.32,456.73c-.05-1.48-1.73-1.91-1.71-1.19.05,1.48,1.73,1.91,1.71,1.19Z"/>
        <path class="cls-2" d="M-3.12,509.32c-4.95,3.11-2.57,1.99-.56,6.75l1.28.37c-.02-.36-1.94-3.25.73-2.56.65.17.66,3.8,3.01,1.55-2.53-1.62-3.96-3.07-4.46-6.12Z"/>
        <path class="cls-2" d="M98.42,490.84c1.35.97,2.37-.25,3.75-1-.14-.12-.35-.57-.45-.82-1.1.61-2.2,1.21-3.29,1.82Z"/>
        <path class="cls-2" d="M122.59,505.43l-2.49,1.26c.84-.39,1.68-.8,2.49-1.26Z"/>
        <path class="cls-2" d="M85.15,464.87c-.62-2.82-1-2.71-3.55-4.48-1.99,2.93-1.85,5.58.34,8.41,3.43.5,3.8-1.22,3.21-3.92Z"/>
        <path class="cls-2" d="M91.99,467.53c.11-.38-4.56-2.65-5.19-3.57l-.82.45c1.98,3.18,3.45,7.13,6.02,3.11Z"/>
        <path class="cls-2" d="M92.51,480.14c-.89-1.26-1.43-2.82-2.27-4.12l-.82.45c.66,2.36-1.39,5.41,3.1,3.66Z"/>
        <path class="cls-2" d="M95.37,467.82c.62-.15,1.61.1,2.1-.09l-3.88-2.15c-.85,2.14,1.68,2.09,1.78,2.24Z"/>
        <path class="cls-2" d="M83.31,471.25c.09.03,1.91-.65,1.42-1.31-2.53-1.54-2.88.87-1.42,1.31Z"/>
        <path class="cls-2" d="M93.57,475.24l-.04-1.03c-.44-.07-.86-.23-1.28-.37.1.07-.62,1.42,1.32,1.4Z"/>
        <path class="cls-2" d="M12.3,443.86c-.16-.54-.91-1.27-.91-1.65-.11.37-.35.62-.62.75-.79.38-1.84-.28-.69-2.17.65-.5,1.34,1.32,1.31,1.42,0-.24.92-1.02.73-2.19-.67-4.03-2.99-3.35-3.74.63-.41,2.2-.36,3.97,1.08,5.84l2.84-2.64Z"/>
        <path class="cls-2" d="M4.72,443.75l2.09-.08c-1.46-3.35-1.46-.41-2.09.08Z"/>
        <path class="cls-2" d="M98.33,488.73c4.06.42-.13-4.4-.62-5.02-.55,1.56.07,4.96.62,5.02Z"/>
        <path class="cls-2" d="M97.09,489.42c-1.96.59-.82,1.14-.42,2.03.03.1.05.19.1.3l1.65-.91c-.49-.35-.32-1.72-1.33-1.42Z"/>
        <path class="cls-2" d="M90.66,486.54c.35-1.9-1.76-1.58-2.27-.79-.17.26-.16.57.17.87.03.02.26.03.55.03.62,0,1.53-.04,1.54-.11Z"/>
        <path class="cls-2" d="M118.39,480.35c-.95-1.61-6.05,1.67-7.25,2.39-.66.54-1.74.82-2.47,1.37.4,1.91,2.45,1.67,3.46,2.38-.46-.6-.54-1.07-.39-1.48.74-2.12,8.12-2.15,6.65-4.66Z"/>
        <path class="cls-2" d="M102.58,491.71s.05,0,.08,0l-.27-.49-.18-.33c-.36.54-.23.81.37.82Z"/>
        <path class="cls-2" d="M79.38,475.41c-.69-.43-1.42-.47-2.19.31.5,1.45,1.59,2.34,2.92,2.66.57.14,1.18.18,1.81.1-.72-1.1-1.58-2.47-2.54-3.07Z"/>
        <path class="cls-2" d="M84.47,479.2c1.48-.05,1.91-1.73,1.19-1.71-1.48.05-1.91,1.73-1.19,1.71Z"/>
        <path class="cls-2" d="M417.75,780.66c-2.14-8.1-2.64-12.17-7.06-19.77l-2.17-2.83c-.29-.39,0-1.22-.3-1.57-.14-.17-2.57-1.5-3.74-2.53-.19-1.01-.5-1.84-.54-2.43-.04-.66.26-1.02,1.49-1-.38,4.62,3.01,4.32,4.36,5.65,1.57,1.56,4.55,2.61,5.38,4.92.62,1.7-.09,3.04-.14,4.04-.03.6.19,1.08,1.07,1.43.75.3,1.96.51,3.94.63-.44-2.08-.71-4.21-1.21-6.27-1.64-6.71.09-8.39-7.12-11.63-.47-.09-1.05.37-1.57.3l-1.87-1.26c-.5-.02-1.03.28-1.57.3-.51.02-1.05.21-1.57.3-.52.09-1.04.2-1.57.3l-3.13.6c-3.45-2.39-10.58-4.58-14.35-6.98-.48-.1-1.08.39-1.57.3l-1.87-1.26c-.49-.09-1.07.38-1.57.3-2.91-.48-5.74-1.76-6.87-1.93-5.45-.78-10.8-1.69-16.28-.11-2.33,3.72-5.21,7.52-7.59,11.22-.65,7.64-1.54,13.64,2.35,20.67-5.53-1.04-3.24-10.68-7.41-13.19-3.44,5.18-6.27,9.95-10.12,14.96,1.58,1.02,3.79,1.26,5.31,2.23.62.4,1.25.94,1.87,1.26.08.05.17.09.25.14,2.45,1.54,4.05,6.16,8.19,1.48,5,2.33,6.3,3.63,12.48,5.72.09.12.22.27.35.41,1.32,1.68,4.1,6.3,4.43,6.49.32.19,3.37.02,6.4-.41.44,0,.85-.05,1.21-.19,2.15-.37,4.1-.88,4.8-1.49.3.31-.15,2.17.79,2.77,1.8,1.15,6.96-.66,9.41-.33,5.67.75,9.14,1.96,13.86,4.3,7.08-4.34,11.46-6.81,13.25-15.56ZM371.11,790.49c-.22-.1-.43-.26-.62-.44.36.17.71.33,1.07.47.09.04.18.07.28.11-.25,0-.49-.03-.72-.14ZM378.26,786.65c-.25-.35-2.47.25-2.16-2.83,1.56-.22,3.13-.77,4.69-.91-.49-2.81-4.33-4.07-5.91-5.36-.93-.76-2.2-1.36-3.16-2.06-.17-.15-.36-.31-.58-.47-2.87-2.73-1.89-3.22.36-6.57.39-.58.76-1.52,1.26-1.87-.28-1.01-.28-2.14-.6-3.13-.59-1.8-3.93-8.24-3.37-9.1l7.81-1.51-.67,4.99,4.73-.89c.74,1.24-1.06,3.13-.98,3.43.5.36.72.72.78,1.07,1.56,1.6,4.68,3.93,2.6,8.03,2.61.26,8.35,1.48,8.91,4-3.96,1.87-4.18,7.57-6.34,9.44-2.02,1.74-3.79-.09-4.85,0,.25,1.45-1.33,2.98-2.53,3.74Z"/>
        <path class="cls-2" d="M338.52,776.18c.58-.01,1.21-.04,1.94-.12-.72-.06-1.35,0-1.94.12Z"/>
        <path class="cls-2" d="M324.53,862.04c-2.55-1.91-5.54-3.55-7.48-5.06-5.72-4.44-19.36-20.31-25.87-16.14-.41.26-.72,2.92-1.74,3.58-1.12.59-1.48-2.53-2.48-2.77l-.48.09c-.37.22-5.1,6.19-5.38,6.7-.58,1.06,1.59,8.84-7.03,4.64,4.52-6.69,11.85-12.11,10.78-20.59l-.78-3.28c-3.64-9.28-7.84-14.72,2.32-21.58.26,2.74-.13,5.37-.04,8.13-.03.29-.03.56-.05.84-.01.14-.04.32-.05.48-.27,2.39-.84,6.49,1.94,8.07,4.72,2.7,1.82-5.19,1.9-6.86.09-1.89.34-3.2.66-5l4.02,4.09c.78-4.63,5.84-8.4,2.31-13.44,1.12-1.33,1.37-5.71,4.45-5.68,3.09.03,4.01,5.51,6.81,5.13,1.98-6.97-8.04-11.69-7.04-14.93l37.16-39.64,2.95,2.68c1.97-4.48,7.86-5.44,5.25-10.76,1.45-.71,9.16-9.83,10.72-11.82,2.6-1.13,3.58-.16,3.74,2.53-.48.59-.42,2.56-.96,3.44.37.5.84.78,1.34.96,2.07.74,4.97-.94,6.5-2.47,2.11,1.58,5.79,2.39,8.44,1.62,6.2-8.11,20.62-26.32,24.29-34.71.68-1.57,1.83-2.56.02-4.1l-78.95-58.85c-.15-.04-.35-.01-.53,0-1.18.1-2.94,1.34-4.98,3.19-5.38,4.9-12.53,13.88-15.07,16.32,2.03,1.49,4.53,1.48,6.87,1.92.56,1.6,1.26,3.18,2.47,4.4.52.52,4.4,1.22,3.73,2.5-6.85,2.44-1.29,16.76-2.03,23.18-.12.23.56,1.78-1.25,1.86-.48-1.48-.41-3.27-.92-4.7-3.96,4.75-7.26-2.09-13.75-3.85-3-.81-4.52,1.06-4.7.91l-1.27,1.87c-4.48,8.47-2.66,7.5,3.74,2.53.78,5.87,5.51,14.45,7.3,4.26l3.92,3.33c-.07,1.4-.66,3.36-.39,4.49.36,1.52,1.5,1.57,1.6,1.78.99-.61,1.83-1.62,2.83-2.17,2.34-1.28,3.01-.5,3.13-.6l4.34,5.65-5.99,1.19-.26.05.22.06,3.21.9c-4.69,9.51-5.6,1.74-8.14-.07l-3.5,1.47c-6.18-6.46-9.99-2.12-11.45,13.01-6.77,6.52-8.67,15.43-5.69,26.74-8.91,7.7-12.45,11.31-8.96,22.84l-3.31,2.38c-.85,5.27-4.16,8.92-9.93,10.96,19.19,3.47-1.54,22.66-11.07,7.59l-4.16-.44c-14.85-10.53-30.48-18.64-46.89-24.32l-2.8-3.68c-22.68,17.81-31.39,42.99-43.79,67.87-1.52,3.05-2.92,6.04-4.45,9.13-17.6,35.44-33.95,71.49-52.17,106.62l4.23,8.86c-1.68.65-3.35-3.38-5.2-4.14-.23,0-.49-.02-.78-.09-.38.06-.77.28-1.17.75-.49.58,2.13,2.12,1.94,2.62-.11.3-3.48,2.15-4.75,4.31-2.13,3.6-13.35,26.21-13.84,28.83-.33,1.79-1.01,3.36.78,4.76,10.02,3.81,20.48,6.71,30.54,10.28,8.3-.25,18.57-10.99,23.42-17.54,16.06-21.66,31.72-43.96,49.34-64.73,6.59-7.77,16.73-21.48,25.02-26,5.52-3.01,10.63-6.83,9.82,2.59-4,5.94-11.62,14.62,2,8.14,2.34,3.9-2.37,3.07-2.37,4.73,0,4.58,2.53,6.16.7,11.83-.67,2.07-2.29,3.1-2.53,3.74-.86,2.25-2.14,4.31-1.93,6.87l1.57-.3,1.26-1.87c8.05-7.28,16.76-15.85,24.88-22.68,1.44-5.82,4.82-17.17,8.91-21.22,4.16-4.13,12.24-6.38,16.03-9.59.74-.63,2.26-4.1,3.79-5.61.97-.09,1.67-.01,2.23.14,5.27,1.48-5.88,12.87-5.92,14.41-.16,5.94,6.02,1.28,6.71,1.12-1.67-4.91.45-6.62,5.01-7.58l-2.67-14c3.72-2.49,4.03.18,5.64-.14,4.55-.9,18.02-12.42,9.97,5.26-.33.73-.59,1.27-.82,1.72-1.38,2.67-1.48.88-6.7,1.36l1.29,6.66.23,1.17c.11-.24.2-.43.3-.64,3.36-7.11,3.19-3.05,5.34-3.7,1.38-.42,2.64-2.31,2.53-3.74,3.57-.34,7.51-1.95,10.97-2.12,9.86-.48,7.41,4.74,9.35,6.32.41.33,3.11-1.49,3.28.17-1.51,3.68-7.11,4.05-6.74,7.41.18.32.3.69.28,1.16.67.11,1.35.79,1.87,1.26,5.41-2.01,11.18-2.43,11.05-10.26,2.96-.21,4.2,7.02,7.06,2.74.6-.9,3.95-10.91,3.49-12.14-1.08-2.81-6.43-4-8.58-5.61ZM292.97,807.98l.3,1.57c.03-.07-1.24,0-.3-1.57ZM282.07,751.57c1.42,1.76-1.45,5.95-2.2,5.3-1.42-1.76,1.45-5.95,2.2-5.3ZM174.06,848.79c-1.17-.34.4-2.84,2.82-2.14,1.17.34-.4,2.84-2.82,2.14ZM97.21,985.51c-6.82,1.77,3.69-11.8,5.23-10.73,1.87,1.3-4.65,10.58-5.23,10.73ZM92.63,991.3c-1.38,2.04-5.1-.48-3.72-2.52,1.38-2.04,5.1.48,3.72,2.52ZM166.38,825.91c-.45,8.23,6.36,12.05,7.06,19.75-2.51,4.4-19.18-17.11-7.06-19.75ZM163.38,852.48c-5.56,2.42-3.72-7.21-5.23-10.36l5.23,10.36ZM110.88,976.4c-.34,1.17-2.84-.4-2.14-2.82.34-1.17,2.84.4,2.14,2.82ZM114.1,967.66l3.72,2.52c-3.19,1.08-3.54.84-3.72-2.52ZM107.89,960.73c.32-.61,11.61,3.73,12.46,5.71-2.86.97-15.26-.35-12.46-5.71ZM124.41,945.35c.33-1.12.85-1.22,1.57-.3l-1.57.3ZM143.72,935.93c.88.45-1.93,4.7-4.1,4.03-.89-.45,1.95-4.66,4.1-4.03-.88-.6.97-2.77,1.42-1.09.14.54-1,1.37-1.42,1.09ZM154.12,901.41c-1.33.46-1.46-2.84-1.37-2.97,1.48-2.13,5.17-.3,1.37,2.97ZM155.32,844.3l1.54-.3c2.04,6.37-1.06,6.97-1.54.3ZM158.37,902.22c-1.33-3.94,3.23-6.91,6.6-7.76.2,1.71-6.17,8.1-6.6,7.76ZM164,855.63c4.95-1.29,8.43-.17,10.6,4.43-7.38,1.21-10.32,4.68-10.6-4.43ZM176.12,889.04c-1.33.46-1.46-2.84-1.37-2.97,1.48-2.13,5.17-.3,1.37,2.97ZM178.24,878.87c-1.17-.34.4-2.84,2.82-2.14,1.17.34-.4,2.84-2.82,2.14ZM205.33,808.64c1.38-2.04,5.1.48,3.72,2.52-1.38,2.04-5.1-.48-3.72-2.52ZM206.54,814.89c-1.17-.34.4-2.84,2.82-2.14,1.17.34-.4,2.84-2.82,2.14ZM210.82,828.69c-.88-.45,1.94-4.68,4.1-4.01.88.45-1.94,4.68-4.1,4.01ZM217.13,819.35l-6.25,1.21-.6-3.12c.7-1.02,8.58.68,6.85,1.91ZM218.1,815.92c-1.38,2.04-5.1-.48-3.72-2.52,1.38-2.04,5.1.48,3.72,2.52ZM233.59,887.72c1.38-2.04,5.1.48,3.72,2.52s-5.1-.48-3.72-2.52ZM314.94,863.01c-3.69-.71-13.57,6.98-13.54-3.01,6.29,4.31,9.64-.16,15.96-1.45l5.91,5.36c.18.81,3.92,6.15.42,6.39-1.34.09-5.82-6.72-8.75-7.29Z"/>
        <path class="cls-2" d="M296.54,834.91l19.11-2.06-8.71-11.31c-2.49-1.19-9.46,10.73-10.4,13.37Z"/>
        <path class="cls-2" d="M285.48,945.97l-1.53-7.83c2.02-2.1,3.9-5.67,5.26-6.8,1.15-.95,1.55.59,1.67.58.57-.03,1.16-.38,1.57-.3-1.98-4.05,1.01-5.04,1.93-6.87-.49-.45-1-.72-1.53-.89-3.17-1.06-6.93,2.17-9.8,2.21-3.03.05-7.57-3.46-11.52-1.81,1.46-6.88,6.85-2.39,10.55-2.37,2.45.01,5.06-1.01,6.69-.94,2.12-3.33,7.04-.92,9.26-2.52,3.1-2.23,2.28-6.95,3.03-9.61.12-.43,2.44-1.44,2.56-3.04.17-2.23-1.38-1.72-1.82-1.91-.03-.02-.05-.04-.08-.05l-2.23,5.31c-7.01,5.49-14.64,3.54-9.19-5.57-6.12-.05-.96-2.7-1.3-7-.13-.47-.25-.98-.36-1.59-3.42-1.07-5,.65-7.53,3.08-.06.06-.16,3.16-1.44,1.07l-.69-12.03c-5.04,1.32-8.37,3.87-13.49,5.85,4.33,3.32,2.79,2.96,2.78,5.97l-1.57.3c-.84-1.11-2.32-2.59-3.74-2.53l-4.91,8.28c7.24.64,3.76,9.18,4.14,13,.3,3.04,3.1,14.19,1.44,15.99-.9.97-4.25-.83-4.99-.67l-3.69-10.66-5.5,5.13c8.49,1.63.58,8.58-4.56,1.68-.03.27-.82.81-1.09,1.66-.09.29-.12.61-.04.96.01.07.05.12.07.19.92,3.66,5.41,4.02,7.57,5.68,4.97,3.8,9.93,6.63,14.96,10.12,1.26.87,2.49,1.68,3.74,2.53,3.77,2.57,7.41,5.07,11.22,7.59-.27-1.86,2.2-6.59,3.49-7.18.34-.15,2.66,1.43,3.21.82,1.73-1.92-.47-8.05,9.01-4.81l-6.99-6.77-4.55,5.75ZM274.79,949.66c-.43-.23-2.21.63-3.13.6.71-1.59.38-3.39.66-5l-1.57.3c-.48.2-1.12.07-1.57.3-2.88-2.41-1.53-2.74-.91-4.7.99-3.1,4.82-10.11,7.11-5.37.43.9-1.16,2.26-1.14,2.6.77,1.19,1.25,2.22,1.5,3.1,1.04.26,2.51-.21,4.1.69,2.61,1.48,1.63,2.59,2.47,4.4.31.66,1.14,1.13,1.87,1.26.21.47.12,1.08.3,1.57-9.35,8.15-6.89,1.76-9.71.25Z"/>
        <path class="cls-2" d="M320.22,898.63c-2.13,1.8-11.49,12.16-8.55,14.64l10.72-11.81c1.38-3.59,1.96-3.91-2.17-2.83Z"/>
        <path class="cls-2" d="M299.37,925.41c-.11,1.02,1.22,1.54,1.87,1.26,1.47-.61,2.88-2.59,5.02-2.73.71-.05,2.74,6.05,4.68,2.47,2.02-3.73-7.22-5.81-11.57-1.01Z"/>
        <path class="cls-2" d="M310.26,889.18c-2.17-.96-3.34.38-4.7.91-1.18.46-3.47-.03-4.33,1.11-.31.41-.38,4.67-.73,6.37l-5.66,4.34c.35.17.6,6.55,5,.66.32-.43.76-2.56.96-3.44,3.66-.92,5.6-3.79,5.06-7.48l8.44,1.61c.19-.22-3.58-3.88-4.04-4.08Z"/>
        <path class="cls-2" d="M343.54,876.27c-1.24.39-4.45.53-4.7.89-1.92,2.82,4.57,12.83,4.7-.89Z"/>
        <path class="cls-2" d="M336.95,833.64l1.67,4.55c2.56-2.67,2.01-3.88-1.67-4.55Z"/>
        <path class="cls-2" d="M300.52,939.84c-2.42-.7-3.99,1.8-2.82,2.14,2.42.7,3.99-1.8,2.82-2.14Z"/>
        <path class="cls-2" d="M264.79,720.76c3.94-3.23,7.04-4.78,12.21-3.99-2.43-9.62-1.86-5.18-10.61-4.44l-1.26,1.87c.59.16,6.27-1.43,3.74,2.52-.61.96-6.48-.93-4.08,4.04Z"/>
        <path class="cls-2" d="M291.64,683.07c-.39-.34.09-3.34-1.4-3.03-6.1,1.27-10.05,12.54.14,4.9.13-.25-.55-1.79,1.27-1.87Z"/>
        <path class="cls-2" d="M253.24,896.93c.27-.17,1.1-.26,1.57-.3-.4-2.09-.81-4.18-1.21-6.27-2.27,1.67-.84,3.96-.36,6.57Z"/>
        <path class="cls-2" d="M217.38,921.72l-.74-4.68c.18,1.56.41,3.12.74,4.68Z"/>
        <path class="cls-2" d="M297.84,875.32c-2.61,5.27-.01,6.77,4.65,7.23,4.88.48,4.89-.2,9.1-3.38-3.68-4.74-8.03-5.91-13.75-3.85Z"/>
        <path class="cls-2" d="M294.61,892.2c.56.38,6.67-5.97,8.48-6.51l-.3-1.57c-6.16,1.52-13.31,1.83-8.18,8.08Z"/>
        <path class="cls-2" d="M273.97,886.42c2.51-.77,5.29-.82,7.84-1.51l-.3-1.57c-4.16-.18-8.01-5.08-7.53,3.08Z"/>
        <path class="cls-2" d="M292.36,897.51c-.09,1.08-1,2.54-.96,3.44l5.5-5.13c-3.01-2.49-4.26,1.62-4.54,1.7Z"/>
        <path class="cls-2" d="M294.51,879.2c3.8-3.27.11-5.1-1.37-2.97-.09.13.04,3.43,1.37,2.97Z"/>
        <path class="cls-2" d="M283.02,891.18c.35-.67.82-1.27,1.26-1.87-.16.12-1.96-1.74-2.95,1.39l1.69.48Z"/>
        <path class="cls-2" d="M381.81,771.34c-3.33-1.81-6.22-2.67-10-1.31l2.77,5.96c.96.03,2.52-.8,3.13-.6-.54-.37-.82-.89-.88-1.4-.2-1.48,1.41-2.82,3.86.02.43,1.21-2.35,1.44-2.89,1.4-.03,0-.06,0-.09-.02.39.13,1.17,2.02,3.15,2.32,6.86,1.03,6.98-3.07.94-6.36Z"/>
        <path class="cls-2" d="M378.73,763.81l-.97,3.42c6.17-.6,1.42-2.14.97-3.42Z"/>
        <path class="cls-2" d="M257.05,891.32c-2.81,6.33,7.17,2.11,8.42,1.62-2.22-1.71-8.04-2.48-8.42-1.62Z"/>
        <path class="cls-2" d="M256.59,888.95c.08-3.38-1.33-2-2.93-1.75-.2-.02-.42-.01-.66.02l.6,3.13c.06-.03.12-.07.18-.1.92-.39,2.78.36,2.81-1.31Z"/>
        <path class="cls-2" d="M264.62,880.08c2.88,1.56,3.47-2.02,2.46-3.24-.33-.4-.84-.55-1.5-.18-.05.03-.19.4-.34.88-.32,1-.73,2.49-.62,2.54Z"/>
        <path class="cls-2" d="M253.43,914.77c1.2-.43,2.01-.3,2.59.14,3.04,2.31-.78,14.24,4.04,13.18,3.1-.68.48-10.63-.06-12.96-.53-1.35-.4-3.23-.91-4.7-3.3-.35-3.98,3.08-5.66,4.34Z"/>
        <path class="cls-2" d="M250.01,896.62c-.02.05-.04.07-.06.13l.94-.18.63-.12c-.68-.87-1.18-.79-1.51.17Z"/>
        <path class="cls-2" d="M289.14,864c-2.6.04-4.61,1.34-5.82,3.33-.52.85-.9,1.8-1.1,2.86,2.16-.58,4.82-1.25,6.28-2.48,1.05-.88,1.5-2.04.64-3.71Z"/>
        <path class="cls-2" d="M279.71,873.95c-.7,2.42,1.8,3.99,2.14,2.82.7-2.42-1.8-3.99-2.14-2.82Z"/>
      </g>
    </g>
  </g>
</svg>