<?xml version="1.0" encoding="UTF-8"?>
<svg id="_레이어_2" data-name="레이어 2" xmlns="http://www.w3.org/2000/svg" xmlns:xlink="http://www.w3.org/1999/xlink" viewBox="0 0 399 1000">
  <defs>
    <style>
      .cls-1 {
        fill: none;
      }

      .cls-2 {
        fill: #e6e7e8;
      }

      .cls-3 {
        clip-path: url(#clippath);
      }
    </style>
    <clipPath id="clippath">
      <rect class="cls-1" width="399" height="1000"/>
    </clipPath>
  </defs>
  <g id="Layer_1" data-name="Layer 1">
    <g class="cls-3">
      <g>
        <path class="cls-2" d="M262.81,146.45c2.01-2.68,2.31-.79,3.47-1.42.81-.43,1.25-1.57,1.76-1.88.06-.11.04-.73.33-1.28-1.01-4.42.38-3.35,2.71-5.24,4.38-3.56,7.35-4.65,12.93-5.51,2.04-.32,4.58-.49,6.63-1.3,2.64-1.04,2.38-2.13,4.4-3.25,1.79-.99,2.8-.39,4.45-2.41,1.53-1.87,3.61-5.21,4.77-7.26-1.98-3.3-2.38-7.03-3.23-10.7-.17-.74.52-1.79.07-2.55-.6-1.01-2.29-1.4-3.31-2.65-1.66-2.04-3.56-8.92-3.8-11.54-.12-1.35.52-6.39.27-7.12-.17-.51-1.35-.57-1.39-1.59-.04-1.08,1.43-3.85,1.69-5.61.32-2.16-.15-5.67-.08-7.98-.93.15-2.02,2.25-2.19,3.02-.16.69.59,1.03.58,1.09-.02.13-1.65.42-2.44,1.01l-.39.45c-.14.13-.27.3-.39.45l-.72,1.73c-.1.17-.3.28-.39.45l-.33,1.28c-.09.17-.3.28-.39.45l-.55,1.33c-.06.16-.12.31-.17.4-.09.17-.3.28-.39.45.21,1.44-.8,2.36-1.44,3.46-.1.17-.29.28-.39.45.21,1.44-.8,2.36-1.44,3.46-.1.17-.3.28-.39.45l-.72,1.73c-.09.17-.3.28-.39.45l-.33,1.28c-.09.17-.3.28-.39.45l-.56,1.34c-.06.16-.12.3-.16.39-.09.17-.3.28-.39.45.21,1.44-.8,2.36-1.44,3.46-.1.17-.29.28-.39.45.21,1.44-.8,2.36-1.44,3.46-.1.17-.3.28-.39.45l-.72,1.73c-.09.17-.3.28-.39.45l-.33,1.28c-.09.17-.3.28-.39.45l-.56,1.34c-.06.16-.12.3-.16.39-.09.17-.3.28-.39.45.21,1.44-.8,2.36-1.44,3.46-.1.17-.3.28-.39.45l-.72,1.73c-.09.17-.3.28-.39.45l-.33,1.28c-.09.17-.3.28-.39.45l-.57,1.36c-.05.14-.11.27-.15.37-.09.17-.31.28-.39.45l-.33,1.28c-.08.17-.3.28-.39.45l-.54,1.3c-.07.17-.13.33-.18.43-.09.17-.3.28-.39.45.21,1.44-.8,2.36-1.44,3.46-.1.17-.3.28-.39.45l-.72,1.73c-.09.17-.3.28-.39.45l-.33,1.28c-.09.17-.3.28-.39.45l-.57,1.36c-.06.15-.11.28-.15.37-.09.17-.31.28-.39.45l-.33,1.28c-.08.17-.3.28-.39.45l-.54,1.3c-.07.17-.13.33-.18.43-.09.17-.3.28-.39.45.21,1.44-.8,2.36-1.44,3.46-.1.17-.3.28-.39.45l-.72,1.73c-.09.17-.3.28-.39.45l-.33,1.28c-.09.17-.3.28-.39.45l-.55,1.33c-.06.16-.12.3-.17.4-.08.17-.3.28-.39.45.43.52-.35,1.18-.33,1.28.4,1.74,6.24.44,7.58.31ZM293.42,121.22c2.08-.16,3.8-1.98,1.44-3.46-.24.17-.57.18-.84.06-.2.46-1.35,2.59-1.5,2.62-2.05-6.37.59-3.1,1.44-3.46.33-.14.75-1.04,1.17-1.34.24-.04.3.89.5,1.22.86,1.46,2,2.31.53,3.99-.79.91-1.79,1.42-2.75.36ZM293.38,74.31l-1.43,1.64c-.81-1.87-.31-3.16,1.44-1.86.04.03.08.05.12.08l-.13.15ZM289.19,102.61c.36-.07.5,1.81-.28,2.11-.36.07-.5-1.81.28-2.11ZM287.67,123.29c.07.72-2.03,4.22-3.55,3.2.06-.27,3.32-5.63,3.55-3.2ZM280.25,107.47c.16-.04,2.47,1.03,2.58,1.45.12.52-1.33,3.2-1.76,3.91,1.63,1.02.29,2.02-1.33,1.98-.25-.71.97-1.38,1.33-1.98-.25-.16-1.23-.05-1.24-.33-.02-.36,1.23-.79.29-1.28l-2.44,1.01c.01-.89,2.2-4.66,2.58-4.76Z"/>
        <path class="cls-2" d="M368.99,108.42c.43,1.56.86,3.11,1.29,4.66-.38-1.55-.8-3.1-1.29-4.66Z"/>
        <path class="cls-2" d="M269.11,162.02c-.43.2-.77.47-.95.86.27-.33.59-.61.95-.86Z"/>
        <path class="cls-2" d="M292.61,58.29c3.28-1.57,2.89-3.4,3.94-6.84.28-.93,1.21-1.52-.15-2.28-.27.28-.52.59-.78.89-.25.3-.54.58-.78.89l-1.11,2.18c-.11.16-.29.28-.39.45l-.88,1.73c-.08.18-.16.33-.23.45-.2.32-.58.57-.78.89.31.52-.04.87-.33,1.28.56,2.03.4.86,1.48.35Z"/>
        <path class="cls-2" d="M373.36,97.15c-.32.33-.64.65-.88.95.17-.14.51-.51.88-.95Z"/>
        <path class="cls-2" d="M372.93,95.08l1.41-.21c-.36-.03-.87.05-1.41.21Z"/>
        <path class="cls-2" d="M374.77,95.06l-.22.29c-.04.18-.11.37-.21.54.28-.4.46-.71.42-.83Z"/>
        <path class="cls-2" d="M348.61,141.76s.59-.18.84-.06c.16-.08.22-.34.39-.45.36-.22.85-.3,1.23-.51.34-1.19-1.03-.25-1.28-.33-.68-.21-1.52-1.59-2.56-.66,2.43.44.98,1.63,1.4,2.01Z"/>
        <path class="cls-2" d="M350.86,107.58c.08.16.34.23.45.39l.45.39c0-.49,1.32-1.36-.62-2.9.04.62-.26,1.45-.27,2.12Z"/>
        <path class="cls-2" d="M317.79,146.04s.08-.03.12-.04c-.38.04-.69.11-.92.22.02,0,.03.03.05.03.22.06.47-.11.75-.21Z"/>
        <path class="cls-2" d="M316.2,92.33c.23.06.51.02.77.06-.22-.11-.48-.15-.77-.06Z"/>
        <path class="cls-2" d="M301.92,46.96c.75-.11,6.34-3.32,6.4-1.55.01.33-5.43,2.97-5.77,3.06-2.41.64-3.29-2.07-5.76.26,1.5,0,5.29,2.65,6.25,2.32,1.12-.39,1.77-1.89,2.77-2.56,1.03-.7,2.48-.5,3.3-1.26.91-.84.76-2.84,1.32-2.97.17.17.43.34.79.53-.44,2.34-2,4.03-2.13,5.78-.15,2.05.86,3.78.82,5.65,1.84.57-.1,2.25-.66,1.24-.05-.09-.09-.2-.12-.34-.03-.15.47-.5.68-.74.05-.06.09-.12.09-.16-.87-.27-2.55,2.31-2.52,2.88.09,2.12,1.98,5.01,2.53,6.99.93,3.36,1.99,7.13,2.67,10.53.15.76-.5,2.45.23,3.34,1.27-1.13.5-1.48,1.06-3.01-.1-.13-.31-.29-.45-.39.61-1.79.86-3.65.88-5.52.04-3.8-.88-9.3-2.15-12.87-.08-.22-.69-.47-.89-.78.75-1.64,1.6-.17,2.17,1.11.46,1.03,1.32,4.32,1.63,5.35l2.84-1.46c-1.88-7.26-3.55-14.61-5.3-21.9-.62-.47-1.15-1.11-1.79-1.56-.6-.42-2.06-.51-2.62-1.5-.93.03-1.71.14-2.51.17l.06.84c1.08.16,1.6.37,2.57.66.21-.27.6-.24.84-.06.77.6,1.06,1.83,2.24,1.95.03.61-.23,1.44-.27,2.12-.14.07-.29.11-.43.17-3.21,1.34-7.17.66-10.6,1.3-1.06.2-5.15.9-4.68,2.14,2.9-.83,4.35.55,6.53.24Z"/>
        <path class="cls-2" d="M329.09,141.91c-1.79-.79-4.2-3.76-6.02-5.1-1.4-1.03-2.27-1.37-3.91-1.83l1.34,1.17,1.79,1.56.45.39c.3.26.59.52.89.78.15.13.29.26.45.39.31.25.59.52.89.78.9.77,1.76,1.61,2.68,2.33.58.46,2.61-.05,1.85,2.39-.42.72-1.87,2.14-2.56,1.59-.11-.09.14-.55.1-.58-1.26-1.08-3.45-2.39-3.63-3.95-.14-.13-.32-.25-.45-.39-.68-.75-.46-1.18-.51-1.23-.27-.28-.62-.5-.89-.78-.52-.54-1.35-1.48-2.18-1.11.1.77-.23,1.78-.1,2.31.72,2.9,6.37,4.91,6.53,5.65-2.77.57-2.25,1.39-3.11,3.57-1.85-1.44-1.91-3.5-4.47-3.89l-1.43.76c1.06,1.87.08.92-.13,1.03-.28.15-.32.76-1.09.67-.24-.03-4.4-1.19-4.62-1.29-4.57-2.06-6.02-8.85-5.99-13.49,0-.92.07-2.84.39-3.6.06-.14.26-.29.39-.45-.53-.55-1.7-2.4-1.85-2.39-.44.02-.54,1.41-.72,1.73l.45.39c-2.73,3.32-4.13,7.5-5.94,11.33-1.49,3.16-2.93,6.36-4.38,9.54-1.35-.73-.22-1.86-.49-2.8-.74-2.59-1.45-1.44-.87-4.66.13-.75,1.26-1.43-.18-1.93-.12-.04-.22-.08-.38-.12.09-.07.17-.13.25-.2,2.92-2.32,1.62-5.22,1.95-8.17.12-1.11,1.91-1.79.34-3.57-1.74,1.33-2.33,3.58-3.6,5.11-1.22,1.46-5.32,3.04-3.23,5.44.96.16,1.87-.12,2.5.6.02.02.04.04.07.07-.07.04-.13.07-.19.1-.64.34-1.16.5-1.28.72-.1.19.08.44.75.9-.17.2-.32.39-.61.25-.71-.71-2.29-1.4-2.07-2.58-.4-.1-.94-.18-1.28-.33-.8-1.61,1.18-5.07-.02-6.3l-.84.06-.39.45c1.54,3.95-1.95,3.5-.45-.39-.19-.27-.18-.96-.29-1.02-.1-.06-.2-.09-.29-.12-.47-.14-.78.08-1.01.46-.51.84-.62,2.49-1.18,2.97-.28.24-3.41.58-3.73.68l-2.22,4.35c-.83-.48.52-1.48-.17-2.5-.38.45-.77.9-1.17,1.34-.13.22-.24.38-.35.52-.3.59-.32,1.16-.37,1.21l1.45,2.84c-.47.84-.72-.31-1.57.04-.41.17-.71.93-.88.97-.23.05-.6-1.65-.94-1.61-.37.04-1.36,3.29-2.02,4.17-1.54,2.04-3.31,1.26-1.65,3.64.24-1.69,3.75-3.84,5.08-2.69,1.49,1.28-.41,3.91-1.12,5.36-1.46,3.01-3.27,6.06-5.27,8.77l-.39.45c.71.22,1.46.82,2.18,1.11l.39-.45c.1-.17.28-.28.39-.45.21-.32-.28-1.53,1.32-1.99.25-.07,1.6-.01,3.04.06,1.03-.08,2.18-.05,3.5.13.48-.52.15-1.72-.56-2.05-.91,1.04-5.93,1.46-6.29,0-.07-.3,2.31-5.33,2.54-5.64,1.14-1.56,2.99-1.97,4.16-3.43,1.89,1.89,1.93,5.7,3.05,7.36.11.16,1.74-1.41,1.88.06.03.29-1.05,1.71-.85,2.82.04.21.11.41.25.59,1.72-.02,3.59.29,5.27.28,1.64-.02,5.16-1.18,5.88-.03.23.36-.4,7.89-.81,8.54-.89,1.41-2.08.67-3.33,1.23,2.79,3.03,8.62,3.82,11.33,5.94,1.61.81,1.52-.98,1.61-.95,1.24.39,3.59,3.82,3.85,1,1.11,2.45,1.09.74,2.41,1.07,2.97.74,5.25,1.99,8.37,2.8.64.17,1.51.81,2.18,1.1l.38-.44-.5-1.23c1.32.08,3.29.68,4.69.94,2.91.54,5.78,1.36,8.73,1.7l-2.99-3.78c.13-4.2,1.55-8.13,2.09-12.33.38-2.97-.25-6.47,1.03-9.31l.45.39c-.11,2.74-1.43,6.4.19,8.81.31.04.77.54,1.28.33-.34-4.42.02-10.97.18-15.56-.47-.33-.87-.88-1.34-1.17-.3-.18-.91-.17-1.28-.33.03-1.2-.12-3.73.1-4.63.64-2.55,1.49-1.79,3.61-2.35-1.48-2.56-2.93-.22-4.47-.9ZM295.35,161.41l-1.16,1.34-1.34-1.16c.66-1.34,1.24-.46,2.5-.18ZM286.86,154.03c.17.42-.92.53-1.27-.34-.17-.42.92-.53,1.27.34ZM281.11,159.72c-.06-.24.01-.61.19-1.11l.79.95.36.43c-.82.2-1.25.12-1.34-.28ZM286.88,160.32c-.46.03-.71-.37-.74-.79-.03-.42.17-.85.63-.88.5-.03.75.44.73.9-.01.38-.2.74-.62.77ZM328.25,181.41s0,.03,0,.04c.17.73-2.82-.47-3.4-.65.9-1.07,1.05-1.81,2.06-.56.19.36,1.01.74,1.33,1.17,0,0,0,0,0,0Z"/>
        <path class="cls-2" d="M300.19,52.48c-2.32.32-2.6,2.89-4.1,4.28,0,1.38,6.95.36,4.1-4.28Z"/>
        <path class="cls-2" d="M359.27,101.52c.6-.46-.06-1.03-.12-1.67,2.01,1.42,2.62-1.05,4.51-1.57.32.2.59.63.89.78.35.18.89.18,1.28.33.07.16,0,.56.06.84.09.47.48.75.5,1.23-.16.07-.23.38-.39.45l-1.79-1.56c-.06.16-.28.27-.39.45.48.34.41.78.5,1.23.59,2.64,2.7,5.34,2.83,7.61.09,1.5-.78.9-.96,1.09-.9-2.84-1.25-6.32-3.92-8.13-1,1.33-.67,8.23,1.47,9.15-2.21,1.49-4.07-3.97-5.57-1.72.47,1.03,5.32,4.32,5.36,4.67.07.58-3.02,1.25-2,2.89,1,1.6,3.02,1.71,4.47,2.4.16.07.31.15.47.22.8.57,1.19,2,1.38,2.17l-.64.25c1.81,1.46,1.76,4.44,1.1,6.44-.13.39-.99,1.23-1.5,2.62-.25.69.03,1.85-.66,2.57-.89-.79-3.23,1.99-4.01,2.8l2.51-.17c.16-.09.23-.34.39-.45.4-.26,1.51-.83,1.61-.95.99-1.09.74-1.5,1.11-2.18.62-1.15,1.36-2.02,1.44-3.46.72-.15,1.09.6,1.73.72-.55,1.53-2.56,3.08-2.61,4.8,1.62-.49,3.16-1.49,4.96-1.18.15-.08.22-.33.39-.45.12-.08.27-.14.43-.19.48-.26.77-.68.87-1.28-.76-1.51-1-3.19-1.31-4.83-.25-.28-.59-.5-.87-.75-.02,0-.02,0-.04,0l-1.88,3.05c.04-.55-.11-1.12-.12-1.67.27-.27.53-1.59,1.46-2.07.15-.08.3-.13.49-.16-.45-.66-.52-1.41-1.4-2,.11-.46.46-.78.68-1.17-.18-1.62-.42-3.26-.72-4.9-.79-2.63-1.86-5.64-2.31-7.45-.2-.78.09-1.61.03-1.87-.04-.16-.41-.23-.45-.39-.3-1.29-1.47-3.81-1.57-4.51l.39-.45.78-.89,1.17-1.34.39-.45c.49-.4.75-1.13,1.61-.95.39-.44.79-.89,1.17-1.34l2.08-2.75s.03-.08.03-.12c-3.75-.43-2.39,1.14-3,1.87-.38.45-.81.25-.84.29.03-.29-.02-.52-.12-.71-.63-1.15-3.47-.59-4.37-.46-2.47.36-4.82,1.8-6.77,2.37-1.78.52-3.07-.1-4.63-.1-1.44,1.13-3.29,1.8-3.95,3.63-.06.17-.31.28-.39.45,1.78-.24,3.15-2.4,5.07-2.64,1.47-.18,2.63.66,3.68,1.6ZM368.67,116c-.43-.41-.92-.75-1.34-1.17l-.95-1.61c-.1-.2-.49-1.16-.51-1.23,1.99-.25,2.3,2.74,2.8,4.01Z"/>
        <path class="cls-2" d="M306.94,107.26c.04.97-1.27,1.88-.45,2.55l2.65-3.12-3.95-3.5c-.38,1.25,1.69,2.71,1.75,4.07Z"/>
        <path class="cls-2" d="M314.06,82.6c1.13.87,1.23-.91,1.38-1.14-.15-1.8.59-3.92-.79-5.41-.19.33-.68.62-.78.89,1.88,2.61-1.3,4.5.19,5.65Z"/>
        <polygon class="cls-2" points="312.59 116.74 309.35 114.65 314.38 120.6 312.59 116.74"/>
        <path class="cls-2" d="M295.99,61.38l2.5-3.32c-1.73-.24-4.46,1.88-2.5,3.32Z"/>
        <path class="cls-2" d="M343.95,129.06c2.2-.44-.09-3.7-1.13-4.11-.68.82.92,4.16,1.13,4.11Z"/>
        <path class="cls-2" d="M305.46,58.63c-1.32.1-.16,3,1.07,3.28.59.17-.57-3.31-1.07-3.28Z"/>
        <path class="cls-2" d="M315.3,91.56c-.51.09-1.36,2.86-.67,2.56.34-.24.78-.92,1.13-1.37.17-.22.32-.38.43-.42-.27-.07-.7-.81-.89-.78Z"/>
        <path class="cls-2" d="M292.53,59.94l.06.84c.33,0,.9.23,1.28.33.39-1.76.19-1.65-1.34-1.17Z"/>
        <rect class="cls-2" x="308.71" y="88.91" width="2.37" height=".58" transform="translate(39.18 264.43) rotate(-48.97)"/>
        <path class="cls-2" d="M332.51,145.82c.31.23.59.62.89.78l.39-.45c.35-1.24-.62-1.59-1.28-.33Z"/>
        <path class="cls-2" d="M338.75,142.72c.06.04.16.08.28.13.74.34,1.45.75,2.18,1.11,1.32-.49,2.41-.82,3.68-1.52.24-.13.64,0,1.23-.51.07-.06.53-1.21.94-1.52-1.52-.24-1.71-.82-2.67.8-2.37-.12-2.45-.3-4.96,1.18-2.1-.83-3-.78-.67.32Z"/>
        <path class="cls-2" d="M364.37,123.65c.36-1.83-1.14-1.52-1.08-.56,0,.06.8.99,1.08.56Z"/>
        <path class="cls-2" d="M320.21,122.94c.36-1.83-1.14-1.52-1.08-.56,0,.06.8.99,1.08.56Z"/>
        <path class="cls-2" d="M331.41,148c.52.71.7.09,1.22-.51-.12.09-.97-.13-1.22.51Z"/>
        <path class="cls-2" d="M347.78,141.82c-.28-.05-.56.03-.84.06l.84-.06Z"/>
        <path class="cls-2" d="M266.16,146.22c-1.1.38-2.35.14-3.34.23-.24.32-.67,1.48-1.11,2.18,2.28-.34,2.98-.71,4.45-2.41Z"/>
        <path class="cls-2" d="M259.65,149.19c.79.36.55,1.3.95,1.61.52-.81.7-1.53,1.11-2.18-.67.1-1.5-.64-2.06.56Z"/>
        <path class="cls-2" d="M259.46,149.83c-.65-1.16-1.83.46-1.82.76.03.85,2.77.94,1.82-.76Z"/>
        <path class="cls-2" d="M255.53,156.62l1.22-.5-.03-.03-1.31-1.14c-.4.28-.75.97-1.16,1.35-.01.14,1,.28,1.28.33Z"/>
        <path class="cls-2" d="M270.88,141.69c-.39.23-1.29.14-1.61.95.42-.22,1.28-.07,1.61-.95Z"/>
        <path class="cls-2" d="M258.49,156.83c.06.02.14.9.71,1.01.88.18,1.79-.69,2.61-.57.72.11,1.21,1.28,2.01,1.1,1.44-.32,2.72-4.75,2.12-6.06-.83-1.8-1.28,2.35-2.04.57-.43-1.01-.24-2.6.59-3.39-1.15-.25-2.9,2.12-3.9,1.31-.51.79-1.84,3.08-2.28,3.52,1.56,1.13,1.56,1.18.17,2.51Z"/>
        <path class="cls-2" d="M288.68,40.89l-1.73-.72c-.26.06-1.24-.39-1.47-.1-.19.24.2,2.56.42,3.12l2.78-2.29Z"/>
        <path class="cls-2" d="M316.25,68.8l-1.08-.56c.25.91-.05,1.9-.02,2.73.05,1.48.19,3.56.35,5.02.08.69,1,2.76,1.13,4.12.03.34-.35.93-.33,1.28.09,1.52.45,2.37.29,4.18-.08.93.17,1.72-.66,2.57.32,1.7.18,2.67,1.96,4.07l-.06.07-.32.37c-.14-.18-.32-.23-.51-.26.14.07.27.18.39.3.67.73.96,2.18,1.13,2.42.39,2.31-1.26,4.76-1.59,7.26l2.5-.18c-.3,1.38-.98,2.77-1.82,3.91l1.83-.76c-.27,2.6-.15,5.18-.09,7.78.02,1.03-.41,2.33.23,3.34.87-.67.57-1.79.56-2.79.04-.14.05-.34.04-.61.51-2.55,1.61-4.52,1.6-7.25,0-.91-.76-2.2-.23-3.34.06.16.38.23.45.39.38.99.35,2.14.62,2.9.54,1.49,1.39,3.2,2.02,4.9l-.39.45c-.92-.25-.35.18-.39.45-.09.73.15,1.5.12,1.67-.58,3.31-5.02,7.75-2,11.29,1.44,1.68,3.2-1.28,4.05-1.9.41-.29,1.1.45,1.27.23,2.9-3.85-2.07-2.09-2.19-2.34-.5-1.04,0-4.41-.19-5.66-.05-.37-.4-.82-.51-1.23.09-.43.27-.85.33-1.28-.03-.07-.02-.17-.02-.28,0,0,0-.01,0-.02,0,0,0-.01,0-.02-.03-.17-.06-.35-.04-.51.06.16.05.36.04.53.02.11.03.21.02.3.26.73.52,1.97.56,2.06.18.36,1.18,1.04,1.62,1.76,1.09,1.77,2.52,6.39,5.09,4.08l-3.23-12.93-7.81-31.26c-.96,1.4-1.57,3.53-2.67,3.97l-1.01-2.44c2.08,1.94,1.23-4.8,2.55-5.65-.25-.86.06-2.68-.68-3.73l-1.49,2.62c-.38-.02-1.12-1.5-1.4-2Z"/>
        <path class="cls-2" d="M315.49,76c-.21-.62-.36-.95-.46-1.09.14.38.29.75.46,1.09Z"/>
        <path class="cls-2" d="M295.87,141.43c.42.39.68-.49,1-.7.11-.78.36-1.87.66-2.57,1.33-3.1,3.51-6.17,4.83-9.16,1.25-2.83.04-1.23-1.06-2.64-.37-.48-.23-1.51-.51-1.87-.12.1-.23.18-.33.25-.65.66-.87,2.04-1.17,2.37.24,4.37-2.31,7.03-2.98,11.55-.13.88-.67,1.77-.43,2.76Z"/>
        <path class="cls-2" d="M296.5,129.41c1.13.39.99-.86,1.56-1.79-.29.22-1.68.11-1.56,1.79Z"/>
        <path class="cls-2" d="M295.55,127.8c.08.2-.07.66.06.84,1.52-1.24,1.22-2.49-.06-.84Z"/>
        <path class="cls-2" d="M289.7,131.35c.83,0,1.41.03,1.83-.75l-.89-.78c-.07.14-.15.27-.24.39l-.7,1.14Z"/>
        <path class="cls-2" d="M271.94,138.67c.49-.62,1.06-1.18,1.56-1.79-.18-.09-.35-.4-.45-.39-1.78.26-3.85,3.79-4.67,5.37l.64.16c.95-1.13,2-2.2,2.92-3.35Z"/>
        <path class="cls-2" d="M256.86,155.22c0,.1,0,.2.06.25.32.24.46-.07.42-.34-.02-.16-.11-.31-.26-.3-.12,0-.21.21-.23.39Z"/>
        <path class="cls-2" d="M326.89,144.57c.15.02.31,0,.48-.08.36-1.11.94-.59-.12-1.67-.33-.34-.99-.99-1.34-1.17l-.84.06-.39.45c.13.15.33.24.45.39.48.62.96,1.93,1.75,2.02Z"/>
        <path class="cls-2" d="M54.67,438.43c.06,1.48,1.38,2.92,1.48,3.88.12.17,1.02.57,1.62,1.39,7.12,1.68,4.57,2.93,5.65,7.64,2.04,8.88,1.5,13.94-1.21,22.64-.99,3.17-2.54,6.98-2.83,10.52-.38,4.56,1.39,4.96,1.57,8.67.16,3.3-1.42,4.32.32,8.16,1.61,3.54,4.98,8.92,7.12,12.07,6.17-.52,11.86,1.54,17.78,2.92,1.19.28,2.22,2.02,3.64,1.91,1.89-.15,3.66-2.32,6.18-2.9,4.14-.95,15.44,1.19,19.4,2.7,2.04.78,8.88,5.29,10.12,5.46.86.11,1.78-1.55,3.29-.88,1.59.71,4.56,4.8,6.92,6.43,2.9,2,8.31,3.82,11.61,5.54.44-1.46-1.82-4.52-2.81-5.32-.89-.72-1.91.12-1.99.06-.17-.12.56-2.69.28-4.24l-.37-.88c-.1-.29-.24-.6-.37-.88l-1.99-2.27c-.17-.26-.19-.63-.37-.88l-1.62-1.39c-.18-.25-.18-.64-.37-.88l-1.53-1.74c-.19-.2-.36-.39-.46-.53-.19-.25-.19-.63-.37-.88-2.23-.72-2.86-2.83-3.99-4.54-.17-.26-.2-.62-.37-.88-2.24-.72-2.85-2.84-3.99-4.54-.17-.26-.19-.63-.37-.88l-1.99-2.27c-.18-.25-.19-.63-.37-.88l-1.62-1.39c-.18-.25-.18-.64-.37-.88l-1.54-1.76c-.18-.2-.35-.38-.45-.51-.19-.25-.19-.63-.37-.88-2.23-.72-2.85-2.83-3.99-4.54-.17-.26-.2-.62-.37-.88-2.24-.72-2.85-2.84-3.99-4.54-.17-.26-.19-.63-.37-.88l-1.99-2.27c-.18-.25-.19-.63-.37-.88l-1.62-1.39c-.18-.25-.18-.64-.37-.88l-1.54-1.76c-.18-.2-.35-.38-.45-.52-.19-.25-.19-.63-.37-.88-2.24-.72-2.85-2.84-3.99-4.54-.17-.26-.19-.63-.37-.88l-1.99-2.27c-.18-.25-.19-.63-.37-.88l-1.62-1.39c-.19-.25-.18-.63-.37-.88l-1.57-1.79c-.17-.18-.32-.35-.42-.48-.19-.25-.18-.64-.37-.88l-1.62-1.39c-.19-.24-.18-.64-.37-.88l-1.5-1.71c-.2-.22-.39-.42-.5-.57-.19-.25-.19-.63-.37-.88-2.24-.72-2.85-2.84-3.99-4.54-.17-.26-.19-.63-.37-.88l-1.99-2.27c-.18-.25-.19-.63-.37-.88l-1.62-1.39c-.19-.25-.18-.63-.37-.88l-1.57-1.79c-.17-.18-.32-.35-.43-.49-.19-.25-.18-.64-.37-.88l-1.62-1.39c-.19-.24-.18-.64-.37-.88l-1.5-1.71c-.2-.22-.39-.42-.5-.57-.19-.25-.19-.63-.37-.88-2.23-.72-2.85-2.84-3.99-4.54-.17-.26-.19-.63-.37-.88l-1.99-2.27c-.18-.25-.19-.63-.37-.88l-1.62-1.39c-.19-.25-.18-.64-.37-.88l-1.53-1.74c-.18-.2-.35-.38-.46-.53-.19-.24-.18-.64-.37-.88-1.06.25-1.46-1.35-1.62-1.39-2.8-.66-5.07,8.71-5.84,10.75,2.46,4.81-.49,3.9-.41,6.04ZM138.11,528.06c-.08.04-.12.08-.2.12l-.12-.29-1.35-3.23c3.28.15,4.8,1.8,1.68,3.4ZM99.8,501.71c-.16.57-2.98-.56-2.86-1.91.16-.57,2.98.56,2.86,1.91ZM88.85,479.36c1.2.14,1.31,2.39,1.92,3.34.41-.25.95-1.74,1.36-1.56.53.23.26,2.34,1.64,1.33l.27-4.25c1.27.65,5.19,6.5,5.06,7.11-.05.26-3.24,2.85-3.93,2.7-.84-.19-3.68-4.2-4.41-5.33-2.63,1.64-3.12-1.02-1.92-3.34ZM75.61,498.41c-.03.57.97,1.82,1.11,2.65-.11.37-1.5-.2-2.13-.15-2.72.22-4.76,1.25-6.16-2.07-.75-1.79-.79-3.6,1.44-4.23-1.25,3.11.16,6.9,3.98,4.53-.08-.46.14-.95.51-1.25-.52-.62-2.79-3.8-2.73-4.04,10.67,1.56,4.06,3.05,3.98,4.55ZM70.94,484.82c-1.09-.42-4.67-5.94-2.11-7.4.35.28,5.79,8.81,2.11,7.4Z"/>
        <path class="cls-2" d="M34.7,613.09c-2.56-.48-5.11-.96-7.67-1.45,2.51.54,5.06,1.04,7.67,1.45Z"/>
        <path class="cls-2" d="M27.5,428.44c.29.62.46,1.3.57,1.99.02-.76-.14-1.45-.57-1.99Z"/>
        <path class="cls-2" d="M30.28,425.2c.16-.17.26-.31.32-.43-.13.14-.25.28-.32.43Z"/>
        <path class="cls-2" d="M168.61,548.71c1.14,1.07,1.34,2.83,3.41,1.4-.21-.59-.49-1.18-.74-1.76-.25-.58-.46-1.2-.74-1.76l-2.36-3.15c-.16-.27-.21-.61-.37-.88l-1.88-2.51c-.2-.24-.37-.46-.49-.65-.33-.51-.42-1.25-.74-1.76-.98.08-1.23-.67-1.62-1.39-3.33-.63-1.54-.03-1.56,1.9-.06,5.86,2.86,6.6,7.09,10.56Z"/>
        <path class="cls-2" d="M47.16,625.47c.08.34.37,1.1.74,1.95-.25-.69-.49-1.38-.74-1.95Z"/>
        <path class="cls-2" d="M51.2,628.26l-.7,2.19c.3-.5.55-1.3.7-2.19Z"/>
        <path class="cls-2" d="M49.03,629.75c.37.68.71,1.17.9,1.2l-.26-.52c-.24-.19-.45-.42-.64-.69Z"/>
        <path class="cls-2" d="M51.67,589.36c-.93-.38-1.92-1.41-2.87-1.9-.29,0-.58.33-.88.37l-.88.37c.7.36,1.03,2.87,4.64,1.16Z"/>
        <path class="cls-2" d="M16.6,512.46c.22-.58.33-1.07.34-1.48-.02.02-.06.03-.08.05-.25.27-.18.76-.23,1.24,0,.07-.01.13-.03.2Z"/>
        <path class="cls-2" d="M94.85,549.18c.32-.24.56-.59.64-1.08-.25.29-.4.72-.64,1.08Z"/>
        <path class="cls-2" d="M176.6,578.25c1.03-.57,2.21-2.61,4.03-2.73.62-1.37,1.02-2.58,1.53-3.75l-1.25-.51c-1,1.45-1.67,2.04-2.78,3.24.24.49-.09,1.04-.51,1.25-1.41.69-3.4.23-4.4,1.85-.91-.39-1.93-1.36-2.87-1.9.04-.28.06-.52.06-.74.34-5.6,4.14-10.85,5.65-16.27.47-1.68,2.36-8.1.22-8.3-.85,4.79-3.89,5.9-4.98,9.28-.38,1.17.29,11.53-2.3,10.37-.48-.22-.44-9.97-.33-10.52.78-3.94,5.34-3.3,3.72-8.52-1.06,2.17-7.6,5.78-7.79,7.4-.23,1.91,1.48,3.9,1.74,5.83.27,1.99-1.03,3.95-.53,5.67.56,1.91,3.56,3.12,3.35,4.02-.36.13-.8.39-1.32.77-3.08-2.3-4.41-5.75-6.86-7.19-2.86-1.68-6.08-1.44-8.76-2.83-2.12,2.26-3.18-1.75-1.32-1.83.17,0,.36,0,.58.07.24.07.38,1.04.58,1.51.05.12.1.22.16.25,1-1.07-1.53-5.33-2.37-5.7-3.13-1.38-8.66-.69-11.92-1.31-5.53-1.04-11.74-2.18-17.13-3.62-1.2-.32-3.2-2.47-5-2.04.73,2.63,1.79,1.78,3.61,3.67.26-.04.64-.24.88-.37,2.15,2.15,4.67,3.83,7.37,5.19,5.47,2.76,14.09,5.33,20.16,6.03.37.04,1.17-.66,1.76-.74,1.84,2.26-.89,2.44-3.15,2.36-1.81-.06-7.19-1.16-8.9-1.44l.09,5.15c11.84,2.45,23.66,5.23,35.46,7.89,1.13-.57,2.42-.88,3.52-1.48Z"/>
        <path class="cls-2" d="M-22.4,516.84c-.28.42-1.33.73-1.39,1.62,6.63,2.65,15.86,7.82,22.39,11.32.81-.45,1.9-.63,2.64-1.11.48-.31.9-1.19,1.39-1.62,1.72.89,5.49,2.47,6.63,3.43,3.24,2.73,1.53,3.44.83,6.9,4.76-.33,2.4-4.09,4.48-5.83,2.42-2.03,8.42-3.41,11.66-5.1,2.49-1.29,3.6-2.32,5.42-4.36l-2.64,1.11-3.52,1.48-.88.37c-.59.25-1.18.48-1.76.74-.29.13-.59.24-.88.37-.58.26-1.18.49-1.76.74-1.75.76-3.57,1.4-5.29,2.22-1.07.52-1.79,3.81-4.78.97-.74-1.12-1.76-4.23-.48-4.83.21-.1.69.59.76.56,2.46-1.05,5.91-3.3,8.3-2.46.29-.11.58-.28.88-.37,1.57-.45,2.03.17,2.13.14.6-.19,1.16-.55,1.76-.74,1.15-.38,3.1-.89,3.15-2.36-1.19-.4-2.42-1.59-3.27-1.78-4.71-1.02-11.63,5.73-12.82,5.43,1.15-4.41-.41-4.24-2.96-7.03,3.39-1.66,6.43-.27,8.8-3.71l-.08-2.6c-3.46.2-1.38-.54-1.4-.92-.02-.51-.87-1.01-.2-2.05.21-.32,4.84-5.52,5.15-5.78,6.23-5.16,17.09-2.42,23.77.92,1.33.66,4.07,2.12,4.93,3.12.16.18.24.58.37.88,1.18-.37,4.67-.75,4.77-.98.28-.65-1.65-1.79-1.99-2.27l-.88.37c-2.86-6.31-7.92-11.31-12.19-16.64-3.52-4.4-7.12-8.76-10.7-13.12,2.01-1.43,2.84,1.01,4.4,1.29,4.27.77,3.12-1.07,7.37,2.05.99.73,1.17,2.84,2.93,1.11.15-.14.28-.26.45-.46.03.18.08.33.11.5,1.29,5.87,6.4,6.06,10.44,8.62,1.52.97,1.23,4.03,4.93,3.03-.69-3.47-3.53-5.91-4.84-8.85-1.25-2.8-.62-9.85-5.58-8.54-.91,1.27-1.15,2.79-2.64,3.19-.05.01-.09.04-.14.05,0-.12,0-.23,0-.35-.03-1.17.11-2.03-.14-2.37-.21-.28-.69-.2-1.84.45-.17-.39-.34-.74.08-1.06,1.53-.53,3.65-2.32,5.21-1.17.43-.51.92-1.24,1.39-1.62,2.91-.02,6.5,5.31,9.13,4.45l.51-1.25-.37-.88c-6.81-.58-3.67-5.31.88-.37.52-.08,1.51.42,1.68.3.15-.11.28-.23.38-.34.54-.59.44-1.19.05-1.79-.86-1.33-3.16-2.66-3.46-3.82-.15-.58,1.59-5.34,1.67-5.89l-4.72-6.3c1.28-.86,1.78,1.8,3.74,1.53-.38-.87-.75-1.76-1.11-2.64-.22-.34-.38-.62-.51-.88-.64-.86-1.44-1.29-1.49-1.4l-5.14.08c-.88-1.27.96-.82,1.06-2.3.05-.71-.85-1.69-.78-1.96.09-.37,2.82.3,3-.22.2-.56-3.79-4.3-4.59-5.88-1.85-3.67.53-5.69-4.1-4.97,2.27,1.54,2.89,8.16.28,9.27-2.92,1.24-5.36-3.37-6.96-5.42-3.32-4.26-6.45-9.04-8.94-13.86l-.37-.88c-.82.87-2.22,1.53-3.15,2.36l.37.88c.17.26.21.61.37.88.32.54,2.41.68,1.95,3.33-.07.41-1.12,2.33-2.24,4.36-.61,1.54-1.49,3.19-2.68,4.97.42,1.06,2.39,1.43,3.37.65-.86-2.06,2.1-9.62,4.46-9.12.49.1,6.07,7.12,6.36,7.68,1.44,2.76.72,5.72,2.02,8.46-4.07,1.39-9.62-1.25-12.82-.81-.32.04.8,3.53-1.43,2.68-.43-.16-1.73-2.74-3.48-3.23-.33-.09-.67-.14-1.03-.05-1.19,2.51-2.98,4.99-4.14,7.43-1.14,2.39-1.95,8.31-4.13,8.53-.69.07-11.14-6.19-11.78-7.24-1.4-2.29.52-3.49.58-5.7-6.36,1.88-11.65,9.77-16.65,12.18-2.32,1.76.34,2.89.23,3-1.44,1.52-8.08,2.49-4.18,4.87-4.32-.14-1.85,1.05-3.26,2.72-3.18,3.77-6.6,6.19-10,10.12-.69.8-2.24,1.61-3.14,2.37l.36.86,2.13.16c-1.05,1.86-3.32,4.28-4.68,6.12-2.85,3.83-6.07,7.41-8.66,11.43l7.6-1.65c5.99,3.18,10.67,8.01,16.36,11.78,4.03,2.66,9.55,4.24,12.75,8.11l-.88.37c-3.88-2.11-8.24-6.62-12.89-5.98ZM10.3,468.86l-1.11-2.64,2.63-1.11c1.47,1.91-.21,2.12-1.52,3.74ZM28.42,460.21c.73.05.11,1.71-1.39,1.6-.73-.05-.11-1.71,1.39-1.6ZM22.87,449.44c.39.09.87.45,1.47,1.06l-1.93.47-.88.21c.29-1.34.71-1.89,1.35-1.74ZM17.91,457.37c.28-.68,1.04-.77,1.67-.51.62.25,1.1.85.82,1.53-.3.74-1.17.77-1.82.43-.54-.28-.93-.82-.67-1.44ZM-42,502.27s-.04-.02-.06-.02c-1.17-.28,2.68-3.75,3.35-4.46.91,2.07,1.88,2.8-.65,3.38-.66.02-1.79.93-2.64,1.1,0,0,0,0,0,0Z"/>
        <path class="cls-2" d="M42.56,486.39c-1.18-.82-2.09-2.24-3.69-2.59-.87.33.22,1.33.3,1.94,1.05.71,2.45,1.86,3.24,2.78,3.55,4.12,6.43,9.46,9.83,13.49,3.21,3.82,1.75.93,4.58.34.96-.2,2.35.73,3.07.59,0-.22-.05-.44-.13-.66-.5-1.42-2.33-2.7-2.61-3.38-6.5-2.75-8.54-8.33-14.6-12.52Z"/>
        <path class="cls-2" d="M164.54,553.25c1.19-3.58-2.34-5.83-3.27-8.97-1.99-.99-5.46,9.8,3.27,8.97Z"/>
        <path class="cls-2" d="M56.3,590.51c-.92,2.75,1.23,6.26.21,9.21-.78,2.26-2.82,3.34-4.94,4.19.24,1.19,1.52.65,2.49,1.01-3.49,1.9-.34,4.54-.93,7.65-.52.32-1.33.41-1.76.74-.51.38-.89,1.16-1.39,1.62-.28,0-.82-.4-1.25-.51-.75-.2-1.42.16-2.13-.14.01-.29-.39-.6-.37-.88l3.52-1.48c-.18-.2-.19-.6-.37-.88-.84.45-1.42.03-2.13-.14-4.24-1.03-9.64.11-13.02-1.31-2.23-.94-.75-1.76-.89-2.17,4.74.71,10.03,2.68,14.56.1-1.21-2.39-11.44-6.82-14.28-4.37-.58-4.26,8.64-3.07,6.45-6.85-1.82-.06-10.03,4.63-10.57,4.44-.89-.32.34-5.26-2.76-4.94-3.02.31-4.63,3.16-6.65,4.76-.22.17-.43.35-.65.52-1.4.76-3.74.3-4.13.45l.09-1.1c-3.39,1.58-7.67-.6-10.11-2.98-.47-.46-1.07-2.31-2.73-4.03-.82-.85-2.7-1.26-3.24-2.78,1.77-.72-.58-6.09-1.2-7.79l-1.53,3.75c.02.29.33.57.37.88.09.76.14,2.77.23,3.01.88,2.21,1.65,2.14,2.36,3.15,1.22,1.72,1.96,3.4,3.99,4.54-.29,1.14-1.64,1.16-2.27,1.99-1.82-1.88-2.64-5.89-5.1-7.19-.44,2.69-.09,5.63-1.81,8.02,0,.27.32.56.37.88.03.23,0,.48-.03.75.03.88.44,1.6,1.23,2.16,2.73-.03,5.32.82,7.93,1.54.58-.17,1.14-.5,1.7-.72.01-.02.02-.03.03-.06l-3.08-4.88c.76.44,1.71.63,2.5,1.02.2.59,1.92,1.89,1.96,3.59,0,.26-.02.54-.11.82,1.28-.19,2.41.25,3.89-.6.58.49.81,1.21,1.2,1.82,2.48.89,5.02,1.7,7.6,2.43,4.37.72,9.49,1.31,12.42,1.94,1.27.27,2.26,1.28,2.69,1.38.25.06.63-.43.88-.37,2.09.48,6.56.58,7.65.93l.37.88.74,1.76,1.11,2.64.37.88c.22.99,1.1,1.89.23,3.01.36.88.72,1.77,1.11,2.64l2.51,4.97c.05.04.1.09.15.13,3.29-5.12.05-4.26-.57-5.67-.38-.86.21-1.36.19-1.42.4.26.77.35,1.11.33,2.11-.1,3.32-4.61,3.77-6.01,1.23-3.83.83-8.26,1.38-11.48.5-2.94,2.33-4.37,3.43-6.63-.6-2.89-.27-6.05-2.46-8.3-.2-.21-.18-.64-.37-.88ZM23.94,607.24c.89-.33,1.74-.8,2.64-1.11l3.01-.23c.36,0,2.03.11,2.13.14-1.05,3.06-5.59,1.39-7.79,1.2Z"/>
        <path class="cls-2" d="M80.46,524.1c-1.43-.63-1.83-3.17-3.37-2.47l2.63,6.05,7.87-3.23c-1.54-1.44-5.13.52-7.14-.35Z"/>
        <path class="cls-2" d="M111.09,551.93c-2.06,1.01.44,2.43.67,2.81,2.72,1.06,5.26,3.63,8.39,2.69-.34-.51-.42-1.43-.74-1.76-5.11.87-5.58-5.08-8.32-3.73Z"/>
        <polygon class="cls-2" points="68.05 522.34 55.86 525.39 62.72 525.54 68.05 522.34"/>
        <path class="cls-2" d="M154.64,540.84l3.02,5.98c1.57-2.33.45-7.79-3.02-5.98Z"/>
        <path class="cls-2" d="M22.62,562.18c-.93,3.5,5.42,2.5,6.76,1.29-.71-1.56-6.67-1.63-6.76-1.29Z"/>
        <path class="cls-2" d="M151.89,556.5c.8-1.98-4.23-2.36-5.5-.78-.67.74,5.2,1.53,5.5.78Z"/>
        <path class="cls-2" d="M97.24,547.36c.24-.8-3.18-4-3.23-2.78.11.66.78,1.78,1.18,2.6.19.4.32.74.29.92.29-.35,1.67-.44,1.76-.74Z"/>
        <path class="cls-2" d="M159.18,536.85l-1.25-.51c-.23.47-.97,1.15-1.39,1.62,2.28,1.81,2.25,1.44,2.64-1.11Z"/>
        <rect class="cls-2" x="104.03" y="539.29" width=".94" height="3.81" transform="translate(-201.77 82.93) rotate(-22.83)"/>
        <path class="cls-2" d="M6.48,533.72c-.55.28-1.32.41-1.76.73l.37.88c1.55,1.39,2.74.23,1.39-1.62Z"/>
        <path class="cls-2" d="M6.54,544.95c-.1.06-.23.17-.39.31-1.01.83-2.12,1.56-3.15,2.36-.22,2.26-.53,4.07-.42,6.4.02.44-.45.92-.14,2.13.04.14,1.38,1.63,1.54,2.44,1.43-2.03,2.4-1.9.74-4.44,1.86-3.35,2.18-3.33,1.81-8.02,2.7-2.46,3.26-3.78.02-1.19Z"/>
        <path class="cls-2" d="M2.03,562.55c.78-.84,3.37-1.06,2.78-3.24-2.36,3.2-3.06.26-3.89.59-.07.03-.16.99-.51,1.25,0,.28.34.57.37.88.06.67-.16,1.44-.14,2.13,1.49,1.33,1.1-1.31,1.39-1.62Z"/>
        <path class="cls-2" d="M15.93,595.58c2.39,1.82,3-.57,1.57-1.17-.09-.04-2,.45-1.57,1.17Z"/>
        <path class="cls-2" d="M48.34,532.17c2.39,1.82,3-.57,1.57-1.17-.09-.04-2,.45-1.57,1.17Z"/>
        <path class="cls-2" d="M4.11,530.57c-1.4.25-.63.94-.13,2.12-.04-.23.88-1.32.13-2.12Z"/>
        <path class="cls-2" d="M1.93,557.41l-.51,1.25c.28-.37.35-.83.51-1.25Z"/>
        <path class="cls-2" d="M53.04,437.4c.24-1.86,1.47-3.5,2.04-5.01-.3-.58-1.66-2.02-2.36-3.15-1.12,3.54-1.08,4.82.32,8.16Z"/>
        <path class="cls-2" d="M53.37,425.86c-1.08.88-2.27-.12-3.01.22.8,1.33,1.72,2.1,2.36,3.15.33-1.04,2-1.72.65-3.38Z"/>
        <path class="cls-2" d="M52.57,425.14c2.14-.12.63-2.98.2-3.18-1.24-.56-3.32,3.35-.2,3.18Z"/>
        <path class="cls-2" d="M48.04,415.65c-.11-.78-.87-1.77-1.12-2.64-.2-.12-1.11,1.24-1.38,1.62l-.14,2.12.06-.03,2.58-1.08Z"/>
        <path class="cls-2" d="M56.24,447.46c-.05-.73.71-1.96-.23-3.01.02.76-.81,1.9.23,3.01Z"/>
        <path class="cls-2" d="M44.36,432.75c3.19.08-2.5-3.52.63-3.36,1.77.09,3.94,1.51,4.49,3.27,1.19-1.49-1.01-5.7.88-6.57-.78-1.3-3.15-4.86-3.48-5.8-2.74,1.46-2.81,1.43-3.75-1.53-.07.08-1.4-.43-1.97.31-.89,1.15-.27,3.08-1.03,4.18-.67.97-2.71.85-3.02,2.12-.55,2.31,4.94,7.32,7.26,7.38Z"/>
        <path class="cls-2" d="M191.77,542.84c.1-.42,1.44-1.53,1.19-2.05-.21-.44-3.85-1.53-4.81-1.61l1.34,5.65,2.27-1.98Z"/>
        <path class="cls-2" d="M119.63,558.68c-1.05-.38-4.7-.51-6.77-1.3-.51-.2-1.09-1.17-1.62-1.39-2.26-.95-3.76-1.03-6.26-2.55-1.29-.78-2.6-.98-3.24-2.78-2.69-.75-3.99-1.64-7.28-.06l-.06-.13-.3-.73c.36-.08.57-.3.74-.55-.21.15-.45.27-.72.35-1.53.46-3.84-.15-4.3-.08-3.61-1.08-5.99-5.2-9.38-7.45l-1.52,3.74c-1.79-1.41-3.31-3.39-4.36-5.42l-.2,3.18c-3.57-2.23-7.4-3.9-11.2-5.65-1.51-.7-3.08-2.25-5-2.04.35,1.73,2.19,2.1,3.64,2.8.18.15.46.32.85.5,3.32,2.54,5.4,5.54,9.36,7.47,1.32.64,3.73.46,5.01,2.04-.28-.03-.6.4-.88.37-1.7-.15-3.34-1.02-4.64-1.16-2.53-.28-5.62-.25-8.53-.56l-.37-.88c1.02-1.15,0-.64-.37-.88-1-.66-2.28-.86-2.5-1.02-4.38-3.18-7.66-12.77-14.92-10.91-3.45.88-.42,5.53-.14,7.22.13.8-1.44,1.28-1.23,1.68,3.52,6.93,4.5-1.51,4.95-1.5,1.87.02,6.39,3.12,8.32,3.75.57.19,1.48,0,2.13.14.56.43,1.04.99,1.62,1.39.12.01.27.09.42.17,0,0,.02,0,.03.01.01,0,.02,0,.03.01.27.08.56.16.77.31-.28-.03-.56-.19-.8-.32-.17-.05-.33-.11-.45-.19-1.24-.14-3.21-.65-3.38-.65-.65,0-2.35.97-3.7,1.1-3.34.32-11.04-.89-9.52,4.46l21.01,4.51,50.8,10.9c-1.34-2.39-3.99-4.77-3.85-6.68l4.26.27c-4.28,1.63,6.08,5.2,6.36,7.7,1.42.24,3.84,2,5.89,1.67l-2.73-4.03c.29-.53,2.97-.55,3.89-.61l1.57-1.18c-1.5-.28-2.72-1.43-3.94-1.98-2.18-.98-5.29-2.26-7.51-3.06Z"/>
        <path class="cls-2" d="M121.54,558.78c-.65-.07-1.29-.11-1.91-.1,1.04.13,1.62.15,1.91.1Z"/>
        <path class="cls-2" d="M55.81,493.26c-1.36,1.36.54,2.04,1.48,3.52-.12-.57,1.04-2.52-1.48-3.52Z"/>
        <path class="cls-2" d="M58.83,493.03c-.35-.03-.91-.57-1.25-.51.72,3.08,2.74,3.54,1.25.51Z"/>
        <path class="cls-2" d="M57.84,482.04c-.6,1.2-1.04,2.01-.21,3.19l1.76-.73c-.15-.2-.28-.41-.4-.63l-1.15-1.83Z"/>
        <path class="cls-2" d="M59.85,451.12c.54,1.15.96,2.37,1.48,3.52.26-.19.83-.22.88-.37.89-2.77-2.76-8.26-4.45-10.57l-.69.81c.96,2.18,1.76,4.46,2.77,6.61Z"/>
        <path class="cls-2" d="M46.21,417.46c-.58.29-.22.71.19.85.25.09.53.07.62-.16.07-.18-.16-.45-.41-.61-.14-.09-.29-.14-.4-.09Z"/>
        <path class="cls-2" d="M12.27,526.48c-.13.2-.23.44-.23.75,1.35,1.31.19,1.77,2.5,1.02.73-.24,2.14-.73,2.64-1.11l.51-1.25-.37-.88c-.3.08-.58.31-.88.37-1.23.25-3.48.01-4.17,1.1Z"/>
        <path class="cls-2" d="M394.5,783.95c-1.95-.13-4.03,1.42-5.32,1.42-.24.14-.89,1.27-2.05,1.95-3.18,9.15-4.49,5.62-10.82,6.4-11.96,1.48-18.56.08-29.64-4.68-4.04-1.74-8.84-4.29-13.47-5.16-5.95-1.11-6.71,1.16-11.63.89-4.36-.23-5.5-2.46-10.79-.69-4.88,1.64-12.42,5.34-16.86,7.73-.16,8.2-3.65,15.41-6.27,23.01-.53,1.52-2.97,2.65-3.01,4.54-.06,2.51,2.56,5.13,2.98,8.54.69,5.58-3.67,20.17-6.19,25.17-1.3,2.58-8.18,10.97-8.56,12.57-.27,1.12,1.8,2.56.71,4.45-1.15,1.99-6.94,5.35-9.41,8.24-3.02,3.54-6.16,10.43-8.88,14.52,1.86.78,6.2-1.78,7.38-2.97,1.07-1.08.11-2.53.19-2.63.18-.21,3.46,1.11,5.55.94l1.21-.37c.4-.09.82-.23,1.21-.37l3.26-2.31c.37-.19.85-.17,1.21-.37l2.05-1.95c.36-.2.86-.16,1.21-.37l2.5-1.78c.29-.22.56-.42.76-.54.35-.21.86-.16,1.21-.37,1.25-2.84,4.12-3.37,6.52-4.63.37-.19.84-.18,1.21-.37,1.25-2.84,4.13-3.36,6.53-4.63.37-.19.85-.17,1.21-.37l3.26-2.31c.35-.21.86-.16,1.21-.37l2.05-1.95c.35-.21.86-.16,1.21-.37l2.52-1.79c.29-.22.54-.41.74-.52.35-.21.86-.16,1.21-.37,1.25-2.84,4.12-3.37,6.52-4.63.37-.19.84-.18,1.21-.37,1.25-2.84,4.13-3.36,6.53-4.63.37-.19.85-.17,1.21-.37l3.26-2.31c.35-.21.85-.16,1.21-.37l2.05-1.95c.35-.21.86-.16,1.21-.37l2.52-1.79c.29-.22.55-.41.74-.52.35-.21.86-.16,1.21-.37,1.25-2.85,4.13-3.36,6.52-4.63.37-.19.85-.17,1.21-.37l3.26-2.31c.35-.21.86-.16,1.21-.37l2.05-1.95c.35-.21.86-.16,1.21-.37l2.57-1.82c.26-.2.5-.38.69-.49.35-.21.87-.15,1.21-.37l2.05-1.95c.35-.22.86-.15,1.21-.37l2.45-1.74c.32-.24.61-.45.81-.58.35-.21.86-.16,1.21-.37,1.25-2.84,4.13-3.36,6.52-4.63.37-.19.85-.17,1.21-.37l3.26-2.31c.35-.21.86-.16,1.21-.37l2.05-1.95c.35-.21.86-.16,1.21-.37l2.56-1.82c.27-.2.5-.38.7-.49.35-.21.87-.15,1.21-.37l2.05-1.95c.35-.22.86-.15,1.21-.37l2.45-1.74c.32-.24.61-.45.81-.58.35-.21.86-.16,1.21-.37,1.25-2.84,4.13-3.36,6.52-4.63.37-.19.85-.17,1.21-.37l3.26-2.31c.36-.21.86-.16,1.21-.37l2.05-1.95c.35-.21.86-.15,1.21-.37l2.5-1.77c.29-.22.55-.41.76-.54.35-.21.86-.15,1.21-.37-.18-1.42,1.98-1.73,2.05-1.95,1.25-3.59-10.78-7.86-13.36-9.16-6.67,2.58-5.07-1.18-7.89-1.37ZM265.13,881.6c-.04-.11-.09-.17-.13-.28l.4-.12,4.43-1.34c-.65,4.3-3.02,6.07-4.71,1.75ZM305.04,834.75c-.73-.28,1.14-3.85,2.9-3.5.73.28-1.14,3.85-2.9,3.5ZM312.68,803.35c-.75-.12-2.53,1.03-3.64,1.09-.47-.2.46-1.94.48-2.78.08-3.61-1-6.44,3.56-7.83,2.45-.74,4.85-.55,5.37,2.47-3.93-2.07-9.1-.73-6.51,4.63.62-.04,1.23.32,1.58.84.88-.6,5.39-3.15,5.69-3.04-3.51,13.83-4.58,4.93-6.53,4.62ZM326.7,836.07c-.33-.1-3.31-4.66-3.01-5.54.36-1.08,6.03-4.28,7.62-5.08-1.8-3.69,1.77-3.97,4.65-2.07-.35,1.56-3.32,1.4-4.65,2.07.28.57,2.16,1.48,1.87,2-.38.67-3.12.03-1.97,1.98l5.56.94c-1.02,1.59-9.26,5.94-10.06,5.7ZM331.21,799.05c.7-1.38,8.45-5.34,10.03-1.76-.42.42-12.38,6.42-10.03,1.76Z"/>
        <path class="cls-2" d="M167.27,733.87c.99-3.3,1.96-6.6,2.95-9.9-1.06,3.23-2.06,6.52-2.95,9.9Z"/>
        <path class="cls-2" d="M248.66,911.05c-7.71-.87-9.08,2.87-14.87,7.9-1.56,1.35-3.91,1.38-2.31,4.29.81-.2,1.62-.48,2.42-.74.8-.25,1.64-.44,2.42-.74l4.47-2.68c.38-.17.84-.19,1.21-.37l3.55-2.13c.35-.23.66-.42.92-.55.72-.36,1.7-.38,2.42-.74.02-1.3,1.05-1.52,2.05-1.95,1.28-4.3.25-2.02-2.28-2.31Z"/>
        <path class="cls-2" d="M149.27,748.6c-.45.06-1.5.34-2.67.71.94-.24,1.88-.45,2.67-.71Z"/>
        <path class="cls-2" d="M145.04,753.53l-2.79-1.22c.61.46,1.63.9,2.79,1.22Z"/>
        <path class="cls-2" d="M141.68,751.5l.71-.27c.28-.29.62-.53.99-.75-.95.4-1.63.77-1.71,1.02Z"/>
        <path class="cls-2" d="M196.2,759.44c.63-1.17,2.12-2.33,2.89-3.52.03-.38-.36-.81-.37-1.21l-.37-1.21c-.57.87-3.92.96-2.16,5.95Z"/>
        <path class="cls-2" d="M302.22,723.74c.73.36,1.37.58,1.91.65-.02-.03-.03-.09-.05-.12-.32-.36-.97-.34-1.6-.47-.09-.02-.17-.04-.26-.06Z"/>
        <path class="cls-2" d="M244.54,822.75c-.35-.36-.89-.62-1.33-.99.28.46.7.81,1.33.99Z"/>
        <path class="cls-2" d="M205.65,916.56c.35-.6,13.19.77,13.9.99,5.08,1.57,3.61,7.47,10.71,6.06-2.72-1.69-6.57-10.79-8.68-11.27-2.48-.56-5.34,1.41-7.91,1.5-2.66.09-5.05-1.9-7.4-1.46-2.59.48-4.59,4.27-5.75,3.87-.13-.5-.4-1.11-.83-1.85,3.44-3.74,8.17-5.02,10.4-8.05,2.6-3.53,2.73-7.8,4.91-11.15-2.68-3.1,2.73-3.95,2.59-1.49-.01.23-.06.47-.18.75-.13.31-1.42.36-2.07.56-.17.05-.3.11-.35.18,1.27,1.47,7.22-1.29,7.83-2.35,2.24-3.93,2.09-11.31,3.34-15.51,2.13-7.14,4.48-15.16,7.09-22.07.58-1.54,3.69-3.87,3.37-6.3-3.57.6-2.59,2.11-5.32,4.25.02.35.23.87.37,1.21-3.12,2.54-5.68,5.63-7.84,9-4.37,6.83-8.94,17.82-10.69,25.73-.11.48.71,1.64.73,2.42-3.22,2.11-3.09-1.51-2.68-4.47.33-2.38,2.51-9.31,3.11-11.52l-6.79-.58c-4.83,15.26-10.11,30.44-15.21,45.61.6,1.56.83,3.31,1.47,4.84.6,1.43,3.14,3.26,3.05,5.68,1.72,1.01,3.26,1.69,4.73,2.53l.84-1.58c-1.78-1.51-2.46-2.48-3.89-4.1-.67.25-1.36-.26-1.58-.84-.72-1.95.16-4.51-1.84-6.05.64-1.14,2.05-2.36,2.89-3.52.36.09.68.15.96.18,7.33,1.22,13.72,6.93,20.65,9.66,2.15.84,10.34,4.21,10.9,1.42-6.19-1.77-7.24-5.93-11.54-7.82-1.49-.65-15.22-1.18-13.33-4.44Z"/>
        <path class="cls-2" d="M333,761.47c1.24-1.44,3.23-2.45,3.91-4.5-.32-1.19-1.78.11-2.6.14-1.07,1.29-2.78,2.97-4.1,3.89-5.91,4.11-13.34,7.18-19.1,11.1-5.46,3.71-1.46,2.18-1.07,5.98.13,1.29-1.28,2.99-1.19,3.96.29.03.59,0,.88-.08,1.94-.46,3.87-2.7,4.8-2.97,4.51-8.18,12.13-10.1,18.47-17.52Z"/>
        <path class="cls-2" d="M228.36,912.96c4.55,2.05,7.99-2.29,12.26-3.09,1.58-2.48-12.15-8.52-12.26,3.09Z"/>
        <path class="cls-2" d="M194.04,765.39c-3.5-1.59-8.41.77-12.15-.97-2.88-1.34-4.01-4.17-4.85-7.07-1.6.16-1.06,1.92-1.67,3.15-2.03-4.85-5.93-1.06-9.94-2.26-.35-.73-.36-1.8-.74-2.42-.44-.72-1.4-1.33-1.95-2.05.05-.36.63-1.02.84-1.58.36-.96-.02-1.9.47-2.79.38.05.84-.43,1.21-.37l1.47,4.84c.29-.21.81-.17,1.21-.37-.47-1.16.15-1.87.47-2.79,1.93-5.44,1.17-12.71,3.5-16.96,1.54-2.81,2.43-.75,2.97-.87-1.58,6.15-4.9,12.85-2.11,19.15,3.31-1.27,10.54-14.13,7.7-18.21,5.69-.18,2.87,11.79,8.13,9.42.32-2.39-4.73-13.83-4.4-14.52.54-1.13,6.88,1.17,6.88-2.96,0-4.02-3.53-6.52-5.36-9.41-.2-.31-.4-.62-.6-.93-.8-1.94.12-4.97-.03-5.49l1.43.27c-1.62-4.68,1.84-10.02,5.3-12.9.67-.56,3.19-1.09,5.68-3.05,1.24-.97,2.03-3.38,4.1-3.89.71,2.43,8.1.07,10.42-.52l-4.73-2.53c-.38-.02-.79.36-1.21.37-1.02.02-3.67-.2-4-.11-3.04.86-3.04,1.87-4.47,2.68-2.43,1.37-4.75,2.11-6.53,4.63-1.47-.54-1.3-2.32-2.31-3.26,2.72-2.14,8.11-2.67,10.16-5.73-3.48-.95-7.4-.89-10.31-3.47-.36-.03-.78.35-1.21.37-.3.01-.63-.06-.98-.14-1.16-.08-2.17.36-3.02,1.33-.34,3.6-1.8,6.9-3.1,10.23.15.79.5,1.56.72,2.34.03.02.04.03.07.05l6.84-3.39c-.69.94-1.07,2.16-1.68,3.16-.8.19-2.76,2.28-4.99,2.1-.35-.03-.7-.1-1.06-.26.07,1.71-.66,3.14.26,5.21-.72.7-1.71.9-2.55,1.33-1.51,3.14-2.92,6.37-4.24,9.68-1.55,5.66-3.02,12.32-4.24,16.09-.53,1.63-1.99,2.81-2.18,3.36-.11.32.48.89.37,1.21-.91,2.69-1.66,8.55-2.26,9.94l-1.21.37-2.42.74-3.63,1.1-1.21.37c-1.34.16-2.64,1.19-4-.11-1.21.35-2.43.71-3.63,1.1l-6.88,2.63c-.06.06-.14.11-.19.18,6.29,5.02,5.6.64,7.54.02,1.18-.38,1.76.46,1.85.44-.39.49-.56.96-.59,1.42-.16,2.8,5.62,5,7.39,5.78,4.88,2.15,10.76,2.21,14.92,3.38,3.81,1.07,5.44,3.66,8.26,5.42,3.89-.4,8,.47,11.26-2.1.3-.24.87-.16,1.21-.37ZM176.43,720.51c.31,1.22.82,2.41,1.1,3.63l-.11,4c-.05.47-.42,2.66-.47,2.79-3.89-1.81-1.06-7.55-.52-10.42Z"/>
        <path class="cls-2" d="M281.9,802.15l-8.32,2.64,3.18,10.81c2.1-1.84.01-6.83,1.44-9.35,1.02-1.8,4.42-1.97,3.71-4.1Z"/>
        <path class="cls-2" d="M237.38,842.77c-1.06-2.85-3.26.25-3.78.5-1.77,3.44-5.5,6.43-4.68,10.68.71-.38,1.94-.36,2.42-.74-.45-6.85,7.45-6.66,6.05-10.44Z"/>
        <polygon class="cls-2" points="279.85 773.68 278.71 782.69 282.21 790.13 279.85 773.68"/>
        <path class="cls-2" d="M246.05,901.63l-8.28,3.17c2.86,2.38,10.19,1.65,8.28-3.17Z"/>
        <path class="cls-2" d="M235.94,724.9c-4.49-1.7-4.03,6.8-2.62,8.72,2.16-.72,3.05-8.56,2.62-8.72Z"/>
        <path class="cls-2" d="M225.8,895.87c2.5,1.33,3.69-5.25,1.78-7.14-.88-.98-2.72,6.64-1.78,7.14Z"/>
        <path class="cls-2" d="M249.38,821.29c-.89.06-2.44.78-3.59,1.2-.55.2-1.01.33-1.25.26.42.43.36,2.26.74,2.42,1.02.42,5.7-3.64,4.1-3.88Z"/>
        <path class="cls-2" d="M249.58,904.51c-2.69,2.75-2.21,2.77,1.1,3.63l.84-1.58c-.59-.36-1.38-1.43-1.95-2.05Z"/>
        <rect class="cls-2" x="249.88" y="834.94" width="5.05" height="1.24" transform="translate(-232.22 109.61) rotate(-16.92)"/>
        <path class="cls-2" d="M275.6,707.52c-.29-.76-.37-1.8-.73-2.42l-1.21.37c-2.04,1.85-.68,3.57,1.94,2.05Z"/>
        <path class="cls-2" d="M238.25,697.74c1,1.15.94,4.59,3.88,4.1-3.89-3.55.07-4.06-.25-5.21-.03-.09-1.28-.34-1.58-.84-.37-.03-.79.37-1.21.37-.89,0-1.88-.41-2.79-.47-1.96,1.78,1.58,1.63,1.95,2.05Z"/>
        <path class="cls-2" d="M248.93,702.42c4.16,2.9,4.09,3.32,10.31,3.47,2.86,3.88,4.54,4.8,1.57.19-.07-.15-.19-.33-.36-.56-.96-1.45-1.77-3-2.68-4.47-2.94-.6-5.29-1.25-8.37-1.42-.58-.03-1.16-.72-2.79-.47-.19.03-2.33,1.59-3.43,1.69,2.48,2.16,2.18,3.42,5.74,1.57Z"/>
        <path class="cls-2" d="M192.88,711.54c-2.73,2.89.34,4.03,1.33,2.23.06-.11-.32-2.7-1.33-2.23Z"/>
        <path class="cls-2" d="M271.95,762.86c-2.73,2.89.34,4.03,1.32,2.23.06-.11-.32-2.7-1.32-2.23Z"/>
        <path class="cls-2" d="M277.29,704.37c.31-.03,1.61,1.34,2.78.47-.14-1.88-1.16-.95-2.78-.47Z"/>
        <path class="cls-2" d="M243.46,697.47c.45.42,1.05.57,1.58.84l-1.58-.84Z"/>
        <path class="cls-2" d="M396.08,781.95c2.42.56,4.41,2.41,6.31,3.37.8-.31,2.89-1.91,4.47-2.68-4.51-1.96-6.2-2.08-10.79-.69Z"/>
        <path class="cls-2" d="M382.4,784.79c.97.03,2.49,1.21,4,.11-1.01-.08-2.39-1.33-4-.11Z"/>
        <path class="cls-2" d="M322.66,653.56c-5,7.45-12.01,12.96-17.73,19.94-4.06,4.94-6.88,11.99-12.42,15.68l-.37-1.21c3.3-4.82,9.84-9.95,9.63-16.15-.52-.43-.78-1.85-1.95-2.05-4.39,8.37-12.45,19.81-17.95,27.94.48,1.12.58,2.59,1.1,3.63.34.68,1.45,1.34,1.95,2.05-1.41,2.15-4,6.89-5.42,8.26-4.04,3.89-4.73,1.55-9.2.15-.22,6.31,5.06,3.72,7.07,6.69,2.35,3.46,3.35,11.55,5.12,16.05,1.36,3.46,2.56,5.05,5,7.74l-1.1-3.63-1.47-4.84-.37-1.21c-.25-.81-.48-1.62-.74-2.42-.13-.4-.23-.81-.37-1.21-.27-.8-.48-1.62-.74-2.42-.76-2.4-1.36-4.9-2.21-7.26-.53-1.48-4.78-2.88-.63-6.42,1.58-.82,5.81-1.74,6.42.02.1.3-.88.83-.84.93,1.05,3.38,3.54,8.23,2.1,11.26.11.4.29.8.37,1.21.38,2.13-.5,2.65-.47,2.79.16.82.56,1.6.74,2.42.34,1.57.75,4.21,2.68,4.47.69-1.51,2.43-2.97,2.79-4.06,1.99-6.06-5.96-16.09-5.4-17.62,5.65,2.11,5.64.04,9.66-2.93,1.72,4.69-.52,8.5,3.69,12.09l3.44.24c.2-4.58.9-1.75,1.4-1.72.67.04,1.44-1.01,2.73.02.4.32,6.61,7.13,6.91,7.56,5.94,8.9.86,22.83-4.45,31.18-1.05,1.66-3.34,5.07-4.78,6.07-.26.18-.8.24-1.21.37.33,1.6.35,6.25.63,6.41.82.46,2.58-1.93,3.26-2.31l-.37-1.21c8.7-2.91,15.97-8.89,23.57-13.78,6.27-4.04,12.51-8.19,18.73-12.3,1.61,2.85-1.71,3.61-2.29,5.62-1.6,5.51.99,4.25-3.7,9.42-1.09,1.21-3.9,1.15-1.86,3.7.17.21.31.41.55.66-.24.02-.45.05-.68.08-7.91.89-8.85,7.61-12.77,12.57-1.48,1.87-5.47,1.08-4.66,6.08,4.66-.44,8.26-3.84,12.31-5.17,3.86-1.27,13.06.53,12-6.18-1.54-1.37-3.52-1.9-3.84-3.91-.01-.07-.04-.12-.04-.2.16,0,.31.02.46.04,1.54.11,2.66.42,3.13.14.4-.23.35-.88-.34-2.49.54-.18,1.02-.34,1.38.24.49,2.09,2.55,5.12.82,7.02.62.64,1.5,1.39,1.95,2.05-.38,3.83-7.88,7.84-7.11,11.42l1.58.84,1.21-.37c1.7-8.89,7.49-4.11.37,1.21.03.7-.76,1.93-.62,2.17.13.22.26.39.39.55.7.79,1.51.75,2.36.31,1.87-.95,3.94-3.8,5.5-4.03.78-.11,6.82,2.82,7.52,3l8.94-5.35c.96,1.8-2.62,2.1-2.52,4.72,1.2-.39,2.42-.75,3.63-1.1.47-.24.87-.41,1.22-.55,1.22-.73,1.89-1.72,2.04-1.77l.59-6.78c1.8-.99.95,1.38,2.89,1.71.93.16,2.34-.88,2.69-.75.47.17-.78,3.67-.12,3.98.71.34,6.17-4.41,8.37-5.25,5.09-1.94,7.42,1.47,7.1-4.73-2.34,2.78-11.13,2.7-12.24-.9-1.24-4.01,5.17-6.6,8.09-8.43,6.06-3.79,12.78-7.26,19.47-9.89l1.21-.37c-1.03-1.2-1.71-3.13-2.68-4.47l-1.21.37c-.37.19-.83.19-1.21.37-.75.35-1.22,3.08-4.65,2.11-.53-.15-2.92-1.79-5.43-3.54-1.95-1.01-4-2.39-6.18-4.2-1.46.41-2.21,2.95-1.32,4.34,2.83-.85,12.38,4.08,11.39,7.11-.2.63-10.2,7.02-10.98,7.33-3.83,1.53-7.63.18-11.41,1.51-1.28-5.54,2.96-12.5,2.81-16.77-.01-.42-4.75.58-3.33-2.24.28-.55,3.84-1.91,4.73-4.14.17-.42.27-.86.21-1.35-3.14-1.91-6.17-4.6-9.22-6.47-2.99-1.83-10.67-3.7-10.67-6.59,0-.92,9.67-13.82,11.14-14.52,3.21-1.53,4.52,1.16,7.42,1.54-1.61-8.63-11.27-16.67-13.77-23.58-2-3.29-3.86.05-3.99-.1-1.81-2.11-2.17-10.98-5.84-6.17.77-5.68-1.12-2.57-3.14-4.66-4.53-4.7-7.25-9.54-11.96-14.54-.96-1.02-1.81-3.17-2.7-4.46l-1.18.36-.5,2.78c-2.3-1.64-5.19-4.95-7.42-7-4.65-4.27-8.92-9.01-13.87-12.96l1.13,10.23ZM360.48,721.39l3.62-1.11,1.1,3.62c-2.71,1.68-2.76-.57-4.72-2.51ZM369.4,746.43c-.17.95-2.27-.08-1.92-2.05.17-.95,2.27.08,1.92,2.05ZM384.33,740.59c-.17.51-.71,1.09-1.6,1.79l-.35-2.61-.16-1.19c1.72.57,2.4,1.19,2.11,2.02ZM374.57,732.97c.86.46.87,1.48.45,2.26-.42.78-1.27,1.33-2.13.88-.94-.5-.85-1.65-.31-2.45.45-.67,1.21-1.11,1.99-.69ZM323.66,647.9c.52-1.51,4.57,4.04,5.42,5.02-2.85.92-3.95,2.09-4.37-1.32.07-.88-.98-2.48-1.09-3.62,0,0,0,0,0,0,0-.04.03-.05.04-.08Z"/>
        <path class="cls-2" d="M238.36,950.23c.54.18,1.81,2.11,2.54,1.85.61-.22,2.54-4.86,2.78-6.11l-7.62,1,2.3,3.27Z"/>
        <path class="cls-2" d="M217.53,860.05c.66.45.32,3.98.27,5.21l1.33,2.23c.58-1.94,2.25-3.38,3.14-4.92,1.59-2.74,3.7-6.65,5.05-9.47.64-1.33,1.31-6.12,2.63-8.73.33-.65,1.69-1.28,2.05-1.95,1.55-2.85,1.87-4.81,4.21-7.89,1.2-1.59,1.64-3.3,4.1-3.89,1.36-3.44,2.7-5.03,1.07-9.57l.18-.06,1-.3c.05.48.32.79.63,1.05-.18-.29-.29-.63-.36-.99-.39-2.08.72-5.03.69-5.65,1.91-4.61,7.66-7.18,11.09-11.33l-4.72-2.51c2.1-2.16,4.92-3.9,7.72-5.01l-4.16-.7c3.43-4.39,6.14-9.21,8.97-13.97,1.13-1.9,3.38-3.75,3.37-6.3-2.33.22-3.06,2.6-4.18,4.41-.23.22-.49.56-.77,1.05-3.8,4.03-8.03,6.36-11.1,11.31-1.02,1.65-1.12,4.85-3.37,6.31.07-.37-.44-.84-.37-1.21.43-2.22,1.79-4.26,2.16-5.94.71-3.29,1.1-7.36,1.9-11.15l1.21-.37c1.37,1.5.84.08,1.21-.37,1-1.22,1.44-2.89,1.68-3.16,4.79-5.33,17.86-8.34,16.4-18.15-.69-4.66-7.23-1.3-9.48-1.16-1.07.07-1.49-2.06-2.04-1.85-9.61,3.69,1.37,6.13,1.3,6.72-.28,2.45-4.98,7.99-6.07,10.45-.32.73-.2,1.94-.47,2.79-.64.68-1.45,1.24-2.05,1.95-.03.16-.15.34-.28.53,0,.01-.01.02-.02.03,0,.01-.01.03-.02.04-.14.34-.28.71-.52.97.08-.37.33-.71.54-1.01.09-.22.18-.42.31-.57.35-1.62,1.29-4.14,1.32-4.37.08-.85-.95-3.23-.94-5.02.04-4.44,2.67-14.41-4.58-13.14l-8.79,27.04-21.27,65.39c3.33-1.44,6.83-4.61,9.31-4.15l-.94,5.57c-1.56-5.86-7.67,7.29-11.01,7.32-.51,1.84-3.16,4.78-3,7.52l5.67-3.05Z"/>
        <path class="cls-2" d="M227.33,853.1c-.32,1.36-.42,2.12-.4,2.5.18-.84.32-1.69.4-2.5Z"/>
        <path class="cls-2" d="M322.16,777.99c-1.6-1.98-2.76.44-4.84,1.47.77-.07,3.17,1.71,4.84-1.47Z"/>
        <path class="cls-2" d="M322.05,781.99c.09-.45.87-1.12.84-1.58-4.15.53-5.03,3.12-.84,1.58Z"/>
        <path class="cls-2" d="M336.65,782.18c-1.49-.95-2.51-1.65-4.17-.71l.73,2.42c.28-.17.57-.31.88-.44l2.56-1.27Z"/>
        <path class="cls-2" d="M377.09,789.05c-1.59.56-3.25.94-4.84,1.47.21.37.18,1.13.37,1.21,3.52,1.55,11.25-2.5,14.52-4.42l-.97-1.01c-3.01.96-6.11,1.71-9.08,2.75Z"/>
        <path class="cls-2" d="M284.35,716.14c-.25-.2-.55-.36-.96-.4-1.91,1.6-2.36,0-1.68,3.16.21.99.67,2.92,1.1,3.63l1.58.84,1.21-.37c-.06-.41-.33-.8-.37-1.21-.16-1.66.46-4.58-.88-5.65Z"/>
      </g>
    </g>
  </g>
</svg>