<?xml version="1.0" encoding="UTF-8"?>
<svg id="_레이어_2" data-name="레이어 2" xmlns="http://www.w3.org/2000/svg" xmlns:xlink="http://www.w3.org/1999/xlink" viewBox="0 0 399 1000">
  <defs>
    <style>
      .cls-1 {
        fill: none;
      }

      .cls-2 {
        fill: #e6e7e8;
      }

      .cls-3 {
        clip-path: url(#clippath);
      }
    </style>
    <clipPath id="clippath">
      <rect class="cls-1" width="399" height="1000"/>
    </clipPath>
  </defs>
  <g id="Layer_1" data-name="Layer 1">
    <g class="cls-3">
      <g>
        <path class="cls-2" d="M285.35,173.66c-6.65,2.57-13.34,5.04-20.03,7.5,6.55-2.16,13.76-4.87,20.03-7.5Z"/>
        <path class="cls-2" d="M362.19,80.73l-1.53,8.82c.59-2.92,1.24-6.53,1.53-8.82Z"/>
        <path class="cls-2" d="M243.99,170.26c1.8,1.29,1.52,3.65,3.12,5.41.63.69,11.18,7.24,11.88,7.22,10.47-4.36,22.15-7.51,32.41-12.17.17-.08.37-.12.54-.2l1.41-1.15c.16-.09.37-.11.54-.2l.87-.94c.16-.1.39-.1.54-.2l1.1-.89c.12-.1.23-.2.31-.25.15-.11.38-.1.54-.2.48-1.33,1.77-1.65,2.81-2.29.16-.1.38-.1.54-.2l1.41-1.15c.15-.1.38-.1.54-.2l.87-.94c.15-.1.39-.1.54-.2l1.09-.89c.12-.11.23-.2.32-.26.15-.11.38-.1.54-.2.48-1.33,1.77-1.65,2.81-2.29.16-.1.38-.1.54-.2l1.41-1.15c.15-.1.38-.1.54-.2l.87-.94c.15-.11.38-.1.54-.2l1.11-.9c.11-.1.22-.19.3-.24.15-.11.39-.09.54-.2l.87-.94c.15-.11.39-.1.54-.2l1.06-.86c.14-.12.26-.22.35-.29.15-.11.38-.1.54-.2.48-1.33,1.77-1.65,2.81-2.29.16-.1.38-.1.54-.2l1.41-1.15c.15-.1.38-.1.54-.2l.87-.94c.15-.1.39-.1.54-.2l1.09-.89c.12-.11.23-.2.32-.26.15-.11.38-.1.54-.2.48-1.33,1.77-1.65,2.81-2.29.16-.1.38-.1.54-.2l1.41-1.15c.15-.1.38-.1.54-.2l.87-.94c.15-.1.39-.1.54-.2l1.09-.89c.12-.11.24-.2.32-.26.15-.11.38-.1.54-.2.48-1.32,1.76-1.65,2.81-2.29.16-.1.38-.11.54-.2.48-1.33,1.77-1.65,2.81-2.29.16-.1.38-.1.54-.2l1.41-1.15c.15-.1.39-.09.54-.2l.87-.94c.14-.12.41-.09.54-.2.29-1.25-.29-2.3-.68-3.42-.13-.36-.26-.73-.41-1.07-1.04-.13-1.2-1.63-1.55-2.48-.17-.34-.23-.74-.41-1.07-1.13-.24-1.34-2.01-1.76-3.02-.14-.35-.25-.73-.41-1.07-1.04-.13-1.2-1.63-1.55-2.48-.17-.34-.24-.74-.41-1.07-1.04-.13-1.2-1.63-1.55-2.48-.17-.31-.29-.73-.41-1.07l-.64-.07.23-1c.36-.09.73-.35,1.07-.41.87-.29,2.1-1.18,2.89-.48.17-.07.38-.11.54-.2.38-1.07,1.29-1.85,2.07-2.63.12-.12.41-.08.54-.2.84-2.42,3.12-4.29,5.22-5.66.16-.1.38-.1.54-.2.13-1.04,1.63-1.2,2.48-1.55.16-.1.38-.11.54-.2.13-1.04,1.63-1.2,2.48-1.55.31-.19.77-.22,1.07-.41l1.94-1.35c.3-.2.82-.21,1.07-.41.58-.73,1.03-.9,1.31-1.89.45-1.6,2.87-14.5,2.62-15.23-4.04-3.75-8.7-6.71-13.01-10.11-.13-.1-.07-.43-.2-.54-2.74-1.16-5.16-3.31-7.47-5.15-.13-.1-.07-.43-.2-.54-2.81-1.06-5.08-3.46-7.47-5.15-.13-.09-.07-.44-.2-.54-1.78-1.33-2.45-1.06-4.37-.19-.17.08-.36.12-.54.2l-.16.11c-.33.25-1.03.86-1.78,1.24-.17.09-.37.12-.54.2-.13,1.04-1.63,1.2-2.48,1.55-.16.09-.37.11-.54.2l-1.54,1.07c-.15.11-.28.21-.41.28-.16.1-.38.11-.54.2-.66,1.24-2.18,1.85-3.35,2.5l-1.44,2.69h2.45c-.46.42-2.75,2.12-2.8,2.29-.05.14,2.14,1.07,1.55,2.47l1.07-.41c2.36-1.16,6.87-3.82,8.87-4.45.66-.21,4.1-.74,4.67-.67,1.07.14,1.78,1.66,2.6,1.91.43.13,4.5-.48,5.87-.22.91.18.99.46,1.48.67.12.05.08.48.2.54.59.29,1.68.17,2.22,1l.2.54c.33-.06.86-.46,1.06-.39.24.09,3.43,3.01,3.79,3.46.6.75,1,.95.81,2.15,2.38-1.32,1.58.21,2.43,1.54.22.34,1.09.48,1.23,1.57.05.37-.64.63-.69.91-.12.69.37,1.33.34,1.48-.05.26-1.06-.2-1.27-.14-.13.08-.24.14-.34.19.07-.09.18-.15.34-.19-.17-.23-.45-.38-.74-.33l-.07-1.81c-.56,0-1.73.1-1.81.07-.38-.12-.84-1.37-1.42-1.32-2.36.21-.6.99-.19,1.93.54-.21,1.24-.14,1.81-.07l.2.54.2.54.2.54c-.61.46-.48,1.2-.67,1.48-1.44,2.15-.49,1.49-.67,1.96-.46,1.17-2.51,2.23-1.25,4.29-.8.4-4.66,3.19-4.96,3.1.58-1.95-.64-3.51,1.93-3.79l-1.74-.57c-1.26,1.38-2.54,2.79-3.28,4.31-.04.08.4.59.21,1-.14.29-.57.37-.9.5-.13.23-.26.45-.39.66.04.16.12.34.29.6,2.27-1.2,3.53-2.2,6.07-1.09,1.45.64,1.22,2.3,3.32,0-2.86.26-.76-3.45.06-3.09l.61,1.61c1.17-1.31,1.94-2.29,3.89-2.69-.32,1.93-1.4,5.71-2.93,6.92-.56.45-3.7,1.53-4.1,1.25-.2-.13-.07-1.12-.14-1.13-1.53-.32-7.02,2.98-7.49,2.78-.34-.15-1.08-2.84-1.48-3.1-1.24-.79-.97,1.16-1.93,1.34-.52.09-1.08-.72-1.24-.76-1.32-.25-1.92.66-2.37,1.82,1.24.84,2.4.8,3.72.13.96,1.62.31,1.62-.8,2.75.2.15.31.28.35.4.61.38,1.39-.46,1.44-.41.34.28.41,1.42.64,1.53.88.42,3.01-2.21,3.76-2.53.94-.41,1.47.53,1.6.52.26-.13.47-.21.66-.27.78-.53,1.61-1.6,2.66-.68-.49.6-1.71,1.51-2.38,1.82-3.06,1.38-3.67,2.38-5.5,3.31.17-.21.23-.41.23-.61-.04-1.35-3.7-2.3-4.33-2.13-.5.13-1.25,1.25-1.4,1.14-.14-.1-.99-2.61-1.22-3.22l-.73.28c-.03.74-.06,1.06-.13,1.18-.12.21-.38-.18-1.08-.1-3.86.43-1.71,1.19-2.29,2.09-.07.11-1.66-.33-2.54-.27l-1.55-2.48c.04-.32,3.63-.36,3.81-.44,1.17-.56.56-2.23,3.77-.58l.54-.2c-.07-.18-.13-.36-.2-.54-.19-.45.69-2.07-1.35-1.94-1.24.89-1.56.82-2.68,1.02-.99.17-2.35-.11-3.44.22-1.06.32-2.02,1.5-2.88,1.53-1.01.04-1.55-2.47-3.77-1.58-.43.17.05.77.14,1.04.02.04.02.08.01.1-.24.49-.93.87-1.41,1.15-.1-.23-.31-1.05-.4-1.07-.2-.06-3.55,1.21-3.95,1.49-.42.29.16,1.18-.21,1.32-1.07.43-1.45-.55-1.75-.58-.26-.03-.96.63-1.52.46-.49-.14-.93-1.31-1.72-1.69-1.06-.52-4.22-.78-5.16.11-.46-.86,1.27-1.27,1.09-1.94-.17-.64-2.11-1.09-2.74-1.35-.36-.15-.46-.78-.52-.8,1.92-.3.43-1.26.46-2.02-.83-.16-1.53-.24-1.68-1.2-.18.04-.35.17-.54.2-1.53.29-.97.76-.46,2.02.35.25,1.51.06,1.68,1.2-1.06,0-4.93,2.11-5.16,2.57-.75,1.52,3.52.1,4.7,1.17,2.58,2.33.52,2.16-1.06,3.58-.76.29-2.99.34-3.63.15-.15.22-.2.52-.33.74-.12.19-.13.59-.33.74-1.99,1.48-6.7,3.43-6.38-.65-.78-.64-1.47-2.06-2.21-.99-.04.06.36.73.19.97-.31.43-.83.45-.87.51-.38.63-.48.68-.67,1.48-.05.19-.65.21-.25,1.01.34.67,1.07-1.11,1.06,1.13-.01,2.14.23.58.82,1.05.99.79.44,1.38.4,2.17l.1.27c.06.11.13.21.1.27-.57,1.29-1.8,1.23-3.02,1.75-.87-.24,1.93-1.97,2.28-2.08l-.2-.54c-.2-.28-.25-1.01-.41-1.08-.21-.09-2.77,2.37-4.08,2.16-.36-1.26,1.59-1.61,1.75-1.89.1-.19-.81-.62-.95-.86l-3.34,2.5c-.11.32,1.75,1.7,1.88,1.73.25.05,2.54-.99,2.29.36-.2,1.08-1.68.68-2.62.38-.8.73-2.41,2.87-2.6,2.82-.17-.04-1.89-2.76-2.02.15-.02.38.66.92.6.99-.34.39-2-.11-2.27.29-.24.36-.36,4.22-.61,5.09,6.89-3.31,13.92-7.32,21.14-9.86,4.15-1.46,21.84-6.55,25.36-6.3.5.04,3.81,1.92,5.03,2.11,2.5.39,2.03-1.27,2.43-1.43.3-.12,1.75,1.25,2.41,1.53.72.31,2.01.19,2.28.35.98.57,3.62,3.98,3.84,5.3l-2.95-1.33c2.65,2.78,0,1.78-.36,3.18-.15.58.29,3.22-.43,4.48,1.61-.45,2.51.48,1.41,1.3-.44.33-.46-.99-.9-.85-.19.06-.67.83-1.18,1.02-1.7.65-1.49-.38-2.22-1-1.36.32-2,1.69-2.61,2.83l-1.61.61c.21-.71-.28-2.38.59-3.29-1.07-1.84-1.97-3.5-4.67-3.04-1.02.17-6.04,2.93-6.74,3.68l.41,1.07c-.78.38-.23,1.84.61,1.61.19,1.33-.18,2.31-.48,3.56l.62.06c-.52.14-1.74,1.47-3.01,1.53-.25.01-.49,0-.74-.11l1.14,1.41c-.29.09-.96.29-1.07.41-.05.4-.14.68-.26.86.11-.43.19-.79.26-.86-2.91.82-.18-1.03-.81-2.15,2.11-1.65,2.48-2.92,2.87-5.38-.77.79-3.21-.01-3.36.06-.56.26.29,3.31-1.73,4.32-.06.03-.86-.5-1.27-.13.47,1.01.71,2.25,1.21,3.22.41-.17.74-.21.99-.17.43.07.65.39.61.76-.05.59-.71,1.32-2.07,1.42-.35-.43-.46-1.57-.81-2.15-1.74.05-1.8,1.14-2.28,2.09-.24-.02-.63-.36-.74-.33-.71.17-1.43.61-2.15.81.17,1.32,1.16.96,2.22,1-.46.83-.56,1.35-1.74,1.89-.79.36-2.92.61-3.96.89-.18.05-.35.15-.54.2-.37.1-.71.3-1.07.41-1.64.46-1.79-.86-2.07,2.63-1.05-.24-1.55.54-2.15.81-2.79,1.27-1.98-.09-.61-1.61.34-.37,1.22-.48,1.3-1.41l-1.61-1.35-.16-.13c.1.04.19.04.29.07,1.98.54,3.42-.89,4.86-1.15,2.8-.51,2.34,1.68,4.71-2.04.33-.52,1.31-2.15,1-2.21-.36.06-.78.39-1.07.4-2.33.05-2.06-1.1-5.64-.32.8,1.21-.56,1.31-1.74,1.89-.68.33-1.46.49-2.15.82l.95.86-2.2,1.46-.35-1.71c-.23-.07-3.19,1.61-3.55,1.95.77,1.1,2.1,4.57,3.23,3.69.49.64-.49.74-.66,1.47-1.17.35-3.51,1.85-4.6.81-1.02-.98,1.64-1.24,2.15-2.61.46-1.23-.74-1.65-.79-1.88l-2.2,1.46c-.14.19-.19.41-.07.63.04.07.6.04.74.32-3.05.78-1.91,3.5-4.69,5.47-.14.1-.36.11-.54.2-1.09.61-1.11.49-2.15.81-1.39.44-5.17,1.57-6.31,1.66-1.38.1-1.71-1.54-2.89-.02.17.19.27.37.32.56.69.5,2.24.63,1.76,1.72-.26.6-3.09-.75-3.35,2.5-.03.35.53,1.11.6,1.61-1.16.04-1.55-.36-1.14-1.41l-.59-.84s-.1-.05-.15-.1c-.49.85-4.11,2.39-4.29,2.23-1.31-1.17.25-1.62.25-2.51-.04,0-.08-.01-.11-.02-2.45.3-1.51,2.84-4.1,3.41-.05-.17-1.42-.28-.41-1.07.25-.2,1.01-.24,1.07-.41.57-1.66-3.29-.59-4.36-.19.7.43,1.24.43,2.02.46,1.11,1.88-1.02.9-2.48,1.55-.15.07-.63,1.17-1.4,1.15-.04.1,1.46,1.13,1.68,1.2-.14,1.03-2.01,1.72-2.62,2.12-.1.06-.16.12-.19.17.09-.21-.26-1.23-.07-1.81.04-.12.06-.21.09-.31.03-.4-.37-.57-.87-.65-.56-.08-1.23-.04-1.45-.05-.31,0-.92.67-1.18.14-.57-1.03-.11-.85.78-1.21.33-.14.76-.35,1.07-.41.36-.58.87-1.09,1.2-1.68.13-.24.3-.45.33-.74l-.2-.54c-.91.55-3.02,2.32-3.35,2.49-.83.42-1.97.34-2.89.48-1.08,2.77.54,4.47,1.57,7.38.44,1.25.91,2.53,1.42,3.76ZM340.97,129.87c-1.06.58-1.2.52-1.47-.66l1.47.66ZM351.77,82.23c.36.87,1.73,2,1.76,3.02l-1.57-.93-1.73.33,1-2.22.54-.2ZM348.57,88.35c-1.16-1.59,1.63-2.24,2.68-1.02-1.36.89-2.29.81-2.68,1.02ZM335.97,118.27c-1.06.58-1.2.52-1.47-.66l1.47.66ZM330.92,103.3s0,.03,0,.04c-.04-.04-.09-.07-.13-.12.08.03.13.05.13.07ZM327.27,105.01c-.19,1.4-.52,2.62-1.84,1.61l1.84-1.61ZM302.6,101.28c0,.06.01.11,0,.17-.03.3-.5.19-.76-.19-.12-.17-.2-.4-.17-.68.05-.4.89-.08.92.7ZM329.3,110.37c-.11-.25-.8-.46-.82-.62-.02-.13.92-2.34,1.01-2.43.65-.63,1.73.46,2.3-.98.11-.28-.5-.39-.49-.42.34-1.94,1.69-1.83,3.35-2.49l.28,2.35c-.38.25-.99.8-1.41,1.15l-.33.74c-1.22,1-2.29,2.25-3.89,2.7ZM334.5,122.51c1.04.56.42,3.57-.67,3.91-.26.08-1.99-1.24-2.03-1.36-.17-.55,2.41-2.7,2.7-2.55ZM331.9,130.24c-.05.43-1.03.03-.93-.87.05-.43,1.03-.03.93.87ZM321.29,128.12l1.28.13c-.6.58-1.04,1.19-1.95,1.34-.28-.63.5-1.07.67-1.47ZM255.52,163.44l2.14-.82-.94-.86c1.15-.82,2.57-.93,3.65-1.66.66-.44,1.73-2.21,1.92-2.28.7-.24,1.97,1.8,1.77,2.35-.09.24-3.71,3.25-3.94,3.35-1.41.62-3.38-.1-4.52,1.73-.42-.65-.23-1.14-.08-1.81ZM253.23,160.63c-.25.01-.56.23-.87.34-.07.02-.14.05-.21.06l-.1-.26-.3-.81c.6-.33,1.2.64,1.47.67ZM253.97,160.96c.09-.07.42-.2.54-.2l.2.54s.27.47-.08.65c-.64.33-.83-.21-.99-.24.18-.18.22-.64.33-.74Z"/>
        <path class="cls-2" d="M267.29,126.47c1.43-.57,1.51-1.51.79-2.75-.1-.07-.7.7-.86.94-.11.16-.09.56-.33.74,0,.18.18.35.2.54l.2.54Z"/>
        <path class="cls-2" d="M268.32,111.36l.2.54c.83-.5.71-1.7,1-2.22.64-1.12,3.8-6.75,4.07-7.06.88-1.03,5.44-2.19,5.43-5.11-2.52.27-3.82,2.92-5.56,3.94-1.47.86-.4-.93-.68-.97-.98-.16-.83.9-.88.94-.13.11-.38.09-.54.2-.12.09-.19.35-.24.53l-.09.21c-.52.25-1.25.17-1.81.07-.17,1.58-.55,3.12-.72,4.57-.02.17.22.37.2.54l-.33.74c0,.18.18.35.2.54l.2.54-.54.2c-.02.16.21.36.2.54l-.33.74c0,.18.18.35.2.54Z"/>
        <path class="cls-2" d="M308.62,101.41c-.12.12-.25.22-.37.36.17-.12.29-.24.37-.36Z"/>
        <path class="cls-2" d="M291.22,134.59s0,0,.01,0c0,0,0,0-.01,0h0Z"/>
        <path class="cls-2" d="M310.86,76.24l7.24-5.19c-.34.17-.73.24-1.07.41-2.33,1.1-5.56,1.88-6.17,4.78Z"/>
        <path class="cls-2" d="M247.56,161.24s0,.03-.01.04c0,0,0,0,0,.01,0-.02,0-.03.01-.05Z"/>
        <path class="cls-2" d="M301.79,94.08c.12.29,1.08.48,1.31.9.65,1.18-.45,2.5,1.69,1.65,1.47-.58,2.8-2.38,3.1-3.92l.2.54.2.54c.22.73.88,2.05.82,2.14-.15.24-1.9.37-2.26,1.45-.16.49.71,1.05.92,1.51,3.39,2.54,3.21-.3,3.84-.79,3.82-3.03,7.16-.31,10.73-2.88-.86-.76-2.09-2.35-.86-3.28.29-.22.84.22.91.19.27-.12.58-.72.87-.94-.17-.33-.24-.74-.41-1.07-.01.12-.04.21-.08.29-.11.24-.32.32-.58.31-.75-.05-1.89-.95-1.98-1.13-.56-1.13,1.92-.97,1.98-1.07.09-.16,0-2.23-.22-2.36-1.39,3.28-3.63.19-6.1,1.7l.94.85c-1.3,1.37-3.19,1.59-4.62,2.37-1.56-1.37-.82-2.46-.79-3.7,0-.43-.79.11-1.05-.11-.38-.32-1.52-2.45-2.33-.75-.48,1.01,3.6,3.19.15,3.63l2.72.78s0,0-.01.01l-2.84.47c-.04-.33-.34-.71-.41-1.07-.39-.18-1.12-.74-1.48-.67-.13.03-.59.82-1.52.94-1.1.14-1.49-.76-1.65-.78-2.74-.35-.63,1.42-.48,2.17.15.74-.87,1.64-.69,2.07ZM319.63,91.32c-.12.44-1.96,1.62-2.78.74-1.33-1.43,3.34-2.83,2.78-.74ZM309.7,92.63c-.05.12-.19.13-.33.09-.11-.03-.23-.1-.29-.18-.08-.11-.07-.25.14-.34.18-.08.55.27.47.44Z"/>
        <path class="cls-2" d="M333.35,75.7c-.07.04-.11.74-.53.87-.54.16-.63-1.88-1.61-.06.13.35.03,1.87,1.02,2.69.81-1.78,2.9-.12,4.29.89.52.38.82,1.4.89,1.44.23.1,1.41-1.09,1.94-1.35.1-.05,1.78,1.06.92-.85.02-.05.03-.09.04-.13l.44-.17c.73,2.23.59.13,1.47-.41.47-.29,1.29,0,1.63-.16.53-.27-.13-1.11-.08-1.19l-.94-.87c-.06.03-.76-.52-1.39-.03-.67.53-.81,1.93-1.76,2.49-.2.04-.44.11-.74.24-.03-1.44.64-1.55-.15-3.63-.63.25-.6,2.76-1.87,3.16-.5-.81-.03-1.53-.05-2.39-.01-.52-.68-.99-.64-1.03l-.74-.33c-.65.35-1.48.48-2.15.81Z"/>
        <path class="cls-2" d="M277.58,141.56c-3.16,1.26-6.38,3.28-9.69,4.32.97,2.52,2.38.25,3.73.07.76-.1,1.86.59,2.65.58,0-.78.81-.93,1.41-1.15.18-.07.36-.14.54-.2-.06-1.03,1.38-1.03,2.15-.81l.54-.2c.21-.87.3-.59.87-.94l-.2-.54.13-1.28c-.45-.77-1.42-.13-2.11.15Z"/>
        <path class="cls-2" d="M320.62,84.2c-.03.08.28,1.64.97,1.46,1.23-.31,1.63-.22,2.52-.33l-.32.49c.74,2.04,2.64,1.96,3.61.1,1.94-3.69-1.18-1.36-2.82-2.6,2.27-1.42,2.14-2.58,1.8-4.98-1.77.5-.8,2.33-1.36,3.61-1.48,3.36-4.24,1.86-4.39,2.25ZM326.36,84.79l-.43.47-.54.2c.07-.02.5-1.44.97-.67Z"/>
        <path class="cls-2" d="M327.88,89.38c-1,1.96,2.61.78,3.71,1.1-.32.47-.37,1.86-.99,2.64-.1.12-.21.23-.34.32.08-.04,1.29.57,1.75-.09.15-.22.69-4.42,2.81-4.09-.2-.09-.18-.6-.39-.82-.06-.03-.12-.06-.19-.09-.28-.04-.78.22-1.77,1.19.1-.34,0-1.06.13-1.28-.27-.07-.5-.22-.74-.33-.98-.46-2.01-.8-2.96-1.33-.28,2.14-.24,1.26-1.01,2.78ZM330.77,88.34l-.08.19-.33.73-.25.55c-.12-.22-.21-.4-.27-.55-.17-.42-.08-.61.35-.76.15-.05.34-.1.58-.16Z"/>
        <path class="cls-2" d="M256.97,154.3l.42-.16.11-.04c.13-.23.19-.51.33-.74.13-.21.16-.55.33-.74.22-.25.68-.77.87-.94.68-.6,2.44-.11,1.05-1.84-1.84-2.29-2.88.16-3.81,1.04-.4.38-1.25.93-1.41,1.15-.95,1.29-.86,1.79-.6,3.29,1.09-.54,1.37-1.03,2.68-1.01Z"/>
        <path class="cls-2" d="M341.63,70.44c-.21-.25-.46-.47-.71-.67-.72-.08-2.42.27-3.49.37-.72.07-1.73-.05-.91.98.28.35,1.66.03,2.53.3,1.14.35.97,1.37,2.88,1.03l-.2-.54.33-.74c-.09-.27-.25-.52-.44-.74Z"/>
        <path class="cls-2" d="M286.52,99.58l-2.77,2.27c.3.99,1.49-.11,2.47-.04.94.07.25.78.28.83.21.28.22.75.66,1.01.08.04.15.05.22.07.5.16.95-.1,1.34-.08l-.2-.54.33-.74c-.38-1.41-1.61-1.71-2.33-2.78Z"/>
        <path class="cls-2" d="M319.32,79.17l-2.47,1.55c-.25.9,6.41,4.14,2.47-1.55Z"/>
        <path class="cls-2" d="M345.46,83.39c-.15.31-.65.61-.87.94-.36.53-.54,1.32-1.2,1.68l.2.54c3.18,1.81,2.22-.22,2.07-2.63,1.71-.48,2.68-2.86,2-4.44-2.61,1-1.39,2.29-2.2,3.9Z"/>
        <path class="cls-2" d="M253.27,152.64c-1.08.57-1.99,1.15-3.02,1.76-.28,1.37-.96,1.58.28,2.35,0-.14,0-.27.04-.4.38-1.63,3.8-1.85,2.7-3.71Z"/>
        <path class="cls-2" d="M324.94,92.38l-1.07.41c.37,1.09.02.74.81,2.15.41-.05.65-.16.79-.33.17-.22.16-.53.12-.88-.06-.47-.2-1.01-.11-1.54l-.54.2Z"/>
        <path class="cls-2" d="M347.32,75.32c.43-1.81.27-3.82-1.35-1.94.47.7-1.07,2.75,1.35,1.94Z"/>
        <polygon class="cls-2" points="293.19 97.64 291.81 97.25 291.25 98.99 293.19 97.64"/>
        <polygon class="cls-2" points="291.81 97.25 290.44 96.86 291.81 97.25 291.81 97.25"/>
        <path class="cls-2" d="M279.05,107.3l-.33.74c-.29.69-.24.54-.13,1.28l1.81-.07c-.14-.41-.37-1.36-.36-1.95,0-.18.03-.32.09-.41-.3.19-.87.22-1.07.41Z"/>
        <path class="cls-2" d="M328.38,119.3s-.07,0-.1,0c-.85-.18-1.58,1.91-.69,2.76.38.12.63-.05.8-.34.42-.73.28-2.28,0-2.41Z"/>
        <path class="cls-2" d="M326.57,96.67l.2-.07,3.56-1.34c-.08-.21-.27-.32-.5-.39-.22-.07-.48-.11-.71-.17-.1-.03-.19-.06-.28-.1-.17.1-.4.1-.54.2-.53.4-.89,1.29-1.94,1.35l.14.38.06.15Z"/>
        <path class="cls-2" d="M311.55,84.56c.5-1.01-1.73-1.59-2.55-.25.35.91,2.3.76,2.55.25Z"/>
        <path class="cls-2" d="M320.85,117.24c2.18-.25,2.36-.06,1.21-1.68-.21-.3-.15-1.21-.68-.97-1.2.19-.64.61-.45,1.12,0,.08.02.17.06.26,0,.4-.22.84-.14,1.27Z"/>
        <path class="cls-2" d="M324.49,76.6l-.41-1.07c-.42.39-1.88.46-.46,2.02.36-.14.72-.27,1.07-.41l-.2-.54Z"/>
        <path class="cls-2" d="M327.09,91.57c0-.58-.63-1.82-1.15-1.41l-.13,1.28.2.54,1.07-.41Z"/>
        <path class="cls-2" d="M331.57,85.58l-.13,1.27,1.61-.6c-.16-.57-.28-.88-.94-.87-.17,0-.35.18-.54.2Z"/>
        <path class="cls-2" d="M276.14,97.97c-.45-.23-1.18-1.52-1.41-1.3-1.08,1.07.15,1.97,1.41,1.3Z"/>
        <path class="cls-2" d="M264,148.57l-.2-.53c-1.32.44-2,.37-1.2,1.67l1.4-1.15Z"/>
        <path class="cls-2" d="M330.8,75.44c-.9-1.36-1.54-1.88-1.17.13l.64.07.54-.2Z"/>
        <path class="cls-2" d="M295.37,83.95c-.81-.1-1.55,1.57-1.21,1.67.81.1,1.55-1.57,1.21-1.67Z"/>
        <path class="cls-2" d="M321.79,118.11l-.2-.53c-2.33.58-1.93,1.64.2.53Z"/>
        <path class="cls-2" d="M333.65,82.96c-.1.9.88,1.3.93.87.1-.9-.88-1.3-.93-.87Z"/>
        <path class="cls-2" d="M341.68,75c.9.1,1.3-.88.87-.93-.9-.1-1.3.88-.87.93Z"/>
        <path class="cls-2" d="M328.53,122.93l-.33.74c.25-.16.25-.67.33-.74Z"/>
        <path class="cls-2" d="M319.64,116.47l.2.54c.28-.31.21-.49-.2-.54Z"/>
        <path class="cls-2" d="M277.88,96.09c.13.13.08.44.2.54.2.15.51.22.74.33l-.2-.54c.65-.71.7-1.74,1.74-1.88l-.35,2.28,1.7-.34c1.42-1.3,3.63-3.49,4.89-4.92.28-.31.64-.61.87-.94l-.2-.54-1.07.41.2.54-4.42,2.89c.18-1.55.9-2.01,2.07-2.62.19-.77.61-2.16-.88-1.52-1.81.78-6.79,4.13-6.03,5.97.12.29.44.38.74.33Z"/>
        <path class="cls-2" d="M335.75,90.13c1.06.81,1.67,2.64,2.76.8.24-.41,1.38-2.8,1.33-2.96-.81.28-3.96,1.3-4.84,1.31-.01,0-.03,0-.04,0-.06,0-.12,0-.15-.02.06.01.52.55.94.87Z"/>
        <path class="cls-2" d="M334.28,94.37c.22.18.43.24.63.24.41,0,.79-.25,1.18-.31-.48-2.15-1.46-2.11-1.81.07Z"/>
        <path class="cls-2" d="M342.78,84.4c-.15-.06-.3-.07-.44-.07-.11,0-.22.03-.32.07-.1.04-.19.1-.27.16-.03.02-.06.05-.09.08-.58.57-.52,1.72,1.2,1.57.12-.28.19-.86.14-1.3-.03-.26-.09-.47-.22-.52Z"/>
        <path class="cls-2" d="M338.9,87.11c-.17.24.89.67.94.87.54-.19,1.07-.41,1.6-.61.43-.49-1.92-.72-2.54-.25Z"/>
        <path class="cls-2" d="M336.68,86.1c.18.78.31,1.06.67,1,.19-.03.44-.14.8-.34l-.87-.39-.6-.27Z"/>
        <path class="cls-2" d="M260.47,155.44c-.43-.05-.75.16-.91.39-.08.11-.12.22-.12.31,0,.12.04.22.17.23.51.06.85-.23.98-.5.04-.09.07-.17.06-.24,0-.1-.06-.18-.17-.19Z"/>
        <path class="cls-2" d="M247.18,159.24c.22.03.49.28.74.33.02-.08.58-.16.86-.3.08-.04.13-.08.15-.13.01-.04.01-.08.02-.12.16-1.16-3.1-1.48-1.76.2Z"/>
        <path class="cls-2" d="M325.83,96.34c-.28-.34-.33-.88-.94-.87.28.34.33.9.94.87Z"/>
        <path class="cls-2" d="M74.83,572.97l.46-.47c-.12.1-.28.27-.46.47Z"/>
        <path class="cls-2" d="M133.5,600.3c5.48-.23,12.2-.64,16.42-1.12l-16.42,1.12Z"/>
        <path class="cls-2" d="M165.95,570.39c.13-.27.74-.32.87-.6.87-5.4,3.67-10.66,5.93-15.59.13-.27.74-.32.87-.6.66-5.49,3.96-10.57,5.93-15.58.11-.27.75-.32.87-.6,1.6-3.77.82-4.83-1.57-7.88-.22-.28-.38-.6-.6-.87l-.27-.24c-.59-.48-1.99-1.47-2.99-2.64-.23-.27-.37-.61-.6-.87-1.92.22-2.85-2.39-3.85-3.75-.24-.25-.36-.62-.6-.87l-2.58-2.28c-.26-.22-.5-.42-.68-.6-.24-.25-.35-.62-.6-.87-2.51-.63-4.26-3.08-5.92-4.89l-5.43-1.4,1.09,4.37c-.97-.64-5-3.97-5.34-4-.27-.02-.98,4.3-3.74,3.85l1.19,1.74c3.09,3.71,9.82,10.61,11.81,13.89.66,1.09,3.11,7,3.23,8.05.23,1.97-2.2,3.9-2.27,5.48-.04.83,2.83,7.82,2.95,10.39.08,1.7-.4,1.97-.55,2.93-.04.24-.81.35-.87.6-.26,1.18.44,3.07-.82,4.4l-.87.6c.25.57,1.2,1.33,1.15,1.72-.06.47-3.88,7.44-4.53,8.27-1.08,1.4-1.26,2.19-3.48,2.37,3.4,3.66.31,2.92-1.69,5.01-.52.54-.38,2.15-2.27,2.89-.63.25-1.41-.88-1.93-.84-1.28.09-2.21,1.24-2.5,1.25-.49.02-.11-1.98-.31-2.33-.2-.19-.35-.36-.49-.52.2.09.34.26.49.52.34-.41.48-.97.27-1.47l3.21-.92c-.24-1-.93-3.04-.92-3.21.05-.73,2.08-2.1,1.73-3.11-1.4-4.12-2.03-.63-3.53.5.6.87.79,2.16.92,3.21l-.87.6-.87.6-.87.6c-1.1-.89-2.34-.33-2.93-.55-4.46-1.63-2.87-.22-3.8-.35-2.29-.31-5.09-3.51-8.2-.37-1.07-1.25-7.74-6.93-7.7-7.51,3.74.19,5.99-2.68,7.61,1.8l.26-3.36c-3.02-1.64-6.09-3.32-9.12-3.97-.17-.04-.87.97-1.69.8-.59-.12-.91-.85-1.29-1.39-.47-.13-.92-.26-1.34-.41-.27.14-.56.36-.94.79,3.13,3.53,5.48,5.35,4.6,10.37-.5,2.87-3.58,3.17,1.46,5.93-1.7-4.99,5.82-2.86,5.53-1.24l-2.6,1.79c2.85,1.52,4.93,2.46,6.5,5.77-3.59.27-10.81,0-13.64-2.21-1.04-.81-4.35-5.94-4.03-6.78.15-.41,1.96-.62,1.96-.75-.09-2.87-8.4-11.24-8.23-12.16.12-.67,4.61-3.16,4.9-4.01.87-2.57-2.5-1.23-3.23-2.85-.39-.88.82-2.24.81-2.54-.13-2.47-2.02-3.14-4.28-3.44-.96,2.59-.38,4.63,1.39,6.7-2.48,2.41-2.76,1.26-5.27-.23-.18.43-.36.68-.55.8-.42,1.26,1.42,2.28,1.36,2.4-.36.72-2.36,1.35-2.45,1.8-.36,1.75,5.25,4.42,6.17,5.61,1.14,1.5-.3,2.86-.24,3.08.34.41.58.75.77,1.05,1.29,1.16,3.56,2.18,2.37,4.46-1.28-.62-3.45-2.39-4.28-3.45-3.81-4.86-5.84-5.51-8.3-8.37.45.2.84.24,1.18.14,2.39-.65,2.5-7.6,1.92-8.67-.46-.84-2.78-1.69-2.65-2,.11-.3,4.23-2.91,5.21-3.59l-.81-1.19c-1.33.26-1.91.36-2.16.28-.43-.13.16-.77-.29-1.98-2.46-6.71-2.88-2.53-4.74-3.17-.22-.08-.13-3.1-.63-4.65l3.76-3.85c.58-.06,2.23,6.33,2.45,6.6,1.51,1.85,4.23.03,2.69,6.48l.6.87c.29-.2.59-.39.87-.6.73-.53,3.99.33,2.88-3.26-2.13-1.83-2.15-2.42-2.98-4.35-.74-1.69-.82-4.25-1.9-6.05-1.04-1.74-3.56-2.95-3.99-4.47-.51-1.79,3.73-3.84,1.18-7.42-.49-.7-1.36.42-1.79.71-.07.05-.13.08-.18.07-.98-.22-1.95-1.28-2.66-2.01.37-.29,1.73-1.01,1.74-1.19.02-.39-3.71-5.81-4.38-6.4-.71-.62-2.03.8-2.46.21-1.22-1.72.34-2.83.27-3.38-.06-.48-1.54-1.44-1.49-2.52.04-.93,1.93-2.23,2.27-3.8.46-2.12-.45-7.87-2.44-9.17,1.33-1.2,2.82,1.72,3.93,1.11,1.06-.59,1.02-4.25,1.21-5.48.11-.7,1.2-1.17,1.2-1.27,1.38,3.29,2.44.22,3.8-.05-.07-1.54-.24-2.84,1.42-3.53-.16-.31-.46-.56-.6-.87-1.19-2.6-1.77-1.4-3.8.05-.29.74.55,2.72-1.41,3.53-.45-1.89-5.92-7.89-6.85-8.09-3.04-.68,1.35,6.32-.04,8.9-3.04,5.62-3.63,1.87-6.85-.33-.85-1.23-1.92-5.2-1.84-6.41-.46-.16-1.02-.12-1.47-.27-.4-.13-1.11.02-1.47-.27-3.51-2.91-9.04-10.47-1.62-11.68.8-1.67,3.04-3.52.81-4.37-.13-.05-1.14.97-1.64.76-.9-.38-1.16-1.29-1.28-1.33-1.29-.4-1.42-.56-2.93-.55-.37,0-.67-1.07-1.92,0-1.05.89,2.45,1.43-1.56,2.39-3.82.91-.94.67-1.51,1.92-.97,2.12-2.28,1.4-3.71,1.66l-.43.3c-.16.16-.31.32-.44.3-2.55-.45-2.98-2.67-4.44-4.63.04-1.66,4.36,2.59,4.71,3.16l.87-.6c.42-.47,1.69-.9,1.74-1.21.06-.42-5.44-3.92-5.64-6.35,2.1-1.19,3.58,2.14,4.14,2.29.38.1.75-1.71,1.12-2.06l-5.93-4.88c-.63-.06-2.28,3.87-2.27,4.11.01.47,2.88,4.11.36,4.25-2.02.11-1.94-2.7-1.82-4.52-1.65-1.12-6.18-3.05-6.18-3.41,0-.32,4.11-4.58-1.15-3.55-.69.14-1.36,1.59-1.51,1.51-.85-.43-.67-3.62-1.5-3.92-.76-.27-7.69,1.19-9.36,1.14,8.92,10.86,19.14,21.67,26.84,33.45,4.42,6.77,21.23,36.14,22.31,42.53.15.91-1.76,7.64-1.57,9.89.39,4.64,3.16,3.07,3.62,3.72.34.48-1.47,3.68-1.68,4.98-.23,1.41.53,3.68.37,4.22-.6,2.01-5.53,8.2-7.78,9.17l1.09-5.85c-3.8,5.94-3.17.76-5.83.75-1.1,0-5.62,1.92-8.18,1.19,1.51,2.68.23,4.7-1.71,3.09-.78-.65,1.56-1.25,1.12-1.98-.19-.32-1.77-.84-2.34-1.66-1.91-2.75.03-2.83.82-4.4-1.16-2.29-3.89-2.84-6.19-3.43l-1.79-2.61c1.36.06,4.12-1.54,6.14-.38,2.82-2.72,5.38-5.05,3.39-9.67-.75-1.74-7.88-9.51-9.51-10.43l-1.74,1.19c-1.02-1.22-3.38.4-2.61,1.79-2.3.93-4.2.69-6.57.7l.16,1.14c-.48-.86-3.39-2.47-4.05-4.71-.13-.43-.2-.88-.12-1.36-.12.13-.22.27-.31.41l-1.71,2.24c-.28-.48-.93-1.59-1.19-1.74-.73.08-1.27.05-1.65-.08.82,0,1.49,0,1.65.08-2.74-4.83,1.76-.77,3.48-2.39,3.88,3.05,6.3,3.16,10.86,2.78-1.74-1.03-1.37-5.73-1.57-5.97-.71-.88-5.79,1.97-8.48-1.21-.08-.09.51-1.76-.32-2.33-1.6,1.29-3.7,2.24-5.22,3.57.47.65.69,1.23.73,1.7.06.81-.41,1.32-1.09,1.43-1.08.17-2.68-.7-3.44-3.08.61-.82,2.61-1.51,3.48-2.39-.85-3.09-2.82-2.71-4.72-3.15-.07-.44.36-1.29.27-1.47-.61-1.2-1.71-2.28-2.39-3.48-2.29.87-1.21,2.48-.82,4.4-1.67-.46-2.66-.41-4.13-2.28-.99-1.26-2.36-4.94-3.31-6.68-.17-.31-.43-.56-.6-.87-.33-.61-.85-1.13-1.19-1.74-1.54-2.72.75-3.58-5.59-2.56-.03-1.98-1.65-2.53-2.39-3.48-3.48-4.43-.71-3.58,2.61-1.79.81.44,1.39,1.97,3.08,1.7l1.7-3.47.17-.34c-.02.19,0,.36,0,.54-.11,3.77,3.08,5.72,4.16,8.17,2.12,4.78-1.97,4.91,5.7,7.52,1.08.37,4.41,1.4,4.39.82-.27-.62-1.04-1.22-1.18-1.74-1.11-4.14,1.06-4.17-1.89-10.21-1.81,1.96-2.58-.42-4.13-2.28-.89-1.07-1.52-2.39-2.4-3.48l-1.12,2.06-3.57-3.29,2.9-1.37c.02-.43-4.26-5-5.04-5.49-1.63,1.86-7.24,5.75-5.18,7.38-.92,1.16-1.54-.56-2.91-.55-1.14-1.93-4.83-5.46-3.45-7.85,1.3-2.25,2.92,2.39,5.6,2.7,2.4.28,2.62-2.04,3.02-2.23l-3.57-3.29c-.4-.16-.82-.17-1.15.14-.11.1.19,1.09-.25,1.47-2.72-5.12-7.08-1.88-11.81-5.98-.24-.21-.35-.6-.6-.87-1.56-1.69-1.36-1.78-2.39-3.48-1.38-2.28-5.07-8.55-5.71-10.54-.78-2.41,2-3.72-1.23-5.16-.26.38-.55.64-.86.82-.59,1.46-.14,4.27-2.29,3.89-1.18-.2,0-5.85-5.92-4.89-.64.1-1.75,1.43-2.61,1.78-.58-2.06-.03-2.93,2.02-2.65l1.24-1.41c.02-.1.05-.2.11-.31-1.73-.5-6.06-6.29-5.85-6.7,1.51-2.85,3-.27,4.59-.65,0-.07-.01-.15-.02-.21-1.61-4.24-5.73-1.45-7.88-5.83.29-.16-.13-2.65,1.74-1.19.47.37.87,1.7,1.19,1.73,3.21.3-.38-6.14-1.57-7.87-.47,1.43-.23,2.4.05,3.8-2.88,2.81-2.04-1.43-3.85-3.75-.19-.24-2.36-.62-2.67-2-.19-.04-1.37,3.1-1.41,3.52-1.89.2-3.94-2.84-4.94-3.76-.15-.14-.29-.24-.38-.26.42.06,2.08-.99,3.21-.92.22.01.41.02.59.03.73-.11.86-.92.78-1.83-.09-1.04-.46-2.21-.55-2.6-.12-.55-1.59-1.35-.77-2.05,1.59-1.46,1.46-.57,2.51.86.39.54.95,1.2,1.19,1.74,1.19.39,2.33,1.09,3.53,1.41.49.13.94.35,1.47.27l.87-.6c-1.37-1.39-5.47-4.37-5.92-4.89-1.12-1.29-1.47-3.38-2.11-4.95-5.42-.71-7.74,2.91-12.5,6.02-2.05,1.34-4.12,2.73-6.09,4.18-1.52,3.78-5.86,4.3-8.29,7.94-.96,1.43-8.05,23.13-7.71,24.36,12.34,16.79,23.08,36.28,35.87,52.56.22.28.37.6.6.87l2.66,2.01c.24.25.35.62.6.87l2.06,1.14c.25.23.34.65.6.87l2.07,1.57c.24.17.45.32.59.44.26.22.34.64.6.87,2.58.28,3.71,2.44,5.32,4.02.25.24.35.63.6.87l2.66,2.01c.25.23.34.64.6.87l2.06,1.14c.25.23.34.65.6.87l2.06,1.56c.24.17.46.33.6.46.26.22.34.64.6.87,2.58.28,3.71,2.44,5.32,4.02.25.24.35.63.6.87l2.66,2.01c.25.23.34.64.6.87l2.06,1.14c.26.22.34.64.6.87l2.09,1.58c.23.16.43.31.57.43.26.22.34.65.6.87l2.06,1.14c.26.22.34.65.6.87l2,1.51c.27.19.51.37.66.5.26.22.34.64.6.87,2.58.28,3.71,2.44,5.32,4.02.25.24.35.63.6.87l2.66,2.01c.25.23.34.64.6.87l2.06,1.14c.25.23.34.65.6.87l2.06,1.55c.24.17.46.33.6.46.26.22.34.64.6.87,2.58.28,3.71,2.44,5.32,4.02.25.24.35.63.6.87l2.66,2.01c.25.23.34.64.6.87l2.06,1.14c.25.23.34.65.6.87l2.06,1.55c.24.17.46.33.6.46.26.22.34.64.6.87,2.57.28,3.72,2.43,5.32,4.02.24.24.35.62.6.87,2.58.28,3.71,2.44,5.32,4.02.25.24.35.63.6.87l2.66,2.01c.25.23.34.65.6.87l2.06,1.14c.28.2.33.7.6.87,2.37-.02,3.98-1.51,5.81-2.71.58-.38,1.18-.77,1.74-1.19-.22-1.92,2.39-2.85,3.75-3.85.53-.45,1.22-.74,1.74-1.19-.06-2.13,3.01-3.28,4.62-4.45.57-.41,1.2-.76,1.74-1.19-.22-1.92,2.39-2.85,3.75-3.85.53-.45,1.21-.74,1.74-1.19-.22-1.92,2.39-2.85,3.75-3.85.49-.44,1.17-.83,1.74-1.19l-.15-1.17,1.89-.02c.31.61.94,1.15,1.19,1.74.91,1.43,3.01,3.23,2.11,4.94.21.28.36.62.6.87,2.08.21,3.87,1.49,5.59,2.56.27.17.32.7.6.87,4.69.44,9.02,3.71,12.38,6.85.25.23.35.63.6.87,1.92-.22,2.85,2.39,3.85,3.75.24.24.35.62.6.87,1.92-.22,2.85,2.39,3.85,3.75.47.47.72,1.28,1.19,1.74l3.26,2.88c.48.45.74,1.37,1.19,1.74,1.56.71,2.05,1.45,3.95,1.51,3.04.1,27.15-1.21,28.35-1.98,4.93-8.84,8.19-18.47,12.38-27.64ZM-42.04,442.56c-.87-1.01,0-1.57,0-1.88.31.19.89.15,1.23.2.08.02.14.05.23.07.16.12.54.67.6.87l-.87.6c-.06-.01-.72.68-1.19.14ZM-40.31,439.49c-.13-.43-.66-.9-.99-1.4-.07-.11-.15-.22-.2-.34l.42-.29,1.32-.9c.85.93-.62,2.43-.55,2.92ZM-34.76,458.64c-.47-.05-7.41-5.2-7.7-5.58-1.73-2.25-1.3-6.07-5.06-7.32.98-1.03,1.94-.91,3.2-.93l2.4,3.47,1.13-2.06c1.97,1.7,2.79,4.18,4.55,5.79,1.08.99,4.71,2.13,4.91,2.44.74,1.14-2.35,4.3-3.42,4.19ZM44.52,546.28c1-.78,2.13.43,2.92.55l.32,2.34c-1.29-.81-2.57-1.35-3.25-2.89ZM48.3,566.7c-.8.1-.5-1.83,1.15-2.04.8-.1.5,1.83-1.15,2.04ZM52.91,582.74c-1.5-1.65-1.44-1.92.54-2.92l-.54,2.92ZM55.96,568.48c-.26-.44,1.35-4.1,1.54-4.21.91-.54,5.88,3.13,5.73,3.71-.54,2.1-6.19,2.31-7.27.5ZM71.45,568.74c-1.5-1.65-1.45-1.92.54-2.92l-.54,2.92ZM96.04,552.92c-.01.15-.03.25-.07.27-.02,0-.05.01-.08.02.05-.1.09-.19.15-.29ZM91.33,547.42c-2.59.27-4.91.21-3.68-2.59l3.68,2.59ZM88.06,499.78c.74-.1.52,1.55-.84,1.96-.1.03-.19.07-.3.08-.55.07-.57-.82,0-1.45.26-.29.63-.52,1.14-.59ZM90.62,559.41s-.12-.04-.23-.04l-1.24-.23c-2.32-1.75-5.02-3.11-6.51-5.76.4-.31.48-1.63.75-1.73.22-.09,4.57.62,4.78.74,1.41.89-.06,3.29,2.75,3.69.54.08.47-1.06.53-1.06,3.62-.24,4,2.22,5.91,4.89l-4.07,1.52c-.62-.57-1.87-1.43-2.66-2.01ZM130.37,578.18c2.33-2.77,4.71,1.93,2.98,4.35-2.18-2.05-2.44-3.74-2.98-4.35ZM138.07,585.69l.98-3.2-1.35-2.94,4.4.82.6.87c-1.4,1.02-2.82,3.96-4.62,4.45Z"/>
        <path class="cls-2" d="M32.09,449.91c.08-.2-1.54-.94-2.06-1.13-.33-.13-1.04.09-1.47-.27-.31.08-.55.48-.87.6l-.87.6c1.64,2.3,3.35,2.04,5.26.21Z"/>
        <path class="cls-2" d="M57.79,446.35c2.28.66,13.7,3.85,14.39,4.19,2.23,1.12,6.29,8.77,11.5,7.46-1.59-4.37-6.89-5.54-9.47-8.2-2.18-2.25,1.48-1.11,1.44-1.63-.14-1.81-1.96-1.09-2.06-1.15-.26-.18-.32-.65-.6-.87-.22-.18-.7-.18-1.06-.2l-.41-.08c-.67-.83-.84-2.15-.92-3.21-2.9.39-5.82.38-8.47.7-.31.04-.56.55-.87.6l-1.47-.27c-.32.09-.55.48-.87.6l-.87.6-.6-.87c-.3.04-.54.53-.87.6l-1.47-.27c-.31.09-.55.48-.87.6l-.87.6c1.26,1.26,3.35.52,4.4.82Z"/>
        <path class="cls-2" d="M88.81,512.05c.29.24.55.41.8.51-.26-.17-.51-.34-.8-.51Z"/>
        <path class="cls-2" d="M22.8,495.96h-.02s.01.02.02.03c0,0,0-.02,0-.03Z"/>
        <path class="cls-2" d="M135.54,505.56l12.42,10.66c-.45-.53-.76-1.2-1.19-1.74-2.98-3.68-5.78-9.11-11.23-8.92Z"/>
        <path class="cls-2" d="M99.72,497.16c-.46.33-.38,2.13-1.03,2.72-1.82,1.67-4.66.29-2.21,3.74,1.68,2.38,5.47,3.96,8.35,3.82l-.87.6-.87.6c-1.21.7-3.27,2.46-3.47,2.4-.49-.17-1.49-3.23-3.58-3.4-.95-.08-1.57,1.72-2.29,2.3-3.06,7.15,1.93,5.6,3.09,6.51,7.07,5.49,3.68,12.66,9.83,17.89.98-1.87,3.29-4.76,5.48-2.96.51.42-.03,1.6.05,1.71.33.42,1.53.72,2.06,1.14.52-.46,1.21-.75,1.74-1.2-.22.03-.4.02-.56-.02-.48-.1-.72-.43-.8-.9-.23-1.37.87-3.79,1.16-4.03,1.77-1.49,2.57,3.01,2.76,3.07.32.09,3.98-.98,4.11-1.43-6.46-1.05-1.92-6.4-5.7-10.15l-1.11,2.05c-3.01-1.73-4.22-5.01-6.26-7.22.16-.22.27-.42.36-.61,1.71-2.66,3.82-1.95,5.9-2.41.77-.17-.54-1.36-.27-1.93.4-.82,3.71-3.78.32-4.48-2.01-.42-4.12,7.82-6.42,1.85l-.21,5.2s-.02,0-.03-.01l-2.09-4.87c.58-.22,1.13-.92,1.74-1.19.14-.77.84-2.33.55-2.93-.11-.22-1.72-.7-2.33-2.3-.73-1.9.7-3,.67-3.28-.56-5.06-2.8-.51-4.08.08-1.26.58-3.3-.83-3.99-.33ZM105.76,510.65c-.24-.04-.32-.28-.31-.54,0-.22.08-.45.2-.59.16-.19.41-.23.68.11.23.29-.24,1.09-.57,1.03ZM109.89,523.17c1.98-3,6.51,4.74,2.53,4.64-.84-.02-3.75-2.79-2.53-4.64Z"/>
        <path class="cls-2" d="M89.55,459.09l-4.23.37,1.35,2.88c2.95,1.98,7.82,4.97,10.91,6.58.68.35,1.36.87,2.06,1.14l.87-.6-1.19-1.74-.87.6-7.1-6.63c2.84-.34,3.98.73,5.58,2.56,1.46.01,4.12.15,2.32-2.22-2.19-2.88-10.34-10.33-13.29-8.16-.46.34-.49.96-.27,1.47-.17.29-.75.33-.87.6-.18.42-.17,1-.27,1.47l.87-.6c1.56.84,3.4.49,4.12,2.29Z"/>
        <path class="cls-2" d="M137.66,555.28c-.08.46,2.56,2.04,3.25,2.87.13.16-1.11,3.63,1.91,1.27.09.02.17.02.25.02l.49.71c-3.67,2.28.02,1.12,1.38,2.45.73.72.55,2.3,1,2.83.7.83,1.92-.72,2.08-.66l1.14-2.06c-.08-.1.6-1.58-.56-2.49-1.24-.96-3.8-.61-5.21-2.06-.16-.34-.38-.73-.75-1.22,2.56-.68,3.05.47,6.41-1.84-.71-1.02-5.19.14-6.46-1.95,1.23-1.25,2.73-.72,4.24-1.12.93-.25,1.47-1.65,1.57-1.6l.27-1.47c-.9-1.01-1.5-2.43-2.39-3.48-.09-.11-1.38.12-1.79-.57-.53-.88,3.09-1.95-.6-2.91-.57.39-3.33.86-4.35,2.99,3.53.68,1.47,5.13.28,8.05-.45,1.1-2.15,2.07-2.18,2.22Z"/>
        <path class="cls-2" d="M-5.95,470.91c1.39-.32,2.01,1.04,2.66,2.01.2.29.4.58.6.87,1.82-.55,2.43,2.01,2.39,3.48l.6.87c1.64,0,1.18.28,2.06,1.14l.87-.6,2.34-.32c1.18-1.13-.4-2.59-1.19-3.7-3.63-5.1-8.64-9.96-11.94-15.42-4.08,2.84.59,4.37,1.51,6.7.52,1.31-.25,3.57.12,4.98Z"/>
        <path class="cls-2" d="M155.86,559.41l.87-.6,1.47.27c.45-.28.81-.67,1.13-1.11.35-.49.64-1.03.88-1.55-.18-1.32-1.54-4.21-2.18-6.07-.44-1.26-.67-3.12-2.15-1.2-.51.66.67,2.98.57,4.66-.13,2.19-2.03,2.33-.58,5.59Z"/>
        <path class="cls-2" d="M77.76,473.58c-.41.5-1.24.71-1.51,1.61-.05.16-.03.29-.03.43-.06.96.59,1.66.73,2.36l.87-.6,1.47.27c2.35-1.28,2.35-3.61,3.95-5.37l-5.26-3.96c-1.63.97.85,2.6,1.15,4.39.28,1.71-1.29.78-1.36.87Z"/>
        <path class="cls-2" d="M133.98,521.96l-3.85-3.73c-1.72-.05-4.6,13.26,3.85,3.73Z"/>
        <path class="cls-2" d="M137.87,570.48c-.16-.08-.29-.13-.4-.16-.53-.27-1.11-.78-1.66-.98-1.11-.4-2.6-.39-3.53-1.42l-.87.6c-1.84,6.47,1.37,3.87,5.59,2.56,1.6,2.84,6.28,3.54,8.8,1.64-2.93-4.23-4.69-1.48-7.93-2.23Z"/>
        <path class="cls-2" d="M124.02,552.94c.07-.11.1-.23.08-.37-.05-.52-.73-1.3-2.89-2.64.66.03,1.89-.48,2.34-.32.01-.5.17-.98.27-1.47.4-1.96.55-3.94,1.09-5.87-3.95.44-2.36.13-5.41-.59-3.93-.92-.24,5-.35,7.1-.99-.36-3.49.16-5.14-.62-.26-.12-.51-.27-.72-.47.1.13-.46,2.56.92,3.08.46.17,8.2-.7,8.52,3.23.08-.39.99-.59,1.29-1.06ZM120.56,545.15c.68-.48,1.05-.41,1.51.3.16.25.33.56.54.96l-.37-.07-1.45-.27-1.1-.2c.35-.31.62-.54.87-.72Z"/>
        <path class="cls-2" d="M125.45,539.34c7.44,1.85,1.92-2.7,3.42-6.18,3.53,3.43,5.54,2.7,9.67,1.04-1.67-2.94-4.51-.42-7.04-.86-6.65-1.17-5.18-6.76-5.93-6.86-.16-.02-2.81,1.21-2.19,2.37,1.09,2.06,1.1,2.82,1.69,4.36l-1.02-.36c-3.32,2.2-2.34,5.57,1.4,6.49ZM127.02,536.98l-1.03-.57-.6-.87c.07.11,2.79.27,1.62,1.44Z"/>
        <path class="cls-2" d="M113.45,538.63l-.6-.87-1.19-1.74c-1.78,1.14-1.31.36-3.48,2.39.26.71.58,1.09.94,1.26.47.21,1.02.06,1.62-.17.81-.31,1.72-.79,2.71-.86Z"/>
        <path class="cls-2" d="M153.08,570.27c3.41-.02,6.94-1.19,2.88-3.26-1.05,1.14-5.38-.7-2.88,3.26Z"/>
        <polygon class="cls-2" points="89.6 483.36 89.7 480.73 86.34 480.48 89.6 483.36"/>
        <polygon class="cls-2" points="89.81 478.11 89.7 480.73 89.7 480.73 89.81 478.11"/>
        <path class="cls-2" d="M64.73,462.06c-1.36-.22-1.07-.19-2.34.32l.91,3.2c.68-.42,2.27-1.26,3.32-1.49.32-.07.59-.09.76-.02-.47-.46-.77-1.46-1.19-1.74l-1.47-.27Z"/>
        <path class="cls-2" d="M61.03,555.43c-.05.73.36,1.11.96,1.28,1.49.43,4.2-.5,4.3-1.06.01-.07-.03-.12-.03-.19-.05-1.59-4.11-1.99-5.23-.03Z"/>
        <path class="cls-2" d="M110.02,544.82c-.95-.77-2.69-1.03-3.26-2.87l-.61.42-.24.17.22.32,3.95,5.77c.34-.24.45-.63.49-1.06.03-.43,0-.91,0-1.34,0-.19.02-.37.06-.54-.26-.26-.35-.67-.6-.87Z"/>
        <path class="cls-2" d="M120.97,510.43c2.02.45,2.09-3.78-.66-4.66-1.46,1.03-.35,4.43.66,4.66Z"/>
        <path class="cls-2" d="M70.21,542.72c.44-.51,2.09-.8,1.44-1.64-.86-2.05-1.37-.87-2.19-.31-.14.05-.29.11-.44.21-.72.18-1.61-.03-2.33.31,1.4,3.78,1.14,4.18,3.52,1.43Z"/>
        <path class="cls-2" d="M140.83,530.07l1.74-1.19c-.87-.59-1.64-3.16-3.8.05.4.58.8,1.16,1.19,1.74l.87-.6Z"/>
        <path class="cls-2" d="M117.25,538.58l-2.34.32-.87.6,1.19,1.74c1.02-.27,2.98-1.92,2.01-2.66Z"/>
        <path class="cls-2" d="M127.89,546.62l-2.33.32,1.78,2.61c.95-.54,1.46-.88,1.14-2.06-.08-.31-.48-.54-.6-.87Z"/>
        <path class="cls-2" d="M83.29,449.96c-2.38-1.46-3.45,1.13-1.7,3.08.21-.91,2.2-2.78,1.7-3.08Z"/>
        <path class="cls-2" d="M144.91,538.79l.15,1.17.6.87c2.04-2.2,2.68-3.57-.74-2.04Z"/>
        <path class="cls-2" d="M115,481.27c-.17-1.49-3.47-2.08-3.51-1.43.17,1.49,3.47,2.08,3.51,1.43Z"/>
        <path class="cls-2" d="M66.39,542.78c-2.05-3.91-3.77-2.74-.85.58l.85-.58Z"/>
        <path class="cls-2" d="M133.49,549.19c-1.65.21-1.94,2.14-1.15,2.04,1.65-.21,1.94-2.14,1.15-2.04Z"/>
        <path class="cls-2" d="M151.2,560.06c.21,1.65,2.14,1.94,2.04,1.15-.21-1.65-2.14-1.94-2.04-1.15Z"/>
        <path class="cls-2" d="M59.68,557.45l-1.27-.24c.31.3.94.22,1.27.24Z"/>
        <path class="cls-2" d="M59.68,557.45l.19.04s-.1-.03-.19-.04Z"/>
        <path class="cls-2" d="M66.65,539.41c.68.37.97.17.87-.6l-.87.6Z"/>
        <path class="cls-2" d="M121.36,561.34c.83.25,5.6,1.23,5.87,1.09-.85-1.32-4.04-6.5-4.46-8.07,0-.02-.02-.05-.02-.07-.03-.12-.04-.22-.03-.28,0,.12-.75,1.16-1.14,2.06-.98,2.25-4,4.13-.22,5.27Z"/>
        <path class="cls-2" d="M113.38,555.3c-.23.47-.24.86-.15,1.23.18.72.79,1.31,1.07,1.98,3.62-1.8,3.12-3.53-.92-3.21Z"/>
        <path class="cls-2" d="M131.68,567.05c.55.1,1.62-.04,2.38-.31.46-.16.8-.37.83-.61.04-.3,0-.57-.08-.82-.06-.2-.15-.38-.26-.54-.12-.16-.26-.3-.41-.42-.06-.04-.12-.09-.18-.13-1.28-.79-3.3-.19-2.28,2.83Z"/>
        <path class="cls-2" d="M128.36,560.37c-.5-.2-.82,1.88-1.13,2.06.57.88,1.2,1.74,1.8,2.6,1.07.56.45-3.75-.66-4.65Z"/>
        <path class="cls-2" d="M127.69,557.62c.14.32.45.72.96,1.28l.32-1.72.22-1.2c-1.31.66-1.76,1.01-1.5,1.64Z"/>
        <path class="cls-2" d="M107.31,539c-.49.65-1.47.98-1.14,2.06.49-.64,1.43-.98,1.14-2.06Z"/>
        <path class="cls-2" d="M355.69,788.15c.1.16.27.39.48.65l-.48-.65Z"/>
        <path class="cls-2" d="M247.78,924.6c-14.34,6.93-28.79,13.66-43.25,20.33,14.2-6,29.76-13.34,43.25-20.33Z"/>
        <path class="cls-2" d="M401.35,699.08c-9.67-7.61-20.6-13.37-30.81-20.16-.31-.2-.24-.95-.55-1.16-6.32-2.08-12.09-6.44-17.57-10.11-.31-.2-.24-.95-.55-1.16-6.46-1.85-11.93-6.78-17.57-10.11-.3-.18-.24-.97-.55-1.16-4.21-2.65-5.64-1.91-9.76.37-.37.21-.79.34-1.16.55l-.34.28c-.68.62-2.14,2.11-3.75,3.08-.36.22-.8.32-1.16.55-.1,2.35-3.42,2.96-5.24,3.91-.35.24-.81.31-1.16.55l-3.23,2.66c-.31.27-.6.52-.85.7-.34.25-.82.3-1.16.55-1.23,2.89-4.51,4.52-7.01,6.16l-2.73,6.25,5.46-.47c-.96,1.04-5.73,5.24-5.83,5.64-.08.32,4.97,2,3.9,5.23-4.99,2.87-12.04,5.19-12.86,11.77l15.18-12.87c-.4.24-.84.42-1.27.6l1.27-.6c5.05-3,14.62-9.75,18.94-11.51,1.44-.59,9-2.4,10.29-2.34,2.41.11,4.26,3.38,6.14,3.78.99.21,9.92-1.89,13.04-1.55,2.06.23,2.29.85,3.42,1.22.28.09.26,1.04.55,1.16,1.37.54,3.77.07,5.12,1.83l.55,1.16c.73-.19,1.82-1.19,2.29-1.06.55.16,8.18,6.09,9.06,7.02,1.47,1.56,2.39,1.93,2.18,4.63,5.05-3.38,3.57.18,5.69,2.98.55.72,2.51.86,3.03,3.28.17.8-1.32,1.52-1.37,2.15-.13,1.56,1.07,2.89,1.03,3.24-.07.59-2.4-.25-2.86-.07-.27.2-.5.36-.72.49.14-.22.38-.36.72-.49-.42-.49-1.08-.76-1.71-.61l-.49-4.02c-1.24.09-3.83.54-4.02.49-.87-.2-2.12-2.9-3.4-2.68-5.21.89-1.15,2.31-.07,4.33,1.15-.55,2.74-.54,4.02-.49l.55,1.16.55,1.16.55,1.16c-1.28,1.15-.85,2.75-1.22,3.42-2.81,5.05-.82,3.4-1.14,4.5-.81,2.69-5.19,5.43-2.01,9.78-1.7,1.04-9.8,7.96-10.49,7.8.95-4.45-2.06-7.71,3.62-8.79l-3.99-.95c-2.55,3.31-5.15,6.68-6.52,10.19-.07.19,1,1.23.64,2.18-.26.68-1.19.93-1.92,1.29-.24.54-.49,1.06-.75,1.53.12.35.33.75.76,1.28,4.84-3.08,7.47-5.55,13.33-3.54,3.35,1.15,3.13,4.9,7.4-.62-6.31,1.09-2.32-7.54-.43-6.88l1.65,3.47c2.37-3.13,3.89-5.44,8.17-6.7-.37,4.36-2.08,12.98-5.27,15.95-1.18,1.1-7.96,4.08-8.91,3.53-.46-.26-.37-2.47-.53-2.49-3.47-.44-15.1,7.92-16.18,7.55-.78-.27-2.91-6.14-3.87-6.64-2.92-1.54-1.95,2.77-4.05,3.33-1.13.3-2.53-1.42-2.9-1.46-2.99-.32-4.16,1.82-4.94,4.47,2.92,1.65,5.49,1.34,8.31-.39,2.42,3.44.98,3.56-1.29,6.28.48.3.75.57.85.82,1.43.74,3-1.27,3.14-1.17.8.57,1.17,3.09,1.69,3.29,2.03.77,6.31-5.46,7.92-6.33,2.02-1.08,3.38.9,3.65.87.56-.33,1.01-.55,1.41-.72,1.64-1.33,3.3-3.86,5.81-1.99-.98,1.42-3.53,3.68-4.96,4.48-6.56,3.64-7.73,5.96-11.64,8.36.33-.5.45-.96.4-1.39-.33-3-8.65-4.46-10.04-3.97-1.09.39-2.56,3.01-2.91,2.8-.33-.19-2.68-5.64-3.31-6.94l-1.58.75c.06,1.65.06,2.36-.07,2.65-.23.49-.89-.34-2.43-.04-8.53,1.66-3.59,2.97-4.72,5.08-.13.25-3.75-.44-5.71-.13l-3.9-5.25c.04-.71,8.03-1.46,8.4-1.68,2.5-1.46.84-5.07,8.3-1.99l1.16-.55c-.18-.39-.36-.78-.55-1.16-.5-.97,1.17-4.73-3.36-4.08-2.6,2.21-3.32,2.11-5.79,2.75-2.17.56-5.26.18-7.63,1.12-2.29.91-4.22,3.7-6.13,3.93-2.25.27-3.89-5.21-8.68-2.84-.94.46.24,1.71.51,2.28.04.09.07.17.05.23-.45,1.13-1.91,2.1-2.92,2.81-.27-.49-.88-2.27-1.09-2.32-.46-.09-7.69,3.34-8.52,4.04-.88.73.57,2.59-.22,2.99-2.3,1.14-3.34-.95-4.01-.98-.59-.02-2.03,1.57-3.3,1.31-1.11-.23-2.31-2.75-4.13-3.45-2.46-.96-9.54-.97-11.47,1.17-1.18-1.83,2.61-3.06,2.08-4.51-.5-1.39-4.9-2.04-6.34-2.51-.82-.27-1.17-1.66-1.3-1.69,4.21-1.02.73-2.88.67-4.57-1.87-.21-3.46-.26-3.97-2.38-.4.13-.76.45-1.16.55-3.35.93-2.02,1.86-.67,4.57.84.49,3.37-.14,3.97,2.37-2.36.18-10.6,5.59-11.03,6.67-1.4,3.52,7.85-.41,10.68,1.76,6.16,4.72,1.54,4.72-1.71,8.16-1.64.78-6.61,1.31-8.05.98-.28.52-.34,1.2-.61,1.71-.24.45-.18,1.34-.61,1.71-4.16,3.65-14.3,8.84-14.33-.29-1.85-1.28-3.65-4.33-5.1-1.81-.08.15.94,1.55.59,2.11-.62,1.01-1.77,1.14-1.84,1.29-.73,1.48-.94,1.59-1.22,3.42-.07.44-1.41.59-.37,2.3.87,1.43,2.19-2.66,2.56,2.33.36,4.76.63,1.25,2.02,2.18,2.35,1.57,1.24,3,1.28,4.77l.27.58c.16.23.33.43.28.58-1.03,2.97-3.78,3.06-6.4,4.44-1.98-.37,3.95-4.74,4.7-5.05l-.55-1.16c-.49-.59-.75-2.2-1.12-2.32-.49-.16-5.75,5.78-8.7,5.55-1.02-2.75,3.25-3.88,3.54-4.53.19-.44-1.91-1.23-2.26-1.73l-6.99,6.18c-.19.74,4.21,3.48,4.5,3.51.57.07,5.48-2.67,5.16.39-.25,2.45-3.62,1.81-5.77,1.32-1.66,1.76-4.85,6.83-5.27,6.76-.38-.07-4.71-5.81-4.48.71.03.85,1.64,1.94,1.52,2.1-.68.94-4.47.11-4.99,1.05-.48.86-.04,9.46-.43,11.45,14.75-8.62,29.68-18.82,45.3-25.81,8.97-4.01,47.45-18.55,55.33-18.62,1.12-.01,8.83,3.57,11.58,3.78,5.64.42,4.29-3.2,5.15-3.63.65-.32,4.13,2.46,5.66,2.97,1.65.55,4.52.07,5.14.36,2.29,1.1,8.78,8.21,9.51,11.1l-6.81-2.43c6.4,5.7.31,3.96-.22,7.14-.22,1.32,1.23,7.12-.14,10.05,3.51-1.3,5.68.62,3.38,2.65-.92.82-1.21-2.11-2.16-1.73-.42.17-1.34,1.96-2.44,2.49-3.66,1.76-3.39-.58-5.12-1.83-2.98.95-4.16,4.13-5.3,6.77l-3.47,1.65c.34-1.62-1.06-5.24.73-7.44-2.72-3.9-5.03-7.43-10.96-5.92-2.24.57-12.93,7.63-14.35,9.42l1.1,2.32c-1.67.99-.17,4.14,1.65,3.47.67,2.93.02,5.17-.42,8.02l1.4.03c-1.13.41-3.61,3.59-6.43,3.96-.54.07-1.1.07-1.66-.11.14.17.28.32.43.45l2.37,2.48c-.63.24-2.08.82-2.32,1.1-.04.89-.18,1.54-.41,1.96.16-.98.28-1.79.41-1.96-6.33,2.36-.59-2.26-2.2-4.63,4.4-4.07,5-6.96,5.42-12.51-1.58,1.89-7.14.55-7.47.74-1.19.68,1.25,7.33-3.07,9.94-.13.08-2.01-.95-2.86-.06,1.24,2.17,1.98,4.87,3.29,6.95.87-.44,1.6-.6,2.18-.55.98.08,1.51.75,1.51,1.59,0,1.33-1.35,3.08-4.35,3.54-.86-.89-1.32-3.42-2.2-4.63-3.87.43-3.79,2.87-4.69,5.06-.55,0-1.47-.68-1.71-.61-1.56.5-3.06,1.62-4.63,2.2.61,2.91,2.75,1.93,5.12,1.83-.87,1.92-1,3.11-3.53,4.52-1.7.94-6.39,1.89-8.66,2.69-.4.14-.76.41-1.16.55-.8.28-1.52.81-2.32,1.1-3.56,1.32-4.15-1.59-4.14,6.22-2.38-.34-3.36,1.49-4.63,2.2-5.99,3.33-4.43.16-1.65-3.47.68-.89,2.63-1.3,2.63-3.38l-3.83-2.7-.37-.26c.23.06.43.06.65.1,4.51.85,7.46-2.6,10.61-3.43,6.14-1.63,5.52,3.31,10.13-5.4.65-1.23,2.52-5.03,1.82-5.11-.8.2-1.67,1.02-2.31,1.08-5.18.54-4.8-2.07-12.62.31,2.01,2.55-1,3.01-3.53,4.52-1.46.86-3.17,1.37-4.63,2.21l2.26,1.74-4.64,3.66-1.09-3.75c-.52-.11-6.82,4.15-7.56,4.99,1.92,2.31,5.51,9.79,7.87,7.64,1.22,1.33-.97,1.74-1.21,3.39-2.53,1-7.48,4.75-10.09,2.64-2.45-1.99,3.43-3.05,4.32-6.2.8-2.83-1.95-3.54-2.1-4.05l-4.64,3.66c-.27.45-.36.95-.05,1.41.1.15,1.35-.02,1.71.58-6.66,2.28-3.62,8.14-9.45,13.03-.3.25-.79.3-1.16.55-2.32,1.55-2.39,1.29-4.63,2.2-3.01,1.22-11.23,4.44-13.74,4.83-3.05.47-4.09-3.11-6.44.49.41.39.66.78.82,1.19,1.64.99,5.1.99,4.23,3.5-.47,1.38-7.02-1.12-7,6.17,0,.79,1.38,2.37,1.64,3.48-2.58.3-3.52-.52-2.8-2.93l-1.45-1.76c-.11-.04-.23-.1-.35-.19-.93,1.99-8.72,6.07-9.16,5.74-3.14-2.36.26-3.65.1-5.63-.08,0-.18-.01-.25-.02-5.4,1.12-2.84,6.6-8.51,8.34-.14-.38-3.21-.36-1.1-2.32.53-.49,2.21-.72,2.31-1.1.98-3.79-7.44-.72-9.75.38,1.63.84,2.84.74,4.57.67,2.82,3.99-2.11,2.18-5.24,3.91-.33.18-1.19,2.71-2.92,2.82-.08.22,3.46,2.24,3.96,2.36-.12,2.31-4.16,4.19-5.46,5.21-.2.16-.35.3-.39.41.16-.49-.79-2.69-.49-4.02.06-.27.11-.48.15-.7,0-.89-.93-1.21-2.05-1.29-1.27-.09-2.74.14-3.23.16-.68.04-1.92,1.65-2.61.53-1.45-2.19-.4-1.86,1.51-2.84.72-.37,1.62-.91,2.32-1.1.7-1.35,1.75-2.59,2.38-3.97.25-.56.6-1.06.61-1.71l-.55-1.16c-1.93,1.38-6.3,5.73-7.01,6.16-1.76,1.09-4.33,1.11-6.34,1.59-1.9,6.37,2.01,9.85,4.83,16.16,1.21,2.71,2.49,5.47,3.85,8.11,4.25,2.55,4.04,7.86,7.94,11.47,1.54,1.43,26.22,14.1,27.76,13.92,22.52-11.6,47.97-20.74,69.97-32.98.37-.21.79-.33,1.16-.55l2.92-2.81c.35-.24.81-.31,1.16-.55l1.77-2.26c.33-.26.84-.29,1.16-.55l2.28-2.19c.25-.25.47-.48.65-.62.32-.26.84-.29,1.16-.55.83-3.04,3.64-3.99,5.85-5.61.34-.25.83-.3,1.16-.55l2.92-2.81c.33-.26.83-.29,1.16-.55l1.77-2.26c.32-.26.84-.29,1.16-.55l2.26-2.17c.25-.26.49-.49.66-.64.32-.26.84-.29,1.16-.55.83-3.04,3.64-3.99,5.85-5.61.34-.25.83-.3,1.16-.55l2.92-2.81c.33-.26.84-.29,1.16-.55l1.77-2.26c.32-.26.84-.29,1.16-.55l2.3-2.21c.23-.24.45-.45.62-.6.32-.27.85-.28,1.16-.55l1.77-2.26c.31-.27.84-.28,1.16-.55l2.2-2.11c.28-.29.54-.54.73-.7.32-.26.84-.29,1.16-.55.83-3.04,3.64-3.99,5.85-5.61.34-.25.83-.3,1.16-.55l2.92-2.81c.33-.26.83-.29,1.16-.55l1.77-2.26c.32-.26.84-.28,1.16-.55l2.26-2.17c.26-.26.49-.49.66-.64.32-.26.84-.29,1.16-.55.83-3.04,3.64-3.99,5.85-5.61.34-.25.83-.3,1.16-.55l2.92-2.81c.33-.26.83-.29,1.16-.55l1.77-2.26c.32-.26.84-.29,1.16-.55l2.26-2.17c.26-.26.49-.49.67-.64.32-.26.84-.29,1.16-.55.83-3.03,3.63-4,5.85-5.61.34-.25.82-.3,1.16-.55.83-3.04,3.64-3.99,5.85-5.61.34-.25.83-.3,1.16-.55l2.92-2.81c.32-.26.85-.28,1.16-.55l1.77-2.26c.3-.29.9-.27,1.16-.55.43-2.84-1.06-5.06-2.14-7.5-.34-.78-.7-1.57-1.1-2.32-2.35-.1-2.96-3.42-3.91-5.24-.44-.72-.65-1.61-1.1-2.32-2.57-.34-3.36-4.24-4.46-6.4-.39-.76-.68-1.58-1.1-2.32-2.35-.1-2.96-3.42-3.91-5.24-.43-.73-.66-1.6-1.1-2.32-2.35-.1-2.96-3.42-3.91-5.24-.43-.67-.77-1.57-1.1-2.32l-1.43-.04.33-2.27c.79-.26,1.56-.91,2.32-1.1,1.89-.81,4.46-3,6.34-1.59.37-.2.82-.32,1.16-.55.65-2.46,2.53-4.36,4.14-6.22.26-.3.91-.25,1.16-.55,1.43-5.55,6.18-10.11,10.6-13.55.33-.26.82-.3,1.16-.55.1-2.35,3.42-2.96,5.24-3.91.34-.25.82-.3,1.16-.55.1-2.35,3.42-2.96,5.24-3.91.66-.47,1.67-.62,2.32-1.1l4.08-3.36c.63-.49,1.79-.62,2.32-1.1,1.16-1.74,2.14-2.19,2.57-4.45.7-3.63,3.75-32.82,3.06-34.4ZM173.87,901.41c-.54.08-1.21.62-1.87.92-.15.07-.3.14-.45.17l-.26-.56-.83-1.76c1.28-.84,2.8,1.21,3.4,1.22ZM177.23,904.08c-1.37.85-1.89-.31-2.26-.36.29-.34.35-1.03.48-1.44.04-.09.09-.16.13-.27.18-.17.91-.52,1.16-.55l.55,1.16c-.03.07.68,1-.06,1.46ZM197.93,898.43c-.15.56-7.66,7.9-8.17,8.18-3.04,1.64-7.54.4-9.76,4.67-1.05-1.38-.71-2.51-.5-4.02l4.63-2.21-2.25-1.76c2.41-2.04,5.55-2.54,7.82-4.35,1.39-1.11,3.46-5.24,3.87-5.42,1.51-.66,4.71,3.65,4.37,4.9ZM318.33,820.06c-.74-1.35.93-2.47,1.22-3.4l2.87.06c-1.22,1.39-2.11,2.83-4.09,3.35ZM363.69,816.98c-2.26,1.48-2.58,1.37-3.4-1.21l3.4,1.21ZM336.47,759.63s0,.07,0,.1c-.11-.08-.21-.15-.31-.23.17.04.29.09.3.14ZM328.66,764.1c-.17,3.16-.69,5.93-3.81,3.92l3.81-3.92ZM273.04,760.27c.02.13.05.24.04.38-.02.67-1.09.52-1.74-.29-.29-.37-.51-.85-.49-1.48.03-.91,1.97-.33,2.19,1.38ZM342.92,767.25s-.07.14-.09.26l-.51,1.44c-2.54,2.45-4.69,5.43-8.17,6.71-.29-.54-1.86-.89-1.94-1.23-.06-.29,1.62-5.37,1.81-5.59,1.34-1.52,3.93.7,4.95-2.59.2-.63-1.18-.77-1.17-.84.41-4.38,3.43-4.38,7-6.16l1.04,5.17c-.8.63-2.07,1.97-2.92,2.81ZM341.33,817.68c.03-.98,2.29-.26,2.23,1.77-.03.98-2.29.26-2.23-1.77ZM347.16,810.59c-.57.23-4.66-2.41-4.76-2.66-.47-1.2,4.89-6.45,5.55-6.16,2.41,1.06,1.59,7.87-.79,8.82ZM350.44,792.05c-2.26,1.48-2.58,1.37-3.4-1.21l3.4,1.21ZM373.07,723.14c-2.88-3.32,3.22-5.28,5.79-2.75-2.88,2.23-4.96,2.21-5.79,2.75ZM379.9,713.53l-3.78,1.06,1.83-5.12,1.16-.55c.96,1.88,4.21,4.15,4.46,6.4l-3.66-1.79Z"/>
        <path class="cls-2" d="M199,822.79c3.08-1.53,3.09-3.63,1.26-6.28-.23-.13-1.42,1.67-1.76,2.25-.22.38-.09,1.27-.61,1.71.04.39.47.75.55,1.16l.55,1.16Z"/>
        <path class="cls-2" d="M198.54,788.95l.55,1.16c1.75-1.27,1.26-3.92,1.83-5.12,1.23-2.62,7.25-15.71,7.79-16.47,1.77-2.46,11.73-5.87,11.16-12.38-5.55,1.07-7.97,7.2-11.66,9.79-3.12,2.19-1.05-1.99-1.68-2.04-2.2-.18-1.68,2.15-1.78,2.25-.26.28-.84.27-1.16.55-.26.23-.35.81-.44,1.23l-.17.48c-1.12.65-2.74.6-4.02.49-.08,3.55-.66,7.05-.78,10.31-.01.38.56.78.55,1.16l-.61,1.71c.04.39.47.75.55,1.16l.55,1.16-1.16.55c-.01.37.54.75.55,1.16l-.61,1.71c.04.39.47.75.55,1.16Z"/>
        <path class="cls-2" d="M286.49,759.48c-.26.28-.51.54-.77.86.35-.3.59-.58.77-.86Z"/>
        <path class="cls-2" d="M253.76,836.52s.02-.01.03-.01c-.01,0-.02,0-.03-.01v.03Z"/>
        <path class="cls-2" d="M161.36,903.8s-.01.06-.02.09c0,.01,0,.02,0,.03,0-.04.01-.08.02-.12Z"/>
        <path class="cls-2" d="M336.89,697.74c-.15.09-.12,1.68-1.03,2.04-1.16.46-1.75-4.08-3.6.16.35.76.4,4.16,2.76,5.8,1.49-4.11,6.44-.78,9.71,1.21,1.23.75,2.07,2.98,2.25,3.04.53.19,2.94-2.68,4.07-3.36.21-.13,4.15,2.03,1.89-2.05.05-.11.06-.2.08-.3l.95-.45c2.04,4.84,1.34.19,3.2-1.18,1-.74,2.87-.22,3.59-.66,1.13-.69-.49-2.45-.39-2.63l-2.26-1.77c-.13.08-1.78-1.03-3.09.19-1.39,1.3-1.46,4.44-3.47,5.85-.44.13-.95.32-1.61.67-.32-3.2,1.15-3.57-.98-8.05-1.36.66-.83,6.25-3.58,7.38-1.27-1.72-.34-3.41-.54-5.31-.12-1.17-1.7-2.08-1.62-2.19l-1.71-.61c-1.38.89-3.2,1.34-4.63,2.2Z"/>
        <path class="cls-2" d="M224.65,854.52c-6.82,3.38-13.62,8.46-20.8,11.38,2.63,5.44,5.35.13,8.33-.52,1.67-.37,4.24.98,6,.81-.12-1.74,1.64-2.22,2.92-2.81.39-.18.77-.37,1.16-.55-.31-2.29,2.88-2.54,4.63-2.2l1.16-.55c.32-1.97.56-1.36,1.77-2.26l-.55-1.16.06-2.87c-1.14-1.64-3.19-.02-4.67.72Z"/>
        <path class="cls-2" d="M310.09,718.98c-.06.19.91,3.6,2.43,3.08,2.68-.92,3.59-.78,5.55-1.2l-.62,1.16c2.01,4.4,6.23,3.88,8.06-.43,3.64-8.58-2.87-2.83-6.76-5.29,4.79-3.58,4.3-6.13,3.1-11.41-3.85,1.44-1.36,5.33-2.38,8.28-2.68,7.76-9.1,4.92-9.37,5.81ZM322.97,719.25l-.88,1.12-1.16.55c.15-.06.85-3.29,2.04-1.67Z"/>
        <path class="cls-2" d="M290.1,727.73c-.06-.96-1.74.39-2.37-.05-.91-.64-3.83-5.18-5.32-1.24-.88,2.33,8.6,6.45.98,8.05l6.2,1.25s-.01.02-.02.03l-6.25,1.57c-.15-.74-.88-1.53-1.1-2.32-.9-.32-2.64-1.45-3.42-1.22-.28.09-1.17,1.93-3.21,2.36-2.42.52-3.46-1.42-3.81-1.43-6.18-.29-1.15,3.27-.68,4.91.46,1.62-1.63,3.8-1.16,4.72.31.61,2.48.87,3.07,1.76,1.66,2.51-.55,5.65,4.06,3.37,3.18-1.57,5.8-5.81,6.19-9.3l.55,1.16.55,1.16c.61,1.58,2.33,4.4,2.21,4.63-.29.56-4.16,1.17-4.76,3.65-.27,1.12,1.77,2.21,2.32,3.19,8,5.04,7.1-1.24,8.4-2.46,7.95-7.44,15.9-1.98,23.36-8.37-2.05-1.53-5.09-4.86-2.5-7.14.61-.53,1.92.35,2.06.27.57-.31,1.15-1.7,1.77-2.26-.45-.71-.67-1.59-1.11-2.32,0,.27-.06.48-.13.67-.21.55-.66.78-1.23.79-1.69.02-4.38-1.77-4.62-2.16-1.45-2.41,4.1-2.5,4.21-2.73.17-.36-.41-4.96-.92-5.21-2.49,7.56-8.05,1.07-13.28,4.9l2.25,1.73c-2.66,3.28-6.82,4.11-9.86,6.13-.24-.24-.46-.4-.67-.55-2.87-2.56-1.61-4.96-1.76-7.54ZM309.17,735.01c-.19,1-4.06,3.97-6.05,2.15-3.22-2.95,6.93-6.91,6.05-2.15ZM287.29,739.73c-.1.27-.4.33-.71.27-.26-.05-.52-.18-.67-.36-.2-.23-.2-.54.26-.79.39-.22,1.27.5,1.13.88Z"/>
        <path class="cls-2" d="M335.64,730.97c-.63,1.11-.48,4.22-1.73,6.06-.2.29-.43.56-.71.78.03,0,.05,0,.08,0,.49.06,2.96.93,3.8-.52.3-.51.73-9.97,5.51-9.61-.46-.17-.51-1.3-1.03-1.75-.12-.1-.26-.16-.43-.17-.63-.04-1.7.63-3.72,2.97.17-.79-.21-2.36.06-2.87-.6-.11-1.14-.4-1.71-.61-2.27-.85-4.62-1.42-6.83-2.43-.23,4.82-.3,2.85-1.74,6.38-1.86,4.55,5.96,1.25,8.46,1.79ZM333.45,726.35l-.15.43-.6,1.69-.46,1.28c-.31-.48-.53-.85-.7-1.18-.45-.91-.29-1.34.65-1.76.33-.15.73-.29,1.26-.46Z"/>
        <path class="cls-2" d="M175.99,881.96c-1.88,3.05-1.58,4.14-.73,7.43,2.33-1.4,2.86-2.55,5.79-2.74l.91-.43.25-.12c.26-.53.33-1.17.61-1.71.25-.49.26-1.25.61-1.71.45-.6,1.37-1.85,1.77-2.26,1.4-1.45,5.42-.68,2.01-4.29-4.51-4.77-6.37.88-8.29,3.02-.82.92-2.62,2.31-2.92,2.81Z"/>
        <path class="cls-2" d="M354.37,684.51c-.52-.52-1.11-.97-1.69-1.36-1.62-.04-5.35,1.04-7.71,1.46-1.6.28-3.87.2-1.85,2.35.69.74,3.71-.23,5.7.21,2.6.58,2.41,2.88,6.6,1.77l-.55-1.16.61-1.71c-.25-.59-.65-1.1-1.12-1.57Z"/>
        <path class="cls-2" d="M236.92,759.42l-5.76,5.55c.85,2.14,3.29-.52,5.49-.53,2.11-.01.69,1.7.78,1.8.52.59.62,1.62,1.65,2.12.18.09.34.09.51.12,1.14.26,2.11-.39,2.97-.42l-.55-1.16.61-1.71c-1.09-3.06-3.89-3.52-5.69-5.78Z"/>
        <path class="cls-2" d="M306.28,708.02l-5.22,3.9c-.38,2.05,15.04,8.06,5.22-3.9Z"/>
        <path class="cls-2" d="M365.26,712.65c-.13.17-.22.32-.27.45-.43.58-1.15,1.19-1.49,1.81-.7,1.25-.96,3.04-2.38,3.97l.55,1.16c7.41,3.45,4.91-.9,4.14-6.22,3.72-1.38,5.46-6.86,3.65-10.25-5.64,2.71-2.68,5.34-4.2,9.09Z"/>
        <path class="cls-2" d="M167.17,892.35c.56-3.71,8.12-4.82,5.35-8.74-2.31,1.47-4.21,2.92-6.4,4.46-.38,3.1-1.85,3.7,1.04,5.18,0-.19-.01-.37-.02-.55,0-.12.01-.23.03-.34Z"/>
        <path class="cls-2" d="M322.87,739.27c-.22-1.03-.62-2.21-.52-3.41l-1.16.55-2.32,1.1c1.02,2.36.19,1.64,2.2,4.63.91-.18,1.42-.48,1.69-.89.34-.52.27-1.21.1-1.98Z"/>
        <path class="cls-2" d="M367.93,694.36c.63-4.1-.1-8.56-3.36-4.08,1.16,1.48-1.87,6.32,3.36,4.08Z"/>
        <polygon class="cls-2" points="251.44 753.89 248.3 753.26 247.36 757.25 251.44 753.89"/>
        <polygon class="cls-2" points="245.18 752.64 248.3 753.26 248.3 753.26 245.18 752.64"/>
        <path class="cls-2" d="M221.71,777.95l-.61,1.71c-.53,1.59-.43,1.25-.06,2.87l4.01-.48c-.38-.89-1.08-2.97-1.15-4.27-.02-.39,0-.72.12-.92-.64.48-1.9.64-2.32,1.1Z"/>
        <path class="cls-2" d="M333.74,795.74c-.08-.03-.15,0-.23,0-1.91-.25-3.17,4.55-1.04,6.27.86.2,1.4-.22,1.72-.9.8-1.71.2-5.14-.45-5.36Z"/>
        <path class="cls-2" d="M325.44,745.34l.15.32.42-.2,7.69-3.63c-.22-.46-.66-.66-1.18-.79-.51-.12-1.09-.16-1.61-.26-.23-.04-.44-.09-.63-.17-.36.26-.88.3-1.16.55-1.1,1-1.76,3.03-4.07,3.37l.38.81Z"/>
        <path class="cls-2" d="M284.23,721.33c.95,1.95,5.25,1.27,5.72.1.93-2.34-4.13-3.23-5.72-.1Z"/>
        <path class="cls-2" d="M316.59,792.5c4.81-.95,5.24-.57,2.39-3.96-.52-.62-.56-2.66-1.69-2.04-2.63.63-1.3,1.48-.79,2.57.03.18.08.37.17.57.08.9-.34,1.92-.07,2.86Z"/>
        <path class="cls-2" d="M317.32,701.35l-1.1-2.32c-.88.94-4.1,1.36-.67,4.57.77-.37,1.54-.73,2.32-1.1l-.55-1.16Z"/>
        <path class="cls-2" d="M323.02,731.28l-.06,2.87.55,1.16,2.32-1.1c-.12-1.28-1.73-3.94-2.81-2.92Z"/>
        <path class="cls-2" d="M335.87,719.51c-.38.04-.74.47-1.16.55l-.06,2.85,3.48-1.64c-.47-1.24-.78-1.92-2.26-1.77Z"/>
        <path class="cls-2" d="M213.51,757.7c-1.05-.43-2.91-3.17-3.37-2.64-2.21,2.58.7,4.36,3.37,2.64Z"/>
        <path class="cls-2" d="M195.67,872.6l-.54-1.13c-2.85,1.21-4.38,1.18-2.36,3.95l2.9-2.81Z"/>
        <path class="cls-2" d="M331.16,697.62c-2.24-2.87-3.77-3.9-2.59.5l1.43.05,1.16-.55Z"/>
        <path class="cls-2" d="M253.8,723c-1.82-.08-3.16,3.77-2.38,3.94,1.82.08,3.16-3.77,2.38-3.94Z"/>
        <path class="cls-2" d="M318.85,794.27l-.54-1.13c-5.09,1.71-4.01,4,.54,1.13Z"/>
        <path class="cls-2" d="M338.87,713.83c-.06,2.02,2.2,2.74,2.23,1.77.06-2.02-2.2-2.74-2.23-1.77Z"/>
        <path class="cls-2" d="M355.31,694.66c2.02.06,2.74-2.2,1.77-2.23-2.02-.06-2.74,2.2-1.77,2.23Z"/>
        <path class="cls-2" d="M334.64,804l.08-.22s-.06.12-.08.22Z"/>
        <path class="cls-2" d="M334.64,804l-.53,1.48c.41-.31.45-1.09.53-1.48Z"/>
        <path class="cls-2" d="M313.77,791.02l.55,1.16c.57-.74.39-1.13-.55-1.16Z"/>
        <path class="cls-2" d="M217.05,753.2c.31.26.26.97.55,1.16.46.3,1.17.4,1.71.61l-.55-1.16c1.31-1.71,1.24-3.99,3.54-4.5l-.37,5.14,3.72-1.07c2.94-3.16,7.46-8.43,9.99-11.84.56-.75,1.3-1.47,1.77-2.26l-.55-1.16-2.32,1.1.55,1.16-9.32,7.25c.13-3.47,1.64-4.64,4.14-6.21.29-1.75.97-4.92-2.22-3.22-3.88,2.07-14.38,10.44-12.34,14.39.32.62,1.05.77,1.71.61Z"/>
        <path class="cls-2" d="M351.13,730.71c.46-.95,2.55-6.49,2.43-6.83-1.75.77-8.58,3.61-10.54,3.8-.03,0-.07,0-.09.01-.14,0-.27,0-.34-.02.14.01,1.25,1.13,2.26,1.77,2.51,1.6,4.19,5.59,6.28,1.28Z"/>
        <path class="cls-2" d="M342.35,739.14c.52.37.99.45,1.44.41.9-.08,1.72-.7,2.58-.91-1.47-4.7-3.64-4.43-4.02.49Z"/>
        <path class="cls-2" d="M359.47,715.4c-.35-.1-.69-.11-1-.07-.25.03-.49.1-.7.21-.22.11-.41.25-.58.41-.06.06-.13.13-.19.19-1.2,1.38-.85,3.92,2.96,3.28.22-.64.26-1.96.08-2.91-.11-.58-.3-1.03-.58-1.11Z"/>
        <path class="cls-2" d="M351.31,722.13c-.34.56,2.1,1.34,2.25,1.76,1.17-.51,2.32-1.1,3.46-1.66.88-1.17-4.41-1.26-5.71-.1Z"/>
        <path class="cls-2" d="M347.87,722.4c.42-.1.95-.4,1.72-.9l-2-.71-1.39-.5c.54,1.7.87,2.31,1.68,2.12Z"/>
        <path class="cls-2" d="M187.08,889.57c-.15.25-.22.5-.21.72,0,.27.13.48.42.49,1.14.03,1.84-.66,2.09-1.29.08-.2.12-.39.1-.54-.03-.23-.17-.39-.42-.4-.98-.03-1.64.48-1.97,1.03Z"/>
        <path class="cls-2" d="M160.15,899.41c.49.03,1.13.53,1.71.61.03-.19,1.26-.46,1.85-.81.16-.1.29-.2.31-.31.02-.09.01-.17.02-.26.15-2.61-7.18-2.72-3.89.77Z"/>
        <path class="cls-2" d="M323.88,745.07c-.68-.72-.9-1.9-2.26-1.77.68.72.9,1.95,2.26,1.77Z"/>
      </g>
    </g>
  </g>
</svg>