<?xml version="1.0" encoding="UTF-8"?>
<svg id="_레이어_2" data-name="레이어 2" xmlns="http://www.w3.org/2000/svg" xmlns:xlink="http://www.w3.org/1999/xlink" viewBox="0 0 399 1000">
  <defs>
    <style>
      .cls-1 {
        fill: none;
      }

      .cls-2 {
        fill: #e6e7e8;
      }

      .cls-3 {
        clip-path: url(#clippath);
      }
    </style>
    <clipPath id="clippath">
      <rect class="cls-1" width="399" height="1000"/>
    </clipPath>
  </defs>
  <g id="Layer_1" data-name="Layer 1">
    <g class="cls-3">
      <g>
        <path class="cls-2" d="M295.52,98.54s-.03-.03-.05-.04l-1.31.52v.51c.23-.02.57.03.82.03.08,0,.15-.02.23-.03.05-.02.57-.8.32-.99Z"/>
        <path class="cls-2" d="M320.79,54.64h-.52c.26.28.29.34.52,0Z"/>
        <path class="cls-2" d="M256.57,108.93c.12.12.53-.08.52-.26-.04-.57-.77.02-.52.26Z"/>
        <path class="cls-2" d="M261.27,110.5c-.04.09-.02.37,0,.52l.51-.26-.51-.26Z"/>
        <path class="cls-2" d="M239.86,70.82c2.05.68.53,2.24.52,2.61v.52c0,.17-.02.36,0,.52h.52c.56,1.8,1.41,3.46,2.09,5.22.06.15-.06.37,0,.52l.52.52c.06.15-.06.37,0,.52l1.54,3.07.03.06s.15-.02.29-.11c.38-.23.99-.76,1.27-.94l.51.25s-.02.02-.02.04c-.75,1.26-1.17,1.15-1.24,1.46-.05.18.03.51.24,1.38.04.17-.05.37,0,.52.24.05.49.52.52.52,2.52-.11,4.6-3.86,6.26.52-1.84.9-4.63.82-3.65,3.65.16.47.7,1.66,1.03,1.87.8.5,7.02-2.84,8.36-3.43,1.42,1.78-2.16,6.33-1.97,7.59.11.74,3.13,1.95,4.06,1.81.05.21-.02.42.27.52.2.11.56-.08.78,0,.51.21,1,.48,1.57.52l.49,1c-.85.36-5.12,1.66-5.18,2.39-.1,1.22,2.2.31,2.6.26l3.39-1.57c.17,1.42-2.03,1.39-2.87,1.57-.3,1.13-1.85.94-2.4,1.55-.36.4.32.93.31,1.06,1.04-.8,2.83-.74,3.65-1.04.03-.02.06-.04.09-.06.53-.42,2.09-2.63,1.99.32l-.52.26c-.02.29-.8.7-.27,1.03l1.83-.51c.02.27.06.9,0,1.04-.18.4-1.46.53-.9.87.08.05.21.11.38.17.3-.22.72-.33,1.04-.52.73,1.04.06,1.41-1.04,2.09-.12.07-1.92.98-2.09,1.04-.4.16-1.38.28-2.09.52-1.13.38-1.54.36-2.61.52-.16-1.11-1.04-1.48-1.57-2.09.01.35-.02.7,0,1.04,0,.18-.03.37,0,.52.28.33.89.7,1.04,1.04.27.58.29,1.45.52,2.09-.19.14-.33.38-.52.52,0,.17,0,.35,0,.52l-.52,1.04c-.03.17.04.36,0,.52-.24,1.08-.05,2.31-1.04,3.13,0,.17-.02.36,0,.52l1.04,2.09c.05.16-.06.37,0,.52l.52.52c.06.15-.06.37,0,.52,2.23,3.22,3.64,6.89,5.22,10.44.45.17.45.35,0,.52l.52.52c.45.17.45.35,0,.52l.52.52c.45.17.45.35,0,.52,1.52,1.53,2.55,4.89,3.79,7.37,0,0,0,0,0,0,.01.02.02.04.04.06.16.24.3.5.47.74.02.04.05.07.08.1.4.57.82,1.1,1.25,1.63,3.73,2.9,11.43,4.94,15.78,7.81.25.11.5.22.75.32.65-.07,1.68-.61,2.38-.8.14-.46.32-.45.52,0l.52-.52c.17-.45.35-.45.52,0l.52-.52c.17-.45.35-.45.52,0,5.66-3.45,11.76-6.08,17.75-8.88.17-.45.35-.45.52,0l.52-.52c.17-.45.35-.45.52,0l.52-.52c.17-.45.35-.45.52,0,5.66-3.45,11.76-6.08,17.75-8.88.17-.45.35-.45.52,0l.52-.52c.17-.45.35-.45.52,0l.52-.52c.17-.45.35-.45.52,0,6.05-3.55,12.41-6.52,18.79-9.4.17-.45.35-.45.52,0l.52-.52c.17-.45.35-.45.52,0l.52-.52c.17-.45.35-.45.52,0,.72-1.08,2.58-1.29,3.56-1.95.32-.37.54-.76.62-1.18-.45-.13-.44-.31,0-.52l-.52-2.09c-.45-.17-.45-.35,0-.52l-.52-2.09c-.46-.14-.45-.32,0-.52-.04-.13-.53-.36-.52-.79.01-.49,1.03-1.65,2-2.86.47-.86,1-1.73,1.66-2.62-1-.27-1-.74,0-1.04l.52-1.57c-1.37-.81-1.39-1.27,0-2.09,0-.17-.01-.35,0-.52.03-.57-.17-1.3.52-1.57v-2.09c-1.63-1.47-2.29-5.23-4.68-5.69-.18-.03-.36-.05-.54-.05-.69.03-1.39-.02-2.09,0-.73.99-2.51.41-3.66.52-.03-.35.02-.7,0-1.04-.06-1.21.1-2.46,0-3.65-.03-.38-.06-.88-.1-1.45l-.39-5.99c-.11-1.03-.25-1.88-.43-2.34-.13-.33-.36-.75-.66-1.23-.84-1.36-2.25-3.26-3.78-5.22-2.34-3.01-4.95-6.17-6.14-7.78-.29.02-.53.03-.74.02.13-.18.36-.21.74-.02-.37-.5-.67-1.06-1.04-1.57-1.31-1.78-2.56-3.7-4.18-5.22-.86-2.39-4.41-7.32-6.79-8.35-.15.06-.37-.06-.52,0l-.44.22c-.42.24-.88.55-1.65.83-.15.06-.36-.05-.52,0l-1.57,1.04c-.13-.05-.34.03-.52,0-.01.14.26.48.42.81.08.16.14.33.12.46,0,0,0,.01,0,.02-.08.32-.81.24-.91.38-.19.28,1.2,1.14-1.72,1.46v.52c-.11-.04-.4-.02-.52,0-.04,0-.11.09-.18.18l-.34.34c-1.02.51-.82.47-1.57,1.04-.4.31-.53.85-1,1.06-.3-.05-.66-.05-1.09-.02-.49-.36-.38-1.63-1.77-.47-1.15.96-.64,2.11-1.35,2.83-.43.44-3.67,1.65-4.58,2.06-.38.17-1.19,1.69-2.22-.25-1.17-1.91-1.83-4.15-2.66-6.23l-1.14.05-29.1,14c.19,3.45,2.95,4.94,2.61,8.34,0,0,0,.01,0,.02,0,0-.02,0-.02,0-.81-.46-2.59.2-3-.07-.23-.14-1.01-2.8-2.49-.44-.45.72.29,1.65.04,2.11-.23.42-2.52,1.5-2.87,2.58-.08-.13.08-.41,0-.52-1.35-1.9-2.7-.71-4.18.52-.17,0-.35,0-.52,0,.11.09.2.17.27.25.2.2.24.33.14.38l-.25-.39-.16-.24c-.46.02-.49.51-.52.52-.17.04-.37-.05-.52,0-1.18.38-1.38.73-2.09,1.04-1.2.54-2.44.99-3.65,1.57-3.38-2.75,1.11-3.16,1.57-3.66.02-.02.02-.04.02-.07-.02-.21-.44-.7-.54-.96-.77-.27-.43-.98-.52-1.04-.46-.34-2.66.19-3.34.58-1.09.62-1.52,2.23-2.15,2.55-.84.43-.74-1.06-1.24-1.75-.14-.19-.32-.32-.58-.34,1.76-.8,4.47-1.23,6.26-2.61-.55-.94-.67-1.8-1.04-2.61-.07-.14.07-.38,0-.52l-.52-.52c-.07-.14.07-.38,0-.52l-3.13-5.74c-.3-.52-.46-1.35-.96-1.73-.03-.02-.04-.05-.07-.07-.02-.01-.03-.02-.05-.02-.53-.22-1.26.9-1-.79.27-.16.39-.27.45-.39.07-.15.05-.32.08-.65-1.61-.42-7.32,3.37-9.4,3.65.02.34-.04.7,0,1.04.14.05.89.05,1.04,0ZM352.63,116.76s-1.1.2-1.04-.26c.82-1.42,1.63-.35,1.04.26ZM269.1,138.69l-1.04-.52v-1.04c-.08-.16-.43-.32-.52-.52-.07-.14.07-.38,0-.52-.16-.34-.35-.7-.52-1.04-.17-.35-.36-.69-.52-1.04-.07-.14.07-.38,0-.52-.16-.34-.35-.68-.52-1.04.28-1.55-.17-1.59,1.57-2.09.34-.1.73-.62,1.24-.46.56.17.9,1.11,1.37,1.51-.51.59-.87,1.82-1.04,2.61.17,0,.35.01.52,0,.12,0,.44.38.77.3,1.92-.42,1.49-1.16,1.84-2.39v-1.57c-.44.33-1.32.37-1.57.52-.32-2.26.52-3.63,2.09-1.04-.01.17.02.35,0,.52l5.74-3.13c-.17-.08-.5-.75-1.08-1.03-.28-.13-.6-.18-1-.02,1.63-1.33,3.67-1.93,5.34-2.78.82-.42,3.7-2.36,4.06-2.44,1.41-.33,1.95.6,2.61,1.57.21.31.34.71.52,1.04,2.16,4,3.97,8.59,5.7,12.71-.15.52-8.49,4.86-9.56,5.19-.76.24-.79-.15-.84-.15l-.78-.52-.27.52s.62.93.53,1.04l-10.63,4.66c-1.43-.42-3.31-6.91-4-8.31ZM272.75,128.77c0-.15-.48-.54-.42-.79.25-.93,2.64-.94,3.29-1.82l.26,1.04c-.97.82-1.83,1.43-3.13,1.57ZM280.04,115.2h.03c-.07.3-.23.54-.43.72-.23.21-.51.32-.83.32-.1,0-.2.02-.3,0v-1.04h.14s1.4,0,1.4,0ZM274.84,125.64c-3.04,1.55-5.89,3.56-9.17,4.67l-.23-2.58c1.18-.25,2.46-1.01,2.61-1.04,1.38-.33,2.68-.2,4.18-.52.42-.09.94-.4,1.57-.52.17-.03.35.03.52,0l4.7-2.87c.09-.2-1.12-.52-1.56-.78l.52-.52c.13-.06.34.04.52,0,.31-.07,1.43-.5,1.57,0,.06.23-.73.87-.52,1.04h.97c.18,0,.38,0,.59,0-2.12,1.25-4.13,2.04-6.26,3.13ZM286.85,119.37l-1.04,1.04c-.12-1.11-.07-1.17,1.04-1.04ZM279.54,111.02v-.51s1.04-.53,1.04-.53c.17,0,.35-.02.52,0,.23,1.39-.33,1.09-1.56,1.04ZM284.5,151.23c-.85-.44-3.23-2.7-3.39-3.41-.09-.37,1.08-.17,1.04-.5-.02-.21-.49-.56-.51-.8h1.04c.75,1.36,2.48,3.22,1.82,4.7ZM287.38,150.17c-.57-.57.47-1.61,1.04-1.04s-.47,1.61-1.04,1.04ZM287.9,148.08c1.73-2.26,3.45-.53,2.09-4.17,1.35.91,2.23,3.14,2.6,4.7-1.8-2.7-2.15-1.1-4.69-.53ZM294.67,147.83c-1.08-.01-1.69-2.05-2.08-2.88-.29-.61-.7-1.24-1.03-1.83l.24-.24,1.31,1.56c2.35-.23,3.43-1.57,5.74-2.08-1.53,2.49-6.98,1.8-4.19,5.48ZM340.63,122.26c-11.5,6-23.26,11.46-34.99,16.96-1.06.5-2.56,1.77-3.65,2.35-.68.36-1.38.51-1.05-.52.08-.25,3.99-1.99,4.7-2.35,12.01-6.19,24.41-11.79,36.54-17.75l-1.55,1.31ZM346.22,120c-.42-.29-1.28,0-1.43-.11-.05-.04.4-.79.35-1.21-.11-.91-.72-1.65-.61-2.43,1.67,2.11,3.18,4.69,3.92,7.3-1.38-.31-1.61-3.12-2.23-3.55ZM350.02,117.29c.24.83-1.26.48-1.52,1.34-.09.3.37,1.29.48,1.79.21.32.55.55.52,1.04l.52,1.04c-.92.2-.33-.58-.52-1.04-.13-.32-.42-.56-.52-1.04-.4-.6-1.01-1.22-1.57-2.09-.57-.89-1.51-1.69-1.57-2.87.94-.45,1.47,1.63,1.57,2.34l2.61-.52ZM329.14,70.3c.53-.21,1.05-.33,1.57-.52l.37.74.15.29s-.08.02-.13.03c-.51.07-1.01.23-1.44.5l-.52-1.04ZM322.87,56.73c-.16.04-.35-.03-.52,0-.47-1.45,5.58-3.63,4.69-1.83-1.08,1.13-2.69,1.5-4.17,1.83ZM324.7,57.25v-.52c.34.17.34.35,0,.52ZM321.46,57.73c-.38,0-.92.03-1.2.04v-.52c.64-1.31,1.47-.51,1.57-.52v1.04c-.07-.03-.2-.04-.37-.04ZM338.01,68.73c-.33.05-.75-.07-1.04,0l-.52-.52c.49-.11.92-.26,1.37-.45.06-.03.12-.05.19-.07.01.06,0,.12.01.19,0,.3-.07.63,0,.86ZM332.27,72.39c-.3.07-.88.55-1.04.52-.19-1.05.52-1.63,1.04-.52ZM333.96,62.08c.1-.08.23-.14.4-.13.1.36-.36.68-.52.52-.09-.09-.03-.27.12-.39ZM334.45,62.79l.43-.32c.29.48.43,1.02.52,1.57-.15-.06-.38.06-.52,0-.06-.31-.58-.74-.43-1.24ZM317.13,60.9c.15-.06.37.05.52,0v.52l.52.52c.17.32.37.72.52,1.04.82,1.81,2.11,4.46,2.61,6.26h.52c-.28-1.08-.62-2.7-1.04-3.65-.3-.68-1.41-1.63-1.57-2.61.59-.08,4.03-1.85,3.65-2.08-.34-.05-.73.06-1.04,0-.29-2.13.28-1.28,1.04-1.57,1.35-.52,3.88-1.94,4.97-2.09.4-.05.64-.02.76.07.08.06.11.14.1.23-.02.37-.6.95-1.13,1.26.72-.05,1.31-.13,1.82.52.3.38,2.94,5.81,3.4,6.79-.13-1.09-.05-1.19,1.04-1.04l-1.04,1.04c.4.86.43,2.24,1.04,3.13-.81.33-1.47.99-2.34,1.05-.67-.07.21-.71.26-1.05.04-.34-.02-.7,0-1.04-.39-.32-2.52.76-3.13,1.04l-.41.41c-.04.05-.08.1-.12.12-.14.07-.39-.07-.52,0-.79.43-1.58,1.33-2.61,1.57,0,.06-.66.12-.52.52,1.25,0,2.46-.61,3.65-1.04l.52,1.04c-.2.1-.36.46-.52.52-5.17,2.08-3.42,1.23-5.22-2.09-.2-.36-.73-.73-1.04-1.04.15.59.42,1.15.41,1.77l-.41.32c-.08-.18-.38-.34-.52-.52.16.87-.16,1.76,1.04,2.09.03.16,0,.35,0,.52.02.35-.01.7,0,1.04.15.13.87.5,1.04.52.35-1.36.97-.5,1.04-.52l-.27.52c-.26-.02-.52.04-.78,0-.2,1.63,1.2,2.87,1.57,4.18,3.45-1.25,6.62-3.13,9.92-4.7.69-.33,1.41-.74,2.09-1.04.86-.38,1.75-.68,2.61-1.04h.52c1.14,2.71,8.38,16.19,8.36,17.51-.03,1.57-5.43,3.21-6.79,3.89-.73.36-1.29.68-2.09,1.04-1.7.77-6.78,3.99-8.28,3.05-.92-.58-4.69-11.64-6.33-13.24l1.55-1.03c-.16-.49-.89-.97-1.03-1.31.88,2.39-.35,1.62-2.59,2.65l.5,1-1.32-.5c.59,1.88-.76.37-2.33,1.04l.53,1.04c-1.01-.34-1.66-.14-2.61,0,1.39,1.48-1.25,1.6-1.85,1.06l.28,1.03-1.32-.51c.62,2.13-.95.15-1.2.77-.08.21.72,1.82-1.94.8l.28,1.03-1.32-.51c.49,1.1-.92,1.97-1.81,1.03-.37.51-.08.52,0,1.04l-1.32-.5.28,1.03c-2.65-1.18-.02,1.45-2.37.02l.28,1.03-1.82-.52c-.76.47-.51.83-.27,1.56-3.43-1.44-3.07,1.33-3.22,1.5-.63.69-3.12.03-4.09.6l1.04,1.03c-.59.2-1.61.27-2.08.53-.59.32-2.39,2.08-3.13,1.56l.28-1.03c-.24.11-.67.54-.8.51-1.76.53-7.76,4.51-9.06,4.13-1.8-2-2.35-4.56-4-6.74.7,1.86.64,3.1,2.08,4.68-.42.59-3.87,1.4-4.17,1.59-.1.07.02.66-1.57,1.57-1.69.97-3.56,1.62-5.22,2.61-.33.02-.54-.03-.73-.18-.11-.08-.21-.19-.32-.35.65-.55,1.56-.36.4-1.08-.17-.11-.46-1.48-.4-1.53.13-.1.92.61,2.61-.53h-.52l-.14-.11-.9-.68.77-.79-4.43,1.57c.97-2.48,4.61-.95,3.13-3.65l-3.65,1.56c.18-.55,1.09-1.29,1.57-1.56.84-.47,2.63-.95,3.65-1.04-.16-.19-.16-1.45-.79-1.57-.25-.05-1.67.82-2.34,1.05-.16.17-.32.42-.52.52-.12.06-.34-.04-.52,0-1.38.3-1.45-.01-1.57,0l2.06-6.46c-.5-1.66-7.12-1.34-7.28-3.98,2.5-1.16,5.13-2.46,7.83-3.14.23-.87-.29-1.42-.52-2.08,3.16-2.29,3.26-2.03,5.22.52-.04-.34-.05-.59-.06-.8-.02-1.18.44-.5,1.1-.77-1.94-2.57,2.65-3.98,4.18-2.09.89-.45,1.92-.69,2.61-1.04.56-.29,1.1-1.15,2.07-1.08l-.51-1,1.32.5-.28-1.03c3.28,1.07,6.13-2.58,9.39-3.14l-1.04-1.03,2.89-.02-.28-1.03,1.33.51-.28-1.03c1.22.49,1.63.2,2.61,0-.07-.12-.1-.21-.14-.31-.64-1.42.82-1.39,2.23-.74,1.77-1.13,3.89-1.72,5.74-2.61l-1.04-.53v-.51c1.28-.05,2.11-1.01,3.13-1.57,1.97-1.09,5.2-3.34,7.31-2.09.15-.02.37-.02.52,0,0-1.47.65-2.09,2.09-2.61ZM245.88,68.21c1.72.02.18.44-.27,1.04l-.26-.51c-.48.35-1.01.92-.75,1.29.08.11.23.21.49.27-.42.4-.85.71-1.31,1.05-.51-.04-.14-.93-.25-1.05-.13-.13-1.42.27-1.04-1.04.25-.11.8.11,1.04,0,.49-.21,1.51-.75,2.09-1.04.13-.03.21-.03.27,0Z"/>
        <path class="cls-2" d="M274.32,99.01c.8-.53,2.05-.56,2.79-1.03.41-.26.24-.83.45-1.02.07-.07.19-.09.4-.03,0,.01,0,.02,0,.03,0,.41.3.7.53,1.01-.38-.99-.64-2.16-1.04-3.13-2.43,2.11-4.01.92-3.13,4.18Z"/>
        <path class="cls-2" d="M294.16,89.62l-6.26,3.4c-.18,1.05.29.92,1.08.56,1.45-.67,3.14-1.65,4.65-2.4.5-.24.99-.52,1.56-.53.24-.33-.74-.88-1.04-1.04Z"/>
        <path class="cls-2" d="M293.12,89.09c2.19-1.07,1.58-.94,2.61-2.09-.86.28-6.04,1.85-6.25,2.11-.13.16.05,1.11,0,1.54,1.14-.71,2.47-.99,3.65-1.57Z"/>
        <path class="cls-2" d="M286.85,88.05c-1.64,1.17-3.13,1.37-4.35,2.08-.71.41-.28.93-.35,1.57l5.22-2.61c-.2-.16-.32-.77-.52-1.04Z"/>
        <path class="cls-2" d="M300.69,92.1c-.42.14-2.14.05-2.87.13-.72,2.02-.97.79-2.1,1.83-.51.47-.37,1.11-.51,1.3l7.31-3.92c.1-1.93-1.71.63-1.82.66Z"/>
        <path class="cls-2" d="M291.45,96.04c-.74.36-4.27,1.72-3.03,2.97,1.16-.44,3.5-1.52,4.7-2.09.18-2.05-.01-1.68-1.67-.88Z"/>
        <path class="cls-2" d="M306.87,88.58c-.73.43-1.56.22-2.27,1.03.32.02.79.57,1.69.43.42-.07,2.82-.88,2.48-1.72-.9-2.19-1.78.19-1.9.27Z"/>
        <path class="cls-2" d="M287.37,90.66h-.52l-.18.18c-.12.14-.23.29-.35.35-.14.07-.37-.06-.52,0-.16.18-.31.4-.52.52-.82.47-1.68.56-2.61.53l.53,1.56c.45-.31,1.11-.31,1.56-.53,1.78-.84,1.79-1.54,2.61-2.61Z"/>
        <path class="cls-2" d="M284.76,95.88l3.13-1.57-3.13-.52c-1.84,1.91-.21,1.6,0,2.09Z"/>
        <path class="cls-2" d="M306.55,75.11c1.28-.73.29-.6-.38-1.16-.95.42-1.56.98-2.35,1.36-.24.12-.7-.34-.78-.32-.02,2.5,2.43.73,3.52.11Z"/>
        <path class="cls-2" d="M283.1,86.88c.3-.34,0-1.08.09-1.44-.79.15-1.34.49-2.05.72-.46.15-1.05-.25-1.08-.2-1.2,2.17,2.41,1.64,3.04.92Z"/>
        <path class="cls-2" d="M309.82,85.44c-2.56.84-1.97.32-4.7,2.09,2.06-.64,2.81-.6,4.7-2.09Z"/>
        <path class="cls-2" d="M284.24,87.53c-1.59.32-3.75.1-3.13,2.09,1.85-.4,2.62-.53,3.13-2.09Z"/>
        <path class="cls-2" d="M309.3,76.56c.08-.1-.36-.8-.52-1.03-1.34-.09-2.28,1.18-3.13,1.57.17-.1,2.59.52,3.66-.53Z"/>
        <path class="cls-2" d="M303.56,79.18c1.31-.81,1.95-2.01,2.09-2.09-1.05.47-2.5.92-3.65,1.05.11.78.89.99,1.57,1.04Z"/>
        <path class="cls-2" d="M286.85,84.4c.96-.12.95-.28,1.57-.52,2.78-1.08,3.47-1.93,5.22-3.65h-.52l-.16.16c-.12.13-.23.29-.36.36-2.42,1.37-5.12,1.87-7.31,3.65-1.71.12-1.69-.65-2.09,1.04.77-.15,2.39.59,3.65-1.04Z"/>
        <path class="cls-2" d="M301.47,89.62c1.38-.77,2.21-1.15,3.65-2.09-.81.25-1.91.1-2.79.61-.94.55-.79,1.43-.86,1.47Z"/>
        <path class="cls-2" d="M287.37,86.48c.57-.1.78-.42,1.04-.52.94-.34,2.53-.38,2.62-1.82l-2.62,1.3c.03-.17-.04-.36,0-.52l-2.09,1.57c-1.23.18-1.36-1.2-2.09,1.04.63-.13,2.3-.41,3.13-.52v-.52Z"/>
        <path class="cls-2" d="M299.9,80.74c.47-.34,1.04-.35,1.57-.52.31-.42.96-1.3.26-1.56l-2.87,1.05c-.09.61.96.84,1.04,1.04Z"/>
        <path class="cls-2" d="M285.28,97.45c1.97-.36,1.86-.12,2.61-1.57-.94.25-2.14.33-3.13.52.15.34.32.74.52,1.04Z"/>
        <path class="cls-2" d="M300.42,94.32l-.78,1.05,2.48-.84.37-.13.27-.09-1.3-.52c-.35.16-.55.35-1.04.52Z"/>
        <path class="cls-2" d="M303.03,77.08l-1.04-1.04c-.84.46-1.2.36-1.57.52.52,1.54,1.43.74,2.61.52Z"/>
        <path class="cls-2" d="M312.43,78.65c-.67.04-1.02.32-1.57.52-.19.33-.31.73-.52,1.04.99-.07,1.75-.66,2.61-1.04.09-.31-.29-.54-.52-.52Z"/>
        <path class="cls-2" d="M303.04,89.61v1.57c1.45.38,1.24-1.19,1.56-1.56-.32-.02-.96.53-1.56,0Z"/>
        <path class="cls-2" d="M286.65,99.45c.55.13.9-.34,1.24-.44l-2.09-.52c.24.3.23.82.84.96Z"/>
        <path class="cls-2" d="M287.89,90.14c-.26,2.01,2.07,1.22.52-.52-.15.19-.37.34-.52.52Z"/>
        <path class="cls-2" d="M293.9,94.83c-.74.14.25.91.26,1.05h.52c.05-.89.19-1.21-.78-1.05Z"/>
        <path class="cls-2" d="M324.96,80.22h-.52c.17.35.35.7.52,1.04-.02-.07-.03-.15-.03-.25,0-.26.09-.59.03-.8Z"/>
        <path class="cls-2" d="M325.48,82.31c-.17-.46-.34-.68-.52-1.04.15.44.38.71.52,1.04Z"/>
        <path class="cls-2" d="M272.93,86.93c.12.04.24-.07.34-.45-.37-.62-.59-.98-1.04-1.57.06.62.38,1.9.7,2.02Z"/>
        <path class="cls-2" d="M277.98,88.04c.73.38,1.39-.33,1.04-.51-.73-.38-1.39.33-1.04.51Z"/>
        <path class="cls-2" d="M273.8,87.53l-.51.25.51,1.31.52-.52c-.19-.34-.33-.71-.52-1.04Z"/>
        <path class="cls-2" d="M276.59,94.24s.06.05.09.07l.26-.51c-.13-.29-.35-.66-.52-1.04-1.04.24-.43,1.02.18,1.49Z"/>
        <path class="cls-2" d="M284.5,99.54v.52c.34-.17.34-.35,0-.52Z"/>
        <path class="cls-2" d="M283.46,97.45v.52c.34-.17.34-.35,0-.52Z"/>
        <path class="cls-2" d="M269.71,101.3c-.13.11-.18.23-.19.33,0,.04,0,.08.01.12.06.18.28.32.58.36.53.07,1.25-.17,1.61-1.01.03-.07.03-.46,0-.52-1.11.2-1.72.46-2,.72Z"/>
        <path class="cls-2" d="M275.89,91.7c-.07-.07-.25-.02-.38.07-.08.06-.14.12-.14.19,0,.12.05.18.11.21.2.11.61-.28.42-.47Z"/>
        <path class="cls-2" d="M275.37,90.66c-.07-.07-.25-.02-.38.07-.08.06-.14.12-.14.19,0,.12.05.18.11.22.2.11.61-.28.41-.48Z"/>
        <path class="cls-2" d="M274.84,89.62c-.06-.06-.21-.03-.33.04-.11.06-.19.14-.19.23,0,.12.05.19.11.22.2.11.6-.28.41-.48Z"/>
        <path class="cls-2" d="M293.47,99.6s-.05-.04-.09-.06v.52c.06-.03.1-.07.14-.1.09-.07.11-.14.09-.22-.02-.05-.07-.1-.14-.15Z"/>
        <path class="cls-2" d="M265.71,107.37v.52c.08-.04.14-.08.19-.13.05-.05.07-.1.06-.15-.01-.08-.09-.16-.24-.24Z"/>
        <path class="cls-2" d="M292.85,73.43v.52c.34-.17.34-.35,0-.52Z"/>
        <path class="cls-2" d="M306.09,67.59c-.06-.03-.18-.03-.45.1h.52s0-.06-.08-.1Z"/>
        <path class="cls-2" d="M307.14,67.08c-.06-.03-.18-.03-.45.09h.52s0-.06-.08-.09Z"/>
        <path class="cls-2" d="M308.22,66.53c-.06-.02-.18-.01-.48.11h.52s.03-.08-.04-.11Z"/>
        <path class="cls-2" d="M298.86,82.82c-.07,0-.15.02-.22.03-1.83.21-3.38,1.3-5,2.06-.18,1.64.42,1.04,1.42.63,1.26-.51,3.73-1.59,4.85-2.2-.31-.65-.91-1.25-1.04-1.57.06.06-.03.71,0,1.04Z"/>
        <path class="cls-2" d="M291.55,84.39c1.73.18,2.98-1.09,4.17-2.09-1.09.21-4.44.38-4.17,2.09Z"/>
        <path class="cls-2" d="M298.86,81.79c-.16-.37.33-1.42-.26-1.56-.54.87-2.38.77-2.78,1.16-.26.25-.03.87-.1.92.54-.1,3-.64,3.13-.52Z"/>
        <path class="cls-2" d="M289.46,88.05c.55.44,2.62-.97,2.63-1.7,0-.28-.28-.45-1.07-.39-.27.16-.54,1.29-1.57,1.04.12.11-.11.95,0,1.04Z"/>
        <path class="cls-2" d="M289.98,94.84c.82-.03,2.01-.18,2.61-.78-1.08-1.57-1.71.06-2.61.78Z"/>
        <path class="cls-2" d="M289.98,94.84c-1.56.05-.69-1.65-2.09,1.04.45-.12.97.04,1.54-.28.39-.21.42-.67.55-.77Z"/>
        <path class="cls-2" d="M309.3,66.12c.09-.09,0-.34-.12-.46-.04-.04-.09-.07-.14-.06-.16.01-.22.08-.23.16-.03.21.32.54.49.36Z"/>
        <path class="cls-2" d="M310.35,65.38c-.04-.15-.16-.31-.27-.3-.17.01-.23.08-.23.17-.01.17.21.41.39.4.04-.02.08-.04.11-.05.04-.04.03-.13,0-.22Z"/>
        <path class="cls-2" d="M311,64.97c.11.13.28.21.39.1.07-.07.02-.25-.07-.38-.06-.08-.12-.15-.19-.14-.26.02-.28.18-.19.33.02.02.04.06.06.09Z"/>
        <path class="cls-2" d="M312.43,64.56c.09-.09,0-.35-.13-.47-.04-.04-.08-.06-.13-.06-.15,0-.21.06-.23.14-.06.21.31.57.5.39Z"/>
        <path class="cls-2" d="M313.44,63.7c-.06-.1-.14-.19-.22-.19-.22.02-.27.14-.23.26.01.03.02.06.04.09.08.12.21.22.33.22.04-.02.09-.04.11-.05.04-.04.03-.13,0-.23-.01-.04-.02-.07-.04-.11Z"/>
        <path class="cls-2" d="M274.32,82.83c.08-.08.01-.28-.09-.4-.05-.07-.11-.12-.17-.12-.2.01-.25.11-.23.22.03.21.33.46.49.3Z"/>
        <path class="cls-2" d="M275.37,82.31c.06-.06.04-.2-.03-.32-.06-.11-.15-.21-.24-.2-.19.01-.24.1-.23.21.02.21.33.48.49.31Z"/>
        <path class="cls-2" d="M276.41,81.79c.06-.06.03-.21-.03-.33-.06-.11-.14-.2-.23-.19-.15.01-.22.07-.23.14-.05.21.31.56.5.38Z"/>
        <path class="cls-2" d="M332.79,83.35c.12-.19.36-.35.52-.52.17-.18.36-.33.52-.52.15.02.37.02.52,0,.1-.01.25-.23.39-.39.05-.05.09-.1.14-.14h.52c.07.18.97-.04,0,.77-.67.55-1.34.56-2.08.79-.15.05-.35-.04-.52,0-.14.22-.57.79-.48.99.43.04.68.37,1,.58.38-1.04.96-.8,1.57-1.04l.34-.34c.07-.1.14-.18.18-.18.16-.01.37-.03.52,0,2.8-.06-.15-1.99,0-2.08,2.78-.1,1.54-.71,1.56-1.57h-.69c-.51.94-.73,1.3-1.92,1.04-.6-1.48-.18-1.98-2.09-2.61-.75.85-.58,1.52-.52,2.61.16.3.35.89.52,1.04-.39.54-.96.82-1.57,1.04-.15.05-.36-.04-.52,0h-.52c0,.35,0,.7,0,1.04.92.08,1.74-.33,2.61-.52Z"/>
        <path class="cls-2" d="M283.72,130.34c1.39-.94,2.4-3.11,4.13-3.7.34-.85-.84-1.46-1-2.04-1.99.23-3.61,1.81-5.22,2.61-1.97.97-7.21,2.46-7.96,4.32-.25.63.18,1.47-.12,1.92-.69,1.04-3.34,1.1-3.93,2.63.39-.02,1.03.09,2.09,0-.06-.48-.06-.73,0-.85.04-.09.11-.11.21-.1.27.04.74.36,1.36.2,1.2-.3,2.25-1.46,3.14-1.86l-.52-.26v-1.3c1.09.41,1.1.71.52,1.57,1.76-.79,4.62-1.64,6.26-2.61.33-.2.73-.31,1.04-.52Z"/>
        <path class="cls-2" d="M279.02,137.12c.27.19.51,1.05.85,1.06,1.03.03,2.07-1.23,2.8-1.58.37-.18.68-.31,1.04-.52-.14.07-.3.06-.46.02-.62-.15-1.31-.9-1.11-1.06.54-.29,1.4.45,1.56.84.04.09.05.16,0,.2,1.53-.88,1.85-1.21,3.13-2.09-3.05-3.72-1.47-.04-2.09.52-.49-.54-1.61-.68-2.08-1.05-.45-.35,2.4-1.18,1.04-2.08-.24.11-.81-.11-1.04,0-.59.27-1.48,1.27-2.09,1.57-.76.37-1.69.56-2.61,1.04.56.73,1.06-.12,2.09.52.38,1.74-.58,1.83-2.08,2.09v.51c.31.07.89-.1,1.04,0Z"/>
        <path class="cls-2" d="M288.42,137.12c1.46-.68,3.46-1.11,4.18-2.61-2.09-.45-2.73.27-4.18,1.04v1.57Z"/>
        <path class="cls-2" d="M285.55,137.13c-1.8,1.36-4.03,1.93-6.01,2.89-.75.37-1.31-.11-1.04,1.28,1.01-.56,7.03-2.85,7.3-3.14.04-.05.19-1.1-.25-1.03Z"/>
        <path class="cls-2" d="M287.25,129.38c-.72.17-1.3.7-1.97.96.86.99,1.78-.38,2.61-.52h.52c-.09,0-.49-.6-1.17-.44Z"/>
        <path class="cls-2" d="M271.71,138.17c-.05.14-.46.29-.48.78-.02.55.3.88.48,1.31l1.57-1.31c-1.06-.5-1.79,1.22-1.57-.78Z"/>
        <path class="cls-2" d="M286.33,123.55c.05-.62.14-.81-.52-1.04l-.26-.51-.26.51c-1.35.38-2.99,1.9-4.18,2.61.02-.02.09-.03.19-.04.81-.09,3.99-.06,5.03-1.53Z"/>
        <path class="cls-2" d="M281.11,125.12c-.79.48-3.41.42-2.09,2.09,1.77-.15,1.96-2,2.09-2.09Z"/>
        <path class="cls-2" d="M298.34,71.34c.12-.12-.08-.53-.26-.52-.29.02-.28.21-.17.37.11.15.31.27.43.15Z"/>
        <path class="cls-2" d="M325.48,64.04c-.61.25-1.33,1.44-2.61,1.04.45,1.36-.95,1.41,1.57,1.57.44-.2,1.01-.22,1.57-.52.34-.19.7-.34,1.04-.52.3-.17.56-.56,1.04-.52.02-.06.96-.4,1.04-.79.37-1.84-2.58-.7-3.65-.26Z"/>
        <path class="cls-2" d="M329.14,61.16c.48-2.05-2.14-.97-3.13-.25-.32.23-.53.42-.7.61-.69.75-.39,1.21-.87,2h.52c.77-.52,4.02-1.67,4.18-2.36Z"/>
        <path class="cls-2" d="M327.57,58.81c-.52.04-.72.37-1.04.52.42-.17.66-.3,1.04-.52Z"/>
        <path class="cls-2" d="M323.14,61.95c-.5.49-2.23,1.23-2.35,1.83-.34,1.64,1.46.75,1.56.78.38-.36,1.31-.34,1.57-.52l-.78-2.08Z"/>
        <path class="cls-2" d="M327.05,66.65h-.52c-2.8,1.8-.8,3.91,1.57,1.29.21-.87-.87-1.03-1.05-1.29Z"/>
        <path class="cls-2" d="M76.02,516.19s.01-.07,0-.11l-2.13-1.17-.68.56c.29.28.59.8.85,1.12.1.13.2.23.29.27.08.04,1.68-.12,1.67-.67Z"/>
        <path class="cls-2" d="M162.3,501.52l-.57-.7c-.08.66-.13.77.57.7Z"/>
        <path class="cls-2" d="M20.23,476.16c.72-.68-.87-1.01-.92-.41-.03.28.69.62.92.41Z"/>
        <path class="cls-2" d="M22.39,483.73c-.16.05-.52.39-.7.57l.91.39-.22-.97Z"/>
        <path class="cls-2" d="M52.06,488.47c1.58.49,3.01,2.12,4.44,2.58.8.26,1.38-.59,1.86-.53.17.02.33.16.48.51-.01.01-.02.03-.04.04-.54.46-.61,1.17-.76,1.81.91-1.6,2.17-3.22,3.02-4.84-5.48-.92-5.64-4.32-9.01.42Z"/>
        <path class="cls-2" d="M75.43,502.02c2.48,1.2,5.65,2.36,8.31,3.56.87.39,1.79.74,2.43,1.5.7-.05.35-1.95.23-2.53l-11.42-4.59c-1.61.91-.91,1.41.45,2.06Z"/>
        <path class="cls-2" d="M91.61,503.77c-1.32-.85-9.12-6.01-9.69-6.01-.37,0-1.43,1.29-2.07,1.69,2.2.73,4.04,2.2,6.1,3.14,3.83,1.75,2.99,1.06,5.65,1.18Z"/>
        <path class="cls-2" d="M80.45,493.1c-3.36-.9-5.28-2.66-7.55-3.5-1.33-.49-1.55.66-2.48,1.26l9.22,4.08c0-.44.68-1.28.82-1.84Z"/>
        <path class="cls-2" d="M90.29,515.98c-.65-.41-2.42-2.8-3.34-3.69-3.47,1.27-2.12-.43-4.75-.78-1.18-.16-1.88.72-2.3.75l13.26,5.41c2.68-2-2.72-1.59-2.88-1.7Z"/>
        <path class="cls-2" d="M74.86,508.02c-1.3-.6-6.99-3.79-7.29-.77,1.87,1.06,5.87,2.99,7.95,3.96,2.93-2.02,2.23-1.87-.66-3.19Z"/>
        <path class="cls-2" d="M101.77,520.35c-1.37-.5-2.02-1.83-3.87-1.88.34.45.11,1.68,1.29,2.72.55.48,4.29,2.79,5.03,1.41,1.93-3.61-2.22-2.16-2.45-2.24Z"/>
        <path class="cls-2" d="M77.55,496.66l-.57-.7-.43-.04c-.31,0-.63.01-.84-.08-.24-.11-.32-.57-.57-.7-.41,0-.88.03-1.27-.12-1.54-.58-2.59-1.63-3.58-2.9l-1.5,2.42c.91.26,1.64,1.14,2.42,1.5,3.08,1.45,4.01.69,6.35.6Z"/>
        <path class="cls-2" d="M67.72,498.93l5.54,2.44-2.76-4.74c-4.57-.34-2.36,1.49-2.78,2.3Z"/>
        <path class="cls-2" d="M119.36,505.1c2.39.91,1.12-.28,1.12-1.79-1.61-.81-3.02-1.01-4.4-1.63-.42-.19-.32-1.31-.44-1.39-3.35,2.71,1.69,4.04,3.72,4.81Z"/>
        <path class="cls-2" d="M77.88,486.82c.79.02,1.45-1.18,2.02-1.46-1.08-.88-2.13-1.25-3.22-1.94-.71-.45-.83-1.67-.92-1.65-4.21.79.47,5.01,2.12,5.05Z"/>
        <path class="cls-2" d="M109.21,520.82c-3.93-2.48-2.59-2.27-7.95-3.96,3.12,2.04,3.89,3.07,7.95,3.96Z"/>
        <path class="cls-2" d="M72.05,487.17c2.56,2.02,3.58,2.91,6.22,1.87-2.17-1.76-4.26-4.88-6.22-1.87Z"/>
        <path class="cls-2" d="M120.47,510.35c.21,0,.67-1.36.8-1.84-1.35-1.89-4.09-1.74-5.53-2.45.03.03.07.06.1.1.5.6,2.25,3.94,4.63,4.19Z"/>
        <path class="cls-2" d="M115.74,506.06c-1.78-.88-3.98-2.31-5.42-3.71-.91,1-.33,2.28.34,3.23,2.53.86,4.82.39,5.08.48Z"/>
        <path class="cls-2" d="M85.32,489.07c1.21,1.15,1.43.96,2.42,1.51,4.49,2.52,6.39,2.5,10.61,2.93l-.57-.7-.4-.04c-.31,0-.63,0-.87-.08-4.49-1.7-8.12-4.77-12.91-5.71-2.04-2.14-1-2.97-3.69-1.63,1.05.86,1.84,3.84,5.41,3.72Z"/>
        <path class="cls-2" d="M94.45,514.29c2.54,1,3.97,1.68,6.8,2.57-1.22-.8-2.24-2.44-3.89-3.05-1.76-.65-2.77.52-2.91.48Z"/>
        <path class="cls-2" d="M83.11,492.07c.77.65,1.42.57,1.84.82,1.49.87,3.29,2.95,5.31,1.48l-4.61-2.05c.26-.15.44-.44.7-.57l-4.38-1.06c-1.6-1.44.1-3.12-3.69-1.63.87.7,3.08,2.62,4.14,3.6l.7-.57Z"/>
        <path class="cls-2" d="M104.78,499.9c-.92.55-.06,2.2-.23,2.53.96.25,1.62,1,2.42,1.51.9-.05,2.79-.16,2.37-1.37l-4.56-2.68Z"/>
        <path class="cls-2" d="M66.21,501.35c2.65,2.23,2.21,2.34,4.96,1.75-1.37-.98-2.8-2.49-4.14-3.6-.28.58-.63,1.24-.82,1.84Z"/>
        <path class="cls-2" d="M87.04,518.07l-2.26.13,3.84,2.38.58.36.42.26-.74-2.3c-.6-.28-1.08-.34-1.84-.82Z"/>
        <path class="cls-2" d="M112.87,502.58l.23-2.53c-1.53-.61-1.8-1.21-2.42-1.51-1.48,2.38.59,2.71,2.18,4.04Z"/>
        <path class="cls-2" d="M118.7,515.31c-.65.1-1.31.4-1.97.45,1.18,1.23,2.81,1.61,4.26,2.33.51-.23.39-.98.12-1.27-.8-.85-1.55-1.01-2.42-1.51Z"/>
        <path class="cls-2" d="M96.18,516.38l-2.09,1.72c1.09,2.35,2.95.34,3.8.36-.33-.45-1.76-.7-1.72-2.08Z"/>
        <path class="cls-2" d="M65.04,505.38c.43.86,1.45.82,1.96,1.17l-1.6-3.36c-.13.66-.84,1.22-.35,2.18Z"/>
        <path class="cls-2" d="M80.09,496.91c-.42.01-.85-.12-1.27-.12-2.96,1.87.65,4.11,1.27.12Z"/>
        <path class="cls-2" d="M79.18,509.96c-1.01-.83-.94,1.34-1.11,1.49l.57.7c1.24-.91,1.82-1.09.54-2.19Z"/>
        <path class="cls-2" d="M131.73,536.08c.36-.28.89-.52,1.09-.84l-.57-.7c-.27.62-.54,1.23-.82,1.84.07-.11.17-.21.3-.31Z"/>
        <path class="cls-2" d="M130.62,538.23c.43-.73.53-1.21.82-1.84-.41.69-.54,1.29-.82,1.84Z"/>
        <path class="cls-2" d="M66.62,473.33c.07.21.36.24.98-.04.41-1.18.65-1.86.94-3.11-.75.77-2.11,2.6-1.92,3.15Z"/>
        <path class="cls-2" d="M72.52,482.09c-.31-1.39-1.97-1.49-1.82-.82.31,1.39,1.97,1.49,1.82.82Z"/>
        <path class="cls-2" d="M66.78,475.14l-.9-.4-1.18,2.13,1.26.11c.25-.62.58-1.22.82-1.84Z"/>
        <path class="cls-2" d="M60.91,486.24c0,.06,0,.13,0,.19l.97-.22c.25-.49.49-1.19.82-1.84-1.46-1.11-1.83.55-1.79,1.88Z"/>
        <path class="cls-2" d="M61.87,503.18c.6.26.84.07.7-.57l-.7.57Z"/>
        <path class="cls-2" d="M63.5,499.49c.6.26.84.07.7-.57l-.7.57Z"/>
        <path class="cls-2" d="M43.28,484.94c-.06.04-.11.09-.15.15-.18.28-.12.73.16,1.16.49.77,1.61,1.48,3.11,1.03.13-.04.65-.46.7-.57-1.48-1.26-2.51-1.78-3.16-1.88-.29-.05-.5,0-.65.1Z"/>
        <path class="cls-2" d="M63,482.08c-.16-.04-.32-.06-.41.02-.15.14-.19.27-.17.38.07.4,1.04.5,1.09.03.02-.18-.25-.36-.52-.43Z"/>
        <path class="cls-2" d="M63.81,480.24c-.16-.04-.32-.06-.41.02-.16.15-.19.27-.17.38.08.39,1.04.5,1.09.03.02-.18-.25-.36-.52-.43Z"/>
        <path class="cls-2" d="M65.15,478.83c.01-.15-.19-.31-.41-.4-.19-.08-.4-.1-.51,0-.16.15-.19.27-.17.38.08.39,1.04.49,1.09.02Z"/>
        <path class="cls-2" d="M72.02,514.69l-.38.31c.11.05.2.07.29.08.19.04.32,0,.38-.12.04-.08.06-.2.04-.35,0-.06,0-.11-.02-.19l-.32.26Z"/>
        <path class="cls-2" d="M31.45,486.19l-.44.36-.15.12-.11.09c.15.06.27.1.37.11.13.01.21-.02.27-.09.09-.1.12-.29.05-.59Z"/>
        <path class="cls-2" d="M106.53,485l-.7.57c.61.26.84.07.7-.57Z"/>
        <path class="cls-2" d="M128.87,496.21c-.03-.11-.16-.27-.62-.49l.57.7s.08-.08.04-.21Z"/>
        <path class="cls-2" d="M130.71,497.03c-.03-.11-.16-.27-.61-.49l.57.7s.07-.08.04-.2Z"/>
        <path class="cls-2" d="M132.62,497.88c-.03-.1-.18-.26-.68-.52l.57.7s.14-.05.11-.17Z"/>
        <path class="cls-2" d="M100.63,503.34c-.09-.09-.19-.17-.28-.26-2.29-2.21-5.45-3.08-8.25-4.39-2.38,1.56-.92,1.71.71,2.59,2.07,1.11,6.22,3.22,8.27,4.03.53-1.13.67-2.58.94-3.11l-.07.1c-.22.23-.97.7-1.32,1.05Z"/>
        <path class="cls-2" d="M90.49,495.33c1.67,2.5,4.73,2.78,7.37,3.26-1.48-1.22-5.4-5.5-7.37-3.26Z"/>
        <path class="cls-2" d="M97.87,498.6c.73.6,4.16,3.29,4.14,3.6.32-.62,2.26-1.13,1.8-2.06-1.75.24-3.65-2.32-4.6-2.43-.63-.07-1.2.91-1.34.89Z"/>
        <path class="cls-2" d="M88.49,498.22c.37-.3.3-.87-.66-1.85-.51-.18-2.32.7-3.11-.94-.02.27-1.39.9-1.38,1.15.02,1.22,4.18,2.42,5.16,1.64Z"/>
        <path class="cls-2" d="M74.86,504.74c.94,1.07,2.45,2.47,3.91,2.61.9-3.16-1.97-2.21-3.91-2.61Z"/>
        <path class="cls-2" d="M71.17,503.11c.65.47,1.01,1.33,2.06,1.75.71.28,1.36-.17,1.63-.12-1.78-2.02,1.44-2.73-3.69-1.63Z"/>
        <path class="cls-2" d="M134.36,498.86c.21.02.45-.37.47-.67,0-.1,0-.19-.06-.25-.19-.2-.35-.21-.47-.14-.32.19-.37,1.02.06,1.06Z"/>
        <path class="cls-2" d="M136.21,499.68c.11.01.21-.1.3-.23.15-.22.24-.55.11-.69-.2-.21-.36-.21-.49-.12-.24.18-.32.73-.11.95.06.03.14.06.18.09Z"/>
        <path class="cls-2" d="M138.05,500.5c.17.02.35-.25.43-.5.05-.16.06-.33-.02-.42-.31-.33-.54-.17-.65.1-.01.05-.03.12-.05.18-.05.29.03.61.29.64Z"/>
        <path class="cls-2" d="M139.89,501.31c.22.02.46-.39.47-.69,0-.09-.01-.18-.06-.23-.17-.18-.32-.21-.44-.16-.34.15-.41,1.04.03,1.08Z"/>
        <path class="cls-2" d="M141.74,502.13c.11.01.22-.1.31-.24.04-.06.07-.11.1-.18.07-.19.1-.4,0-.5-.27-.28-.47-.21-.6-.01-.03.05-.06.1-.08.16-.08.24-.06.53.08.68.05.05.11.09.19.09Z"/>
        <path class="cls-2" d="M73.61,470.66c.19.02.38-.28.44-.56.03-.14.04-.28-.04-.36-.24-.25-.43-.21-.55-.07-.24.27-.25.95.14.99Z"/>
        <path class="cls-2" d="M75.46,471.48c.15.01.3-.17.4-.38.09-.2.12-.43.01-.54-.23-.24-.41-.21-.53-.08-.25.26-.27.97.13,1Z"/>
        <path class="cls-2" d="M77.3,472.29c.15.01.31-.18.4-.41.08-.2.11-.41,0-.52-.18-.19-.33-.21-.45-.15-.34.17-.4,1.03.04,1.08Z"/>
        <path class="cls-2" d="M137.27,549.12c.39-.05.86.1,1.27.12.42.03.84.11,1.27.12.14.23.38.51.57.7.12.12.57.08.94.09.12,0,.24.01.33.03l.57.7c-.16.3,1.12,1.26-1.04.84-1.48-.28-2.23-1.17-3.34-1.9-.23-.15-.33-.5-.57-.7-.45.05-1.68.11-1.84.44.41.62.26,1.31.33,1.98,1.81-.64,2.13.4,3.11.94l.82.08c.21,0,.39-.01.45.04.19.2.45.46.57.7,3.16,3.65,2.48-2.39,2.78-2.29,3.2,3.6,2.63,1.27,3.81.35l-.78-.91c-1.79.33-2.51.44-3.48-1.42,1.32-2.43,2.43-2.42,1.18-5.65-1.97-.07-2.66.9-4.05,2.18-.22.55-.79,1.44-.82,1.84-1.15.07-2.15-.37-3.11-.94-.24-.14-.34-.52-.57-.7l-.57-.7c-.47.37-.93.76-1.38,1.15.91,1.31,2.36,1.96,3.56,2.9Z"/>
        <path class="cls-2" d="M1.31,525.01c.25.4.34,1.38,1.23,2.03,1.72,1.26,4.42,1.4,5.93,2.14l-.22-.98,1.73-1.43c.66,1.9.26,2.24-1.52,2.41,3,1.47,7.27,4.36,10.37,5.47.62.22,1.22.63,1.84.82,2.78.83,6.79-.22,9.47,1.43,1.51-.48,1.02-2.72,1.62-3.57-2.5-2.4-6.39-2.81-9.22-4.08-3.46-1.55-11.21-6.9-14.52-5.84-1.11.36-1.76,1.86-2.69,1.96-2.14.23-5.15-3.24-7.82-2.34.47.5,1.01,1.47,2.3,2.78.57-.61.91-.88,1.14-.94.16-.04.27.02.36.16Z"/>
        <path class="cls-2" d="M5.99,538.98c1.1,1.41,3.91,1.4,5.2,1.99.65.3,1.17.56,1.84.82-.24-.1-.41-.32-.54-.58-.49-.99-.24-2.74.2-2.64.97.4.94,2.36.6,3.01-.08.14-.16.25-.26.22,2.85,1.07,3.65,1.14,6.23,1.87,1.6-8.15-1.56-2-3-2.22.18-1.25-.86-2.89-.89-3.92-.03-.98,4.21,1.89,3.92-.9-.41-.2-.74-1.2-1.15-1.39-1.01-.48-3.33-.58-4.38-1.06-1.33-.61-2.61-1.64-4.26-2.33-.36,1.56,1.32,1.28,1.6,3.36-1.9,2.42-3.08,1.25-5.08-.47l-.68.56c.25.49,1.11,1.09,1.14,1.39.05.56-.84,1.84-.48,2.3Z"/>
        <path class="cls-2" d="M18.89,547.47l-2.09,1.72c2.52,1.19,5.29,3.4,8.07,2.7-1.71-3.28-3.37-3.34-5.98-4.42Z"/>
        <path class="cls-2" d="M3.18,540.57c-1.32-.6-1.29-1.86-2.85.01,1.87.73,11.53,6.24,12.22,6.27.11,0,1.68-.95,1.09-1.47-3.78-.9-7.01-3.24-10.46-4.81Z"/>
        <path class="cls-2" d="M25.84,539.11c-1.02-.77-2.36-.96-3.44-1.56-.37,2.24,2.46,1.95,3.57,2.9l.57.7c-.09-.12.26-1.31-.7-2.03Z"/>
        <path class="cls-2" d="M32.59,531.47c.88-.61,1.24-.7.82-1.84l.39-.91-.97.22c-1.99-1.38-5.82-1.89-8.07-2.69.05.01.14.09.26.2,1.02.98,4.46,5.25,7.57,5.03Z"/>
        <path class="cls-2" d="M24.76,526.24c-1.51-.53-4.31-4.07-5.08-.48,2.15,2.18,4.82.41,5.08.48Z"/>
        <path class="cls-2" d="M115.34,490.01c.28.03.62-.69.41-.92-.34-.36-.59-.14-.68.18-.09.31-.02.71.28.74Z"/>
        <path class="cls-2" d="M152.75,521.12c.62.25,1.22.57,1.84.82.55.22,1.37.12,1.84.82.11-.03,1.59.85,2.19.52,2.86-1.53-1.9-4.21-3.68-5.15-.91-.48-2.95-.26-3.98-1.8-.08-.18-.17-.35-.28-.52-1.31,2.09-2.93.28-.36,3.81.75.36,1.41,1.11,2.42,1.51Z"/>
        <path class="cls-2" d="M155.08,516.85c1.55.46,6.65,3.51,7.73,2.97,3.25-1.62-1.07-3.91-3.11-4.45-.65-.17-1.14-.24-1.57-.26-1.76-.09-2.04.82-3.63,1.05l.57.7Z"/>
        <path class="cls-2" d="M164.21,515.16c-.63-.65-1.29-.56-1.84-.82.69.38,1.13.55,1.84.82Z"/>
        <path class="cls-2" d="M150.81,514.52c.89.11,1.89,1.37,2.42,1.51l1.92-3.33c-1.2-.14-4.08-1.61-5.03-1.12-2.56,1.35.61,2.78.69,2.94Z"/>
        <path class="cls-2" d="M152.63,525.9c1.39-.67.42-2.3.57-2.82l-.57-.7c-5.48-1.76-6.09,3.25,0,3.52Z"/>
        <path class="cls-2" d="M115.36,624.56c-.33-.75-.08-.92.7-.57l2.21-2.99c-.27-.8-.04-.99.7-.57l2.21-2.99c-.32-.77-.08-.95.7-.57.14-.2-.1-1.1.48-1.56.66-.52,3.34-.45,6-.48,1.66-.32,3.41-.57,5.31-.68-.74-1.63-.12-2.15,1.39-1.15l2.66-1.03c-.43-2.72.16-3.25,2.78-2.3.24-.18.45-.4.7-.57.8-.59,1.55-1.65,2.66-1.03l2.78-2.3c.16-3.79,4.44-8.8,2.43-12.5-.14-.26-.31-.52-.53-.77-.8-.89-1.51-1.87-2.3-2.78-2.12.11-3.31-2.9-4.72-4.3.43-.42.95-.74,1.39-1.14,1.54-1.4,3.39-2.56,4.87-4.02.47-.46,1.11-1.06,1.83-1.73l7.55-7.12c1.25-1.27,2.23-2.4,2.64-3.14.29-.54.6-1.3.92-2.23.89-2.62,1.86-6.58,2.79-10.77,1.43-6.44,2.78-13.39,3.61-16.74-.35-.36-.62-.67-.84-.97.38-.02.68.25.84.97.26-1.05.68-2.07.94-3.11.92-3.7,2.1-7.48,2.36-11.31,2.23-3.77,4.9-13.94,3.66-18.23-.24-.13-.33-.57-.57-.7l-.77-.34c-.78-.3-1.7-.57-2.92-1.29-.24-.14-.33-.54-.57-.7l-3.11-.94c-.07-.22-.41-.42-.57-.7-.2.14-.36.87-.61,1.46-.13.29-.28.55-.47.67-.01,0-.03,0-.04.01-.51.24-1.21-.82-1.51-.79-.58.06-.21,2.85-3.83-.68l-.7.57c-.07-.19-.41-.55-.57-.7-.06-.05-.23-.05-.43-.04l-.84-.08c-1.8-.8-1.53-.58-3.11-.94-.85-.19-1.72.22-2.51-.16-.27-.45-.66-.94-1.18-1.47-.05-1.05,1.76-2.3-1.32-2.87-2.55-.47-3.52,1.47-5.26,1.32-1.06-.09-6.23-3.08-7.79-3.84-.65-.32-3.56.27-2.11-3.23,1.26-3.67,3.51-7.01,5.37-10.39l-1.32-1.45-50.68-23.35c-4.38,4.05-3.34,9.36-8.23,12.65,0,0-.02.01-.02.02,0-.01-.01-.03-.01-.04-.28-1.59-3.11-3.23-3.22-4.08-.06-.46,2.61-4.43-2.15-3.8-1.45.19-1.89,2.2-2.77,2.37-.82.15-4.78-1.71-6.6-.98.08-.25.63-.34.7-.57,1.05-3.89-2.03-4.38-5.29-4.99-.19-.23-.38-.47-.57-.7,0,.25-.01.45-.03.63-.05.49-.17.68-.36.6l.24-.76.15-.47c-.54-.6-1.22-.08-1.27-.12-.24-.18-.35-.55-.57-.7-1.8-1.15-2.49-1.05-3.69-1.63-2.05-1-4-2.17-6.11-3.14-.06-7.53,5.44-2,6.61-1.94.04,0,.08-.02.12-.06.26-.26.44-1.36.68-1.78-.5-1.33.83-1.65.82-1.84-.05-1-3.19-3.34-4.45-3.81-2.03-.76-4.64.43-5.76-.05-1.49-.65.59-2.15.96-3.58.1-.39.08-.78-.19-1.14,3,1.47,6.55,4.6,10.37,5.47.64-1.77,1.66-2.88,2.33-4.26.12-.25.58-.33.7-.57l.12-1.27c.11-.25.58-.33.7-.57l4.2-10.49c.36-.98,1.28-2.1,1.24-3.18,0-.06.02-.11.02-.17,0-.03-.02-.06-.03-.1-.29-.95-2.58-.68-.05-2.21.52.18.79.22,1.01.16.27-.07.48-.28.95-.62-1.22-2.61-12.55-6.04-15.21-8.49-.43.41-.98.72-1.39,1.15.09.24.91,1.24,1.15,1.39,1.35,3.48-2.41,3.17-2.9,3.57l-.7.57c-.23.18-.5.36-.7.57l.57.7c-1.77,2.73-3.06,5.69-4.66,8.53-.14.24-.56.33-.7.57l-.12,1.27c-.13.24-.56.33-.7.57l-2.39,5.43-.05.11c0,.09.19.18.46.28.73.25,2.11.49,2.64.65l.22.96s-.05,0-.08.01c-2.5.4-2.82-.28-3.31-.05-.29.14-.65.61-1.58,1.84-.18.24-.55.34-.7.57.19.38-.16,1.22-.12,1.27,2.92,3.24,10.2,1.87,6.2,8.92-3.22-1.45-6.18-5.27-8.89-.85-.45.73-1.44,2.75-1.35,3.43.22,1.62,11.52,6.23,13.78,7.36-.8,3.85-10.81,4.1-12.28,5.73-.86.97.85,6.32,2.06,7.39-.22.3-.58.44-.39.92.07.4.72.65.85,1.04.29.91.46,1.85,1.03,2.66l-.79,1.76c-1.42-.74-7.85-5-8.89-4.27-1.73,1.21,2.01,3.27,2.51,3.75l5.82,2.78c-1.7,1.79-4.08-1.17-5.25-2.09-1.83.83-3.29-1.43-4.7-1.49-.93-.04-.88,1.46-1.07,1.58,2.21.51,4.09,2.95,5.41,3.72.06.02.12.04.18.06,1.15.25,5.79-.11,1.77,3l-.92-.4c-.41.3-1.82-.3-1.67.78l2.7,1.88c-.34.33-1.12,1.07-1.39,1.15-.73.21-2.31-1.37-2.16-.24.02.17.08.39.19.69.63.17,1.23.6,1.84.82-.58,2.11-1.81,1.63-3.93.91-.22-.08-3.41-1.48-3.69-1.63-.66-.36-1.89-1.52-2.99-2.21-1.75-1.09-2.17-1.66-3.57-2.9,1.3-1.43.82-3.01,1.06-4.38-.45.4-.95.74-1.39,1.15-.23.21-.53.36-.7.57-.13.73.04,1.96-.24,2.54-.48,1-1.61,1.99-2.21,2.99-.39-.09-.86-.02-1.27-.12-.23.19-.46.4-.7.57l-1.97.45c-.26.15-.44.44-.7.57-1.7.87-3.13,2.47-5.32,2.06-.23.18-.49.37-.7.57l-1.63,3.69c-.16.24-.56.33-.7.57l-.12,1.27c-.13.25-.57.33-.7.57-1.83,6.52-5.17,12.42-8.16,18.45.27.79.03.98-.7.57l-.12,1.27c.27.79.03.98-.7.57l-.12,1.27c.27.79.03.98-.7.57-.36,3.71-3.71,8.78-5.64,13.16,0,0,0,0,0,0-.01.04-.02.07-.04.11-.15.48-.33.95-.46,1.43-.02.07-.03.14-.05.22-.32,1.15-.56,2.31-.8,3.46.25,8.16,6,20.66,6.97,29.62.14.45.26.91.4,1.36.81.79,2.67,1.57,3.69,2.28.77-.32.95-.08.57.7l1.27.12c.79-.26.98-.03.57.7l1.27.12c.79-.26.99-.03.57.7,10.82,3.75,21.03,8.97,31.36,13.87.79-.27.98-.03.57.7l1.27.12c.79-.27.99-.03.57.7l1.27.12c.79-.27.99-.03.57.7,10.82,3.75,21.03,8.97,31.36,13.87.79-.27.98-.03.57.7l1.27.12c.79-.27.99-.03.57.7l1.27.12c.79-.27.99-.03.57.7,11.38,4.15,22.34,9.34,33.2,14.69.79-.27.99-.03.57.7l1.27.12c.79-.27.99-.03.57.7l1.27.12c.79-.27.98-.03.57.7,2.23-.23,4.55,2.01,6.51,2.59.85.03,1.61-.12,2.26-.47ZM57.79,414.7c.82.42,2.66,1.18,3.69,1.63.18.13.28.25.3.37,1.87,2.31-.39.73-1.69.78l.4-.91c-1-.26-2.34-.33-2.54.42-.06.23-.02.53.18.94-.99-.11-1.87-.35-2.84-.6-.51-.73,1.09-1.2,1.11-1.49.03-.32-1.93-1.59.24-2.54.42.22.74,1.18,1.15,1.39ZM114.6,612.31c-.09,0-1.48-1.25-.8-1.67,2.79-.48,2.26,1.79.8,1.67ZM150.63,529.88c.86.47,1.6,1.03,2.42,1.51l-.57,1.31-.23.52c-.05-.05-.12-.09-.18-.14-.65-.6-1.42-1.08-2.26-1.36l.82-1.84ZM161.82,506.6c-.23-.18-.35-.5-.57-.7,1.42-2.22,10.98,3.43,7.61,4.23-2.69-.19-4.96-1.93-7.04-3.54ZM163.13,509.61l.7-.57c.14.64-.09.83-.7.57ZM165.87,531.33c-.08-.27-.5-.44-.57-.7.35-.42.36-1.59,1.18-1.94l.91.22c-.33.91-.88,1.69-1.51,2.42ZM163.64,539.04c-.39.33-.92.6-1.15.94-.43-.39-.73-1.08-1.15-1.39l.12-1.27c.69.54,1.36.95,2.11,1.34.1.05.2.12.31.17-.07.08-.15.15-.24.22ZM151.3,536.35c-.43-.31-1.71-.57-1.84-.82,1.19-1.41,2.75-1.11,1.84.82ZM167.5,527.64c-.37.52-1.31.27-1.27-.12.02-.23.32-.33.66-.26.21.05.44.15.61.38ZM160.67,505.21l-1.39,1.15c-.04-.12-.17-.32-.35-.54-.41-.51-1.05-1.19-1.37-1.55l.7-.57c2.46-.59,2.3,1.39,2.42,1.51ZM6.65,548.23l-.16-1.61-.98.22c-.1,0-.56,1.85-.8,1.84l-17.91-9.02c-1.01-2.36,5.56-12.02,6.67-14.47l-.45-1.97,1.39-1.15c.13-.28-.04-.92.12-1.27.12-.25.58-.33.7-.57.28-.59.55-1.24.82-1.84.27-.61.53-1.24.82-1.84.12-.25.58-.33.7-.57.28-.58.51-1.22.82-1.84,2.37-1.34,1.93-1.98,4.51-.21.5.34,1.62.29,1.98,1.14.39.93-.49,2.43-.49,3.49-1.35-.03-3.38.83-4.63,1.48.19.23.37.48.57.7.14.15-.02,1,.44,1.36,2.68,2.1,3.18.71,5.21-.18l2.08-1.73c-.91-.22-1.94-1.35-2.41-1.5,2.65-2.92,5.41-3.3,3.69,1.63-.25.17-.45.41-.7.57l10.49,4.2c-.08-.31.45-1.49.17-2.57-.13-.51-.43-1-1.08-1.36,3.56.71,6.61,2.77,9.58,4.06,1.46.63,7.22,2.33,7.72,2.71,2,1.52,1.35,3.27.79,5.2-.18.61-.57,1.24-.82,1.84-2.94,7.28-7.07,14.74-10.66,21.58-.86.37-15.82-5.97-17.43-7.02-1.16-.75-.68-1.22-.73-1.29ZM13.6,515.57c.59.47,1.56.81,2.42,1.51.23.18.35.5.57.7l9,3.09c.37-.1-.55-2.06-.68-2.94l1.27.12c.21.1.32.5.57.7.43.34,2.25,1.35,1.72,2.09-.24.34-1.96,0-1.96.45l1.07,1.3c.21.24.42.5.65.79-4-1.44-7.26-3.25-11.07-4.9-5.41-2.34-11.23-3.92-16.31-7.08l3.19-3.14c-.12-.1-.23-.2-.33-.31.13.06.24.16.33.31,1.63,1.3,4.06,2.17,4.26,2.33,1.96,1.47,3.22,3.34,5.29,4.99ZM33.71,513l1.38-1.14.15.18,1.54,1.87.03.04c-.48.24-.97.28-1.44.21-.53-.07-.99-.33-1.34-.75-.11-.13-.24-.24-.32-.41ZM44.92,509.58c-1.6,1.84-1.81.76-3.1-.94l.68-.56,1.85.8c.18.24.42.45.57.7ZM38.73,527.57l-2.54-.24c1.34-1.39,1.48-1.37,2.54.24ZM16.23,521.59c-2.15-.39-3.91-.87-5.53-2.45.2-.17.18-1.24.59-1.42,1.51-.69,4.15,2.48,6.04,2.39l-1.1,1.48ZM-6.29,559.49c-.35-1.62.04-7.27.8-8.27.4-.52,1.41,1.25,1.81.84.25-.26.2-1.27.5-1.57l1.15,1.39c-.98,2.49-1.56,6.85-4.26,7.6ZM-1.72,562.17c.13-1.39,2.66-1.14,2.53.24-.13,1.39-2.66,1.14-2.53-.24ZM1.64,560.56c4.92-.19,4.5,4.02,7.86-1.8.27,2.8-1.73,6.43-3.4,8.63,1.62-5.37-.9-4.09-4.46-6.83ZM9.43,569.31c-1.17-1.46.87-4.5,1.55-5.93.5-1.05.88-2.29,1.31-3.39l.59.06-.63,3.46c2.89,2.89,5.86,2.84,9.09,5.36-5,.7-10.09-7.32-11.91.46ZM94.08,602.38c-20.66-8.71-40.88-18.37-61.09-27.94-1.83-.86-5.18-1.47-7.15-2.28-1.24-.51-2.21-1.28-.46-1.96.42-.17,7.05,3.13,8.31,3.67,21.47,9.19,42.57,19.54,63.86,29.14l-3.46-.63ZM100.96,614.21c-1.11-2.18,2.39-5.58,2.27-6.87-.08-.88-1.4-1.72-1.42-2.03,0-.11,1.48-.34,1.99-.87,1.1-1.14,1.4-2.77,2.57-3.49-.97,4.55-2.75,9.4-5.41,13.25ZM107.57,608.86c-.5.21-1.31,1.91-1.85,2.61-.19.64-.14,1.34-.82,1.84l-.82,1.83c-1.27-1,.41-1.07.82-1.83.28-.52.29-1.17.82-1.84.36-1.19.51-2.68,1.06-4.38.55-1.73.59-3.87,2.09-5.25,1.63.76-.56,3.76-1.39,4.67l3.56,2.9c-.84,1.22-2.02-1.15-3.46-.55ZM111.6,532.26l-1.06,1.5-.78-2.32c-2.15,3.18-1.23-1.1-2.34-.75-.37.12-1.64,2.96-3.2-1.7l-1.06,1.5-.78-2.32c-.92,1.86-3.64.94-3.36-1.28-1.09.07-.78.47-1.39,1.14l-.78-2.32-1.06,1.5c-1.35-4.83-1.95,1.56-2.63-3.14l-1.06,1.51-1.31-3c-1.46-.48-1.67.23-2.38,1.36-1.86-6.16-5.14-2.62-5.54-2.64-1.62-.07-3.48-4.12-5.3-4.78l-.23,2.51c-.92-.56-2.14-1.84-3-2.19-1.08-.44-5.39-.89-5.53-2.45l1.67-.76c-.41-.21-1.45-.3-1.56-.5-2.65-1.76-14.55-5.37-15.47-7.51.69-4.59,3.49-8.15,4.59-12.75-1.7,2.98-3.42,4.26-3.93,7.92-1.25.1-6.12-3.62-6.71-3.81-.2-.06-.86.75-3.81-.36-3.15-1.18-6.07-2.96-9.22-4.08-.4-.42-.56-.76-.57-1.17,0-.24.02-.49.11-.8,1.45.26,2.2,1.69,1.88-.66-.05-.35,1.47-2.24,1.6-2.21.28.07.21,1.9,3.57,2.9l-.57-.7v-.31s-.1-1.94-.1-1.94l1.9.16-6.97-4.17c4.37-1.45,6.34,5.1,8.3.15l-6.09-3.14c.93-.37,2.92.03,3.8.37,1.56.6,4.16,2.46,5.41,3.72.07-.42,1.76-1.82,1.22-2.79-.21-.39-2.92-1.32-3.97-1.96-.4-.03-.91.04-1.27-.12-.21-.09-.32-.5-.57-.7-1.92-1.5-1.58-1.95-1.72-2.09l10.88-4.37c1.66-2.5-6.06-10.96-2.71-14.08,4.3,2.05,8.93,4.12,12.8,6.98,1.41-.66,1.57-1.94,2.2-2.99,6.53,1.68,6.3,2.11,5.05,7.53.41-.42.73-.72,1-.95,1.55-1.33,1.15.04,2.23.62,1.29-5.42,8.22-.85,7.38,3.26,1.59.69,3.03,1.79,4.26,2.33,1,.44,2.74.19,3.72,1.57l.78-1.78.79,2.32,1.06-1.51c2.19,5.55,10.19,5.33,14.52,9.05l.23-2.51,3.2,3.82,1.06-1.5.79,2.32,1.06-1.51c.69,2.17,1.53,2.39,2.88,3.48.08-.22.17-.36.25-.53,1.18-2.41,2.76-.44,3.44,2.16,3.46,1.11,6.57,3.3,9.8,4.78l-.44-1.97.67-.56c1.48,1.65,3.67,1.7,5.54,2.44,3.62,1.42,10.16,3.25,10.83,7.44.2.18.43.47.57.7,1.95-1.62,3.49-1.44,5.78-.09.24.14.33.55.57.7l-.7.57-.12,1.27c-.24.58-.54,1.29-.82,1.84-1.5,3.08-3.62,7.72-5.47,10.37l.57.7c1.13-1.56,2.91-3.8,3.72-5.41.57-1.14.62-3.66,1.75-4.96.76.7,6.89,3.33,6.79,2.57-.3-.5-.88-.91-1.14-1.39,2.52-2.72,2.01-1.03,3.24-.33,2.17,1.23,6.85,3.03,8.25,4.32.51.47.73.83.74,1.09,0,.17-.07.3-.2.39-.52.38-1.93.25-2.92-.12.86.9,1.62,1.61,1.31,3-.18.82-4.5,10.31-5.3,12,1.31-1.38,1.52-1.38,2.53.25l-2.53-.25c-.7,1.48-2.51,3.03-3.02,4.84-1.33-.71-2.94-.86-3.98-1.97-.64-.97,1.18-.5,1.68-.81.5-.31.91-.79,1.38-1.15,0-.87-3.78-2.52-4.83-3.02l-.99-.09c-.12,0-.22,0-.28-.03-.25-.1-.33-.6-.57-.7-1.44-.57-3.51-.64-4.96-1.75-.09.07-.88-.75-1.26-.13,1.38,1.66,3.52,2.61,5.4,3.73l-.82,1.84c-.35-.15-1,.02-1.27-.12-8.47-4.6-5.4-3.21-2.96-9.25.27-.66.16-1.78.24-2.54-.61.85-1.06,1.83-1.91,2.49l-.87-.19c.15-.31.04-.88.12-1.27-.98,1.17-2.51,1.73-1.63,3.69-.18.22-.48.38-.7.57-.44.4-.94.75-1.39,1.15-.01.35.29,1.71.45,1.97,2.19-1.03,1.74.74,1.84.82l-.98.21c-.26-.37-.62-.66-.86-1.03-2.39,1.53-2.5,4.75-3.84,6.68,5.46,3.22,11.45,5.38,17.18,8.04,1.21.56,2.53,1.06,3.69,1.63,1.45.72,2.83,1.58,4.26,2.33l.57.7c-2.35,4.5-12.34,28.98-14.13,30.4-2.12,1.69-10.25-3.69-12.66-4.76-1.29-.58-2.33-.97-3.69-1.63-2.89-1.42-12.78-4.63-13.18-7.67-.24-1.87,10.34-19.06,10.66-23.01l3.08.93c.48-.76.32-2.25.61-2.82-2.21,3.81-2.53,1.32-6.38-.54l-.78,1.77-.78-2.32c-1.87,2.85-1.32-.6-3.95-1.97l-.8,1.84c-.66-1.71-1.64-2.35-2.88-3.48-.45,3.49-3.51.1-3.44-1.29Z"/>
        <path class="cls-2" d="M255.64,792.2s-.08-.05-.14-.05l-2.5,2.11.38,1.13c.49-.23,1.29-.36,1.82-.53.21-.07.38-.14.48-.23.08-.08.66-2.17-.04-2.43Z"/>
        <path class="cls-2" d="M278.68,676.63l-1.15.39c.79.41.9.53,1.15-.39Z"/>
        <path class="cls-2" d="M177.51,844.07c.35.17,1.12-.57.96-.96-.51-1.23-1.68.6-.96.96Z"/>
        <path class="cls-2" d="M189.03,844.02c-.02.23.24.84.39,1.15l.93-.96-1.32-.19Z"/>
        <path class="cls-2" d="M209.26,809c1.37-1.76,4.11-2.76,5.38-4.35.71-.88-.08-2.02.23-2.59.11-.2.36-.34.87-.36,0,.02.02.04.03.06.32.91,1.17,1.33,1.91,1.83-1.57-1.91-3.01-4.28-4.63-6.13-3.79,6.45-8.14,5.01-3.8,11.54Z"/>
        <path class="cls-2" d="M237.54,786.11c2.7-2.55,5.69-5.97,8.48-8.74.91-.91,1.79-1.89,3.06-2.33.28-.91-2.28-1.38-3.07-1.51l-11.27,12.15c.38,2.46,1.33,1.82,2.81.43Z"/>
        <path class="cls-2" d="M235.3,775.92c-.17.46.93,2.42,1.13,3.41,1.97-2.41,4.7-4.02,6.88-6.17,4.04-3.98,2.77-3.24,4.2-6.54-1.7,1.25-11.94,8.58-12.21,9.3Z"/>
        <path class="cls-2" d="M228.72,775.52c-2.75,3.79-5.89,5.36-8.03,7.82-1.25,1.44.09,2.27.4,3.73l9.56-9.63c-.56-.21-1.29-1.47-1.93-1.91Z"/>
        <path class="cls-2" d="M262.24,774.15c-.83.61-4.68,1.69-6.24,2.42-.08,4.98-1.56,2.46-3.27,5.6-.77,1.41,0,2.71-.15,3.25l13.19-14.08c-1.22-4.34-3.31,2.65-3.52,2.81Z"/>
        <path class="cls-2" d="M244.81,789.71c-1.37,1.35-8.13,6.97-4.48,8.8,2.23-1.83,6.58-5.94,8.8-8.1-1.14-4.65-1.27-3.7-4.33-.71Z"/>
        <path class="cls-2" d="M273.25,761.81c-1.29,1.49-3.28,1.65-4.23,3.96.72-.21,2.17.67,4.04-.32.87-.46,5.57-4.05,4.19-5.64-3.61-4.17-3.79,1.76-4,2Z"/>
        <path class="cls-2" d="M231.82,780.88l-1.15.39-.26.52c-.15.39-.29.8-.5,1.02-.25.25-.87.13-1.15.39-.21.52-.39,1.12-.76,1.54-1.46,1.65-3.3,2.48-5.36,3.1l2.32,3.06c.76-1.02,2.22-1.51,3.05-2.32,3.3-3.18,2.8-4.72,3.81-7.7Z"/>
        <path class="cls-2" d="M228.39,789.73c-2.63,5.58.74,3.69,1.55,4.6l5.73-5.79-7.29,1.19Z"/>
        <path class="cls-2" d="M262.53,732.35c2.29-2.57.18-1.54-1.71-2.27-1.79,1.63-2.72,3.32-4.17,4.74-.44.43-1.8-.22-1.96-.11,1.8,5.52,5.9-.19,7.84-2.36Z"/>
        <path class="cls-2" d="M219.6,775.72c.41-.98-.79-2.39-.87-3.24-1.63.93-2.59,2.08-3.99,3.11-.91.68-2.5.24-2.52.36-1.03,5.67,6.52,1.82,7.38-.23Z"/>
        <path class="cls-2" d="M277.42,752.68c-5.01,3.75-4.1,2.16-8.8,8.1,4.07-2.94,5.74-3.42,8.8-8.1Z"/>
        <path class="cls-2" d="M222.58,776.31c-3.26,1.88-8.19,3.01-5.35,6.93,3.77-2.25,5.38-3.11,5.35-6.93Z"/>
        <path class="cls-2" d="M262,737.37c.06-.03.11-.05.17-.08,1-.34,6.04-.94,7.49-3.81.1-.27-1.38-1.5-1.92-1.89-3.03.79-4.15,4.31-5.74,5.78Z"/>
        <path class="cls-2" d="M258.95,743.53c2.14-2.58,2.73-5.45,3-6.06.02-.03.04-.06.05-.1-1.96,1.82-4.82,3.89-7.27,5.03.82,1.63,2.7,1.51,4.22,1.12Z"/>
        <path class="cls-2" d="M226.01,767.46c2.03-.97,1.89-1.34,3.06-2.32,5.32-4.43,6.22-6.83,8.79-11.94l-1.15.39-.24.48c-.16.38-.3.8-.52,1.06-4.3,4.82-9.9,7.92-13.39,13.49-3.67,1.54-4.21-.17-3.83,3.85,1.58-.9,5.72-.47,7.28-5.02Z"/>
        <path class="cls-2" d="M262.11,768.1c2.48-2.72,4.02-4.19,6.5-7.32-1.6,1.16-4.14,1.64-5.7,3.43-1.66,1.91-.67,3.74-.8,3.89Z"/>
        <path class="cls-2" d="M228.71,771.68c1.19-.66,1.4-1.52,1.91-1.93,1.81-1.46,5.29-2.72,4.41-5.96l-4.8,4.81c-.06-.39-.35-.76-.39-1.15l-3.44,5.01c-2.58,1.32-3.88-1.63-3.83,3.85,1.3-.75,4.77-2.61,6.52-3.48l-.39-1.15Z"/>
        <path class="cls-2" d="M252.06,749.7c.78-1.09,2.04-1.56,3.06-2.32.36-1.15,1.15-3.58-.58-3.64l-5.56,4.44c.25,1.42,2.74,1.14,3.07,1.51Z"/>
        <path class="cls-2" d="M236.85,792c-1.89,1.25-4.48,2.32-6.52,3.48.59.63,1.26,1.39,1.93,1.91,4.08-2.26,4.01-1.65,4.59-5.39Z"/>
        <path class="cls-2" d="M263.3,779.23l-.93,2.9,4.84-3.69.73-.56.52-.4-3.25-.18c-.64.62-.95,1.19-1.91,1.93Z"/>
        <path class="cls-2" d="M256.24,739.3l-3.07-1.51c-1.51,1.63-2.38,1.69-3.06,2.32,2.29,3.01,3.7.56,6.14-.8Z"/>
        <path class="cls-2" d="M278.13,735.78c-1.45.6-2.02,1.46-3.06,2.32-.18.87-.13,1.84-.37,2.69,2.12-.89,3.38-2.76,4.98-4.24-.04-.75-1.04-.97-1.54-.76Z"/>
        <path class="cls-2" d="M265.57,766.93l1.16,3.45c3.48-.23,1.84-3.55,2.28-4.61-.72.21-1.72,1.87-3.44,1.16Z"/>
        <path class="cls-2" d="M236.76,800.8c1.3-.13,1.73-1.43,2.42-1.9l-4.99.4c.76.48,1.13,1.64,2.58,1.49Z"/>
        <path class="cls-2" d="M232.58,779.34c.92,4.62,5.48,1.15.76-1.54-.19.54-.56,1.01-.76,1.54Z"/>
        <path class="cls-2" d="M249.32,785.23c-1.53.87,1.23,1.83,1.34,2.12l1.15-.39c-.55-1.99-.49-2.81-2.49-1.73Z"/>
        <path class="cls-2" d="M306.91,729.91l-1.15.39c.64.64,1.28,1.28,1.93,1.91-.11-.13-.18-.32-.24-.52-.18-.59-.23-1.37-.54-1.78Z"/>
        <path class="cls-2" d="M307.69,732.22c.67.85,1.37,1.29,1.93,1.91-.72-.89-1.26-1.25-1.93-1.91Z"/>
        <path class="cls-2" d="M197.21,783.41c.29,0,.47-.33.43-1.25-1.28-1.08-2.03-1.71-3.47-2.68.6,1.32,2.25,3.91,3.04,3.93Z"/>
        <path class="cls-2" d="M211.07,780.2c-1.9-.28-2.83,1.76-1.91,1.9,1.9.28,2.83-1.76,1.91-1.9Z"/>
        <path class="cls-2" d="M199.57,784.07l-.93.94,2.11,2.51.75-1.53c-.67-.61-1.25-1.32-1.93-1.91Z"/>
        <path class="cls-2" d="M209.2,793.64c-2.1,1.3-.19,2.56,1.5,3.15.08.03.16.06.24.09l.19-1.32c-.5-.55-1.26-1.19-1.93-1.91Z"/>
        <path class="cls-2" d="M232.09,802.58l.39,1.15c.62-.64.49-1.02-.39-1.15Z"/>
        <path class="cls-2" d="M228.23,798.75l.39,1.15c.62-.64.49-1.02-.39-1.15Z"/>
        <path class="cls-2" d="M200.78,817.47c-.2.35-.24.63-.18.87.02.1.06.18.12.26.27.36.86.5,1.54.36,1.21-.24,2.64-1.31,2.79-3.41.01-.18-.27-1.04-.39-1.15-2.29,1.26-3.44,2.3-3.89,3.07Z"/>
        <path class="cls-2" d="M207.28,791.72c-.21-.11-.57.15-.79.44-.13.18-.23.37-.17.52.11.26.25.36.39.39.53.1,1.13-1.07.56-1.35Z"/>
        <path class="cls-2" d="M205.35,789.81c-.21-.11-.57.15-.79.44-.13.18-.23.37-.16.52.11.27.25.37.4.39.53.09,1.13-1.08.56-1.36Z"/>
        <path class="cls-2" d="M202.87,789.26c.53.09,1.12-1.08.55-1.36-.19-.09-.49.09-.71.33-.19.21-.32.46-.25.64.11.27.25.37.4.39Z"/>
        <path class="cls-2" d="M251.89,796.05c-.08-.02-.14-.05-.24-.07l.18.52.21.63c.12-.12.18-.22.24-.32.14-.22.14-.4.03-.54-.08-.09-.22-.17-.42-.22Z"/>
        <path class="cls-2" d="M196.87,834.97c.15-.15.25-.29.31-.42.08-.15.07-.28.01-.39-.09-.17-.31-.29-.72-.35l.25.73.08.25.06.18Z"/>
        <path class="cls-2" d="M231.09,738.83l.39,1.15c.62-.64.49-1.02-.39-1.15Z"/>
        <path class="cls-2" d="M256.14,716.25s-.09-.12-.21-.14c-.16-.02-.42.07-.91.54l1.15-.39s-.02-.01-.03-.02Z"/>
        <path class="cls-2" d="M258.05,714.33s-.08-.12-.21-.13c-.16-.02-.42.07-.92.53l1.15-.39s-.02-.01-.03-.02Z"/>
        <path class="cls-2" d="M259.82,712.2c-.14-.01-.41.11-.98.61l1.15-.39s.01-.2-.17-.22Z"/>
        <path class="cls-2" d="M251.31,755.07c-.16.07-.3.16-.46.23-3.88,1.82-6.49,5.37-9.49,8.27.81,3.74,1.7,1.98,3.6.35,2.4-2.07,7.04-6.27,9.05-8.46-1.16-1.21-2.93-2.08-3.47-2.68l.09.13c.18.39.42,1.56.69,2.16Z"/>
        <path class="cls-2" d="M236.37,763.96c3.95-.9,5.77-4.62,7.65-7.7-2.25,1.27-9.51,4.14-7.65,7.7Z"/>
        <path class="cls-2" d="M248.81,749.52c-.54,2.31-4.67,3.47-5.27,4.62-.39.75.57,1.95.47,2.11,1.1-.63,6.14-3.65,6.52-3.48-.63-.7-.33-3.38-1.73-3.25Z"/>
        <path class="cls-2" d="M236.38,767.81c-.47.56-.23,3.26-2.68,3.47.33.15.47,2.18.78,2.29,1.54.56,5.05-4.09,4.55-5.7-.19-.61-.95-.8-2.65-.06Z"/>
        <path class="cls-2" d="M245.84,784.49c-3.54-2.65-3.73,1.42-5.17,3.66,1.8-.67,4.29-1.89,5.17-3.66Z"/>
        <path class="cls-2" d="M240.68,788.15c-3.4,1.27-2.74-3.12-3.83,3.85.9-.59,2.16-.63,3.19-1.75.7-.76.44-1.79.64-2.1Z"/>
        <path class="cls-2" d="M261.9,710.49c.13-.26-.25-.75-.61-.92-.13-.06-.25-.08-.35-.04-.34.14-.43.33-.4.52.09.49,1.1.96,1.36.43Z"/>
        <path class="cls-2" d="M263.62,708.75c.08-.04.16-.1.2-.19.06-.13-.02-.31-.14-.49-.21-.3-.57-.57-.82-.47-.36.15-.44.35-.39.55.1.39.77.76,1.15.59Z"/>
        <path class="cls-2" d="M264.79,706.69c.34.2.78.26.94-.06.1-.21-.14-.56-.43-.78-.18-.14-.38-.24-.54-.17-.57.23-.47.6-.18.87.06.04.14.1.2.15Z"/>
        <path class="cls-2" d="M267.64,704.71c.13-.26-.27-.77-.64-.93-.12-.05-.23-.07-.32-.03-.31.13-.42.3-.41.47.03.51,1.11,1.02,1.38.48Z"/>
        <path class="cls-2" d="M268.46,702.74c.26.21.64.33.89.23.09-.04.16-.1.21-.19.07-.13-.02-.32-.15-.5-.06-.08-.11-.14-.18-.21-.2-.19-.45-.32-.63-.24-.48.2-.49.5-.3.75.05.06.1.12.17.17Z"/>
        <path class="cls-2" d="M196.73,772.5c-.17-.11-.34-.18-.47-.13-.43.18-.47.43-.35.66.23.43,1.08.77,1.31.29.11-.23-.17-.62-.49-.83Z"/>
        <path class="cls-2" d="M199.14,771.4c.09-.18-.07-.46-.29-.68-.21-.21-.48-.35-.67-.27-.41.17-.46.41-.36.63.2.45,1.08.81,1.32.32Z"/>
        <path class="cls-2" d="M201.05,769.47c.09-.18-.08-.48-.32-.7-.21-.19-.46-.33-.65-.26-.32.13-.43.31-.41.49.05.5,1.11,1,1.37.47Z"/>
        <path class="cls-2" d="M326.5,730.99c.13-.52.54-1.04.76-1.54.23-.52.55-1.01.76-1.54.35-.06.82-.23,1.15-.39.21-.1.38-.68.57-1.14.06-.15.13-.3.2-.4l1.15-.39c.3.34,2.12-.81.56,1.72-1.07,1.72-2.54,2.24-3.99,3.29-.3.21-.8.18-1.15.39-.15.59-.67,2.17-.33,2.53.97-.22,1.77.31,2.64.53.07-2.58,1.53-2.49,2.68-3.47l.49-1c.09-.27.17-.5.27-.54.34-.14.8-.34,1.15-.39,6.12-2.22-1.82-4.27-1.54-4.59,6.06-2.29,2.86-2.7,2.28-4.63l-1.52.55c-.45,2.41-.65,3.37-3.46,3.7-2.42-2.82-1.88-4.23-6.54-4.2-1.03,2.44-.15,3.78.79,6.14.59.54,1.43,1.69,1.93,1.91-.46,1.48-1.5,2.53-2.68,3.47-.29.23-.82.18-1.15.39l-1.15.39c.24.77.51,1.54.78,2.29,2.08-.51,3.6-2.03,5.36-3.08Z"/>
        <path class="cls-2" d="M239.48,883.4l-1.34-.2-.97-2.87c2.71.09,2.94.75,2.3,3.07,3.29-3.06,8.97-7.05,11.87-10.41.58-.68,1.38-1.23,1.91-1.93,2.38-3.1,2.98-8.64,6.35-11.23.12-2.13-2.94-2.59-3.71-3.76-4.22,1.99-6.61,6.68-9.57,9.64-3.61,3.6-14.07,10.78-14.33,15.45-.09,1.57,1.49,3.11,1.17,4.33-.74,2.8-6.55,4.92-6.71,8.71.85-.35,2.33-.57,4.6-1.55-.49-1.01-.67-1.57-.64-1.88.02-.23.16-.33.38-.37.62-.12,1.9.23,3.14-.57,2.41-1.56,3.88-4.89,5.54-6.42Z"/>
        <path class="cls-2" d="M250.62,891.23c2.3-.71,3.64-4.25,5-5.58.69-.67,1.27-1.2,1.91-1.93-.25.26-.61.36-.99.4-1.48.14-3.56-1.02-3.23-1.52.97-1.03,3.42-.05,4.07.69.15.17.23.32.15.44,2.72-3.08,3.18-4.04,5.35-6.93-9.49-5.93-3.27.99-4.23,2.71-1.48-.83-4.05-.31-5.36-.77-1.24-.43,4.4-4.38.75-5.36-.44.42-1.86.36-2.3.78-1.09,1.04-2.32,3.91-3.44,5.01-1.4,1.38-3.32,2.49-4.98,4.24,1.79,1.2,2.25-1.04,4.99-.4,2.14,3.55.1,4.47-3.04,6.17l.38,1.12c.74-.07,1.9-.88,2.3-.76.73.21,1.91,1.95,2.66,1.71Z"/>
        <path class="cls-2" d="M275.94,873.68c-4.94.57-5.82,2.63-8.43,5.4l1.16,3.45c2.71-2.59,6.81-5.01,7.27-8.85Z"/>
        <path class="cls-2" d="M262.36,884.67c-2.95,4.33-7.45,7.26-11.09,10.84-1.39,1.37-2.96.73-1.35,3.59,1.81-2,13.39-11.5,13.77-12.35.06-.13-.39-2.57-1.33-2.08Z"/>
        <path class="cls-2" d="M256.72,869.9c2.64,1.55,3.64-2.16,5.37-3.09l1.15-.39c-.19.06-1.52-.96-2.9-.1-1.46.91-2.34,2.5-3.62,3.58Z"/>
        <path class="cls-2" d="M232.62,897.25c0,.35-.8.98-.48,2.07.36,1.23,1.32,1.72,2.03,2.53l2.49-4.05c-2.7-.31-3.03,4.01-4.05-.56Z"/>
        <path class="cls-2" d="M253.97,854.16c-.34-1.4-.28-1.89-1.93-1.91l-.96-.93-.19,1.32c-2.7,1.84-5.18,6.41-7.27,8.86.04-.05.18-.13.38-.23,1.72-.81,8.75-3.09,9.96-7.11Z"/>
        <path class="cls-2" d="M240.58,867.65c3.78-1.65,2.84-5.86,3.05-6.16-1.39,1.64-7.19,3.47-3.05,6.16Z"/>
        <path class="cls-2" d="M240.55,730.14c.35.26.89.37,1.07,0,.17-.35-.57-1.12-.96-.96-.62.26-.46.68-.1.95Z"/>
        <path class="cls-2" d="M298.73,698.06c.61-.67,1.3-1.26,1.91-1.93.54-.59.81-1.66,1.91-1.93,0-.15,1.83-1.59,1.71-2.51-.55-4.33-6.2.36-8.24,2.15-1.05.92-1.74,3.58-4.18,4.14-.26.01-.52.04-.8.11,2,2.65-1.05,3.82,4.62,2.29.81-.76,2.07-1.24,3.06-2.32Z"/>
        <path class="cls-2" d="M293.34,693.48l1.15-.39c1.32-1.73,7.61-6.68,7.45-8.3-.47-4.87-5.44-.54-7.09,1.77-.53.74-.85,1.32-1.08,1.85-.96,2.17.05,2.96-.43,5.06Z"/>
        <path class="cls-2" d="M294.83,682.72c.8-.68,1.24-1.16,1.91-1.93-1.12.47-1.32,1.35-1.91,1.93Z"/>
        <path class="cls-2" d="M289.31,691c-.75,1.45-3.99,4.36-3.82,5.78.46,3.86,3.79.57,4.02.55.57-1.07,2.63-1.71,3.06-2.32l-3.27-4.02Z"/>
        <path class="cls-2" d="M301.42,698.44l-1.15.39c-4.84,6.04,1.15,9.22,4.42,1.69-.18-2.07-2.68-1.64-3.27-2.07Z"/>
        <path class="cls-2" d="M410.84,794.83c-1.09.05-1.2-.34-.39-1.15l-2.7-4.22c-1.13-.05-1.26-.43-.39-1.15l-2.7-4.22c-1.12.03-1.23-.36-.39-1.15-.18-.27-1.44-.41-1.73-1.36-.34-1.08,1.04-4.41,2.28-7.78.39-2.24.93-4.56,1.7-7-2.4.15-2.76-.88-.78-2.3v-3.84c-3.64-.76-4.03-1.76-1.57-4.6-.12-.39-.28-.76-.39-1.15-.35-1.29-1.33-2.74-.01-3.84l-1.55-4.6c-4.69-2.03-8.94-9.82-14.56-9.07-.4.05-.81.14-1.22.29-1.51.58-3.08,1-4.6,1.55-.88,2.72-5.24,2.76-7.68,3.87-.32-.74-.47-1.55-.77-2.3-1.02-2.62-1.6-5.49-2.72-8.06-.36-.82-.8-1.9-1.29-3.13l-5.32-12.92c-1-2.18-1.94-3.96-2.68-4.83-.53-.63-1.35-1.38-2.36-2.23-2.86-2.38-7.39-5.51-12.2-8.69-7.41-4.9-15.5-9.93-19.31-12.59-.62.27-1.15.45-1.62.58.16-.48.64-.74,1.62-.58-1.19-.83-2.27-1.84-3.47-2.68-4.21-2.94-8.4-6.24-13.09-8.4-3.67-4.62-15.18-12.86-21.17-13.37-.28.24-.87.14-1.15.39l-.8.81c-.75.84-1.53,1.86-3.03,3.05-.3.24-.84.16-1.15.39l-2.68,3.47c-.32-.02-.72.31-1.15.39.08.32.92.87,1.54,1.47.3.3.55.61.61.92,0,.02,0,.04,0,.06.06.76-1.61,1.13-1.72,1.52-.21.76,3.49,1.63-2.7,4.49l.39,1.15c-.28,0-.89.25-1.15.39-.09.05-.17.27-.26.52l-.5,1.02c-1.87,1.88-1.47,1.64-2.68,3.47-.64.97-.55,2.27-1.41,3.08-.7.12-1.5.37-2.41.77-1.35-.44-2.04-3.32-4.24.29-1.82,2.98.15,5.13-.87,7.25-.62,1.29-6.87,6.36-8.57,7.95-.71.67-1.37,4.61-5.07,1.1-4-3.35-7.13-7.79-10.48-11.75l-2.47.97-53.73,52.5c2.99,7.45,10.17,8.7,11.95,16.44,0,.01,0,.02.01.04-.02,0-.04,0-.06,0-2.13-.41-5.56,2.36-6.67,2.09-.61-.15-4.32-5.41-5.81.88-.45,1.91,1.87,3.43,1.65,4.62-.2,1.1-4.45,5.18-4.41,7.83-.27-.22-.12-.96-.39-1.15-4.39-3.2-6.48.45-8.82,4.26-.38.12-.77.25-1.15.39.32.12.57.24.78.34.59.3.78.54.58.74l-.84-.67-.52-.41c-1.01.39-.69,1.49-.76,1.54-.35.22-.86.17-1.15.39-2.32,1.71-2.51,2.63-3.83,3.85-2.25,2.09-4.65,3.99-6.89,6.17-9.5-3.55.1-7.8.74-9.24.02-.05.01-.11-.01-.17-.2-.45-1.5-1.21-1.91-1.72-1.91-.01-1.67-1.83-1.93-1.91-1.28-.41-5.73,2.4-6.93,3.76-1.93,2.18-1.69,6.05-2.84,7.22-1.54,1.56-2.42-1.78-4.04-2.93-.44-.32-.94-.47-1.53-.31,3.29-3.07,8.93-6.03,11.87-10.41-1.91-1.66-2.82-3.47-4.24-4.98-.25-.27-.13-.89-.39-1.15l-1.54-.76c-.25-.26-.13-.89-.39-1.15l-11.18-10.33c-1.06-.92-2.02-2.62-3.41-3.09-.07-.02-.13-.08-.21-.1-.05-.01-.09,0-.13-.01-1.33-.1-2.1,2.92-2.8-1,.47-.56.66-.88.69-1.2.04-.37-.13-.74-.32-1.49-3.86.28-13.63,12.88-18,15.04.31.74.44,1.58.78,2.3.35,0,2-.55,2.3-.78,5.03-.02,2.82,4.55,3.09,5.37l.39,1.15c.11.37.22.81.39,1.15l1.15-.39c2.58,3.54,5.68,6.58,8.49,9.96.24.29.15.86.39,1.15l1.54.76c.24.28.15.86.39,1.15l5.68,5.62.12.12c.12.04.32-.15.57-.45.66-.79,1.63-2.42,2.09-3.01l1.31.18s-.02.07-.02.1c-.7,3.34-1.71,3.41-1.66,4.14.04.44.45,1.11,1.55,2.86.22.35.17.86.39,1.15.57-.06,1.46.79,1.54.76,5.48-2.11,7.26-11.93,14.2-3.51-3.38,3.35-9.6,5.24-5.34,10.77.71.92,2.77,3.13,3.67,3.34,2.14.51,13.37-11.49,15.88-13.79,4.45,2.86-.05,15.57,1.31,18.2.8,1.55,8.35,1.96,10.28.97.27.43.27.94.97.94.54.1,1.17-.59,1.72-.56,1.29.08,2.55.31,3.84-.01l1.83,1.84c-1.61,1.43-10.06,7.47-9.65,9.12.69,2.76,5.08-.96,5.93-1.36l6.3-5.98c1.43,3-3.44,4.57-5.15,5.59.17,2.71-3.38,3.45-4.13,5.2-.5,1.15,1.41,1.81,1.47,2.11,1.7-2.54,5.68-3.73,7.28-5.02.05-.07.11-.13.16-.2.86-1.32,2.64-7.34,4.62-.78l-.94.97c.18.66-1.25,2.14.18,2.47l3.66-2.49c.25.58.81,1.93.78,2.3-.09,1.02-2.84,2.25-1.34,2.6.22.05.53.08.97.09.51-.71,1.34-1.26,1.91-1.93,2.38,1.75,1.18,3.07-.75,5.38-.2.24-3.51,3.58-3.83,3.85-.77.66-2.82,1.65-4.22,2.7-2.21,1.67-3.13,1.93-5.37,3.09-1.17-2.32-3.4-2.48-5.01-3.44.29.76.48,1.55.78,2.3.15.39.2.85.39,1.15.85.51,2.48.89,3.08,1.53,1.02,1.08,1.73,2.98,2.7,4.21-.31.45-.45,1.07-.76,1.54.13.38.28.76.39,1.15l-.37,2.69c.07.39.35.76.39,1.15.28,2.55,1.6,5.12.03,7.68.12.38.22.8.39,1.15l3.85,3.83c.23.31.15.86.39,1.15l1.54.76c.24.29.14.87.39,1.15,7.32,5.44,13.14,12.48,19.27,19.13,1.13.05,1.25.43.39,1.15l1.54.76c1.13.05,1.25.43.39,1.15l1.54.76c1.13.05,1.26.43.39,1.15,4.49,2.24,9.25,8.88,13.83,13.42,0,0,0,0,0,0,.04.03.08.07.12.1.53.41,1.04.88,1.58,1.27.08.06.17.11.25.17,1.3.95,2.63,1.81,3.97,2.67,10.37,3.61,28.87,2.38,40.6,5.47.63.05,1.26.11,1.9.15,1.38-.64,3.26-2.6,4.64-3.54-.03-1.12.36-1.23,1.15-.39l.76-1.54c.05-1.12.43-1.25,1.15-.39l.76-1.54c.05-1.12.43-1.25,1.15-.39,9.92-11.81,21.4-22.14,32.53-32.76.05-1.13.43-1.26,1.15-.39l.76-1.54c.05-1.13.43-1.26,1.15-.39l.76-1.54c.05-1.13.43-1.26,1.15-.39,9.92-11.81,21.4-22.14,32.53-32.76.05-1.13.43-1.26,1.15-.39l.76-1.54c.05-1.13.43-1.26,1.15-.39l.76-1.54c.05-1.13.43-1.26,1.15-.39,10.69-12.31,22.5-23.61,34.44-34.69.05-1.13.43-1.26,1.15-.39l.76-1.54c.05-1.13.43-1.26,1.15-.39l.76-1.54c.05-1.13.43-1.26,1.15-.39.78-2.91,4.72-4.76,6.39-6.94.44-1.05.62-2.08.49-3.07ZM119.23,766.31c.91-.83,2.77-2.78,3.83-3.85.25-.17.45-.23.61-.2,3.81-1.24.73.84.17,2.51l-.95-.94c-.8,1.13-1.53,2.78-.7,3.4.26.19.66.29,1.27.23-.62,1.2-1.35,2.19-2.11,3.28-1.16.29-.99-1.95-1.34-2.12-.39-.19-2.93,1.66-3.08-1.53.48-.42,1.84-.36,2.3-.78ZM284.84,679.68c-.34.2-.8.2-1.15.39-2.11-2.86,9.59-12.16,8.98-7.53-1.53,3.3-4.81,5.31-7.83,7.15ZM289.25,679.47l-.39-1.15c.88.13,1.01.52.39,1.15ZM282.47,682.94c-.84.26-2,.75-2.61.98l-.39-1.15c.43-3.37,2.86-2.22,3.06-2.32l.78,2.3c-.17-.01-.48.07-.84.18ZM325.99,692.9c.12-.11.24-.19.36-.3.07.12.11.26.16.4.23.65.31,1.44.63,1.89-.7.35-1.71.4-2.3.78l-1.54-.76c1.01-.61,1.85-1.26,2.69-2.01ZM317.2,707.22c-.6.38-1.54,1.87-1.91,1.93-1.21-2.18-.07-3.98,1.91-1.93ZM317.89,686.47c-.38-.02-.79.42-1.15.39-.36-.64-1.82-1.21-1.88-2.42l.71-1.04c.99.85,1.71,1.92,2.32,3.06ZM313.28,684.19c-.28-.14-.26-.57-.01-.95.16-.25.4-.48.78-.59.48.72-.28,1.78-.76,1.54ZM313.47,704.67c-1.07.54-2.05,1.27-2.8,2.18l-1.93-1.91c1-.85,2.06-1.51,3.06-2.32l1.37,1.35.55.54c-.09.04-.17.11-.26.15ZM224.56,899.97l-.78-2.3c-.29-.3-1.18-.39-1.54-.76-.25-.26-.13-.89-.39-1.15-.61-.63-1.29-1.28-1.93-1.91-.64-.64-1.3-1.26-1.93-1.91-.25-.27-.14-.88-.39-1.15-.6-.63-1.29-1.23-1.93-1.91-.54-3.63-1.56-3.37,1.9-5.77.67-.46,1.14-1.9,2.38-1.94,1.36-.04,2.82,1.78,4.15,2.3-.69,1.69-.58,4.65-.36,6.53.38-.13.78-.23,1.15-.39.25-.1,1.24.5,1.92.1,3.93-2.37,2.42-3.66,2.29-6.64l-1.18-3.45c-.72,1.04-2.63,1.79-3.05,2.31-2.4-4.74-1.55-8.39,3.83-3.85.1.39.3.76.39,1.15l10.33-11.18c-.43-.04-1.66-1.28-3.15-1.46-.7-.08-1.46.05-2.23.71,2.61-4.14,6.66-6.98,9.71-10.1,1.49-1.53,6.4-7.95,7.12-8.4,2.87-1.78,4.76-.13,6.92,1.51.69.52,1.28,1.31,1.93,1.91,7.74,7.2,15.13,15.98,22.02,23.78.05,1.26-15.11,17.03-17.2,18.55-1.5,1.09-1.86.26-1.97.3l-2.1-.57-.2,1.34c-.05.12,2.06,1.6,1.93,1.89l-19.96,18.19c-3.46.14-12.44-12.77-14.99-15.35l-2.69-.37ZM252.02,844.57l-1.53,3.08c-1.1-2.35-1.01-2.53,1.53-3.08ZM233.9,840.44l.06-.02c.07.72-.12,1.36-.42,1.91-.35.63-.89,1.09-1.59,1.33-.22.08-.42.18-.66.21l-.77-2.29.3-.1,3.09-1.04ZM232.34,867.88l1.34,2.1c-1.52,2.52-2.97,4.51-5.74,5.78-.12-.34-1.46-.83-1.5-1.43-.14-2.22,5.12-4.03,5.91-6.45ZM230.21,867.3c-5.54,5.68-10.32,12.23-16.75,17.11l-2.42-5.52c-.18.11-.36.19-.55.27.14-.13.31-.23.55-.27,2.41-1.43,4.68-4.06,4.98-4.24,2.79-1.75,5.75-2.44,8.82-4.26.87-.51,1.77-1.57,3.06-2.32.34-.2.79-.21,1.15-.39l8.22-9.83c.06-.51-2.86-.3-4.03-.56l.76-1.54c.24-.22.78-.17,1.15-.39.63-.38,2.78-2.17,3.45-1.16.31.46-.95,2.47-.38,2.68l2.15-.72,1.31-.44c-3.73,4.34-7.58,7.56-11.48,11.56ZM232.37,828.12c1.55,2.9.09,2.64-2.67,3.45l-.37-1.13,1.9-1.94c.39-.11.76-.32,1.15-.39ZM270.51,916.53c-2.21-.34-9.12-3.54-10.01-4.99-.46-.75,2.25-1.17,1.93-1.87-.21-.45-1.5-.86-1.73-1.38l2.3-.78c2.66,2.43,7.86,5.25,7.51,9.01ZM276.08,912.07c-1.68-.83-.16-3.89,1.52-3.06,1.68.83.16,3.89-1.52,3.06ZM275.67,907.07c2.13-6.28,7.22-3.73,1.51-10.75,3.65,1,7.26,5.27,9.23,8.42-5.98-4.62-5.57-.83-10.74,2.33ZM290.42,901.48c-2.39.77-5.24-3.26-6.72-4.8-1.08-1.13-2.46-2.21-3.64-3.27l.36-.72,4.05,2.45c5.02-2.25,6.39-6,11.11-8.86-1.52,6.63-14.05,9.16-5.15,15.2ZM292.96,755.17l1.37,2.06-3.29-.13c2.96,4.24-1.98,1.02-2.07,2.58-.03.52,2.93,3.48-3.67,3.2l1.38,2.06-3.29-.13c1.89,2.06-.57,5.03-3.22,3.62-.43,1.41.22,1.2.77,2.3l-3.29-.13,1.38,2.06c-6.72-.63,1.03,3.2-5.21,1.8l1.38,2.05-4.4.21c-1.31,1.61-.51,2.21.57,3.65-8.64-.63-5.77,5.21-5.98,5.69-.87,2-6.86,2.4-8.56,4.37l3.05,1.5c-1.15.89-3.35,1.8-4.2,2.72-1.07,1.14-3.71,6.35-5.74,5.77l-.16-2.47c-.46.42-1.08,1.68-1.38,1.72-3.48,2.49-13.75,15.72-16.89,15.85-5.45-3.07-8.57-8.31-13.82-11.9,2.93,3.57,3.71,6.35,8.07,8.76-.48,1.61-7.49,5.96-8.02,6.61-.18.22.53,1.44-2.29,4.62-3,3.39-6.64,6.21-9.57,9.64-.72.3-1.22.33-1.74.15-.3-.1-.6-.26-.95-.53,1.02-1.7,3.18-1.95.07-2.68-.46-.11-2.11-2.92-2.01-3.07.22-.32,2.48.65,5.36-3.1l-1.15.39-.4-.13-2.49-.83,1.12-2.31-8.6,6.75c.28-6.19,9.47-5.52,4.18-10.37l-6.88,6.15c-.02-1.35,1.44-3.66,2.29-4.61,1.51-1.67,5.1-4.05,7.28-5.02-.49-.3-1.44-3.09-2.92-2.88-.59.08-3.06,3.04-4.38,4.06-.22.49-.39,1.16-.76,1.54-.21.22-.78.16-1.15.39-2.81,1.7-3.21,1.05-3.45,1.16l-.26-15.78c-2.34-3.29-16.7,2.34-19.01-3.36,4.65-4.43,9.48-9.25,14.93-12.74-.15-2.09-1.69-2.91-2.7-4.2,5.26-7.41,5.68-6.9,11.9-2.73-.33-.71-.56-1.27-.72-1.72-.93-2.59.61-1.43,1.85-2.51-6.19-4.23,2.89-10.75,7.65-7.71,1.63-1.66,3.71-2.95,4.98-4.24,1.03-1.05,1.56-3.36,3.77-3.93l-1.86-1.83,3.29.13-1.39-2.05c8.03-.08,11.6-10.26,18.37-13.91l-3.05-1.5,6.35-2.19-1.38-2.06,3.3.13-1.39-2.05c3.06.18,3.75-.78,5.75-1.95-.24-.21-.37-.38-.55-.57-2.46-2.65.77-3.68,4.37-3.28,3.05-3.81,7.31-6.68,10.72-10.02l-2.69-.4-.38-1.12c2.78-1.07,3.9-3.8,5.73-5.79,3.53-3.86,8.97-11.22,14.56-10.04.32-.16.8-.32,1.15-.39-1.1-3.23-.13-5.08,2.66-7.31.3-.24.85-.16,1.15-.39l.39,1.15,1.54.76c.61.58,1.36,1.3,1.93,1.91,3.15,3.37,7.97,8.26,10.41,11.87l1.15-.39c-1.42-2.17-3.38-5.49-5.02-7.28-1.16-1.27-4.31-2.54-5.39-4.59,1.25-.63,7.5-7.06,6.5-7.31-.78.14-1.57.67-2.3.76-2.21-4.48-.32-3.02,1.14-4.23,2.58-2.14,7.1-7.15,9.4-8.3.84-.42,1.39-.51,1.73-.41.22.07.34.23.4.44.22.83-.61,2.55-1.56,3.62,1.55-.65,2.8-1.26,4.41-.2.95.62,10.8,10.61,12.54,12.43-1.11-2.31-1-2.58,1.53-3.07l-1.53,3.07c1.52,1.59,2.6,4.62,4.63,6.13-1.53,1.33-2.5,3.28-4.39,4.06-1.52.33-.06-1.73-.21-2.5-.15-.77-.56-1.53-.78-2.29-1.09-.43-4.99,3.54-6.12,4.62l-.59,1.2c-.05.15-.1.27-.17.34-.25.26-.91.13-1.15.39-1.41,1.54-2.49,4.11-4.59,5.39.04.14-1.36.75-.77,1.52,2.75-.94,4.97-3.18,7.28-5.01l1.93,1.91c-.36.36-.45,1.27-.76,1.54-9.85,8.44-6.63,5.25-13.06-.72-.7-.65-2.16-1.06-3.08-1.53.77,1.18,1.78,2.21,2.21,3.6l-.66,1c-.32-.34-1.09-.47-1.54-.76,1,1.8.96,3.98,3.85,3.83.19.34.24.78.39,1.15.3.75.49,1.55.78,2.3.44.18,2.3.46,2.69.37-.24-3.25,1.76-1.83,1.91-1.93l-.2,1.34c-.58.15-1.13.47-1.71.59.77,3.73,4.77,5.43,6.56,8.04,6.68-5.32,12.27-11.82,18.37-17.73,1.28-1.25,2.55-2.67,3.83-3.85,1.6-1.48,3.35-2.79,4.98-4.24l1.15-.39c4.52,5.12,30.51,29.45,31.44,32.39,1.11,3.48-9.57,11.12-12.07,13.63-1.34,1.35-2.34,2.47-3.83,3.85-3.17,2.95-11.98,13.85-15.98,12.88-2.47-.59-19-22.18-23.81-24.47l2.65-3.43c-.72-.97-2.68-1.48-3.25-2.12,3.72,4.61.44,3.82-3.75,7.77l1.86,1.83-3.29-.13c2.69,3.72-1.39,1.37-4.37,4.02l1.93,1.89c-2.47,0-3.75.93-5.76,1.95,4.17,2.24-1.57,4.46-3.28,3.71ZM372.72,810.92c-20.89,21.79-42.76,42.57-64.52,63.4-1.96,1.88-4.34,5.8-6.31,7.9-1.23,1.31-2.67,2.16-2.69-.36,0-.61,7.32-7.36,8.61-8.69,21.87-22.58,45.05-44.14,67.36-66.29l-2.45,4.05ZM383.36,801.8c-1.15-.32-2.84.94-3.23.82-.14-.04.29-2.03-.13-2.92-.91-1.93-2.8-3.09-3.15-4.91,5.26,3.4,10.5,7.98,14.06,13.18-3.28.35-5.87-5.69-7.55-6.16ZM391.67,802.58c-.52-.6-1.33-.93-1.93-1.91-1.32-1.02-3.12-1.93-5.01-3.44-1.92-1.53-4.58-2.61-5.59-5.15,1.75-1.69,4.46,2.51,5.21,4l5.36-3.08c1.13,1.65-2.42,1.99-2.35,4.08.02.74,1.77,2.57,2.39,3.59.71.55,1.62.82,1.93,1.91l1.91,1.91c-1.87,1.12-1.15-1.03-1.91-1.91ZM395.07,789.89c-.05.11-2.29,1.26-2.48.21.74-3.75,3.34-1.99,2.48-.21Z"/>
      </g>
    </g>
  </g>
</svg>