<?xml version="1.0" encoding="UTF-8"?>
<svg id="_레이어_2" data-name="레이어 2" xmlns="http://www.w3.org/2000/svg" xmlns:xlink="http://www.w3.org/1999/xlink" viewBox="0 0 399 1000">
  <defs>
    <style>
      .cls-1 {
        fill: none;
      }

      .cls-2 {
        fill: #e6e7e8;
      }

      .cls-3 {
        clip-path: url(#clippath);
      }
    </style>
    <clipPath id="clippath">
      <rect class="cls-1" width="399" height="1000"/>
    </clipPath>
  </defs>
  <g id="Layer_1" data-name="Layer 1">
    <g class="cls-3">
      <g>
        <path class="cls-2" d="M260.76,131.52c.03.18-.03.38,0,.56l.45,1.8c.05.17.09.31.11.43.03.18-.03.38,0,.56.91.48.53,1.9.56,2.79.03.18-.03.38,0,.56l.42,1.67c.06.22.11.42.14.57.03.18-.03.38,0,.56l.41,1.64c.06.23.12.43.15.59.06.35-.06.77,0,1.12l.41,1.64c.06.23.12.44.15.6.03.18-.03.38,0,.56l.41,1.62c.06.23.12.45.15.61.03.18-.03.38,0,.56l.41,1.63c.06.23.12.44.15.61.06.35-.07.77,0,1.12l.4,1.58c.07.25.13.47.16.65.03.18-.03.38,0,.56l.39,1.58c.07.25.13.48.16.66.06.35-.07.77,0,1.12l.4,1.58c.07.25.13.47.16.65.03.18-.03.38,0,.56l.39,1.58c.07.25.13.48.16.66.03.18-.03.38,0,.56l.39,1.57c.07.25.13.48.17.67.07.35-.07.77,0,1.12l.38,1.54c.07.27.14.52.17.7.03.18-.03.38,0,.56l.39,1.56c.07.25.13.48.17.67.04.18-.04.38,0,.56.67.81.34,2.04,1.68,1.68.17-.07.41.07.56,0v-.56c-1.36-3.72,4.98-5.03,7.24-6.45,1.44-.9,5.8-4.66,6.08-6.25.35-1.95-2.14-5.56-3.52-6.88-1.8-1.71-2.12-.14-3.65-1.39-.39-1.82,2.84-2.44,1.68-5.86-.46-1.34-.52-.95-1.12-1.68-1.03-1.26-2.69-2.12-3.35-2.79-.27-.27-.53-1.06-1.12-1.68-2.4-2.51-3.48-4.2-5.65-6.92-.6-.75-1.63-.63-1.61-1.46,5.53,1.97,12.61-6.89,10.61-11.73h2.79c-.73,1.97-.52,3.36,0,5.34.24.92-.57,1.63,1.12,1.35l-.28-2.23h1.96c.4-.91-1.73-2.19-1.11-2.79.11-.1,2.48-.7,2.79-.91.46-.32.46-1.34.87-1.37,1.24-.07,2.25,1.88,3.6,1.71.39-1.43-.73-3.25-.56-4.47,1.13-.21,1.93,1.47,2.51,1.51.33.02.71-.97,1.79-.59,1.03.37,1.27,2.71,2.4,1.59l-1.07-3.51s.09.02.13.03c.93.83.67.93,2.06,1.52.83.36,4.14,1.83,3.92.28-.2-1.4-3.79-5.11-5.04-5.31.69-2.11,2.21-1.46,1.2-4.23,0-.07,0-.15,0-.22,5.83.87,3.77-1.19,5.21-2.77,2.41-2.66,6.58.07,8.39,2.2l-.28-2.79c.66.38,1.66.48,2.2.87,1.06.77,3.88,4.87,4.94,5.25,1.24.45,3.25.03,4.59.58-1.09-2.66.4-2.07.56-2.61.15-.47-.09-1.06,0-1.3.2-.55.03-.75.56-1.68l1.12.56c.03.19.77.18.28.6-.15.13-.41.29-.84.52.72.11,1.53.53,2.24.56l-.28,2.24c.44-1.25,1.25-1.53,1.96-2.24.52-.53,2.05-1.23,2.19-2.03.3-1.65-4.77-2.36,1.71-4.11.28.38-.37,3.67-.55,4.47h1.12c.3-1.12.82-2.05.56-3.36,1.15-.28,2.39.54,3.35.56-1.28,2.83,1.84,2.83.56,0,1.39-.18,2.35-1.66,3.4-1.43.67.15,1.57,1.17,2.35,1.55,2.01.97,2.52,1.54,3.89,2.3.58.32,4.1,1.74,4.32,1.49.39-2.37-1.46-3.78-2.36-5.73-.45-.96-.23-2.08-.54-2.83-.35-.86-1.5-.78-1.61-1.31-.09-.46.02-8.4.07-9.31.14-2.3,2.15-4.89,2.21-6.28.06-1.33-1.25-1.98-1.15-3.25.06-.82,1.04-1.73,1.31-2.66.98-3.37,1.13-4.21-1.29-6.89,3.73-1.93.47-1.81-.28-3.08-.34-.58-1.53-5.08-1.47-5.86.12-1.33,2.61-1.66,3.6-1.43.23.05,2.36,3.46,2.6,3.95,1.07,2.16,1.52,4.43,2.23,6.7.53,1.69.37,4.15,2.23,5.59-.05-.36.06-.77,0-1.12-.03-.18.03-.38,0-.56l-.56-1.68c-.04-.18.04-.38,0-.56l-.56-1.12c-.04-.18.04-.38,0-.56l-.56-1.12c-.05-.17.05-.39,0-.56l-.56-1.12c-.09-.31.09-.81,0-1.12l-.56-1.12c-.05-.17.05-.39,0-.56l-.56-1.12c-.05-.17.05-.39,0-.56h-.56c0-.37.01-.75,0-1.12,0-.18.03-.39,0-.56l-.56-1.12c-.04-.18.04-.38,0-.56-1.06-.88-.86-2.2-1.12-3.35-.04-.18.04-.38,0-.56l-.56-1.12c-.04-.18.04-.38,0-.56l-.56-1.12c-.05-.17.05-.38,0-.56-1.06-.88-.86-2.2-1.12-3.35-.04-.18.04-.38,0-.56l-.56-1.12c-.05-.17.05-.39,0-.56l-.56-1.12c-.06-.17.06-.39,0-.56-.49-1.27-.97-1.73-2.24-2.23-.18-.03-.38.01-.56,0-.61-.04-1.4.18-1.68-.56-.17-.04-.37.03-.56,0-2.31.46-3.66,3.5-3.91,5.59-.09.7.02,1.51,0,2.23,1.02,1.28.55,3.84.56,5.59,0,.74,0,1.49,0,2.23,1.02,1.28.55,3.84.56,5.59,0,.74,0,1.49,0,2.23,1.02,1.28.55,3.84.56,5.59,0,.74,0,1.49,0,2.23,1.02,1.28.55,3.84.56,5.59,0,.74.02,1.49,0,2.23,1.72,2.99-.23,4.05-2.55,4.75-.83.34-1.84.62-3.04.84-.17.06-.39-.05-.56,0l-1.12.56c-.17.05-.38-.05-.56,0l-1.12.56c-.18.04-.39-.05-.56,0-.91,1-3.22,1.97-4.45,1.42l-23.49-22.65c-.31-.09-.79.08-1.12,0l-2.23-.56c-.18-.03-.38.02-.56,0l-2.23-.56c-.35.02-.91-.08-1.12,0l-1.12,2.79c-.05.17.05.39,0,.56l-.56,1.68c-.03.18.03.38,0,.56-.17,1.14,0,1.94.45,2.95.59,1.04,1.42,2.48,2.33,4.06,2.16,3.34,5.05,7.28,6.72,9.76.07.08.13.15.18.21.48.49,1.44,1.1,1.49,2.02-1.34.36-1.57-1.1-2.23-1.67-5.74-4.96-13.95-10.39-19-15.64.85,2.19,2.4,4.11,3.74,6.01,1.01,1.43,3.47,2.41,2.41,4.61l1.67-.56c-.9,3.3-.32,1.61,1.8,2.96,2.95,1.88,2.56.64,4.46,1.51.64.3.64,1.15,1.02,1.36,1.27.71,2.7-.5,2.22,1.98.11.24,1.49-.64,1.64-.54,1.06.69,2.09,5.11,2.54,6.13.99,2.21,2.73,4.27,3.08,6.96-.23,1.21-2.7.51-3.48.23-.37-.13-2.75-.91-2.89-1.01-.56-.39-.21-2.81-3.13-2.29-.18-.38.28-1.38-.54-1.96-1.37-.96-5.25-.05-3.37-3.62-1.83.46-3.44.91-5.22-.12-2.86-1.65-6.91-4.2-9.6-6.58-1.75-1.54-6.44-5.5-3.06-6.99-1.35-1.23-2.57-2.15-2.23-4.19-.97.06-.14,1.35-1.11,1.11v-1.67c.51-.2,1.04.56,1.11.56,1.27-.07,3.24-1.74,4.78-.63-.16-.51.25-.99.24-1.04-.02-.24-.96-1.13-.55-1.68.11-.15.77.53,1,.41.23-.12-.07-1.85,1.79-.4.06-.78.62-1.35,0-2.23-1.01-.49-2.57-.45-3.35-1.68-.17-.02-.39-.02-.56,0-3.28.33-8.75,7.12-12.29,8.38-.03.93.04,1.87,0,2.79-.24,5.13,0,10.49,0,15.64,2.14.67,2.2,3.99,0,3.91.21,3.2.2,6.3.02,9.34,0,.89,0,1.79,0,2.68-.01.94.36,2.48-.57,3.06-.03.18.03.38,0,.56,0,.02-.04.09-.08.17l-1.03,2.07c-.06.17.06.39,0,.56-.04.1-.11.24-.2.4l-.92,1.83c-.06.17.06.39,0,.56l-1.12,2.23c-.05.17.04.38,0,.56-.19.93-.56,1.82-.56,2.79.02.37-.04.75,0,1.12l.56,2.23ZM338.43,49.66c2.52.51.26-4.22,4.46-2.23,2.81,1.33.97,5.02,1.21,6.59.18,1.21,1.97,2.16,1.58,3.74-3.54.43-2.03-3.67-2.25-3.89-.09-.09-.97.1-1.44-.21-1.04-.7-2.57-3.06-3.55-4ZM342.05,89.07c1.97-.03-.34,4.89-.27,5.83.07,1.03,1.21,2.11,1.11,2.81-.13.94-1.51.75-2.1.14-.22-.23-1.7-3.08-1.69-3.38,0-.92,2.17-5.39,2.95-5.4ZM292.32,118.67v-.56s.02.01.03.02c.32.18.32.36-.03.54ZM300.71,105.26c.08.04.13.08.18.12.16.15.1.29-.18.44v-.56ZM277.74,149.65c.81.85-.12,1.83-1.05,1.94-.31.04-.62-.02-.85-.22-1.08-.9-.1-1.32,0-1.98-1.2-.28-2.44-.1-3.34-1.4,1.13-1.33,3.54.15,3.34,1.4.09.02.55-.53,1.12-.27.36.16.6.34.78.52ZM266.07,94.09c1.51-.34,1.91,2.48.54,2.79-1.51.34-1.91-2.48-.54-2.79Z"/>
        <path class="cls-2" d="M338.37,85.92c.28-.1.47-.19.53-.29.08-.12.12-.35.14-.63-.15.33-.38.63-.67.92Z"/>
        <path class="cls-2" d="M296.68,81.52c1.7,2.88,3.42,5.72,4.31,6.91.18-.57-2.02-3.65-4.31-6.91Z"/>
        <path class="cls-2" d="M300.98,88.49s-.07-.06-.11-.08l.11.09s0,0,0,0Z"/>
        <path class="cls-2" d="M345.68,46.04c-.05-.25-.11-.47-.19-.68.03.19.09.41.19.68Z"/>
        <path class="cls-2" d="M285.57,165.56c-1.03,1.36-2.74,2.97-4.14,3.96-1.29.91-2.3,1.09-3.35,1.68l.56.56h.56c.17-.04.4.06.56,0l.56-.56c.17-.06.4.06.56,0,.25-.22.51-.58.78-.84.11-.11.23-.21.34-.27.88-.44,2.37-.75,3.35-1.12.16-.06.39.06.56,0,1.2-1.29,2.89-1.67,4.47-2.23.16-.06.39.06.56,0,.85-1.13,2.14-1.27,3.35-1.68.17-.06.4.06.56,0,1.2-1.31,2.91-1.65,4.47-2.23.16-.06.4.06.56,0,1.2-1.31,2.91-1.65,4.47-2.23.16-.06.4.06.56,0,1.2-1.31,2.91-1.65,4.47-2.23.16-.06.39.06.56,0,1.2-1.29,2.89-1.67,4.47-2.23.16-.06.39.06.56,0,.85-1.13,2.14-1.26,3.35-1.68.17-.06.39.06.56,0,.7-.8,1.82-1.31,2.79-1.68.08-.03.18-.02.29,0h.27c.17-.06.39.06.56,0l.56-.56c.16-.06.4.06.56,0l1.12-1.12c-1.06.26-3.33,1.04-3.91,1.12-3.45.46-8.75-1.93-11.17-.26-1.25.86-2.07,2.99-3.9,3.91-1.25.63-4.62,1.89-6.04,2.34-2.06.65-11.03,2.03-11.75,2.49-.23.15-1.86,3.81-2.67,4.88Z"/>
        <path class="cls-2" d="M332.27,148.28c.17-.04.4.06.56,0l.56-.56c.17-.06.4.06.56,0,.83-1.19,2.24-1.21,3.35-1.68.16-.07.4.07.56,0l.56-.56c.15-.07.41.08.56,0,1.79-.93,3.14-1.9,4.47-3.35.29-.32.98-.49,1.12-1.12-.49-.05-.84.45-1.12.56-3.97,1.51-7.94,3.35-12.29,3.36-.15,1.34,1.53,2.14.56,3.35h.56Z"/>
        <path class="cls-2" d="M363,106.38c0,3.31.23,6.84,1.12,10.06.64-.83,1.82-1.59,2.23-2.79,0-.18.02-.38,0-.56-1.06-.88-.86-2.2-1.12-3.35-.04-.18.04-.38,0-.56l-.56-1.12c-.05-.18.05-.39,0-.56l-.56-1.12c-.06-.17.07-.41,0-.56-.16-.33-.55-.65-.56-1.12v-.56c.01-.18.01-.38,0-.56l-.56-1.12-.56.56c.13,1.03-.47,2.73.56,3.35Z"/>
        <path class="cls-2" d="M329.98,146.8c.77-2.42-1.75-2.5-2.43-3.57-1.01-1.59-2.29-6.21-3.66-7.93-.54-.68-5.04-3.01-5.02-3.5.04-.71,2.19-.5,1.39-1.4-1.08-1.25-2.44-1.23-3.64-1.67-1.27-.47-3.08-2.58-4.47,0l3.35.56c-1.04.4-2.28.85-3.35,1.12-.59.15-2.15-1.12-2.79,1.11h1.68c-.66.55-1.31,1.11-1.96,1.68l-.54-1.12c-3.05,1,.1,3.23.49,5.71.19,1.2-.27,2.16-.15,2.9.96,5.99,3.22,9.35,9.68,9.3,1.74-.01,10.97-1.76,11.42-3.18Z"/>
        <path class="cls-2" d="M304.24,117.95c.49,3.63-.85,3.63,1.78,7.98.27.45.47,1.1,1.11,1.12.03-.55-.03-1.12,0-1.68.15-2.7-.42-11.19-1.62-13.17-.3-.5.29-1.11-1.17-.81.47,1.51-1.1,3.1-1.09,4.19,0,.92.89,1.63.99,2.36Z"/>
        <path class="cls-2" d="M293.72,135.44l3.91,2.23,2.23-2.79c-.78-.29-1.04-1.14-2.46-1.11-1.94.04-1.74,2.03-3.68,1.68Z"/>
        <path class="cls-2" d="M323.33,111.41c-.61-.61-1.72.5-1.11,1.11.61.61,1.72-.5,1.11-1.11Z"/>
        <path class="cls-2" d="M355.19,80.12l.55-.56v-.56c-.02-.18.03-.38,0-.56-.25-.09-.5-.3-.56-.56-.04-.18.04-.38,0-.56-.04-.18.03-.38,0-.56h-.56c.17,1.15.2,1.21.56,2.23.09.27-.07.76,0,1.12Z"/>
        <path class="cls-2" d="M299.31,136c0,.08.02.17.07.26.21.45.89,1,1.05.85.25-.23.14-.86-.26-1.12-.08-.01-.19-.04-.32-.1-.11,0-.24,0-.38.06-.05.02-.1.02-.16.05Z"/>
        <path class="cls-2" d="M290.37,91.29h.83c3.07-2.23-1.15-3.54-.83,0Z"/>
        <path class="cls-2" d="M168.93,551.7l1.91-1.38c.3-.23.58-.44.82-.59.43-.28,1.08-.33,1.52-.61l1.87-1.35c.32-.25.62-.47.85-.62.23-.14.53-.16.76-.3l1.91-1.38c.3-.23.58-.44.82-.59.22-.15.54-.15.76-.3.73-1.35,2.59-1.56,1.36-3.18-.18-.19-.13-.59-.3-.76l-.76.3c-4.31,3.86-9.52-4.02-12.67-6.32-2-1.46-9.46-5.34-11.77-4.86-2.83.58-6.38,5.92-7.41,8.5-1.35,3.36.96,2.95.1,5.7-2.26,1.52-4.84-2.53-8.85.9-1.58,1.35-1,1.22-1.67,2.42-1.16,2.08-1.41,4.8-1.97,6.06-.22.51-1.15,1.3-1.67,2.42-2.11,4.62-3.82,6.99-6.32,11.42-.69,1.22.03,2.55-1.1,2.97-.33-8.57-16.18-13.37-21.66-8.03l-1.51-3.78c3.07-.08,4.85-1.12,7.25-2.89,1.12-.82,2.52-.11,1.23-2.26l-2.88,1.59-1.06-2.65c-1.45-.05-2.03,3.53-3.18,3.02-.2-.09-2.29-2.98-2.75-3.29-.68-.45-2.07.1-2.33-.45-.76-1.65,1.33-4.08.38-5.81-2.16.25-4.01,2.75-5.76,3.17-.06-.09-.1-.21-.15-.31-.5-1.38,1.08-3.16.84-3.92-.14-.45-1.7-.43-1.77-2.1-.06-1.6,2.99-3.19.86-4.12l-4.19,3.36c-.01-.07-.02-.13-.03-.2.62-1.71.89-1.41.95-3.62.04-1.33.25-6.61-1.75-5.47-1.79,1.03-4.88,7.9-4.46,9.71-3.23.2-3.18-2.21-6.39.66-.1.03-.2.07-.3.11-1.98-8.38-3.65-4.47-6.58-5.56-4.92-1.82-3.47-8.96-1.57-12.57l-3.63,1.89c.16-1.1-.24-2.51,0-3.45.47-1.86,4.5-7.89,4.45-9.54-.06-1.93-1.72-4.43-1.7-6.54-3.01,2.92-3.03.59-3.85.65-.72.06-1.39.69-1.76.7-.86.02-1.04.37-2.58.15l.15-1.82c.24-.14-.18-1.14.66-.7.25.13.62.39,1.16.86-.25-1.04-.11-2.36-.45-3.33l3.19-.84c-1.93.08-2.75-.87-4.1-1.44-1.01-.42-2.78-2.11-3.95-1.87-2.41.49-.62,7.74-6.5-.09.37-.58,5.18-1.49,6.36-1.67l-.61-1.52c-1.67.2-3.23,0-4.86,1.06-1-1.4-.57-3.53-1.05-4.85,4.53.2,2.84-4.02-.3-.76-1-1.79-3.53-2.29-3.78-3.83-.16-.98.73-2.77.82-4.03.23-3.26.72-4.26,1.01-6.53.12-.96.13-6.5-.32-6.67-3.42.76-4.33,4.02-6.49,6.31-1.06,1.12-2.69,1.43-3.55,2.26-.98.95-.24,2.46-.91,2.89-.57.37-11.4,4.53-12.67,4.95-3.2,1.06-7.8-.27-9.72.4-1.83.64-2.01,2.76-3.79,3.32-1.15.36-2.9-.48-4.32-.34-5.1.5-6.32.75-8.65,5.48-4.64-4.01-2.71.35-4.03,2.04-.6.78-6.06,4.83-7.15,5.16-1.87.56-3.66-2.64-3.89-4.11-.05-.34,3.42-5.07,3.95-5.67,2.35-2.62,5.19-4.46,7.88-6.66,2-1.63,5.43-2.75,6.37-6.06-.45.26-1.08.34-1.52.61-.23.14-.53.16-.76.3l-1.97,1.67c-.22.15-.54.15-.76.3l-1.21,1.36c-.21.15-.54.15-.76.3l-1.21,1.36c-.21.16-.55.14-.76.3l-1.21,1.36c-.36.29-1.15.31-1.52.61l-1.21,1.36c-.2.16-.55.14-.76.3l-1.21,1.36c-.2.16-.56.14-.76.3l.3.76c-.5.21-1.02.38-1.52.61-.24.11-.54.16-.76.3l-1.21,1.36c-.22.15-.54.15-.76.3-.62,1.92-2.52,2.36-3.94,3.33-.22.15-.54.15-.76.3l-1.21,1.36c-.21.15-.54.15-.76.3l-1.21,1.36c-.21.16-.55.15-.76.3-.62,1.92-2.52,2.36-3.94,3.33-.22.15-.54.15-.76.3l-1.21,1.36c-.21.16-.55.14-.76.3l-1.21,1.36c-.19.17-.57.13-.76.3-1.46,1.36-1.83,2.25-1.82,4.24.05.26.22.5.3.76.27.85,1,1.8.15,2.58.04.25.23.49.3.76,1.87,2.89,6.73,3.06,9.7,2.28,1-.27,2.03-.85,3.03-1.21,1.19-2.08,4.9-2.83,7.27-3.79,1.01-.41,2.02-.8,3.03-1.21,1.19-2.08,4.9-2.83,7.27-3.79,1.01-.41,2.02-.8,3.03-1.21,1.19-2.08,4.9-2.83,7.27-3.79,1.01-.41,2.02-.8,3.03-1.21,1.19-2.08,4.9-2.83,7.27-3.79,1.01-.41,2.01-.84,3.03-1.21,3.12-3.96,5.62-1.89,7.82.89.91.94,1.84,2.16,2.79,3.66.17.2.14.56.3.76l1.36,1.21c.16.21.15.55.3.76l1.36,1.21c.15.21.15.55.3.76,1.85.69,4.41,3.3,4.33,5.26l-17.98,44.13c.05.47.54,1.03.61,1.52l.45,3.33c.06.26.23.5.3.76l.45,3.33c.21.46.38,1.27.61,1.52h4.39c.26-.02.5-.28.76-.3l2.58-.15c.26-.06.5-.24.76-.3,1.64-.39,2.63-1.05,3.75-2.21,1.09-1.36,2.6-3.26,4.24-5.35,3.36-4.74,7.13-10.79,9.59-14.4.07-.14.13-.25.19-.36.41-.92.72-2.55,1.92-3.12,1.21,1.62-.64,2.73-1.05,3.94-3.61,10.48-6.53,24.54-10.92,34.24,2.51-2.34,4.28-5.48,6.12-8.33,1.39-2.15,1.38-6.01,4.94-5.76l-1.66-1.96c4.96-.57,2.36-.44,3.04-4.05.95-5.01-.52-3.81-.37-6.88.05-1.03,1.21-1.49,1.3-2.12.28-2.11-2.14-3.39,1.49-4.09.26-.28-1.67-1.67-1.62-1.93.37-1.81,5.81-5.6,6.94-6.77,2.47-2.54,4.32-6.02,7.77-7.95,1.77-.35,2.15,3.38,2.2,4.59.02.57.26,4.22.2,4.46-.23.97-3.69,1.8-1.4,5.49-.41.45-2.03.36-2.36,1.8-.56,2.38,2.77,7.15-3.09,6.53,1.62,2.24,3.1,4.16,2.67,7.14-.69,4.77-1.96,11.65-3.72,16.58-1.14,3.21-3.97,11.72-7.83,7.94-.93,2.5-1.52,4.65-4.48,5.3.61,1.28,1.91-.54,2.11.9l-2.27.91c-.54-.58.19-1.72.15-1.81-.79-1.68-4.12-3.44-3.45-6.14-.6.49-1.47.2-1.54.23-.32.15-1.01,1.92-1.98,1.66-.26-.07.3-1.33.01-1.58-.28-.24-2.47,1.1-1.52-2.21-1.09.34-2.16-.11-3.03,1.21-.12,1.63.78,3.73-.46,5.45.07.24.18.53.3.76,2.23,4.27,14.4,8,18.03,12.13,1.27-.46,2.51-1.07,3.79-1.51,7.09-2.46,14.22-5.69,21.22-8.48-.26-3.27,4.22-5.15,5.3-2.12,4.22-2.02,8.44-3.69,12.66-5.08,1.21-.48,2.42-.98,3.64-1.44,1.29-.5,3.17-1.83,4.46-.89.26-.06.5-.25.76-.3.03,0,.14,0,.27.02l3.37.28c.26-.01.5-.29.76-.3.16,0,.39.02.66.06l2.98.25c.26,0,.5-.29.76-.3l3.64.3c.25-.03.49-.26.76-.3,1.36-.24,2.77-.23,4.09-.76.49-.22,1.04-.36,1.52-.61l2.73-1.97c.23-.14.53-.17.76-.3l2.2-1.59c.2-.16.38-.29.52-.38.23-.14.53-.16.76-.3.16-1.49,2.29-1.74,3.49-2.27.23-.14.53-.16.76-.3l2.04-1.47c.26-.2.5-.38.69-.5.23-.14.53-.16.76-.3l2.01-1.45c.27-.21.52-.4.72-.52.44-.27,1.08-.33,1.52-.61l2-1.44c.27-.21.53-.4.73-.53.23-.14.53-.16.76-.3l1.98-1.43c.28-.21.54-.41.75-.54.23-.14.53-.16.76-.3l1.99-1.43c.27-.21.53-.4.74-.54.43-.28,1.08-.33,1.52-.61l1.93-1.39c.3-.23.57-.43.8-.57.23-.14.53-.16.76-.3l1.92-1.39c.3-.23.58-.44.81-.58.43-.28,1.08-.33,1.52-.61l1.93-1.39c.3-.23.57-.43.8-.57.23-.14.53-.16.76-.3l1.93-1.39c.3-.23.58-.44.8-.58.23-.14.53-.16.76-.3ZM-23.3,508.18c-.08.18.67,1.26.49,2.07-.39,1.79-2.76,5.15-3.5,6.99-.67-3.69-5.87,1.93-5.44-4.84.29-4.53,6.28-4.04,8.28-5.22,1.54-.9,1.86-3.84,4.22-4.17,2.5,4.56-3.87,4.75-4.05,5.17ZM37.76,487.92c-.19.42-3.26,3.97-3.66,4.13-1.25.48-8.49-.03-8.93-1.08-1.11-2.65,6.81-2.19,8.05-2.79,1.36-.66,2.21-2.78,3.21-3.03,1.34-.33,1.83,1.64,1.33,2.77ZM92.26,542.36l-.3.12-.46.18s0-.03.01-.05c.07-.53.31-.63.75-.25ZM70.29,537.96l-.46.18-.3.12c.01-.13.04-.23.07-.31.11-.29.34-.3.69,0ZM73.15,591.28c-1.28-1.87,2.32-3.93,3.49-2.25,1.28,1.87-2.32,3.93-3.49,2.25ZM145.55,546.99c-.64,1.96-1.74.85-2.68,1.07.27,1.78,1.18,3.36-.08,5.29-2.41-.81-1.72-4.88.08-5.29-.02-.13-1.02-.46-.98-1.37.03-.57.13-1,.29-1.34.72-1.56,2.55-.83,3.2.37.22.4.31.84.17,1.27Z"/>
        <path class="cls-2" d="M22.21,497.11c-.21-.04-.54.03-.92.15.53.03,1.06.17,1.61.41-.28-.32-.51-.53-.69-.57Z"/>
        <path class="cls-2" d="M39.52,556.59c2.98-3.86,5.9-7.74,7.03-9.58-.88.06-3.86,4.72-7.03,9.58Z"/>
        <path class="cls-2" d="M46.59,547.17l.06-.19s0,0,0,0c-.02.06-.04.13-.05.19Z"/>
        <path class="cls-2" d="M57.12,496.21c.23-.03.44-.08.63-.15-.19.02-.39.06-.63.15Z"/>
        <path class="cls-2" d="M127.83,500.46c1.85,1.23,5.18,1.18,7.42,3.16,1.54,1.36,5.07,5.23,6.45,6.92,2,2.44,8.73,13.86,9.75,14.59.33.24,6.18.46,8.06.98,2.41.66,5.51,2.1,7.61,3.47,1.93,1.26,2.72,2.53,4.09,3.64l.45-1.06-.3-.76c-.15-.21-.14-.57-.3-.76l-1.06-.45c-.17-.2-.13-.57-.3-.76-.43-.22-1.06-.38-1.57-.59-.22-.09-.41-.19-.56-.32-1.08-.95-2.31-2.81-3.33-3.94-.17-.19-.13-.56-.3-.76-2.41-.93-3.83-3.02-5.45-4.85-.17-.19-.14-.56-.3-.76-2-.54-2.88-2.22-4.09-3.64-.17-.2-.13-.57-.3-.76-2.42-.92-3.81-3.05-5.45-4.85-.17-.19-.13-.57-.3-.76-2.42-.92-3.81-3.05-5.45-4.85-.17-.19-.13-.57-.3-.76-2.42-.92-3.81-3.05-5.45-4.85-.17-.19-.13-.57-.3-.76-2.41-.93-3.83-3.02-5.45-4.85-.17-.19-.14-.56-.3-.76-2-.54-2.88-2.22-4.09-3.64-.17-.2-.14-.56-.3-.76-1.46-.52-2.76-1.76-3.79-2.88-.09-.1-.12-.24-.16-.39l-.15-.37c-.17-.19-.13-.57-.3-.76l-1.06-.45c-.17-.19-.13-.57-.3-.76l-2.12-.91c.92,1.3,3.21,3.95,3.64,4.7,2.49,4.43,2.12,12.91,5.7,15.29Z"/>
        <path class="cls-2" d="M37.29,453.17c4.49-1.79,9.16-4.02,13.03-6.97-1.47-.42-3.14-1.6-5-1.52-.25.09-.53.18-.76.3-.62,1.92-2.52,2.36-3.94,3.33-.22.15-.54.15-.76.3l-1.21,1.36c-.21.16-.56.14-.76.3l-1.21,1.36c-.19.18-.6.13-.76.3-.37.4-.58,1.1-1.21,1.36l-.76.3c-.25.08-.52.19-.76.3l-1.21,1.36,1.06.45c1.33-.74,3.95-.84,4.24-2.57Z"/>
        <path class="cls-2" d="M82.17,529.21c1.25-.51,1.72-2.09,2.66-2.62,4.65-2.63,5.39-.81,9.86-6.73.46-.61,1.24-1.24.91-2.11-.77.25-1.51.64-2.28.9-3.74,1.26-14.95,6.64-16.98,9.33-.51.68-1.65.21-.46,2.02,1.8-1.46,4.8-.19,6.28-.79Z"/>
        <path class="cls-2" d="M109.97,527.29c1.11,2.61,3.69,1.26,4.27,4.08l.91-6.51-5-1.52c.04,1.22-.98,2.04-.18,3.94Z"/>
        <path class="cls-2" d="M95.14,510.01l-1.05-4.85c1.11,1.19,2.39,2.64,3.33,3.94.52.72-.35,3.53,3.02,3.18l-.9-2.27c1.1.59,2.21,1.18,3.33,1.75l-1.23,1.35c3.01,3.59,4.33-1.88,7.48-3.75,1.53-.91,3.07-.8,4.01-1.37,7.6-4.55,10.93-9.43,7.37-18.17-.96-2.35-8.33-13.92-10.5-13.76-3.71.26-2.45,3.72-3.53,5.23-1.6,2.24-7.18,6.47-8.77,9.26-.63,1.1-1.35,8.47-2.03,8.7-.99.33-1.87-2.7-2.65-1.13-1.12,2.14-.35,3.98-.3,5.84.05,1.98-1.83,5.57,2.41,6.06Z"/>
        <path class="cls-2" d="M65.61,504.25c-.5,1.16,1.61,2.06,2.11.9.5-1.16-1.61-2.06-2.11-.9Z"/>
        <path class="cls-2" d="M95.62,460.62c4.2,4.56,8.84,8.95,11.21,14.85,1.9-.52,2.07-3.24,4.24-2.57l-.3-.76c-.15-.21-.14-.57-.3-.76l-1.06-.45c-.17-.2-.14-.57-.3-.76-2.07-.47-2.86-2.38-4.09-3.64-.18-.18-.13-.59-.3-.76l-1.06-.45c-.18-.16-.12-.6-.3-.76-2.23-1.93-4.28-3.22-6.97-4.24-.59-.22-1.19-1.06-2.12-.91.19.69,1.07.9,1.36,1.21Z"/>
        <path class="cls-2" d="M5.91,478.01l-1.06-.45-.76.3c-.24.13-.53.17-.76.3,0,.38-.14.85-.45,1.06-.22.15-.53.16-.76.3-.22.14-.53.17-.76.3l.3.76c1.47-.85,1.53-.93,2.73-1.97.32-.27,1.07-.33,1.51-.61Z"/>
        <path class="cls-2" d="M111.97,523.5c.11-.03.22-.12.32-.24.5-.53.88-1.75.58-1.88-.45-.21-1.24.28-1.38.96-.03.15-.02.32.03.49.05.16.14.32.28.48.05.06.09.13.16.19Z"/>
        <path class="cls-2" d="M56.19,559.85l-.45-1.12c-4.69-2.95-4.18,3.48.45,1.12Z"/>
        <path class="cls-2" d="M341.32,666.84c.12-.09.23-.22.33-.35-.11.12-.22.21-.33.35Z"/>
        <path class="cls-2" d="M411.96,870.71c-2.67-11.48-6.53-23.16-9.72-34.56-5.15-.14-7.34-7.45-2.43-8.64-2.45-6.93-4.36-13.8-5.84-20.63-.55-1.97-1.12-3.94-1.65-5.92-.56-2.09-2.33-5.26-.65-7.12-.06-.42-.31-.82-.35-1.23,0-.05.03-.21.08-.42l1-5.21c.02-.41-.37-.83-.35-1.23.02-.25.09-.6.2-1.02l.88-4.61c.03-.4-.37-.83-.35-1.23l1.08-5.63c0-.4-.32-.81-.35-1.23-.15-2.17.1-4.37-.5-6.52-.27-.8-.38-1.69-.69-2.47l-2.62-4.59c-.17-.39-.17-.85-.35-1.23l-2.12-3.71c-.21-.34-.39-.64-.5-.88-.18-.38-.17-.85-.35-1.23-2.3-.49-2.34-3.87-2.97-5.82-.18-.38-.16-.86-.35-1.23l-1.96-3.43c-.27-.44-.51-.85-.67-1.16-.18-.38-.16-.86-.35-1.23l-1.93-3.38c-.28-.46-.53-.88-.69-1.21-.36-.73-.34-1.74-.69-2.47l-1.92-3.36c-.28-.46-.54-.89-.7-1.23-.18-.38-.16-.86-.35-1.23l-1.91-3.34c-.29-.47-.55-.91-.72-1.25-.18-.38-.16-.86-.35-1.23l-1.91-3.34c-.28-.46-.54-.9-.71-1.25-.36-.73-.33-1.74-.69-2.47l-1.86-3.25c-.3-.5-.58-.97-.77-1.34-.19-.38-.16-.86-.35-1.23l-1.85-3.23c-.31-.51-.59-.98-.77-1.35-.36-.73-.34-1.74-.69-2.47l-1.86-3.25c-.3-.5-.58-.97-.76-1.34-.19-.38-.16-.86-.35-1.23l-1.85-3.24c-.31-.5-.59-.97-.77-1.35-.19-.38-.16-.86-.35-1.23l-1.84-3.21c-.31-.51-.59-.99-.79-1.38-.36-.72-.33-1.75-.69-2.47l-1.8-3.15c-.33-.55-.63-1.05-.82-1.44-.19-.38-.16-.86-.35-1.23l-1.83-3.21c-.3-.51-.59-.98-.79-1.38-.19-.37-.15-.87-.35-1.23-1.98-1.36-2.01-4.3-4.74-2.66-.33.25-.95.1-1.23.35l.35,1.23c5.31,7.38-7.86,14.2-11.98,18.74-2.62,2.89-9.92,13.89-9.56,17.59.44,4.51,8.19,10.95,12.05,13,5.03,2.66,4.77-1.01,8.93.79,2,3.78-4.76,7.14-.06,13.98,1.84,2.69,1.74,1.76,3.51,3.01,3.06,2.15,7.26,3.01,9.14,4.09.76.43,1.83,2.02,3.51,3.01,6.87,4.06,10.29,7.12,16.79,11.77,1.8,1.28,3.98.38,4.45,2.22-13.44-.91-23.58,23.05-16.16,32.51l-6.16,1.74c.38-4.81-.94-7.76-3.3-11.81-1.1-1.89.25-3.96-3.32-2.29l2.01,4.76-4.32,1.22c-.32,2.26,5.18,3.76,4.19,5.47-.17.29-5.04,3.08-5.59,3.75-.82.99-.19,3.26-1.08,3.56-2.7.92-6.15-2.76-9.01-1.55.03,3.41,3.63,6.72,4,9.52-2.36,1.17-5.18-2.05-6.49-1.78-.73.15-.96,2.59-3.58,2.41-2.51-.17-4.49-5.2-6.29-2.03l4.55,7.1c-.1,0-.21,0-.31.01-2.57-1.26-2.06-1.63-5.5-2.09-2.07-.28-10.28-1.48-8.83,1.82,1.3,2.97,11.54,8.93,14.42,8.59-.22,5.09-3.98,4.6-.03,10.1.04.16.08.33.13.49-13.42,1.7-7.59,4.96-9.78,9.36-3.67,7.38-14.57,3.93-19.9.36l2.34,5.99c-1.69-.43-3.95-.03-5.39-.56-2.82-1.04-11.58-8.34-14.17-8.53-3.03-.22-7.21,1.95-10.5,1.57,4.07,5.19.42,4.83.38,6.12-.03,1.14.85,2.28.8,2.87-.11,1.34.4,1.68-.19,4.05l-2.82-.54c-.18-.4-1.81.09-.99-1.14.25-.37.72-.9,1.53-1.67-1.66.21-3.7-.22-5.28.15l-.77-5.12c-.2,3.03-1.82,4.15-2.93,6.16-.82,1.5-3.76,4-3.58,5.86.37,3.84,12,2.25-1.23,10.14-.85-.67-1.47-8.34-1.55-10.22l-2.47.69c.03,2.65-.54,5.05.85,7.76-2.36,1.33-5.61.3-7.75.84,1.07-7.04-5.81-5.1-1.23.35-2.96,1.27-4.17,5.13-6.62,5.27-1.56.09-4.21-1.61-6.16-1.96-5.05-.9-6.53-1.84-10.03-2.66-1.48-.35-10.14-1.29-10.47-.62.62,5.48,5.57,7.44,8.78,11.2,1.58,1.85,1.79,4.45,2.95,5.93,1.32,1.69,3.8.78,4.36,1.9.49.96,5.18,18.57,5.62,20.62,1.12,5.18-1.71,12.15-.99,15.25.7,2.97,3.98,3.6,4.56,6.47.37,1.85-1.23,4.46-1.25,6.69-.07,8.05.12,10,7.12,14.42-7.04,6.59.09,4.3,2.52,6.63,1.11,1.07,6.54,10.27,6.87,12.03.56,3.02-4.73,5.28-7.06,5.4-.54.03-7.36-6.18-8.2-7.11-3.7-4.11-6.11-8.85-9.1-13.42-2.22-3.4-3.4-8.94-8.41-10.95.33.75.35,1.74.69,2.47.18.38.16.86.35,1.23l2.28,3.36c.2.37.15.87.35,1.23l1.93,2.12c.2.36.14.88.35,1.23l1.93,2.12c.21.35.13.89.35,1.23l1.93,2.12c.4.62.3,1.85.69,2.47l1.93,2.12c.22.35.13.89.35,1.23l1.93,2.12c.22.35.12.9.35,1.23l1.23-.35c.25.82.43,1.66.69,2.47.13.39.17.87.35,1.23l1.93,2.12c.2.37.14.87.35,1.23,2.9,1.29,3.26,4.33,4.55,6.71.2.37.14.87.35,1.23l1.93,2.12c.21.36.14.87.35,1.23l1.93,2.12c.21.35.14.88.35,1.23,2.9,1.29,3.26,4.33,4.55,6.71.2.37.14.87.35,1.23l1.93,2.12c.21.35.13.88.35,1.23l1.93,2.12c.23.33.11.91.35,1.23,1.88,2.51,3.21,3.23,6.33,3.55.41-.04.82-.26,1.23-.35,1.38-.28,2.98-1.27,4.05.19.39-.01.8-.29,1.23-.35,4.83-2.44,5.9-10.01,5.17-14.77-.25-1.61-.99-3.31-1.39-4.94-3.05-2.2-3.6-8.13-4.7-12-.47-1.64-.92-3.29-1.39-4.94-3.05-2.2-3.6-8.13-4.7-12-.47-1.64-.92-3.29-1.39-4.94-3.05-2.2-3.6-8.13-4.7-12-.47-1.64-.92-3.29-1.39-4.94-3.04-2.2-3.61-8.13-4.7-11.99-.47-1.64-.97-3.28-1.39-4.94-5.66-5.53-2.02-9.09,2.69-12.07,1.63-1.26,3.68-2.51,6.18-3.75.34-.23.9-.12,1.23-.35l2.12-1.93c.35-.21.88-.14,1.23-.35l2.12-1.93c.36-.21.88-.14,1.23-.35,1.38-2.78,5.9-6.35,8.94-5.89l65.95,35.44c.75,0,1.7-.68,2.47-.69l5.28-.15c.42-.06.81-.28,1.23-.35l5.28-.15c.76-.25,2.05-.38,2.47-.69l.73-6.86c0-.41-.35-.82-.35-1.23l.19-4.05c-.04-.42-.29-.81-.35-1.23-.34-2.63-1.2-4.29-2.83-6.23-1.94-1.92-4.67-4.61-7.66-7.51-6.84-6.04-15.67-12.94-20.91-17.38-.21-.13-.37-.24-.53-.36-1.37-.79-3.86-1.55-4.55-3.52,2.73-1.63,4.16,1.45,5.97,2.3,15.77,7.38,37.26,14.28,51.68,22.76-3.23-4.32-7.85-7.6-11.99-10.94-3.13-2.52-9.17-3.16-8.18-8.68l-3.34,2.26c-.07-7.85-.29-3.76-5.82-5.43-7.68-2.31-6.04.18-10.8-.57-1.61-.25-2.12-2.14-3.09-2.38-3.25-.79-5.65,2.78-6.14-3-.4-.45-2.89,2.33-3.28,2.21-2.77-.88-7.78-10-9.42-11.97-3.56-4.28-8.68-7.75-11.13-13.46-.25-2.82,5.64-2.8,7.54-2.68.9.06,6.64.3,7,.43,1.48.52,2.2,6.07,8.34,3.11.63.72.23,3.23,2.42,3.99,3.62,1.27,11.63-3.14,9.69,5.91,3.76-2.16,7.02-4.15,11.6-2.98,7.33,1.87,17.88,5,25.29,8.57,4.82,2.32,17.65,8.15,11.11,13.55,3.75,1.87,7.01,3.15,7.54,7.88,2.1-.74-.53-3.07,1.76-3.15l1.04,3.69c-1,.75-2.66-.59-2.8-.54-2.76.95-6.07,5.86-10.18,4.37.67,1.02.07,2.34.11,2.45.19.53,2.83,1.89,2.27,3.37-.15.39-2.03-.68-2.46-.28-.43.4,1.31,4.04-3.7,2,.35,1.76-.53,3.36,1.39,4.94,2.53.46,5.96-.59,8.45,1.62.39-.07.86-.2,1.23-.35,7.05-2.78,14.9-21.16,21.95-26.15-.51-2.07-1.25-4.09-1.73-6.17ZM233.84,882.53c.63.36,5.66,5.75,5.84,6.41.55,2.03-1.46,13.25-3.17,13.76-4.33,1.29-2.28-11.01-3.02-13.04-.81-2.23-3.98-3.91-4.2-5.52-.3-2.15,2.86-2.59,4.55-1.62ZM255.33,981.3c.26.15,2.09-.83,3.32-.43,2.74.91,7.58,5.16,10.33,6.63-5.88.44,2.04,9.49-8.47,7.69-7.03-1.2-5.27-10.48-6.77-13.81-1.16-2.56-5.69-3.55-5.81-7.28,7.54-3.15,6.77,6.84,7.4,7.19ZM342.99,729.62c-.88-.14-1.54-.38-2.04-.67-2.33-1.38-.87-4.13,1.1-4.94.66-.27,1.37-.34,2.02-.05,2.96,1.32,1.04,2.86,1.22,4.37,2.83-.13,5.45-1.29,8.25,1.01-1.67,3.63-7.91,1.88-8.25-1.01-.21,0-.88,1.52-2.3,1.3ZM327.97,806.43l.14.48.21.75s-.05-.02-.08-.03c-.82-.2-.92-.59-.27-1.21ZM317.31,841.1c-.44-.22-.41-.58.12-1.08l.21.75.14.48c-.2-.04-.35-.1-.47-.16ZM401.22,844.43c-3.13,1.7-5.76-4.29-2.93-5.82,3.13-1.7,5.76,4.29,2.93,5.82Z"/>
        <path class="cls-2" d="M245.61,908.35c-.1.32-.05.84.09,1.47.14-.82.44-1.63.91-2.44-.55.38-.92.71-1,.98Z"/>
        <path class="cls-2" d="M341.43,891.21c-5.53-5.3-11.11-10.5-13.8-12.58-.05,1.38,6.73,6.82,13.8,12.58Z"/>
        <path class="cls-2" d="M327.59,878.47c.1.04.19.08.29.12l-.29-.13s0,.01,0,.01Z"/>
        <path class="cls-2" d="M250.02,853.65c0-.37-.06-.7-.13-1.01,0,.29.03.62.13,1.01Z"/>
        <path class="cls-2" d="M268.42,743.9c2.23-2.68,2.71-7.89,6.17-11.06,2.38-2.17,9.02-7.05,11.89-8.93,4.14-2.71,23.11-11.33,24.42-12.81.42-.48,1.74-9.58,2.86-12.43,1.44-3.65,4.2-8.27,6.69-11.32,2.29-2.8,4.41-3.84,6.36-5.78l-1.58-.89-1.23.35c-.36.2-.91.12-1.23.35l-.89,1.58c-.34.23-.92.12-1.23.35-.41.63-.77,1.59-1.19,2.35-.18.32-.37.62-.59.82-1.66,1.53-4.77,3.14-6.71,4.55-.32.24-.9.11-1.23.35-1.86,3.61-5.36,5.48-8.49,7.71-.32.23-.9.12-1.23.35-1.17,3.03-3.94,4.12-6.36,5.78-.34.23-.91.11-1.23.35-1.83,3.63-5.39,5.45-8.49,7.71-.32.24-.91.11-1.23.35-1.84,3.63-5.39,5.45-8.49,7.71-.32.24-.91.11-1.23.35-1.83,3.63-5.39,5.45-8.49,7.71-.32.24-.91.11-1.23.35-1.86,3.61-5.36,5.48-8.49,7.71-.32.23-.9.12-1.23.35-1.17,3.03-3.95,4.12-6.36,5.78-.33.23-.9.12-1.23.35-1.05,2.19-3.21,4.02-5.13,5.44-.16.12-.4.15-.63.18l-.6.17c-.33.23-.91.11-1.23.35l-.89,1.58c-.32.24-.91.11-1.23.35l-1.77,3.16c2.18-1.23,6.7-4.36,7.95-4.9,7.34-3.16,20.53-1.16,24.84-6.36Z"/>
        <path class="cls-2" d="M222.57,765.49l-1.23.35c-.36.2-.91.12-1.23.35l-.89,1.58c-.35.23-.92.12-1.23.35-1.08,3.15-4.2,4.06-6.36,5.78-.31.25-.94.1-1.23.35l-.89,1.58c-.29.26-.96.09-1.23.35-3.39,3.16-5.75,6.15-7.79,10.18-.07.1-.13.19-.17.27-.55.78-1.67,1.57-1.6,2.89,1.11-.18,1.58-1.53,2.12-1.93,7.82-5.8,15.46-12.32,25.06-15.04-.5-3.06-4.71-3.77-3.31-7.05Z"/>
        <path class="cls-2" d="M179.48,877.48c-2.05-7.31-4.76-14.98-8.71-21.52-.9,2.23-3.02,4.64-3.2,7.56.11.4.19.85.35,1.23,2.9,1.29,3.26,4.33,4.55,6.71.2.37.14.87.35,1.23l1.93,2.12c.21.36.13.9.35,1.23l1.93,2.12c.25.33.1.95.35,1.23.56.64,1.61,1.09,1.93,2.12l.35,1.23c.09.41.21.84.35,1.23l1.93,2.12.89-1.58c-.93-2.2-.66-6.31-3.32-7.06Z"/>
        <path class="cls-2" d="M234.9,774.07c3.23,2.88,8.92,12.29,13.01,15.24,1.62,1.17,13.01,3.52,13.25,4.61.35,1.6-4.54,2.47-2.21,3.96,3.16,2.1,6.17,1.2,9.07,1.44,3.11.25,8.4,3.78,9.88-2.76l-7.75.84c2.05-1.53,4.52-3.29,6.71-4.55,1.21-.69,5.45,1.14,5.48-4.19l-3.7,1.03c1.11-1.62,2.22-3.26,3.29-4.91l1.9,2.15c6.1-4.1-2.22-7.08-4.62-12.31-1.16-2.54-.75-4.93-1.47-6.49-5.85-12.64-12.91-18.65-27.17-14.53-3.83,1.11-23.13,10.7-23.25,14.12-.2,5.83,5.41,4.44,7.58,6.38Z"/>
        <path class="cls-2" d="M293.22,798.89c-.87-.82-1.73-2.14-3.15-1.78.27,1.24.75,2.46,1.03,3.71,1.34,6.05,7.88,24.47,11.75,28.08.98.91.06,2.62,3.09,1.05-1.98-3.05.5-7.54-.19-9.94-.59-2.03-2.97-3.04-3.64-4.59-3.33-7.7-.37-8.56-8.88-16.52Z"/>
        <path class="cls-2" d="M314.46,770.27l-10.02-2.5-3.2,7.56c1.91.15,3.02,1.88,6.13.93,4.27-1.29,2.59-5.56,7.09-5.99Z"/>
        <path class="cls-2" d="M263.99,841.73c1.72.97,3.49-2.18,1.76-3.15-1.72-.97-3.49,2.18-1.76,3.15Z"/>
        <path class="cls-2" d="M213.05,930.64l-.87,1.57.35,1.23c.16.39.17.85.35,1.23.6.05,1.3.36,1.58.89.19.37.16.86.35,1.23.19.37.17.85.35,1.23l1.23-.35c-1.08-2.43-1.2-2.54-2.62-4.59-.38-.54-.33-1.73-.71-2.46Z"/>
        <path class="cls-2" d="M300.66,773.07c.26-.05.52-.17.8-.36.11-.07.21-.11.32-.21-.03-.18-.16-.36-.31-.54-.75-.87-2.58-1.67-2.84-1.22-.4.67.23,1.99,1.27,2.31.24.07.49.08.77.03Z"/>
        <path class="cls-2" d="M349.29,865.7l-1.83.52c-5.4,6.83,4.74,7.11,1.83-.52Z"/>
      </g>
    </g>
  </g>
</svg>