<?xml version="1.0" encoding="UTF-8"?>
<svg id="_레이어_2" data-name="레이어 2" xmlns="http://www.w3.org/2000/svg" xmlns:xlink="http://www.w3.org/1999/xlink" viewBox="0 0 399 1000">
  <defs>
    <style>
      .cls-1 {
        fill: none;
      }

      .cls-2 {
        fill: #e6e7e8;
      }

      .cls-3 {
        clip-path: url(#clippath);
      }
    </style>
    <clipPath id="clippath">
      <rect class="cls-1" width="399" height="1000"/>
    </clipPath>
  </defs>
  <g id="Layer_1" data-name="Layer 1">
    <g class="cls-3">
      <g>
        <path class="cls-2" d="M292.61,168.1c-.65-.56-1.21-1.03-1.63-1.31.93.8,1.85,1.58,2.78,2.34-.4-.37-.79-.72-1.15-1.03Z"/>
        <path class="cls-2" d="M263.19,113.58c-.13.46-.12.75-.02,1,.1.27.29.49.52.83,1.9-4.38,7.27-5.14,10.08-8.78-1.06-.18-1.7.12-2.34-1.02-1.31.28-3.33,2.46-4.96,2.74-1.15,1.66-2.16,3.64-3.29,5.23Z"/>
        <path class="cls-2" d="M257.24,122.21c1.25.99,2.5-.83,2.97,2.04.09.52-.14,1.23-.1,1.8.4.2.77.46,1.17.66,1.28-.31-.11-2.17-.44-3.03-.23-.61-.79-.97-.5-1.83l1.43,1.28c.66-2.26,1.46-.28,2.9-.54.53-.1,1.17-.94,1.66-1.03.07-.01.14-.01.2,0,.16.06.3.24.4.64-.45.05-.98-.35-1.22.24-.69,1.7.95.35,1.19.36.21,0,.97,1.15,1.8.1.57.25,1.05.78,1.77.69-.21-.62-.4-1.17-.5-1.83-.79.21-1.52,0-1.86,1.1-.1-.05-.34-.01-.47-.11-.06-.04-.1-.1-.1-.22.05-.03.08-.06.12-.1.25-.21.34-.55.51-.77.23-.29,1.3-.4,1.26-1.13l-1.5-.08-.34.58c-.47-.11-1.37.17-1.71-.18-.27-.28.06-.96-.03-1.11-.23.37-.41.63-.55.81-.87,1.07-.49-.87-1.03-.93-.68-.08-4.27.56-4.41.38-.17-.22.11-.87.03-1.18l1.8.1c.92.05,2.18-.02,3,.16,0-.6.11-1.2.1-1.8-1.06-.3-.68-1.41-1.61.52l-.82-.05c.12-1.02-.28-2.04-.44-3.03-.82,1.14-1.74,2.33-2.59,3.47-.88,1.18-1.79,2.23-2.59,3.47.16.25.33.43.49.56Z"/>
        <path class="cls-2" d="M258.82,150.03c.03-1.04-.23-2.03-.44-3.03-.04-.21-.48-.57-.53-1.23-.22.08-.75-.23-1.1.02-.5.36-.74,2.16-.86,2.88,1.33,1.46,1.45,1.69,2.93,1.36Z"/>
        <path class="cls-2" d="M247.17,176.46c.97.35,1.94.63,2.97.76.4.05.8.02,1.2.06.36-.13.66-.35,1.23-.53-.31-.31-.73-.59-1.17-.66-1.28-.21-2.71-.06-4.03-.22-.06,0-.11,0-.17-.01l.22-.23,1.39-1.48-1.47-.68c-.41.36-.85.76-1.26,1.13-.24,1.18.71,1.36,1.1,1.86Z"/>
        <path class="cls-2" d="M268.37,82.41c-.18,0-.35.04-.5.16.32.04.44-.04.5-.16Z"/>
        <path class="cls-2" d="M267.32,81.93c.03.89-.41,1.6-.74,2.37-.17.39-.4.65-.53.83-.15.2-.19.3.1.35.18.03.48.04.96.05.13-.23-.03-.85.06-1.2.64,1.69,1.98,1.34,3.53,1.39l-2.84-3.16c-.08-.01-.25-.58-.55-.64Z"/>
        <path class="cls-2" d="M269.11,171.03l.6.03c.2-.04.45.1.6.03l.1-1.8c-.41.09-.84.45-1.23.53l-.06,1.2Z"/>
        <path class="cls-2" d="M259.28,163.59l-.58-.34c-.21.19-.42.38-.63.57l.27.61c.92.19,1.02.1.94-.84Z"/>
        <path class="cls-2" d="M268.88,130.73c.16.07.41-.03.6.03-.04-.38.13-.86.06-1.2l-.89-.04c-.4.09-.27.36-.34.58l.12.14c.15.15.41.37.45.5Z"/>
        <path class="cls-2" d="M262.45,152.12c-.12.16-.21.5-.19,1.1.02.2-.06.41-.03.6,1.28-.88.6-2.19.23-1.7Z"/>
        <path class="cls-2" d="M248.87,178.35c.02-.13-.01-.24-.08-.33-.22-.28-.78-.36-1.08-.33-.39.04-1.3.36-1.83.5l.53,1.23c.66-.73,1.81-.74,2.46-1.07Z"/>
        <path class="cls-2" d="M256.06,178.74c.19-.23.58-.9.66-1.17,0-.03-.03-.09-.08-.16-.09-.18-.19-.33-.28-.46-.11-.28-.09-.62.45-.9.63-.33.55,1.29,1.88-1.39-.4-.02-.8-.04-1.2-.06.41-.31.57-1.43,1.56-1.12.39.04.28.3.07.59-.1.15-.23.3-.32.43-.04.06-.08.11-.11.17.99.05,1.91.46,2.43-.47.08-.14.05-.43.04-.71l.03-.49c.82.21.53-.82.66-1.17-1.26-.58-2.77-.81-4.16-.82l1.74.99c-.55.99-3.91,1.27-2.57,3.17-.78.66-1.12.75-1.9,1.7-.18.22-.42.39-.63.57.39.61,1.05,1.09,1.73,1.3Z"/>
        <path class="cls-2" d="M307.9,154.18l-.6-.03c.18.4.38.41.6.03Z"/>
        <path class="cls-2" d="M275.91,161.76h.03s2.11-.47,2.11-.47c.05-.26-.09-.44-.32-.56-.41-.22-1.09-.24-1.45-.13-.06.02-.8,1.01-.37,1.17Z"/>
        <path class="cls-2" d="M271.26,124.21s.02,0,.03,0c1.19-.22-.15-2.16,1.33-1.7.58.18.18,1.74.14,2.64.02.11.02.24,0,.37-.2,0-.9-.73-1.41-.61-2.44.59.27,4.95-.11,6.54-.09.35-1.5,1.85-1.93,2.3-.53.56-1.79,1.59-2.53,2.27.03.72.17,1.16.37,1.36.14.14.3.18.48.12.59-.17,1.31-1.25,1.61-2.56.37.81.67,1.67,1.07,2.46.11.21.44.4.57.63l-1.56.44-.27.07c-.07.08-.06.17-.03.25.15.4,1.11.87,1.16,1,.07.2-.04.85-.06,1.2-.06,1.03-.46,2-.76,2.97-.41.08-.86.59-1.52.49-1.4-.22-1.56-1.91-2.68-.72l-.03.6c.95.97,2.76.48,3.56.79,1.09.42,2.3,2.09,1.04,3.06-.45-.29-.45-1.41-.83-1.25-.68.66-1.12,1.53-1.63,2.32-.31.49-.15,1.72-1.29,1.73.03-.8.08-1.6.12-2.4.09-1.68,1.28-2.56-1-3.66-.19,3.74-1.37,7.2-1.78,10.73.26.2,1.03.76,1.16.66.28-3.03,3.05-5.4,5.56-2.71l.77-2.96c-.32,0-1.06.79-1.23.53-.21-.83.52-1.27.69-1.77.11-.31-.02-.83.06-1.2,2.65,1.04,2.33-1.93,2.66-2.69.05-.11.11-.18.2-.17.03.03.05.08.08.12.5.71-.03,2.06.06,2.9.13-.18.49-.32.63-.57-.09-.44-.1-.78-.08-1.04.04.3.07.64.08,1.04.03.14.14.3.29.47.54.64,1.52,1.46.18,1.96-1.26-.68-.98-.79-1.1-1.86-.6.86-.67,1.98-1.9,1.7l-.03.6c.27.08.43.56.57.63,1.23.64,1.38,2.15,2.4.13.23.15,1.09-.09,1.2.07.09.12-.67,2.19-.76,2.96,1.9-.36.97,1.06,1.07,2.46.04.51.54,1.69.47,1.77-.18.21-4.69,2.43-4.95,2.51-1.46.42-2.62-1.48-4.32-1.18-.66.12-.38,1.17-.45,1.22l.58.34-.04.89c-.78-.1-1.62,0-2.4-.13-1.74-.3-.65-.77-1.54-1.21-.06-.03-.12-.06-.19-.08.04.06.05.11.08.17,1.48,2.9-2.58,1.04-3.25,2.66-.08.19-.15,1.65-.1,1.8.09.23,1.45.88,1.73,1.3.29.43,1.04,1.5,1.1,1.86-2.11.06-2.9.12-.7,1.77.06-.33.68-.91.66-1.17l.6.03c.08-.33,1.09-2.09,1.33-2.33.98-.99,2.04-1.48,2.4.13-.6.53-1.51.96-2.16,1.61-.07.05-.12.1-.16.17-.06.07-.13.12-.18.2l1.81-.21-.67,1.16c1.26.55,2.23-.28,3.04-.43.35-.98,1.14-1.31,2.13-1.07l.3.6.6.03c-.08.18.05.46-.03.6l.6.03c.14-.37.62-.85.66-1.17l.6.03c.2-.04.45.1.6.03l1.26-1.13c.15-.08.45.11.6.03l1.3-1.73-1.8-.1c.81-.15,2.19-.75,3.06-1.04.94.02,2.13-.49,2.43-.47l.03-.6c-.58-1.01-2.45-.76-3.56-.79-1.98-.06-2.18.46-2.43.47-.39.02-.82-.11-1.2-.06.14-.07.25-.18.35-.31.5-.64.54-1.87.74-2.08.57-.58,1.28-.35,1.47-.49,1.09-.79,3.24-1.75,3.73-2.2.56,1.55,1.99.18,2.4.13l.03-.6c2.21.79,1.29-1.52,3.06-1.03-.03.39,0,.81-.06,1.2.58-.17.96-.82,1.83-.5-.35.54-.45,1.19-.7,1.76,4.53-2.06-.14,2.54,3.99,4.12-.06.61-1.26.12-1.82.2-2.78.43-.29,1.48-2.5,1.67-.2.02-.4-.05-.6-.03.04-.09.07-.52.03-.6-.8,0-1.61-.15-2.4-.13-.51.02-1.04-.04-1.23.53.09.11-.11.44-.03.6l.22.51.32.73c.07.17-.11.46-.03.6.04-.03.08-.05.14-.08.36-.17,1.04-.34,1.09-.46l1.6,1.19.13.1-.04-.16-.45-1.66c1.33.31-.31,2.08,1.76.69.24-.16.43-.37.63-.57.37.23.64.41.85.52.42.23.61.21.89-.19.1-.14.22-.34.35-.59.04-.07.08-.13.12-.22l.81.04-.03.6c.15-.04.42.01.6.03,1.62.2,5.15,3.85,7.93,6.29,1.01.73,2.03,1.44,3.04,2.12.66.18,4.46.65,4.82-.33-.91-.08-1.81-.34-2.6-.81-6.43-3.83-9.56-9.28-13.63-15.17-.68-.98.52-2.37-1.47-1.22-.4-2.75,3.07-2.65,4.98-3.35l-1.16-.66c-.62-.83,9.09-4.52,10.39-3.05-.52-1.29-2.25-1.57-2.6-3.13-.21-.94.97-1,1.03-1.16,1.55-.87,3.21-.32,4.83-.34,3.24-.04,2.41-.08,5.49-1.51,4.16-1.92,2.23-.44,3,.16.1.08,1.16-1.01,1.22-.23.08.75-.62,1.31-1.29,1.43-1.5.27-1.01-1.21-1.42-1.23-.29-.01-.69.47-.95.5-1.06,2.68-.15,3.25.55,5.38.15.45-.3,1.21-.03,1.82.47,1.1,1.67,1.4,2.4,2.19.23.25,0,1.12.26,1.41.52.58,3.92,1.38,3.9,2.8l23.56-13.16c-.48-.22-.47-.42.03-.6-.03-.06-.04-.11-.07-.17-.23-.39-.97-1.06-.12-2.25.12-.16,1.04-.74,2.07-1.32.04-.02.07-.04.11-.06,1.21-.68,2.52-1.35,2.79-1.34,1.21.03,7.23,4.56,8.41,5.84.2-.51.4-.49.6.03.91.48,1.91.84,2.3,1.93.18-.51.38-.48.6.03,1.12-.65,2.04-1.53,3.13-2.24,2.84-4.86,5.59-9.14,7.12-14.63.68-2.43,1.91-7.54,2.06-9.89.06-.97-.17-.91-.56-1.47-.35,2.81-2.38.53-2.93-1.36-.48-1.66,1.21-1.66-1.7-1.9-.07.07-.76-.21-1.04.09-.48.53-.23,1.75-1.19,2.18-1.53-2.56.32-3.54-3.74-3.2-.2.18-.53.28-.63.57-.16.44.05,1.26-.1,1.8-2.87.34-1.31-1-1.7-1.9-.05-.12-1.56-.68-1.73-1.3-1.12-.01-4.26.27-4.76-.85,2.19.13,4.4.19,6.59.35.96.07,2.51-.22,2.97.76.14-.06.43,0,.73.06.4-.11.75-.16,1.07-.15.22-.44-.21-1.43.4-1.6.89-.25,1.65,2.59,3.31,2.2.14-.06.3-.12.48-.19,1.04-.65,2.17-.66,3.06-1.04.49-.21,1.09-1.06,1.86-1.1.01-.11.66-.95.75-1.99.38-4.35.23-8.66.06-12.99-2.23-1.59-11.97-9.9-13.5-9.79-.35.02-.79.82-1.07,1.19.51.22.5.42-.03.6-.02.03-.06.06-.11.1l-.53.47c.51.19.49.39-.03.6l-.63.57c.51.23.5.43-.03.6l-.63.57c.51.23.5.43-.03.6-1.33,2.54-4,6.92-4.71,9.37-.41,1.41.1,3.75-.9,5.36-.74-.57-2.43-1.08-2.93-1.64-.95-1.08.04-2.55-.96-3.46-.34-.12-.74-.31-1.22-.58-.4,1.12-.92,1.1-1.2-.06-3.02-.42-1.22-.63-2.25-2.1-.41-.58-1.74-1.06-1.76-1.43-.01-.34,1.12-.63,1.24-.83-.49-.19-.47-.39.03-.6l-.53-1.23c-.52-.19-.5-.39.03-.6l-.53-1.23c-.52-.19-.5-.39.03-.6l-.53-1.23c-.52-.19-.5-.39.03-.6l-.53-1.23c-.51-.23-.5-.43.03-.6-1.38-1.55-1.58-4.11-2.07-6.12-.6-.18-2.03.18-2.34-.21-.2-.24.21-1.3-.05-1.6-.14-.16-3.33-.92-4.04-1.56l2.62-4.05-.6-.03c-.39-.04-.8-.06-1.2-.06-.34.77-1.17.51-1.83.5-.4,0-.8-.06-1.2-.06-.4,0-.8-.06-1.2-.06-.35.77-1.17.51-1.83.5-.93,1.5,1.81,1.07,2.97.76,1.18.89.17,3.01.37,4.23.01.11-.01.19-.06.26-.11.18-.36.27-.57.3.91.74,1.12.54.73-.35.38.64,1.65,2.11.9,3.44l-1.63-3.09c-2.35.34-2.44-.03-4.2-.23.44-2.02-.97-1.18-1.73-1.3-.19.21-.44.36-.63.57-.83.9-1.13,1.76-1.36,2.93-.03.16,1.09,2.16-.46,2.99-.66-.06,0-2.33-.14-3.02-.13-.68-1.51-3.16-1-3.66,2.43,1.58,1.56-.27,1.83-.5l-1.67-2.5c-.6-.03-1.2-.06-1.8-.1-.17.16-.55.88-.66,1.17-2.41.06-2.98,3-1.72,2.53.12-.04.24-.1.39-.21.02-.01.02-.05.03-.1.04-.3.03-1.12.73-1.12.14,0,.3.02.51.1-.68,1.37-1.6,2.61-2.03,4.09-1.1.18-.32-1.02-.53-1.23-.22-.21-1.44,1.53-3.22.94-.73-.25-2.7-2.3-3.28-3.1.3-.33-.61-1.79,1.23-.53.6-1.25-.79-1.38-1.05-1.81-.01-.02-.03-.04-.04-.06-.13-.39.17-1.28.1-1.8-.02.13-.07.28-.12.44-.33.93-1.14,2.4-.7,3.73-.03.03.03.71-.63.57l-.53-1.23-.73,2.36-1-3.95,1.75.99c-.2-2.33.42-3.49,1.5-5.33.19-.33.14-.93.66-1.17-1.49-.76-1.47-1.2.1-1.8-1.09-5.37.38-11.33.31-16.82-.75,4.47-2.22,10.2-3.21,14.86l.6.03,1.15-1.04c.04-.05.08-.09.1-.09.01,0,.01.03,0,.08-.02.37.02.77-.06,1.12-.48,2.2-1.02,2.16-2.56,2.87-.16.07-.54,1.39-1.21.25,1.72-5.65,2.51-11.55,3.88-17.29.25-1.03-.03-2.26,1.39-2.58.05-.41.1-.85.13-1.3-.04-1.37-.07-2.74-.14-4.1,0,0,0,0,0,0l-6.17,3.92c-.09.09-.16.18-.22.27l1.63.37c-.66,1.57-1.74.71-3.12.58-1.49.57-2.97,1.21-4.42,1.92-1.83,1.09-3.66,2.17-5.49,3.27-.44.27-.83.5-1.15.68-1.68,3.2-.12,5.83.12,9.02,3.23-.55,7.6-4.53,7.76,1.02l2.45-1.07c.05,2.24,2.55,10.61,1.64,11.99-.25.38-3.1,1.78-3.88,1.79-2.1.01-2.4-1.06-3.8-2.08-.03-.4.02-.73.13-1.03.79-2.19,4.75-2.06,4.98-4.71-2.35-.01-4.53,2.61-6.16,3.03-1.06.27-1.44-.42-1.78-.45-.66-.06-1.2-.06-1.8-.1-.44-.03-1.24-.08-1.17-.66.03,0,.31-.17.6-.35.32-.2.64-.42.62-.47l-1.36-2.19-.91,1.61-.08.14s0-.09,0-.13c.08-1.18-.49-1.97-1.04-2.92-.42.08-1.47.81-1.83.5-.56-.49.11-2.01.13-2.4,0-.22-.53-.69-.5-.95.03-.2,3.27-.7-.54-2.11-.45.25-1.38,1.27-1.86,1.1l-.03.6c-.06.2.05.47-.03.6-.06.09-1.23,1.65-1.3,1.73-.17.2-.43.37-.63.57-1.15-.04-1.66.37-2.46,1.07-1.95,1.69-1.06,1.58-1.36,2.93.22.14.97-.08,1.2.06.79.51,1.79,1.5,1.67,2.5-1.66-.12-3.22-.15-4.76-.86.07-.02.13-.04.2-.06.51-.22,1.56-1,1.7-1.64-1.17-.77-1.11-1.95-2.26-2.53l-.23,4.2c-4.59.2-9.21-1-13.82-.14-.2.04-.42-.08-.6-.03-.21.69-.82.8-1.26,1.13,2.54,3.34,8.05.73,11.92,1.85.18.19-1.08,2.49-1.36,2.93l1.22-.54c0,1.34.98,2.12,1.65,3.1-.18-.4-.52-4.08-.37-4.23.98-.12,1.54.72,2.33,1.33.21.16.35.46.57.63l-1.68.19-.14.02.03.1.99,3.26c-.07.08-1.68-1.2-1.73-1.3.23.34.3.95.54,1.23.38.46,1.26.83,1.73,1.3.09.78.39.87.53,1.23,1.36,3.37,3.84,3.32,1.41,7.29-.18.3-.84,1.04-1.3,1.73l.6.03,4.76.86c-.21,1.63-.41,3.19-.86,4.76-.06-.01-.34.16-1.2-.06-.81-.21-1.59-1-2.64-1.06-2.79-.17-5.23.69-3.52,3.74,1.21-.26,3.02.1,4.83-.34.2-.05.44.09.6.03.33-.12.67-1.66,1.86-1.1l-1.9,1.7c-1.04.88-1.04,1.8-1.36,2.93-.63,2.23-.91,2.98.27,5.34.02.03.03.06.04.09.06-.03.09-.08.14-.11,1.04-.74.45-3.42.72-4.65l.6.03c.31-1.76,1.83-3.41,2.09-5.26,0-.01,0-.02,0-.03h.12s.47.03.47.03c-.06.5.32.84.54,1.23,2.33,4,.58,2.71-.48,4.2-.73,1.03-.12,3.09-2.3,2.87.07.25-.06.61.15,1.02.19.37.7.55.95.84-.11.17-.2.32-.27.47-.86,1.22-2.15.37-3.33-.67-.32.12-1.74-.45-1.24.83.38.97,1.86,1.32,2.14,1.74.14.2-.31,1.02-.06,1.49.59,1.12,1.64,1.8,1.79,2.99-.53.7-2.67-1.68-3-.6-.05.16-.06.4-.02.74-2.49-2.07-1.31-.46-3.63.41.05.79-.16,1.61-.12,2.4.08,0,.16,0,.22-.02ZM263.94,166.54c-.17.05-.39-.06-.6-.03-.59-.4-1.13-.91-1.73-1.3-.18-1.94,1.59-1.63,1.21,0,0,.02,0,.04,0,.06h.21s.37.03.37.03c-.19-2.01,2.16-.92,3.67-1-1.28.73-1.32,1.72-3.13,2.24ZM271.33,163.33c-.28.09-.49.31-.63.57-1.03.67-1.17,1.04-1.9,1.7l-.5-1.83c1.2-.54,2.58-1.64,3.63-.41l-.6-.03ZM362.15,140.58l2.39.13c-.39,1.17-1.35,1.28-2.46,1.06l.06-1.19ZM346.15,113.86c.09,1.13-.11,2.07-1.32,2.33l.13-2.39,1.19.06ZM344.55,110.16c.39-.72,1.38,2.24,1.03,3.06-1.33-.43-1.18-1.94-1.03-3.06ZM307.15,67.85c-.16-2.51,1.02-2.45.59.03l-.59-.03ZM272.35,142.84c-.18.25-.56.34-1.12.04,0-.03,0-.07.01-.11.08-.54-.05-1.23.09-1.69.16.06.28.14.41.21.7.45.89,1.17.62,1.54ZM272.07,138.42l.6.03c-.22.38-.42.37-.6-.03ZM272.25,135.12l.06-1.19c.76.17,2.48-.15,2.93.24.25.22-.09.92,0,1.12.2.46,1.25,2.32,1.07,2.46l-1.2-.05c-.09-.57.28-2.22.13-2.4-.14-.17-2.35-.01-2.99-.16ZM274.47,138.55c-.22.38-.42.37-.6-.03l.6.03ZM274.53,142.44c-.81.11-.63-.18-.84-.63,1.12-.95,3.42-1.18,4.86-.93l-4.02,1.56ZM279.52,145.13l-1.78-.39c.58-.61.97-1.04,1.84-.8l-.06,1.19ZM279.99,147.56c.56.77-1.34,2.3-1.89,1.7-.88-.97,1.8-1.82,1.89-1.7ZM276.4,147.36c-.4-.23.41-1,1.22-.52.4.23-.41,1-1.22.52ZM280.71,156.62c-1.14-.16-3.01,1.06-3.6-.19.12-.17-.14-.98.1-1.15.46-.33,1.84.69,2.77.49.36-.08.67-.34.82-.94-3.04-.56-.78-3.97.33-1.18.23.58-.35,1.11-.33,1.18.12.49.36,1.41.5,1.83l-.6-.03ZM280.19,143.97c-.62-1.34,2.46-4.17,3.19-3.43-.69,1.38-1.7,2.81-3.19,3.43ZM287.29,151.56c-2.21.54-1.63-1.79-2.07-2.4-.09-.13-.88.27-1.1.08-.6-.53-.83-1.73-.49-2.08.2-.2,5.28,1.15,5.29,1.78-.57.6-.86,2.43-1.63,2.62ZM285.75,141.26c.28.24-1.13,1.53-1.86,1.09-.28-.24,1.13-1.53,1.86-1.09ZM293.22,147.67c.67-.12,1.65.2,2.4.13-1.25,3.66-6.21.57-2.4-.13ZM312.95,131.88c3.5-2.31,1.82,2.82,1.36,3.08-1.85,1.02-2.68-2.2-1.36-3.08ZM312.86,129.2c.58-.61.97-1.04,1.84-.8l-.06,1.19-1.78-.39ZM314.11,139.49c.76-1.57,2.76-.69,1.78.38-.09.1-2.45,1.01-1.78-.38ZM315.76,142.28l.09-1.8,1.19.06c.14.84-.41,1.58-1.29,1.73ZM318.15,131.29c.05.53-1.17.28-1.21.23-.64-.73.36-1.92,1.21-.23ZM316.17,145.91l1.7,1.89c-1.1.14-1.95-.77-1.7-1.89ZM317.54,153.8c-.1-1.26.01-1.37,1.26-1.13l-1.26,1.13ZM318.44,137.02l1.2.06-.13,2.39-.59-.03-.48-2.42ZM320.98,145.56c-1.41-.03.18-1.76.01-2.3-.04-.14-2.25-1.02-1.54-2.58,1.78,1.86,3,2.23,1.53,4.89ZM322.12,124.58c-.23.4-1-.41-.52-1.22.23-.4,1,.41.52,1.22ZM323.49,110.22l-1.2-.07.7-1.76.59.03-.09,1.79ZM324.26,151.76l1.78.39c-.86,1.09-1.34.95-1.78-.39ZM327.12,98.69c-.76,1.81-2.4-.44-1.74-.98.23-.19,2.26-.26,1.74.98ZM327.62,89.41c.4.23-.41,1-1.22.52-.4-.23.41-1,1.22-.52ZM328.03,115.29l-.03.59-2.39-.13.03-.59,2.39.13ZM326.14,116.99c.69-.62,1.82.64,1.13,1.26-.69.62-1.82-.64-1.13-1.26ZM325.99,119.68c-.22.38-.42.37-.6-.03l.6.03ZM326.05,107.35c-.69.62-1.82-.64-1.13-1.26.69-.62,1.82.64,1.13,1.26ZM324.72,121.12c.4-.54,5.01-.46,6.02-.28l-5.26,2.7c-.74-.44-1.17-1.87-.76-2.42ZM330.66,133.45c-1.12.03-2.64.03-2.93-1.35.85-.26,3.69,1.04,2.93,1.35ZM338.8,138.72c.7-.57,3.89,2.18,4.04,3.21-2.4-1.12-3.42-.52-4.04-3.21ZM341.44,123.21c-1.32-.38-2.74-.95-3.5-1.99-.72-.99-1.36-1.62-1.03-3.06,1.15.37,1.6,1.79,2.26,2.53.67.74,2.02,1.34,2.27,2.52ZM339.59,118.31l2.57,2.53c-.5-.04-2.83-1.24-2.93-1.37-.05-.07-.15-1.27.35-1.17ZM339.25,130.32c.74-.79,1.36-1.95,2.52-2.27.06,1.07-1.1,2.19-1.95,2.9-.32.26-1.68,1.33-1.86,1.1-.81-1.04.9-1.31,1.29-1.73ZM339.52,136.35c.4.23-.41,1-1.22.52-.4-.23.41-1,1.22-.52ZM342.46,115.45c-.32.26-4.65,1.26-5.46.91.03-2.07,7.74-2.76,5.46-.91ZM340.38,109.33c-.11.11-2.48.33-3.03.44.6-2.3,4.51-1.84,3.03-.44ZM339.12,110.47c.28.24-1.13,1.53-1.86,1.09-.28-.24,1.13-1.53,1.86-1.09ZM340.15,113.52c-1.66.43-4.2,1.27-4.13-1.41l4.13,1.41ZM340.33,143.61c.06,1.26-2,.17-2.43.47-.18.13,1.88,3.24-1.42,2.63-1.44-.27-2.47-2.06-2.34.16-1.05.17-.36-.97-.64-1.4-.7-1.05-1.3-1.07-2.19-1.76,0,.13-.45.27-.48.51-.15,1.42,1.18,2.9-.88,2.43l.12-2.4-.98,1.74c-1.61-1.5-1.5-1.44-.14-3-1.76.22-2.04.98-2.97-.76-.47-.89-.8-1.27-.47-2.43,1.76-.46.96,1.11,1.13,1.26.39.36,2.35-.44,3.03-.44.19,0,.41,0,.6.03-.54-.48-1.13-.9-1.73-1.3-1.78-1.19-2.62-1.75-2.77-4.36,2.28.67,4.94-.06,7.55,0,2.7,3.43,2.18,7.16,7.01,8.6ZM334.72,130.68l.16,2.41-.59-.03c-.13-1.27-.92-1.59.42-2.38ZM334.21,101.19c.23-.4,1,.41.52,1.22-.23.4-1-.41-.52-1.22ZM335.16,116.87l-.79,3.56-.8-1.85-2.19,1.69,1.69-3.51c.62-.21-.11,1.01.54,1.23,1.5.51.41-1.39,1.55-1.12ZM333.96,94.56c.14,1.1-.77,1.95-1.89,1.7l1.89-1.7ZM331.93,110.08c.69-.62,1.82.64,1.13,1.26-.69.62-1.82-.64-1.13-1.26ZM332.26,114.91c.35,1.75-3.16,2.78-3.06,1.33.03-.39,2.67-1.76,3.06-1.33ZM326.92,102.59c.42-1.52,3.49.43,3.53,1.39l-3.53-1.39ZM329.53,92.48c.61.23.06,1.76.81,2.19l-2.9-1.67c-.2-.94,1.77-.64,2.09-.52ZM327.72,87.61c.41.21-2.92,2.7-3.03.44l3.03-.44ZM325.21,100.7c1.91,1.51,1.07,3.02-.82,4.16l.76-2.96c-2.47.1-1.24-.19-1.7-1.89,1.11-.28,1.03.6,1.17.66.18.08.48-.06.6.03ZM323.78,94.01c.23-.4,1,.41.52,1.22-.23.4-1-.41-.52-1.22ZM321.91,95.11c.6-.61,2.37,1.35,1.7,1.89-1.06.85-2.66-.91-1.7-1.89ZM318.73,87.12l-1.13-1.26c1.26-.1,1.37.01,1.13,1.26ZM315.97,93.59c.4.23-.41,1-1.22.52-.4-.23.41-1,1.22-.52ZM312.77,86.2c1.45.02,2.11-.27,1.73,1.29l-1.76-.7.03-.59ZM314.34,90.5l-.03.59-2.99-.16c-.3-2.24,1.4-.48,3.02-.43ZM306.6,104.66c.12-.02.25-.06.37-.13.33-.09.94.17,1.2.06.67-.28,1.37-1.18,1.9-1.7-1.08-.37-1.23-1.42-1.07-2.46.14.09.43-.06.6.03.27.14.38,1.37,1.28,1,.14-.1.29-.2.49-.3-.05-.54-.44-.47-.57-.63l.03-.6c.13.07,1.62.15,1.8.1.08-.03.65-1.14,1.26-1.13.44-1.15,1.56-2.62,3.11-1.94-1.51,1.65-.86,4.6-3.87,4.9.1.71-.18,1.64-.13,2.4.34.14.4.4.57.63,2.95.33,6.06.1,8.99.49.97.13,1.99.27.55.93-1.43.66-1.11-.36-1.19-.37-1.98-.2-4.01-.15-5.99-.32-.39,1.08.49,1.09.53,1.23,2.01-.11,3.53.8,4.68,2.36-1.24.42-3.72.75-1.94,2.6-.35-3.32,2.35-1.55,1.11-.01-.17.22-.97-.08-1.11.01-.36.25-.55,1.23-1.26,1.13-.04-.78.19-1.63.12-2.4l-3.56-.79-.36,1.18c-.32-1.1-2.11-2.86-3.21-2.3-.98.5-.76,2.61-1.91,2.62,1.78-3.91-1.05-2.2-1.67-2.74-1.3-1.15.72-3.72-1.61-3.45.19-.04.5-.24.86-.4ZM310.83,111.05c-.22.38-.42.37-.6-.03l.6.03ZM309.45,114.28c0-.07-.8-.64-.53-1.23.2-.13.68-3.31.53,1.23ZM306.04,121.04c1.15.7,1.2,1.79,1.92,2.6.27.3,1.27,0,1.57.65.33.7,1.01,6.36.83,7.16-.34,1.47-2.86,1.96-3.47,3.71-.4,1.16-.26,4.41.53,5.46,3.47-1.65,7.26-.54,2.3,1.93-1.63.81-3.81,1.37-5.53,2.11-.76-.67-1.32-1.72-1.1-2.72.14-.65,1.51.15,1.3-.87-2.75-.78-2.13,1.92-2.62,4.06-1.13.16-2.93-1.12-3.24-1.15-.56-.05-2.05,1.18-2.78,1.42-.51.17-.83.5-1.52.46-.68-.04-.99-.41-1.48-.62-2.56-1.15-5.84-3.94-7.13-6.45-.37-.71-.04-1.93-.33-2.28-.25-.3-1.32.08-1.73-.54-.14-.22-1.37-4.03-1.48-4.53-.07-.31-.22-.84-.34-1.25-.09-.3-.16-.54-.16-.58-.09.73-.15,1.06-.22,1.16-.04-.29.02-.67.22-1.16-.07-1.36.25-2.82.23-4.2,1.08-.13,2.29-.86,3.63-.41-.29-.57-.3-1.26-.5-1.83,1.18.16,2.25.27,3.03-.74-.45-.62-1.27-.98-1.71-1.6-.57-.8-.45-1.76-.51-1.83-.19-.24-.92.53-1.22.54.09-.67.81-1.82.73-2.37l1.2.06c-.34.32-.4.61-.36.88.05.33.24.63.26.92.8-.25.63-1.11.7-1.77.1-.99.07-2,.16-2.99,1.78-.35,1.13,1.56,2.27,2.26,1.78,1.09,2.29-.93,3.51-1.23,1.14-.28,4.1.33,4.36.09.14-.13.09-2.07.79-2.94.55.48.96,1.14,1.1,1.86.1.51-.28,1.34-.11,1.95.15.54,2.81,2.14,2.19,4.17l.95-1.14c.94,1.2,2.68,1.07,3.78,1.74ZM283.19,123c-.1-.15-.11-.5,0-1.12.36-.05.81.09,1.2.06-.38.64-.73,1.06-.97,1.13-.08.03-.15.01-.2-.05,0,0,0-.02-.01-.03ZM286.22,99.21l1.56-1.14c.08,1.13,1.64,1.94,1.97,2.52l.6.03.59.34c-2.09,2.43-.34,2.11-.15,2.69,1.47-.63,2.73,0,4.19.23.15-.62-.13-2.04.18-2.37.2-.21,1.28.11,1.75.07.59-.06-.05-.67,1.2.06,3.27,1.93-.44,5.28-2.87,5.1-1.25-.1-4.06-1.17-5.11-1.92-.22-.16-.36-.47-.57-.63l-.27-.3c-.1-.14-.2-.27-.3-.33-1.77-1.1-2.18-.28-4.19-.23l2.56-2.86c-.39-.22-1.31-.7-1.13-1.25ZM294.54,100.84l.05-.89c2.57-3.16,3.73,1.44-.05.89ZM293.26,113.4l-2.26-2.52c2.36.72,3.48.09,2.26,2.52ZM288.65,109.55c.01.62-.5,2.71-.76,2.96-.08.08-.39-.05-.59-.03-.03-1.1-.05-2.62,1.35-2.93ZM303.03,99.5l-.6-.03c-.71-1.2-.77-2.58.76-2.97-.16.93.06,2.14-.16,3ZM302.17,82.02c.41.15,1.69.67,1.76,1,.57,2.53-.99,1.12-1.86.8-.57-.21-2.39-.57-2.36-1.04.17-2.11,1.51-1.1,2.45-.76ZM301.77,89.52c.07.44-.02,1.04-.09,1.49-.38.04-.87-.14-1.2-.06.54-1.76-.02-1.59-.67-2.48-.87-1.19,1.65-.96,1.96,1.05ZM300.76,96.97c-.1.11-2.67-1.03-1.69-1.89.6-.54,2.33,1.18,1.69,1.89ZM299.06,83.96c-.33.72-1.37-.35-2.01-.27-.64.08-1.3,1.21-1.62.97-.11-.08-.53-1.95-1.08-2.46l4.71,1.75ZM293.08,83.34c1.34-.73,1.52,1.42,1.1,1.85-.07.08-.81-.07-1.2-.07l.1-1.79ZM294.62,88.22l-1.19-.06.1-1.8c.86.25,1.32,1.04,1.09,1.86ZM291.94,82.07c.86,1.26-2.32,2.19-3.09,1.63l.17-3c1-.2.27.87.82,1.12.17.08,1.89-.08,2.11.24ZM289.84,76.54c-.18.69.31.89.53,1.23.42.65,1.64.4,1.1,1.86-1.96.19-5.59-3.45-1.63-3.09ZM283.37,73.79c.02-.18.79-1.85.99-1.75.87.85,1.82,2.07,2.32,3.24.04.16.1.32.19.5.19.6-.09,1.64.47,2.42-3.13.54-4.26-1.54-3.97-4.42ZM285.56,81.08c-.06,0-.11.02-.17.03l1.23-.53c.19.92-.65.53-1.06.5ZM281.54,74.29c.05-.14.03-.41.03-.6-.04-.25-.05-.47-.06-.66.04.21.06.43.06.66l1.26-1.13c.06.24-.01.88-.06,1.2-.03.17-.59.4-.63.57-.17.7.03,2.82-.16,3-.09.09-1.84-.12-2.4-.13.13-.99,1.78-2.4,1.96-2.9ZM273.96,81.1c-.04-.28-.8-1.09-.53-1.23,2.45-.52,2.25.81,2.33,1.2.32-.14.73-.27,1.23-.41,2.24-.51,3.06-.44,5.43-.31.66,1.45,2.18,2.32,3.44,3.19.49.34,1.16.61,1.76.7.74.8-2.41.91-3.06,1.03-1.44.26-2.86.76-4.26.97-1.36-1.49-3-2.66-4.6-3.86-.47-.19-.71-.37-.76-.57-.32-.24-.64-.49-.97-.73ZM274.97,84.76l.06-1.2c.86.69,2.16.92,2.92,1.66-.74.73-2.17-.43-2.99-.46ZM277.27,86.69c.62-.07,1.6-.35,2.43-.47.35,1.3.5,2.9.37,4.23-2.5,1.02-3.36-1.54-2.8-3.76ZM281.08,94.11c.08-.65-.68-.72-1.17-.66.11-3.33,1.46-2.86,4.39-3.37.41-1.39-.78-2.78-.13-3.02.16-.06.44-.05.89.05.18.97.13,2.01.44,3.03.18.59.06.63.53,1.23.42.54.74.45,1.17.66-.03-.22,0-.4.04-.58,0,.16-.02.35-.04.58,1.2.6,1.21.47,2.37.73,3.07.68,3.84.13,6.59.36l1.78-.52h.04s-.01-.04-.01-.04l-.52-1.17c.57-.06,1.31.19,1.8.09l-.03.6c-.61.58-1.06,1.37-1.9,1.7-1.78.71-8.51.44-10.57.08-1.09-.19-.82-2.27-1.99-1.36-.2.15.85,1.05.23,1.21-1.06.27-2.83.08-3.92.39ZM284.11,115.92c-.24.53-.67,1.03-1.26,1.13-.18.03-.4-.05-.6-.03-.67-.65-1.55-.74-2.33-1.33,2.51-.84,2.46-1.6,4.2.23ZM276.82,117.33c1.19,1.02,2.71.14,2.99.16l-.57-.63c.6-.02,1.2.11,1.8.09l.53,1.23-.03.6c.34-.03.83-.45,1.23-.53.24.25,1.64-.59,1.13,1.26-1.46-.03-3.86.21-4.76-.86-1.52-.1-2.83.4-2.33-1.33ZM281.01,122.96c-.1,0-.2.02-.29-.02-.76-.3-1.31,0-1.73-1.3,1.75-1.02,2.04-.87,1.73,1.3l.29.02ZM274.76,122.03c-.04.81-.34,1.37.53,1.23l.08-1.19c1.12-.28,1.02.59,1.16.66.37.18.91.79,1.15.66.06-.03.16-.78.68-1.16,1.78,2.57,1.59,1.7,2.97.76.59.27,2.31.89,1.73,1.29l-3.06,1.04c-1.37.1-1.53,1.24-2.93-1.36,0,.72-.43,2.32-.76,2.97-.08.16.07.49-.33.57-.36-.04-.23-.39-.27-.6-.08-.52.15-1.22.09-1.8l-.58-.03c-.02.43-.35.91-.67,1.16l-.57-.63c.03-.39.07-.8.06-1.2,0-.87-1.66-2.73.73-2.37ZM273.43,129.76c.66-.76.75-.59,1.53-.21,1.74.83-.51.91-.56.97-.37.47,1.55,3.47-2.05,2.79,1.35-1.2.7-2.05,1.08-3.55Z"/>
        <path class="cls-2" d="M286.89,64.08l-1.04-2.78c-.18.06-.44-.1-.6-.03-.13.54.45,1.75.47,2.43l1.17.38Z"/>
        <path class="cls-2" d="M287.61,61.99l.1-1.79c-.24.14-.42.46-.63.57-.04.81-.34,1.37.53,1.23Z"/>
        <path class="cls-2" d="M292.69,68.28l-.03.59c2.48.43,2.54-.75.03-.59Z"/>
        <path class="cls-2" d="M286.84,65.26l-.6-.03c.18.4.38.41.6.03Z"/>
        <path class="cls-2" d="M266.39,154.64l-.79,3.57,4.24-.67c-.98-1.31-1.48-2.94-3.44-2.9Z"/>
        <path class="cls-2" d="M272.31,156.17c-.19-.53-1.44-1.19-1.7-1.9-.07.08-.12.15-.16.23-.42.53-1.24,1.26-1.13,1.49.07.15,2.21,1.5,2.59,1.96.09.01.43-1.7.4-1.79Z"/>
        <path class="cls-2" d="M273.51,156.23c.29.09.7.65.87.62,1.5-.24.56-1.85.44-2.28,0-.03,0-.05-.01-.08-.92.17-1.23.86-1.3,1.73Z"/>
        <path class="cls-2" d="M257.05,171.57l.03-.59-1.19-.07,1.36-2.93c-2.32-.68-2.02.8-1.96,2.89.04,1.21.36,1.74,1.76.69Z"/>
        <path class="cls-2" d="M259.51,170.5c.69-.62-.44-1.88-1.13-1.26s.44,1.88,1.13,1.26Z"/>
        <path class="cls-2" d="M259.16,165.98c0,.66.88.03.62-.27-.13-.14-.62.06-.62.27Z"/>
        <path class="cls-2" d="M263.68,81.18c-.22-.29-1.44.04-1.74-.13-.72-.4-1.35-2.06-3.53-1.39.99.71,2.05,1.34,2.9,1.96,1.38,1,1.21,1.71,1.05,3.17-.02.16-.03.32-.05.5l1.2.06c-.14-.93.51-3.72.17-4.16Z"/>
        <path class="cls-2" d="M271.16,121.83c-.02-.27.11-.66.08-.94-.01-.08-.03-.15-.08-.21-.23-.25-.87-.02-1.13-.12.03.39-.12.84-.06,1.2.34-.09.92.17,1.2.06Z"/>
        <path class="cls-2" d="M259.04,145.83c1.43-.47.14-2.22,2.93,1.36l.77-2.96c-.78-.29-1.46-.45-2.21-.58-.38-.07-.78-.13-1.23-.19.61.01,3.32-.42,3.45-.52.5-.4-.06-3.56,4.35-1.47-.83-1.51.39-2.06,1.87-1.4l-.47-2.14c-1.13.08-2.43-.23-3.6-.19-1.75,1.52-3.77,2.9-5.65,4.5.04.35-.15,1.11-.06,1.2-.12-.02-.24-.02-.36-.02-.28-.01-.56-.01-.84-.04.03.78-.2,1.64-.13,2.4.3-.1.89.17,1.2.06Z"/>
        <path class="cls-2" d="M263.55,151.48c.69-.62-.44-1.88-1.13-1.26-.14.13-.19.28-.2.43-.01.17.04.33.13.48.25.42.8.7,1.2.34Z"/>
        <path class="cls-2" d="M325.1,80.55l-.6-.03c.18.4.38.41.6.03Z"/>
        <path class="cls-2" d="M298.47,117.29c-.23.93.35,1.76,1.24,1.88.14.02.29.03.45,0l-1.37-1.53-.32-.36Z"/>
        <path class="cls-2" d="M289.71,101.19c-.71.08-1.23-.5-1.77-.7l-.09,1.8c.18.23,1.54-.84,1.86-1.1Z"/>
        <path class="cls-2" d="M268.83,142.74c.11-.98-1.67-1.18-1.73-1.29.31.15.49,1.72,1.73,1.29Z"/>
        <path class="cls-2" d="M285.44,158.08c-.41.12-.83.45-1.23.53-.89,1.35-2.62,2.35-2.62,4.06,1.05.23,2.04-.39,3.03-.43.96-1,1.41-1.6,1.96-2.9-1.42.65-2.1,2.3-3.73,2.2.76-1.38,2.3-1.64,2.59-3.46Z"/>
        <path class="cls-2" d="M286.41,162.34c.19,0,.59,0,.6.03l.61-.27c-.03-.62-1.21-.55-1.21.24Z"/>
        <path class="cls-2" d="M268.96,118.1c.19-2.17-.49-.97-1.77-.7-.37,1.65.47,1.51,1.77.7Z"/>
        <path class="cls-2" d="M41.97,466.86c1.12-.07,2.06-.16,2.7-.28-1.59.1-3.16.23-4.71.38.71-.03,1.39-.06,2.01-.1Z"/>
        <path class="cls-2" d="M119.13,490.47c-.3-.54-.58-.8-.9-.95-.34-.16-.72-.19-1.24-.29,2.25,5.81-2.03,11.41-1.31,17.37,1.15-.8,1.47-1.67,3.1-1.19.96-1.46.83-5.33,2.09-7.08-.45-2.59-1.33-5.35-1.74-7.86Z"/>
        <path class="cls-2" d="M95.63,454.72c.13-.79-1.29-2.68-1.84-3.45-2.57-.13-2.89-.24-3.96,1.42.92.99,2.07,1.67,3.18,2.41.24.16.96.09,1.62.65.13-.27.91-.48,1-1.03Z"/>
        <path class="cls-2" d="M76.8,418.26c.06-.05.11-.1.17-.14v.41s.08,2.64.08,2.64l1.99-.72c.05-.72.09-1.49.13-2.21-.87-1.31-1.9-.61-2.73-.72-1.22.56-2.37,1.18-3.45,2.01-.41.32-.77.71-1.17,1.04-.21.45-.29.93-.65,1.62.58,0,1.22-.12,1.69-.45,1.38-.98,2.57-2.42,3.93-3.48Z"/>
        <path class="cls-2" d="M142.86,524.12c.17-.16.29-.36.32-.61-.33.25-.37.44-.32.61Z"/>
        <path class="cls-2" d="M144.28,523.59c-.84-.8-1.08-1.86-1.48-2.88-.2-.51-.23-.97-.27-1.26-.04-.33-.1-.45-.42-.23-.19.14-.48.4-.94.84.09.33.8.76,1.04,1.17-2.14-.97-3.06.57-4.55,1.94l5.52.33c.08-.06.76.31,1.1.09Z"/>
        <path class="cls-2" d="M62.11,443.81l-1.04-1.17-.59.52c-.15.22-.51.33-.59.52l1.56,1.76c.29-.46.36-1.19.65-1.62Z"/>
        <path class="cls-2" d="M76.99,440.54l.84-.22c.02-.37.04-.74.07-1.1l-.81-.31c-1.03.67-1.04.85-.1,1.63Z"/>
        <path class="cls-2" d="M98.62,481.47l.87-.78c.29-.45-.08-.58-.21-.85h-.24c-.28,0-.72.01-.87-.07-.21.08-.35.4-.59.52.39.32.67.92,1.04,1.17Z"/>
        <path class="cls-2" d="M84.56,454.07c-.03-.26-.26-.65-.83-1.2-.2-.16-.31-.44-.52-.59-.38,1.98,1.45,2.58,1.35,1.79Z"/>
        <path class="cls-2" d="M74.82,416.88c.32-.39.87-1.52,1.24-2.14l-1.62-.65c.05,1.28-1,2.34-1.3,3.25.1.14.24.21.38.23.46.06,1.06-.38,1.31-.69Z"/>
        <path class="cls-2" d="M40.54,493.76l.59-.52c-.53-.21-.73-.03-.59.52Z"/>
        <path class="cls-2" d="M63.25,457.46l-.02.03-1.53,2.36c.19.29.49.32.81.23.58-.17,1.23-.77,1.46-1.2.04-.07-.18-1.67-.73-1.42Z"/>
        <path class="cls-2" d="M143.9,557.34l-1.4.7s-.05,0-.04.02l3.51,1.63c.12-.22.49-.31.59-.52-.38-.62-2.02-1.21-2.66-1.82Z"/>
        <path class="cls-2" d="M143.72,560.65l1.54,1.76c.09-.34-.03-.82.07-1.1-.71-.78-.94-1.58-1.61-.65Z"/>
        <path class="cls-2" d="M133.24,559.46l-.51-.57c-2.69,1.87-1.67,3.02.51.57Z"/>
        <path class="cls-2" d="M141.44,556.92l.59-.52c-.53-.21-.73-.03-.59.52Z"/>
        <path class="cls-2" d="M78.59,455.34l-2.53-4.03-3.31,4.5c2.1.32,4.06,1.37,5.84-.47Z"/>
        <path class="cls-2" d="M74.63,456.77c-.2-.07-3.42.62-4.19.55-.1.07,1.15,1.98,1.26,2.03.67.32,2.42-.21,3.31.2,0-.13-.03-.25-.06-.36-.1-.87,0-2.3-.32-2.41Z"/>
        <path class="cls-2" d="M70.53,460.39c-.35.19-1.24.03-1.38.22-1.17,1.6,1.17,2.23,1.67,2.52.03.02.05.04.09.06.69-1,.35-1.92-.39-2.79Z"/>
        <path class="cls-2" d="M74.85,434.6c2.77-1.5,1.14-2.59-.83-4.48-1.14-1.09-1.93-1.28-2.26.97l.51.57,1.17-1.03,1.42,3.96Z"/>
        <path class="cls-2" d="M70.45,434.34c-.07,1.2,2.12,1.34,2.2.13s-2.12-1.34-2.2-.13Z"/>
        <path class="cls-2" d="M74.92,438.21c-.61-.6-.85.78-.33.81.25.01.52-.62.33-.81Z"/>
        <path class="cls-2" d="M148.34,520.95c.47.06,1.3-1.35,1.73-1.47,1.04-.29,3.14.67,4.55-1.94-1.57.25-3.13.63-4.48.84-2.19.34-2.68-.48-3.88-1.97-.13-.16-.26-.33-.41-.5l-1.17,1.04c.98.73,2.93,3.92,3.66,4.01Z"/>
        <path class="cls-2" d="M106.08,486.36c.14-.04.32-.3.54-.33.09-.01.19,0,.29.11-.02.07-.02.14-.02.2-.04.42.19.82.23,1.18.05.48-.83,1.56-.14,2.2l1.46-1.29-.22-.84c.53-.33,1.12-1.41,1.75-1.39.51.01.82.95,1.04,1.01-.13-.55-.2-.95-.23-1.25-.17-1.79,1.25.35,1.81-.08.71-.55,3.45-4.43,3.74-4.38.36.05.7.9,1.06,1.12l-1.76,1.56c-.9.8-2,2.02-2.93,2.59.54.56,1,1.21,1.56,1.76,1.25-.69,1.92.69,1.02-1.96l.8-.7c.82,1.06,2.13,1.64,3.18,2.41-.29-1.81-.51-3.75-.77-5.59-.27-1.9-.38-3.7-.77-5.59-.38-.08-.69-.09-.97-.06-2.06.22-1.56,3.06-4.62.83-.55-.4-.99-1.27-1.56-1.76-.55.18-1.14.27-1.69.45-.91,1.46,2.08,1.91,3.18,2.41.78.36,1.62.18,2.14,1.24l-2.5.13c1.46,2.7-1.09,1.59-2.19,3.15-.4.57-.23,1.94-.6,2.47-.05.08-.11.14-.19.18-.2.1-.5.05-.96-.23.38-.46,1.23-.58.91-1.34-.92-2.2-1.2.54-1.43.75-.2.19-1.95-.18-1.76,1.56-.76.29-1.69.24-2.27.97.76.38,1.44.72,2.14,1.23.12-.14.2-.26.25-.38.51-.7,1.06-1.21.47-2.35Z"/>
        <path class="cls-2" d="M105.24,491.18c.45.03.82-.78,1.16-.93-.38-.33-.66-.89-1.04-1.17-.23.39-1.01.69-1.17,1.04.26.23.5.72.79.94.08.07.17.12.26.12Z"/>
        <path class="cls-2" d="M89.51,458.2l2,3.45c.98-.44,1.76-.92,2.58-1.48.41-.29.84-.6,1.32-.95-.58.55-2.69,3.43-2.72,3.64-.09.83,3.31,3.25-2.68,5.35,2.15.63,1.53,2.27-.45,3l2.39,1.55c.98-1.11,2.46-2.01,3.51-3.11.23-3.01.84-6.13,1.12-9.35-.36-.28-.88-1.17-1.04-1.17.13-.09.24-.2.36-.31.27-.25.53-.5.81-.73-.74-.69-1.32-1.7-2.07-2.34-.18.37-.98.66-1.17,1.04-.9,1.75,1.9,2.18-3.96,1.42Z"/>
        <path class="cls-2" d="M84.12,455.67c-.07,1.2,2.12,1.34,2.2.13.01-.24-.08-.43-.21-.58-.14-.16-.34-.27-.56-.33-.62-.16-1.38.08-1.42.78Z"/>
        <path class="cls-2" d="M91.98,577.75l.59-.52c-.53-.21-.73-.03-.59.52Z"/>
        <path class="cls-2" d="M66.19,433.08l.42.48c-.95.56.26,1.25.45,1.69,1.7-.62,3.31-1.78,4.61-3.05l-2.52.68c-.39-1.42,2.46-4.76-.52-5.29.12-1.32.34-1.72.2-3.31-.03-.36.03-.74.07-1.1-.92-.21-1.97-.04-2.79.39.03.39.28,1.37.45,1.69.02.03.11.05.22.07.25.08.47.14.68.17.37.16.65.49.41,1.24-.28.89-1.7-.69-.47,3,.39-.35.78-.69,1.17-1.04-.1.66.78,1.85-.42,2.47-.4.33-.53-.03-.61-.48-.04-.23-.06-.48-.09-.69-.02-.09-.03-.17-.06-.26-.96.86-2.19,1.32-1.82,2.66.05.2.34.44.61.69Z"/>
        <path class="cls-2" d="M80.16,518.71c-.15.11-.3.25-.43.41l2.67.16.63.04c-.64-1.07-1.93-1.31-2.88-.61Z"/>
        <path class="cls-2" d="M106.61,523.52c-.38-.05-.66,2.19-.71,2.72.58-.72,1.6-.66,2.27-.97l-1.56-1.75Z"/>
        <path class="cls-2" d="M87.22,468.6c.79,1.01,2.63-.44,2.79-.39-.42.15-2.02-1.15-2.79.39Z"/>
        <path class="cls-2" d="M57.02,464.01c.56,1.97-.63,3.62.77,5.58.27-.49.36-1.18.65-1.62-.41-2.07.28-4.58-1.29-6.17-1.18.75-1.53,2.23-2.41,3.17.03,1.81.16,2.77.84,4.48.72-1.9-.16-4.05,1.44-5.45Z"/>
        <path class="cls-2" d="M52.08,467.86c.6.55,1.62-.6.91-1.33-.17.17-.55.53-.59.52l-.32.81Z"/>
        <path class="cls-2" d="M109.65,491.56c1.81,2.18,1.35.45,2.27-.97-1.17-1.86-1.82-.96-2.27.97Z"/>
        <path class="cls-2" d="M144.53,528.56c-.34,0-1.27-3.29-1.42-3.96l-.64,1.61c-1.23-1.24-2.85-1.07-4.36-1.36.53.2,4.22,3.3,4.21,3.58-.8,1.01-2.08.75-3.37.9-.34.04-.75-.11-1.1-.07l1.38-1.71.11-.14-.12-.07-3.9-2.11c0-.14,2.66-.43,2.79-.38-.52-.1-1.15-.61-1.62-.65-.77-.07-1.93.39-2.79.39-.79-.64-1.15-.45-1.62-.65-4.34-1.88-6.59.43-7.98-5.47-.1-.44-.17-1.73-.39-2.79l-.59.52-5.2,3.56c-1.29-1.7-2.54-3.33-3.56-5.2.07-.04.17-.46,1.17-1.04.95-.54,2.39-.53,3.41-1.43,2.74-2.39,4.22-5.42-.15-6.69-.89,1.35-2.89,2.67-4.16,4.73-.14.22-.49.31-.59.52-.2.41.9,2.14-.72,2.72l.2-3.31c.15-1.77-.68-2.62-1.42-3.96-1.46-2.65-1.88-3.59-5.13-4.7-.05-.02-.08-.03-.12-.05-.03.07-.01.15-.02.23-.29,1.64,2.71,3.58,3.59,4.98l-.59.52c1.32,1.91,1.42,4.84,2.88,6.79,0,.01.01.02.02.04l-.11.1-.46.4c-.4-.52-1.06-.49-1.63-.64-5.82-1.58-3.02-1.99-3.39-4.33-.26-1.62-2.72-2.97-.49-4.77-.3-.17-.5-.62-1.07-.81-.52-.17-1.15.12-1.65.09-.05-.27-.11-.5-.19-.71-.3-1.9,1.67-2.29,3.7-2.41.19-.41,2.03-1.17.4-1.9-1.24-.55-2.93.47-3.58.34-.31-.06-.64-1.23-1.31-1.44-1.57-.51-3.16-.17-4.4-1.13-.15-1.13,4-.88,3.33-2.19-.1-.2-.31-.43-.66-.71,4.2-.37,1.63-.78,2.99-3.7-.77-.68-1.33-1.64-2.08-2.34-.08.08-.14.15-.19.22,0,0-.01.02-.02.03-.91,1.3,2.11,1.87.32,2.8-.7.36-1.76-1.45-2.54-2.33-.12-.14-.24-.26-.35-.34.18-.19,1.51-.14,1.87-.72,1.72-2.78-4.78-4.34-5.88-6.17-.24-.4-.3-3.08-.32-3.9-.02-1,.2-3.12.27-4.42-.69-.65-1.21-.92-1.59-.93-.26,0-.44.11-.56.33-.39.69-.07,2.35.85,3.84-1.08-.42-2.15-.93-3.25-1.3-.29-.1-.77.04-1.1-.07l1.05-1.83.18-.31c-.01-.13-.1-.21-.21-.26-.51-.24-1.82.21-1.99.13-.25-.11-.73-.82-1.04-1.17-.89-1.01-1.4-2.27-2.01-3.45.31-.45.26-1.34.96-1.85,1.5-1.08,3.19.34,3.14-1.78l-.52-.59c-1.77-.04-2.99,2.08-4.03,2.53-1.39.6-4.04.18-3.76-1.89.68-.15,1.71.9,1.91.39.03-1.24-.36-2.45-.61-3.64-.15-.74-1.44-1.73-.39-2.79.7.77,1.39,1.56,2.08,2.34,1.45,1.64,1.16,3.55,4.28,2.47-3.25-3.63-5.32-7.92-8.17-11.57-.42.05-1.66.24-1.68.45,2.51,3.06,2.12,7.8-2.67,7.6l2,3.45c.3-.29.27-1.7.65-1.62.96.58.68,1.65.98,2.27.18.39.77.75,1.04,1.17-3.41,1.45-.4,3.92,0,4.92.06.15.06.27-.03.34-.06,0-.12-.03-.18-.04-1.11-.2-1.85-1.94-2.71-2.64.05.28-.16.75-.07,1.1.49.33.81.63,1.02.89-.31-.24-.65-.53-1.02-.89-.15-.1-.41-.14-.7-.17-1.09-.1-2.75.03-1.96-1.65,1.79-.52,1.64-.17,2.73.72-.23-1.35-1.19-2.45.2-3.31l-.52-.59c-.33.17-.9-.13-1.1-.07-1.72.53-3.25-.73-2.34,2.07-.35.08-.93,1.08-1.17,1.03-.2-.03-1.38-2.64-2.01-3.44-1.43,2.07-1.86-.1-3.25-1.3-.5-.44-2.05-1.07-2.06-1.21-.03-.36,2.12-6.54,2.3-6.86.97-1.73,3.79-1.03,5.09-2.86.51-.71-.71-1.43-.7-1.54l-.84.22-.77-.87c.81-.63,1.5-1.49,2.34-2.08,1.88-1.31,1.31.11,2.53-.29.08-.03.16-.06.26-.1-.09-.03-.15-.06-.24-.08-4.03-1.33,1.44-3.33.58-5.44-.1-.25-1.37-1.67-1.56-1.76-.3-.14-2.15.52-2.79.39-.67-.14-2.34-.44-2.73-.72,1.9-1.99,2.58-2.76-.97-2.27.25.35.2,1.47.45,1.69l-.59.52c.22.38.9,2.94.9,3.38,0,1.81-.54,3.24-2.34,2.07.09-1.23.74-2.72.51-4.12l-1.49,1.84-.43-1.69c-1.67.64-1.81,2.31-2.42,3.18.57,1.23.15,2.25-.99,2.94l-.83-.28-.59.52c-.1-.24-.47-.38-.52-.59l-.59.52c.21.47.2,1.35.45,1.69l-.59.52c-.15.22-.51.33-.59.52l-.13,2.21c-.07.21-.52.31-.59.52l.38,2.79,1.76-1.55c-.62.88-1.34,2.7-1.89,3.76-.89.85-1.52,2.4-1.82,2.66l.52.59c1.47.4,2.97-1.54,4.03-2.53,1.89-1.75,1.6-2.42,1.82-2.66.35-.37.86-.66,1.17-1.04-.07.19-.07.39-.04.6.13,1.05,1.21,2.22,1.21,2.6,0,1.06-.87,1.5-.92,1.79-.29,1.73-1.4,4.58-1.44,5.45-1.94-.93-2.01,1.65-2.34,2.07l.52.59c-2.77,1.29.19,2.58-1.89,3.76-.33-.39-.74-.75-1.04-1.16-.38.69-.14,1.64-1.24,2.14-.17-.82-.67-1.52-.97-2.27-2.31,6.05-2.19-2.49-7.47-.17-.5-.62,1.06-1.26,1.5-1.85,2.19-2.94-1.08-1.64.79-3.83.17-.2.42-.32.59-.52.04.12.41.55.52.59.73-.73,1.63-1.33,2.34-2.07.46-.48,1-.91.65-1.62-.19-.02-.3-.51-.52-.59l-.67-.27-.96-.38c-.22-.09-.31-.53-.52-.59,0,.06-.03.13-.05.2-.17.49-.66,1.27-.6,1.42l-2.57.36-.21.03.19.11,1.94,1.12c-1.52.93-1.61-2.21-2.27.97-.07.36-.07.74-.07,1.1-.55.13-.97.21-1.27.29-.6.17-.76.37-.65,1,.04.22.11.52.21.87.03.11.05.19.08.31l-.78.71-.52-.59c-.11.17-.4.38-.59.52-1.69,1.3-8.3,1.14-13.11,1.43-1.61.25-3.2.52-4.75.82-.78.44-4.73,3.47-4.17,4.73.92-.77,1.98-1.34,3.15-1.63,9.47-2.33,17.35-.14,26.52,1.58,1.53.29,1.69,2.68,2.48-.22,2.88,2.18-.42,5.26-1.55,7.67l1.68-.45c1.33.2-4.29,12.51-6.84,12.33,1.66.71,3.52-.61,5.27.53,1.05.68.02,1.81.11,2.01-.64,2.22-2.68,3.24-4.16,4.73-2.97,3.01-2.16,2.28-3.71,6.42-2.1,5.59-1.66,2.45-2.93,2.59-.16.02-.15,2-.92,1.33-.76-.63-.62-1.78-.12-2.5,1.14-1.62,2.05.19,2.44-.16.28-.25.21-1.06.42-1.33-1.47-3.46-2.84-3.15-5.44-4.48-.54-.28-.83-1.39-1.64-1.72-1.45-.59-2.82.23-4.23.16-.44-.02-1.03-1.04-1.53-1.07-1.01-.06-4.9,2.32-6.18.97l-9.79,33.76c.65-.23.82-.04.52.59.08.02.14.07.22.1.58.15,1.87.09,2.17,1.97.04.26-.29,1.64-.72,3.12-.01.05-.03.1-.04.16-.5,1.74-1.11,3.56-1.36,3.79-1.15,1.08-10.87,2.39-13.14,2.28.28.65.08.81-.59.52-1.28.39-2.54.97-3.9.32.3.63.09.79-.59.52-.44,1.63-.5,3.28-.85,4.93,1.82,7.1,3.19,13.58,6.79,20.08,1.6,2.88,5.13,8.73,7.14,11.05.83.95.99.69,1.87.85-2.24-2.92,1.72-2.68,3.96-1.42,1.96,1.1.4,2.64,3.31.2,0-.13.9-.5.88-1.04-.04-.93-1.39-1.83-.9-3.11,3.76.98,2.95,3.57,6.39-.46.03-.35.23-.74.07-1.1-.25-.55-1.19-1.13-1.55-1.76,2.34-2.94,2.13-.27,3.31.2.16.07,2.06-.8,2.79-.39,1.05-1.01,3.7-4.15,5.19-3.57-2.15,1.88-4.26,3.85-6.43,5.71-.95.82-2.13,2.51-3.45,2.01-.08.18-.4.39-.73.61-.27.47-.56.83-.85,1.12.2.61,1.5,1.13,1.09,1.85-.6,1.05-3.9-.89-5.08.99-.08.19-.17.39-.28.62-.37,1.55-1.41,2.59-1.89,3.76-.26.64-.04,1.98-.72,2.73.09.11.26,1.48,1.13,2.54,3.63,4.38,7.71,8.24,11.84,12.1,3.52-.57,20.15-1.78,21.47-3.28.3-.34-.02-1.49-.1-2.08-.68.26-.85.06-.52-.59,0-.05,0-.11.01-.19l.06-.92c-.64.29-.81.08-.52-.59l.07-1.1c-.68.25-.85.06-.52-.59l.07-1.1c-.68.25-.85.06-.52-.59-1.09-3.58-2.62-10.07-4.2-13-.91-1.68-3.52-3.38-4.07-5.79,1.21-.15,3.25-1.22,4.22-1.15,1.87.13,2.3,2.4,4.06,2.34.42-.19.97-.39,1.65-.58-.66-1.41-.15-1.86,1.17-1.04,3.19-2.38,1.7-.53,4-.12.91.16,2.59-.61,2.94-.28.32.3-.45,1.61-.38,1.9.63-.27.8-.07.52.59l1.62.65c.66-.3.82-.09.52.59l1.62.65c.66-.3.82-.1.52.59l1.62.65c.66-.3.82-.1.52.59l1.62.65c.68-.25.85-.06.52.59,2.7.18,5.22,2.37,7.53,3.78.72-.38,1.72-2.02,2.36-1.95.4.04,1,1.4,1.51,1.44.28.02,3.93-2.2,5.17-2.25l1.28,6.16.59-.52c.4-.32.8-.68,1.17-1.04-.39-1.02.62-1.54,1.24-2.14.37-.36.8-.68,1.17-1.04.37-.36.79-.68,1.17-1.04-.38-1.03.62-1.54,1.24-2.14-.51-2.24-2.66.66-3.45,2.01-1.91.25-2.91-2.63-4.22-3.58-.11-.09-.16-.19-.19-.3-.06-.27.08-.58.25-.81-1.52.14-1.54.52-.36.99-.93-.25-3.46-.44-3.99-2.36l4.34,1.37c1.87-2.47,2.29-2.21,4.1-3.63,1.44,2.27,1.97.21,2.79-.39-.02-.37.08-.74.07-1.1-.06-1.59-.56-2.67-1.42-3.96-.12-.18-2.99-1.01-2.31-3.19.67-.55,2.14,2.16,2.89,2.67.74.51,4.3,1.55,4.28,2.48-3.7.76-1.2,1.68-1.23,2.14l3.83.79c.59-.52,1.17-1.04,1.76-1.56.01-.31-.3-1.32-.45-1.69,2.17-2.26.02-5.5-.72-3.92-.07.15-.13.32-.17.55,0,.02.02.07.06.12.24.31,1,1.07.35,1.71-.13.13-.3.26-.57.37-.62-1.9-.91-3.88-1.86-5.66.86-1.17,1.24.65,1.62.65.4,0-.07-2.74,2.12-3.82.91-.44,4.6-.34,5.87-.13.02.58,2.21,1.11-.65,1.61.58,1.71,1.99.56,2.63.71.03,0,.07,0,.09.02.48.24,1.01,1.34,1.56,1.76-.1-.13-.19-.32-.28-.52-.55-1.17-1.15-3.27-2.76-4.1,0-.05-.68-.63.06-1.1l1.62.65-1.48-2.85,4.55,2.75-2.53.69c2.31,1.97,2.81,3.62,3.49,6.31.12.48.72.99.45,1.69,2.08-.66,2.45-.23,1.56,1.76,5.92,3.98,10.02,10.85,15.11,15.87-3.4-4.83-7.28-11.49-10.63-16.71l-.59.52-.12,2.02c0,.09,0,.16-.01.18-.01.01-.04-.02-.07-.08-.32-.36-.72-.7-.97-1.09-1.57-2.47-1.03-2.94-.25-5,.08-.22-.78-1.78.89-1.33,3.58,6.82,8.25,13,12.22,19.57.71,1.18,2.1,2.06,1.07,3.67.33.43.69.88,1.06,1.33,1.29,1.24,2.57,2.47,3.88,3.67,0,0,0,0,0,0l2.13-9.28c0-.17-.02-.32-.04-.45l-1.85,1.15c-.83-2.06.96-2.25,2.36-3.39.87-1.89,1.65-3.84,2.35-5.82.7-2.68,1.41-5.37,2.1-8.05.16-.65.31-1.22.44-1.68-1.37-4.5-5.22-5.51-8.37-8.25-2.49,3.46-2.9,11.16-8.13,6.16l-1.29,3.24c-2.09-2.02-12.07-7.5-12.49-9.62-.11-.58,1.25-4.49,1.96-5.2,1.93-1.93,3.19-1.22,5.42-1.55.39.34.65.7.82,1.07,1.27,2.75-2.52,6.26-.31,8.92,2.19-2.13,1.81-6.56,2.94-8.45.73-1.22,1.71-.93,2.07-1.21.67-.54,1.16-1.04,1.76-1.56.43-.38,1.23-1.06,1.69-.45-.02.04-.13.44-.23.87-.11.47-.21.97-.14,1.01l3.26.78-.63-2.32-.05-.2c.04.05.09.07.13.12,1.01,1.17,2.26,1.37,3.64,1.76.32-.46.62-2.1,1.23-2.14.96-.06,1.74,1.96,2.08,2.34.19.21,1.12.15,1.33.42.16.21-2.4,3.64,2.43,1.47.19-.65.12-2.44.72-2.73l-.52-.59c-.13-.24-.48-.39-.52-.59-.03-.14-.38-2.65-.39-2.79-.02-.35.06-.74.07-1.1,1.1-1.01,1.2-1.87,1.3-3.25.25-3.35-.46-2.44-1.42-3.96-.34.07-.83.97-1.17,1.04-1.2.25-3.03.25-3.83-.79,1.64-1.4,3.12-2.81,5.2-3.56-.04.08-.08.16-.12.24-.27.68-.53,2.35-.08,3.07,1.79-.36,2.81.8,4.41.27l-3.63-4.1c4.07-4.39,9.44-7.5,12.94-12.52.15-.21.46-.31.59-.52-.44-.83.03-1.49.13-2.21-5.41-.77-8.13,6.69-12.74,9.2ZM69.98,442.07c.11-.2.42-.3.59-.52.92-.17,1.88-.18,2.79-.39.76.63.92,1.22.79,1.59-.04.06-.08.13-.12.19-.35.39-1.18.32-1.8-.68-.01-.02-.03-.03-.05-.06l-.2.18-.36.33c2.02,1.69-1.16,2.83-2.49,4.28.51-1.85-.36-2.8.85-4.93ZM.36,558.09c-.72-1.44.08-2.42,1.31-3.23l1.03,1.16-2.34,2.07ZM120.23,573.1c2.45,2.18,1.29,3.2-.57.51l.57-.51ZM134.6,527.97l1.04,1.17c-1.44.15-2.84,1.13-4.23,1.14.01-1.36,2.4-1.58,3.19-2.31ZM124.66,527.37c1.39-3.24,4.52-1.65,6.04.92-.52.63-1.17,1.79-1.82,2.66-1.51-.88-3.12-2.23-4.22-3.58-.09-.11-.17-.26-.25-.42.08.15.16.26.25.42ZM99.7,500.38c1.5-1.29,2.26-2.96,3.37-.9-2.04.14-2.63,2.35-2.92,2.59l1.1.06c-.54.56-1.21,1-1.75,1.56l-1.62-.65-.52-.59c-.28.34-.35,1.18-.65,1.62-.46,0-.98,2.05-2.21-.13,1.38-1.31,3.38-3.73,5.2-3.56ZM97.61,507.45c-.26-.71-.32-1.57.13-2.21.14-.2.42-.32.59-.52,1.22-.01,2.12-.73,3.38-.9-1.56,3.08-.81,3.73-4.1,3.63ZM99.22,517.52c-.57-.56-2.01-2.96-2-3.44,0-.15.41-.31.57-.51,1.03.99,2.45,2.39,1.43,3.95ZM94.31,497.84l-.28.25c.09-.1.17-.2.28-.25.98-.41,1.21-1.19,2.79-.39-.69,2.55-1.1,2.67-2.79.39ZM95.36,489.59c.56.41.98,1.26,1.56,1.75l.57-.51c-.37-.42-.5-1.16-.44-1.69l1.1.07c-.06-.07-.09-.16-.11-.25.04.08.07.14.11.25.33.39.67.81,1.04,1.17.8.8,4.04,1.01,1.49,2.86-.71-.78-.94-1.58-1.62-.65l1.02,1.17c-.78,1.29-1.49.39-1.68.45-.51.17-1.57.09-1.67.45-.02.08.56.87.43,1.69-4.01-.75-3.03-.11-3.45,2.01-.79.29-2.96,1.29-2.78.39l1.88-3.77c1.18-1.35.28-2.55,3.96-1.42-.67-.67-1.73-2.54-2.01-3.45-.07-.22-.52-.38-.22-.83.36-.29.57.14.8.31ZM93.01,501.08c-.28.38-.84.66-1.17,1.04-.24-.94-.29-1.65-.14-1.94.05-.1.13-.15.23-.14.01,0,.03.01.04.02.23.06.56.36,1.03,1.03ZM94.84,484.84c.08,1.3-.15,1.23-1.22,1.6-2.37.82-.36-1.31-.37-1.42-.08-.77-4.61-1.8-.65-4.46-.15,2.35,1.23,2.54,2.25,4.28ZM91.03,478.81l1.03,1.16c-.86.54-2.17,2.41-2.93,2.46-.44.03-.76-.93-1.03-1.04-.6-.25-3.28-1-3.24-1.3l1.16-1.04c.61.44,1.78,2.31,2.08,2.34.28.03,2.19-2.14,2.93-2.59ZM86.42,477.14l-.59.52c-.14-.55.05-.73.59-.52ZM88.18,475.58l-.59.52c-.14-.55.05-.73.59-.52ZM84.87,470.67s.06.07.09.11c.43.57,1.18,1.09,1.46,1.64-.2.09-.39.13-.57.17-1.06.23-1.89-.28-1.98-.87-.06-.4.21-.82,1-1.06ZM82.21,474.1c.66-.84.75-.41,1.35-.19-.17,1.9-2.09,4.22-3.65,5.31l2.29-5.13ZM77.13,474.91c.02,1.09.06,1.85-.97,2.43l-1.03-1.16,2-1.26ZM75.75,483.97c-.62-1.92-1-4.16-.19-6.09,1.79.68,1.53,6.12.19,6.09ZM75.97,471.25c.58-.15.54,1.3-.66,1.61-.58.15-.54-1.3.66-1.61ZM72.89,485.46c-.48.03-.35-2.46.73-2.71.48-.03.35,2.46-.73,2.71ZM72.66,471.05c1.7.09,0,3.33-.19,3.3-1.22-.21-.86-3.36.19-3.3ZM66.06,451.81c.18-.34.17-.74.07-1.1.34-1.57.14-2.03.2-3.31l2.14,1.24c-.62,1.59-.9,3.88-2.99,3.7l.59-.52ZM63.51,466.61c1.2-.9,1.82-3.74,3.51-3.11.05.26,1.02.78.96,1.16-.12.73-2.33,1.04-3.02,2.09-.27.41-.31.92.1,1.62,3.33-2.27,4.36,2.96.78,1.4-.75-.33-.69-1.34-.78-1.4-.56-.34-1.63-.97-2.14-1.24l.59-.52ZM62.04,477.33c1.55-2.53,3.15.16,4.11.33.2.04.57-1.06.95-1.08,1.04-.06,2.35.84,2.36,1.48,0,.37-5.95,3.76-6.53,3.19-.02-1.08-1.43-3.04-.89-3.92ZM60.1,486.35c-.51.72-1.71,1.33-2.34,2.07-2.19-4.54,5.24-6.21,2.34-2.07ZM48.22,513.06c.73,2.16-1.92,3.16-1.99,1.27,0-.18,1.35-3.17,1.99-1.27ZM54.45,534.21c-.15-.58,1.3-.54,1.61.66.15.58-1.3.54-1.61-.66ZM55.92,541.78l-.59.52c-.14-.55.05-.73.59-.52ZM52.19,517.44c.79-2.64,4.5-.42,4.07,1.61-1.13,5.34-4.27-.95-4.07-1.61ZM52.9,523.04c1.27.09,1.42,2.11-.91,1.32-.53-.44.83-1.32.91-1.32ZM52.27,538.24c1.09-.27,2.8.67,2.93,1.55.12.86-4.22,5.01-5.33,5.77l2.4-7.32ZM51.45,551.48c-.39.76-.83-1.04-1.63-.65-1.86.9.89,1.66-.41,2.46l-2.52-4.02,2.43.99.49-3.57,1.64,4.8ZM43.95,561.29c.06-.53,3.16-5.42,4.23-5.84,1.86,1.94-4.65,9.64-4.23,5.84ZM44.14,511.99l1.56,1.75-1.16,1.03c-.9-.65-1.06-1.84-.39-2.78ZM43.81,517.51l2.66,1.81-1.16,1.04-2.07-2.34.57-.51ZM40.44,508.99l-3.3-.2c.89-1.14,2.51-1.08,3.3.2ZM38.39,515.87c.17.09,3.02-1.11,3.79.99-3.35-.1-4.82.68-5.89-3.13,1.33-1.26,1.45,1.8,2.1,2.15ZM42.36,532.37c-.55,1.02-4.37,2.41-3.95,1.43,1.01-1.06,2.43-2.44,3.95-1.43ZM31.95,502.94c1.25,1.07,1.24,1.28-.13,2.2l.13-2.2ZM27.58,510.98l-2,1.27c-.2-1.8.38-2.11,2-1.27ZM19.37,537.08c3.24-1.16,3.64-2.65,6.68-.72-.12,1.17-5.6,1.53-6.68.72ZM27.54,539.23c-.58.15-.54-1.3.66-1.61.58-.15.54,1.3-.66,1.61ZM33.05,548.98c-1.03-.93-.99-3.04-.84-4.48.06-.54.34-2.77.71-2.72,1.7.22.37,2.04.39,2.79.04,1.41.52,3.06-.26,4.41ZM20.15,533.24c-1.21-1.11,1.7-1.99,1.82-2.65.05-.28-4.7-1.28-1.09-3.74,1.58-1.08,4.17-.35,2.02-2.3.82-1.11,1.22.57,1.88.71,1.61.33,2.19-.2,3.63-.37-.11-.13.17-.67-.02-.9-1.16-1.45-3.74-1.61-1.41-3.06l2.09,2.34-.68-2.51c2.86-.08,2.71-.04,2.88,2.65,1.43-1.82.99-2.78,3.45-2.01,1.25.39,1.91.44,2.65,1.82-1.21,2.04-1.9-.14-2.2-.13-.7.02-1.78,2.57-2.41,3.18-.18.17-.38.38-.59.52.94-.05,1.87-.21,2.79-.39,2.74-.53,4.02-.78,6.55,1.51-2.73,1.47-4.52,4.58-7,6.91-5.64-.71-8.57-4.64-14.37-1.56ZM37.18,540.09l-2.35-2.08.57-.51c1.29,1.06,2.31.63,1.78,2.59ZM42.85,551.79c1.58.26,2.74.25,3.76,1.89-1.41.71-3.11-.19-4.41-.27-1.3-.08-3.1.61-4.41-.26,1.58-.86,3.41-1.63,5.06-1.36ZM43.24,554.6c.12.02,1.31,1.04.74,1.41h-4.7c.5-.42,3.76-1.44,3.96-1.41ZM41.99,566.14c-1.12-.96-1.8-2.02-.91-3.37l2.07,2.34-1.16,1.03ZM43.09,566.21c1.63-.82,2.87.72,3.75,1.9.3,1.02-3.33-.82-3.75-1.9ZM47.85,560.96c1.15-1.91,2.74-5.02,5.12-2.46l-5.12,2.46ZM52.33,560.13c.48-.03.35,2.46-.73,2.72-.48.03-.35-2.46.73-2.72ZM51.47,565.06c0-.2,1.99-2.58,2.41-3.18,1.55,2.68-2.49,5.83-2.41,3.18ZM53.89,552.45c-1.93-1.31.38-5.47,1.62-4.04.34.39-.86,4.07-1.62,4.04ZM55.47,544.8c.07-1.2,2.27-1.07,2.2.13-.07,1.2-2.27,1.07-2.2-.13ZM56.8,522.72l2-1.26c.02,1.09.06,1.85-.97,2.43l-1.03-1.16ZM56.42,556.49c.07-1.2,2.27-1.07,2.2.13-.07,1.2-2.27,1.07-2.2-.13ZM57.47,548.24l-.51-.57,2.34-2.07.51.57-2.34,2.07ZM63.04,566.31c-.15-.58,1.3-.54,1.61.66.15.58-1.3.54-1.61-.66ZM65.57,560.93l4.55-1.94c1,1.8-3.62,2.8-4.55,1.94ZM67.86,550.53l-1.55-1.75,1.17-1.03.96,2.27-.57.51ZM68.76,553.91c-.07,1.2-2.27,1.07-2.2-.13.07-1.2,2.27-1.07,2.2.13ZM70.95,572.88c-1.14-.89-1.08-2.51.2-3.3l-.2,3.3ZM70.38,554.57l2.01,3.44c2.19-2.35,1.32-.96,3.31.2-.77,1.28-1.5.39-1.68.46-.25.09-.39.5-.59.52-3.16.35-3.76-1.82-3.05-4.61ZM73.5,562.79c-.95-2.38,2.62-1.79,2.52-.68-.04.39-1.86,2.31-2.52.68ZM76.95,570.75c-.77.35-1.67-1.58-2.75-1.29l4.22-1.1c1.05.7-1.06,2.21-1.47,2.39ZM78.3,561.14c.21-1.75,3.3-1.59,3.3.2,0,1.12-3.43.92-3.3-.2ZM79.28,563.41c-.15-.58,1.3-.54,1.61.66.15.58-1.3.54-1.61-.66ZM81.53,571.85c-.58.15-.54-1.3.66-1.61.58-.15.54,1.3-.66,1.61ZM83.08,573.61c-.58.18.23-5.17,2.4-3.18l-2.4,3.18ZM86.96,546.15l.52.59c-.19.06-1.64,1.34-1.76,1.56-.05.1.44,1.66-.13,2.21.64,1.47.96,3.86-1.11,4.64-.1-2.91-3.41-5.05-.9-8.09-.74-.56-1.33-1.68-2.07-2.34-.45.18-.73,0-1.1-.07-3.03,2.4-5.71,5.46-8.78,7.78-1.02.77-2.1,1.57-1.37-.36.73-1.92,1.35-.68,1.44-.74,2.02-1.62,3.85-3.53,5.85-5.19-.63-1.36-1.45-.57-1.62-.65-1.76,1.95-4,2.5-6.5,2.1.76-1.52,2.76-4.09-.58-4.18,3.36,2.75-.76,3.59-1.01,1.02-.04-.36.97-.81,1.01-1.02.1-.56-.62-1.64.13-2.2.76.69,1.31,1.68,2.08,2.34l4.03-2.53-.75-1.43c1.3.72,4.58.72,5.09-.81.45-1.35-1.69-3.12-.63-4.18,1.93,5.25,2.99,1.08,4.05,1.01,2.26-.13,2.74,4.1,4.65,1.72-.13.21-.24.69-.43,1.16-.09.13-.17.28-.22.46-.23.39-1.03.7-1.17,1.04-.36.87-.19,2.35-.2,3.31,1.34-.65,2.44.19,3.25,1.3-.21.04-.35.45-.59.52-.38.11-1.61-.92-2.1.24-.04.21-.09.45-.18.73.54.45.84.03,1.1.07ZM75.62,532.16c.07.06,1.33-.14,1.62.65-.06.3,2.4,3.68-1.62-.65ZM77.88,535.9l-.59.52c-.14-.55.05-.73.59-.52ZM88.5,557.31c-.58.15-.54-1.3.66-1.61.58-.15.54,1.3-.66,1.61ZM89.94,516.13c-.8,1.31-4.1,3.45-4.12,3.91-.01.24,1.81,2,1.96,3.44-.95.06-1.94-.18-2.73-.72-.56-.38-.97-1.51-1.68-1.91-.64-.36-4.56.59-5.85-1.86l.16,1.93c-1.97-.25-3.47,1.47-5.1,1.85-1.71.4-2.75-.56-4.16-.65-.53-.03-1.19,1.15-2.05.83-.94-.35-6.76-4.96-7.32-5.87-1.03-1.67.85-4.43-.18-6.61-.69-1.44-3.79-4.32-5.49-4.57-1.71,4.7-6.24,7.15-3.9.32.77-2.24,2.28-4.76,3.19-7.01,1.31-.07,2.8.39,3.52,1.51.46.72-1.54,1.25-.41,1.99,3.27-1.8.22-3.73-1.29-6.16.9-1.18,3.74-1.64,4.06-1.91.56-.47.82-2.96,1.28-3.87.31-.62.31-1.22.99-1.82.66-.58,1.29-.53,1.94-.77,3.43-1.28,9.02-1.68,12.52-.55.99.32,1.81,1.75,2.4,1.81.5.05,1.15-1.29,2.1-1.08.33.07,4.95,2.48,5.52,2.85.35.23.98.58,1.47.85.35.2.64.35.67.39-.59-.76-.83-1.13-.86-1.28.31.24.59.64.86,1.28,1.31,1.19,2.35,2.85,3.63,4.1-.88,1.11-1.33,2.89-2.99,3.7.78.26,1.43.89,2.14,1.23-1.24.93-2.34,1.81-2.14,3.46.99.16,2.08-.25,3.04-.08,1.26.22,2.03,1.22,2.15,1.23.39.05.36-1.34.64-1.62.53.7.92,2.42,1.49,2.86l-1.17,1.04c.02-.61-.19-.93-.47-1.14-.34-.26-.8-.36-1.08-.61-.51.96.43,1.61.97,2.27.82,1.01,1.77,1.92,2.59,2.93-1.33,1.95-2.47-.42-4.17-.02-2.65.62-1.27,2.95-2.13,4.35ZM95.83,518.42c-2.84,1.5-3.31,3.1-4.4-.27l4.4.27ZM95.26,555.52c2.32,1.8-.85,1.73-2.41,3.16l-.51-.57,2.92-2.59ZM95.09,539.99l.59-.52c1.76.46,3.07,1.68,2.01,3.44-.71-1.01-2.02-1.93-2.6-2.92ZM91.87,565.83l2.2.13c-1.07,1.25-1.28,1.24-2.2-.13ZM95.45,561.61l2.27-.96.51.57c-1.36,1.31-1.71,2.18-2.78.38ZM99.51,540.25c0-.2,3.41-1.49,3.3.2-.07,1.05-3.24,1.03-3.3-.2ZM101.73,530.98l.76.87c.51,5.29-4.78,2.09-.76-.87ZM102.65,524.93c-.79,1.92-2.52,2.5-4.1,3.62.43.72,1.99,1.77,2.01,2.36.01.38-1.29,1.07-1.69,1.54-.5.6.66.58-1.17,1.04-4.8,1.2-4.43-5.3-2-7.35,1.25-1.05,4.83-2.63,6.5-2.9.35-.06.76.11,1.1.07l.52.03c.22.03.43.07.58.04,2.64-.6,2.28-1.73,4.1-3.62l.25,4.99c.56-.16,1.86-.56,2.19.13l-.4,2.48c-1.11-.98-3.3-.3-4.13-.53l-.59.52-.86.22c-.29-4.16-1.62-2.26-2.32-2.63ZM105.39,548.09c-.46-.34-.93-.98-1.29-1.46.32-.39.94-.67,1.17-1.04,1.11,2.13,1.47,1.45,2.89,1.68,1.9.31-.65,2.4-2.77.82ZM111.89,555.41c-.51.24-2.18.92-2.55.69-2.84-1.82-.1-1.94.99-2.45.72-.33,2.74-1.66,3.13-1.2,1.78,2.11-.39,2.41-1.57,2.95ZM113,550.76c-.36-.97,1.58-.93,2.11-1.59.53-.66.1-2.31.61-2.39.17-.02,2.28,1.33,3.25,1.29l-5.97,2.69ZM113.21,542.75l1.16-1.03,1.55,1.76c-1.02.55-2.18.24-2.72-.72ZM116.39,545.15c0-.14.82-.68,1.17-1.03l1.55,1.74c-.57,1.9-2.71.07-2.72-.71ZM118.29,531.97c-.88-.11-1.1.26-1.69.45.23.17.38.36.49.57-.14-.16-.3-.34-.49-.57-1.66.54-1.55.67-2.86,1.49-3.46,2.18-3.68,3.39-6.44,5.71l-1.17,2.12-.03.05h.03s1.55.62,1.55.62c-.47.58-1.39,1.02-1.75,1.56l-.52-.59c.03-1.1-.27-2.24.2-3.31.99-2.29,7.48-8.2,9.73-9.75,1.18-.82,2.83,1.35,3.09-.56.04-.32-1.75-.2-1.32-.9.74-1.21,2.55-2.66,3.28-3.95.52.67,1.29.04,1.69-.45,2.94,3.19,1.26,3.99-.99,7.14.89,1.66,3.27,1.86,2.88,2.68-.1.21-.36.45-.87.76-1.06-.73-1.96-1.75-3.18-2.41-.71-.38-.63-.52-1.62-.65ZM123.49,544.29c-.24.08-1.68,1.8-2.17,1.71-1.95-.38.14-4.15,1.37-4.34l2.59,2.93c-.75,1.1-1.04-.56-1.78-.29ZM128.33,549.2c-.46-.8-1.1-.54-1.62-.65-.99-.22-1.88,1.13-2.72-.72,1.64-1.97,8.34-1.92,4.34,1.38ZM128.15,541.07c.07-.06.13-.12.13-.18l-.65,1.61c-1.02-.67.12-1.09.52-1.43ZM137.52,548.36c-1.58.01-3.58-.25-5.11-.88-.18-.11-.39-.21-.64-.29-.72-.38-1.42-1.6-2.66-1.82,2.41-3.36,5.36-2.48,7.72.46.15.18.96,2.44.68,2.53ZM138.08,543.69c.08.18.35.41.52.59.26.2.48.39.66.56-.23-.16-.45-.35-.66-.56l-.13,2.21c-.27-.17-.79-.83-1.04-1.17-.13-.18.18-.92.07-1.1-.48-.8-2.61-2.59-2.6-2.93,0-.17,1.82-1.58,2.35-2.07.78,1.04.55,3.85.84,4.48ZM137.24,532.11c-.17.42-.42.92-.77,1.51-1.61,2.52-2.44,3.21-4.75,5.25-1.94-.74-4.14-.16-6.11.19-.77.14-1.64.5-2.28.96-1.42-.06,1.4-3.05,1.89-3.75,1.09-1.56,1.95-3.32,3.06-4.8,2.62.13,5.21-.28,7.79-.64.6-.26,1-.3,1.22-.17.52-.07,1.05-.13,1.57-.22.29.23,1.74.28,1.62.65-1.8,2.73-2.82,1.3-3.26,1.02Z"/>
        <path class="cls-2" d="M323.88,890.93c.94.15,1.51.07,1.99-.18.51-.26.92-.68,1.53-1.22-9.1-2.82-11.76-13.27-19.59-18.06-.13,2.14.61,3.34-1.51,4.85.84,2.54,5.6,6.06,6.51,9.22,3.53,1.91,7.68,3.49,11.08,5.37Z"/>
        <path class="cls-2" d="M391.11,893.17c-.42.14-1.02,1.07-2.32,1.33.2.42-.29,1.54.29,2.17.83.91,4.44,1,5.89,1.08,2.59-2.96,3.04-3.24,2.06-6.11-2.06.16-3.97.9-5.91,1.53Z"/>
        <path class="cls-2" d="M261,887.46c.03.35.15.68.43.96.01-.64-.18-.87-.43-.96Z"/>
        <path class="cls-2" d="M260.28,889.66c1.76-.24,3.25.47,4.86.95.81.24,1.38.64,1.77.87.43.26.64.31.67-.28.02-.36-.02-.96-.12-1.92-.48-.2-1.67.25-2.39.13,3.2-1.64,2.22-4.21,1.99-7.3l-5.64,6.31c0,.15-1.1.61-1.15,1.24Z"/>
        <path class="cls-2" d="M356.53,874.73c-.75.16-1.73-.07-2.39.13l.11,1.77c.26.77.78.45,1.22.55l.24-.27c.26-.34.65-.89.89-.99.11-.33-.15-.8-.07-1.19Z"/>
        <path class="cls-2" d="M394.6,794.72c.75-.44.73-.84-.07-1.19l.07,1.19Z"/>
        <path class="cls-2" d="M215.43,858.64c1.1.14,3.36-1.28,4.71-1.46l.49-2.34s.04-.07.01-.06l-5.28,2.67c.16.35-.1.88.07,1.19Z"/>
        <path class="cls-2" d="M216.35,853.81l-3.58.18c.33.44,1.01.74,1.26,1.13,1.61-.1,2.78.38,2.32-1.31Z"/>
        <path class="cls-2" d="M227.72,842.37l1.17-.07c.32-5-2.04-4.87-1.17.07Z"/>
        <path class="cls-2" d="M223,854.62l.07,1.19c.75-.44.73-.84-.07-1.19Z"/>
        <path class="cls-2" d="M437.16,881.02c-.66-.04-1.95-1.15-2.46-1.06l-.07-1.19c-.66-.09-4.39-1.71-4.91-2.12-1.98-1.57-3.14-3.37-.98-4.47.23-.08.47-.18.72-.31,1.39,1.27,2.56,3.47,4.46,4.52l-.8-3.53,2.44,1.08c.81-2.61-1.05-4.36-1.52-5.92-2.02-.48-2.84-1.96-2.59-3.98l1.13-.73-.07-1.19c.38.12.9-.21,1.19-.07l-.07-1.19c-.76-.2-1.81-1.04-2.46-1.06l-.07-1.19c-.12-.38.09-.92-.07-1.19l-2.52-2.26c-.19-.28.13-.92-.07-1.19l-3.71-2.19.19,3.58c-.47-1.58-1.96-4.17-2.72-5.84-.17-1.87-1.44-4.11-1.46-4.71l-1.19.07c-1.88,1.37-.97,5.02-.79,7.23.31,3.93,1.39,4.22,1.46,4.71.12.77-.03,1.65.13,2.39-.16-.26-.41-.46-.68-.62-1.37-.84-3.82-.66-4.28-1.02-1.27-1-.98-2.47-1.28-2.8-1.79-1.99-4.17-6.03-5.18-6.9,2.95-1.44-.08-3.97-.27-4.78l-1.19.07c1.08-4.55-3.28-2.22-2.71-5.83.78-.02,1.6-.18,2.38-.14-.46-1.11-1.83-1.72-1.38-3.52,1.15.58,2.45.64,3.64.99-5.07-8.52,5.06-.27,7.3-8.81,1.23-.01.51,2.47.8,3.56,1.45,5.42,2.99.26,3.85,4.58.08.39-.01.81.07,1.19-.18-.06-1.05-.02-1.19.07.18,1.58.04,3.21.27,4.78.14,1.01.14,2.07,1.33,2.32.2-.2.89.13,1.19-.07l.95-.54,1.37-.78c.31-.18.93.12,1.19-.07-.06-.07-.12-.15-.19-.25-.42-.67-.9-1.99-1.14-2.07l2.01-3.43.17-.29-.31.12-3.18,1.26c.33-2.71,4.18.17.99-3.64-.36-.43-.82-.78-1.26-1.13.37-.78.67-1.36.85-1.8.37-.88.28-1.25-.58-1.72-.3-.17-.73-.36-1.24-.58-.15-.07-.28-.12-.46-.2l-.11-1.61,1.19-.07c-.1-.29-.07-.84-.07-1.19.04-3.26,6.51-11.03,10.73-17.08,1.23-2.17,2.41-4.33,3.53-6.48.21-1.34.32-8.97-1.71-9.48.05,1.83-.27,3.65-1.03,5.32-6.19,13.57-16.3,20.95-27.07,30.31-1.8,1.56-4.82-.51-2.09,3.18-5.35,1.39-5.91-5.5-7.72-9.14l-1.06,2.45c-1.5,1.4-10.94-17.01-8.3-19.91-2.44,1.32-2.61,4.8-5.64,5.83-1.81.62-2.19-1.69-2.52-1.78-2.06-2.87-1.34-6.29-1.73-9.49-.79-6.42-.69-4.76-4.18-10.55-4.72-7.83-1.37-4.31-.33-5.97.13-.21-2.25-2.07-.72-2.37,1.47-.32,2.73.94,3.11,2.23.86,2.91-2.17,2.27-2.12,3.08.04.57,1.07,1.26,1.19,1.77,5.54,1.52,6.47-.42,10.54-2.27.85-.39,2.46.32,3.62-.34,2.08-1.17,2.4-3.61,3.81-5.22.45-.51,2.23-.25,2.74-.82,1.04-1.16,1.87-8.07,4.7-8.34l-31.2-43.79c-.34,1-.74,1.02-1.19.07-.1.08-.21.11-.32.17-.73.55-1.89,2.15-4.42.73-.34-.19-1.69-1.91-3.06-3.82-.05-.07-.1-.14-.14-.2-1.61-2.25-3.22-4.71-3.26-5.23-.21-2.4,7.46-15.31,9.74-17.92-1.04-.28-1.05-.68-.07-1.19.75-1.91,1.25-3.96,3.32-4.98-1.04-.24-1.04-.64-.07-1.19-1.53-2.08-3.47-3.71-5.11-5.71-10.24-4.56-19.32-9.07-30.53-10.91-4.97-.82-15.35-2.13-20.03-1.92-1.93.09-1.77.53-2.8,1.43,5.63.09,1.58,4.61-2.06,6.11-3.18,1.31-3.55-2.03-3.38,3.78.15.13-.26,1.56.41,2.04,1.15.84,3.52.07,4.58,1.87-4.74,3.58-7.08.15-5.52,8.1.4.36.67.98,1.26,1.13.9.22,2.48-.36,3.59-.2,1.3,5.6-1.7,2.82-3.39,3.78-.23.13-1,3.23-2.19,3.72.22,2.21,1.46,8.38-.65,9.62-.21-4.37-.57-8.76-.74-13.13-.07-1.92-.99-4.93.86-6.04-.14-.27-.08-.84-.03-1.46-.3-.77-.47-1.46-.54-2.09-.92-.34-2.78.73-3.26-.45-.7-1.71,4.77-3.83,3.64-7.04-.15-.27-.31-.57-.48-.92-1.5-1.91-1.77-4.15-2.72-5.84-.52-.92-2.34-1.92-2.59-3.45-.21,0-2.02-1.1-4.11-1.05-8.7.2-17.2,1.44-25.75,2.72-2.66,4.76-17,25.87-16.45,28.87.12.69,1.8,1.39,2.59,1.86.33-1.05.73-1.08,1.19-.07.06.03.13.1.21.19l1.05.94c.27-1.04.67-1.05,1.19-.07l1.26,1.13c.34-1.06.74-1.08,1.19-.07l1.26,1.13c.34-1.06.74-1.08,1.19-.07,5.33,2.08,14.57,6.41,19.58,7.3,2.88.51,7.4-1.02,10.81.61-.96,1.59-1.62,5.05-2.62,6.15-1.93,2.12-5.06.49-6.65,2.65-.17.69-.45,1.53-.88,2.53,2.31.54,2.38,1.59.13,2.39-.17,6.08-.97,2.55-3.66,4.92-1.06.94-1.72,3.68-2.45,3.79-.66.1-1.5-2.07-1.92-2.27-.28,1.02-.68,1.02-1.19.07l-2.32,1.33c-.27,1.07-.67,1.08-1.19.07l-2.32,1.33c-.26,1.08-.66,1.08-1.19.07l-2.32,1.33c-.27,1.08-.67,1.08-1.19.07l-2.32,1.33c-.34,1.06-.74,1.08-1.19.07-2.78,3.07-7.8,4.02-11.68,5.44-.23,1.23.79,3.97.1,4.68-.43.44-2.63-.14-3.16.45-.29.32-1.1,6.8-2.2,8.34l-8.6-4.31.07,1.19c0,.79.06,1.6.13,2.39,1.6.5,1.26,2.21,1.39,3.52.08.79.05,1.6.13,2.39.08.79.06,1.6.13,2.39,1.6.52,1.26,2.2,1.39,3.52,3.17,1.52,1.73-3.82.86-6.04,1.51-2.54,5.92-1,8.3-1.66.21-.05.38-.01.53.06.38.18.62.65.73,1.07,1.27-1.95.83-2.34-.85-1.37,1.18-.88,3.82-3.73,6.62-2.54l-5.77,3.91c1.2,4.59.48,4.84.47,8.36-4.1-.43-2.12,2.17-2.19,3.72.46.33.81.8,1.26,1.13,1.96,1.44,3.74,1.86,6.11,2.06.32.03,4.05-2.63,6.02.26.03,1.33-4.62.52-5.95.93-1.32.41-5.93,3.69-7.03,2.78,2.61-5.16-.89-3.03-1.4-3.51l-4.58,3.85c.06,1.19.14,2.39.2,3.58.35.31,1.87.9,2.46,1.06.65,4.76,6.58,5.24,5.39,2.86-.11-.22-.26-.45-.5-.72-.03-.03-.1-.04-.21-.04-.6-.01-2.23.19-2.39-1.2-.03-.28-.02-.61.09-1.03,2.87,1.05,5.52,2.59,8.55,3.13.59,2.14-1.96.86-2.32,1.32-.37.48,3.35,2.52,2.57,6.16-.33,1.51-3.96,5.85-5.42,7.17-.72-.53-3.42,1.6-1.32-2.31-2.6-.92-2.56,1.86-3.35,2.48-.04.03-.07.08-.11.1-.74.35-2.56-.07-3.58.2.25.01.56.07.89.15,1.92.45,5.01,1.73,7.54.58.06.06,1.4-.22,1.26,1.12l-2.32,1.33,4.83.93-7.61,2.85,1.58-3.69c-4.56.9-7-.07-10.88-1.8-.69-.31-1.86-.08-2.46-1.06-1.18,3.12-2.05,3.16-3.58.2-10.4,3.33-22.52,1.72-33.38,3.06,9.02.51,20.69,2.17,30.13,3.11l-.07-1.19-2.31-2.06c-.11-.07-.2-.14-.21-.18,0-.02.06-.03.16-.01.73-.04,1.52-.2,2.22-.13,4.46.46,4.5,1.55,6.24,4.44.18.3,2.87.76.75,2.34-11.57-2.18-23.42-2.45-35.08-3.91-2.09-.26-4.47.56-5.42-2.19-.83,0-1.71,0-2.6.02-2.71.37-5.41.74-8.09,1.17,0,0,0,0-.01,0l9.11,11.37c.21.15.4.28.58.37l.37-3.31c3.26.96,1.79,3.29,1.82,6.05,1.45,2.84,3.04,5.62,4.76,8.34,2.55,3.39,5.1,6.78,7.67,10.16.62.8,1.18,1.53,1.6,2.12,6.71,2.63,11.57-1.03,17.85-2.21-1.79-6.27-10.64-14.07.33-15.59l-2.65-4.62c4.42-.59,20.45-7.37,23.39-5.86.8.41,4.2,5.76,4.38,7.29.48,4.15-1.57,4.99-3.28,7.98-.78.14-1.46.11-2.07-.03-4.5-1.08-5.11-8.96-10.41-8.85.48,4.65,6.15,8.41,7.34,11.55.77,2.03-.51,2.94-.51,3.63.02,1.32.15,2.38.2,3.58.04.88.11,2.47-1.06,2.46-.03-.06-.41-.58-.82-1.1-.46-.58-.97-1.17-1.08-1.13l-4.04,3.17,3.38,1.45.29.12c-.1,0-.17.03-.27.04-2.36.1-3.79,1.41-5.57,2.7.24.82,1.94,2.74,1.39,3.51-.85,1.21-4.01.22-4.78.27-.43.03-1.24,1.21-1.77,1.19-.4,0-2.09-6.33-4.07,1.53.59.84,2.81,2.46,2.59,3.45l1.19-.07c.4.07.92-.2,1.19-.07.19.09,3.54,2.07,3.72,2.19.44.3.83.78,1.26,1.13.17,2.28,1.1,3.21,2.66,4.64,3.78,3.49,3.37,1.76,6.11,2.06.24-.47-.37-1.91-.13-2.39.84-1.68,2.58-3.87,4.58-3.85.12,3.3.4,6.41-.66,9.62-.02-.1-.08-.23-.17-.38-.56-.97-2.32-2.86-3.61-3-1.27,2.49-3.63,2.62-4.51,5.03l8.36-.46c1.4,9.05.04,18.45,2.73,27.41.11.38-.06.85.07,1.19,1.41.27,1.77,1.45,2.52,2.26,6.06-5.75-.3-16.1,1.06-24.02.33-.41,5.16,1.6,6.1,2.05l-1.33-2.3c2.65-.29,3.98-2.4,5.77-3.94-.75.45-7.97,1.93-8.29,1.65-.45-1.92,1.08-3.21,2.12-4.9.27-.45.84-.8,1.13-1.26l.74,3.29.06.27.2-.08,6.23-2.67c.17.13-2,3.59-2.19,3.71.62-.53,1.82-.81,2.32-1.33.82-.86,1.37-2.69,2.19-3.72,1.52-.35,1.64-.96,2.32-1.33,6.38-3.42,5.74-8.32,14.13-4.38.63.29,2.24,1.44,3.72,2.19l-.07-1.19.66-9.62c3.27.06,6.4.12,9.62.66-.02.12.39.64.13,2.39-.25,1.65-1.63,3.37-1.53,5.45.27,5.56,2.5,10.2,8.17,6.16-.77-2.35-.46-6.01-1.73-9.49-.14-.38.09-.88-.07-1.19-.3-.62-3.42-.96-2.58-3.45l3.77,3.38c1.98,1.86,3.79,1.66,6.11,2.06,4.56.77,6.09,1.16,10.51-1.69.06-.04.11-.06.17-.11-.06-.1-.17-.16-.25-.24-1.69-1.91-6.87-.14-9.37-.42l-.07-1.19c-3.55-.23-7.15-2.89-10.88-2.99-.02,0-.04,0-.06,0v-.23s-.06-.93-.06-.93c1.01.01,1.59-.81,2.31-1.35,7.42-5.49,5.25-1.73,8.42.04,2.2,1.23,6.15-.44,6.18,3.94.49-.2,1.22-.01,1.99-.52.7-.46.94-1.5,1.46-2.07.36.19.71.34,1.02.45,2.56,1.44,1.16,4.17-.62,6.72.31.61-.52,3.55,1.91,2.28,1.84-.96,2.21-3.96,2.99-4.62.37-.31,2.08.39,2.97-.2,2.1-1.4,3.2-3.63,5.53-4.2,1.49.89-2.74,5.64-.54,6.08.33.07.81.04,1.48-.12-3.55,5.39-.62,2.7,1.59,7.1,1.54-.27,3.22-.04,4.78-.28-.02-.17-.05-.31-.09-.44,0-.02,0-.03-.01-.05-.69-2.32-4.25.76-3.66-2.27.23-1.19,3.41-.74,5.2-.84.29-.02.54-.04.74-.1.06.39-1.26,1.94-.9,2.92,1.7,4.71,9.74-1.62,12.98-1.2.72.09,3.99,2.57,4.98,3.32,1.22.92,3.54,3.2,5.04,4.51,1.43-.21,2.25-.58,2.62-1.02.25-.3.28-.64.14-.99-.46-1.12-2.76-2.32-5.42-2.63,1.53-.9,3.15-1.69,4.64-2.66.4-.26.69-.96,1.13-1.26l1.2,3,.21.51c.17.11.34.08.51,0,.77-.39,1.48-2.38,1.73-2.51.37-.19,1.68-.1,2.39-.13,2.05-.11,4.05.48,6.04.86.24.79,1.37,1.58,1.3,2.91-.13,2.83-3.43,3.51-.84,5.46l1.19-.07c1.72-2.09.35-5.57.79-7.23.6-2.24,3.63-5.02,5.84-2.72-.47.96-2.7,1.2-2.29,1.92,1.46,1.21,3.27,1.89,4.94,2.72,1.03.52,3.44-.08,3.72,2.18-1.59.11-3.19.19-4.78.28-3.34.18-5.36-1.98-7.03,2.79,7.44-.45,14.56,1.14,21.64,1.19.33-.55,1.29-2.21,1.06-2.44-6.06.11-11.37-4.87-6.57-10.42l-6.04-.88c.07.63,1.79,1.94,1.33,2.31-1.6.6-2.63-.75-3.65-.98-.64-.15-1.63.22-2.39.13,1.49-5.47-4.33-4.19-5.9-4.68-.23-.07-.38-.18-.39-.36.06-.07.14-.12.21-.18,1.3-1.15,4.08-.38,5.74-.75-.38-.21-.75-.9-1.26-1.13-.86.27-1.52.37-2.04.38.58-.14,1.25-.27,2.04-.38.26-.08.56-.35.87-.68,1.15-1.21,2.57-3.33,3.84-.78-1.07,2.64-1.35,2.12-3.45,2.59,1.84,1.01,4.06.9,3.78,3.38l1.19-.07c.1-.56,1.01-.96,1.13-1.26,1-2.57,3.96-3.2-.27-4.78.24-.49-.41-2.14-.13-2.39.23-.2,4.48.84,6.03.86-1.12-3.69,1.88-2.15,4.64-2.66,1-.18,3.23-1.44,3.41-1.32.46.3,5.83,8.75,6.04,9.27,1.15,2.81-2.36,5.52-1.4,8.82.37,1.29,2.39.5,2.51.63l.54-1.22,1.77-.11c-.02,1.57.37,3.21.27,4.77-.21,3.5-1.37,1.46-2.06,3.31-.04.12-.09.25-.12.4.12-.08.21-.13.33-.21,5.43-3.57,2.63,4.89,5.97,5.85.39.11,3.31-.06,3.58-.2.45-.23,1.42-3.07,2.19-3.72.8-.67,2.74-2.39,3.45-2.59.58,4.16.86,5.71,3.65.99ZM389.17,772.26l2.51,2.24c-2.48.48-2.71.27-2.51-2.24ZM386.56,758.03c2.35,1.47,2.17,2.45-.38,3.61l.38-3.61ZM379.72,775.18c.53,2.16-1.09,4.04-3.37,3.77l3.37-3.77ZM223.65,812.66l.07,1.17c-4.94.87-5.07-1.49-.07-1.17ZM242.05,863.15c-.29-.07-.83.02-1.19.07-.49.13-.91.2-1.3.26.41-.12.85-.21,1.3-.26l-2.52-2.26c.47-.17,1.75-.16,2.39-.13.34.02.93,1.09,1.26,1.13,1.42.18,5.58-.68,5.98-.34.2.16.17,3.68.26,4.78-1.99-.05-5.14-3-6.17-3.25ZM240.65,859.63c-.36,0-3.83-1.16-3.68-1.59,1.48-1.9,3.68-4.03,5.88-5.28.31-.12.63-.28.99-.5,1.14-.51,3.26-.19,4.7-1.46,1.75,6.08-2.12,8.78-7.88,8.83ZM244.7,846.22c1.4.2,1.69-.81,2.32-1.33,1.2-.98.43-3.33,3.45-2.58.8,3.84-5.62,11.83-5.77,3.91ZM370.04,769.97c-.27.12-1.53,4.69-4.78,3.61,3.3-3.93,3.76-6.43,9.35-4.09.25,2.79-3.53.03-4.57.48ZM369.25,780.55l-3.58.21-.13-2.38c1.63-.46,3.21.47,3.71,2.17ZM364.45,780.83c.22.16,2.53,4.63-.37,3.6-3.28-1.17-1.97-5.31.37-3.6ZM358.24,776.38l-.14-2.38,4.77-.26.06,1.17-4.69,1.47ZM362.65,727.01c-1.69,4.99-.28,6.88-5.48,8.69-1.28-1.26,3.48-8.18,5.48-8.69ZM358.14,688.91l-2.38.13-.26-4.77c2.41.51,2.82,2.39,2.64,4.64ZM352.32,734.78c.37-.83,2.07.59,1.3,2.31-.37.83-2.07-.59-1.3-2.31ZM366.53,731.59c2.49-.4.78,3.93,1.46,4.7.29.33,6-4.42,5.52,2.24-.21,2.92-3.54,5.33.83,4.61.56,2.04-1.85.93-2.63,1.58-1.93,1.62-1.84,2.81-3,4.71.26-.01.64.84,1.1.83,2.84,0,5.49-2.96,5.01,1.22l-4.78.28,3.66,1.57c-2.62,3.51-2.52,3.29-5.91.94.83,3.44,2.39,3.83-.86,6.04-1.66,1.13-2.34,1.87-4.71,1.45-1.3-3.39,1.98-2.15,2.25-2.52.63-.86-1.39-4.57-1.53-5.91-.04-.38-.09-.81-.07-1.19-.84,1.17-1.53,2.44-2.19,3.72-1.97,3.79-2.89,5.57-8.03,6.43.83-4.66-1.21-9.77-1.64-14.96,6.21-6.09,13.7-5.88,15.51-15.75ZM355.06,785.02c2.42,3.45-3.77,5.8-5.8,3.36-5.34-6.42,5.2-4.22,5.8-3.36ZM348.52,752.96c.31,2.22.63,5.23-2.03,6.1-.7-1.62,1.26-7.54,2.03-6.1ZM347.67,780.56c-1.31,1.43-3.87-.3-.72-2.34,1.03-.21.8,2.25.72,2.34ZM346.93,745.84c-2.49.54-2.95,2.17-4.8-.32l4.73-.84.06,1.17ZM344.35,785.55l-.39,3.6c-1.33-1.02-2.28-1.69-1.99-3.47l2.38-.13ZM341.56,735.37c.59.57,3,3.03,2.59,3.44-1.88,1.83-2.79-1.49-3.72-2.18-1.73-1.28-4.17-2.27-5.04-4.5,2.1-.36,4.58,1.69,6.17,3.24ZM332.81,771.82c.83.37-.59,2.07-2.31,1.3-.83-.37.59-2.07,2.31-1.3ZM325.89,733.85c-.46,2.71-1.28,5.64-3.17,7.37-1.81,1.65-2.9,3.05-5.84,2.71.49-2.36,3.19-3.55,4.51-5.03,1.33-1.48,2.21-4.29,4.5-5.04ZM330.03,765.38c-.71,1.56-3.46,2.73-4.64,2.04-1.15-.67-2.01-9.82-1.86-11.87l6.5,9.83ZM322.32,766.4l-.07-1.19c.8.35.82.75.07,1.19ZM321.04,732.92c.04,1.01-1.84,5.87-2.07,6.1-.13.12-2.49.58-2.39-.45l4.46-5.65ZM314.7,747.67l7.22.8-3.49,1.98,3.82,3.97-7.32-2.59c-.55-1.18,2.03,0,2.33-1.33.68-3.09-2.83-.5-2.56-2.83ZM316.89,765.5c-1.38-1.23.87-3.74,2.24-2.51,1.38,1.23-.87,3.74-2.24,2.51ZM314.76,759.61c-.79.03-4.07-4.9-3.31-5.78,3.4-1.07,6.2,5.65,3.31,5.78ZM315.16,799.16c-.13.03-1.09,1.73-2.32,1.33-.3-.36-6.69-.62,2.32-1.33ZM313.11,762.13l1.17-.07.27,4.77-1.17.07-.27-4.77ZM313.28,744.14c-4.1.39-7.15-14.72-2.99-10.62.58.58,3.5,8.94,2.99,10.62ZM311.23,728.67l-4.77.27-.13-2.38c2.21-.43,4.13-.23,4.9,2.1ZM306.97,738.51c1.21,3.19,3.42,8.05-1.9,8.48l1.9-8.48ZM305.19,727.83c-.57,2.74-3.59,2.76-5.83,2.7-1.51-.61,4.14-3.21,5.83-2.7ZM301.95,755.55c-1.38-1.23.87-3.74,2.24-2.51,1.38,1.23-.87,3.74-2.24,2.51ZM304.2,774.6l-3.63-1.01-.07-1.17,3.57-.21.13,2.38ZM301.16,741.22c.42-.61,3.28,1.91,2.57,3.45-.42.61-3.28-1.91-2.57-3.45ZM298.61,738.97c.23.2,1.2,4.83,1.53,5.91-4.69-.68-4.63-8.53-1.53-5.91ZM297.83,767.78c1.38,1.23-.87,3.74-2.24,2.51-1.38-1.23.87-3.74,2.24-2.51ZM293.26,771.61l-6.03-.85c.74,4.86-.1,2.5-3.38,3.78-.8-2.14.96-2.17,1.05-2.45.13-.38-.22-.94-.07-1.19,2.57-4.12,5.75-2.78,8.43.72ZM290.19,759.81l-1.99,7.29c-3.11-.51.08-7,1.99-7.29ZM286.15,751.66c.83.37-.59,2.07-2.31,1.3-.83-.37.59-2.07,2.31-1.3ZM280.43,767.55c3.76,1.11-.34,4.85-1.57,3.66-.43-.42-1-4.43,1.57-3.66ZM277.86,774.88c1.91,1.91-1.23,5.46-3.37,3.77-1.34-1.06,2.16-4.99,3.37-3.77ZM272.77,790.74c.37-.83,2.07.59,1.3,2.31-.37.83-2.07-.59-1.3-2.31ZM271.89,775.2c-.83-.37.59-2.07,2.31-1.3.83.37-.59,2.07-2.31,1.3ZM274.53,758.28l-3.77-3.37c2.16-.53,4.04,1.09,3.77,3.37ZM267.61,764.14c.32-1.25,3.48-.51,4.16-2.08l-2.68,6.11c-1.83.59-1.65-3.37-1.48-4.03ZM267,794.66l1.17-.07.34,5.96c-4.36,1.08-1.26-2.66-1.51-5.89ZM267.79,819.76c.85-.23,2.06-.19,2.98-.15.16.75-.08,1.76.13,2.39-3.61-.69-3.14.38-4.76,1.87-2.17,1.99-2.26-3.05,1.65-4.1ZM266.79,834.21l.13,2.38-3.58.19c.31-1.75,1.78-2.85,3.45-2.57ZM261.95,768.58c.37-.83,2.07.59,1.3,2.31-.37.83-2.07-.59-1.3-2.31ZM259.89,774.68l-1.53-5.9c.34-.86,5.99,5.19,1.53,5.9ZM261.01,795l-1.01,3.63-1.17.07c-.28-2.88-.99-4.12,2.18-3.7ZM257.28,830.39c.29,1.26,2.68,2.32,2.28,3-.13.23-3.76,1.48-4.63,2.68l2.45-9.72c1.51.49-.39,2.78-.1,4.04ZM260.88,835.74c.17.13.04,1.63.13,2.38l-3.56.2c-1.75-2.49,2.49-3.32,3.43-2.58ZM259.35,786.7l-2.24,2.51c-.48-2.48-.27-2.71,2.24-2.51ZM252.85,820.61c.2-.84.96-3.49,1.59-3.71,4.88-1.69,2.43,1.73,2,3.51-.29,1.17-.6,4.86-1.54,4.89-4.22.13-2.52-2.75-2.05-4.69ZM255.17,845.08c.12-.36-.56-3.73.02-4.23,2.3-1.98,4.85,4.11,3.91,5.76l-5.97.33c-.6-1.94,1.66-.72,2.04-1.86ZM254.62,853.72c0,.15.03.27.1.33l-1.32-2.31c1.78-.59,1.19,1.18,1.22,1.98ZM264.21,873.89l-2.39.13c1.19-1.86,1.35-4.48,2.65-6.15,1.61,1.3-.38,4.38-.26,6.02ZM259.37,872.96c-.26.97-.59,1.49-.96,1.63-.41.69-.83,1.38-1.23,2.09-.55.13-1.99,1.82-2.31,1.33-1.56-4.74,1.12-4.63,1.87-4.88-.34-.61-.7-1.38-1.09-2.35-1.5-4.32-1.53-5.96-1.79-10.68,2.74-1.63,4.13-4.82,5.57-7.5.57-1.05.95-2.44,1.01-3.64,1.42-1.65,2.33,4.58,2.71,5.83.83,2.79,2.14,5.49,2.86,8.23-2.65,3.02-4.61,6.52-6.63,9.96ZM267.53,868.91c-.27-1.22-1.04-3.1-1.46-4.71,2.49-.97,5.63-1.63,8.29-1.66.21,0,.47.04.74.1-.26-.04-.47-.05-.74-.1,2.56,4.74-2.31,6.99-6.83,6.37ZM280.34,862.21c-6.62.5-5.98-2.27-7.63-7.96-2.84-.5-5.34,2.16-5.95.91-.15-.31-.19-.86-.09-1.77,1.88-.57,3.96-.69,5.91-1.53,1.13-.48,1.23-.26,2.32-1.33.97-.95.73-1.56,1.06-2.46-.42.11-.8.11-1.15.05.32-.02.69-.04,1.15-.05.93-2.5.67-2.49.93-4.84.68-6.22-.57-7.64-.73-13.14l-1.43-3.41-.03-.08-.05.03-2.2,1.28c-.25-1.11.1-2.64-.21-3.59l1.19-.07c1.29,1.08,2.94,1.81,3.78,3.38,1.8,3.36,2.73,16.76,2.47,20.92-.14,2.2-4.31,2.11-2.25,4.24.34.35,1.9-1.91,2.34-.73.76,2.03.77,5.59,1.63,7.69-1.3-.02-1.27,1.5-1.06,2.46ZM279.41,823.91c-1.19-1.08,1.84-4.87,3.38-3.77.25.18-1.45,5.51-3.38,3.77ZM281.32,815.43c1.88.11,4.23-.59,5.97-.35l.07,1.19c-2.22,1.67-4.93,2.09-6.04-.85ZM300.64,839.51c-.26.47-.85.81-1.13,1.26l-.53.6c-.25.23-.49.45-.6.67-1.79,3.74-.08,4.37.45,8.36l-6.23-4.44c-.34.82-1.09,2.76-2.23,2.5l-2.59-2.83c2.23-.4,3.49-3.68,4.56-4.45l-.07-1.19.55-1.24c5.27,3.61,4.25.21,5.35-.29-1.56-2.77-.6-5.4-.46-8.36-1.27-.16-4.01.71-4.74.17-.47-.35-.06-2.56-.25-3.49-.24-1.17-1.32.24-.13-2.39,3.11-6.89,10.56-.27,10.72,4.58.08,2.5-1.43,8.3-2.69,10.55ZM291.81,831.61l-1.77.09c-6.83-4.4,2.03-7.71,1.77-.09ZM305.87,782.9l-.79,7.23,2.42.46c-2.1.87-5.21,4.81-3.86,6.87,1.19,1.83,5.34.93,5.62,3.21-8.13-2.67-4.13,2.57-5.06,3.9-1.98,2.83-7.52-.61-6.47,3.94-.13-.36-.59-.93-.97-1.61-.07-.24-.18-.48-.35-.72-.26-.64.14-1.9-.13-2.39-.7-1.26-2.65-2.45-3.78-3.38-.5,2.23-2.55,2.74-4.64,2.66.15-.3-.21-.85-.07-1.19.22-.56,2.63-1.06,1.71-2.74-.22-.25-.45-.54-.71-.91-1.05.22-.84.98-1.13,1.26l-1.19.07c.11-.28-.05-3.24-.2-3.58-.07-.15-2.41-1.04-2.52-2.26-2.37-.62-5.54-2.52-4.52-5.73,3.59,2.64,9.29.71,10.56,6.59,1.38-.35,3.28,0,4.78-.27.21-.71.7-.87,1.13-1.26,0-5.91-1.13-12.03-1-17.92.04-1.95.11-4.01,1.73-1.3,1.61,2.69-.47,2.27-.47,2.43.03,3.96.58,7.98.67,11.94,2.23.54,2.06-1.2,2.32-1.32-.67-3.96.81-7.17,3.65-9.78,1.09,2.36,2.29,7.2,5.57,3.28-6.49,1.42-3.58-4.31-.27-2.19.47.3.05,1.94.27,2.19.57.65,2.55.82,2.52,2.24-1.54.26-3.26-.02-4.78.28ZM308.53,798.33l-.07-1.19c.8.35.82.75.07,1.19ZM316.43,843.41c-2.17.29-5.18.67-6.1-2.03,1.22-.16,5.47.4,6.03.86.17.15-.01.79.07,1.17ZM312.46,836.45c.9-4.83-.58-6.91,4.5-5.03l-4.5,5.03ZM324.4,857.35c-2.2-4.8-3.71-4.51-.47-8.36.15.06.29.11.43.16.94.4,1.8,1.1,2.09,2.09.11.36-.02.8.07,1.19-1.14,1.48-1.14,3.24-2.12,4.91ZM328.32,863.12c1.76-2.58-.32-5.39-.34-5.96l-1.12,1.26c-.16-1.18-.05-2.41-.21-3.58l2.32-1.33,1.19-.07c-.14-.66-1.08-1.54-1.33-2.32.45-.54-1.53-3.13,2.26-2.52.26,2.9,1.27,7.6-.66,9.62.13,3.02,1.41,5.52-2.12,4.9ZM336.41,857.88c-2.41-3.24-2.16-3.85,2.19-3.72l-.03-.58c.04.2.08.4.03.58-.43,1.57.28,2.59-2.19,3.72ZM335.81,847.13c1.36.61,2.25,1.22,2.46,1.68.07.16.06.3-.05.41-.01.01-.05.02-.06.03-.29.22-.96.34-2.21.26-.19-.7,0-1.63-.13-2.39ZM347.5,863.25c-1.02.28-2.45-.02-3.58.21l.07,1.16c.86-.05,1.87.5,2.45,1.08l-1.13,1.26c.13,0,.27.04.41.11-.14-.04-.23-.04-.41-.11-.79.03-1.61.04-2.39.13-1.71.2-5.04,3.89-4.84-.93,1.61-.1,2.78.38,2.32-1.32l-2.37.11c-.8-2.16.95-2.16,1.05-2.44.28-.77,1.37-1.97,1.05-2.43-.08-.11-1.57-.15-2.44-1.09,4.7-4.1,3.01-3.52.86-6.04.4-1.22,1.26-4.77,2.17-3.71l2.74,5.83c.5,2.7,2.79,2.76-2.06,6.11,1.43-.17,4.69.34,6.04.86.33.13.95-.25,1.2.53,0,.72-.71.55-1.14.66ZM360.96,868.5c-2.67-2.42-4.21-.94-7.27-1.36-1.64-1.14-1.33-1.35-.76-2.99,1.27-3.62,1.92.81,2.05.9,1.01.64,6.54-3.82,5.97,3.46ZM364.22,862.32c-.3.31.49,4.67.33,5.97l-2.38.13c.16-1.54-.84-4.89-.17-5.86.38-.55,1.84-.03,2.22-.24.87-.49,4.31-2.98,4.63-2.65l.15,2.38c-1.11.31-4.47-.06-4.79.27ZM370.86,863.15c.8.35.82.75.07,1.19l-.07-1.19ZM371.12,867.93l-.07-1.19c.8.35.82.75.07,1.19ZM368.92,841.02c-1.33.89-3.82.51-4.45,1.16-.53.56.45,2.61-.69,3.55-.4.33-7.68,3.59-8.66,3.92-.6.21-1.62.63-2.41.96-.57.24-1.03.43-1.11.44,1.47.02,2.14.07,2.35.19-.58.14-1.33.11-2.35-.19-2.67.44-5.64.12-8.36.47-.5-2.11-2.2-4.34-1.61-7.1-1.06.69-2.42.88-3.51,1.39.07-2.37.05-4.53-2.12-5.85-1.13,1.03-1.67,2.73-2.79,3.73-1.46,1.3-3.39,1.28-3.52,1.41-.44.42,1.26,1.71,1.33,2.3-1.35-.03-3.78-1.2-4.84-.93l-.13-2.39c.71.61,1.29.66,1.82.52.64-.17,1.19-.61,1.77-.72-.67-1.53-2.34-1.01-3.65-.99-1.98.02-3.98.29-5.97.33-1.07-3.45,2.85-2.57,3.98-4.98,1.76-3.77-2.33-4.33-3.2-6.68-.81-2.2-.24-8.19-.77-8.66-.28-.25-4.12.27-5.99-.91.83-1.2,2.06-2.16,3.45-2.59.99-.3,2.73.27,3.88-.2,1.04-.42,3.62-6.03,7.79-5.26l-2.47-1.63c2.17-2.13,1.53-5.55,2.62-7.87,1.14-2.43,3.28-2.76,4.73-4.37.54-.6-.26-2.52.95-3.25,1.32-.8,12.37-3.39,13.99-3.2,2.98.35,4.51,5.23,8.11,6.05,2.38.55,8.78-.44,10.7-2.25-4.02-6.52-2.65-14.27,3.32-4.98,1.96,3.05,3.54,7.24,5.38,10.48-1.16,1.64-3.12,2.98-5.15,2.78-1.31-.13-.03-3.03-2-2.38-.94,5.63,4.27,3.8,8.62,4.31.56,2.2-1.58,6.04-1.57,6.68.03,1.12,2.78,3.8,3.43,5.2.45.97,1.17,1.53,1.25,2.91.07,1.35-.59,2.05-.91,3.06-1.71,5.33-6.54,12.42-11.22,15.54ZM376.35,843.67c-.42.61-3.28-1.91-2.57-3.45.42-.61,3.28,1.91,2.57,3.45ZM372.86,845.06c2.89,1.07,5.94,2.76,7.49,5.56-2.51,1.51-8.8-3.97-7.49-5.56ZM374.59,854.56l3.97,7.62c.39,1.58-.22,1.29-1.06,1.8-2.12-2.01-3.08-6.52-2.91-9.42ZM380.15,868.62c-.07,0-.15,0-.22,0-1.09-.03-2.43.37-3.36.2.08-.32.21-.59.34-.85.73-1.49,2.13-2.01,2.92-1.56.54.31.79,1.04.33,2.21ZM382.41,855.31c-1.33-1.02-2.28-1.69-1.99-3.47l2.38-.13-.39,3.6ZM384.85,824.02c-.39-1.29.03-3.32-.27-4.78,7.52,1.68,2.48,12.18.27,4.78ZM387.9,857.4c-.37.83-2.07-.59-1.3-2.31.37-.83,2.07.59,1.3,2.31ZM391.29,853.62c-1.72,1.94-4-3.16-3.78-3.37,1.41-1.27,4.84,2.16,3.78,3.37ZM389.54,839.53c-.23.21.73,1.69.39,2.17-.92,1.3-3.24,2.03-4.01,1.43-.45-.34,1.14-10.7,2.37-10.87,1.32.99,5.01,1.17,5.55,2.65,1.56,4.26-3.19,3.63-4.3,4.62ZM405.7,854.02c-.35-.19-1.91.49-2.31.05-.76-.84.96-3.79.36-5.6-.23-.71-.81-1.24-2.04-1.41-.45,6.15-7.69,2.42-2.42-.39,1.1-.59,2.26.45,2.42.39.94-.35,2.71-1.03,3.52-1.39l.07,1.19c-.06,2.3,2.76,5.73.4,7.17ZM420.56,862.77l.07,1.19c.23.54.73.91,1.26,1.13,1.56,1.89,2.31,2.1,3.78,3.38l-3.52,1.39c-1.32-2.25-3.8-4.76-1.59-7.1ZM426.48,882.81c-1.48.31-2.34-.05-2.66-.57-.04-.11-.08-.22-.12-.32-.14-.79.74-1.72,2.53-1.51.04,0,.07,0,.11,0l-.03-.42-.05-.75c-3.95.82-2.29-4.08-2.78-7.05,1.73,2.37,3.7,2.23,5.11,5.71.13.32-.04.8.07,1.19-.67,1.27-1.56,2.43-2.19,3.72Z"/>
        <path class="cls-2" d="M259.59,897.04c-.52.51.38,2.85.12,3.47-.64,1.52-3.79,3.13-1.99,7.3,1.19-2.12,2.22-4.35,3.25-6.17,1.68-2.95,3.12-2.76,6.05-2.78.32,0,.64,0,.99-.01l-.14-2.38c-1.81.47-7.48-.2-8.28.58Z"/>
        <path class="cls-2" d="M341.2,879.18c-.08.2.05.67-.11.96-.07.12-.18.22-.41.24-.06-.09-.15-.15-.22-.22-.47-.45-1.17-.55-1.64-.84-.63-.4-1.08-2.48-2.51-2.26l.17,2.98,1.21.54c-.11.96.63,2.68.01,3.42-.49.6-1.92.09-2.2.29.79.37,1.33.67,1.72.92,2.3,1.49-1.61,1.17-1.62,2.25,0,1.37,2.04,8.34,1.71,8.64-.41.38-1.74-.02-2.34.2l-.2-3.58c-.1-1.84-.52-4.31-.33-5.97-1.18.12-2.41.05-3.58.2-.36,2.16-2.65,1.65,1.37,3.08l.09,1.63c-2.04-.02-3.99,1-5.91,1.53,2.44,1.37,4.99,2.95,7.43,4.38,2.54,1.48,4.8,3.05,7.43,4.38.46-.38.77-.74.99-1.1,1.69-2.68-2.18-4.77,3.38-6.33,1.01-.28,2.46.01,3.58-.2.31-.84.75-1.62,1.06-2.46-.89-2.47-4.27.69-5.91,1.53-1.17.59-1.75,1.77-3.52,1.38l2.22-3.11c-4.62-.81-.87-2.83-1.7-5.62-.3-1.03-2.11-2.11-2.4-3.06-.04-.13-.06-.27-.03-.4.07-.34.41-.65,1.18-.94.19.89-.47,2.02.74,2.36,3.51.99.49-1.95.45-2.43-.03-.42,2.06-2.18-.2-3.58.37-1.18,1.31-2.25.99-3.65-1.17.55-2.23,1.05-3.51,1.39.05.27.13.49.21.66.35,1.27.45,2.42,2.37,2.79Z"/>
        <path class="cls-2" d="M336.6,873.4c-.16.04-.3.09-.4.2-.39.44,0,1.38.03,1.99,0,.09-.02.18-.02.28.76-.14,1.69.05,2.39-.13-.25-.65.13-1.86-.13-2.39-.52.09-1.33-.08-1.87.05Z"/>
        <path class="cls-2" d="M388.65,892.11c-1.24-2.73-4.42.2,2.06-6.09l-6.04-.87c-.41,1.6-.57,2.98-.67,4.5-.05.77-.09,1.58-.12,2.48-.11-1.21-1.56-6.49-1.79-6.72-.91-.9-7.05.89-3.87-8.29-2.8,1.98-4.17-.32-3.17-3.39l-4.13,1.4c.41,2.23.07,4.86.4,7.17,3.4,3.13,6.56,6.83,10.16,10.22.68-.16,2.23.06,2.39-.13,0,.24.02.48.03.72.04.56.1,1.12.1,1.67,1.54-.23,3.29.03,4.78-.27-.27-.56.13-1.8-.13-2.39Z"/>
        <path class="cls-2" d="M396.62,884.47c.28.25.59.31.9.3.33-.02.65-.14.93-.36.77-.59,1.21-1.73.41-2.45-1.38-1.23-3.62,1.28-2.24,2.51Z"/>
        <path class="cls-2" d="M244.95,775.51l.07,1.19c.75-.44.73-.84-.07-1.19Z"/>
        <path class="cls-2" d="M324.18,819.52l-.65.72c1.9.24,3.41-1.07,3.46-2.87,0-.29-.01-.59-.08-.9l-2.73,3.05Z"/>
        <path class="cls-2" d="M293.54,841.1c.31,1.38-.73,2.54-.99,3.65l3.58-.21c.42-.41-2-2.86-2.59-3.44Z"/>
        <path class="cls-2" d="M380.41,873.4c-1.96,0-1.97,3.57-2.18,3.72.22-.64,3.3-1.34,2.18-3.72Z"/>
        <path class="cls-2" d="M331.57,878.52c-4.34.11-1.82,1.18-.99,3.65,3.34.37,2.88-1.27.99-3.65Z"/>
      </g>
    </g>
  </g>
</svg>