<?xml version="1.0" encoding="UTF-8"?>
<svg id="_레이어_2" data-name="레이어 2" xmlns="http://www.w3.org/2000/svg" xmlns:xlink="http://www.w3.org/1999/xlink" viewBox="0 0 399 1000">
  <defs>
    <style>
      .cls-1 {
        fill: none;
      }

      .cls-2 {
        fill: #e6e7e8;
      }

      .cls-3 {
        clip-path: url(#clippath);
      }
    </style>
    <clipPath id="clippath">
      <rect class="cls-1" width="399" height="1000"/>
    </clipPath>
  </defs>
  <g id="Layer_1" data-name="Layer 1">
    <g class="cls-3">
      <g>
        <path class="cls-2" d="M355.68,132.61c-.04.45-.05.84-.05,1.18.04-.37.06-.76.05-1.18Z"/>
        <path class="cls-2" d="M269.57,128.07l.16.52.19.1c.16.06.37.13.5.26.06.06.07.16.08.26l.08.26.29.15c.14.06.3.12.4.21,8.99,8.54,17.14,18.62,26,27.37l5.63,3.01c.34-.13.72-.18,1.05-.32.3-1.06,2-1.15,2.98-1.49.34-.12.71-.19,1.05-.32.19-.99,1.63-1.04,2.46-1.32.33-.14.72-.17,1.05-.32.3-1.06,2-1.15,2.98-1.48.34-.12.71-.19,1.05-.32.19-.99,1.63-1.04,2.46-1.32.33-.14.72-.17,1.05-.32.3-1.06,2-1.15,2.98-1.48.34-.12.71-.19,1.05-.32.19-.99,1.63-1.04,2.46-1.32.33-.14.72-.17,1.05-.32.3-1.06,2-1.15,2.98-1.48.34-.12.71-.19,1.05-.32.19-.99,1.63-1.04,2.46-1.32.33-.14.72-.17,1.05-.32.3-1.06,2-1.15,2.98-1.48.34-.12.71-.19,1.05-.32.19-.99,1.63-1.04,2.46-1.32.33-.14.72-.17,1.05-.32.3-1.06,2-1.15,2.98-1.48.34-.12.71-.19,1.05-.32.19-.99,1.63-1.04,2.46-1.32.33-.14.72-.17,1.05-.32.3-1.08,2-1.13,2.98-1.48.34-.12.71-.19,1.05-.32,2.58-1.27,1.52-2.59,2.54-4.79.01-.17-.17-.35-.16-.52.11-1.63-.08-3.33.81-4.83,0-.17-.16-.35-.16-.52.04-3.03.16-2.43,2.42-3.03.34-.13.71-.25,1.12-.35.51-.18,1.08-.26,1.57-.48l.73-1.37c-.01-.32-.28-.7-.32-1.05-.23-.85-.99-2.07-.28-2.78-.05-.35-.27-.7-.32-1.05-.23-.85-.99-2.07-.28-2.78-.03-.18-.13-.34-.16-.52-.23-.85-.99-2.07-.28-2.78-.06-.35-.24-.7-.32-1.05-.43-1.79.12-.97,1.77-1.69.17-.07.36-.09.52-.16l1.41-1c.06-.11-.18-.34-.16-.52l-.12-2.25c-.06-.34-.22-.71-.32-1.05-1.44-1.38-4.91,1.01-5.33,2.21-.87,2.49,1.85,9.5,1.64,10.29-.16.57-3.92,1.58-5.31,3.98-1.68,2.9-.88,3.9-.66,6.66.39,4.86-2.34,2.47-4.96,3.12-.85.21-5.16,4.02-5.54,4.67-.87,1.48.85,4.15-1.89,5.32-1.67.72-2.97-1.18-4.25-1.17-1.94.01-6.26,1.69-7.47,3.3-1.37,1.82-.5,5.47-4.07,3.58-1.03-.55-1.63-1.77-2.36-2.15-1.21-.63-6.33.08-7.65.72-1.73.83-1.98,6.61-5.4,3.22-2.65-2.63-1.38-3.43-6.27-3.85-4.75-.41-2.67.57-4.75,2.01-4.21,2.91-3.87-1.76-4.92-3.53-1-1.69-5.09-3.69-6.98-3.49-2.1.22-4.19,2.99-6.14.05-.93-1.41.73-3.26-.2-5.3-.34-.74-3.27-3.53-4.07-3.96-2.23-1.2-3.17-.03-5.18-.14-.7-.04-1.73-1.44-1.82-.29Z"/>
        <path class="cls-2" d="M263.67,121.87c.11.12.05.4.16.52l.68.36c.11.12.05.4.16.52l.68.36c.11.12.05.4.16.52l.68.36c.11.12.05.4.16.52l.68.36c.11.12.05.4.16.52l.68.36c.11.12.05.4.16.52l.58.31.11.06c.06.06.07.16.08.26,0,.05.01.09.02.13l.06.13c.68-2.67,3.09-3.14,2.17-6.07-.28-.91-2.81-5.3-3.46-5.76-.89-.63-5.07.57-5.75-2.34-.32-1.37,2.19-2.54,2.31-2.8.12-.27-.37-5.35-.49-5.78-.92-3.4-5.67-4.61-5.83-6.13-.14-1.32,2.46-3.68,2.74-4.67.08-.29.45-5.51.42-5.96-.2-2.4-1.97-2.37-2.57-3.99-.92-2.44,2.4-2.6,3.88-4.04,1.69-1.66,3.58-7.34,1.23-9.21-5.35,9.1-10.68,18.34-16.25,27.3l.03,5.71c5.4,6,10.9,11.93,16.35,17.89ZM254.17,105.41c.08-.28.89-.3.91-.37.15-.46-1.13-4.73-.66-4.95,2.73-1.37,2.1,3.51,1.18,4.79,2.2.11.63,2.41.78,3.48.15,1.09,1.37,2.9,1.1,4.53-2.39-1.27-4.01-4.89-3.31-7.48Z"/>
        <path class="cls-2" d="M292.45,56.96c-.71.13-1.39.49-2.09.64,0-1.27.82-1.6,1.93-1.16-.42-.66.63-2.25.41-2.41-.08-.06-1.29.21-1.95-.04-.95-.36-2.23-1.9-2.89-1.8-2.21.34-1.21,7.36-1.41,7.72-.23.41-4.28,1.21-4.34,2.51,3.63-.15,6.91-1.88,10.33-2.52,5.33-1,12.47-.36,17.76.8,3.52.77,6.37,1.92,9.61,3.35,3.37,1.49,9.11,4.34,12.01,6.68,1.28,1.03,2.3,3.31,3.9,4.21,1.49.83,3.07.22,4.33.92,2.11,1.16,2.84,6.17,6.74,4.55,1.24-.51,4.2-5.09,3.66-5.98-.3-.5-2.29-.35-3.13-.72-.92-.41-1.48-1.52-1.58-1.56-.94-.36-1.38,3.22-3.14,2.63-.19-.06-2.42-2.5-2.68-2.85-1.96-2.62.25-3.49.81-5.74,1.16-4.7-1.91-2.12-4.22-2.63-1.21-.26-4.52-2.98-5.51-4.07-1.23.91,1.85,3.75,1.44,4.7-6.46-.81-2.98-2.86-2.89-5.26.22-5.89-1.94-2.73-4.17-2.4-2.42.35-3.51-1.3-5.1-2.03-.88-.41-2.37-.19-3.1-.76-.9-.7-1.35-3.17-2.33-3.06-.18.02-2.94,1.96-3.07,2.09-.42.4-.81,2.12-1.89,2.75-1.61.95-4.99.75-3.11-.8,1.21-1,3.01-.89,3.78-2.15-3.05.15-8.14.05-9.09-3.51-.46-.23-2.88,3.38-3.07,3.84-.44,1.06-.31,3.38-.42,3.52-.16.23-4.28.32-5.53.55ZM320.29,58.16c2.92.87.45-2.63,2.84,0-.08,1.7-3.49,1.15-2.84,0ZM312,57.27l.16.51c-2.1.93-2.41-.11-.16-.51Z"/>
        <path class="cls-2" d="M283.4,103.25c-.4-.91-.24-1.8-.52-2.72-1.44-.76-3.06,4.04-3.39,4.35-.41.37-1.39-.08-2.1.8-.1.13-1.59,2.73-1.63,2.89-.26,1.14,3.52,9.8,4.15,12.07.32,1.15-.09,3.37,1.07,3.68.84.22,2.22-.54,3.33-.49,2.28.11,4.89,1.07,7.24,1.23,6.1.41,17.97-.99,22.5-5.13,1.55-1.42,4.03-4.88,3.51-7.12l-12.3,3.77c-2.21.68-11.48-.36-13.66-1.51-1.51-.8-3.02-2.62-3.97-4.08-.99-1.52-1.14-3.08-1.62-3.97-.16-.3-.16-.77-.32-1.05-.29-.49-1.65-1.24-2.3-2.71Z"/>
        <path class="cls-2" d="M303.73,83.15c-2.71-.62-9.95-.82-9.76,3.1,1.98-1.19,3.99.11,5.75,1.19.39.24.55,1.14.84,1.26.53.22,1.55-.61,2.45-.07.35.21,4.42,5.75,4.87,6.5,1.05,1.73,2.88,5.38,3.61,7.23,1.27,3.21,1.91,6.94,3.13,10.2,1.63-.32,2.74-.81,2.09-2.61-3.15-6.68-4.92-14.94-7.92-21.48-1.16-2.54-2.13-4.64-5.06-5.31Z"/>
        <path class="cls-2" d="M286.22,105.8c.92-1.45,1.8-.75,2.62-.8,1.4-.09,4.57-.12,5.77.27,1.59.51,2.34,2.62,4.29,1.83,1.8-.74.83-2.42,1.4-3.35.35-.58,2.38-1.71,2.44-1.89.34-1.07-1.39-1.85-2.2-2.4-.13-.09-.23-.17-.3-.24-3.71-3.94-8.99-9.39-9.16-14.94-1.73,2.53-5.75,3.96-5.15,7.56.5,3.02,1.5,2.84,2.88,4.56.56.71.69,1.99,1.3,2.5.18.15,3.92.79,4.57.88,1.02.14,4.41.38,5.19.13,3,2.99-3.53,1.03-4.87.92-.32-.03-1.04.46-1.72.39-4.77-.48-10.29-3.98-7.05,4.59ZM297.57,101.75c.55.55-.28,2.08-.56,1.89-.55-.55.28-2.08.56-1.89Z"/>
        <path class="cls-2" d="M288.84,105c-.27.06-.48.12-.68.2.23-.07.44-.13.68-.2Z"/>
        <path class="cls-2" d="M352.25,91.6c.73.1,4.37-3.79,4.45-4.24.21-1.2-3.2-.52-3.57-1.95-3.05.41-4.46,5.69-.88,6.19Z"/>
        <path class="cls-2" d="M272.72,63.57c.54-.99.96-1.93.77-3.1l-1.57.48c.27.64.48,1.09.4,1.39-.24.06-.56.22-.97.5-.85-.07-2.35.4-3.3.44-.71,1.36-1.91,2.91-2.7,4.26,2.97.62,6.02-1.5,7.37-3.97Z"/>
        <path class="cls-2" d="M275.82,64.34c2.2-.98,4.65-2.54,4.11-5.26-1.37.45-2.67.21-3.88-.52l-.23,5.78Z"/>
        <path class="cls-2" d="M354.1,101.09c-.27.36-.24,1.93.88,1.9,2.54-.07,6.18-2.24,2.66-4.17-.21,1.77-3.17,1.77-3.54,2.27Z"/>
        <path class="cls-2" d="M299.88,92.46c-.17-.08-1.86,1.08-1.9,1.19-.36,1.04,3.25,4.86,4.91,3.04.13-.23-2.78-4.12-3.01-4.23Z"/>
        <path class="cls-2" d="M298.92,60.86c-2.12.05-4.14.21-6.24.6-2.74.52-4.71,1.2-7.32,2.25.16.95,1.34.13,1.98-.04,1.5-.39,2.97-.95,4.46-1.36l11.1-1.12c-.73-.68-2.94-.35-3.98-.33Z"/>
        <path class="cls-2" d="M357.14,94.39c.11.46-.35,2.7,1.32,2.45-.04-.49-.51-1.21-.47-1.57.24-2.43,1.68-2.65-1.09-5.39-1.41,1.14-.09,3.13.24,4.5Z"/>
        <path class="cls-2" d="M266.62,69.53c-.38.42-.14,2.63.96,2.48.68-.09,2.24-2.06,2.3-2.72.14-1.41-3.01-.05-3.26.24Z"/>
        <path class="cls-2" d="M283.31,55.17c.06-.11,1.1-.14,1.5-.72.67-.98-.62-3.21,2.41-3.34.46.16,1.54.12,2.41.41,2.78.91,5.48,2.44,7.81-.67.37-.5,1.06-.83.65-1.63-.24-1.02-.74,1.05-.81,1.1-.06.04-.87-.06-1.51.27-2.13,1.1-1.85,2.43-2.64-.71l-.72,1.36c-.34-1.99-.88-.05-1.66-.15-.09-.01-.09-.41-1.44-.61-1.15-.17-1.43-.73-2.94-.25-.21.07-.63.94-.86.81-.29-.16-.02-1.35-.86-.85.7,1.26-1.14,1.42-1.41,2.11-.15.4,1.36,1.45-.1,2.36l-2.7.54,3.08,1.62c.56-.3-.35-1.41-.22-1.64Z"/>
        <path class="cls-2" d="M261.07,83.46c-.16,3.09,3.66-.45,1.84-1.43-.4-.21-1.81.65-1.84,1.43Z"/>
        <path class="cls-2" d="M348.86,86.04c-.41-1.24-.51-3.27-2.16-3.34.41.88.98,3.33,2.16,3.34Z"/>
        <path class="cls-2" d="M311.87,62.46c-.3-.16-1.31-.68-1.37-.73l-.36.68c.63.1,1.33-.03,1.73.04Z"/>
        <polygon class="cls-2" points="276.67 57.78 276.35 56.74 274.78 57.22 274.94 57.73 276.67 57.78"/>
        <path class="cls-2" d="M301.51,47.32s-1.17.14-.96.58c1.25,1.18,1.74-.15.96-.58Z"/>
        <path class="cls-2" d="M287.23,107.21c.84-.47.11-.97.2-1.21l-.2,1.21Z"/>
        <path class="cls-2" d="M325.04,54.98c.85.15,1.29-.76.88-.83-.85-.15-1.29.76-.88.83Z"/>
        <path class="cls-2" d="M322.26,66.42l1.02.54c.55-.16-.71-1.21-1.02-.54Z"/>
        <path class="cls-2" d="M356.07,113.32l.52-.16c-.28-.29-.45-.23-.52.16Z"/>
        <path class="cls-2" d="M2.3,472.69c.06-.64.08-1.19.1-1.68-.07.53-.11,1.08-.1,1.68Z"/>
        <path class="cls-2" d="M-1.38,511.86c1.29-3.53-2.42-13.57-2.1-14.68.23-.81,5.62-2.16,7.64-5.54,2.46-4.09,1.34-5.53,1.09-9.46-.45-6.92,3.39-3.46,7.12-4.33,1.22-.28,7.43-5.6,7.99-6.52,1.27-2.09-1.11-5.92,2.81-7.52,2.39-.98,4.2,1.75,6.02,1.77,2.76.03,8.95-2.27,10.71-4.53,1.99-2.56.83-7.78,5.87-5,1.45.8,2.28,2.55,3.31,3.11,1.71.93,9.01.02,10.9-.85,2.48-1.15,2.97-9.37,7.75-4.46,3.71,3.81,1.89,4.92,8.84,5.62,6.75.69,3.81-.75,6.81-2.76,6.05-4.04,5.47,2.59,6.93,5.14,1.39,2.43,7.15,5.37,9.85,5.13,2.99-.27,6.03-4.16,8.74.07,1.3,2.03-1.11,4.63.16,7.54.46,1.06,4.57,5.09,5.71,5.72,3.15,1.75,4.51.11,7.37.32.99.07,2.42,2.08,2.58.45l-.22-.75-.26-.15c-.23-.09-.52-.19-.7-.39-.08-.09-.09-.23-.11-.37l-.11-.37-.41-.22c-.2-.09-.42-.17-.56-.31-12.6-12.36-23.96-26.88-36.38-39.53l-7.94-4.41c-.48.18-1.03.23-1.5.43-.45,1.51-2.87,1.6-4.27,2.05-.49.16-1.01.25-1.5.43-.29,1.4-2.34,1.44-3.52,1.83-.47.19-1.03.23-1.5.43-.45,1.51-2.87,1.6-4.27,2.05-.49.16-1.01.25-1.5.43-.29,1.4-2.34,1.44-3.52,1.83-.48.19-1.03.23-1.5.43-.45,1.51-2.87,1.6-4.27,2.05-.49.16-1.01.25-1.5.43-.29,1.4-2.34,1.44-3.53,1.83-.47.19-1.03.23-1.5.43-.45,1.51-2.87,1.6-4.27,2.05-.49.16-1.01.25-1.5.43-.29,1.4-2.34,1.44-3.53,1.83-.47.19-1.03.23-1.5.43-.45,1.51-2.87,1.6-4.27,2.05-.49.16-1.01.25-1.5.43-.29,1.4-2.34,1.44-3.52,1.83-.47.19-1.03.23-1.5.43-.45,1.51-2.87,1.6-4.27,2.05-.49.16-1.01.25-1.5.43-.29,1.4-2.34,1.44-3.52,1.83-.48.19-1.03.23-1.5.43-.46,1.53-2.88,1.57-4.27,2.05-.49.17-1.02.25-1.5.43-3.69,1.74-2.21,3.65-3.72,6.75-.02.24.24.51.22.75-.19,2.32.03,4.74-1.26,6.85-.01.24.22.5.22.75-.13,4.31-.28,3.46-3.51,4.25-.49.18-1.01.35-1.61.47-.73.25-1.54.35-2.24.65l-1.06,1.93c.01.45.39,1.01.43,1.5.3,1.21,1.36,2.97.33,3.96.06.49.37,1,.43,1.5.3,1.21,1.36,2.97.33,3.96.04.25.18.49.22.75.3,1.21,1.36,2.97.33,3.96.08.5.32,1,.43,1.5.57,2.56-.19,1.38-2.56,2.36-.24.1-.51.12-.75.22l-2.03,1.4c-.08.15.25.49.22.75l.12,3.21c.08.49.29,1.01.43,1.5,2.02,2,7.01-1.33,7.63-3.02Z"/>
        <path class="cls-2" d="M155.85,515.88c-7.55-8.66-15.25-17.22-22.87-25.82-.16-.18-.06-.57-.22-.75l-.96-.53c-.16-.18-.06-.57-.22-.75l-.96-.53c-.16-.18-.06-.57-.22-.75l-.96-.53c-.16-.17-.06-.57-.22-.75l-.96-.53c-.16-.17-.06-.57-.22-.75l-.96-.53c-.16-.17-.06-.57-.22-.75l-.82-.45-.15-.08c-.08-.09-.09-.23-.11-.37,0-.07-.01-.13-.03-.19l-.08-.18c-1.02,3.79-4.47,4.4-3.23,8.58.38,1.3,3.88,7.6,4.79,8.27,1.25.91,7.22-.7,8.12,3.46.42,1.95-3.18,3.57-3.34,3.93-.17.38.41,7.62.57,8.24,1.24,4.86,7.97,6.69,8.15,8.85.16,1.88-3.59,5.19-4,6.59-.12.41-.77,7.83-.73,8.46.23,3.42,2.74,3.42,3.57,5.73,1.25,3.5-3.47,3.64-5.61,5.67-2.44,2.32-5.26,10.37-1.96,13.07,7.82-12.82,15.61-25.86,23.74-38.48l.08-8.13ZM146.14,513.69c-.12.4-1.27.41-1.31.51-.23.65,1.5,6.75.82,7.06-3.91,1.88-2.91-5.04-1.57-6.85-3.13-.21-.84-3.44-1.03-4.97-.19-1.56-1.89-4.16-1.46-6.47,3.37,1.86,5.6,7.05,4.54,10.71Z"/>
        <path class="cls-2" d="M90.58,581.77c1.01-.17,1.99-.67,2.99-.86-.04,1.81-1.21,2.26-2.78,1.61.59.95-.95,3.19-.63,3.42.11.08,1.84-.26,2.78.1,1.35.53,3.14,2.76,4.07,2.63,3.16-.43,1.89-10.45,2.19-10.95.34-.58,6.12-1.62,6.23-3.48-5.16.13-9.87,2.52-14.75,3.36-7.61,1.31-17.75.24-25.26-1.53-4.99-1.18-9.01-2.88-13.6-4.99-4.76-2.19-12.87-6.38-16.94-9.77-1.8-1.49-3.19-4.76-5.45-6.08-2.1-1.22-4.36-.38-6.15-1.4-2.98-1.7-3.9-8.84-9.49-6.63-1.77.7-6.09,7.14-5.34,8.43.42.72,3.25.55,4.44,1.1,1.3.6,2.07,2.2,2.21,2.25,1.32.53,2.04-4.55,4.52-3.67.26.09,3.39,3.61,3.75,4.12,2.73,3.77-.44,4.96-1.28,8.15-1.75,6.66,2.67,3.06,5.95,3.84,1.71.4,6.37,4.35,7.75,5.91,1.77-1.27-2.55-5.38-1.95-6.72,9.17,1.29,4.17,4.13,3.99,7.54-.45,8.37,2.7,3.93,5.89,3.52,3.45-.44,4.96,1.92,7.21,3,1.25.6,3.36.32,4.4,1.15,1.27,1.01,1.84,4.54,3.25,4.4.26-.03,4.22-2.72,4.41-2.9.6-.56,1.2-3,2.75-3.88,2.31-1.31,7.12-.95,4.4,1.21-1.75,1.39-4.3,1.2-5.43,2.98,4.34-.15,11.58.12,12.86,5.2.66.34,4.17-4.74,4.45-5.4.65-1.49.52-4.8.67-5,.24-.32,6.09-.35,7.89-.66ZM50.98,579.43c-4.13-1.31-.7,3.73-4.04-.05.16-2.42,5-1.55,4.04.05ZM62.76,580.88l-.21-.73c3.01-1.27,3.43.21.21.73Z"/>
        <path class="cls-2" d="M104.48,516.1c.55,1.31.3,2.57.67,3.89,2.02,1.11,4.44-5.68,4.93-6.11.59-.52,1.97.14,3.01-1.09.15-.18,2.33-3.85,2.39-4.08.4-1.62-4.79-14.03-5.64-17.27-.43-1.64.2-4.8-1.44-5.26-1.19-.34-3.17.72-4.75.62-3.25-.21-6.93-1.64-10.27-1.91-8.67-.71-25.59,1.01-32.13,6.79-2.24,1.98-5.84,6.85-5.16,10.05l17.58-5.08c3.15-.91,16.33.77,19.4,2.46,2.13,1.17,4.24,3.8,5.55,5.89,1.37,2.19,1.55,4.4,2.21,5.69.22.43.2,1.1.43,1.5.4.7,2.31,1.8,3.21,3.91Z"/>
        <path class="cls-2" d="M75.11,544.25c3.84.95,14.14,1.38,13.95-4.19-2.84,1.65-5.67-.25-8.15-1.82-.55-.35-.76-1.63-1.17-1.81-.75-.32-2.22.84-3.49.05-.49-.31-6.16-8.29-6.79-9.36-1.45-2.49-3.97-7.72-4.97-10.37-1.74-4.6-2.56-9.91-4.22-14.59-2.32.43-3.92,1.09-3.03,3.67,4.32,9.58,6.66,21.36,10.78,30.75,1.6,3.64,2.93,6.65,7.08,7.68Z"/>
        <path class="cls-2" d="M87.93,519.29c.46.05,1.5-.63,2.46-.52,6.78.78,14.55,5.89,10.14-6.37-1.34,2.05-2.57,1.03-3.74,1.08-1.99.09-6.5.06-8.21-.51-2.25-.76-3.27-3.79-6.06-2.7-2.57,1.01-1.24,3.43-2.06,4.74-.51.81-3.43,2.38-3.51,2.63-.51,1.51,1.94,2.67,3.07,3.46.12.11.26.22.42.35,5.19,5.7,12.59,13.57,12.7,21.46,2.51-3.56,8.26-5.5,7.5-10.64-.64-4.3-2.08-4.08-4-6.56-.79-1.02-.94-2.85-1.8-3.58-.25-.21-5.56-1.21-6.49-1.35-1.44-.22-6.27-.64-7.38-.3-4.2-4.33,5.05-1.39,6.95-1.2ZM85.13,515.24c.77.79-.44,2.95-.83,2.67-.77-.79.44-2.95.83-2.67Z"/>
        <path class="cls-2" d="M96.79,513.49c.38-.07.69-.16.97-.27-.32.09-.63.18-.97.27Z"/>
        <path class="cls-2" d="M6.26,531.13c-1.04-.16-6.3,5.29-6.42,5.93-.33,1.71,4.54.81,5.03,2.85,4.35-.51,6.47-7.99,1.4-8.79Z"/>
        <path class="cls-2" d="M118.8,572.8c-.79,1.39-1.41,2.72-1.16,4.39l2.24-.65c-.38-.91-.65-1.56-.54-1.99.35-.08.8-.3,1.39-.68,1.2.11,3.35-.51,4.71-.55,1.05-1.92,2.78-4.1,3.94-6-4.21-.95-8.6,2-10.57,5.49Z"/>
        <path class="cls-2" d="M114.4,571.64c-3.15,1.35-6.68,3.51-5.97,7.39,1.95-.61,3.81-.23,5.51.83l.46-8.22Z"/>
        <path class="cls-2" d="M-1.25,520.73c.34-2.51,4.56-2.45,5.09-3.15.39-.51.38-2.74-1.21-2.72-3.61.04-8.84,3.05-3.88,5.87Z"/>
        <path class="cls-2" d="M80.8,531.09c.25.12,2.68-1.5,2.73-1.65.54-1.47-4.51-6.98-6.92-4.44-.19.32,3.86,5.92,4.19,6.08Z"/>
        <path class="cls-2" d="M81.46,576.07c3.02-.02,5.9-.2,8.89-.72,3.91-.68,6.72-1.6,10.47-3.03-.2-1.36-1.9-.21-2.82.01-2.14.52-4.24,1.29-6.37,1.84l-15.82,1.34c1.03.98,4.18.57,5.66.56Z"/>
        <path class="cls-2" d="M-.64,527.05c-.14-.65.56-3.84-1.82-3.52.05.7.7,1.73.64,2.24-.4,3.46-2.45,3.73,1.42,7.69,2.03-1.59.19-4.45-.24-6.41Z"/>
        <path class="cls-2" d="M127.6,564.46c.55-.59.26-3.74-1.32-3.55-.97.12-3.23,2.88-3.33,3.81-.22,2.01,4.29.13,4.65-.26Z"/>
        <path class="cls-2" d="M103.53,584.51c-.09.15-1.57.18-2.15.99-.98,1.38.81,4.58-3.5,4.7-.65-.23-2.19-.2-3.43-.63-3.93-1.36-7.74-3.59-11.12.78-.54.7-1.53,1.16-.97,2.3.32,1.45,1.08-1.48,1.18-1.55.09-.06,1.23.11,2.16-.35,3.06-1.51,2.69-3.42,3.74,1.07l1.05-1.92c.44,2.84,1.25.09,2.36.25.13.02.12.59,2.04.91,1.63.27,2.02,1.07,4.17.42.3-.09.91-1.32,1.25-1.13.42.24,0,1.92,1.2,1.22-.97-1.81,1.66-2,2.05-2.97.23-.56-1.9-2.09.19-3.35l3.85-.71-4.35-2.38c-.81.41.47,2.01.28,2.34Z"/>
        <path class="cls-2" d="M135.82,544.77c.3-4.39-5.21.56-2.66,1.99.56.31,2.58-.89,2.66-1.99Z"/>
        <path class="cls-2" d="M10.96,539.11c.55,1.77.65,4.67,2.99,4.81-.56-1.26-1.32-4.76-2.99-4.81Z"/>
        <path class="cls-2" d="M63.06,573.51c.42.23,1.85.99,1.93,1.06l.53-.96c-.89-.15-1.89.02-2.46-.1Z"/>
        <polygon class="cls-2" points="113.05 580.95 113.48 582.44 115.71 581.79 115.5 581.06 113.05 580.95"/>
        <path class="cls-2" d="M77.46,595.28c.07.04,1.67-.17,1.38-.8-1.76-1.7-2.48.17-1.38.8Z"/>
        <path class="cls-2" d="M99.13,510.38c-1.2.65-.18,1.38-.32,1.71l.32-1.71Z"/>
        <path class="cls-2" d="M44.15,583.84c-1.21-.23-1.86,1.05-1.28,1.16,1.21.23,1.86-1.05,1.28-1.16Z"/>
        <path class="cls-2" d="M48.37,567.62l-1.44-.79c-.79.21.99,1.74,1.44.79Z"/>
        <path class="cls-2" d="M1.32,500.14l-.75.22c.39.41.64.34.75-.22Z"/>
        <path class="cls-2" d="M341.1,694.79c.92.29,1.72.5,2.44.68-.76-.27-1.55-.5-2.44-.68Z"/>
        <path class="cls-2" d="M372.77,815.8c-2.07-1.15-1.43-4.72-1.64-6.93-.07-.77-.05-1.57-.16-2.33-1.96-.87-1.37-3.89-1.56-5.76-.13-.76-.01-1.58-.16-2.34-2.07-1.15-1.43-4.72-1.64-6.93-.07-.77-.05-1.57-.16-2.33-1.96-.87-1.37-3.89-1.56-5.76-.13-.76-.01-1.58-.16-2.34-2.07-1.15-1.43-4.72-1.64-6.93-.07-.77-.05-1.57-.16-2.33-1.96-.87-1.37-3.89-1.56-5.76-.13-.76-.01-1.58-.16-2.33-2.07-1.15-1.43-4.72-1.64-6.93-.07-.77-.05-1.57-.16-2.33-1.96-.87-1.37-3.89-1.56-5.76-.13-.76-.01-1.58-.16-2.33-2.07-1.15-1.43-4.72-1.64-6.93-.07-.77-.05-1.57-.16-2.34-1.96-.87-1.37-3.89-1.56-5.76-.13-.76-.01-1.58-.16-2.33-2.07-1.15-1.43-4.72-1.64-6.93-.07-.77-.05-1.57-.16-2.33-1.96-.87-1.37-3.89-1.56-5.76-.13-.76-.01-1.58-.16-2.34-2.11-1.16-1.38-4.72-1.64-6.93-.09-.77-.04-1.57-.16-2.33-1.38-5.98-4.65-4.41-8.73-7.62-.35-.11-.82.19-1.17.08-3.34-1.02-6.98-1.46-9.66-4.04-.35-.1-.81.17-1.17.08-6.28-1.56-4.99-1.51-5.13-6.51-.11-.78-.19-1.6-.18-2.51-.13-1.15-.03-2.38-.24-3.5l-2.49-2.18c-.67-.13-1.6.25-2.33.16-1.88.06-4.79,1.05-5.92-.77-.74-.07-1.59.23-2.33.16-1.88.06-4.79,1.05-5.92-.77-.39-.03-.78.11-1.17.08-1.88.06-4.79,1.05-5.92-.77-.76-.04-1.56.15-2.33.16-3.93.03-1.96-.71-2.65-4.51-.07-.38-.01-.79-.08-1.17l-1.41-3.42c-.2-.17-.8.21-1.17.08l-4.75-.85c-.75-.04-1.57.11-2.33.16-3.57,2.32-.29,10.72,2.01,12.17,4.77,3.02,20.69.77,22.22,1.59,1.12.6,1.39,8.93,5.7,12.98,5.22,4.91,7.7,3.73,13.55,4.61,10.31,1.54,4.01,6.08,4.09,11.84.03,1.88,5.85,12.69,7.03,13.81,2.66,2.53,9.04.25,10.15,6.52.68,3.82-3.91,5.6-4.51,8.28-.92,4.05.48,13.86,3.24,17.17,3.13,3.74,11.16,3.7,5.47,10.22-1.64,1.88-4.47,2.53-5.62,3.87-1.9,2.22-2.91,13.22-2.23,16.28.89,4.01,12.81,7.34,4.07,12.8-6.77,4.23-7.82,1.21-11.07,11.19-3.16,9.69-.11,5.84,1.88,10.87,4.01,10.18-5.54,7.2-9.75,8.53-4,1.26-10.17,8.79-10.67,12.83-.56,4.48,4.18,10.19-2.89,12.81-3.39,1.26-6.44-3.1-11.12-2.16-1.7.34-8.93,5.09-10.22,6.56-3.57,4.06-1.6,6.59-2.82,10.72-.42,1.43-3.83,2.9-1.48,3.65l1.17-.08.3-.34c.2-.3.44-.71.79-.91.15-.09.37-.06.58-.04l.58-.04.46-.52c.19-.27.39-.56.63-.72,22.16-14.57,47.1-26.62,69.63-40.82l9.01-10.26c-.11-.76-.02-1.58-.16-2.33Z"/>
        <path class="cls-2" d="M277.12,865.64c-2.03.15-12.4,3.28-13.67,4.4-1.74,1.54-1.28,10.83-7.67,10.82-3,0-4.23-5.81-4.7-6.16-.5-.37-11.31-1.82-12.28-1.79-7.53.27-12.36,9.56-15.59,9.15-2.81-.36-6.47-6.92-8.4-7.98-.56-.31-11.25-3.62-12.2-3.76-5.1-.75-5.89,2.94-9.56,3.42-5.53.72-4.24-6.26-6.53-10.04-2.63-4.33-13.54-11.03-18.57-7.04,16.33,15.57,33,31.16,48.94,47.11l11.91,2.71c15.12-8.33,30.14-16.9,45.2-25.35.31-.17.86.09,1.17-.08l1.09-1.25c.31-.17.86.09,1.17-.08l1.09-1.25c.31-.17.86.09,1.17-.08l1.09-1.25c.31-.17.86.09,1.17-.08l1.09-1.25c.31-.17.86.09,1.17-.08l1.09-1.25c.31-.17.86.09,1.17-.08l.92-1.05.17-.19c.15-.09.37-.06.58-.04.1.01.2.02.29.02l.29-.06c-5.24-2.71-5.04-7.96-11.57-7.47ZM235.1,892.93c-.55-.3-.2-2-.33-2.08-.88-.55-10.39.05-10.63-1.04-1.52-6.35,8.33-2.66,10.55-.12,1.3-4.53,5.32-.14,7.63.07,2.35.21,6.71-1.44,9.96-.08-3.81,4.36-12.13,5.98-17.18,3.26Z"/>
        <path class="cls-2" d="M150.64,740c-.05.39,2.65,7.06,2.85,7.4.64,1.07,4.02,2.72,4.82,5.27,1.19,3.81-.86,10.75-3.18,6.08-1.49-3.01-.39-6.7-2.65-8.93-1.17,6.42-3.86,16.97-11.73,17.23-.71.85,5.63,7.63,6.51,8.26,1.99,1.43,6.88,2.29,7.13,2.58.39.45-1.42,9.06-1.54,11.79-.07,1.53.35,3.13.31,4.67-2.65-.63-2.93-2.49-1.47-4.59-1.57.56-4.39-2.41-4.81-2.02-.15.14-.2,2.79-1.04,4.04-1.21,1.81-5.05,3.73-5.16,5.14-.38,4.77,14.74,6.1,15.38,6.7.74.69.43,9.51,3.12,10.25,1.46-7.62-.56-15.29-.23-22.73.5-11.59,5.3-26.13,10.3-36.6,3.32-6.95,7.09-12.32,11.65-18.38,4.73-6.29,13.47-16.86,19.74-21.76,2.76-2.16,8.01-3.17,10.66-6.07,2.46-2.7,1.95-6.29,4.01-8.58,3.45-3.83,14.23-2.91,12.75-11.83-.47-2.82-8.54-11.22-10.67-10.53-1.19.39-1.84,4.6-3.03,6.18-1.3,1.72-3.88,2.34-4.01,2.53-1.2,1.78,6.03,4.45,3.95,7.81-.22.36-6.38,3.82-7.24,4.2-6.4,2.81-7.14-2.22-11.56-4.47-9.22-4.69-5.35,2.94-7.53,7.51-1.14,2.39-8.41,7.96-11.15,9.5,1.3,3.01,8.72-2.03,10.49-.72-4.82,13.05-7.4,4.81-12.34,3.45-12.15-3.33-6.62,2.71-7.04,7.52-.45,5.2-4.4,6.67-6.7,9.63-1.28,1.64-1.54,4.83-3.08,6.1-1.89,1.54-7.26,1.26-7.5,3.37ZM170.25,726.35c3.5,1,.69,7.83-1.36,5.92,3.24-5.65-5.25-2.22,1.36-5.92ZM163,749.11l1.14-.08c.91,4.82-1.39,4.97-1.14.08Z"/>
        <path class="cls-2" d="M262.98,825.94c-3.65,1.32-6.96.88-9.06,1.44-.71.19-1.67-.05-2.33.16-1.16.36-3.38,2.82-6.76,3.46-2.1.4-3.87-.38-5.92-.25-2.27,2.62,6.92,8.32,7.4,9.18.57,1.03-.84,2.85.64,4.76.22.28,4.91,4.65,5.23,4.8,2.25,1.1,22.12-2.57,27.15-2.78,2.55-.1,6.98,1.82,8.18-.45.87-1.65-.05-4.89.6-7.17,1.34-4.7,4.61-9.65,6.08-14.47,3.81-12.51,6.67-37.89.26-49.33-2.2-3.92-8.19-10.76-13.11-10.77l1.86,27.44c.33,4.92-6.34,23.72-9.79,27.7-2.4,2.76-6.93,5.02-10.41,6.28Z"/>
        <path class="cls-2" d="M274.96,764.91c-15.44,3.3-33.49,2.97-48.58,6.04-5.85,1.19-10.7,2.19-13.53,7.95-2.61,5.34-6.54,20.32,1.71,21.82-1.51-4.7,2.17-8.25,5.27-11.39.69-.7,2.64-.6,3.02-1.15.71-1-.52-3.52,1.04-5.13.61-.62,14.13-6.41,15.91-6.99,4.12-1.34,12.61-3.37,16.81-4,7.31-1.09,15.37-.61,22.77-1.54.11-3.54-.35-6.1-4.42-5.62Z"/>
        <path class="cls-2" d="M209.06,805.81c4.43,4.82,5.45,13.89,13.23,14.4,6.52.43,6.65-1.75,10.9-3.78,1.75-.83,4.48-.47,5.83-1.5.4-.3,3.54-7.78,4.05-9.1.79-2.05,2.94-9,2.79-10.75,7.69-4.78.44,7.85-.45,10.59-.22.66.45,2.4-.02,3.78-3.31,9.71-13.28,19.48,6.12,16.92-2.58-2.61-.69-4.11-.4-5.84.5-2.95,1.98-9.56,3.37-11.89,1.83-3.06,6.6-3.6,5.89-8.03-.66-4.1-4.64-2.91-6.3-4.54-1.03-1.02-2.41-5.79-2.74-5.99-2.05-1.24-4.54,1.99-6.06,3.41-.2.14-.41.31-.65.51-10.01,5.81-23.93,14.16-35.56,11.81ZM252.25,802.85c-1.41.88-4.2-1.59-3.66-2.07,1.41-.88,4.2,1.59,3.66,2.07Z"/>
        <path class="cls-2" d="M251.11,820.53c-.02.59,0,1.07.09,1.51-.03-.5-.06-.98-.09-1.51Z"/>
        <path class="cls-2" d="M254.04,681.99c.57-1.47-5.76-10.94-6.67-11.32-2.4-1.02-2.63,6.4-5.79,6.47-.64,6.55,9.67,12.05,12.46,4.85Z"/>
        <path class="cls-2" d="M157.02,833.96c-1.79-1.6-3.54-2.94-6.08-3.11l.24,3.5c1.46-.26,2.49-.46,3.1-.16,0,.54.18,1.27.56,2.26-.55,1.73-.31,5.08-.69,7.08,2.48,2.15,5.13,5.39,7.56,7.7,2.73-5.87-.2-13.26-4.69-17.28Z"/>
        <path class="cls-2" d="M151.17,816.76c.28,3.06-.87,5.67-2.97,7.83l11.92,3.29c-.97-5.06-3.02-10.92-8.95-11.12Z"/>
        <path class="cls-2" d="M279.08,681.85c1.09-5.32-1.66-13.96-7.38-7.56,3.57,1.3,2.15,7.47,3,8.48.62.74,3.9,1.43,4.38-.91Z"/>
        <path class="cls-2" d="M240.63,787.24c-.41-.37-9.92,3.79-10.27,4.22-.26.32,1.34,4.41,1.55,4.54,1.99,1.26,11.69-4.4,8.72-8.75Z"/>
        <path class="cls-2" d="M172.1,848.74c.14-1.46-3.2-5.66-4.54-6.11-2.88-.97-1.56,6.25-1.1,6.91.69.99,5.41,1.57,5.64-.8Z"/>
        <path class="cls-2" d="M163.66,793.63l3.07-23.66c-1.76,1.19-2.17,5.95-2.63,8.13-.93,4.45-1.58,8.72-1.78,13.28-.25,5.95.21,10.38,1.12,16.34,2.06.13.92-2.72.88-4.14-.08-3.32-.55-6.64-.67-9.94Z"/>
        <path class="cls-2" d="M148.21,808.15c-.35-1.32-3.1.05-3.53-.33-.19-.18.24-2.37-.77-3.47-1.72-1.88-6.98-.26-5.78-6.64.55-.87,1-3.15,2.02-4.83,3.25-5.34,7.73-10.22,2.39-16.58-.85-1.02-1.22-2.61-3.07-2.15-2.23.01,1.83,2.05,1.9,2.23.06.15-.55,1.77-.17,3.28,1.25,4.97,4.17,5.04-2.77,5.14l2.48,2.15c-4.31-.26-.54,1.8-1.12,3.38-.07.18-.91,0-1.98,2.7-.91,2.3-2.21,2.62-1.94,6,.04.47,1.65,1.76,1.26,2.19-.49.53-2.82-.61-2.18,1.37,2.96-.84,2.41,3.07,3.7,3.95.75.51,3.67-2.13,4.86,1.35l-.18,5.88,4.88-5.63Z"/>
        <path class="cls-2" d="M190.68,863.35c-.64.73.48,4.08,2.07,4.53,6.35,1.83.83-7.83-2.07-4.53Z"/>
        <path class="cls-2" d="M240.83,686.36c-2.78.25-7.06-.53-8.01,2.87,2.02-.42,7.4-.42,8.01-2.87Z"/>
        <path class="cls-2" d="M267.98,671.62c-1.04-.15-2.76.48-3.5.23-4.95-1.69-4.69-4.79-11.75-.36,1.69,3.49,6.47,1.7,9.5,1.69,1,0,5.45,2.05,5.75-1.55Z"/>
        <path class="cls-2" d="M173.56,752.42c.06-.17.12-.34.17-.53-.48.54-2.04,2.4-2.18,2.49l1.25,1.09c.41-1.02.53-2.21.76-3.05Z"/>
        <polygon class="cls-2" points="144.8 826.57 145.94 826.49 146.88 822.93 144.55 823.08 144.8 826.57"/>
        <path class="cls-2" d="M137.17,766.11c-.08.09-.28,2.5.73,2.28,3.06-2.04.54-3.7-.73-2.28Z"/>
        <path class="cls-2" d="M252.51,823.96l2.41,1.01c-.58-1.97-1.96-.71-2.41-1.01Z"/>
        <path class="cls-2" d="M164.58,720.84c.73-1.7-.95-3.07-1.3-2.25-.73,1.7.95,3.07,1.3,2.25Z"/>
        <path class="cls-2" d="M187.05,732.2l1.62-1.86c-.06-1.23-2.87.89-1.62,1.86Z"/>
        <path class="cls-2" d="M301.04,683.44c-.73.44-.71.83.08,1.17l-.08-1.17Z"/>
      </g>
    </g>
  </g>
</svg>