<?xml version="1.0" encoding="UTF-8"?>
<svg id="_레이어_2" data-name="레이어 2" xmlns="http://www.w3.org/2000/svg" xmlns:xlink="http://www.w3.org/1999/xlink" viewBox="0 0 399 1000">
  <defs>
    <style>
      .cls-1 {
        fill: none;
      }

      .cls-2 {
        fill: #e6e7e8;
      }

      .cls-3 {
        clip-path: url(#clippath);
      }
    </style>
    <clipPath id="clippath">
      <rect class="cls-1" width="399" height="1000"/>
    </clipPath>
  </defs>
  <g id="Layer_1" data-name="Layer 1">
    <g class="cls-3">
      <g>
        <path class="cls-2" d="M284.9,163.43c14.39-6.76,29.72-16.28,43.8-24.09-1.83-.88-10-6.55-11.29-5.94.99,2.33,3.77,2.9,5.29,4.76l-6.06-3.42c-1.48-1.17-3-2.2-4.33-3.33-.93-.8-2.38-1.16-2.46-2.72.97-.46,2.09-.88,3.01-1.41,1.45-.83,2.88-1.75,4.44-2.38-.05-.99-.91-.1-1.16-.27-.29-.2.82-2.24-.72-1.46-9.69,5.84-20.14,10.41-29.83,16.22-4.71,2.06-2.81-1.95-3.31-3.87-.28-1.08-1.42-2.05-1.51-3.3l1.19.24c-.22-1.64-.05-3.83-.39-5.4-.3-1.38-.74-1.2-.98-1.6-1.38,1.96-2.77-.02-.67-.38-.23-.32-.22-1.13-.44-1.58-.23-.14-.85,1.2-1.28,1.49-1.23,1.79.29,1.98.59,2.94.26.83-.19,1.8-.18,2.62.01,1.33-.08,2.65-.05,3.98l-1.18-.24-.33,2.93c.53,4.01,1.08,8.02,1.64,12.02l-.09,1.73c.06.35.2.71.29,1.05.99-.82,1.11-3.56,2.28-4.04,1.56,2.7-1.15,3.83-1.55,6.67-.18,1.28.38,8.27.86,9.02.59.93,2.53.87,3.5.55-.09-1.29-.32-2.55-.5-3.83-.06-.45-.26-.92.23-1.2-.1-.53-.36-1.05-.44-1.58-.44-3.07-.62-6.29-.91-9.39-.12-1.33-.39-2.63-.5-3.83l.67.38c.04.87.26,2.23.35,3.31.28,3.22.68,6.71,1.05,9.92.1.84.6,1.77.73,2.63.17,1.1-.06,1.2-.09,1.73-.01.29.26.71.29,1.05ZM282.42,142.21c.07.2.14.47.22.86-.1-.25-.17-.56-.22-.86Z"/>
        <path class="cls-2" d="M341.51,132.38c.25-1.76-1-8.4-2.52-8.91-.61-.21-1.89.95-2.7,1.11-1.07.21-3.47-.74-3.59,1.33-.05.82.5,1.28.54,1.86,0,.1-.84.34-.76.56.48,1.44,3,5.14,4.07,6.57,1.63-.91,3.44-1.67,4.97-2.52Z"/>
        <path class="cls-2" d="M276.58,119.22c-.28-1.23-.68-2.47-1.02-3.69-.56-1.99-.88-4.87-2.28-6.17.02.18.12.35.15.53l-.23,1.2c.07.52.37,1.06.44,1.58.43,3.25,1.15,6.53,1.58,9.77l-.09,1.73c.1.52.29,1.07.44,1.58l.53-.15c1.74-2.84,1.15-3.47.5-6.38Z"/>
        <path class="cls-2" d="M276.7,133.94l.26-5.18c-.31.26-.59.56-.91.82.16,1.59.45,2.89.64,4.36Z"/>
        <path class="cls-2" d="M344.25,105.52l1.86.61c-.6,1.19-2.3,1.31-2.64,1.8-.35.5-.71,2.61-.29,3.02.9.87,9.5,2.53,11.37,3.06,2.02.58,5.98,1.33,7.49,2.46.97.05,1.96.19,2.93.32l-.62,1.87-.51.14c-.28-1.06-.95-1.71-1.79-2.34l-7.05-.88c2.96,1.37,6.81,3.44,10.04,3.45,1.83-1.03,3.56-2.15,5.35-3.19.53-.31,1.88-.15,2.03-.85-2.2-1.46-4.56-2.71-6.8-4.07-1.06.2-2.02.43-2.4,1.52.12.45,2.78,1.3,3.28,1.64l.15.53-.23,1.2c-2.62-1.31-10.52-3.08-14.51-4.03-.08,0-.16-.03-.24-.05.04,0,.08.01.12.02-.26-.06-.5-.12-.72-.18-2.14-.53-5.12-.45-7.27-1.67,1.98-1.04,4.32,1.24,6.45.76.27.21.59.82.82.91.2.07,1.81.23,2.13-.13,0,0,0,0,0,0,.04-.05.06-.11.05-.19-.95-.61-2.14-.67-3.14-1.11-.23-.1-.44-.27-.67-.38-.63-.29-1.38-.39-1.94-.88-.16-.52.71-.36.98-.55l1.2.23c.08-.4.16-.8.23-1.2.31-.14.72-.17,1.05-.29.23-.09.59-.86.86-.76.09.03.73.78,1.54,1.23,1.49.83,1.56.8,2.84,2.05-.85.15-2.54-1.51-2.69-1.52-.35-.03-2.34.49-2.56.99,1.91,1.17,4.07,1.53,6.22,1.96.13.03.38.57.77.63.7.1,2.19-.62,3.27-.33-3.23-2.18-6.87-3.95-10.16-5.98-2.07-1.27-4.12-2.69-6.2-3.95-1.7-1.02-3.79-3.06-5.91-2.89l5.53,3.56c.48,1.56.4,1.61-.18,3.45Z"/>
        <path class="cls-2" d="M343.09,121.73c.8,2.52,1.36,4.69,1.59,7.35.1,1.08.23.62,1.12.4-.79-1.41-.46-3.26-.82-4.59-.15-.53-1.15-3.21-1.89-3.16Z"/>
        <path class="cls-2" d="M277.4,120.42c.08.25.19.46.34.57.12.09.27.12.47.04-.34-1.84-.69-3.54-1.46-5.27-.7.8.06,2.33.35,3.31.09.3.15.89.29,1.34Z"/>
        <path class="cls-2" d="M312.34,128.46l.03.11c.17-.16.21-.28.15-.38-.05-.06-.13-.12-.29-.15l.12.42Z"/>
        <path class="cls-2" d="M275,61.86c4.39,2.19,8.21,5.03,11.44,8.51,1.36.45,2.05-.18,1.16-1.3.33.4.5.36.53-.15,1.2,3.26,5.83,7.62,9,9.3l1.45-.29c3.44-.34-1.88-4.31-3.57-4.68l-.15-.53c2.33.35,3.64,2.89,5.91,2.9h0c.38.95,1.11,1.62,1.78,2.34.19.43.08.66-.38.67-.35-.24-.75-.42-.83-.9l-.75,1.34c4.99,3.7,10.41,7.79,15.68,11.53.51.36,1.05.55,1.35.76.3.21.52.7.82.91l1.29-1.49c-.3-.23-.52-.67-.82-.91-.98-.75-2.19-1.13-2.69-1.52-.16-.12-.35-.81-.85-1.2-3.19-2.49-6.41-4.94-9.51-7.55l2.23-.04c-2.21-1.45-4.56-2.69-6.79-4.07h0c-1.6-2.6-3.84-4.01-6.88-4.33.31-.68-.34-1.57-1.24-2.28.18-.15.31-.42.36-.88-.28-.17-.53-.73-.82-.91-.46-.04-.76.03-.95.15.02-.3-.09-.64-.4-.91-8.5-5.08-17.06-10.17-25.71-14.98.92,9.51,2.68,18.94,3.92,28.41.14,1.06.21,2.19.35,3.31.47,3.33,3.37.11,1.81-1.64.84-.62.69-1.56.12-2.01.15-.49.08-1.31-.24-2.49l1.15-.53c.37-4.94,1.11-9.78,2.22-14.53ZM291.44,67.87s.05-.05.08-.07c0,.04.02.07.03.11-.04-.01-.07-.03-.11-.04Z"/>
        <path class="cls-2" d="M276.02,72.3l.27,5.03.67.38c-.22-1.78-.59-3.65-.94-5.41Z"/>
        <path class="cls-2" d="M66.6,486.57c.08-.02.16-.03.23-.05,2.17-.36,3.02,3.86,4.7,5.5,1.32,1.28,3.74,1.67,4.93,3.35l-1.87.67c1.7,2.13,3.33,5.34,5.12,7.25,1.59,1.69,2.07,1.06,2.73,1.42.28-3.93,3.91-2.32,1.27-.04.6.26,1.26,1.4,1.96,1.84.45,0,.18-2.41.54-3.18.22-3.55-2.09-2.53-3.33-3.63-1.06-.95-1.26-2.68-1.96-3.83-1.15-1.86-2.14-3.79-3.3-5.62l1.85-.66-2.03-4.39c-4.14-5.18-8.31-10.34-12.5-15.49l-1.34-2.5c-.39-.44-.88-.82-1.3-1.23-.69,1.99,1.45,5.94.22,7.6-4.49-2.47-1.64-6.34-3.48-10.68-.83-1.96-7.54-11.28-8.86-11.93-1.62-.8-4.29.93-5.38,2.2,1.22,1.74,2.61,3.32,3.95,4.96.47.58,1.14,1.07.69,1.88.58.66,1.41,1.17,1.96,1.85,3.22,3.94,6.21,8.31,9.24,12.41,1.3,1.76,2.77,3.36,3.95,4.96l-1.27.04c-.79-1.19-2.26-2.92-3.3-4.34-3.12-4.29-6.64-8.84-9.89-13.03-.85-1.1-2.35-1.98-3.26-3.08-1.16-1.4-.93-1.74-1.34-2.5-.22-.42-.97-.78-1.3-1.23-14.46,21.69-27.91,48.05-41.05,70.95,3.32-.31,19.59.72,20.89-1.24-3.36-2.43-7.75-.88-11.47-2.2l11.4-.34c3.07.39,6.07.54,8.91,1.01,1.98.33,4.33-.4,5.75,1.73-.98,1.47-2.18,3.01-3.03,4.53-1.34,2.39-2.56,4.9-4.22,7.1.9,1.35,1.36-.64,1.86-.6.58.04.75,3.83,2.25,1.44,8.65-16.41,19.43-31.69,28.11-48.07,1.23-1.75,2.2-2.58,3-2.82ZM65.69,482.76c-.18-.15-.38-.34-.63-.59-.13-.14-.26-.28-.41-.43.36.26.71.64,1.04,1.01Z"/>
        <path class="cls-2" d="M2.16,557.04c1.03-.23,1.85-2.94,2.86-3.85,1.33-1.2,5.5-1.9,3.92-4.92-.63-1.2-1.79-1.38-2.33-2.15-.1-.14.89-1.18.6-1.43-1.89-1.62-8.57-4.68-11.28-5.77-1.52,2.66-3.42,5.26-4.85,7.75,1.14,2.69,8.52,10.94,11.09,10.38Z"/>
        <path class="cls-2" d="M93.37,510.08c1.43,1.5,3.05,2.89,4.56,4.31,2.47,2.32,5.36,6.1,8.44,6.73-.18-.23-.47-.38-.65-.62l-.69-1.88c-.54-.68-1.41-1.17-1.96-1.85-3.36-4.2-7.15-8.19-10.51-12.38l-1.34-2.5c-.58-.65-1.31-1.25-1.96-1.85l-.62.65c-.03,5.46,1.33,5.84,4.71,9.37Z"/>
        <path class="cls-2" d="M84.75,497.01c.22-.63.36-1.29.58-1.92-1.3-1.72-2.55-3.11-3.8-4.61-.25-.32-.52-.65-.8-.96l4.02,7.49Z"/>
        <path class="cls-2" d="M10.01,586.7l-3.13.72c-.17-2.18,2.12-3.79,2.18-4.76.06-1-1.22-4.27-2.15-4.48-2-.46-15.48,4.51-18.56,5.35-3.32.9-9.53,3.21-12.6,2.9-1.41.76-2.91,1.4-4.38,2.03l-.71-3.15.6-.64c1.29,1.25,2.79,1.59,4.49,1.76l10.64-4.75c-5.31.59-12.49.94-17.01,3.67-1.7,3-3.18,6.04-4.81,9.02-.49.89-2.51,1.8-2.14,2.91,4.32.18,8.7-.06,13-.06,1.32-1.18,2.48-2.31,2.09-4.17-.55-.52-5,.54-6,.48l-.65-.62-.69-1.88c4.8-.39,17.37-4.6,23.8-6.64.12-.05.25-.09.38-.14-.06.02-.12.05-.18.07.41-.13.8-.25,1.16-.36,3.45-1.07,7.56-3.7,11.62-3.82-1.9,3.15-7.12,1.93-9.7,4.4-.56-.06-1.53-.65-1.92-.58-.34.06-2.73,1.22-2.88,1.99,0,0,0,0,0,0-.02.11,0,.21.09.3,1.86.05,3.57-.86,5.36-1.1.41-.05.85.01,1.27-.04,1.14-.13,2.27-.62,3.48-.41.67.59-.7,1.11-.9,1.61l-1.88.69c.23.63.45,1.26.69,1.88-.31.46-.87.84-1.23,1.3-.24.31-.1,1.7-.56,1.8-.16.03-1.69-.48-3.21-.42-2.8.11-2.87.2-5.72-.47,1.07-.94,4.84-.04,5.07-.15.51-.25,2.87-2.67,2.75-3.56-3.67-.02-7.02,1.3-10.39,2.52-.2.07-1.01-.48-1.62-.23-1.07.44-2.56,2.72-4.31,3.24,6.39.33,12.99-.27,19.33-.23,3.99.03,8.07.29,12.06.28,3.25,0,7.91,1.08,10.75-.95l-10.78-.31c-2-1.79-1.92-1.93-2.67-5Z"/>
        <path class="cls-2" d="M91.21,509.09c-.33-.29-.66-.48-.97-.51-.25-.02-.49.06-.7.34,2.04,2.29,3.98,4.39,6.51,6.16.31-1.71-2.06-3.23-3.3-4.34-.39-.35-.96-1.12-1.55-1.64Z"/>
        <path class="cls-2" d="M35.87,527.92l-.52-.49-.13-.13c-.11.37-.06.58.11.65.12.05.29.05.54-.04Z"/>
        <path class="cls-2" d="M136.66,559.55c-1.09-1.37-2.15-2.9-3.3-4.34-3.48-4.27-4.82,2.7-1.16,3.84-.65,1.57.34,2.75,1.5,2.92.21.82,1.03,1.92,2.48,3.3l-1.17,1.72c3.67,7.24,6.74,14.67,9.21,22.28-8.03.65-15.79-.1-23.28-2.25-2.29.52-2.73,1.99-.53,2.8-.8-.28-1.01-.07-.61.65-4.45-3.56-14.64-5.76-20.52-5.42l-1.79,1.63c-4.53,3.4,6.29,4.45,8.98,3.54l.65.62c-3.57,1.48-7.56-.98-10.75.95,0,0,0,0,0,0-1.34-1-2.93-1.33-4.49-1.77-.64-.44-.67-.87-.04-1.27.69.05,1.41-.04,1.93.57l-.08-2.52c-10.14-.96-21.22-2.11-31.79-2.88-1.03-.08-1.93.12-2.53.07-.6-.04-1.32-.54-1.92-.58l-.54,3.19c.62.07,1.3.51,1.92.58,2.01.22,4.04-.27,5.07-.15.32.04,1.18.84,2.22.97,6.59.79,13.19,1.5,19.76,2.54l-3.1,1.95c4.33.16,8.68-.1,12.99-.04h0c4.46,2.29,8.79,2.38,13.32.25.14,1.21,1.79,1.91,3.65,2.15-.12.36-.06.86.27,1.54.54,0,1.36.58,1.92.58.65-.32,1.02-.65,1.2-.97.23.43.69.78,1.33.9,16.24-.09,32.56-.19,48.8-.78-9.36-12.57-19.83-24.31-29.59-36.56ZM115.89,594.8c.05,0,.1-.02.15-.03-.02.04-.04.09-.05.13-.03-.04-.06-.07-.1-.11Z"/>
        <path class="cls-2" d="M129.32,568.64l-1.27.04c1.81,2.31,3.92,4.62,5.91,6.79l-4.64-6.83Z"/>
        <path class="cls-2" d="M239.68,826.45c2.27-.77-.39-2.19-.15-2.89.28-.81,5.77.4,2.93-2.66-20.14-18.67-37.84-39.95-57.91-58.64-2.02-2.44-2.84-4.14-2.88-5.37,0-.12.02-.24.01-.35.32-3.24,6.68-2.83,9.67-4.61,2.34-1.39,3.82-4.7,6.68-5.75l.23,2.93c3.69-1.61,8.9-2.71,12.32-4.54,3.03-1.62,2.31-2.54,3.07-3.36-5.5-1.91-1.81-6.48.43-1.83.59-.75,2.49-1.26,3.38-2.1.18-.64-3.37-1.18-4.34-1.99-5-1.68-4.41,2.01-6.46,3.36-1.76,1.16-4.31.77-6.22,1.34-3.1.92-6.23,1.6-9.31,2.56l-.24-2.9-7.06,1.21c-8.99,3.93-17.97,7.91-26.94,11.92l-4.08.96c-.78.38-1.51.94-2.26,1.39,2.58,1.75,9.05.2,10.95,2.6-5.25,5.46-9.7-.09-16.6.88-3.12.44-19.02,6.45-20.46,8.08-1.76,2-.32,6.49,1.08,8.53,2.95-1.07,5.74-2.46,8.6-3.74,1.02-.45,1.97-1.22,2.96-.26,1.17-.58,2.21-1.56,3.39-2.09,6.87-3.09,14.26-5.68,21.29-8.44,3.02-1.19,5.87-2.67,8.6-3.74l-.43,1.83c-2,.67-5.03,2.11-7.47,3.04-7.33,2.82-15.18,6.1-22.42,9.13-1.89.79-3.73,2.6-5.65,3.48-2.45,1.13-2.85.67-4.08.96-.68.16-1.48,1.09-2.26,1.39,25.45,29,57.95,58.35,85.64,85.92.83-4.86,8.56-27.73,6.25-30.33-4.77,3.87-4.23,10.74-7.54,15.55l3.89-16.42c1.73-4.24,3.1-8.47,4.86-12.34,1.23-2.71,1.09-6.34,4.68-7.56,1.72,1.96,3.46,4.27,5.32,6.08,2.91,2.83,6.02,5.54,8.53,8.76ZM175.87,756.73c-.28.2-.63.42-1.09.68-.25.14-.5.27-.76.42.51-.41,1.19-.76,1.85-1.1Z"/>
        <path class="cls-2" d="M257.65,876.05c.07-1.56-3.49-3.77-4.41-5.56-1.21-2.36-.61-8.58-5.53-7.49-1.96.44-2.66,2.03-3.97,2.51-.23.09-1.35-1.72-1.82-1.4-3.04,2.08-9.98,10.45-12.58,13.9,3.21,3.19,6.2,6.91,9.22,9.9,4.28-.59,18.91-7.98,19.09-11.86Z"/>
        <path class="cls-2" d="M225.55,727.65c2.69-1.47,5.3-3.25,7.91-4.87,4.26-2.65,10.78-5.32,12.86-9.48-.4.18-.73.52-1.13.7l-2.96.26c-1.17.51-2.21,1.57-3.39,2.09-7.29,3.19-14.45,7.07-21.72,10.26l-4.08.96c-1.16.58-2.29,1.39-3.39,2.09l.7,1.13c7.79,2.15,8.86.34,15.21-3.13Z"/>
        <path class="cls-2" d="M203.56,734.96c-.81-.56-1.7-1.01-2.52-1.56-2.93,1.18-5.37,2.43-7.96,3.63-.59.25-1.18.51-1.78.8l12.25-2.87Z"/>
        <path class="cls-2" d="M248.4,893.1c-2.44.95-1.29.94-.19,2.89,2.76-2.8,7.29-3.26,10.15-5.01,1.15-.7,6.71-4.84,6.1-6.54-5.33,3.57-10.03,6.33-16.06,8.66Z"/>
        <path class="cls-2" d="M311.21,874.32c-3.33,2.17-3.5,2.01-8.17,1.9l-.17,4.76c-3.18-.59-4.6-4.49-5.97-4.94-1.41-.47-6.57.1-7.23,1.35-1.43,2.68.51,23.86.51,28.58,0,5.09.92,14.85-.69,19.12.55,2.3.89,4.7,1.22,7.04l-4.78-.19-.68-1.1c2.28-1.36,3.35-3.37,4.24-5.75l-2.7-17.03c-1.19,7.82-3.45,18.21-1.29,25.73,3.64,3.58,7.41,6.86,11.04,10.34,1.08,1.04,1.61,4.27,3.34,4.17,1.92-6.11,3.26-12.45,4.91-18.6-1.18-2.33-2.35-4.43-5.16-4.58-.96.59-1.15,7.35-1.62,8.76l-1.13.7-2.95.26c1.29-7,.1-26.6-.36-36.56-.03-.19-.04-.4-.05-.6.01.09.02.19.04.29-.03-.57-.05-1.09-.07-1.59.08.95.77,4.21,1.73,4.67,0,0,0,0,.01,0,.15.07.3.07.46-.02.78-2.64.14-5.43.48-8.08.08-.61.34-1.21.43-1.83.25-1.67-.01-3.48.75-5.13,1.11-.74,1.32,1.42,1.95,1.91l.26,2.96c.99-.09,1.97-.17,2.96-.26.54.61.87,1.57,1.39,2.26.35.47,2.4.79,2.36,1.49-.01.24-1.34,2.22-1.84,4.42-.92,4.04-.82,4.18-2.87,8-.93-1.88,1.81-6.93,1.74-7.3-.16-.83-2.71-5.13-4.03-5.3-1.43,5.24-.84,10.53-.39,15.82.03.31-1.08,1.26-.95,2.23.23,1.7,2.91,4.7,2.97,7.41,2.92-9.01,4.6-18.67,7.1-27.71,1.57-5.69,3.51-11.43,5.03-17.12,1.25-4.65,4.58-10.89,2.76-15.72l-4.59,15.29ZM293.49,896.15c-.21-5.35-2.39-12.23-1-18.08,3.77,3.92.02,10.91,2.56,15.55-.3.77-1.52,1.94-1.56,2.52Z"/>
        <path class="cls-2" d="M226.25,728.78c-.65.42-1.97.94-2.94,1.58-.54.35-.94.75-1.1,1.19-.13.35-.1.72.22,1.13,4.05-2.04,7.8-4.01,11.3-6.94-2.33-1.1-5.4,1.7-7.47,3.04Z"/>
        <path class="cls-2" d="M228.07,817.24l-.23.14c.49.3.8.3.98.09.12-.15.19-.39.15-.78l-.9.55Z"/>
        <path class="cls-2" d="M312.88,684.77c-2.37,1.03-4.98,1.96-7.47,3.04-7.44,3.34,2.01,7.93,5.04,3.13,1.99,1.54,4.06.57,4.75-1.03,1.25.02,3.14-.74,5.67-2.28l2.01,2.33c11.77-2.47,23.56-4.01,35.38-4.61-2.15,11.72-6.21,22.53-12.15,32.42-.13,3.48,1.79,4.67,3.81,1.83-.71,1.03-.49,1.42.7,1.13-6.8,4.99-13.85,18.71-15.62,27.24l1.64,3.18c3.11,7.79,8.78-7.28,8.51-11.48l1.13-.7c.74,5.67-4.3,10.44-2.78,15.73,0,0,0,0,0,0-1.95,1.53-3.02,3.68-4.26,5.74-.88.74-1.5.62-1.83-.43.33-.97.48-2.03,1.55-2.54l-3.63-.85c-5.27,14.13-11.16,29.53-16.32,44.33-.5,1.44-.57,2.81-.87,3.65-.29.84-1.28,1.68-1.56,2.52l4.35,2c.33-.86,1.23-1.66,1.56-2.52,1.09-2.79,1.17-5.88,1.74-7.3.18-.45,1.66-1.37,2.23-2.8,3.67-9.12,7.21-18.28,11.21-27.26l1.6,5.18c1.9-6.13,3.2-12.45,4.93-18.59h0c4.98-5.49,6.78-11.65,5.47-18.95,1.79.27,3.42-1.83,4.47-4.39.47.31,1.21.42,2.31.21.2-.77,1.35-1.73,1.56-2.52-.21-1.05-.54-1.71-.92-2.09.7-.17,1.37-.68,1.79-1.56,6.11-23.25,12.23-46.61,17.62-70.04-21.56,8.55-42.37,19-63.61,28.26ZM355.3,727.99c0-.07.01-.14.02-.21.05.04.11.08.16.12-.06.03-.12.06-.18.1Z"/>
        <path class="cls-2" d="M322.62,700.58c4-1.71,8.11-3.83,11.98-5.84l-11.55,4.01-.43,1.83Z"/>
      </g>
    </g>
  </g>
</svg>