<?xml version="1.0" encoding="UTF-8"?>
<svg id="_레이어_2" data-name="레이어 2" xmlns="http://www.w3.org/2000/svg" xmlns:xlink="http://www.w3.org/1999/xlink" viewBox="0 0 399 1000">
  <defs>
    <style>
      .cls-1 {
        fill: none;
      }

      .cls-2 {
        fill: #e6e7e8;
      }

      .cls-3 {
        clip-path: url(#clippath);
      }
    </style>
    <clipPath id="clippath">
      <rect class="cls-1" width="399" height="1000"/>
    </clipPath>
  </defs>
  <g id="Layer_1" data-name="Layer 1">
    <g class="cls-3">
      <g>
        <path class="cls-2" d="M285.17,134.71s-.06.02-.07.03c0,0,0,.05.04.1,0,0,0-.01,0-.02l.03-.11Z"/>
        <path class="cls-2" d="M250.95,156.44c.83-.17,1.06.27,1.11.26,1.05-.12,2.75.2,3.29-.8,4.43,2.58,10.23,8.76,14.31,12.36,1.51,1.33,2.82,2.97,4.5,4.14.72-.65.43-2.06.63-2.84.15-.16.21-.31.21-.46.5-.79,1.45-1.21-.45-2.87.92-.09,1.96-.22,2.14-1.28.02-.12,0-.45-.04-.56,1.36-3.43,3.06-7.24,3.67-10.88.13-.76.47-1.09.47-1.15,0-.17,0-.39-.04-.56-.11-.51-2.4-3.88-1.99-4.32,3.97-.58,3.5-1.1,3.61-4.18.12-3.22.86-4.03,2.29-6.87-.24-2.11,1.5-3.68,1.82-5.72.16.1.74-.08,1.16.19.13.08.96,2.13,2.05,1.8,1.24-1.15,1.76-5.89-.4-5.35-.5.13-.86.97-1.19,1.01-.03,0-.07,0-.1,0-.03-.01-.07-.12-.12-.25-.21-.51-.69-1.61-2.23-1.25-.12-.21.01-.79-.08-1.11-1.08-.76-1.92-1.24-2.42-2.61,1.69-.73,2.41-.45,3.89-.29l2.43,2.62c.39-.47.88-1.78.39-2.26.04.09.8.91,1.23,1.59,2.51,3.89,2.45.77,1.63-1.97-.04-.13-.08-.25-.12-.38l.37.15.78.33c3.77,2.93,6.51.97,10.68.9-1.11-1.7-2.51.07-2.43-2.62l.56-.04c.79.26,1.52.68,2.3.95.23.43.22.91.59,1.26.14.13.34.25.64.33.57.05,1.51.62,2.03.97-.12-1.71-1.87-4.23-2.95-5.93-.16-1.09-1.29-2.39.12-2.25,1.99.19,4.03,2.33,6.63,2.87,3.22.67,5.68-.33,8.53,2.17-.78-.84-.72-3.08-.79-3.29-.04-.1-1.06-.32-1.06-.74,0-.49,1.12-1.09.9-1.47-.07-.11-1.43-.62-2.2-1.37-.05-.06-.1-.11-.14-.14-2.17-2.49-.66-2.29-4.73-3.57-.85-.27-2.58-.73-3.42-.87-1.68-.27-2.83.26-3.33.24,3.5,2.97-1.13,3.72-3.61,4.17-.75.14-1.74-.39-2.44-.21-2.35.6-4.43,2.73-6.84,3.13-.16,1.56,1.05,1.22,1.79,1.54.19.08.41.5.6.52l.04.56c.26.91-.33,1.27-.99,1.75-.15.06-.37-.01-.56.04-1.82.49-2.62.71-4.49-.23-.35-1.29-.89-6.19-.56-7.42.17-.63,1.07-.3,1.43-.65.97-.97,1.6-2.67,2.21-3.33.21-.22.76-.4,1.07-.64,1.06,1.32,3.31.36,5.04.19.37-.04.74-.04,1.11-.08.18-.02.43-.02.72-.02,1.04,0,2.54.05,2.58-.78-1.66.33-3.45-.23-5.04-.2-1.34.03-2.62-.22-3.89.28l-.68-1.63c.97-.23,3.44-.44,3.85-.84.3-.29-.81-.38,1.03-1.19.85-.38,1.81-.62,2.74-.76.2-1.23-.38-1.05-1.23-1.58-1.26.09-3.15.17-4.45.32-.09.01-1.55.62-1.63.68l-2.3-.95c2.51-1.06,2.7-.14,3.89-.28,8.41-1.02,8.89-1.41,16.92,2.12,2.2.97,5.08,2.81,7.55,3.92.4.18.71.56,1.75.99.25.1.32.23.22.38.3.32.87.7,1.51,1.07,1.21.3,2.56.77,3,1.38.02,0,.05,0,.06,0,.46-.18,1.55-1.22.89-1.58.49-1.01.16-1.3-.6-.52.54-1.51-.64-2.87-1.79-1.55,0,0,0,0,0,0l-.24-3.33c-1.03-.69-2.17-1.37-3.46-1.42h0c.82-.77,1.5-1.56,2.06-2.39h0c1.66.11,3.47,1.65,4.13,3.05.52-.81.32-1.92,1.55-1.79.21.16.4.35.6.52.86.72,1.7,1.42,2.9,1.46.02-.31.38-.78.47-1.15-.73-.13-1.54-.28-2.26-.39-.25-1.05-1.33-.75-1.75-.99-.2-.11-.37-.37-.6-.52h0c.09-.29.02-.6-.13-.84,1.05,1.12,3.23,1.81,4.06,1.11-.33.75-.09,1.31.68,1.63.67,1.8,2.53,1.91,5.57.33,1.9,1.29,3.02,1.15,3.36-.42.13-.07.21-.13.27-.2.28.5.25,1.3-.11,2.42h0s0,0,0,0c-.25-.46-.43-.46-.56.04-.26-.47-.45-.47-.56.04-1.06-.7-2.08-.34-3.06,1.08-1.89-.16-2.86.37-2.89,1.59-3.61-.1-1.29,2.46,1.19,1.03.64.58,1.63.4,2.22-.16.37,0,.74-.07,1.11-.08.3.45.49.46.56-.04h0c.02.09.04.16.06.24.39.2.64.52.75.99.38,0,.86-.34,1.46-.84.37.88,1.3.81,2.78-.2,1.02,1.7,6.16,1.47,6.67-.49,2,.61,2.67-.67,3.17-2.47h.71c-1,.25.59,2.58,1.68,2.06.3-.19.6-.33.9-.44.71-.58,2.73-.12,2.01,1.9,1.17.65,3.13.79,3.49,1.22.21.25,2,5.48,2.05,6,.11,1.15-.41,1.63-.92,2.51h0c-.13.22-.9.46-1.04.91l.57.24c.7-.23,1.14-.5,1.63-.68h0c.97-.35,2.27-.51,3.29-.8l-.08-1.11c-7.49-16.48-13.18-33.76-20.19-50.46-13.78-5.24-28.07-9.05-42.04-13.71l-5.55.4c-.61-2.47,2.49-.08,3.25-1.35-1.38-.48-3.23-.45-4.05-1.94l-1.11.08c-13.64,15.62-28.84,29.95-43.08,45.05,1.08,1.19-.72,2.63,1.27,2.14.39-.26,1.59-.52,2.18-.72.39-.05.74-.07,1.09-.09.11.04.22.1.32.17.67.47,1.02,1.43,1.26,1.42.47-.01,2.01-1.1,2.4-.75.16.14.89,2.94,2.47,3.17.1.3.6.67.59.79-.11.97-1.98.76-2.54,1.17-.34.25-.36,1.21-.82,1.63-.68.62-1.88.59-1.95.67-.36.43,2.47,5.28,3.23,5.9.43.35,1.21.69,1.75.99l-2.7,1.31c1.5.71,3.21.93,4.61,1.9-.34,1.42-1.47,2.4-2.07,3.68-1.06,2.22-1.52,6.04-4.75,6.32-.99.09-6.65-5.21-8.49-5.53-1.53-2.37-3.59-4.26-5.49-6.3-.73-.79-1.37-3.87-2.86-.91.74.75,1.66,1.99,2.43,2.62.23,0,.35.09.43.2.08.12.11.25.17.32,1.47,1.85,3.27,3.13,4.81,4.68.77.77,4.96,4.9,5.14,5.23,1.3,2.33-1.19,4.09-2.02,5.51-4.17,7.08-8.37,14.14-12.51,21.24-.46.79-1.03,1.54-1.5,2.34-.84,1.43-2.59,2.8-2.45,4.65.4.42,9.58-3.67,10.9-3.93ZM287.32,127.87s.04,0,.07,0c.02.05,0,.07.02.11-.03-.04-.06-.08-.09-.12ZM273.56,114.35c.98-.22,1.95-.11,2.3.94-.43.09-2.12-.28-2.26-.4-.08-.07,0-.37-.04-.54ZM272.96,136.75c.01,1.25-3.17,2.48-3.26,1.07-.06-.85,2.45-1.17,3.26-1.07ZM267.69,95.22c-.13-.14-.6-.07-.64-.79-.03-.65.42-.7.52-.88.49-.89,1.6-1.2,1.51-2.34,1.27.51-.12,2.26,2.34,1.51-.02.73-1.04,1.12-1.23,1.74-.19.63.8,1.62-.2,1.71-.48-.23-1.34-.24-1.71-.43l-.6-.52ZM298.6,59.45l.08,1.11-2.22.16c-.7-.25,1.81-1.55,2.14-1.27ZM298.4,56.67l-1.02,1.19c-.24-1.15-.15-1.26,1.02-1.19ZM289.81,76.85c-1.39,1.04-2.14,2.68-3.09,3.58-1.6,1.51-2.26,1.7-4.36,1.44-.61-.08-1.13-.26-1.7-.43.05.35,0,1.06.08,1.11,3,3.67-.89,4.66-4.12,4.77l2.09-1.83-1.7-.43c.48-1.93,2.41-.5,3.85-.84l-2.3-.95c-.44-1.19.66-1.27.99-1.75,1.29-1.86,1.68-1.77,3.13-3.02-.03,1.51.91,1.62,2.82.35.19-.02.41,0,.56-.04.31-.1.56-.21.52-.6,1.04-1.12,2.19-2.11,3.41-3.04.6-.24.23,1.35-.16,1.68ZM281.44,76.9c.17-.39.97.26.62,1.07-.17.39-.97-.26-.62-1.07ZM277.7,125.21c-.39-.17.26-.97,1.07-.63.39.17-.26.97-1.07.63ZM280.7,112.71c-.38-.38,1.07-2.37,1.22-2.32,2.09.66-1.08,2.46-1.22,2.32ZM282.98,98.02c-1.97-.34-3.94-.44-5.92-.7-.97-.13-1.61.73-1.46-.99,2.75.45,5.72.49,8.45,1.06.54.11,3.42.97,2.9,1.46-1.33.19-2.81-.62-3.97-.82ZM292.17,109.08l-6.71-.07c1.01-1.74,4.16-.69,6.07-1,.18-.03.37-.01.56-.04.69.57.1.9.08,1.11ZM291.6,101.3c-.5.54-2.67-1.01-2.38-2.06.75.43,3.19,1.18,2.38,2.06ZM296.56,89.16c-.04-.15-.04-.3-.01-.45.04.16.05.31.01.45ZM314.6,105.96c-.09-.05-.2-.11-.32-.18-.02-.01-.03-.07-.05-.15.12.1.24.21.37.33ZM314.96,106.09c.08-.05.17-.1.27-.13-.04.1-.12.15-.27.13ZM324.9,98.31c.31,1.06,1.63,1.06,2.34,1.5-.03.37.12.74.37,1.08-.25-.2-.57-.24-.84.07-4.46-2.6-7.86-3.37-13.07-2.95-.24.84,2.6,1.92,1.87,2.65-1.01,1-1.9-.89-2.01-.89-.27,0-.66.56-.8.54-3.44-.36-14.4-2.13-16.25-5-.46-.71-1.17-2.96-1.15-3.79,1.98,1.86,3.83,1.27,6.28,1.78,2.17-.03,4.64-3.16,6.2-4.76.23-.24,1.58-.55.62-1.32-.65-.51-10.54,4.44-11.65.89,0-.01-.01-.02-.02-.04l.07-.03,3.18-1.33c-.11.03-.29.06-.48.09-.16.02-.34.05-.53.07.31-.07.64-.13,1.01-.16,4.61-1.31,6.83-3.71,10.79-5.26.89-2.31,2.58-2.05,4.28-1.72.19,0,.38.02.58.06.2.03.4.07.62.15,1.5.19,3.04.51,4.53.79.37.08.61.29.72.62,1.22.89,2.94,1.42,4.55,1.57l-.03.78h0c-.73.23-1.45.49-2.18.72-.37-.82-1.52-1.92-2.15-2.63l-.67,2.28c.07,1.79-.1,2.82-.23,4.49-.11,1.31-.38,2.61-.27,3.93l.04.56c-1.52-1.3-2.32-5.2-4.63-5.28-.86-.03-1.11.63-1.29.69-2.1.66-1.99,1.11-3.21,1.91-.66.43-1.4.66-2.19.73,1.24,1.45-.31.98-.43,1.16-.69,1.11.92,1.12,1.19,1.57,4.5-3.1,7.45-2.64,10.72,1.45h0c.25.31.38.76.64,1.07l.43-1.71h0,0c.12.06.22.1.32.14-.16,1.07.58,1.32,1.87.75l2.97.97c.96.23,2.02.34,2.86.91.03.04.06.06.09.1.27.32,1.05,1.34,1.14,1.49-2.23,1.41-4.02-.44-6.19-.66ZM312.8,77.96c.5.12.5.31.04.56-1.22-.13-2.81.15-3.95-.55-.05-2.2,3.06.02,3.91,0ZM326.43,88.7c-.2.61.28,1.57,1.05,2.53-.76-.48-1.47-.8-2.04-.78.86-.65-.14-2.32-.93-2.99.28.08.5-.05.67-.31.11.03.3,0,.57-.08,0,.15-.41.52-.33.88.12.57.85.56,1.01.74ZM332.38,96.36c0-.1-.12-.18-.37-.24.09-.38.13-.71-.01-.87-.29-.32-.66-.71-1.08-1.12.61.3,1.15.43,1.52.29.22.76.46,1.25.7,1.5-.26.09-.52.24-.77.45ZM333.87,98.49c.17-1.65,3.16.21,3.33.03l-.08-1.11-.04-.56c-2-2.14-4.01-4.18-6.04-6.26.09-.95-.12-1.3-.64-1.07-1.26-1.28-2.19-2.01-3.58-3.09-.33-.26-.56-.94-1.19-1.03.03-.18.47-.42.51-.6h0c3.61,2.16,7.83,3.47,12.66,3.93-1.28,1.77-2.73,8.01.34,5.73-.19,3.56-1.22,4.06-4.37,4.87h0s-.31-.06-.31-.06c-.02-.23-.62-.63-.6-.79ZM334.01,95.82c.05-.05.1-.1.15-.17l.53.38c-.23-.11-.46-.18-.68-.21ZM335.93,100.92c.17-.01.33,0,.48,0-.18.01-.34,0-.48,0ZM341.46,103.24h0s0,0,0,0ZM306.19,63.91c1.22-.42,1.86.08,2.82.36.98.29,1.87.83,2.3.95,2.03.56,4.2.72,6.23,1.22.1.02.17.85,1.15.48l.43-1.71c-.04,1.85,2.73,2.54,3.47,1.41.41-.62-2.68-3.38,1.46-2.9,0,0,0,0,0,0,4.74,1.46,13.1,4.6,17.26,7.45,4.65,3.18,3.54,5.5,5.28,10.46-1.61-1.05-2.2-1.35-3.92-.27.63,1.97.29,2.18-1.59,1.23-2.85-2.2-4.43-4.23-6.64-6.78-.98-1.08-1.05-1.26.47-1.15.85.67,2.61,1.33,3.53,2.4.71.82,1.09,2.9,2.24,3.28,1.69.57,1.99-1.9,1.61-3.02-.4-1.17-8.37-6.36-9.97-7.5-1.03-.74-2.31-2.83-4.1-2.78l3.59,3.38h0c.08.35.71.89.69,1.31-.02.36-1.7.11-.51,2.21l-.44.41s0,0,0,0h0c-1.54-1-4.91-2.77-5.84-3.48,0,0,0,0,0,0,0,0,0,0,0,0-1.18-.9-.61-3.28-1.94-3.77.48,1.01-1.57,3.78-1.39,3.99.11.13,2.02.04,1.79,1.56-1.3,1.46-5.57,4.36-5.71,6l-1.11.08c-.18.01-.37.03-.56.04l-2.26-.39c-.18,0-.37.05-.56.04-.85-.05-.72-.53-.08-1.11.05-2.83.16-4.39-1.08-7.18-1.19-1.03-2.43-2.02-3.58-3.09-.36-.33-.55-.91-1.19-1.03,0-.2-.08-.42-.04-.56-1.16.14-1.59-.74-2.32-1.23-.9-.61-2.54-1.16-2.41-2.33,2.17,0,4.01-.38,2.94,2.01ZM325.23,70.84s.02,0,.03,0c-.01,0-.02,0-.03,0ZM302.8,55.79c.55-.06,1.12-.11,1.67-.12.51,0,1.51-.38,1.68.15-1.94,2.58-3.62,1.12-6.09.72-.1-1,2.03-.68,2.74-.75ZM302.72,62.24c-.24,1.81-1.35,7.6-3.11,8.25-.96.35-2.78-1.09-3.53.32,1.06.98,1.27.9,2.34,1.5.3,2.59-3.26,1.34-4.96.92.75.25,1.06.77,1.07,1.28-.42-.05-.76-.17-.95-.4-.17-.2-.24-.49-.12-.88-.72-.18-1.92-.88-2.88-1.18-2.55-.8-4.08.53-3.08-3.97,2.59.41,5.3.79,7.9,1.1,5.84.69,3.16-.65,1.9-4.61l2.68-1.59c-.05-.47-2.37-.61-2.8-.07-.04-.26-.61-.65-.64-1.06,2.02-1.13,4.14-.19,6.19.4ZM270.26,115.15l-.56.04-.56.04c-.04-.2-.56-.72-.34-.98.05-.06.12-.11.26-.13.28.15,1.52-.6,1.19,1.03ZM265.14,136.75c.94.93,3.6-.63,3.95.56.5,1.71-1.94,3.36-3.11,2.68-.29-.17-1.03-2.97-.84-3.24ZM265.01,146.24c2.94.95,5.41,2.98,8.8,2.17.4,1.96-2.17,2.29-2.95,3.18-.24.27-2.58,3.71-2.68,3.93-.03.22-.1.39-.19.52-.25.76-.25,1.39-.16,2.3l-.56.04c-.39-1.47.15-1.7-.5-2.09-.38-.1-.83-.28-1.37-.57-4.27-1.57-7.2-3.8-11.2-.3-.04-.03-.62.09-.57-.24.51-.5,1.02-1.05,1.56-1.51.53-.46,1.51-.58,1.61-1.02.41-1.85-1.89-2.43-1.89-2.6-.03-.67.77-1.31.85-2.18.14-1.64-1.46-3.51-1.88-5.03-.19-.71-.65-2.16.65-1.96,2.9,4.35,6.21,3.99,10.47,5.36Z"/>
        <path class="cls-2" d="M283.22,146.99c.13.18.45.24,1.11.09,1.91-.91,5.47-1.48,7.66-2.24-1.01-4.05-5.76-.1-8.38.05.07.52-.72,1.66-.39,2.09Z"/>
        <path class="cls-2" d="M250.52,104.86c.5-.44,1.11-.78,1.59-1.23l-.16-2.22c-.1.1-.45-.06-.56.04l-.52.6c-.04.15.06.36.04.56l-.56.04-.52.6c-1,.88-7.34,7.27-7.25,7.79l3.37.31c-1.32-2.38,3.09-4.04,4.56-6.47Z"/>
        <path class="cls-2" d="M251.53,157.02c.09.6.82-.08.54-.32-.13-.12-.56.13-.54.32Z"/>
        <path class="cls-2" d="M279.54,81.51c-.82,1.17.3,2,1.19,1.03-.2-.24-1.05-.43-1.19-1.03Z"/>
        <path class="cls-2" d="M284.05,97.38l-1.07.64c1.27.07,1.63-.14,1.07-.64Z"/>
        <path class="cls-2" d="M315.3,127.5c-2.32.04-4.34-.28-6.71-.07-.37.03-.74.05-1.11.08-.67-.39-5.18-.63-6.03-.53-.24.03-4,1.12-4.53,1.3-2.59.85-3.14,2.32-3.57,4.73-.62,3.53-.08,4.95,3.71,2.94,1.37-.73,2.05-2.23,2.88-2.83.32-.23,1.06,0,1.23-.12,2.07.52,4.07-2.17,5.95-2.68l-1.78-1.53c1.44-.63,2.69.81,3.68.82.41,0,.73-.6.8-.6.18.01.37-.03.56-.04.25,0,1.43.9,2.27.39l-.65-1.06c.68-.57,3.97,1.59,3.3-.8Z"/>
        <path class="cls-2" d="M287.42,134.53s-.07.03-.1.04c.71-.12,1.53-.01,2.22-.16-.64-1.26-1.67-.14-2.12.12Z"/>
        <path class="cls-2" d="M251.74,107.48c-.65.58-4.28,1.17-4.75,2.65,1.43-.25,6.2-1.93,7.06-2.74.97-.91.66-1.35-.64-1.07-.09-.36-1.01-.6-1.41-.46-.93.32-.2,1.57-.26,1.62Z"/>
        <path class="cls-2" d="M264.53,113.56c.21-.25.33-.56.52-.82l-.56.04-.17-.14-.43-.37c-1.48-.54-2.66-1.52-2.76.48.02.25,2.26.88,2.89,1.19.23-.08.38-.22.51-.37Z"/>
        <path class="cls-2" d="M306.87,96.27c.68.09,3.02-.61,3.25-1.35-1.25-1.44-3.38-.32-3.25,1.35Z"/>
        <path class="cls-2" d="M302.4,103.86c-.68.91,2.23,4.28,2.6,4.56,1.04.81,2.24.06,3.37.59.19.09.37.4.6.52,1.43-.13,2.58.59,3.97.83.63.11,1.44-.19,1.99.4l-.36-1.08c-1.76-.79-3.49-1.57-5.2-2.41-2.3-1.13-4.57-2.39-6.95-3.4Z"/>
        <path class="cls-2" d="M345.99,126.94c.17-.06.38.02.56-.04l-.32-.53-.24.57Z"/>
        <path class="cls-2" d="M347.52,121.22c-3.8.33-9.9,2.77-13.96,3.83-.34.09-.76,0-1.11.08.16.59.98.78,1.19,1.03.11.13-.25.99.43,1.11,1.74.31,4.46-1.03,6.56-1.1,1.84-.06,3.08.63,4.8.8-.24-1.81-.42-2.25.87-3.41.44-.4,3.84-2.57,1.22-2.34Z"/>
        <path class="cls-2" d="M331.45,126.88l.24-.57-1.98-.41c-2.07,1.06-1.15,1.05-2.06,2.39-.46,1.1-.49,1.8-.24,2.2-.66.18-1.25.6-1.74,1.3-.43.83-1.09,1.51-1.5,2.34,2.34-.77,4.75-1.43,7.1-2.19.21-1.54-.78-.86-1.19-1.03-.24-.12-.47-.21-.69-.29.21-.07.42-.16.65-.26,1.8-.77,5.39-3.84,1.41-3.46Z"/>
        <path class="cls-2" d="M324.88,113.4l-3.41-.87c-.12.9.35,1.46.71,2.18.37-.05.75-.02,1.11-.08l1.58-1.23Z"/>
        <path class="cls-2" d="M324.06,119.45l.17.14c.24.25.75,1.28,1.19,1.03l.52-.32-.56-.24c0-.31,0-.89-.08-1.11-.03-.07-.13-.14-.25-.21l-.35-.3c-.57-1.08-1.38-1.84-1.87-2.66l-.56.04c.04,1.25.67,2.27,1.35,3.25.1.14.27.25.43.37Z"/>
        <path class="cls-2" d="M325.55,107.2l-.04-.56-.34.34c.06.19.23.16.38.22Z"/>
        <path class="cls-2" d="M145.65,490.09l-4.73-7.04c2.8-2.67,1.99,3.23,4.25,3.28-.41-2.18-1.85-4.61-.5-6.83l-.95-1.41c-30.98-6.23-61.42-15.5-92.17-22.93-.76,2.33-4.03,1.03-1.87,3.3.64.31,1.9,1.71,2.6,2.34.36.48.65.92.95,1.38.03.18.03.37.01.55-.12,1.23-1.12,2.43-.93,2.75.37.62,2.97,1.83,2.82,2.61-.06.32-3.21,3.4-2.33,5.66-.32.36-.43,1.31-.6,1.38-1.36.59-2.51-2.05-3.46-2.48-.59-.26-1.88.44-2.78.14-1.33-.43-2.21-2.04-2.36-2.07-.84-.16-5.11,7.26-5.37,8.73-.14.83,0,2.13.01,3.06l-3.78-2.57c.19,2.52,1.19,4.96.97,7.53-2.14.63-4.29-.12-6.43.04-3.73.28-9.15,2.55-11.95-1.51-.86-1.25,1.86-12.74.89-15.41,1.98-3.82,2.91-7.97,4.19-12.03.49-1.56,4.08-4.74-.96-4.47-.44,1.55-1.38,3.71-1.63,5.19.18.31.15.54.06.72-.09.2-.25.34-.29.46-1.33,3.35-1.66,6.68-2.55,9.9-.44,1.6-2.74,10.27-3.03,10.75-2.1,3.48-6.32,1.52-8.82,1.49-12.52-.16-25.03-.38-37.55-.49-1.39-.01-2.81-.21-4.24-.22-2.53-.02-5.66-1.31-8,.28-.26.84,12.1,9.9,13.45,11.45.85.97.44,1.6.5,1.67.95,1.3,1.82,3.79,3.55,3.75-.07,7.82-3.86,20.16-5.53,28.28-.62,3-1.79,5.98-2.08,9.08,1.41.46,3.05-.98,4.23-1.31.33.08.57.04.76-.07,1.42.07,2.7,1,3.46-2.77.82,1.14,1.78,2.43,3.31,1.86.18-.06.6-.33.7-.47,5.57-.8,11.89-1.43,17.18-3.37,1.1-.4,1.8-.2,1.88-.24.23-.13.51-.3.7-.47.59-.54,3.33-6.1,4.21-5.9,3.77,4.82,4.1,3.79,8.25,1.61,4.35-2.28,5.98-1.91,10.82-2.16,2.61-1.91,6-.81,8.94-1.92,0,.29.67.92.62,1.68-.01.23-2.09,2.88-.83,4.08,2.46.77,9.12-2.13,6.77-4.58-.55-.57-1.93-.41-2.24-.81-.03-.04-.06-.08-.07-.14,0-.05.1-.18.24-.35.52-.66,1.61-2.14-.03-3.9.18-.32,1.05-.58,1.41-.95.19-2,.19-3.49,1.62-5.18,2.25,1.69,2.42,2.85,3.32,4.93l-1.63,5.19c.92.17,3.02-.17,3.29-1.19-.09.12-.6,1.74-1.17,2.83-3.25,6.27.84,3.82,3.84.66.14-.15.28-.29.41-.44l.07.6.16,1.28c-1.02,7.2,3.64,9.34,6.89,14.81,1.41-2.76-1.99-3.27,1.63-5.19l.47.7c.25,1.24.25,2.53.49,3.77-.39.63-1.04.97-1.21,1.74-.07.29-.07.64.05,1.1.36.8.31,2.47.26,3.42,2.17-1.45,4.18-5.68,5.61-8.38,1.32-1.04,2.18-3.51,3.06-1.54,1.25,2.78-.03,7.1,1.21,10.95,1.54,4.76,4.73,7.26,3.58,12.93.52-1.67,3.53-3.28,3.76-3.54.1-.12-.37-1.64.18-1.97.65-.38,2.29.67,2.62.08.1-.17-.26-2.37.16-3.95.04-.11.07-.21.08-.3,1.66-4.76,2.53-2.6,1.14-8.95-.29-1.33-.98-3.97-1.43-5.17-.91-2.43-2.48-3.55-2.84-4.23-1.29,6.88-5.77,1.31-8.25-1.61-.75-.89-.8-2.59-1.57-3.39-2.56-2.66-6.96-3.79-9.31-6.69-2.18.97-.82,2.31-.69,3.53.03.31-.35.92-.23,1.18l-.7.47c-1,1.03-1.93.53-3.06.01-.19-.15-.27-.5-.47-.7-2.03-2.03-2.92-2.93-3.09-6.11,1.44-1.44,7.51-5.85,9.4-6.35.95-.25,1.21,1.19,1.94,1.39,2.02.56,4.75.1,6.07.41.46.11,1.1.7,1.65.94-.95,2.4,2.03,4.65,3.56,6.81.33.46.61.95.95,1.41.16.22.35.56.56.93.77,1.38,1.85,3.39,2.98,2.82-1.69-1.95-2.31-4.74-3.55-6.82-1.05-1.75-1.69-3.63-3.32-4.93l1.64-2.13c1.04,1.12,3.19,4.21,4.02,4.46.61.18-.11-1.36,2.36.46,1.14.84,2.19,1.93,3.08,3.04,1.78-.67,1.09-1.3,1.16-2.83-1.07-1.6-2.61-4.03-3.79-5.64-.08-.11-1.99-1.58-2.13-1.64l-.49-3.77c3.31,2.52,2.23,3.47,3.32,4.93,7.7,10.36,8.59,10.69,9.99,23.98.38,3.63.12,8.85.52,12.95.07.67-.2,1.37.01,3.06.05.41-.07.59-.34.58-.2.63-.27,1.68-.28,2.8.51,1.83.92,3.97.44,5.02.01.03.03.07.04.08.59.47,2.79,1.12,2.76-.01,1.7-.12,1.84-.78.23-1.18,2.41-.43,3.31-3.01.69-3.54,0,0,0,0,0,0l4.23-2.84c.14-1.88.17-3.9-.73-5.65,0,0,0,0,0,0,1.64.5,3.21.81,4.71.92h0c1.11,2.28.44,5.84-.91,7.77,1.47.07,2.79-1.02,3.53.69-.05.4-.16.79-.23,1.18-.3,1.68-.59,3.33.26,4.94.43-.21,1.32-.09,1.88-.24-.38-1.07-.79-2.25-1.19-3.29,1.2-1.13-.01-2.33-.01-3.06,0-.34.21-.78.23-1.18,0,0,0,0,0,0,.45-.11.8-.43,1.01-.81-.68,2.24.04,5.64,1.6,6.21-1.24.13-1.8.87-1.64,2.13-1.88,2.25-.62,4.79,3.78,7.62-.27,3.49.76,4.87,3.09,4.13.2.13.35.19.47.21-.45.74-1.54,1.31-3.29,1.69h0s0,0,0,0c.43-.68.28-.92-.47-.7.43-.7.28-.94-.47-.7.12-1.93-1.12-3.01-3.74-3.22-1.22-2.62-2.65-3.5-4.29-2.63-2.59-4.85-4.23.15-.46,2.36-.28,1.29.71,2.46,1.9,2.82.28.49.66.92.95,1.41-.37.74-.24.99.47.7-.11.09-.18.17-.27.26.03.67-.21,1.25-.74,1.74.29.5,1.11.89,2.21,1.29-.88,1.16-.09,2.33,2.37,3.52-1.47,2.63,2.71,9.27,5.69,8.45.7,3.1,2.91,3.03,5.66,2.33l.53.94c-1.09-1.14-2.97,2.73-1.45,3.78.48.26.89.55,1.25.85,1.31.5,2.23,3.51-1,4.09.03,2.04,1.32,4.74,1.03,5.54-.17.46-5.74,6.79-6.39,7.24-1.44,1.01-2.47.69-4.01.68h0s0,0,0,0c-.39,0-1.29-.85-2-.69l.11.93c.83.75,1.53,1.13,2.13,1.64h0s0,0,0,0c1.2,1.02,2.39,2.61,3.55,3.75l1.41-.95c16.14-22.36,34.69-42.96,51.49-64.86-3.49-22.2-9.26-43.98-13.65-65.98ZM-9.96,516.3c-.55-.11-6.86-.6-7.22-.57-.31.13-.59.16-.84.14-1.2.24-2.03.72-3.16,1.53l-.47-.7c1.65-1.62,2.37-1.09,2.38-2.24-.16-.58-.26-1.31-.28-2.24-1.15-6.83-.42-12.4-8.07-15.04.01-.08-.59-.75-.12-.93,1.05.29,2.16.56,3.18.92,1,.35,1.9,1.56,2.57,1.35,2.76-.85,1.78-4.33,2.01-4.47.87-.54,2.32.03,3.52-.53,2.27-1.06,3.54-4.59,5.24-6.29.79-.79,2.36-2.5,3.09-.62-3.57,7.13-.58,11.23.82,17.9.97,4.6.14,9.41,3.78,13.28-2.29,2.01-4.68-1.13-6.44-1.49ZM1.69,501.07c0-.52,3.16-3.61,3.65-3.56-.52,1.95,3.55,4.28,2.24,5.64-1.89,1.96-5.9-.03-5.89-2.08ZM7.38,504.34c1.09-.72,3.39,2.35,3.88,3.51-1.65.97-5.68-2.31-3.88-3.51ZM31.74,506.34c.08.64-1.47.39-1.63-.94-.08-.64,1.47-.39,1.63.94ZM33.78,520.33c.04-.07.06-.14.09-.2.02.03.02.06.05.1-.05.06-.09.07-.14.11ZM37.8,487.95l-.47-.7-.47-.7c.24-.2.53-1.29,1.04-1.19.11.02.23.08.37.25,0,.49,1.95,1.56-.46,2.36ZM41.84,495.46c-.45-.5-1.24-3.02-1.19-3.29.03-.17.49-.27.69-.46,1.04,1.13,1.62,2.5.5,3.75ZM140.93,486.11c.49.68,1,1.39,1.42,2.11.39.67,1.65,1.71,1.07,2.34-4.88-.61-4.22-3.94-5.55-7.51,1.25-.89,2.44,2.17,3.06,3.05ZM119.07,493.01c-1.2-1.01-.65-4.51-3.09-4.44-.5,2.15-.23,2.37-.22,4.24-3.19,2.36-4.24-3.3-4.97-5.87.24,1.17-.22,1.99-.89,2.39-.26-.59-.34-1.13-.19-1.56.14-.39.46-.69,1.08-.83-.31-1.09-.29-3.21-.62-4.71-.87-3.98-3.79-5,2.92-7.08,1.42,3.74,2.96,7.61,4.52,11.28,3.5,8.25,3.25,3.69,7.53-.97l4.14,2.34c.59-.43-.99-3.59-2.02-3.77.31-.25.4-1.31.93-1.65,3.03,1.82,3.39,5.33,4.15,8.49-2.57,1.06-11.08,3.96-13.27,2.12ZM118.45,516.58c-.76-1.71-2.32-3.61-2.26-5.65,2.87-1.72,2.28,4.07,2.96,5.18.21.75-.03.9-.7.47ZM96.84,473.82c.64-.08.39,1.47-.94,1.63-.64.08-.39-1.47.94-1.63ZM131.5,484.26l-1.89-2.81c-.19-1.11,3.41,1.22,3.29,1.87l-1.4.94ZM68.34,472.52c-.98.52-2.26-.54-3.23-.31-.97.23-1.54,2.28-2.42,1.04-.06-.82-.69-1.95-.72-2.59l.23-1.18c.09-.28-.36-.86.56-1.44.84-.53,1.25.02,1.55.02,1.55-.02,2.79,1.21,4.24.23.29,2.07-3.08,1.55-.22,4.23ZM136.42,480.95l-2.34-.46c1.34-1.19,1.56-1.15,2.34.46ZM48.92,499.92c.22-.79,3.94-.37,3.99-.14.71,3.27-4.07.42-3.99.14ZM62.39,512.34l-4.97-8.93c3.07.03,4.06,4.99,5.91,7.28.18.22.3.49.47.7-.23,1.35-1.11.82-1.41.95ZM70.07,491.82c-1.05-2.86-2.4-5.55-3.55-8.36-.57-1.39-2.18-1.58.21-2.69,1.48,3.98,3.68,7.94,4.99,11.98.26.8,1.3,5.26.26,4.94-1.26-1.62-1.3-4.19-1.91-5.87ZM72.25,505.7c-1.09-.25-.69-4.3.93-4.7,0,1.32.85,5.11-.93,4.7ZM79.43,475.3l4.01,1.39-.71-2.58c2.91-.82,2.48,2.81,4.02,4.46l-.48-3.76c1.23-1.48,2.17-.09,3.06-.01,3.44.29,3.61.88,6.37,1.86-2.01,1.11-1.46,2.44,1.66,4,.16.24.3.55.47.7.37.33.7.58,1.18.23,2.28.53,4.45,1.3,6.6,2.22.77.62-1.61,1.33-2.35,1.06-2.42-1.05-5.16-.81-7.07-1.38-3.21-.97-3.95-1.7-5.2-4.69-.36-.87-.51-1.68-.71-2.58-.42.33-1.4.81-1.41.94-2.59,6.75-6.83,2.35-9.42-1.84ZM92.06,503.08c.17-.16.37-.28.59-.36-.18.17-.37.29-.59.36ZM83.47,539.1s.07-.1.16-.17c-.03.24-.1.49-.16.73,0-.16,0-.34,0-.56ZM83.58,540.23c.14.07.26.15.38.26-.16.03-.29-.04-.38-.26ZM101.38,547.5c-1.17,1.21-.17,2.96-.21,4.23-.52.25-.89.72-1.15,1.3.08-.48-.11-.94-.73-1.06.07-7.87-1.48-12.94-5.97-19.51-1.29.32-.58,4.89-2.09,4.47-2.09-.58-.26-3.19-.34-3.34-.19-.36-1.24-.45-1.33-.65-2.13-4.83-8.06-20.66-5.67-25.27.59-1.14,3.03-3.78,4.14-4.39-.96,4.02,1.22,6.02,2.39,9.64,1.68,2.86,7.69,3.76,10.99,4.6.49.13,1.93,1.68,2.21-.18.19-1.24-13.85-10.59-9.99-14.73.01-.02.02-.03.03-.05l.09.07,4.17,3.2c-.13-.12-.3-.33-.48-.57-.15-.19-.32-.41-.49-.65.33.36.66.75.97,1.22,5.22,5.11,10.07,6.22,15.11,10.3,3.72-.56,4.65,1.86,5.52,4.36.14.26.26.52.36.81.11.28.2.58.27.93.88,2.13,1.62,4.4,2.38,6.58.17.55.08,1.02-.28,1.43-.26,2.29.34,4.96,1.37,7.21l-1.06.55s0,0,0,0t0,0c-.86-.79-1.75-1.55-2.6-2.34.81-1.1,1.39-3.45,1.86-4.84l-3.52.84c-2.31,1.45-3.81,2.01-6.11,3.09-1.81.85-3.74,1.47-5.41,2.61l-.7.47h0s0,0,0,0c.57-3,5.13-7,3.49-10.12-.61-1.16-1.68-.99-1.89-1.19-2.47-2.28-2.98-1.79-4.96-2.81-1.07-.55-1.93-1.36-2.62-2.34-.98,2.74-1.53.32-1.86.31-1.99-.08-.79,2.06-1.17,2.77,7.5,3.61,9.13,7.87,6.19,15.28,0,0,0,0,0,0-.23.57-.72,1.08-.94,1.65l2.59-.72h0s0,0,0,0c.01.19.03.36.06.51-1.56.6-1.31,1.77.43,3.06l.96,4.66c.43,1.44,1.08,2.94.96,4.47-.02.07-.04.13-.06.19-.22.6-.97,2.4-1.1,2.64-3.56-1.89-2.46-5.65-3.81-8.69ZM111.81,558.72c-.03-.39-.11-.74-.24-1.05.11.02.21.05.34.06l-.1.99ZM112.25,554.52c-.83.87-1.3,1.55-1.45,2.07-.32-.28-.71-.51-1.17-.67.13-.07.14-.29.04-.68.57-.16,1.04-.36,1.14-.68.2-.63.44-1.41.67-2.27.06,1.03.3,1.85.77,2.23ZM105.71,569.14h0s0,0,0,0c0,0,0,0,0,0ZM106.27,564.06c.14.21.26.43.36.64-.15-.23-.27-.44-.36-.64ZM112.2,542.27c1.51.65,2.96-1.94,3.25-3.49.1.43.44.62.92.66.05.17.22.4.53.69-.19.12-1-.15-1.42.23-.66.59-.1,1.55-.22,1.9-.95.2-1.86,1.56-2.55,3.3.07-1.37-.06-2.55-.51-3.29ZM106.06,539.24h0s0,0,0,0ZM105.59,538.53h0s0,0,0,0c0,0,0,0,0,0h0ZM107.38,573.14h0s0,0,0,0ZM117.23,563.44c-4.86,2.45-6.29,1.46-9.75-2.1h0s-.15-.45-.15-.45c.29-.21.36-1.29.6-1.4,2.32-1.02,2.11,4.34,2.47,4.44l1.41-.94.7-.47c1.31-4.26,2.5-8.47,3.72-12.73,1.32-.6,1.63-1.15.94-1.65.73-2.64,1-4.41,1.38-7.07.09-.63.82-1.45.46-2.36.25-.1.91.31,1.18.23h0c-.13,6.4,1.33,12.98,4.37,19.72-3.3-.35-12.66,2.44-7.33,4.78ZM139.83,563.58c.17-2.93.13-3.93-2.61-5.4-2.13,2.33-2.67,2.04-2.83-1.17.75-5.43,2.25-9.06,3.95-13.91.69-2.11.88-2.34,1.88-.24h0c-.24,1.63.21,4.46-.5,6.49-.55,1.56-3.01,3.64-2.65,5.44.53,2.66,4.02,1.2,5.21-.15,1.25-1.41,2.08-15.88,2.38-18.86.19-1.93,1.99-5.2.58-7.53l-1.75,7.3h0c-.4.37-.64,1.61-1.22,1.9-.5.25-1.43-2.16-3.31.99l-.88-.28h0s0,0,0,0c.16-2.8-.05-8.6.19-10.36-.04-.14-.1-.26-.15-.38.05.11.11.24.15.38.3-2.24,3.87-3.28,3.51-5.42-.98,1.4-6.19.79-6.33,1.18-.09.24,1.47,2.7-.71,3.55h0s0,0,0,0c-2.91-.62-9.98-4.08-12.26-3.01l-.95-1.41c-.16-.23-.33-.46-.47-.7l-1.19-3.29c-.13-.25-.35-.45-.47-.7-.57-1.17.16-1.36,1.41-.95,3.78-2.07,5.92-3.11,8.68-6.86.46-2.35.84-4.74,1.38-7.07.17-.72.79-1.42.46-2.36.26-.14.5-.43.7-.47-1.06-1.42-.23-2.67-.12-4,.13-1.65-.39-4.24,1.26-4.95,1.64,2.87,3.53,5.02-.44,5.41,1.48,1.29,1.31,2.52,1.66,4,.36,1.52.32,3.1.49,3.77.79,3.11,2.23,6.1,3.1,9.17.04.15-1,.87.24,1.88l2.58-.72c-2.48,1.34-1.3,5.53.75,5.65,1.12.07,2.45-6.1,4.93-.26,0,0,0,0,0,0,1.66,7.37,3.82,20.81,3.2,28.46-.7,8.55-4.61,8.84-9.85,14.89ZM137.95,527.14s.04.05.05.08c-.02-.03-.04-.05-.05-.08Z"/>
        <path class="cls-2" d="M23,522.51s.02,0,.03,0l.17-.04s-.07-.07-.1-.08c-.02,0-.05.05-.1.12Z"/>
        <path class="cls-2" d="M8.53,528.1c-.64.49-2.74.3-3.06,1.06-.14.31.02.78.72,1.54,2.65,1.84,6.1,6.12,8.75,8.44,4.6-4.4-4.23-7.7-6.4-11.04Z"/>
        <path class="cls-2" d="M36.48,454.05c.95.33,1.87.87,2.83,1.17l2.82-1.9c-.21-.05-.27-.65-.47-.7l-1.18-.23c-.23.06-.43.36-.7.47l-.47-.7-1.18-.23c-1.92-.65-15.16-4.21-15.79-3.7l2.14,4.7c2.14-3.55,7.68,1.04,12.01,1.13Z"/>
        <path class="cls-2" d="M88.85,477.14c.17-.44-.22-1.72.46-2.36-2.16-.2-2.42,1.92-.46,2.36Z"/>
        <path class="cls-2" d="M71.73,492.75l-1.65-.94c.87,1.74,1.42,2.05,1.65.94Z"/>
        <path class="cls-2" d="M55.51,556.88c-1.81-3.04-2.92-5.95-4.98-8.93-.32-.47-.63-.94-.95-1.41,0-1.18-3.08-7.33-3.86-8.37-.22-.29-4.51-4.45-5.14-5.02-3.08-2.79-5.45-2.4-8.95-1.14-5.14,1.85-6.6,3.64-1.09,7.13,2,1.26,4.5,1.02,5.92,1.67.55.25.8,1.4,1.09,1.54.87,3.14,5.96,3.75,8.04,5.84l.68-3.52c1.92,1.42.96,4.17,1.69,5.49.3.55,1.35.51,1.4.61.12.25.33.47.47.7.2.32-.11,2.57,1.2,3.29l.92-1.66c1.27.47.89,6.46,3.56,3.76Z"/>
        <path class="cls-2" d="M25.14,525.31s-.08-.07-.14-.1c.7.85,1.17,2.02,1.9,2.82,1.18-1.8-1.08-2.31-1.76-2.72Z"/>
        <path class="cls-2" d="M36.81,477.36c-.4-2.36,0-4.67-2.72-3.3-.32.21.55,3.66.61,4.72.28.24.58.34.87.39.49.09.99.02,1.48.07l-.47-.7.06-.33.17-.85Z"/>
        <path class="cls-2" d="M36.73,458.99c.4-.39.03-1.78-.46-2.22-1.12-.98-2.23.92-2.34.88-1.26-.42-4.79-4.78-7.1-4.27,1.41,1.71,7.24,6.74,8.97,7.26,1.93.59,2.29-.15.94-1.65Z"/>
        <path class="cls-2" d="M90.45,522.11c.4.97,3.09,3.54,4.25,3.28.96-2.74-2.14-4.71-4.25-3.28Z"/>
        <path class="cls-2" d="M76.4,540.77c.33.91,1.34,1.76.98,2.94l1.15-1.3c-.29-2.92-.56-5.8-.74-8.71-.24-3.9-.3-7.85-.75-11.77-1.72-.2-3.98,6.19-4.07,6.89-.28,1.99,1.61,3.01,1.77,4.9.03.32-.25.79-.23,1.18,1.25,1.79,1.17,3.85,1.91,5.88Z"/>
        <path class="cls-2" d="M79.93,597.74l.45-.82-.93.12c.2.18.27.52.47.7Z"/>
        <path class="cls-2" d="M72.55,579.17c-.37-.38-.58-1.01-.95-1.41-.66.65-.29,1.89-.46,2.36-.09.25-1.49.42-1.14,1.41.9,2.54,4.74,5.12,6.41,7.84,1.47,2.39,1.5,4.55,2.57,6.96,2.21-1.69,2.65-2.25,5.18-1.43.85.28,6.3,3.14,4.02-.16-3.3-4.77-11.15-11-15.62-15.57Z"/>
        <path class="cls-2" d="M69.48,577.65l-.95-2.94c-2.97-1.94-2.26-.73-4.71-.92-1.79.22-2.78.7-3.11,1.33-.74-.73-1.73-1.17-3.02-1.3-1.43.07-2.81-.3-4.24-.22,2.79,2.51,5.49,5.21,8.27,7.74,2.2-.89.54-1.69.46-2.36-.02-.4-.07-.77-.14-1.13.25.22.53.43.84.65,2.39,1.8,9.16,4.22,5.65-.74l.94-.11Z"/>
        <path class="cls-2" d="M72.95,561.51c-.11.23-.12.55-.17.85l-.06.33c-.15.51-1.12,1.97-.46,2.36l.82.45-.11-.93c.41-.23,1.18-.67,1.41-.95.07-.08.08-.28.1-.49l.13-.69c1-1.58,1.39-3.21,2.1-4.48l-.47-.7c-1.63.99-2.5,2.61-3.28,4.25Z"/>
        <path class="cls-2" d="M81.41,558.88l-1.42-5.17c-1.28.53-1.67,1.57-2.35,2.59.34.45.59.98.95,1.41l2.82,1.17Z"/>
        <path class="cls-2" d="M90.11,555.08l.7-.47-.7-.2c-.2.22-.03.43,0,.67Z"/>
        <path class="cls-2" d="M357.7,812.86c-.72.61-3.09,1.38-4.23,1.89-.77.17-1.47.29-2.18.41-.24-.06-.46-.16-.68-.28-1.43-.8-2.34-2.66-2.83-2.6-.95.12-3.81,2.62-4.67,2.01-.35-.25-2.4-5.71-5.62-5.86-.26-.58-1.35-1.23-1.35-1.47.02-1.97,3.82-1.94,4.86-2.87.64-.57.48-2.51,1.31-3.44,1.23-1.38,3.66-1.58,3.78-1.75.64-.94-6.05-10.09-7.7-11.19-.93-.62-2.58-1.14-3.72-1.63l5.15-3.2c-3.16-1.12-6.65-1.21-9.65-2.86.38-2.93,2.45-5.13,3.41-7.81,1.66-4.68,1.81-12.45,8.24-13.68,1.97-.38,14.44,9.08,18.2,9.34,3.57,4.45,8.1,7.81,12.33,11.53,1.63,1.43,3.56,7.49,5.93,1.23-1.65-1.36-3.75-3.66-5.41-4.75-.47.05-.73-.11-.9-.31-.19-.22-.28-.48-.4-.6-3.34-3.41-7.21-5.6-10.63-8.4-1.7-1.39-10.98-8.83-11.4-9.43-3.08-4.41,1.54-8.47,2.93-11.49,6.91-15.09,13.89-30.13,20.74-45.25.76-1.68,1.76-3.3,2.54-5.02,1.38-3.05,4.62-6.16,3.96-9.84-.88-.77-18.49,9.35-21.09,10.16-1.64.51-2.18-.32-2.29-.3-2.08.46-5.57.17-6.45,2.29-9.44-4.27-22.37-15.49-31.31-21.87-3.3-2.36-6.29-5.37-9.89-7.38-1.32,1.46-.45,4.23-.68,5.83-.27.35-.36.67-.32.96-.84,1.68-2.65,2.74,1.5,5.68-1.83.38-3.9.86-4.04,3.01-.02.25.08.9.2,1.11-2.02,7.18-4.65,15.17-5.13,22.62-.1,1.55-.73,2.29-.72,2.41.04.35.09.78.2,1.11.34,1,5.62,7.3,4.9,8.27-7.86,1.98-6.8,2.94-6.38,9.14.43,6.5-.89,8.27-3.18,14.28.92,4.19-2.24,7.71-2.47,11.87-.35-.17-1.47.32-2.37-.15-.27-.14-2.37-4.08-4.49-3.2-2.25,2.56-2.32,12.2,1.92,10.66.98-.36,1.53-2.13,2.18-2.28.07-.02.14-.03.21,0,.06.02.16.22.3.47.52.98,1.72,3.1,4.74,2.05.29.39.13,1.58.39,2.22,2.32,1.31,4.12,2.1,5.41,4.74-3.25,1.82-4.75,1.4-7.75,1.39l-5.41-4.75c-.69,1.02-1.41,3.75-.32,4.63-.1-.18-1.79-1.66-2.81-2.93-5.85-7.3-5.08-1.04-2.86,4.3.1.25.2.49.31.73l-.77-.23-1.64-.49c-8.17-5.1-13.27-.61-21.64.41,2.59,3.19,5.03-.66,5.41,4.75l-1.11.2c-1.64-.36-3.2-1.05-4.82-1.43-.55-.81-.62-1.78-1.45-2.4-.32-.24-.74-.43-1.35-.53-1.16.01-3.16-.94-4.28-1.52.6,3.41,4.64,8.11,7.15,11.29.55,2.15,3.09,4.53.23,4.54-4.04.02-8.59-3.85-13.92-4.4-6.6-.68-11.33,1.83-17.59-2.59,1.75,1.53,2.08,6.04,2.28,6.45.09.19,2.19.43,2.29,1.27.12.99-2.03,2.41-1.5,3.14.15.21,2.94.93,4.64,2.24.13.13.26.25.38.32,4.87,4.56,1.8,4.45,10.24,6.18,1.76.36,5.34.94,7.04,1.04,3.44.2,5.63-1.1,6.65-1.18-7.65-5.25,1.51-7.7,6.38-9.13,1.48-.43,3.57.42,4.95-.08,4.6-1.68,8.33-6.4,13.1-7.7,0-3.17-2.35-2.24-3.91-2.73-.39-.12-.92-.92-1.3-.91l-.2-1.11c-.71-1.77.4-2.62,1.63-3.72.28-.16.74-.06,1.11-.2,3.55-1.37,5.11-1.96,9.06-.46.97,2.52,3.06,12.24,2.65,14.8-.21,1.29-2.09.83-2.73,1.6-1.75,2.15-2.66,5.7-3.75,7.14-.37.49-1.44.96-2.02,1.5-2.4-2.43-6.73-.04-10.17.66-.73.15-1.49.23-2.22.39-.35.08-.86.13-1.43.18-2.09.2-5.1.42-5.01,2.09,3.27-1,6.98-.25,10.16-.65,2.68-.33,5.31-.1,7.76-1.38l1.7,3.13c-1.91.66-6.82,1.6-7.56,2.48-.54.64,1.71.59-1.82,2.61-1.64.93-3.52,1.62-5.34,2.1-.14,2.51.99,2.02,2.81,2.92,2.52-.44,6.29-1,8.86-1.57.17-.04,2.98-1.56,3.13-1.7l4.82,1.43c-4.83,2.65-5.4.84-7.76,1.38-16.68,3.78-17.57,4.67-34.42-.75-4.61-1.48-10.8-4.6-15.97-6.31-.85-.28-1.55-.97-3.72-1.63-.53-.16-.69-.4-.51-.72-.66-.58-1.89-1.23-3.25-1.84-2.49-.36-5.3-1.02-6.32-2.16-.04,0-.1,0-.12,0-.89.47-2.86,2.78-1.47,3.35-.77,2.12-.04,2.65,1.3.91-.78,3.15,1.87,5.63,3.91,2.73,0,0,0,0,0,0l1.18,6.65c2.21,1.18,4.63,2.3,7.24,2.14-1.48,1.72-2.7,3.45-3.65,5.22h0c-3.37.13-7.31-2.6-8.93-5.27-.88,1.74-.25,3.93-2.73,3.91-.45-.28-.87-.61-1.3-.91-1.87-1.27-3.72-2.5-6.13-2.34.03.63-.61,1.65-.72,2.41,1.5.11,3.15.25,4.63.32.62,1.76,2.25,1.41,3.26,1.52.12.04.27.08.45.1.42.18.83.67,1.3.91h0c-.11.6.08,1.19.41,1.64-2.35-2.01-6.84-2.95-8.36-1.37.51-1.57-.09-2.65-1.7-3.13-1.72-3.48-5.47-3.32-11.26.5-4.09-2.21-6.31-1.69-6.66,1.54-.25.17-.42.32-.52.45-.66-.94-.75-2.56-.27-4.89h0s0,0,0,0c.59.88.97.83,1.11-.2.62.9.99.85,1.11-.2,2.28,1.19,4.25.25,5.92-2.81,3.83-.08,5.66-1.34,5.49-3.79,7.27-.54,2.08-5.2-2.61-1.82-1.41-1.03-3.36-.46-4.43.79-.74.08-1.47.3-2.22.39-.69-.85-1.08-.82-1.11.2-.05-.19-.11-.31-.17-.47-.82-.32-1.4-.92-1.71-1.83-.76.08-1.67.87-2.75,1.98-.93-1.68-2.78-1.36-5.54.98-2.4-3.2-12.68-1.69-13.29,2.36-4.14-.81-5.23,1.9-5.86,5.61l-1.42.14c1.96-.71-1.71-5.06-3.8-3.79-.57.44-1.15.79-1.71,1.06-1.31,1.32-5.45.81-4.42-3.4-2.49-1.06-6.46-.94-7.27-1.72-.47-.45-5.15-10.59-5.35-11.62-.45-2.29.49-3.37,1.33-5.22,0,0,0,0,0,0h0c.21-.47,1.72-1.1,1.9-2.05l-1.19-.36c-1.36.61-2.19,1.25-3.13,1.7h0s0,0,0,0c-1.87.91-4.44,1.5-6.45,2.29l.39,2.22c18.45,31.55,33.46,65.09,50.99,97.19,28.77,7.67,58.26,12.37,87.29,18.85l11.07-1.96c1.73,4.83-4.98.68-6.25,3.39,2.87.67,6.58.23,8.54,3.06l2.22-.39c24.17-34.2,51.73-66.13,77.22-99.4-2.42-2.17.91-5.44-3-4.04ZM291.45,760.62c-.05,0-.09,0-.14,0-.04-.09-.03-.14-.06-.22.06.08.13.15.2.22ZM280.9,840.3c.1.29.14.59.12.91-.11-.3-.16-.61-.12-.91ZM296.99,863.62c2.57-2.38,3.74-5.82,5.47-7.83,2.9-3.37,4.18-3.88,8.47-3.79,1.25.03,2.31.29,3.51.52-.17-.69-.23-2.12-.38-2.22-6.78-6.76.81-9.54,7.29-10.43l-3.83,4.11,3.51.52c-.57,3.97-4.73,1.5-7.55,2.48l4.81,1.43c1.14,2.29-1.06,2.68-1.62,3.71-2.2,4.01-3,3.9-5.67,6.72-.26-3.03-2.17-3.07-5.74-.13-.37.07-.82.07-1.11.2-.6.27-1.08.53-.91,1.3-1.86,2.47-3.96,4.69-6.23,6.81-1.16.6-.74-2.67-.03-3.42ZM313.8,861.78c-.25.82-2-.31-1.48-2.01.25-.82,2,.31,1.48,2.01ZM321.69,783.84c.18.13.07.73.19,1.08-1.92.65-3.9.62-4.81-1.41.85-.27,4.32.12,4.62.33ZM318.46,739.82c-.29-2.52,5.85-5.64,6.33-2.83.29,1.7-4.67,2.85-6.33,2.83ZM336.33,821.22l1.3.91c.3.26,1.23.02,1.45,1.45.2,1.3-.7,1.5-.86,1.87-.81,1.89-2.96,2.73-2.55,5.01-2.66-.76-.22-4.57-5.01-2.54-.1-1.47,1.86-2.46,2.11-3.74.25-1.3-1.94-3.09.04-3.48,1.02.37,2.74.21,3.52.52ZM330.56,782.25c.12.4,1.28,1.33.89,1.9-.09.13-.22.24-.5.32-.59-.25-2.93,1.52-2.61-1.82l1.11-.2,1.11-.2ZM334.16,738.19c-2.08-1.68-7.1,2.01-8.04-.31-1.36-3.34,3.2-7.14,5.69-6.03.63.28,2.68,5.76,2.36,6.33ZM352.26,698.41c.09.06,1.22-.32,1.19.36-.92,1.12-1.83,2.31-2.81,3.36-.96,1.02-2.91,1.47-3.02,2.38-.44,3.8,4.29,4.49,4.34,4.84.19,1.35-1.28,2.79-1.25,4.55.06,3.32,3.67,6.76,4.81,9.72.53,1.39,1.76,4.2-.91,4.07-6.72-8.15-13.29-6.73-22.14-8.6-6.1-1.29-11.48-4.87-18.12-2.54-1.2-3.86,3.88-5.06,5.26-7,.43-.6,4.41-8,4.56-8.45.01-.45.12-.8.28-1.09.35-1.59.22-2.85-.16-4.65l1.11-.2c1.08,2.86.05,3.46,1.44,4.09.79.11,1.73.39,2.86.86,8.9,2.27,15.25,6.15,22.55-1.71ZM309.3,765.44c-.82-.25.31-2,2.01-1.48.82.25-.31,2-2.01,1.48ZM307.87,789.7c.84.68-1.67,4.98-1.97,4.92-4.34-.9,1.67-5.16,1.97-4.92ZM306.34,819.68c4.03.27,8.01.07,12.03.19,1.98.06,3.08-1.8,3.14,1.69-5.61-.34-11.6.2-17.2-.38-1.11-.12-7.07-1.25-6.13-2.33,2.64-.65,5.77.67,8.15.83ZM285.6,799.37l13.49-1.24c-1.68,3.7-8.22,2.24-11.99,3.26-.36.1-.75.1-1.11.2-1.51-1.01-.4-1.79-.39-2.22ZM288.36,814.88c.89-1.19,5.57,1.47,5.2,3.64-1.6-.71-6.64-1.71-5.2-3.64ZM241.18,810.27c.2.08.42.17.68.3.04.02.08.14.13.29-.27-.17-.54-.38-.8-.58ZM240.42,810.09c-.16.13-.33.24-.51.32.05-.21.21-.33.51-.32ZM222.07,827.76c-.84-2.07-3.49-1.8-5.02-2.53-.02-.76-.39-1.46-.96-2.09.54.36,1.2.37,1.68-.32,9.51,4.3,16.48,5.15,26.86,3.23.3-1.74-5.62-3.32-4.3-4.93,1.82-2.22,4,1.4,4.23,1.38.54-.04,1.21-1.26,1.5-1.26,6.99,0,29.36,1.31,33.67,6.68,1.06,1.32,2.96,5.7,3.1,7.37-4.36-3.32-7.95-1.76-12.97-2.27-4.36.5-8.68,7.3-11.47,10.85-.42.53-3.06,1.43-.96,2.78,1.4.9,20.26-11.1,23.21-4.2.01.03.03.04.04.07l-.13.07-6.12,3.34c.22-.09.56-.18.95-.28.32-.08.67-.16,1.06-.25-.61.2-1.27.39-2,.53-8.99,3.59-12.94,8.86-20.59,12.79-1.31,4.82-4.75,4.64-8.25,4.35-.39.03-.77.03-1.17,0-.4-.02-.81-.06-1.27-.17-3.06-.08-6.2-.39-9.26-.64-.76-.08-1.28-.45-1.58-1.1-2.64-1.54-6.19-2.25-9.47-2.21l-.1-1.57h0c1.42-.62,2.81-1.29,4.24-1.89.91,1.57,3.44,3.54,4.86,4.85l.87-4.72c-.51-3.57-.39-5.69-.46-9.06-.06-2.65.23-5.32-.27-7.95l-.2-1.11h0c3.32,2.3,5.73,9.97,10.39,9.66,1.73-.12,2.1-1.5,2.46-1.65,4.09-1.77,3.76-2.65,6.06-4.5,1.24-1,2.68-1.61,4.24-1.91-2.79-2.65.43-2.02.63-2.42,1.17-2.37-2.07-2.06-2.72-2.9-8.4,7.15-14.43,6.84-21.84-.7h0c-.57-.58-.93-1.45-1.5-2.02l-.52,3.52h0c-.24-.09-.45-.15-.65-.21.11-2.21-1.45-2.53-3.94-1.12l-6.17-1.33c-1.97-.25-4.14-.27-5.93-1.23-.12-.12-.24-.23-.36-.34-.71-.71-2.24-2.33-2.44-2.59,4.19-3.3,8.16.04,12.58.04ZM250.59,866.14c-1.02-.14-1.07-.52-.2-1.11,2.48,0,5.62-.88,8.06.3.55,4.41-6.16.58-7.86.81ZM223.16,848.68c-.36-1.12-1.82-.95-2.18-1.29.27-1.26-.87-3.08-2.6-4.84,1.61.81,3.1,1.28,4.23,1.13-1.58,1.46.7,4.55,2.42,5.76-.55-.08-.94.26-1.24.8-.24-.03-.6.06-1.11.28-.05-.3.71-1.13.48-1.84ZM207.46,833.26c.04.18.3.31.8.39-.11.78-.12,1.45.21,1.75.65.58,1.46,1.27,2.37,2.01-1.27-.47-2.37-.6-3.09-.24-.59-1.44-1.15-2.39-1.68-2.86.49-.24.96-.59,1.4-1.05ZM229.58,837.87h0s0,0,0,0ZM230.68,837.67h0,0s0,0,0,0ZM204.02,829.26c0,3.36-6.39.22-6.7.62l.38,2.22.2,1.11c4.45,3.88,8.92,7.57,13.44,11.33.02,1.92.52,2.59,1.5,2.02,2.8,2.3,4.81,3.58,7.83,5.47.72.45,1.31,1.77,2.61,1.82-.02.36-.86.94-.91,1.3h0c-7.69-3.59-16.44-5.35-26.24-5.28,2.2-3.81,3.83-16.65-1.86-11.45-.36-7.2,1.61-8.41,7.77-10.69h0s.63.06.63.06c.1.46,1.37,1.13,1.37,1.47ZM204.25,834.67c-.08.11-.15.23-.22.36l-1.04-.59c.44.14.85.21,1.26.23ZM199.57,824.79c-.48.1-.93.14-1.36.13.52-.1.97-.14,1.36-.13ZM193.94,822.06c-.14-.21-.28-.42-.42-.65h0l.42.65ZM187.78,821.28s0,0,0,0h0ZM266.77,892.99c-2.36,1.1-3.75.23-5.74-.13-2.03-.38-3.93-1.28-4.82-1.43-4.19-.71-8.59-.57-12.78-1.16h0s0,0,0,0c-.21-.03-.52-1.67-2.41-.72l-.51,3.52c-.3-3.72-6-4.54-7.26-2.12-.69,1.32,6.07,6.25-2.33,6.12,0,0,0,0,0,0-9.82-1.95-27.27-6.53-36.2-11.39-9.99-5.43-8.24-10.32-12.76-19.92,3.46,1.77,4.69,2.26,7.94-.27-1.68-3.83-1.04-4.33,2.93-2.81,6.18,3.82,9.77,7.59,14.74,12.24,2.19,1.97,2.37,2.32-.72,2.41h0c-1.85-1.16-5.51-2.13-7.59-4.09-1.6-1.51-2.8-5.59-5.17-6.13-3.51-.79-3.61,4.23-2.61,6.4,1.04,2.27,18.13,11.04,21.57,13,2.23,1.27,5.23,5.2,8.81,4.73l-7.9-6.04h0s0,0,0,0c-.24-.68-1.61-1.64-1.65-2.49-.03-.73,3.38-.58.57-4.55l.81-.91h0s0,0,0,0c3.3,1.69,10.44,4.56,12.45,5.79.19.03.37.03.54.02-.16,0-.34,0-.54-.02,2.55,1.57,1.9,6.46,4.69,7.16-1.17-1.94,2.36-7.93,1.97-8.31-.24-.23-4.06.33-3.92-2.77h0s0,0,0,0c2.32-3.19,10.3-9.91,10.22-13.24l2.22-.39c.37-.07.74-.14,1.11-.2l4.63.32c.37-.02.74-.18,1.11-.2,1.72-.07,1.56.92.39,2.22.49,5.7.6,8.85,3.66,14.21,2.6,1.82,5.3,3.56,7.83,5.47.78.59,1.3,1.72,2.61,1.82.03.4.25.83.2,1.11,2.29-.52,3.35,1.15,4.92,2,1.93,1.04,5.35,1.8,5.32,4.18-4.36.44-7.98,1.59-6.32-3.44ZM227.13,883.01s-.08.02-.12.02c.04,0,.08-.02.12-.02ZM275.26,908.62c-1.09.23-2.22.46-3.32.59-1.02.12-2.96,1.08-3.42.04,3.36-5.59,7.04-3,12.08-2.71.42,1.99-3.94,1.79-5.34,2.08ZM274.08,895.64c.1-3.68,1.14-15.55,4.55-17.21,1.86-.91,5.81,1.62,7.03-1.36-2.33-1.75-2.75-1.55-5.02-2.54-1.14-5.13,6.27-3.37,9.77-2.88-1.55-.34-2.29-1.33-2.42-2.36.86,0,1.56.19,2,.61.39.38.59.93.43,1.75,1.49.21,4.04,1.37,6.04,1.78,5.3,1.08,8.09-1.91,7.01,7.34-5.29-.28-10.81-.49-16.1-.57-11.88-.18-6.22,1.96-2.86,9.65l-5.06,3.75c.2.94,4.88.73,5.65-.43.14.5,1.37,1.19,1.5,2.01-3.83,2.69-8.28,1.25-12.51.47ZM282.95,900.39l-.39-2.21,4.42-.78c1.45.37-3.31,3.48-4.03,2.98ZM283.93,905.93l1.81-2.6c.73,2.26.56,2.5-1.81,2.6Z"/>
        <path class="cls-2" d="M294.35,746.43c.05-.02.12-.05.14-.08.02-.02-.03-.09-.09-.19,0,.01,0,.03,0,.04l-.04.22Z"/>
        <path class="cls-2" d="M295.73,721.35c-.31-.33-.96-.39-2.25.05-3.65,2.23-10.69,4.11-14.92,6.07,2.87,7.93,11.6-1,16.82-1.84-.25-1.04,1.1-3.48.35-4.28Z"/>
        <path class="cls-2" d="M377.95,785.28c3.15,4.5-5.38,8.75-7.81,13.95-.91.98-2.06,1.79-2.93,2.81l.79,4.43c.18-.22.93.02,1.11-.2l.91-1.3c.05-.32-.2-.72-.2-1.11l1.11-.2.91-1.3c1.82-1.98,13.23-16.11,12.96-17.15l-6.84.08Z"/>
        <path class="cls-2" d="M357.31,694.66c-.3-1.2-1.62.32-1.01.75.29.2,1.1-.37,1.01-.75Z"/>
        <path class="cls-2" d="M316.67,852.14c1.4-2.51-1.03-3.96-2.61-1.82.45.45,2.2.65,2.61,1.82Z"/>
        <path class="cls-2" d="M304.32,821.19l2.02-1.5c-2.57.12-3.24.62-2.02,1.5Z"/>
        <path class="cls-2" d="M248.81,765.89c.74-.14,1.48-.26,2.22-.39,1.43.64,10.53.19,12.21-.19.47-.11,7.81-3.09,8.84-3.54,5.03-2.23,5.83-5.32,6.18-10.24.52-7.21-.87-9.96-8.06-5.14-2.6,1.75-3.65,4.91-5.2,6.28-.6.53-2.13.22-2.45.5-4.27-.62-7.73,5.21-11.39,6.61l3.9,2.71c-2.75,1.56-5.57-1.07-7.57-.89-.83.07-1.35,1.36-1.49,1.37-.37.01-.74.15-1.11.2-.49.07-3.06-1.51-4.64-.31l1.52,2c-1.25,1.29-8.3-2.38-6.46,2.29,4.66-.56,8.78-.34,13.5-1.25Z"/>
        <path class="cls-2" d="M289.74,747.35c.1-.07.21-.13.31-.2-1.41.39-3.07.34-4.43.79,1.48,2.29,3.22.13,4.12-.59Z"/>
        <path class="cls-2" d="M367.14,794.21c1.19-1.31,8.36-3.24,8.99-6.31-2.82.79-12.05,5.17-13.61,6.97-1.75,2.03-1.05,2.85,1.5,2.02.25.7,2.14,1,2.93.63,1.79-.83.08-3.19.19-3.31Z"/>
        <path class="cls-2" d="M341.12,783.81c-.45.21-.72.52-.94.85-.37.55-.56,1.19-.88,1.76l1.11-.2.36.25.94.66c3.08.78,5.65,2.51,5.46-1.53-.08-.49-4.73-1.3-6.04-1.8Z"/>
        <path class="cls-2" d="M258.7,828.13c-1.39-.03-5.95,1.84-6.25,3.39,2.81,2.64,6.86-.06,6.25-3.39Z"/>
        <path class="cls-2" d="M266.12,811.96c1.17-1.98-5.37-8.14-6.16-8.63-2.26-1.41-4.51.34-6.88-.48-.4-.14-.83-.72-1.3-.91-2.84.56-5.3-.65-8.15-.84-1.28-.09-2.86.68-4.08-.39l.96,2.09c3.7,1.22,7.33,2.43,10.95,3.77,4.86,1.8,9.68,3.85,14.67,5.4Z"/>
        <path class="cls-2" d="M173.79,774.62c-.33.15-.78.05-1.11.2l.75.99.36-1.19Z"/>
        <path class="cls-2" d="M171.9,786.43c7.56-1.44,19.32-7.61,27.25-10.58.66-.25,1.53-.16,2.22-.39-.43-1.15-2.14-1.37-2.61-1.82-.25-.24.29-2.03-1.1-2.14-3.56-.27-8.75,2.99-12.94,3.56-3.69.5-6.32-.62-9.81-.62.86,3.58,1.3,4.42-1.04,7.04-.8.89-7.19,5.96-1.96,4.96Z"/>
        <path class="cls-2" d="M203.01,771.74l-.37,1.2,4.07.42c3.94-2.55,2.1-2.35,3.65-5.22.69-2.29.65-3.74.06-4.48,1.28-.5,2.35-1.47,3.19-2.96.68-1.77,1.88-3.25,2.54-5.02-4.54,2.03-9.26,3.85-13.81,5.88-.1,3.14,1.75,1.56,2.61,1.82.5.18.98.33,1.44.44-.4.19-.81.41-1.24.67-3.46,1.93-10.03,8.84-2.13,7.24Z"/>
        <path class="cls-2" d="M218.99,797.45l7.02,1.05c.05-1.84-1.01-2.87-1.88-4.24-.72.18-1.5.2-2.22.39l-2.93,2.79Z"/>
        <path class="cls-2" d="M216.62,784.17c.05.62.18,1.79.39,2.22.07.13.3.25.55.38l.76.53c1.38,2.05,3.15,3.41,4.31,4.95l1.11-.2c-.33-2.51-1.82-4.43-3.39-6.25-.22-.25-.6-.45-.94-.66l-.36-.25c-.54-.45-1.78-2.41-2.61-1.82l-.99.75,1.18.36Z"/>
        <path class="cls-2" d="M218.93,810.05l.2,1.11.61-.75c-.16-.37-.5-.26-.81-.36Z"/>
      </g>
    </g>
  </g>
</svg>