<?xml version="1.0" encoding="UTF-8"?>
<svg id="_레이어_2" data-name="레이어 2" xmlns="http://www.w3.org/2000/svg" xmlns:xlink="http://www.w3.org/1999/xlink" viewBox="0 0 399 1000">
  <defs>
    <style>
      .cls-1 {
        fill: none;
      }

      .cls-2 {
        fill: #e6e7e8;
      }

      .cls-3 {
        clip-path: url(#clippath);
      }
    </style>
    <clipPath id="clippath">
      <rect class="cls-1" width="399" height="1000"/>
    </clipPath>
  </defs>
  <g id="Layer_1" data-name="Layer 1">
    <g class="cls-3">
      <g>
        <path class="cls-2" d="M255.17,144.82c-.14-.03-.25-.05-.29-.08v.6c.4-.05.68-.09.89-.13.99-.19-.04-.29-.6-.4Z"/>
        <path class="cls-2" d="M315.84,107.99c.76-1.31,1.66-2.48,2.71-3.49-1.73.43-3.53.49-4.68,1.98-.04.05-.08.08-.11.13.03.02.08.01.12.02.44.13,1.16-.2,1.67-.33.5-.12.86-.85,1.19-.31-.34.22-.42.59-.59.91-.31.57-.73,1.06-1.2,1.51,1.94.57,1.62,1.25,0,2.1,1.48-.13,2.02-1.16.89-2.52Z"/>
        <path class="cls-2" d="M256.68,139.34c.39,1.28-.13,1.85,1.2,2.4-.21.42-.41.63-.6,1.2,1.62,1.1.56,4.05.75,4.7.09.3,4.3,3.02,4.05,4-.11.42-.58.28-.6.31-.38.88.78,1.49-1.8,1.2.06.18-.06.42,0,.6,2.5-.6,1.64,1.12,2.34,2,.56.71,2.17.34,2.47,1.6l2.96.07c15.61,4.15,31.38,8.44,46.67,13.76.9.31,1.74.79,2.58,1.3.85.51,1.65,1.09,2.45,1.69.15-.53.35-.51.6,0,.5.08,1.01,0,1.2.6.15-.52.36-.5.6,0l1.2.6c.2-.52.4-.52.6,0,1.24.28,2.65.06,3.6,1.2.11-.54.32-.51.6,0l29.39-24.37,1.84-3.27c-.52-.2-.52-.4,0-.6.25-1.26.08-2.65,1.2-3.6-.52-.16-.51-.36,0-.6l.6-1.2c-.52-.16-.51-.36,0-.6.02-.09.06-.21.12-.35l.49-1.46c-.52-.2-.52-.4,0-.6l.6-1.2c-.52-.2-.52-.4,0-.6.27-1.24.06-2.65,1.2-3.6-.52-.2-.52-.4,0-.6l.6-1.2c-.51-.15-.5-.35,0-.6,0-.4,0-.8,0-1.2-.4-3.33-1.95.04-2.13.04-3.75.16-2.76-6.82-1.54-8.71.63-.97,4.17.6,5.75.34.11-.03.2-.07.32-.09.42-1.73,1.39-3.48,1.8-5.41-3.27-4.16-3.84-2.2-7.2.6l-5.41-15.62c-3.19-2.72-6.37-5.65-9.61-8.41.04.04.06.08.06.12.03.31-.71.74-1.26.47-.23-.11-.14-.31.08-.47.3-.22.84-.38,1.12-.13-.51-.43-1.03-1.15-1.8-1.8h-1.8l.59,3c-1.2-.32-1.29-1.92-1.8-3-.27-.58-1.07-1.25-1.2-1.8l2.69,1.21.31-.61c-.75-.64-1.65-1.17-2.4-1.8-3.78-3.2-8.16-7.7-12.03-10.49-1.04-.75-2.53-.71-2.91-1-.19-.15.05-1.63-2.77-3.58-2.79-1.92-6.67-5.59-9.92-8.36l-.29,2.39c-1.81-.92-4.33-2.78-6.31-2.99-2.24-.24-1.87.83-3,2.4.06-.02.6.88,1.19.36.4-.35.75-1.49,1.21-2.16v.6l.6.6c-.02.3-.45.83-.6,1.2,1.65-.37,1.08,1.07,1.2,1.2.1.1.73-.17,1.05.1.16.14.73,2.56,1.35,3.5.72,1.09,2.18,3.13,3,4.2,1.57,2.05,2,1.85,3.22,3.05,5.59,5.53.44,4.69.41,9.31,0,.38,2.12-.6-.03,2.66.87,2.47,1.94,4.82,3,7.21.23.51.94,1,1.04,1.61.12.75-.39,1.07-.44,1.39-.39.03-.81-.05-1.2,0-.49.7-.75,1.26-.6,1.58.07.14.22.23.47.26.19.02.42.02.73-.03-.02.2.01.4,0,.6-.01.25.91,1.4.6,1.8-.21.27-3.48.28-2.4,1.81.27.37,1.48-2.17,2.38-.3-.63,1.68-2.32.78-2.39.9-.47.87,1.73,2.7-.92,2.98-.23.02-.65-1.12-.89-1.18-.56-.15-1.32-.03-2,.19-.29.14-.62.28-1,.42-.97.68-2.01,1.18-3,1.8.11.14.19.26.26.37.76.58,2.48-.64,2.74-.37,1.23,1.27-2.53,2.52-3.6.6-4.02,2.48-8.06,4.6-12.01,7.21-.12.08-.22.2-.32.32l-.28.28c-2.76,1.87-6.85,3.56-8.82,6.23-.38.52-.08,1.36-.21,1.58-.09.17-2.1-.81-3.9-.06-1.57.65-2.71,2.17-4.35,2.9-1.16.52-3.46.63-3.72.8-.09.06.74,1.37-.35,1.76-.6.06-1.04-.45-1.49-.6-.59-.21-1.13-.6-1.8-.6-.36.32-1.85,1.18-2.12,1.21-.34.04.04-1.88-1.48-1.21.74,2.76-1.12,2.26-1.2,2.4-.14.23.25,1.39-.07,1.71-.37.37-1.56-.07-1.73.09s.18,1.53,0,1.8c-.08.11-2.18-1.25-1.2,1.2-2.01.53-.89-1.5-1.2-1.8-1.28-1.23-1.26,2.08-2.1,2.4-.61.02-.16-.88-.3-1.2-.27.03-.5.03-.73,0,.19-.08.42-.08.73,0-.6-1.41-1.37-1.72-1.8-2.4l-1.2.6c.11.31-.1.87,0,1.2ZM323.37,157.36c.87.2,1.38.97,1.19,1.8h-1.2s0-1.8,0-1.8ZM334.18,129.73l1.2,1.2c-1.26.17-1.37.06-1.2-1.2ZM334.47,144.74v-.6c.39.2.39.4,0,.6ZM328.77,94.28c-.66-.66.54-1.85,1.2-1.2.66.66-.54,1.85-1.2,1.2ZM324.86,162.16c-1.64-.94-.4-1.88.29-1.2.04.04.23,1.27-.29,1.2ZM329.38,142.33c.38-1.85-1.77-.55-1.81-1.79,2.51-.45,4.87-1,1.81,1.79ZM333.57,132.13s.23,1.27-.29,1.2c-1.64-.94-.4-1.88.29-1.2ZM332.97,150.45c.94-1.64,1.88-.4,1.2.29-.04.04-1.27.23-1.2-.29ZM334.17,164.56c-.29-.23,1.05-1.59,1.8-1.19.29.23-1.05,1.59-1.8,1.19ZM316.75,71.45c-.27-.14-.02-.53.41-.67.22-.07.5-.07.78.08.2.1.12.34-.11.52-.24.19-.65.3-1.09.07ZM320.96,120.71c-.57-.12-2.07.94-2.4.61-.96-.96,2.09-2.67,2.4-.61ZM317.96,163.36v-.59s2.72.59,2.72.59c.51.42-.19.79-.32,1.2-.23.74-.14,1.65-1.2,1.8-.45.06-2.5-.51-3.01-.9.01-.74,2.56-.14,3.01.3l.6-1.2c.3-1.38-.6-1.29-1.8-1.21ZM315.54,116.51c.02.51-.08,1.18.21,1.59.33.47,1.59.93,1.6,2-.96.95-3.43-3.33-1.81-3.59ZM312.25,117.71v-.6c.39.2.39.4,0,.6ZM312.55,127.92l.29-1.8c1.14.8,1.02,1.29-.29,1.8ZM313.15,114.1l1.19-.59-2.4,2.4,1.2-1.81ZM311.94,120.12s.23,1.27-.29,1.2c-1.64-.94-.4-1.88.29-1.2ZM303.24,122.52c.39.2.39.4,0,.6v-.6ZM299.34,129.73h.59s.61,1.79.61,1.79c-1.58.3-1.26-.34-1.19-1.79ZM296.92,140.54c-1.07-.65-2.32-2.31-2.39-3.6,1.24.59,2.42,2.17,2.39,3.6ZM292.72,150.75c.06.47-.46,2.26-.6,2.4-.09.08-.39-.03-.59,0-.16-1.07.04-2.11,1.19-2.4ZM290.33,130.93h.59s0,1.8,0,1.8h-1.2s.61-1.8.61-1.8ZM286.1,148.36l.32,2.38c-1.58-.3-2.69-2.58-.32-2.38ZM270.2,142.34c.39.2.39.4,0,.6v-.6Z"/>
        <path class="cls-2" d="M309.2,113.28c-.11-.08-.2-.2-.26-.37-.23.14-.39.47-.6.6.85.53,1.21.37.86-.23Z"/>
        <path class="cls-2" d="M261.49,84.67c-.9.88-2,2.98-.31,2.4,1.04-.76,1.68-1.65,1.51-3,2.24-1.8,4.49-1.51,2.4-4.81,1.26-.26,2.52-.82,2.4-2.4-1.16.85-2.32,1.72-3.6,2.4-2.35,1.27-4.35.63-4,3.9.13,1.23.27,1.48,1.6,1.5Z"/>
        <path class="cls-2" d="M305.94,104.5c-2.2.85-1.05,1.09-1.8,1.8.26.86.93,1.19,1.8,1.2.08-.16-.08-.44,0-.6l-.59-.3.59-.3c.15-.29,1.13-.22,1.2-1.8,1.47,2.64.95.22,1.83-.28,1.12-.64,3.74-.45.58-1.82.56-1.23,1.95-.11,2.27-.42.28-.26.05-1.04.13-1.09.04-.01.07-.03.11-.04.55-.11,2.15.62,1.69-1.16-1-.12-.34-.26-1.8,0-.05-2.67.98-1.53,1.19-1.81.41-.56.24-.91-.17-1.1-.42-.19-1.08-.21-1.62-.09-.23.19-.26,1.2-.77,1.62-1.82,1.49-1.64-.01-3.43,3.19-.5.89-1.54,1.48-1.2,3ZM309.91,99.93c.09-.11.16-.21.23-.23l-.23.23c-.11.14-.23.29-.37.37l.37-.37ZM307.74,103.6c.01.21-.47.44-.6.3-.28-.28.56-.96.6-.3ZM311.05,100.89v-.6c.33.17.36.33.15.5-.04.03-.08.07-.15.1Z"/>
        <path class="cls-2" d="M306.86,64.3c.27,0,.52-.03.74-.12.35-.13.61-.38.72-.79,0-.02.02-.03.02-.05.21-.95-1.19-1.74-2.44-2.01-.54-.12-1.05-.14-1.39-.04-2.61.78.35,2.96,2.34,3.01Z"/>
        <path class="cls-2" d="M304.74,101.49v-.6c.5-.42,1.33-.48,1.2-1.19l-4.2-.6v2.09s1.51-.27,1.51-.27l-.91,1.78,2.4-1.2Z"/>
        <path class="cls-2" d="M254.87,102.69l-1.19-1.8-.6,3.6c.18.22,5.02-2.9,2.7-4.19l-.91,2.39Z"/>
        <path class="cls-2" d="M284.31,114.11c-.03.4.02.8,0,1.2,1.43.09,2.41-.48,3.6-.6-.61-1.79-2.2-1.05-3.6-.6Z"/>
        <path class="cls-2" d="M303.54,93.68c-.3.14-1.06-.39-1.23.36-.16.73.15,1.82.04,2.65,1.11-.23,1.25-1.43,1.2-2.4l3.61-1.5c-1.05-.86-2.64.44-3.61.9Z"/>
        <path class="cls-2" d="M298.13,75.06c.26,2.31-1.6-.03-1.8,2.4,1.95-.08,4.61-.66,1.8-2.4Z"/>
        <path class="cls-2" d="M255.42,99.63c.1-.06.87-2.08.66-2.34-2.95.67-2.96,3.74-.66,2.34Z"/>
        <path class="cls-2" d="M298.73,110.5v-.6c-.94-.31-.99.02-1.2,0v.6c.76.77.1.91,0,1.2-.14.41-.45.79-.6,1.2,1.63.02,1.92-.93,1.8-2.4Z"/>
        <path class="cls-2" d="M299.92,66.35l-.59-1.5c-2.24.78-.75,3.39.59,1.5Z"/>
        <path class="cls-2" d="M292.12,72.06c-.72.27-2.34,1.78-2.4,2.4h2.4c.03-.55-.47-1.54,0-2.4Z"/>
        <path class="cls-2" d="M287.92,88.88l1.8-.61c-.39-1.15-.93-1.39-1.8-.59,0,.07-.55.22-.51.73.02.22.5.35.51.47Z"/>
        <path class="cls-2" d="M280.11,73.86c2.2.8,5.07-.06,4.19-2.4l1.81-.3c-1.9-2.4-3.67.04-6.6.9-.34.1-1.1-.12-1.2,0-.84,1.03.94,1.49,1.8,1.8Z"/>
        <path class="cls-2" d="M290.92,114.71c.8-.02.89-.46,1.2-.6.05-.38-.08-.85,0-1.2-.51.3-1.66-.59-1.2,1.8Z"/>
        <path class="cls-2" d="M259.08,87.08h-1.2s0,1.8,0,1.8c.87-.2,1.38-.97,1.19-1.8Z"/>
        <path class="cls-2" d="M310.15,76.86v2.41c.57-.76.93-1.5,1.2-2.4h-1.2Z"/>
        <path class="cls-2" d="M298.04,93.67s.08,0,.09.02v-1.2c-.12.03-1.22-1.38-1.22.9,0,.47.84.28,1.13.28Z"/>
        <path class="cls-2" d="M298.73,95.49l-2.4,1.2c1.12-.53.98-.23,2.4-1.2Z"/>
        <path class="cls-2" d="M277.11,103.9c1.49-2.58.15-1.45-.44-1.24-.05,0-.1.02-.16.04l-.6,1.2c.39.05.82-.05,1.2,0Z"/>
        <path class="cls-2" d="M287.31,69.06c-.66-.66-1.85.54-1.2,1.2.66.66,1.85-.54,1.2-1.2Z"/>
        <path class="cls-2" d="M266.9,85.87c.66.66,1.85-.54,1.19-1.2-.66-.66-1.85.54-1.19,1.2Z"/>
        <path class="cls-2" d="M287.92,90.08c-.34.25-.91.36-1.2.6v1.2c.61-.14.98-.65,1.2-1.2-.08-.15.07-.42,0-.6Z"/>
        <path class="cls-2" d="M253.08,97.89c.66.66,1.85-.54,1.19-1.19-.36-.36-.86-.16-1.15.19-.24.29-.33.68-.06.98,0,0,0,.02.02.03Z"/>
        <path class="cls-2" d="M289.72,112.31h-.6c-.02.06-.01.14,0,.21.02.14.05.28,0,.39-.12.28-.41.53-.46.87,0,.01-.01.03-.01.04l.47.29c.19-.03.41.04.6,0-.1-.52.16-1.45,0-1.8Z"/>
        <path class="cls-2" d="M297.53,68.45c.68-.7-.26-1.93-1.2-.29-.08.52,1.15.34,1.2.29Z"/>
        <path class="cls-2" d="M299.93,100.29l.6,1.2c-.06-.54.23-1.23-.6-1.2Z"/>
        <path class="cls-2" d="M289.68,81.82c.01-.08.03-.14.04-.15h-.6c.28,2.54.46.72.56.15Z"/>
        <path class="cls-2" d="M299.33,63.06c-.84-.43-1.6.38-1.2.59.84.43,1.6-.38,1.2-.59Z"/>
        <path class="cls-2" d="M270.4,118.57l-.48,1.27c1.86-.39,1.36-.04.58,1.48-.07.27-.05.45.01.6.13.3.44.41.59.6-.36-2,.8-.87,1.8-1.2.35-.12.72-.08,1.17-.31,1.58-.81,2.35-2.26,3.63-2.69-1.63-3.06,2.01-5,4.81-4.2.42-.57.75-1.29,1.2-1.8.69-.79,2.32-2.82,3.6-1.8l1.5-1.8c.27.58.46.93.6,1.12.32.43.34-.05.32-.72-.02-.54-.07-1.19-.02-1.6h-.6c-1.88,1.07-1.92-.06-1.2-1.8.2-.49.15-.68.6-1.2.92-1.07,2.27-2.01,3.6-1.2.15-.39-.11-1.27,0-1.81,1.64,1.11,1.04.11,1.8-1.2.6-1.02,1.17-2.03,1.69-3.09.04-.07.08-.14.11-.22l-.24-.04-1.55-.26c-.26-1.03.9-.38,1.11-.65.11-.14-.43-1.88.09-3.55.3-.96,1.47-2.47,1.8-3.6-.15.09-.54-.13-.82,0-.67.29,0,1.45-.97,1.21-.35-2.8,1.96-2.18.6-5.4l1.52,1.18c1.93-.72.11-1.57,2.67-.58-.06-.55.45-.88.6-1.2.3-.65.51-1.04.6-1.8h1.8c.12-.33.43-.7.6-1.2.32-.07.42.9,1.2,0,.24-.28.35-.86.6-1.2.34-.46.4-.89.6-1.2.35-.55,2.9-1.69,0-1.8-.4.21-.8.41-1.2.6.05-.17-.04-.4,0-.6.03-.19-.04-.41,0-.6l-.6.6c-2.19.08-2.35,1.46-3.6,3-1.21,1.48-.33,1.39-2.4,2.4l-1.67-1.38-.14-.12.16-.19,1.65-1.91c-.31-.05-.65-.01-.97.1-.32.11-.62.28-.84.5-.38.38-.41,1.75-1.2,1.8.18.15-.53,1.83,1.2.6v.68c-.02.15-.03.31,0,.53-.46.19-1.04.55-1.2.6-.17.06-.3.7-1.2.6v.6l-.6.6c-1.43.56.3.54.4.73.13.25-.32.64-.19.93.08.18.93.1.92.39-.04.81-.97,2.04-.34,3.15l.4.5c-.18-.16-.3-.33-.4-.5l-.8-1.01c-1.06-.22-.38.89-.59,1.2-.28.41-1.03.84-1.2,1.2-1.25-1.94.94-3.05,1.2-4.21.24-1.08-.31-1.22-.6-1.8l-1.8,1.22.6,1.18c-3.12,1.31-1.37.99-1.2,3.6.01.2,0,.4,0,.6-.14.07-.28.24-.39.39l-.21.21c-.44.14-1.26-.1-1.8,0-.32.56-.86,2.66-1.2,3.6-2.66,1.87-1.23-2.65-3.29,1.17,0,.01,0,.02-.02.03v-.03s.89-3.27.89-3.27l-2.39-.29c-.38,1.34-1.03,1.9-1.2,2.4-.17.48-1.18,5.12-1.2,5.41.25-.02.45.03.64.09-.2-.01-.41-.04-.64-.09-.09,1.19,1.76,3.38-.6,4.2v.6c-.26.13-.42.49-.6.6-1.01.6-1.77,1.08-1.8,2.4-1.62,1.55-3.18,3.24-4.81,4.81,1.04,2.35.33,2.76-1.8,3.6h1.2s-.1.26-.1.26ZM290.92,94.29c.28.28-.56.96-.6.3-.01-.21.47-.44.6-.3ZM294.52,92.94v.14c-.05.01-.08,0-.13.02.05-.05.09-.11.13-.16ZM290.88,92.17l.03.02s-.05.08-.12.12c-.17.08-.46.12-.47.18v-.6l.56.29ZM284.91,100.29c.17-.74.84-1.3,1.1-1.64.03-.06.05-.11.1-.16.06-.18-.06-.42,0-.6l3-1.2c-.14.68-.49,1.32-.47,2.04l.47.37c-.34.28-.46.76-1.2,1.2-.72.43-2.14.87-3,1.2-1.72.66-1.95,1.45-1.8-1.2.71-.41.71-.86,1.8,0ZM280.15,104.99c0-.16.05-.29.13-.4.49-.6,2.16-.44,3.43-.69.99-.77.61-.94,2.4-1.8-.04.02-.09.09-.15.17-.28.4-.75,1.35-1.05,1.63-.38.06-.84-.07-1.2,0-.83.64-2.39,2.04-3,2.4-.41-.59-.56-1-.56-1.31Z"/>
        <polygon class="cls-2" points="253.38 111.69 253.68 111.1 253.08 111.1 253.38 111.69"/>
        <path class="cls-2" d="M269,108.1v.6c.39-.2.39-.4,0-.6Z"/>
        <path class="cls-2" d="M291.52,75.06l-.59.3.59.3c-.01-.2,0-.4,0-.6Z"/>
        <path class="cls-2" d="M368.41,114.11c-.01-.82.28-1.39-.6-1.2-.23.58.6,1.13.6,1.2Z"/>
        <path class="cls-2" d="M253.43,138.77c.12-.46-.05-.92-.65-1.23l-.3,2.4c.07-.04.12-.09.18-.14.4-.3.67-.66.77-1.03Z"/>
        <path class="cls-2" d="M254.94,140.33c-.13-.4-.47-.61-.63-.42,0,.01-.02.01-.03.03-.43.84.38,1.6.59,1.2.15-.3.15-.58.07-.81Z"/>
        <path class="cls-2" d="M308.94,78.07l-.58.84.58.36c.31-1.44,0-1.12,0-1.2Z"/>
        <path class="cls-2" d="M302.34,69.06c-.2,0-.4-.02-.6,0-.4.03-.8-.02-1.2,0-.39.69-.42,2.16-.6,3-.06.3-.7.89-.67,1.35,0,.11.06.21.17.31.06.05.11.1.2.14l2.11-2.4c.05.16.48.37.6.6-.08.29-.43.6-.58.9l.58.3-2.4,2.4c1.62.14,3.02-.85,4.2-1.8.08-.44-.6-1.08-.6-1.2,0-.2,0-.4,0-.6,0-.15.52-2.82.6-3-1.11-.45-1.27-.03-1.8,0Z"/>
        <path class="cls-2" d="M304.14,69.06c.18.07.46-.08.6,0,.54-.26.44-.8.6-1.2-.65.14-.95.64-1.2,1.2Z"/>
        <path class="cls-2" d="M306.55,72.06c.94.29.95-1.53,0-1.8v.6c.12.14-.08.84,0,1.2Z"/>
        <path class="cls-2" d="M306.73,73.21c.31.18.77.27,1.01.05.13-.12.05-.29-.12-.43-.25-.21-.71-.35-1.08-.17-.27.13-.1.37.19.54Z"/>
        <path class="cls-2" d="M314.69,109.29c.14-.06.27-.18.26-.28-.03-.45-.42-.28-.58-.03-.03.05-.05.09-.06.14-.01.07,0,.14.04.19.06.06.21.04.34-.02Z"/>
        <path class="cls-2" d="M316.75,98.49s.04-.11.03-.19c-.03-.16-.14-.33-.27-.38-.02,0-.04-.03-.06-.03-.32.02-.32.23-.21.41.03.05.07.1.12.14.13.11.29.16.39.05Z"/>
        <path class="cls-2" d="M283.41,93.68h0s0,0,0,0c.39-.2.39-.4,0-.6v.6Z"/>
        <path class="cls-2" d="M277.54,98.14c-.14-.25-.31-.39-.44-.25l-.59,1.77v.03s0,0,0,0c1.52.49,1.39-.9,1.04-1.55Z"/>
        <path class="cls-2" d="M293.92,110.51c-.7,0-1.29-.14-1.61.01-.16.08-.25.24-.23.54,0,.1.02.21.05.34.07.17.51.16.6.3.33-.54,1.47-.41,1.2-1.2Z"/>
        <path class="cls-2" d="M43.59,447.95c.07-.19.14-.34.18-.39l-.85-.16c-.04.58-.06.98-.06,1.28,0,1.45.43.03.72-.73Z"/>
        <path class="cls-2" d="M79.43,543.39c1.65,1.42,3.06,3.01,4.21,4.76-.15-2.56.25-5.11-1.54-7.13-.06-.06-.09-.13-.15-.19-.03.04-.04.11-.06.16-.3.59-.03,1.69.02,2.45.04.73.98,1.44.12,1.76-.21-.54-.72-.74-1.13-1.07-.73-.59-1.31-1.31-1.81-2.1-1.32,2.58-2.21,1.94-2.97-.56-.21,2.12,1.1,3.17,3.32,1.93Z"/>
        <path class="cls-2" d="M73.72,532.61c.15-.13.34-.22.59-.27-.14-.36-.56-.68-.69-1.01-.98,1.05-.85,1.61.09,1.27Z"/>
        <path class="cls-2" d="M140.46,536.11c.01.09-1.4.62-.83,1.58.39.65,1.91,1.46,2.73,2.29l-.85-.16-1.01.69c-.42-.12-1.05-.86-1.54-1.17.07,2.43-1.81,1.23-2.02,1.37-.16.11.05,1.07-.43,1.46-.24.19-3.82.35-5.31.96-1.74.72-5.01,2.24-6.75,3.11-3.31,1.67-3.14,2.33-5.18,3.72-9.32,6.4-6.74-.64-13.27-1.91-.54-.11.28,3.15-3.75-.75-3.72.56-7.34,1.45-10.99,2.3-.78.18-1.67,1.06-2.55,1.04-1.09-.03-1.4-.83-1.85-1,.06-.56.29-1.13.32-1.69-.86-.88-1.58-1.4-2.07-1.28-.22.06-.38.25-.49.6-.08.26-.14.59-.15,1.04-.27-.08-.57-.09-.85-.16-.34-.09-2.22.91-2.7.37-.33-.37.53-4.99-1.92-3.87-.6.27,2.67,2.66-.21,3.44-2.2-1.35-.48-3.48-.63-3.61-1.1-.89-4.28,1.72-3.97-2.1.03-.34,1.75-.62,1.91-.94.37-.75.4-1.85.27-2.88-.12-.45-.23-.95-.32-1.52-.69-1.56-1.13-3.16-1.74-4.72-.23.12-.42.21-.59.27-1.02.91.24,3.66-.21,3.96-2.12,1.39-2.89-4.25.12-5.24-2.42-6.34-4.35-12.6-6.98-18.88-.08-.19-.23-.37-.37-.54l-.32-.47c-1.91-4.4-3.21-10.62-6.45-14.11-.63-.68-1.9-.48-2.18-.71-.22-.18,1.71-2.74,1.13-5.49-.51-2.38-2.35-4.41-2.94-6.91-.42-1.78.03-5.04-.14-5.46-.06-.14-2.14.68-2.4-.96.08-.86.91-1.35,1.25-1.94.45-.78,1.15-1.44,1.33-2.38-.36-.59-1.17-2.93-1.14-3.32.04-.49,2.64.56,2.1-1.76-4.11.31-2.9-2.18-3.08-2.34-.28-.25-2.03-.01-2.4-.55-.42-.62.51-2.18.33-2.47-.18-.29-2.21-.16-2.54-.49-.14-.14,2.35-2.74-1.37-2.01-.21-2.98,2.35-.86,2.86-1.22,2.07-1.47-2.61-2.34-2.83-3.61.13-.86,1.29,0,1.77-.1.02-.38.1-.72.2-1.03.06.29,0,.62-.2,1.03,2.16-.46,2.79-1.48,3.88-1.9l-.53-1.86c-.47.07-1.2-.38-1.7-.32-1.92.21-2.58-.68-3.72,1.05-.54-.42-.78-.75-1.54-1.17-1.99,1.98-5.88-.3-6.85-.2-.45.04-5.42,5.25-6.74,4.64-.56-.26-.23-.89-.27-.92-1.14-.77-2.32.71-1.22-2.86-.27.04-.58-.2-.85-.16.17,3.68-2.02,2.01-3.46,2.76-1.16.6-1.06,2.97-2.92,3.05l-.9,4.16c-10.04,20.9-20.33,41.99-31.93,62.13-.68,1.18-1.59,2.24-2.52,3.3-.94,1.06-1.98,2.04-3.05,2.99.7.35.63.63-.16.85-.24.68-.26,1.43-1.17,1.53.69.36.62.64-.16.85l-1.17,1.53c.68.42.63.7-.16.85-.72,1.67-.79,3.73-2.66,4.76.73.3.64.58-.16.85l26.58,47.99,4.12,3.47c.42-.68.7-.62.85.16,1.71.69,3.72.82,4.77,2.66.37-.69.65-.62.85.16l1.54,1.17c.37-.69.65-.62.85.16.12.06.28.15.46.26l1.93,1.07c.42-.68.71-.63.85.16l1.54,1.17c.42-.68.71-.63.85.16,1.68.72,3.73.8,4.77,2.66.42-.68.7-.62.85.16l1.54,1.17c.34-.68.62-.61.85.16.56.12,1.13.21,1.7.32,4.81.32.47-2.76.51-3.02.77-5.33,10.38-2.07,12.72.17,1.2,1.15-1.97,5.72-2.02,8.02,0,.17,0,.33.04.47,2.33,1.06,4.55,2.89,7.16,3.99,6.76-3.5,4.14-4.82,1.08-10.32l23.53-3.45c4.7-3.77,9.69-7.47,14.46-11.3-.06.05-.13.06-.19.06-.44-.04-.85-1.2-.33-1.91.22-.3.47-.11.64.24.24.49.31,1.29-.12,1.61.74-.6,1.9-1.15,3.03-2.06l.48-2.54-4.4.03c.78-1.6,3.07-1.3,4.73-1.73.9-.23,2.05-1.17,2.87-1.21l-2.43,3.47.77.6c1.1-.89,2.09-2.02,3.19-2.91,5.53-4.47,13.07-9.44,18.05-14.16,1.34-1.27,1.68-3.38,2.19-3.83.26-.23,2.29.51,5.8-2.95,3.46-3.42,9.68-7.91,14.48-11.75l-3.3-1.06c1.79-2.3,5.08-5.36,5.92-8.1.94-3.1-.67-2.86-2.59-4.88ZM-4.25,556.93c-.4.35-1.97-1.91-1.2-2.86.4-.35,1.97,1.91,1.2,2.86ZM-1.77,534.58c-.99-.53-2.3-.64-2.23-2.18.03-.66,1.39-3.39,2.08-4,1.04.21-.49,3.64-1.23,4.16l1.54,1.17c1.87.79,1.99-.51,2.19-2.21l.83.16-1.56,3.68c-.73.61-1.07-.48-1.62-.77ZM2.04,542.32c-.07.05-1.86-.02-1.61-.74,1.76-2.06,2.76-.07,1.61.74ZM4.76,541.96l.32-1.69,2.54.49c-.52,1.17-1.74,1.68-2.86,1.2ZM14.07,557.77c-.05-.07.02-1.85.74-1.61,2.07,1.76.07,2.76-.74,1.61ZM22.48,559.81l.85.16c-.39.5-.67.44-.85-.16ZM21.93,497.82c-.1-.14.15-.55.15-.83,1.56.06,2.97.61,3.07,2.32-.68-.04-3.07-1.26-3.23-1.49ZM27.25,553.27c2.51,1.03,1.25-2.35,3.01-2.07-.04,3.66.11,7.13-3.01,2.07ZM30.31,490.62l-3.44-.19c.85-2.15,4.37-3.1,3.44.19ZM43.07,469.8c-.39.5-.67.44-.85-.16l.85.16ZM40.55,561.91c-.07.05-1.86-.02-1.61-.74,1.76-2.06,2.76-.07,1.61.74ZM41.78,564.78c.09-1.82.28-1.94,2.01-1.37l-2.01,1.37ZM38.47,507.98c1.21-1.34,3.88-2.65,5.73-2.41-1.17,1.59-3.72,2.83-5.73,2.41ZM51.45,499.92l2.37,1.34-.16.83-2.54-.48.32-1.69ZM53.11,514.28l-.16.83-2.7.38c0-2.3.82-1.68,2.85-1.2ZM52.12,533.4l2.47.89c-1.44,1.39-2.1,1.09-2.47-.89ZM63.32,534.64c-.07.05-1.86-.02-1.61-.74,1.76-2.06,2.76-.07,1.61.74ZM62.26,521.71c-.39.5-.67.44-.85-.16l.85.16ZM60.07,547.19c.32-.78-.77-3.17-.21-3.54,1.62-1.1,3.22,3.66.21,3.54ZM65.15,540.54c-.75.34-1.74,2-3.26,1.72-1.09-1.6,5.63-3.95,5.57-1.59-.72-.1-1.65-.43-2.3-.14ZM66.64,535.71l.85.16c-.39.5-.67.44-.85-.16ZM69.27,535.77l2.23,2.18.51,1.84-2.75-4.02ZM96.71,567.3c-1.1.75-2.47-1.26-1.37-2.01,1.1-.75,2.47,1.26,1.37,2.01ZM131.34,556.32c-.2.25-.51.07-.7-.29-.2-.39-.24-1,.19-1.55.27-.34.76.11.83.76.03.33-.03.72-.32,1.08Z"/>
        <path class="cls-2" d="M139.5,508.7l-.06,2.64c3.9-2.04.93-5.19.5-9.56-.05-.5.46-1.52.32-1.69-1.24-1.46-2.35.93-3.02,2.06-1.72,2.89-1.27,7.17,2.27,6.56Z"/>
        <path class="cls-2" d="M143.59,542.43c-.08.38-.09.75-.03,1.08.09.52.37.96.93,1.22.03.01.04.03.07.05,1.29.55,2.78-1.21,3.5-2.9.31-.72.48-1.44.42-1.95-.4-3.89-4.28-.3-4.88,2.5Z"/>
        <path class="cls-2" d="M94.44,542.28c.68.72,1.22.58,1.6.06.39-.53.59-1.46.57-2.26-.2-.37-1.63-.69-2.08-1.52-1.62-2.96.46-2.3-3.59-5.7-1.13-.95-1.68-2.57-3.92-2.5-.61-3.33-1.26-1.78-2.07-3.02-1.29.14-1.93.99-2.18,2.22.2.16.64,0,.85.16l.59-.75.26.91c.37.28,0,1.65,2.23,2.18-4.13,1.37-.56,1.28-.1,2.65.6,1.75-.36,5.4,2.42,1.31,1.59,1.11-.36,2.78-.02,3.31.3.47,1.45.35,1.51.47,0,.06.02.11.03.16,0,.81-1.45,2.86,1.19,2.7.44-1.38.46-.41.48-2.54,3.79.65,1.9,1.8,2.24,2.16ZM87.8,533.14c-.3-.04-.49-.77-.26-.93.48-.32,1.2,1.04.26.93ZM90.74,538.53l.13.02.72.14c-.32.41-.57.42-.75.07-.04-.07-.07-.13-.1-.23ZM91.99,536.57l.42.61c.13.15.25.29.27.39l-.27-.39c-.16-.19-.35-.4-.42-.61Z"/>
        <path class="cls-2" d="M91.58,529.47l.85.16c.45.82.32,2.01,1.37,2.01l1.98-5.76-2.95-.56-.02,2.21-2.27-1.76,1.05,3.71Z"/>
        <path class="cls-2" d="M106.36,460.74l-3.13-1.92,2.86-1.19-4.93-1.81c-.36.19,2.76,7.86,5.21,4.93Z"/>
        <path class="cls-2" d="M77.51,496.96c-.51,1.99.03,3.53-.11,5.24,2.7-.37,2.08-2.82,1.81-4.92-.55-.15-1.14-.19-1.7-.32Z"/>
        <path class="cls-2" d="M127.79,524.05c-.41,2.77-.3,6.68,2.91,3.19-3.33-.25.47-2.24-2.91-3.19Z"/>
        <path class="cls-2" d="M123.62,471.9c.8,1.67,1.89,2.81,3.83,2.93,1.95,3.65.94,6.73,6.15,4.68.02,1.85.48,3.78,2.76,4.02-.89-1.87-1.8-3.74-2.43-5.72-1.16-3.65.27-6.3-4.45-6.69-1.78-.15-2.16-.02-2.55,1.85-1.01-1.5-3.68-3.62-3.31-1.08Z"/>
        <path class="cls-2" d="M102.09,529.71l1.15,5.49c1.5-1.25.09-3.85-.3-5.33-.12-.46.83-1.4-.18-1.83-.99-.43-2.61-.28-3.75-.66.02,1.63,1.69,2.15,3.08,2.33Z"/>
        <path class="cls-2" d="M110.54,461.97c-.16-4.34-4.49-5.17-3.13-1.56.06.16,2.7,1.78,3.13,1.56Z"/>
        <path class="cls-2" d="M142.54,532.1l2.28-.44c-.51-3.36-4.59-1.96-2.28.44Z"/>
        <path class="cls-2" d="M133.81,515.54l-.64,3.39c.78.18,2.31-.25,3.4.64-.19-1.09-1.89-3.77-2.75-4.03Z"/>
        <path class="cls-2" d="M115.61,509.45c-.1-.03-.16-.84-.9-.91-.32-.03-.63.6-.8.59l.38,2.7c1.74-.25,2.21-.94,1.32-2.38Z"/>
        <path class="cls-2" d="M77.12,508.3c.53.18,1.22.12,1.7.32-.29-.79,1.27-2.19-2.23-2.18-.18,1.14.41,1.37.53,1.86Z"/>
        <path class="cls-2" d="M124.17,468.95l.32-1.69-2.54-.48c.05,1.28,1,2.2,2.22,2.16Z"/>
        <path class="cls-2" d="M124.63,545.39l.33-1.69-3.4-.65c.92,1.01,1.87,1.72,3.08,2.34Z"/>
        <path class="cls-2" d="M104.43,522.12c-.01.06-.03.11-.05.12l1.7.32c-.02-.17,2.27-1.35-.95-1.96-.67-.13-.62,1.11-.7,1.52Z"/>
        <path class="cls-2" d="M101.68,522.61l-1.06-3.71c.45,1.72.07,1.45,1.06,3.71Z"/>
        <path class="cls-2" d="M97.44,489.57c0-.07,0-.15,0-.23l-1.53-1.17c-.17.54-.15,1.17-.33,1.69,3.25,2.8,2.01.6,1.87-.29Z"/>
        <path class="cls-2" d="M140.72,511.59c-1.1.75.27,2.75,1.37,2.01,1.1-.75-.27-2.75-1.37-2.01Z"/>
        <path class="cls-2" d="M123.78,480.29c-1.1.75.27,2.75,1.37,2.01,1.1-.75-.27-2.75-1.37-2.01Z"/>
        <path class="cls-2" d="M110.83,506.79l-.85-.16c.03.9.65,1.56,1.38,2.02.23-.07.57.21.85.16-.26-.55-.26-1.37-.53-1.86l-.85-.16Z"/>
        <path class="cls-2" d="M111.87,459.59c.6-.41.46-1.17.04-1.68-.34-.42-.87-.65-1.37-.35-.01,0-.03,0-.04.02-1.1.75.27,2.75,1.37,2.01Z"/>
        <path class="cls-2" d="M78.46,503.48l-.54.58c0,.28-.16.57-.16.85.76,0,2.01.61,2.55.48l.16-.85c-.09-.04-.19-.06-.3-.06-.2-.01-.41,0-.55-.1-.37-.25-.64-.72-1.1-.88-.02,0-.04-.02-.06-.03Z"/>
        <path class="cls-2" d="M81.3,518.74c.69-1.25.23-1.4.32-1.69l-.85-.16c-1.29.87-1.31-.11-1.7-.32-.54-.3-1-.84-1.54-1.17-.46,2.29.81,2.96,2.91,3.19l.85.16Z"/>
        <path class="cls-2" d="M140.95,526.55c-.72-.25-.79,1.53-.74,1.61.8,1.15,2.8.16.74-1.61Z"/>
        <path class="cls-2" d="M94.56,523.01l-1.86.53c.77.06,1.68.65,1.86-.53Z"/>
        <path class="cls-2" d="M123.41,513.51c.11.04.19.08.21.1l.16-.85c-3.67-.29-1.14.46-.37.75Z"/>
        <path class="cls-2" d="M147.36,532.15c.84-1.07-.11-2.36-.51-1.84-.84,1.07.11,2.36.51,1.84Z"/>
        <path class="cls-2" d="M72.07,479.25c.07.53-.08,1.04.13,1.74.73,2.44,2.57,3.92,2.84,5.84,4.77-1.48,6.54,4.17,4.66,7.9.69.74,1.62,1.41,2.23,2.18.93,1.18,3.36,4.03,1.58,5.57l2.14,2.6c-.9.22-1.44.4-1.74.55-.7.34-.02.5.94.64.76.12,1.71.22,2.27.4l.16-.85c-1-2.94.6-2.69,2.87-1.21.64.42.92.4,1.54,1.17,1.14,1.43,2.03,3.31,1.11,4.89-.12.15-.25.32-.37.51.5.32,1.82.19,2.55.49-2.01,2.01-.43,1.43,1.21,2.86,1.29,1.11,2.55,2.19,3.92,3.21.09.07.18.15.28.21l.12-.33.78-2.12c1.52-.09.3,1.38.62,1.74.17.2,2.78-.09,5,1.08,1.28.68,3.1,2.74,4.61,3.51-.08-.24.33-.72.23-1.16-.23-1.02-2.05-.38-1.45-1.7,4.06.26,2.56,3.35,7.48,2.3l-2.08,1.83c.5,2.92,2.19.58.11,3.93.79.06,1.12.87,1.54,1.17.84.6,1.34.99,2.39,1.33l-.16.85-.32,1.69c.44.26.87.79,1.54,1.17.01.47-1.39.35-.32,1.69.33.41,1.12.72,1.54,1.17.56.6,1.15.81,1.54,1.17.69.64,1.62,4.55,2.55.48-.18-.62-.36-1.23-.53-1.86.23.12.57.06.85.16.27.1.59.06.85.16l-.69-1.01c.47-3.11-1.44-3.71-3.28-5.89-1.77-2.1-1.88-.84-2.75-4.03l2.4-1.98.2-.17.22.28,2.26,2.84c.16-.43.19-.91.12-1.39-.07-.48-.24-.95-.48-1.31-.43-.64-2.37-1.05-2.23-2.18-.26.21-2.44-1.24-1.17,1.53l-.96-.18c-.2-.07-.44-.12-.74-.14-.14-.7-.5-1.61-.53-1.86-.03-.25-.91-.61-.53-1.86l-.85-.16-.69-1.01c-.41-2.17-.84.28-1.14.37-.39.11-.83-.62-1.27-.52-.27.06-.4,1.29-.8,1.19-1.14-.27-2.62-1.91-4.37-1.33l-.81.43c.28-.2.55-.34.81-.43l1.64-.86c.6-1.44-1.16-.78-1.54-1.15-.51-.51-.91-1.68-1.38-2.02,3.08-1.24,4.06,2.15,5.62,2.82,1.46.63,1.81-.11,2.71-.36l-1.25-2.86-1.83.52c-1.02-4.76-1.03-2.2-4.77-2.66-.29-.03-.56-.12-.85-.16-.05-.22-.27-.45-.45-.65l-.24-.35c-.08-.66.47-1.75.48-2.54-.7-.6-3.54-1.93-4.77-2.66-1.94-4.26,4.08-1.03-.78-4.95-.01-.01-.02-.02-.03-.03l.04.02,4.39,2.12,1.06-3.29c-1.79-.9-2.4-1.95-3.08-2.34-.64-.37-6.93-3.04-7.32-3.14-.05.36-.16.63-.3.87.07-.28.16-.56.3-.87-1.65-.45-5.25,1.58-5.78-1.97l-.85-.16c-.12-.4-.59-.72-.69-1.01-.58-1.59-1.05-2.79-2.91-3.19-1.76-2.71-3.73-5.36-5.51-8.07-3.6.84-3.99-.27-4.61-3.51l-.32,1.69-.33-.21-1.66-1.02c.05,2.73-.31,1.93-2.25.43-.36-.18-.63-.2-.85-.15-.45.1-.7.52-1.01.67,2.92.03,1.02,1.36,1.22,2.86ZM106.21,517.32c0-.08,0-.12,0-.19.06.08.13.15.19.23l-.2-.04ZM105.2,510.99c.3.04.49.77.26.93-.48.32-1.2-1.04-.26-.93ZM109.02,511.71l-.55.71-.03.04c-.07-.02-.11-.1-.13-.2-.07-.26-.05-.69-.13-.71l.85.16ZM98.58,501.84c1,.43,1.61,1.54,2.02,1.99.07.06.15.1.2.18.24.13.61.03.85.16l.9,4.56c-.92-.39-1.74-1.04-2.75-1.21l-.64.56c-.3-.56-.96-.86-1.38-2.02-.41-1.14-.66-3.25-.89-4.56-.47-2.6-1.53-3.14,2.18-2.22.4,1.11,1.03,1.24-.48,2.54ZM93.74,494.15c.72.85.05,3.17.06,5.02.82,1.61,1.17,1.12,1.9,3.87-.02-.06-.1-.16-.2-.27-.48-.5-1.71-1.41-2.02-1.91.02-.55.33-1.16.32-1.69-.69-1.35-2.24-3.92-2.59-4.88.94-.42,1.57-.53,2.01-.44.22.05.4.15.52.3Z"/>
        <polygon class="cls-2" points="91.81 454.04 90.9 454.3 91.65 454.88 91.81 454.04"/>
        <path class="cls-2" d="M91.8,477.29l-.85-.16c.18.6.46.66.85.16Z"/>
        <path class="cls-2" d="M132.48,517.92l-.26-.91-.59.75c.28.04.57.11.85.16Z"/>
        <path class="cls-2" d="M56.71,615.89c1.16.2,1.89.77,1.85-.52-.76-.48-1.75.54-1.85.52Z"/>
        <path class="cls-2" d="M52.61,447.11c.62.29,1.31.18,1.92-.59l-3.31-1.06c.04.11.1.2.15.3.32.64.76,1.13,1.25,1.36Z"/>
        <path class="cls-2" d="M50,448.83c.6-.08.99-.5.76-.77-.01-.02-.02-.04-.03-.05-1.08-.84-2.37.11-1.85.51.38.29.78.36,1.13.32Z"/>
        <path class="cls-2" d="M123.57,541.68l-1.03-1.05-.67.73c1.96.83,1.59.3,1.7.32Z"/>
        <path class="cls-2" d="M138.08,534.78c.04-.28.13-.56.16-.85.06-.57.25-1.13.32-1.69-.87-.74-2.94-1.17-4.09-1.65-.41-.17-1.07-1.23-1.73-1.31-.16-.02-.32.03-.48.15-.08.07-.17.13-.25.25l2.83,3.61c-.23.03-.65.57-1.01.69-.39-.19-.73-.77-1.12-1.07l-.58.74-2.75-4.03c-.63,2.25.39,4.49,1.42,6.41.61.23,1.69-.55,1.86-.53.28.04.57.1.85.16.22.05,3.85,1.49,4.09,1.65.94-1.44.38-1.78.48-2.54Z"/>
        <path class="cls-2" d="M137.59,537.32c-.15.24,0,.67-.16.85.23.83,1.02.84,1.54,1.17-.03-.96-.65-1.51-1.38-2.02Z"/>
        <path class="cls-2" d="M135.25,540.39l-.85-.16c-.23.12-1.17-.33-1.69-.31-.67,1.24,1.9,1.75,2.54.47Z"/>
        <path class="cls-2" d="M131.32,541.23c.36-.29.68-.9.53-1.48-.11-.41-.5-.24-.82.12-.34.39-.59,1.01-.34,1.41.13.21.39.15.63-.05Z"/>
        <path class="cls-2" d="M77.97,540.93c-.11.07-.12.28-.07.48.05.22.18.43.33.45.64.08.5-.52.2-.81-.06-.06-.12-.1-.19-.12-.09-.04-.19-.05-.28.01Z"/>
        <path class="cls-2" d="M93.01,546.55c-.08.03-.16.07-.22.13-.19.15-.3.36-.18.54.05.07.15.09.27.09.23,0,.51-.11.61-.27.02-.03.05-.05.06-.08.06-.46-.24-.52-.52-.4Z"/>
        <path class="cls-2" d="M108.32,501.49c.18.6.46.65.85.16l-.85-.16h0s0,0,0,0Z"/>
        <path class="cls-2" d="M101.69,490.14s0,0,0,0c-1.09,2.01.91,2.2,1.91,1.87.4-.13.64-.34.47-.55l-2.34-1.31-.03-.02Z"/>
        <path class="cls-2" d="M82.14,509.53c-.07-.25-.27-.42-.7-.47-.14-.02-.29-.03-.49-.03-.26.05-.36.68-.59.76.67.61.19,2.18,1.37,2.01.19-.99.54-1.79.41-2.27Z"/>
        <path class="cls-2" d="M408.71,785.74l-24.18-75.94-4.89-6.12c-.79.84-1.17.68-1.16-.47-2.24-1.46-5.07-2.23-6.04-5.15-.72.88-1.1.7-1.16-.47l-1.86-2.1c-.72.87-1.1.7-1.16-.47-.16-.11-.36-.29-.58-.5l-2.44-2.08c-.8.85-1.18.69-1.16-.47l-1.86-2.1c-.8.85-1.18.69-1.16-.47-2.19-1.5-5.09-2.2-6.04-5.15-.79.84-1.18.69-1.16-.47l-1.86-2.1c-.68.88-1.06.69-1.16-.47-.77-.32-1.55-.62-2.33-.94-6.77-1.83-1.46,3.8-1.58,4.15-2.61,7.37-15.38-.01-18.08-3.86-1.38-1.97,4.43-7.59,5.17-10.85.05-.24.09-.47.08-.68-3.02-2.17-5.65-5.42-9.06-7.73-10.62,3.06-7.28,5.68-4.48,14.39l-34.5-1.8c-7.77,4.03-15.94,7.87-23.82,11.97.1-.05.2-.05.29-.03.62.18.87,1.96-.07,2.81-.4.36-.7.02-.84-.53-.2-.76-.07-1.93.63-2.26-1.23.64-3.04,1.09-4.9,2.07l-1.41,3.48,6.28,1.21c-1.57,2.06-4.74.98-7.23,1.11-1.35.07-3.25,1.09-4.43.91l4.45-4.25-.93-1.08c-1.82.95-3.55,2.28-5.37,3.23-9.15,4.79-21.32,9.72-29.75,15.02-2.27,1.43-3.36,4.33-4.21,4.83-.43.26-3.11-1.38-9.1,2.55-5.9,3.88-16.05,8.51-23.98,12.61l4.4,2.44c-3.21,2.77-8.77,6.19-10.74,9.86-2.23,4.15.14,4.26,2.3,7.69,0-.13,2.17-.48,1.63-2.02-.37-1.04-2.3-2.62-3.24-4.04l1.16.47,1.63-.69c.57.29,1.25,1.52,1.86,2.1.59-3.48,2.93-1.24,3.27-1.38.26-.11.24-1.54,1.03-1.96.39-.21,5.54.6,7.84.14,2.68-.53,7.78-1.75,10.5-2.5,5.2-1.43,5.14-2.42,8.44-3.83,15.1-6.46,9.42,2.83,18.35,6.51.74.31.51-4.57,5.12,2.14,5.46.26,10.87.03,16.32-.15,1.17-.04,2.68-1.04,3.93-.75,1.54.35,1.76,1.58,2.36,1.95-.24.79-.73,1.53-.94,2.32.97,1.5,1.85,2.44,2.58,2.41.33-.02.62-.24.87-.71.19-.35.37-.79.51-1.44.37.19.79.29,1.16.47.46.22,3.42-.66,3.95.24.37.62-2.17,6.95,1.62,6.06.93-.22-3.05-4.56,1.29-4.84,2.76,2.55-.31,5.1-.12,5.32,1.31,1.59,6.59-1.23,5.06,4.12-.13.47-2.67.38-2.99.79-.74.97-1.1,2.52-1.21,4.02.04.67.05,1.42.02,2.26.55,2.41.71,4.82,1.14,7.22.36-.11.66-.17.92-.21,1.72-1.01.7-5.29,1.43-5.59,3.42-1.38,2.91,6.88-1.66,7.43,1.64,9.72,2.6,19.19,4.56,28.88.06.29.22.59.37.88l.32.76c1.47,6.82,1.54,16.05,5.16,21.93.7,1.14,2.56,1.23,2.91,1.64.26.31-3.22,3.42-3.17,7.5.04,3.54,2.09,6.95,2.22,10.68.1,2.66-1.49,7.18-1.36,7.81.04.21,3.25-.36,3.14,2.05-.36,1.2-1.68,1.66-2.33,2.4-.87.99-2.04,1.72-2.58,3.01.34.94.83,4.51.68,5.05-.19.69-3.61-1.55-3.5,1.91,5.94.73,3.51,3.93,3.72,4.21.33.44,2.88.6,3.26,1.47.43,1-1.35,2.97-1.18,3.42.18.46,3.1.85,3.49,1.42.16.24-4.13,3.24,1.38,3.25-.54,4.3-3.6.55-4.43.92-3.37,1.5,3.05,4.08,3,5.95-.43,1.19-1.83-.38-2.56-.37-.14.54-.35,1-.58,1.41,0-.42.17-.89.58-1.41-3.2.05-4.4,1.31-6.07,1.6l.22,2.79c.69.04,1.61.88,2.33.94,2.79.25,3.48,1.7,5.6-.44.65.75.9,1.29,1.86,2.1,3.4-2.26,8.29,2.1,9.7,2.24.65.06,9.23-5.93,10.92-4.68.72.53.08,1.34.13,1.39,1.41,1.43,3.5-.34.92,4.43.4.02.77.45,1.16.47.8-5.29,3.45-2.29,5.72-2.95,1.82-.53,2.35-3.93,5.03-3.51l2.46-5.67c20.27-26.9,40.93-54.02,63.21-79.4,1.31-1.49,2.9-2.74,4.54-3.98,1.65-1.25,3.4-2.34,5.2-3.4-.9-.7-.72-1.08.47-1.16.54-.9.78-1.96,2.1-1.85-.88-.7-.7-1.08.47-1.16l2.1-1.85c-.85-.79-.69-1.18.47-1.16,1.51-2.18,2.19-5.08,5.15-6.02-.95-.64-.75-1.01.47-1.16ZM196.57,724.1c-.48.41-1.05-.37-.96-1.32.05-.49.25-1.01.76-1.45.35-.3.75.04.91.62.17.61.06,1.49-.71,2.16ZM250.21,718.8c-1.78.75-3.16-2.5-1.38-3.25,1.78-.75,3.16,2.5,1.38,3.25ZM276.37,764.54l-.2-2.77,2.76,6.51-2.56-3.74ZM281.5,768.66c.69-.6,1.08-.44,1.16.47l-1.16-.47ZM284.91,790.32c.69-.6,1.08-.44,1.16.47l-1.16-.47ZM289.17,773.11c-3.1,2.43-3.95-.69-2.09-1.51.12-.05,2.64.56,2.09,1.51ZM282.92,761.82c1,.35,2.22,1.09,3.24.85,1.17-.27,3.05-2.35,5.14-1.52,1.1,2.6-9.15,4.02-8.38.67ZM294.1,824.45l-3-2.58.46-1.14,3.48,1.4-.94,2.31ZM294.58,759.76c-2.62,1.11-3.54-6.13.71-5.11-.68,1.01.2,4.73-.71,5.11ZM297.44,869.74c.69-.6,1.08-.44,1.16.47l-1.16-.47ZM295.83,803.52l.46-1.13,3.95.23c-.66,3.28-1.65,2.16-4.41.9ZM299.43,774.58c2.44-1.56,3.3-.96,3.26,1.98l-3.26-1.98ZM306.03,818.46c2.12-1.94,6.11-2.97,8.85-1.79-2.1,1.56-6.29,2.67-8.85,1.79ZM326.37,734.8c-.65,2.56-.95,2.69-3.25,1.37l3.25-1.37ZM321.56,843.72l4.85,1.25c-1.82,2.82-7.11,3.17-4.85-1.25ZM329.38,740.75c-3.1,2.43-3.95-.69-2.09-1.51.12-.05,2.64.56,2.09,1.51ZM335.09,837c-2.2-.53-4.05-1.72-3.72-4.18.96.25,4.02,2.67,4.17,3.05.1.23-.37.74-.46,1.14ZM338.9,757.45c1.1-5.2,1.88-10.19,4.89-2.1-3.28-2.18-2.46,3-4.89,2.1ZM351.27,746.93c.69-.6,1.08-.44,1.16.47l-1.16-.47ZM362.33,754.78c-2.44-3.1.69-3.95,1.51-2.08.05.12-.55,2.64-1.51,2.08ZM371.66,780.19l-3.48-1.42c1.07-1.52,2.96-1.9,4.42-.89l-.94,2.31ZM376.57,778.13c.12-.05,2.64.56,2.09,1.51-3.1,2.43-3.95-.69-2.09-1.51ZM382.34,793.98c-.23.93-2.95,4.43-4.1,5.11-1.42-.6,1.74-5.05,2.94-5.58l-1.86-2.1c-2.44-1.66-2.97.15-3.75,2.53l-1.14-.46,3.27-4.79c1.21-.66,1.39.99,2.08,1.56,1.26,1.04,3.09,1.57,2.55,3.74ZM390.6,763.54c-.67.38-2.26-3.28-.89-4.42.67-.38,2.26,3.28.89,4.42Z"/>
        <path class="cls-2" d="M290.47,900.73c-.16.24-.29.44-.37.5l1.16.47c.22-.81.36-1.39.44-1.81.41-2.06-.6-.16-1.23.84Z"/>
        <path class="cls-2" d="M266.64,754.55c-1.95-2.5-3.5-5.16-4.64-7.98-.52,3.69-1.82,7.21.16,10.6.06.11.1.21.17.32.06-.05.08-.15.13-.21.6-.75.52-2.4.68-3.49.15-1.06-.98-2.33.34-2.54.15.82.81,1.27,1.3,1.85.87,1.05,1.49,2.24,1.98,3.5,2.62-3.3,3.7-2.14,4.06,1.65.91-2.95-.66-4.82-4.18-3.7Z"/>
        <path class="cls-2" d="M271.68,771.53c-.25.14-.55.22-.92.21.1.55.61,1.13.69,1.63,1.69-1.22,1.66-2.05.23-1.84Z"/>
        <path class="cls-2" d="M174.96,737.61c.23-.52.35-1.04.36-1.53.02-.77-.26-1.47-.97-2.01-.03-.03-.05-.06-.09-.08-1.68-1.15-4.3.93-5.81,3.13-.65.94-1.09,1.91-1.16,2.65-.53,5.66,6.02,1.66,7.67-2.17Z"/>
        <path class="cls-2" d="M244.93,751.84c-.76-1.22-1.58-1.17-2.26-.54-.7.65-1.26,1.91-1.45,3.06.18.59,2.13,1.45,2.53,2.76,1.46,4.68-1.31,3.15,3.48,9.14,1.33,1.67,1.66,4.15,4.88,4.68-.08,4.92,1.29,2.89,2.08,4.9,1.87.17,3.04-.85,3.74-2.54-.24-.28-.92-.19-1.16-.47l-1.05.9-.11-1.37c-.45-.51.46-2.35-2.55-3.74,6.27-.77,1.17-1.66.89-3.75-.35-2.67,2.06-7.59-3.08-2.55-1.95-2.04,1.31-3.86.97-4.72-.29-.75-1.97-.91-2.01-1.11,0-.09,0-.16,0-.24.23-1.15,2.88-3.66-.93-4.19-1.02,1.85-.77.45-1.41,3.48-5.21-2-2.19-3.1-2.58-3.72ZM251.78,766.75c.41.14.48,1.24.11,1.4-.77.32-1.42-1.83-.11-1.4ZM249.13,758.25l-.18-.07-.98-.4c.58-.5.93-.44,1.08.11.03.11.07.21.08.36ZM246.37,759.68c.18.32.39.67.42.99l-.42-.99c-.14-.25-.27-.48-.27-.64l.27.64Z"/>
        <path class="cls-2" d="M242.4,776.47l.66-3.14,2.74,3.16-.43-5.58-1.16-.47c-.41-1.3.11-2.96-1.38-3.25l-4.46,7.65,4.04,1.64Z"/>
        <path class="cls-2" d="M204.7,864.6l3.91,3.63-4.41.89,6.5,3.99c.56-.17-1.69-11.98-6.01-8.51Z"/>
        <path class="cls-2" d="M253.8,820.29c.75.37,1.57.59,2.33.94,1.3-2.69.97-5.04,1.66-7.44-3.95-.24-3.77,3.42-3.99,6.49Z"/>
        <path class="cls-2" d="M188.97,762.93c4.67,1.31-1.31,3.06,3.24,5.37,1.37-3.83,2.33-9.43-3.24-5.37Z"/>
        <path class="cls-2" d="M183.29,843.78c-.67-2.6-1.89-4.54-4.62-5.27-1.74-5.75.58-9.86-7.43-8.42.49-2.64.39-5.52-2.78-6.52.74,2.92,1.5,5.84,1.84,8.84.61,5.53-2.18,8.9,4.43,10.79,2.49.71,3.07.64,4.16-1.91,1.01,2.43,4.21,6.21,4.4,2.48Z"/>
        <path class="cls-2" d="M229.01,769.76c1.29.89,3.64,1.15,5.16,2.01.43-2.33-1.79-3.54-3.72-4.2l-.07-8.15c-2.49,1.35-1.23,5.45-1.09,7.68.04.69-1.59,1.75-.27,2.66Z"/>
        <path class="cls-2" d="M199.09,861.66c-1.01,6.22,4.92,8.65,4.02,3.11-.04-.25-3.35-3.31-4.02-3.11Z"/>
        <path class="cls-2" d="M258.11,789.59l-1.16-.47c-1.33,1.58-.73,1.93-.94,2.32l1.16.47c2.09-.87,1.84.53,2.33.94.68.58,1.18,1.48,1.86,2.1,1.31-3.14-.31-4.44-3.24-5.37Z"/>
        <path class="cls-2" d="M173.5,752.63l-3.38-.03c-.24,4.94,5.98,4.1,3.38.03Z"/>
        <path class="cls-2" d="M181.22,778.71l1.88-4.64c-1.05-.48-3.36-.3-4.66-1.88-.04,1.6,1.62,5.91,2.77,6.52Z"/>
        <path class="cls-2" d="M206.43,794.12c.45.14,1.07-.68,1.31-.61l.24-3.96c-2.54-.14-3.41.71-2.56,3.02.13.07-.01,1.23,1.02,1.55Z"/>
        <path class="cls-2" d="M172.53,796.82c3.28-3.62,3.85-9.85-1.36-9.99l.83-3.74c-6.14,1.8-2.8,7.12-3.43,13.47-.07.73-1.09,2.03-.93,2.32,1.34,2.43,3.62-.66,4.89-2.06Z"/>
        <path class="cls-2" d="M257.59,804.25c.19,1.21-2.44,2.75,2.55,3.74.58-1.57-.19-2.07-.22-2.79-.7-.4-1.71-.52-2.33-.94Z"/>
        <path class="cls-2" d="M181.67,847.84l-.94,2.31,3.49,1.41c.29-1.84-.8-3.42-2.55-3.72Z"/>
        <path class="cls-2" d="M202.82,738.8l-.95,2.32,4.66,1.89c-1.02-1.7-2.17-2.98-3.71-4.21Z"/>
        <path class="cls-2" d="M224.94,777.71c.04-.08.07-.14.11-.16l-2.33-.94c-.03.25-3.62,1.27.79,3.06.92.37,1.19-1.41,1.43-1.96Z"/>
        <path class="cls-2" d="M229.01,777.8l.45,5.59c-.15-2.58.32-2.08-.45-5.59Z"/>
        <path class="cls-2" d="M225.63,826.06c-.03.11-.05.23-.06.36l1.85,2.1c.4-.72.54-1.62.95-2.31-3.81-4.87-2.71-1.48-2.74-.15Z"/>
        <path class="cls-2" d="M168.87,779.12c-1.78.75-.4,4,1.38,3.25,1.78-.75.4-4-1.38-3.25Z"/>
        <path class="cls-2" d="M184.07,828.53c-1.78.75-.4,4,1.38,3.25,1.78-.75.4-4-1.38-3.25Z"/>
        <path class="cls-2" d="M211.23,794.93c-.35.04-.75-.46-1.16-.47.01.13.03.24.05.34.1.81-.03,1.78.18,2.45l1.16.47,1.16.47c.21-1.28-.48-2.41-1.39-3.27Z"/>
        <path class="cls-2" d="M196.53,864.67c-.97.41-.99,1.54-.53,2.38.37.69,1.06,1.17,1.85.88.02,0,.04,0,.07-.01,1.78-.75.4-4-1.38-3.25Z"/>
        <path class="cls-2" d="M254.54,808.42l-.47,1.16c.11.09.26.13.41.18.28.08.58.12.75.3.46.46.7,1.2,1.32,1.57.03.02.04.04.07.05l.93-.68c.09-.4.39-.76.47-1.16-1.08-.2-2.69-1.44-3.49-1.42Z"/>
        <path class="cls-2" d="M175.69,758.9c-.82-1.87-3.95-1.02-1.51,2.08.95.56,1.56-1.96,1.51-2.08Z"/>
        <path class="cls-2" d="M239.26,779.25l2.8-.22c-1.09-.3-2.21-1.41-2.8.22Z"/>
        <path class="cls-2" d="M195.45,784.56c-.15-.09-.25-.16-.27-.19l-.47,1.16c5.14,1.46,1.76-.33.74-.97Z"/>
        <path class="cls-2" d="M166.65,751.18c-1.5,1.29-.52,3.4.2,2.77,1.5-1.29.52-3.4-.2-2.77Z"/>
        <path class="cls-2" d="M258.82,848.01c.05-.77.41-1.46.32-2.51-.34-3.69-2.54-6.32-2.37-9.13-7.21.75-8.12-7.8-4.38-12.59-.77-1.25-1.9-2.46-2.55-3.74-.99-1.94-3.64-6.7-.67-8.38l-2.31-4.32c1.34-.06,2.17-.16,2.64-.28,1.09-.28.18-.7-1.15-1.18-1.06-.38-2.37-.8-3.12-1.22l-.47,1.16c.59,4.47-1.63,3.66-4.43.91-.8-.78-1.2-.83-1.86-2.1-1.21-2.36-1.95-5.3-.18-7.28.22-.18.44-.38.68-.63-.63-.6-2.55-.79-3.49-1.43,3.44-2.29,1.02-1.92-.91-4.41-1.51-1.95-3.01-3.85-4.67-5.69-.11-.13-.22-.26-.33-.38l-.27.43-1.72,2.8c-2.19-.31-.04-2.05-.38-2.65-.19-.33-3.98-.66-6.81-2.96-1.63-1.33-3.63-4.78-5.57-6.31.05.36-.68.93-.66,1.59.04,1.52,2.81,1.12,1.58,2.83-5.71-1.53-2.7-5.5-10-5.4l3.49-2.02c.11-4.3-2.95-1.45.97-5.63-1.12-.31-1.35-1.57-1.86-2.1-1.03-1.1-1.62-1.8-3.02-2.58l.47-1.16.94-2.32c-.55-.5-1.01-1.37-1.86-2.1.12-.68,2.07-.1.94-2.32-.35-.68-1.4-1.35-1.86-2.1-.62-1.01-1.41-1.48-1.86-2.1-.8-1.11-1.01-6.94-3.49-1.41.09.93.16,1.86.22,2.79-.3-.23-.8-.24-1.16-.47-.35-.22-.82-.25-1.16-.47l.69,1.63c-1.56,4.3.99,5.69,3,9.32,1.93,3.49,2.43,1.73,2.77,6.53l-3.99,2.14-.34.18-.24-.46-2.41-4.68c-.35.56-.53,1.25-.57,1.94-.04.71.07,1.42.31,2.01.43,1.04,3.08,2.17,2.55,3.74.44-.23,3.13,2.46,2.1-1.84l1.32.53c.26.16.59.3,1.02.41,0,1.03.25,2.44.22,2.79-.02.37,1.13,1.12.22,2.79l1.16.47.69,1.63c-.04,3.21,1.27-.16,1.73-.2.58-.05,1,1.12,1.66,1.1.4-.01.93-1.72,1.48-1.47,1.54.71,3.19,3.47,5.84,3.14l1.28-.37c-.45.21-.87.32-1.28.37l-2.58.76c-1.26,1.88,1.44,1.44,1.86,2.08.58.87.82,2.65,1.39,3.27-4.74.89-5.17-4.21-7.21-5.62-1.9-1.32-2.61-.36-3.96-.25l.96,4.43,2.76-.22c.09,7.07.84,3.43,6.04,5.15.4.13.77.33,1.16.47.01.33.25.72.45,1.06l.24.57c-.08.97-1.17,2.36-1.41,3.48.83,1.05,4.49,3.75,6.04,5.15,1.55,6.62-6.1.3-.3,7.27.02.02.03.03.04.05l-.06-.04-5.66-4.27-2.44,4.39c2.29,1.79,2.87,3.47,3.71,4.21.81.7,9,6.3,9.53,6.57.17-.49.41-.86.68-1.16-.18.38-.39.76-.68,1.16,2.22,1.11,7.92-.75,7.68,4.46l1.16.47c.05.61.63,1.2.69,1.63.37,2.42.7,4.27,3.24,5.37,1.74,4.36,3.79,8.69,5.55,13.06,5.37-.17,5.61,1.53,5.57,6.31l.94-2.31.42.39,2.08,1.93c.71-3.9.99-2.66,3.32.03.46.35.84.46,1.17.45.68-.02,1.14-.54,1.63-.67-4.15-.88-1.07-2.24-.92-4.43ZM221.05,784.04c-.01.11-.05.17-.06.27-.06-.13-.15-.25-.2-.38l.27.11ZM220.68,793.35c-.41-.14-.48-1.24-.11-1.4.77-.32,1.42,1.83.11,1.4ZM215.44,791.23l.99-.85.06-.05c.09.05.12.17.13.32.03.39-.12.99-.02,1.05l-1.16-.47ZM227.5,808.28c-1.29-.9-1.86-2.65-2.31-3.42-.08-.1-.18-.18-.24-.32-.31-.25-.86-.22-1.16-.47l.02-6.75c1.21.81,2.17,1.98,3.58,2.5l1.08-.62c.26.88,1.12,1.49,1.39,3.27.26,1.74.01,4.82-.02,6.75-.07,3.84,1.28,4.91-3.74,2.54-.25-1.69-1.12-2.06,1.41-3.48ZM232.86,821.17c-.31-.13-.52-.32-.66-.57-.79-1.41.83-4.52,1.34-7.17-.71-2.52-1.34-1.93-1.61-6.06,0,.09.1.25.21.44.55.85,2.03,2.5,2.34,3.3-.19.78-.8,1.57-.94,2.32.59,2.11,2.07,6.22,2.3,7.69-1.45.32-2.39.3-2.98.05Z"/>
        <polygon class="cls-2" points="223.51 878.3 224.89 878.18 223.98 877.14 223.51 878.3"/>
        <path class="cls-2" d="M230.16,845.18l1.16.47c-.08-.91-.47-1.07-1.16-.47Z"/>
        <path class="cls-2" d="M183.8,775.7l.11,1.37,1.05-.9c-.39-.13-.78-.32-1.16-.47Z"/>
        <path class="cls-2" d="M316.88,657.96c.95.9,2.65-.27,2.79-.21-1.59-.62-2.48-1.64-2.79.21Z"/>
        <path class="cls-2" d="M277.39,899.35c-.8-.59-1.82-.63-2.9.3l4.42,2.46c-.03-.16-.08-.31-.12-.46-.27-1-.76-1.82-1.39-2.29Z"/>
        <path class="cls-2" d="M281.59,897.64c-.87-.06-1.56.44-1.3.89.02.03.01.06.03.08,1.3,1.5,3.4.52,2.78-.2-.46-.53-1.01-.74-1.51-.77Z"/>
        <path class="cls-2" d="M203.26,744.39l1.17,1.79,1.16-.85c-2.55-1.74-2.18-.87-2.33-.94Z"/>
        <path class="cls-2" d="M180.16,751.25c-.25.79-.67,1.54-.94,2.32,1.03,1.3,3.85,2.51,5.35,3.52.54.36,1.17,2.06,2.09,2.36.22.07.46.05.72-.08.14-.07.28-.14.43-.28l-3-5.95c.34.03,1.09-.63,1.63-.69.5.38.82,1.31,1.29,1.84l1.03-.89,2.76,6.52c1.55-3.03.73-6.51-.19-9.53-.8-.5-2.57.3-2.8.22-.39-.14-.78-.31-1.16-.47-.29-.13-5.06-3.22-5.35-3.52-1.74,1.78-1.04,2.44-1.41,3.48-.14.39-.35.76-.47,1.16Z"/>
        <path class="cls-2" d="M182.04,746.6c.29-.29.2-.96.47-1.16-.09-1.25-1.21-1.48-1.86-2.1-.23,1.37.5,2.34,1.39,3.27Z"/>
        <path class="cls-2" d="M186.25,742.9l1.16.47c.37-.11,1.57.81,2.32.93,1.3-1.58-2.22-3.03-3.49-1.4Z"/>
        <path class="cls-2" d="M192.09,742.83c-.59.32-1.23,1.09-1.17,1.96.04.62.65.49,1.2.06.59-.46,1.13-1.27.89-1.91-.13-.34-.51-.32-.92-.11Z"/>
        <path class="cls-2" d="M267.9,757.07c-.89-.29-.86.6-.52,1.1.07.1.14.17.23.23.12.08.26.13.4.06.17-.07.25-.37.23-.66-.01-.33-.13-.66-.34-.73Z"/>
        <path class="cls-2" d="M248.18,746.16c.12-.02.24-.06.35-.12.31-.16.54-.43.41-.72-.05-.11-.19-.17-.36-.2-.33-.07-.75.01-.94.22-.03.03-.09.06-.1.1-.21.64.2.8.63.72Z"/>
        <path class="cls-2" d="M213.52,805.99s0,0,0,0c-.08-.9-.47-1.06-1.16-.46l1.16.47h0Z"/>
        <path class="cls-2" d="M217.56,820.84c-.6.07-1.01.3-.83.65l2.97,2.53.04.04s0,0,0,0c2.13-2.55-.66-3.4-2.19-3.22Z"/>
        <path class="cls-2" d="M254.35,798.89c-.55,1.36-1.28,2.39-1.23,3.12.02.38.27.67.86.87.2.07.41.13.69.18.39,0,.7-.86,1.06-.91-.78-1.06.35-3.16-1.38-3.25Z"/>
      </g>
    </g>
  </g>
</svg>