<?xml version="1.0" encoding="UTF-8"?>
<svg id="_레이어_2" data-name="레이어 2" xmlns="http://www.w3.org/2000/svg" viewBox="0 0 147.31 148">
  <defs>
    <style>
      .cls-1 {
        fill: #ff319c;
      }
    </style>
  </defs>
  <g id="_레이어_1-2" data-name="레이어 1">
    <g>
      <path class="cls-1" d="M33.8,138.94c-.44-4.94-2.41-8.3-5.9-10.07-7.49-.97-10.7-2.05-7.55-9.97-.85-2.66-2.03-5.26-3.37-7.69-6.74-1.57-8.73-5.98-3.17-10.85.82-5.47.1-9.86-5.07-12.68-1.97-3.68,1.72-6.1,4.81-7.41,1.22-2.68,1.62-5.76,1.69-8.7-6.52-6.02-4.7-9.07,3.3-11.68,1.68-1.93,2.49-4.57,3.15-6.99-2.73-2.49-3.59-7.91.72-9.15,7.31.77,12.52-4.55,10.78-11.89,1.84-3.75,6.07-4.46,9.5-2.03,4.75-.52,8.77-3.34,8.71-8.49l2.57-2.36h-.73l-.2.2c-.14.18-.3.42-.53.53-.1.05-.23.02-.36,0h-.37l-.3.31c-.14.16-.27.33-.43.42-14.38,8.12-30.39,14.56-44.99,22.43L.03,48.84c1.39.41,1.38,1.05,0,1.46,1.24.8.69,3,.73,4.37,1.46.17,1.4.9,0,1.46,1.18.62.68,2.48.73,3.64,1.39.41,1.39,1.05,0,1.46,1.24.8.69,3,.72,4.37,1.47.17,1.4.9,0,1.46,1.19.62.69,2.48.73,3.64,1.4.41,1.39,1.05,0,1.46,1.24.8.69,3,.73,4.37,1.46.17,1.4.9,0,1.46,1.18.62.69,2.48.73,3.65,1.39.41,1.39,1.05,0,1.46,1.24.8.69,2.99.73,4.37,1.46.17,1.39.9,0,1.46,1.18.62.68,2.48.72,3.64,1.4.41,1.39,1.05,0,1.46,1.24.8.69,2.99.73,4.37,1.46.17,1.4.9,0,1.46,1.18.62.69,2.48.73,3.64,1.4.41,1.39,1.05,0,1.46,1.24.8.69,2.99.73,4.37,1.46.17,1.4.9,0,1.46,1.18.62.68,2.48.73,3.64,1.39.41,1.39,1.05,0,1.46,1.26.81.66,2.99.72,4.37,1.47.17,1.41.9,0,1.46.61,3.77,2.71,2.94,5.11,5.1.24-.63.48-.63.72,0,2.04.78,4.28,1.2,5.84,2.92.19-.63.43-.61.72,0,3.84,1.23,3.04,1.15,2.92,4.26.03.49.04,1,0,1.57,1.96.47,1.77,1.28,0,2.18l1.46,1.46c.38-1.39,1.03-1.4,1.46,0,1.16.04,3.02-.45,3.64.73.24-1.95.62-1.74,1.46,0,1.17.04,3.02-.45,3.64.73.18-.64.43-.62.73,0,1.17.04,3.02-.45,3.65.73.4-1.38,1.04-1.39,1.45,0,2.45.15,1.2.53,1.46,2.92.65.18.63.42,0,.73l.73,2.19c.21-.63.45-.62.73,0l2.91.73c.41-1.37,1.05-1.37,1.46,0-.08-2.31-.63-4.49-1.66-6.54-4.62-1.15-9.33-1.98-14.12-2.49h0Z"/>
      <path class="cls-1" d="M14.6,126.84c-.56-.22-1.05-.38-1.49-.52.46.2.94.38,1.49.52Z"/>
      <path class="cls-1" d="M43.76,144.33c.02.24-.03.49,0,.73.63-.3.65-.55,0-.73Z"/>
      <path class="cls-1" d="M26.26,139.23c.41.11,1.01-.09,1.46,0-.42-1.4-1.07-1.39-1.46,0Z"/>
      <path class="cls-1" d="M48.13,147.98c.46.05.98,0,1.46,0-.42-1.37-1.05-1.37-1.46,0Z"/>
      <path class="cls-1" d="M40.84,141.42c.47.06.98-.03,1.46,0-.41-1.39-1.05-1.38-1.46,0Z"/>
      <path class="cls-1" d="M31.36,139.96c.46.08,1-.07,1.46,0-.83-1.74-1.21-1.95-1.46,0Z"/>
      <path class="cls-1" d="M2.2,65.61c.02.49-.03.98,0,1.46,1.4-.56,1.47-1.28,0-1.46Z"/>
      <path class="cls-1" d="M1.48,59.77c.05.48-.06.98,0,1.46,1.39-.41,1.39-1.05,0-1.46Z"/>
      <path class="cls-1" d="M36.47,140.69c.24.04.49-.03.73,0-.31-.62-.55-.64-.73,0Z"/>
      <path class="cls-1" d="M4.39,81.64c.05.48-.05.98,0,1.46,1.39-.41,1.4-1.04,0-1.46Z"/>
      <path class="cls-1" d="M2.94,70.71c.04.48-.06.98,0,1.46,1.38-.41,1.39-1.05,0-1.46Z"/>
      <path class="cls-1" d="M3.66,76.54c.02.48-.03.98,0,1.46,1.4-.56,1.47-1.28,0-1.46Z"/>
      <path class="cls-1" d="M14.6,126.84c.21.08.51-.08.72,0-.24-.63-.48-.63-.72,0Z"/>
      <path class="cls-1" d="M.75,54.67c.01.48-.04.98,0,1.46,1.39-.56,1.46-1.28,0-1.46Z"/>
      <path class="cls-1" d="M.02,48.84c.03.48-.06.98,0,1.46,1.38-.41,1.39-1.05,0-1.46Z"/>
      <path class="cls-1" d="M24.8,135.58c.04.72-.08,1.48,0,2.19,1.77-.9,1.96-1.71,0-2.19Z"/>
      <path class="cls-1" d="M21.16,129.75c.21.07.51-.07.73,0-.29-.61-.54-.63-.73,0Z"/>
      <path class="cls-1" d="M44.48,147.25c.12.11.51-.1.73,0-.27-.62-.52-.63-.73,0Z"/>
      <path class="cls-1" d="M7.31,103.51c.05.48-.06.98,0,1.46,1.39-.41,1.39-1.05,0-1.46Z"/>
      <path class="cls-1" d="M6.58,98.41c.01.48-.04.98,0,1.46,1.39-.56,1.46-1.28,0-1.46Z"/>
      <path class="cls-1" d="M5.85,92.57c.05.48-.06.98,0,1.46,1.39-.41,1.4-1.05,0-1.46Z"/>
      <path class="cls-1" d="M5.12,87.47c0,.48-.04.98,0,1.46,1.4-.56,1.46-1.28,0-1.46Z"/>
      <path class="cls-1" d="M8.04,109.34c.01.48-.04.98,0,1.46,1.39-.56,1.46-1.28,0-1.46Z"/>
      <path class="cls-1" d="M9.49,120.28c.03.48-.03.98,0,1.46,1.41-.56,1.47-1.28,0-1.46Z"/>
      <path class="cls-1" d="M8.76,114.44c.05.48-.05.98,0,1.46,1.39-.41,1.4-1.04,0-1.46Z"/>
      <path class="cls-1" d="M48.85,140.33c-2.83-2.08-12.82-1.35-13.74-1.93-.67-.42-.49-5.61-2.99-8.31-3.04-3.27-4.63-2.65-8.23-3.43-6.34-1.39-2.23-3.95-2.04-7.53.06-1.17-3.1-8.14-3.79-8.88-1.54-1.69-5.6-.54-6.03-4.48-.26-2.4,2.66-3.32,3.15-4.96.74-2.48.29-8.63-1.29-10.8-1.78-2.46-6.78-2.77-2.96-6.58,1.09-1.1,2.88-1.38,3.65-2.17,1.28-1.3,2.37-8.1,2.07-10.03-.38-2.53-7.65-5.1-1.99-8.12,4.39-2.34,4.91-.42,7.35-6.49,2.37-5.89.32-3.62-.7-6.84-2.07-6.5,3.74-4.24,6.42-4.89,2.54-.62,6.69-5.04,7.17-7.52.54-2.76-2.17-6.51,2.34-7.84,2.16-.64,3.87,2.2,6.82,1.81,1.07-.14,5.76-2.79,6.63-3.64,2.39-2.37,1.27-4.03,2.2-6.54.33-.87,2.5-1.64,1.08-2.2l-2.57,2.36c.07,5.15-3.96,7.97-8.71,8.49-3.43-2.43-7.66-1.72-9.5,2.03,1.74,7.34-3.47,12.67-10.78,11.9-4.31,1.24-3.45,6.66-.72,9.15-.66,2.42-1.47,5.06-3.15,6.99-8,2.61-9.82,5.66-3.29,11.68-.07,2.94-.47,6.02-1.7,8.7-3.09,1.31-6.78,3.74-4.8,7.41,5.16,2.83,5.88,7.21,5.06,12.69-5.55,4.87-3.56,9.29,3.17,10.85,1.34,2.44,2.52,5.04,3.37,7.7-3.15,7.92.06,9,7.55,9.97,3.49,1.78,5.46,5.13,5.9,10.07,4.8.51,9.51,1.35,14.13,2.49,1.02,2.05,1.57,4.23,1.66,6.54,2.32-1.29.63-6.65-.73-7.65h-.01Z"/>
      <path class="cls-1" d="M56.51,17.98c2.82,4.37,7.09,5.06,12.81,2.07,1.46-6.51,7.22-10.08,10.14-2.35,1.01.72,7.32,1.81,8.87.66,6.23-4.86,8.46-6.5,13.16,1.19.93.74,7.12,2.89,8.48,2.58,3.43-2.2,5.81-2.74,8.08,1.27.36,6.56,5.37,8.57,11,10.13-9.5-10.37-19.2-20.76-28.43-31.35l-7.29-2.19c-9.76,4.54-19.44,9.23-29.16,13.85-.21.65-.45.64-.73,0l-.73.73c-.2.65-.44.64-.72,0l-.73.73c-.21.65-.45.64-.73,0l-.73.73c-.2.65-.45.64-.73,0l-.73.73c-.2.65-.44.64-.72,0l-.73.73c-.21.65-.45.64-.73,0l-.62.62.98-.13h-.01ZM88.83,8.16c.33.21.04,1.25.12,1.31.53.38,6.46.41,6.57,1.1.67,4.01-5.29,1.3-6.57-.37-1,2.76-3.31-.14-4.74-.37-1.45-.23-4.23.62-6.19-.37,2.55-2.55,7.79-3.2,10.81-1.3Z"/>
      <path class="cls-1" d="M61.25,15.31c-.2.09-.53-.09-.73,0,.28.64.53.65.73,0Z"/>
      <path class="cls-1" d="M64.17,13.85c-.2.09-.54-.09-.73,0,.28.64.52.65.73,0Z"/>
      <path class="cls-1" d="M58.33,16.76c-.19.09-.53-.09-.72,0,.28.64.52.65.72,0Z"/>
      <path class="cls-1" d="M62.71,14.58c-.2.09-.53-.09-.73,0,.28.64.52.65.73,0Z"/>
      <path class="cls-1" d="M59.79,16.04c-.2.09-.53-.09-.73,0,.29.64.53.65.73,0Z"/>
      <path class="cls-1" d="M54.69,18.22l.18-.02c-.06,0-.13,0-.18.02Z"/>
      <path class="cls-1" d="M56.88,17.49c-.2.09-.54-.09-.73,0,.28.64.52.65.73,0Z"/>
      <path class="cls-1" d="M61.57,23.36c1.26,0,7.84-1.52,8.68-2.16,1.14-.88,1.25-6.67,5.22-6.4,1.87.13,2.39,3.79,2.67,4.03.29.25,6.95,1.61,7.56,1.63,4.69.15,8.09-5.42,10.07-5.03,1.73.34,3.74,4.57,4.89,5.31.33.22,6.84,2.72,7.42,2.85,3.14.68,3.79-1.58,6.08-1.72,3.47-.22,2.37,4.07,3.64,6.51,1.45,2.8,7.95,7.43,11.24,5.16-5.62-1.56-10.64-3.56-10.99-10.13-2.27-4-4.66-3.47-8.09-1.27-1.35.31-7.54-1.84-8.48-2.58-4.69-7.69-6.92-6.05-13.15-1.19-1.55,1.15-7.86.06-8.88-.66-2.91-7.73-8.68-4.16-10.13,2.35-5.73,2.98-10,2.29-12.81-2.07l-.98.13-.11.11c-.1.05-.23.02-.37,0h-.36c3.14,1.9,2.8,5.16,6.88,5.13h0Z"/>
      <path class="cls-1" d="M54.87,18.2l-.18.02h.37c-.07,0-.13-.02-.18-.02h0Z"/>
      <path class="cls-1" d="M93,129.06c-2.3,2.24-8.96,1.21-8.42,6.81.17,1.77,4.83,7.33,6.19,6.99.76-.19,1.33-2.78,2.14-3.71.88-1.01,2.51-1.29,2.6-1.4.82-1.05-3.57-3.02-2.13-5.02.15-.21,4.13-2.11,4.68-2.3,4.09-1.48,4.34,1.68,6.99,3.26,5.53,3.31,3.45-1.6,5-4.35.81-1.44,5.56-4.59,7.32-5.43-.68-1.92-5.5.9-6.55,0,3.55-7.91,4.8-2.68,7.82-1.63,7.41,2.58,4.23-1.4,4.69-4.38.5-3.21,3.02-3.96,4.57-5.7.87-.97,1.16-2.94,2.18-3.66,1.23-.88,4.56-.48,4.8-1.78.05-.24-1.35-4.5-1.46-4.72-.35-.69-2.38-1.86-2.77-3.48-.58-2.42.99-6.65,2.23-3.64.8,1.93-.04,4.18,1.27,5.66.99-3.94,3.11-10.38,8.02-10.21.47-.5-3.18-4.98-3.7-5.41-1.18-.97-4.18-1.72-4.32-1.9-.22-.3,1.27-5.57,1.46-7.26.1-.95-.09-1.96,0-2.92,1.62.5,1.72,1.67.73,2.92,1-.28,2.62,1.68,2.9,1.46.1-.08.24-1.73.82-2.47.82-1.08,3.29-2.1,3.42-2.98.44-2.95-8.9-4.41-9.28-4.81-.43-.46.14-5.93-1.5-6.5-1.23,4.67-.3,9.53-.82,14.13-.8,7.19-4.4,16.02-7.94,22.31-2.35,4.18-4.93,7.36-8.02,10.93-3.2,3.71-9.08,9.91-13.18,12.69-1.81,1.23-5.11,1.63-6.88,3.33-1.65,1.57-1.48,3.82-2.86,5.16h0ZM127.58,100.59h-.72c-.36-3.03,1.08-3.03.72,0ZM123.21,110.81c-2.25,3.38,3.17,1.6-1.1,3.62-2.13-.77-.1-4.9,1.1-3.62ZM110.09,126.84c.49.25-.43,1.24-1.45.71-.5-.25.42-1.24,1.45-.71Z"/>
      <path class="cls-1" d="M54.69,68.88c0-3.07,4.94-14.48,7.25-16.8,1.61-1.61,4.52-2.83,6.74-3.46,2.32-.67,4.36-.25,5.69-.51.45-.09,1.04.1,1.46,0,.74-.18,2.22-1.61,4.34-1.87,1.32-.16,2.39.4,3.67.4,1.53-1.53-3.95-5.46-4.21-6.02-.31-.66.64-1.73-.2-2.99-.12-.18-2.85-3.09-3.04-3.2-1.35-.78-13.86.67-16.99.58-1.59-.04-4.27-1.43-5.11-.07-.61.99-.17,3.04-.67,4.43-1.04,2.86-3.28,5.8-4.39,8.73-2.9,7.61-5.74,23.27-2.24,30.65,1.2,2.53,4.64,7.03,7.7,7.25v-17.13h0Z"/>
      <path class="cls-1" d="M97.85,79.97c1.85-3.21,4.92-12.35-.14-13.64.74,2.99-1.7,5.04-3.76,6.86-.46.41-1.66.26-1.93.58-.48.59.18,2.21-.86,3.14-.4.36-9.05,3.38-10.18,3.67-2.62.66-7.98,1.56-10.61,1.78-4.59.37-9.58-.27-14.22,0-.22,2.2-.04,3.81,2.51,3.68,9.74-1.4,20.94-.44,30.45-1.71,3.68-.49,6.74-.91,8.74-4.37h0Z"/>
      <path class="cls-1" d="M78.75,69.25c-.13.06-.27.16-.43.29.13-.08.27-.17.43-.29Z"/>
      <path class="cls-1" d="M78.75,69.25c6.47-3.19,15.46-7.79,22.59-5.84-2.55-3.18-2.8-8.86-7.61-9.51-4.04-.54-4.21.81-6.94,1.89-1.12.44-2.81.1-3.69.69-.26.17-2.53,4.69-2.9,5.48-.57,1.24-2.21,5.47-2.18,6.56,0,.35.29.84.72.73h.01Z"/>
      <path class="cls-1" d="M75.83,52.48c-.43,1.81-1.63,5.86-2.6,7.25-1.26,1.83-4.25,1.96-4,4.74.24,2.57,2.77,2,3.73,3.09.6.68,1.25,3.7,1.45,3.84,1.22.85,2.9-1.05,3.91-1.86-.96.59-1.18.13-.3-1.02-4.99,2.65.06-4.9.72-6.56.17-.4-.18-1.51.18-2.35,2.46-5.89,9.07-11.55-3.09-10.77,1.49,1.73.25,2.58,0,3.64h0ZM76.56,64.87c-.92.49-2.54-1.17-2.19-1.44.92-.49,2.54,1.17,2.19,1.44Z"/>
      <path class="cls-1" d="M75.84,51.54c0,.32,0,.61-.01.94.03-.36.04-.66.01-.94Z"/>
      <path class="cls-1" d="M78.02,68.52c-.88,1.15-.66,1.61.3,1.02.16-.13.3-.23.42-.29-.44.11-.72-.38-.72-.73Z"/>
      <path class="cls-1" d="M71.83,145.78c1.45.74,1.9-3.87,3.87-3.78.67-4.05-5.5-7.9-7.54-3.54-.41.89,3.12,7.04,3.67,7.32h0Z"/>
      <path class="cls-1" d="M132.9,39.22c.37,2.64,1.21,5.1,2.56,7.37l-.59,1.52c.26-.32.81-.72,1.17-1.07.07-.13.16-.26.29-.39-1.84-1.04-1.48-4.07.73-4.37-1.82.72-3.54-1.08-4.16-3.06h0Z"/>
      <path class="cls-1" d="M136.33,46.65c.42-1.05.41-3.14.73-4.37-2.21.3-2.57,3.34-.73,4.37Z"/>
      <path class="cls-1" d="M136.33,46.65c-.12.13-.22.26-.29.39.14-.14.25-.27.29-.39Z"/>
      <path class="cls-1" d="M136.59,48.08c.01-.33-.06-.8-.26-1.43-.16.84-.06,1.24.26,1.43Z"/>
      <path class="cls-1" d="M132.9,39.22c-.22-.7-.31-1.41-.21-2.05-1.95,3.53-.44,8.25,2.18,10.93l.59-1.52c-1.35-2.28-2.19-4.74-2.56-7.37Z"/>
      <path class="cls-1" d="M132.9,39.22c.62,1.97,2.34,3.78,4.16,3.06-1.45-1.44-2.96-3.56-4.37-5.1.03.7.11,1.37.21,2.05Z"/>
      <path class="cls-1" d="M132.9,39.22c-.1-.67-.18-1.35-.21-2.05-.1.64-.01,1.35.21,2.05Z"/>
      <path class="cls-1" d="M137.79,59.04c-.05-1.92.78-3.48,2.17-4.74l-7.27-2.55c.39,3.19,1.42,6.91,5.1,7.29Z"/>
      <path class="cls-1" d="M141.44,84.56h.72c-.03-.1.42-1.08.25-2.03-.57-3.14-2.38-3.31,1.94-3.08l-1.45-1.44c2.67.34.41-1.1.84-2.05.04-.11.56.04,1.34-1.6h-1.46c-2.24,3.18-5.24,6.03-2.18,10.21Z"/>
      <path class="cls-1" d="M55.36,137.11c-.36-.48-2.37-1.05-2.76.38-.91,3.26.44,8.74,4.26,5.01-2.16-.96-1.02-4.73-1.5-5.4Z"/>
      <path class="cls-1" d="M80.94,73.62c.24.25,6.32-1.93,6.56-2.19.17-.19-.65-2.8-.77-2.88-1.19-.87-7.45,2.24-5.79,5.07Z"/>
      <path class="cls-1" d="M126.14,87.47c1.14-.67,1.59-3.61,1.97-4.94.77-2.72,1.35-5.35,1.66-8.18l-.72-1.46-2.91,14.57h0Z"/>
      <path class="cls-1" d="M62.71,143.6l-1.46.73c3,1.26,2.72,3.17,7.29.72-.91-2.24-3.95-1.33-5.83-1.45Z"/>
      <path class="cls-1" d="M141.77,67.07c.99,1.24,4.32.46,3.31,4.37.19-.26,1.1-.45,1.46-.73,0-.29-.95-1.17-.69-1.41.32-.31,1.73.5,1.41-.76-1.88.4-1.37-2.01-2.13-2.61-.45-.35-2.38,1.17-2.96-1.05h-.73c.11.12-.25,1.46.33,2.19h0Z"/>
      <path class="cls-1" d="M128.69,42.27c1.75.73,1.24-3.82.97-4.25-.39-.64-3.29-1.2-3.53.26-.15.9,1.75,3.65,2.56,3.99Z"/>
      <path class="cls-1" d="M129.77,74.35c.41-3.69.31-6.46,0-10.2-1.28-.17-.69,1.65-.72,2.54-.09,2.06.06,4.15,0,6.21.46-.26.7.22.72,1.46Z"/>
      <path class="cls-1" d="M129.04,72.89l.73,1.46c-.03-1.24-.27-1.72-.73-1.46Z"/>
      <path class="cls-1" d="M141.44,64.88c.2-.64.44-.63.72,0l.36-3.65-3.27,3.29c.17.83,1.93.1,2.18.36h.01Z"/>
      <path class="cls-1" d="M141.44,64.87h.72c-.28-.63-.52-.64-.72,0Z"/>
      <path class="cls-1" d="M115.19,28.42c.43-.42-.13-2.55-1.1-2.91-3.87-1.41-.84,4.83,1.1,2.91Z"/>
      <path class="cls-1" d="M137.7,49.14c.41.3.72.67.82,1.16v-2.19c-.05.65-.4.96-.82,1.03Z"/>
      <path class="cls-1" d="M137.7,49.14c-.47.08-1.04-.13-1.42-.52-.28.09-.75-.07-1.4-.51,1.04,1.07,2.07,1.97,3.64,2.19-.1-.49-.41-.86-.82-1.16Z"/>
      <path class="cls-1" d="M137.7,49.14c.43-.07.77-.38.82-1.03-.92.1-1.57.18-1.94-.03-.01.19-.04.34-.12.44.45.16.88.36,1.24.62Z"/>
      <path class="cls-1" d="M136.28,48.62c.38.38.95.6,1.42.52-.36-.26-.79-.47-1.24-.62-.05.05-.11.09-.18.11Z"/>
      <path class="cls-1" d="M136.04,47.04c-.35.36-.91.75-1.16,1.07.35.07.78.17,1.21.3-.26-.38-.34-.86-.05-1.37h0Z"/>
      <path class="cls-1" d="M136.28,48.62c-.07-.07-.13-.14-.19-.22-.43-.13-.86-.22-1.21-.3.66.44,1.12.6,1.4.51h0Z"/>
      <path class="cls-1" d="M136.04,47.04c-.29.5-.21.99.06,1.37.12.03.24.07.36.11.08-.09.12-.25.13-.44-.32-.19-.42-.59-.26-1.43-.04.12-.16.25-.29.39h0Z"/>
      <path class="cls-1" d="M136.28,48.62c.07-.02.13-.05.18-.11-.12-.04-.25-.08-.37-.11.06.08.12.15.19.22Z"/>
      <path class="cls-1" d="M76.56,136.3c1.74-.04,4.37.63,5.1-1.44-1.27.17-4.62-.05-5.1,1.44Z"/>
      <path class="cls-1" d="M145.08,71.44c-.38.52-.75,1.92-1.46,2.92,1.06-1.24,1.54-1.24,1.46,0,.66-1.39,1.49-1.54,1.46-3.64-.35,1-.75,1.7-1.46.73Z"/>
      <path class="cls-1" d="M143.62,74.35h1.46c.08-1.24-.4-1.24-1.46,0Z"/>
      <path class="cls-1" d="M146.54,70.71c-.36.28-1.27.47-1.46.73.71.97,1.11.27,1.46-.73Z"/>
      <path class="cls-1" d="M62.71,143.6c-.63-.04-3.3-1.51-3.64.72.64.14,1.73-.18,2.18,0-.5-.61-.01-.85,1.46-.73Z"/>
      <path class="cls-1" d="M61.25,144.33l1.46-.73c-1.47-.12-1.96.12-1.46.73Z"/>
      <path class="cls-1" d="M122.48,96.95l-.72-.73c-.37.76-.48,1.7-.73,2.18.36-.98.84-1.47,1.46-1.46h-.01Z"/>
      <path class="cls-1" d="M122.48,96.95c-.61,0-1.1.48-1.45,1.46.31-.32,1.37-1.4,1.45-1.46Z"/>
      <path class="cls-1" d="M141.44,84.56c.48.67.65,1.68,1.81,1.47,1.39.09-1.05-1.35-1.08-1.47-.22.45-.46.44-.73,0h0Z"/>
      <path class="cls-1" d="M142.17,84.56h-.73c.27.44.51.45.73,0Z"/>
      <path class="cls-1" d="M140.71,55.39h1.45s0-2.18,0-2.18h-.71l-.74,2.18Z"/>
      <path class="cls-1" d="M143.99,89.66c-1.99,1.14-.49,2.28.36,1.45.05-.05.28-1.54-.36-1.45Z"/>
      <path class="cls-1" d="M75.1,50.29l-1.46-.73c.28,1.25,1.19.52,1.46.73Z"/>
      <path class="cls-1" d="M125.41,118.09c-.53,1.02.46,1.95.71,1.45.53-1.02-.46-1.94-.71-1.45Z"/>
      <path class="cls-1" d="M111.92,110.09l-1.09,1.08c-.01.76,1.83-.43,1.09-1.08Z"/>
      <path class="cls-1" d="M39.02,134.85v.73c.47-.24.47-.49,0-.73Z"/>
      <path class="cls-1" d="M110.09,126.84c-1.03-.53-1.95.46-1.45.71,1.02.53,1.94-.46,1.45-.71Z"/>
    </g>
  </g>
</svg>