<?xml version="1.0" encoding="UTF-8"?>
<svg id="_레이어_2" data-name="레이어 2" xmlns="http://www.w3.org/2000/svg" viewBox="0 0 169.84 168">
  <defs>
    <style>
      .cls-1 {
        fill: #ff319c;
      }
    </style>
  </defs>
  <g id="_레이어_1-2" data-name="레이어 1">
    <g>
      <path class="cls-1" d="M161.22,85.07c-.45-1.18.37-1.22.4-1.4.41-2.5,1.24-4.44,2.24-6.72-4.03,1.67-7.18,1.09-11.19,1.49-.74.07-1.5-.05-2.24,0-.06.61-1.11,2.95-1.49,3.73-1.14,2.3-7.02,7.28-5.1,9.59.23.28,4.29,1.1,4.37,2.04.04.49-2.67,8.93-3.01,9.27-.12.11-1.78-1.04-3.19-.67-.61.16-4.44,4.28-3.56-.41.03-.15,1.67-1.32,2.28-1.92.14-.45-.42-.79-.75-.74-1.41.17-3.69.06-4.05.13-.96.21-.97,2.51-3.18,2.7-3.61.31-8.94-.38-12.92.15-.93.12-2.04.49-2.98.75-.25.07-.55-.08-.75,0l-.24.24c-.14.18-.31.4-.51.5-.48.26-1.03.45-1.49.75-.26.17-.7.97-1.49,1.49-5.29,3.49-6.23,3.48-12.97,2.89l-7.18-2.14c3.04.37,5.21-.66,7.09-2.99l-.37,3.73c4.27-1.68,6.5.98,10.44-1.49-.7-3.28,1.37-1.75,2.1-2.36.53-.44-.03-1.86.14-2.12-.75-1.28-.19-3.24-.9-4.69-1.35-2.74-2.19-.04-4,.23-1.66.25-3.15-.92-4.8-.76.15.97,1.96,3.03-.36,2.98-.65-.01-.37-1.24-1.17-1.8-.88-.62-2.03-1.35-2.95-1.93-.79-.51-1.97-.89-2.98-1.49-.17-.06-.29-.11-.37-.18-.99-.36-1.51.32-1.87-2.06h-4.48s.75-2.99.75-2.99c-.11-.09-.01-1.03-.46-1.45-.59-.55-1.81-.74-1.81-1.18-.01-1.39,3.14-4.06,3.6-6.11.65-2.86-.24-3.96-.59-6.19-.06-.42-.63-1.01-.74-1.49-.87-3.93,1.5-6.37-4.47-5.98.46-1.91,4.41-.62,2.45-2.96-1.6-1.91-.2-.96-.22-2.26-.05-2.91-1.55-7.44,1.13-9.7l.36,2.24s.48.57.75.34c.81-.69,1.03-2.15,2.24-2.58v-.74c-.85-.47-2.58-.28-3.51-.97-2.92-2.17-1.91-10.29-6.94-10.22-.77.01-1.56.4-2.24.74-.47.24-.82,2-2.23,1.49l1.48,8.21c-2.66-1.46-1.98-5.09-2.23-7.46-.06-.5-.66-1.37-.75-2.99-.01-.17,0-2.68,0-2.99.14-4.65,2.09-4.29,2.25-4.86.33-1.26-.78-1.57-1.49-1.1-.07.05-.27.97-.76,1.48-3.76,3.96-8.42,12.82-11.19,17.91-.67,1.24-.63,3.43-2.24,4.48-.07.23.07.52,0,.75l-.74,1.49c-.07.23.06.51,0,.75l-.75,1.49c-.05.24.05.51,0,.75l-.74,1.49c-.03.25.01.5,0,.75,0,.25,0,.5,0,.75.06,3.77.9,6.82,1.49,10.45l1.5,4.84c-1.79.67-1.35-2.34-1.5-3.35-2.89,1.5-4.94,4.02-7.46,5.97-.27.21-.47.53-.75.75-.07.22.07.52,0,.75l-.74,1.49c-.08.22.07.52,0,.75l-.75,1.49c-.07.23.08.52,0,.75l-.74,1.49c-.08.22.08.53,0,.74l-.75,1.49c-.08.23.09.54,0,.75-.88,2.16-1.2,2.86-3.73,3.73.1.04.4,1.04,1.28,1.3,4.19,1.28,8.66,2.07,12.9,3.17-1.82-3.98-2.26-6.59,2.98-6.71l.75,10.45-1.48.35c.94,2.23,2.93,4.52,3.89,6.57.51,1.08.5,3.35.63,3.47,1.62,1.5,7.82-1.92,5,6.22-2.95,8.53-11.52,18.83-16.24,27.41h.74c.24-.18.41-.54.75-.74,1.48-.91,4.92-1.58,6.71-2.24.22-.08.52.08.75,0,3.53-2.69,6.15-6.3,8.95-9.7.24-2.61-2.33-.91-2.94-2.7-1.56-4.59,3.73-5.66,6.67-7-.16-2.62.62-5.09-.74-8.21.17-.17,2.89.64,2.99.76.36.48-2.32,10.07-.01,11.92,1.22-.43,2.47-.56,3.73-.74.25-.04.51.04.75,0,1.19-1.38,2.9-1.2,4.48-1.49.24-.05.5.04.74,0,1.19-1.41,2.93-1.16,4.48-1.49.24-.05.51.05.74,0l1.5-.75c.23-.06.51.06.74,0l1.79-.6c.17-.06.32-.12.45-.15.23-.06.51.06.74,0l1.5-.75c.23-.06.51.06.74,0l1.65-.55c.22-.08.43-.15.59-.2.24-.06.52.06.75,0l1.49-.74c.23-.06.52.06.75,0l1.59-.53c.24-.09.46-.16.65-.22.23-.06.51.06.74,0l1.49-.75c.23-.07.52.07.75,0l2.24-.74c.23-.07.51.07.74,0l1.5-.74c.22-.07.51.07.74,0l2.24-.75c.23-.07.52.07.75,0l1.49-.74c.23-.07.52.07.75,0l1.27-.43c.36-.13.7-.25.96-.32.23-.07.52.07.75,0l1.49-.75c.23-.07.52.07.75,0,.38-1.01,1.43-.66,2.23-.75l-1.49-4.47c2.13-.47,4.28,1.57,3.73,3.72.24-.03.51.05.75,0l2.23-.75c.24-.06.52.06.75,0l1.49-.75c.23-.06.51.06.75,0l1.63-.54c.22-.08.43-.16.6-.2.23-.06.52.06.75,0l1.49-.74c.23-.06.52.06.75,0l1.56-.52c.25-.09.49-.17.68-.23.23-.06.51.07.74,0l1.49-.74c.23-.07.52.07.75,0l2.24-.74c.23-.07.51.07.74,0l1.49-.75c.23-.07.52.07.75,0l2.24-.74c.22-.07.52.07.74,0l1.49-.74c.23-.08.53.08.75,0l2.98-1.49c.11-.16-.09-.53,0-.74l.75-2.24c.07-.22-.07-.51,0-.74l.74-2.24c.06-.23-.05-.51,0-.74l.75-2.99c.04-.24-.04-.5,0-.74l.74-2.24c.03-.25,0-.5,0-.75.02-.99,0-1.99,0-2.99-1.22-.66-2.93-2.63-3.39-3.82h.03ZM72.81,48.6c-.86.85-2.4-.32-.36-1.49.65-.09.42,1.43.36,1.49ZM83.06,56.68c-.04.17-2.61,2.62-2.79,1.25-.22-1.74.57-1.93.76-2.61.33-1.2,1.1-2.25.74-3.73-.34-.41-2.38-2.86-2.24-2.98,2.9.49,1.89-.92,2.24-1.5l-.74-.38v-1.11l1.49,1.49c4.93.53.27,2.67,0,3-.68.82,2.15,1.09,2.22,1.85.04.4-1.32.85-1.48,1.12-1.16,1.99.02,2.77-.2,3.6ZM86.27,103.45c1.11-2.21,8.86-1.15,9.68-.37,1.17,1.1-.25,1.29-1.03,1.57-3.21,1.13-6.68,2.19-8.65-1.2h0Z"/>
      <path class="cls-1" d="M158.88,106.76c-.09,0-.17.02-.25.04.09,0,.16-.03.25-.04Z"/>
      <path class="cls-1" d="M81.77,47.11h.75c-.2-.02-.73-.03-.75,0Z"/>
      <path class="cls-1" d="M36.65,100.44h0s-.4.39-.4.39c.14-.09.27-.24.39-.39h0Z"/>
      <path class="cls-1" d="M39.98,150.83c-.85-1.17-2.24-2.03-2.23-3.73,3.54-3.92,6.49-8.32,9.08-12.93,4.6-8.21,6.76-18.34,14.05-24.37-3.95.13-22.66-2.05-23.8-5.73-.39-1.24.4-2.75.67-3.97-.09.06-.24.03-.38,0h-.37c-.13.09-.24.22-.35.35-.13.15-.25.31-.39.39-1.5.98-2.96,2.01-4.48,2.99-.18.11-.57-.12-.75,0-1.43,2.04-4.38,3.53-7.11,5.1-1.31.92-2.62,1.8-3.92,2.69-1.63,1.49-2.51,3.26-1.66,5.64l-2.23-2.98c-.17.11-.57-.12-.74,0-1.97,2.52-5.54,4.07-8.4,5.81-.78.54-1.53,1.09-2.3,1.63-.74.68-.2,2.53-1.96,2.3l2.59,4.42c-7.7-6.19-5.56-3.12-2.62,3,.1.2-.1.55,0,.75,4.03,4.81,7.35,10.9,10.45,16.42.1.19-.11.56,0,.75,1.87,1.18,2.69,3.41,3.73,5.22,2.62.43,9.59-1.82,11.5-1.37.65.15,6.12,8.16,7.15,9.58.56.76,1.04,1.65,1.5,2.24.88,1.15,1.55,2.39,2.98,2.99,2.01-2.71,3.98-5.49,5.97-8.21,0-1.01-2.92-5.54-3.73-6.72-.4-.58-1.6-1.36-2.24-2.24h-.01ZM13.87,130.68c-.55,1.01,1.25,2.71,1.49,3.73-.92.87-3.28-2.13-3.73-2.98-1.14.29-1.51-.3-2.24-.75-2.62-1.58-4.33-3.67-2.98-6.72.98.54,2.76.74,3.44,1.5.63.7-.48,1.41-.46,1.49.35,1.34,2.17,2.09,2.24,2.24l4.46,1.12c-.51,1.34-2.16.27-2.22.37h0ZM19.46,138.14c-5.55-3.78-.51-8.17,1.86-2.24l-2.23-.74.37,2.98ZM23.2,141.87c-4.12-3.81,1.17-5.6,3.35-1.49l-3.35,1.49Z"/>
      <path class="cls-1" d="M79.64.2c-.33.21-2.22,6.37-2.34,7.36-.65,5.25,1.95,16-.14,19.64-.96,1.66-3.78,1.76-2.85,4.99,1.57-6.82,4.87,1.55,1.09,1.33,0,1.82-.37,2.86-1.09,3.14v2.99c.93.16,1.2.97.89,2.36.17-.33.45-.59.61-.87.24-.44.62-1.04.74-1.49.02-.09-.13-.48,0-1.49v-.74c-.53-1.23-1.17-1.95-.74-3.73,2.35.76.87,2.29.74,3.73.25.58,1.33,1.31,1.5,2.38.06-1.81.86-1.75,2.23-.14-1.41-1.98-2.91-5.83-2.98-8.21-.08-2.22.54-2.3,1.49-3.73,1.08-1.64,1.91-2.64,2.98-4.48-.79.79-2.32-.66-1.48-1.49.83-.83,2.28.69,1.48,1.49.13-.21,1.15-.35,1.35-1.22.2-.85-.62-1.57-.6-1.76.34-3.73,2.02-6.76,2.24-10.45.1-.21-.12-.67,0-.74l.37-.73.38.73c.09.1-.06.5,0,.74l.75-6.71c1.05-.15,1.39,2.04,1.44,2.69.13,1.88-1.17,10.87-.7,11.48.14.19,1.56-.41,1.49.37l-2.24,1.12v1.49c.42.06,1.68.54,2.24.74,3.34,1.21,13.99,11.45,14.63,14.55.11.53-.35,1.29-.45,1.87,2.56-.67,5.21-3.55,5.98-5.97,1.54-.13.4,2.03,0,2.62l2.23.37-4.49,5.96v-2.97c-.5-.39-3.09,1.06-3.72,1.49-5.02,3.45-1.61,8.95-8.95,11.94-.39.16-.84.81-1.5.75h-.74c.71.84,1.79,3.14,2.98,4.48,1.76,1.96,2.97,3.68,5.23,5.22.73-.51,1.51-.96,2.23-1.49l-2.98-1.49c-.05-1.15,1-.56,1.49-.74.39-.15,1.35.17,1.49,0,.02-.06.03-.12.05-.18.02-.52-.49-1.76,1.07-1.3.52.16.34.73.38.74,1.94.38,1.16-1.4,2.23-2.24.19-.14,1.07.1,1.5,0,.18-1.43.78-2.09,1.87-2.98l.37.38c-.08,1.12-1.61,2.95-2.24,4.1-.28.5.66,1.95-1.5,1.49-.34,1.57-1.42,3.07-2.23,4.48-.9,1.55-2.08,2.94-2.99,4.48,1.99,1.09,2.91.6,2.98.74.27.51-.26,2.3-.01,3.25.21.84,1.44.4,1.51.48,3.13-.41,4.53.56,1.49,2.24,1.08,1.17.34,2.42,3.15,3.26.38.11,4.86.63,5.06.47.16-.13-.16-1.16,0-1.49.25-.5.43-1.03.74-1.49v-.74c-.89.15-1.63.67-2.98.74-1.6.1-2.64.48-2.24-1.49.74-.05,1.5.06,2.24,0,.73-.06,1.53.1,2.24,0l-.75-2.24c.67-.14,1.74.18,2.24,0,.58-.22,2.48-1.16,2.99-1.49.14-.09-.54-2.09,2.09-1.52.03-.04.05-.07.07-.11-.58-1.39-2.73-.81-2.91-3.59-.02-.23-.05-.57,0-.74.13-.43,2.36-2.94,2.98-2.24.13.15.01,2.93.01,3.73v1.49c.26.2.46,1.12.74,1.49.18-.02.74-.03.75,0-.35-.35.69-1.19.74-.37.02.26-.58.54-.74.37.35,1.02-1.25.61-1.49.75-.69.39-1.25.66-1.5,1.49,1.74-.05,3.12,1.83,3.97,2.63.16.07.33.18.51.36.33.07,1.23-.52,1.86-.41,1.75.32,2.58,1.61,4.86.41l-2.24-1.49,1.48-1.5-2.23.74c.6-1.69-.48-3.93,2.24-3.72,0,.94-1.88,2.3.36,2.24.68-.02.05-.92.94-1.49.45-.28,1.44.13,1.68-.01.15-.09-.36-2.3,2.24-1.49-.09-.11.23-.8-.21-1.28-.3-.32-1.38-.31-2.03-.95-.57-.56-.25-5.31,0-6.71.09-.76-.41-1.04-.74-1.49-.02.26.05.54,0,.75-.06.23-.62.49-.75.74v.37c.03.15.06.29,0,.38-1.1,1.58-1.79,1.11-2.23,1.49-.16.14-.41,2.29-2.98,2.24-.69-1.61,1.26-1.69,1.48-2.24.1-.23.73-2.12.75-2.24.26-1.79.44-5.36-1.47-5.96-.09.67-.33,1.4-.77,2.23-.05,1.06-.51,6.48-.75,6.72-1.54,1.56-2.56-1.43-2.98-2.24-.78-.05-1.68.68-2.24.75-.41.05-1.1.07-1.49,0-.32-.06-1.16-.52-1.49-.75l-.44.69c-.6-.07-1.36-.31-1.8-.69-3.06-2.64,0-3.18.01-3.41.05-1.14-1.18-1.04-.01-2.56.07-.09,1.41-1.43,1.49-1.49l-2.23-2.99c-.07-.08.57.09,1.22.46.38-.29.06-1.56,1.76-1.19v2.98c.49-.31,6.13-2.85,6.49-2.89,1.28-.15,1.36,1.15,1.72,1.39.25.18,1.33-.18,1.49,0-.11-.7.05-1.51.01-2.24,1.57.02-.26,2.57,2.23.74-.03-.49-.81-1.5-.75-2.24-.18-.02-.65-.79-1.73-.71-2.51.19-5.29,1.68-7.97,1.45.83-2.21,3.61-1.26,5.48-1.64.87-.18,1.15-1.32,1.24-1.34l-2.24-2.99h-.74c-.49.04-1-.01-1.49,0-1.07,1.76-2.21,1.04-3.73.75-.47-.09-1.18.13-1.5,0-.57,1.44-1.63-.4-1.49-1.49-.09-.18.07-.5,0-.74-.81-.74-1.11-1.77-1.39-2.78-.25-.92.65-.89.64-.95-.06-.44-3.36-3.21-4.48-7.46l-4.47-3.73c-.15.16-1.1-.15-1.5,0-.14.06-.13.96-.73.75-.16-.92.19-2.17,0-2.99-.06-.23.06-.52,0-.75-.05-.19-1.79-.54-1.54-3.36.17-1.9.49-.78,1.54-1.11,1.21-.39.46-.43,0-1.49-3.56-4.02-7.48-8.22-10.45-12.69-1.41-.03-3.66.51-4.48-.74-.99-.01-1.99-.04-2.98,0-1.28.06-4.44-.33-5.12.1h0ZM106.4,46.74c1.16-1.63,2.3-1.45,2.98.36l-2.98-.36ZM125.05,62.04v1.49h-2.23c.25-1.08,1.2-1.71,2.23-1.48h0ZM114.61,65.02c.11-1.15-.71-4.27.73-4.47l.75,4.47c-.48.05-1-.06-1.48,0-.15,1.54.56,3.86-1.49,4.48.34-2.95-1.28-4.12,1.49-4.48ZM110.5,70.24v-.75c.49.25.49.5,0,.75ZM110.13,55.31c-.5-.26.44-1.27,1.49-.73.51.26-.44,1.27-1.49.73ZM99.31,18.75c.26-.02.54.58.37.75.93-.48,2.61,1.2,2.24,1.48-.93.5-2.6-1.2-2.24-1.48-.35.35-1.18-.69-.37-.75Z"/>
      <path class="cls-1" d="M115.84,47.56c-.65-.37-1.29-.54-1.23-.46.73.52,1.05.59,1.23.46Z"/>
      <path class="cls-1" d="M74.31,39.64c.09,1.62.69,2.49.75,2.99-.02-.25.04-.44.14-.62.31-1.39.03-2.2-.89-2.36h0Z"/>
      <path class="cls-1" d="M78.04,39.79c.03.19.04.39,0,.6.68-.34,1.47-.74,2.24-.74-1.38-1.6-2.18-1.66-2.24.14Z"/>
      <path class="cls-1" d="M75.4,33.52c3.78.22.48-8.15-1.09-1.33.49-.51.69-1.43.76-1.48.71-.47,1.82-.16,1.48,1.1-.15.57-2.11.21-2.24,4.86.71-.28,1.08-1.33,1.09-3.14Z"/>
      <path class="cls-1" d="M169.83,67.26c-1.87-.11-2.46.85-1.93-1.55.5-2.25,1.5-4.37,1.92-6.64-.8-.11-1.51-.43-2.23-.77h-11.94c.01.19-.64,3.33-.74,3.73-.21.76-1.32.59-1.5.74-.42.35-.43,1.54-1.72,1.39-1.73-.2-4.49-3.23-7.23-2.13,1.25,3.65,5.41,5.47,5.22,9.69-1.82-.62-1.12-2.7-2.25-4.08-1.26-1.53-4.77-1.27-2.97-3.37-1.46-.13-3.03.15-4.48,0v.75c.24.1,2.88,2.98,3.73,3.73,2.57,2.26,7.05,6.22,6.72,9.7.47-2.02,1.31-1.83,2.23,0-.57-3.66,8.21-5.16,10.45-3.32.79.64.64,1.73.75,1.83,1.02.91,2.29,2.06,3.73,2.24.05-.24-.06-.51,0-.75l.74-2.24c.05-.24-.05-.51,0-.75l.75-2.99c.05-.24-.04-.5,0-.75l.74-2.24c.04-.24-.02-.5,0-.75.05-.49-.05-1.01,0-1.49h.01ZM151.92,70.23c-.5-.26.44-1.27,1.49-.73.51.26-.44,1.27-1.49.73ZM157.14,70.24h-2.23v-1.49h2.23v1.49Z"/>
      <path class="cls-1" d="M152.67,78.45c-.93-1.83-1.77-2.02-2.24,0,.74-.05,1.5.07,2.24,0Z"/>
      <path class="cls-1" d="M106.4,1.59c.67.02,1.35,0,2.02-.01-.62-.05-1.28-.06-2.02.01Z"/>
      <path class="cls-1" d="M112.84,4.57c.07.52.15,1.02.27,1.5-.02-.56-.13-1.04-.27-1.5Z"/>
      <path class="cls-1" d="M107.39,5.97c2.18,2.67,3.56,3.98,6.47,4.57-.05-.23.03-.5,0-.75-.03-.24.05-.51,0-.74l-.74-2.24c-.06-.23.06-.51,0-.75-1.78-5.33-2.54-2.81-6.72-4.48-.74-.02-1.49,0-2.24,0-.49,0-.99,0-1.49,0,1.91.75,3.49,2.21,4.72,4.38h0Z"/>
      <path class="cls-1" d="M107.39,5.97c-1.24-2.17-2.81-3.63-4.72-4.38.77,1.97,3.05,4.84,4.48,6.35.61.65,3.27,3.41,3.71,3.75.75.58,2.18-1.04,3-1.15-2.91-.59-4.29-1.9-6.47-4.57Z"/>
      <path class="cls-1" d="M37,165.01c-.88.27-1.45.22-1.7-.13-1.12.85-3.66.49-4.21-1.59.02-.65-2.11-4.06-2.5-4.22-.41-.17-4.33.31-6.3.58.81.06,1.35.61,2.02.88,1.97.79,4.25,1.42,5.97,2.62-1.24.18-4.16.07-5.22-.38l-.75.74c.68.46,1.76.56,2.24,1.49.21.09.53-.09.75,0l.74.74c.22.08.52-.08.75,0,.91.31,2.2.37,2.98.75l5.23-1.49h0Z"/>
      <path class="cls-1" d="M35.3,164.88c.25.36.82.41,1.7.14-.45-.59-.93-1.48-1.49-2.24.56.96.34,1.68-.21,2.11h0Z"/>
      <path class="cls-1" d="M35.16,164.28c-.47.28-1.2.19-1.77-.16-.73-.45-2.81-6-4.36-6.49-1.59-.51-5.54,1.43-7.71.67.04.48-.07,1.03,0,1.49.37-.12.68-.16.96-.14,1.97-.27,5.9-.75,6.31-.58.39.16,2.51,3.57,2.5,4.22.55,2.09,3.08,2.45,4.21,1.59-.11-.15-.15-.35-.15-.6h.01Z"/>
      <path class="cls-1" d="M35.16,164.28c0,.25.04.45.14.6.55-.43.77-1.14.2-2.11.23.81.03,1.28-.34,1.51Z"/>
      <path class="cls-1" d="M151.92,50.84c2.37.53.49,2.79-1.22,3.26-.28,1.35-.87,2.25-1.77,2.71.42.44.7.67.94.73.09-.01.21-.01.32-.02.29-.15.54-.65.98-1.47.35-.65-.73-1.91,1.12-1.49l.38.74c.14-.5.74-1.8,1.12-2.25,1.07.01-.97,2.44,1.86,2.25,1.53-.11,1.64-.36,3.73.75h.66c-.03-.43,0-.92.09-1.49-1.64.85-3.43-.72-1.49-2.24-1.3-.36-2.76-.34-3.73-1.49-.24-.05-.51.04-.75,0-.7-.11-1.55.12-2.24,0h0Z"/>
      <path class="cls-1" d="M150.7,54.1c1.72-.47,3.59-2.73,1.22-3.26.31,1.47-3.56,3.1-2.99,5.97.9-.46,1.49-1.36,1.77-2.71Z"/>
      <path class="cls-1" d="M160.03,56.06h.1c.13-.34-.09-1.04,0-1.49-.1.57-.12,1.07-.1,1.49Z"/>
      <path class="cls-1" d="M160.13,54.57c-.45-.68-1.33-1.24-1.5-2.24-1.93,1.52-.15,3.09,1.5,2.24Z"/>
      <path class="cls-1" d="M87,55.32l.74.75c.77.06,1.72.88,2.24,1.49.4.46,1.13.05,0,1.49.41-.07.86.26.74.74,2.1-3.46,5.28.38,6.41,3.19.52.18.97.38,1.37.61.7-.49,2.05-1,2.67-.8-.02.1-.07.19-.1.28.27-.2.59-.38.96-.54-.15-.27-.03-.86-.25-1-.36-.24-.87.61-2.1-.23-2.19,1.56-6.51-3.05-5.22-5.22l-.37.73c-.82-1.23-3.34-2.49-3.65-3.98-.8,3.17-1.7,3.52-2.7,1.01-1.06.45-.65.5-.74,1.49h0Z"/>
      <path class="cls-1" d="M100,64.91c0-.31.08-.59.21-.86-.23.12-.48.19-.75.23.21.2.4.4.54.62Z"/>
      <path class="cls-1" d="M90.44,52.81c-.08-.39,0-.8.29-1.23-1.21.42-1.43,1.88-2.24,2.58-.28.23-.71-.35-.75-.34,1,2.51,1.9,2.16,2.7-1.01Z"/>
      <path class="cls-1" d="M99.68,61.29c-2.26-1.55-3.47-3.26-5.22-5.22-1.28,2.17,3.04,6.78,5.22,5.22Z"/>
      <path class="cls-1" d="M102.04,62.52c-.38.17-.7.35-.97.54-.18.47-.48.79-.86.98-.13.27-.21.55-.21.86.3.48.44,1.01.43,1.6.9-1.54,2.08-2.93,2.98-4.48-.92.73-1.25.72-1.38.49h.01Z"/>
      <path class="cls-1" d="M100,64.91c-.14-.22-.33-.43-.54-.62-.4.06-.83.05-1.27-.02-.27-.13-.08-.4.31-.67-.39-.22-.84-.43-1.37-.61-1.12-2.81-4.31-6.65-6.4-3.19,4.85-.1,3.59,2.79,5.61,4.48.18.15,3.37,1.84,4.09,2.24-.3-.58-.44-1.12-.43-1.61h0Z"/>
      <path class="cls-1" d="M100.43,66.51c.02-.59-.13-1.12-.43-1.61,0,.49.12,1.02.43,1.61Z"/>
      <path class="cls-1" d="M112.24,101.64c.73.23.31,1.16-1.21,2.79.19.02.38.05.59.14,1.53-1.33-.72-1.69,2.98-2.24.72-.1,1.53.1,2.24,0,.19-.03.5-.57.75-.74-1.86.22-3.64.23-5.35.06h0Z"/>
      <path class="cls-1" d="M111.03,104.43c1.53-1.62,1.94-2.55,1.22-2.78-.21-.02-.42-.03-.63-.06-.16.26.39,1.68-.13,2.12-.74.61-2.81-.92-2.11,2.36.09-1.07.76-1.71,1.65-1.63Z"/>
      <path class="cls-1" d="M117.59,101.58c-2.12-.43-2.07.95-2.62-2.25-.59-.04-3.12,1.89-3.35,2.25.27-.01.47,0,.62.06,1.71.17,3.49.16,5.35-.06h0Z"/>
      <path class="cls-1" d="M111.62,101.58c.21.03.42.04.62.06-.15-.05-.35-.08-.62-.06Z"/>
      <path class="cls-1" d="M111.03,104.43c-.46.49-.98,1.02-1.65,1.63.7-.43,1.66-.99,2.24-1.49-.2-.08-.4-.12-.59-.14Z"/>
      <path class="cls-1" d="M111.03,104.43c-.89-.08-1.56.56-1.65,1.63.67-.61,1.19-1.14,1.65-1.63Z"/>
      <path class="cls-1" d="M88.49,72.48c.11.49.68,1.07.74,1.49.1-.36.25-.72.47-.99-.34-.1-.73-.24-1.21-.5Z"/>
      <path class="cls-1" d="M91.67,71.46c.5-1.41,2.6-2.22-.94-2.72l-2.24,3.73c1.1-.31,1.63-.22,1.63.16.06-.02.1-.06.16-.08,1.08-.23,1.12.77-.29.49-.14.25-.39.56-.76.92,5.06.53,1.91-.99,2.44-2.51h0Z"/>
      <path class="cls-1" d="M89.99,73.06c1.41.28,1.37-.73.29-.49-.06.01-.1.05-.16.08,0,.11-.03.25-.13.41Z"/>
      <path class="cls-1" d="M90.12,72.64c0-.38-.53-.47-1.63-.16.48.26.87.4,1.21.5.11-.15.26-.26.42-.34Z"/>
      <path class="cls-1" d="M89.7,72.98c-.22.28-.37.64-.47.99.37-.36.62-.66.76-.92-.09-.02-.19-.05-.29-.08Z"/>
      <path class="cls-1" d="M89.7,72.98c.1.03.2.06.29.08.1-.17.13-.3.13-.42-.16.07-.3.19-.42.34Z"/>
      <path class="cls-1" d="M75.06,42.63c.83,4.86,1.07,4.61.74-.75v-.75c-.06.76-.31,1.26-.74,1.49Z"/>
      <path class="cls-1" d="M75.06,42.63c.25,2.38-.43,6.01,2.23,7.46l-1.49-8.21c.34,5.35.09,5.6-.74.74Z"/>
      <path class="cls-1" d="M75.8,41.14c-.15.28-.43.54-.6.87-.05.21-.07.39-.14.62.43-.23.68-.73.75-1.49h-.01Z"/>
      <path class="cls-1" d="M75.06,42.63c.07-.23.09-.41.14-.62-.1.18-.17.38-.14.62Z"/>
      <path class="cls-1" d="M81.77,51.58c.36,1.48-.4,2.53-.74,3.73.35-.35,1.19.69.37.75-.26.02-.54-.58-.37-.75-.19.68-.98.86-.75,2.61.17,1.37,2.74-1.07,2.79-1.25.22-.83-.96-1.61.2-3.6-.71.91-1.21.41-1.5-1.49Z"/>
      <path class="cls-1" d="M81.77,51.58c.29,1.9.79,2.4,1.5,1.49-.52-.48-1.05-.95-1.5-1.49Z"/>
      <path class="cls-1" d="M94.08,93.61c.08-.07.2-.15.38-.23-1.42-.68.08-2.83,0-2.99-.03-.06-.95.06-1.35-.19.07.82-.16,1.59-.89,1.68.63.33,1.25.91,1.86,1.72h0Z"/>
      <path class="cls-1" d="M92.23,88.25c.17.12.32.31.46.54.03-1.37,2.37.98,2.51.85.15-.14-.13-1.08,0-1.49l-2.24-1.49c.08.67-.19,1.19-.74,1.59h0Z"/>
      <path class="cls-1" d="M94.08,93.61c-.62-.81-1.24-1.39-1.86-1.72.36,2.38.88,1.71,1.87,2.06-.14-.1-.14-.22,0-.34h0Z"/>
      <path class="cls-1" d="M92.23,88.25c.55-.4.82-.92.74-1.59-.18.08.2-.25-1.37.68-.48.28-1.42-.06-1.62.07-.3.19.7,1.09.75,1.48.53-.87,1.07-.95,1.5-.65Z"/>
      <path class="cls-1" d="M93.11,90.2c-.07-.05-.14-.1-.16-.18-.2-.58-.27-.97-.26-1.23-.14-.23-.29-.41-.46-.54-.37.27-.84.5-1.5.65,2.96,1.18,1.39,2.31,1.49,2.99.73-.09.96-.86.89-1.68h0Z"/>
      <path class="cls-1" d="M90.73,88.9c.66-.15,1.13-.37,1.5-.65-.43-.31-.97-.23-1.5.65Z"/>
      <path class="cls-1" d="M94.08,93.61c.13.17.25.33.38.51v-.74c-.18.08-.3.16-.38.23Z"/>
      <path class="cls-1" d="M94.09,93.94c.11.04.24.1.37.18-.13-.19-.25-.35-.38-.51-.13.12-.13.23,0,.34Z"/>
      <path class="cls-1" d="M139.98,99.34c.41-.28.72-.43.95-.49-.04-.4-.35-.24-.95.49Z"/>
      <path class="cls-1" d="M139.98,99.35c.33-.04.89.29.75.74.16-.6.22-1.01.2-1.24-.23.06-.54.21-.95.49h0Z"/>
      <path class="cls-1" d="M142.96,97.11c-1.5.04-3.43.56-2.98,2.24.6-.73.91-.89.95-.49.56-.15.56.32-.2,1.24.91-.9,2.63-1.24,2.23-2.98Z"/>
      <path class="cls-1" d="M140.93,98.85c.02.23-.04.64-.2,1.24.76-.92.76-1.38.2-1.24Z"/>
      <path class="cls-1" d="M60.13,74.72c.83,3.19.83,2.69,0-1.49.08.47-.07,1.02,0,1.49Z"/>
      <path class="cls-1" d="M60.13,74.72c.15,1.01-.28,4.02,1.5,3.35l-1.5-4.84c.83,4.19.83,4.68,0,1.49Z"/>
      <path class="cls-1" d="M74.31,39.64v-2.99c-.01.3-.01,2.82,0,2.99Z"/>
      <path class="cls-1" d="M72.45,47.11c-2.04,1.16-.5,2.33.37,1.49.05-.05.28-1.58-.37-1.49Z"/>
      <path class="cls-1" d="M45.8,152.84c-.14-.99.22-2.15.84-3.3-2.1,1.38-4.24,1.06-6.1-.04,1.02.73,1.67,2.12,2.43,2.83,1.02-.28,1.96-.11,2.83.51h0Z"/>
      <path class="cls-1" d="M38.94,148.32c.7.85,1.06,1.69,1.04,2.51l.36-1.45c-.49-.31-.95-.66-1.4-1.06Z"/>
      <path class="cls-1" d="M61.63,124.72l-.75-1.49c-.51,1.86-2.2,5.8-4.28,10.09,1.69-2.87,3.37-5.75,5.03-8.6Z"/>
      <path class="cls-1" d="M47.76,155.01c-.06-.02-.11-.04-.16-.06.04.06.08.13.11.2,0-.06.02-.1.05-.14Z"/>
      <path class="cls-1" d="M38.94,148.33c-.42-.38-.83-.79-1.2-1.22,0,1.7,1.39,2.56,2.24,3.73.02-.82-.34-1.66-1.04-2.51h0Z"/>
      <path class="cls-1" d="M46.86,149.39c-.07.05-.15.09-.22.15-.62,1.15-.98,2.31-.84,3.3.64.46,1.24,1.17,1.8,2.11.05.02.1.04.16.06.12-.17.54-.09,1.18.3-3.59-1.79-.71-5.72.47-8.12,4.04-8.23,8.6-13.24,12.22-22.48-1.66,2.85-3.34,5.73-5.03,8.6-3.33,6.85-7.65,14.58-9.74,16.07h0Z"/>
      <path class="cls-1" d="M38.94,148.32c.45.4.91.75,1.4,1.06v-.04c.08.04.13.11.2.15,1.86,1.1,4,1.41,6.1.04.52-.97,1.22-1.92,1.98-2.74,2.7-4.52,5.35-9.01,7.98-13.48,2.08-4.29,3.77-8.23,4.28-10.09-2.58,5.42-10.66,21.83-14.88,25.05-2.66,2.03-5.72.49-8.25-1.17.49.41.87.82,1.2,1.22h-.01Z"/>
      <path class="cls-1" d="M56.6,133.32c-2.63,4.47-5.28,8.96-7.98,13.48-.76.82-1.46,1.78-1.98,2.74.07-.05.15-.09.22-.14,2.09-1.5,6.41-9.22,9.74-16.08h0Z"/>
      <path class="cls-1" d="M38.94,148.33c-.33-.4-.71-.81-1.2-1.22.38.43.78.84,1.2,1.22Z"/>
      <path class="cls-1" d="M47.6,154.95c-1.13-.46-1.68-1.21-1.8-2.11-.87-.62-1.82-.79-2.83-.51,1.56,1.47,3.21,2.89,5.22,3.73-.33-.41-.48-.72-.48-.91-.03-.06-.07-.13-.11-.19Z"/>
      <path class="cls-1" d="M47.6,154.95c-.56-.95-1.16-1.65-1.8-2.11.12.9.67,1.66,1.8,2.11Z"/>
      <path class="cls-1" d="M47.71,155.14c.16.29.33.59.48.91.19-.25.58-.43.75-.75-.46-.07-.84-.18-1.19-.3-.02.03-.04.08-.04.14h0Z"/>
      <path class="cls-1" d="M47.76,155.01c.34.12.72.23,1.18.3-.64-.39-1.06-.47-1.18-.3Z"/>
      <path class="cls-1" d="M48.19,156.06c-.16-.33-.32-.63-.48-.91,0,.19.15.5.48.91Z"/>
      <path class="cls-1" d="M10.71,129.94c.16-.33.46-.62.92-.74-.07-.15-1.89-.91-2.24-2.24l-.2,1.13c.59.52,1.27,1.28,1.52,1.86h0Z"/>
      <path class="cls-1" d="M10.63,130.69c-.2.12-.59.14-1.24,0,.73.44,1.1,1.03,2.24.75-.57-.09-.89-.39-1-.74Z"/>
      <path class="cls-1" d="M11.63,129.19c-.46.13-.76.42-.92.74.15.34.16.61-.08.75.11.35.43.65.99.74-.22-.41.22-1.77,0-2.24h0Z"/>
      <path class="cls-1" d="M10.63,130.69c-.07-.24-.04-.51.08-.75-.26-.58-.93-1.33-1.53-1.86l.21-1.13c-2.89-.53-.45,1.89.73,3.36l-.73.37c.65.15,1.04.13,1.24,0h0Z"/>
      <path class="cls-1" d="M10.63,130.69c.24-.14.23-.42.08-.75-.12.25-.15.51-.08.75Z"/>
      <path class="cls-1" d="M115.92,75.16c.71.04,1.19.52,1.73,1.36,1.37-1.82,2.84-2.42,4.42-1.8-3.74-1.79,1.24-1.25,0-2.6-2.03-2.2-3.46,1.38-2.97-2.62v-.75c-.27,1.55-.76,2.58-1.65,2.4l-.59.58c-.05-.37-.08-.66-.07-.89-.21-.15-.44-.34-.68-.6-.12.57.19,2.02,0,2.24-.11.13-1.05-.06-1.49,0-.16.21-.33.37-.52.5.47,0,.94.09,1.26.25.42-.07,1.54-.24,1.5.37l-1.5.37c.5.51.68.92.57,1.19h0Z"/>
      <path class="cls-1" d="M113.03,73.15c-.27-.09-.51-.31-.66-.67v1.49c0-.4.28-.66.66-.82Z"/>
      <path class="cls-1" d="M113.03,73.15c.31-.12.68-.18,1.06-.18.19-.12.36-.29.52-.5-.71.1-1.51-.06-2.24,0,.16.37.39.58.66.67h0Z"/>
      <path class="cls-1" d="M118.34,70.25l-.9.9c.88.18,1.38-.85,1.64-2.4-.5.33-2.4,1.28-2.98,1.49.24.26.47.45.68.6.01-.71.37-.76,1.56-.6h0Z"/>
      <path class="cls-1" d="M113.03,73.15c.34.12.72.05,1.06-.18-.38,0-.75.05-1.06.18Z"/>
      <path class="cls-1" d="M113.03,73.15c-.38.16-.66.42-.66.82,1.35-.08,2.09-.6,2.99-.74-.33-.16-.8-.25-1.27-.25-.34.23-.72.3-1.05.18h-.01Z"/>
      <path class="cls-1" d="M115.92,75.16c.11-.27-.07-.68-.57-1.19-.31.47-.5,1-.74,1.49.53-.23.95-.32,1.31-.3Z"/>
      <path class="cls-1" d="M112.05,82.16c-.14.22-.53,4.65-.06,5.24,1.4-1.55,1.24-3.68,2.6-5.4,2.06-2.62,4.86-5.25,7.48-7.28-1.58-.62-3.05-.02-4.42,1.8-.54-.83-1.02-1.32-1.73-1.36-.11.28-.55.4-1.31.3,4.6,3.35-1.61,5.2-2.56,6.7Z"/>
      <path class="cls-1" d="M115.92,75.16c-.36-.02-.78.07-1.31.3.76.1,1.2-.02,1.31-.3Z"/>
      <path class="cls-1" d="M133.64,55.9c.25-.54.57-1.14.74-1.34.66.01.39,1.56.38,2.25-.02.53-.75.69-.75.75.01.14.96,1.01,1.49,2.24.21-.65.46-.64.75,0,.07-.37.16-.69.25-.99.03-.85-.22-1.81-.04-2.29.34-.96,1.16-1,1.28-1.2,1.38-2.25.65-3.59,0-5.97-.39,3.14-4.5.62-2.98-1.49-.4.38-1.05,1.44-1.5,1.49.15.65,1.35,1.57,1.5,2.24.03.15.05.62,0,.74-.35.78-1.62.9-2.24,1.49-.02.5.03,1,0,1.49,1.34-1.17,1.71-.96,1.12.58h0Z"/>
      <path class="cls-1" d="M132.52,55.31c.33.46.84.73.74,1.49.02-.11.18-.49.38-.91.58-1.55.22-1.75-1.12-.58Z"/>
      <path class="cls-1" d="M135.5,59.79h.75c-.29-.64-.54-.65-.75,0Z"/>
      <path class="cls-1" d="M136.25,59.79c.17-.28.23-.62.25-.99-.09.3-.18.62-.25.99Z"/>
      <path class="cls-1" d="M137.74,49.35c-1.69,0-2.12.19-2.98-1.49-1.52,2.12,2.59,4.64,2.98,1.49Z"/>
      <path class="cls-1" d="M102.67,38.9c.66-.98.66-1.47,0-1.49-.08.46.05,1.01,0,1.49Z"/>
      <path class="cls-1" d="M102.67,38.9c1.25-1.17,1.25-1.67,0-1.49.66.02.66.52,0,1.49Z"/>
      <path class="cls-1" d="M137.12,63.88s.03.04.06.07c.96.38,1.9.73,2.8,1.06-.65-.21-.64-.46,0-.75-.78.36-1.88.13-2.86-.39h0Z"/>
      <path class="cls-1" d="M134.01,57.56l.75-.75h-1.5c.23.4.41.79.57,1.17.05-.14.1-.28.18-.42h0Z"/>
      <path class="cls-1" d="M134.38,59.77c.09.55.08,1.06.01,1.55.15.03.32.1.51.21-.17-.62-.03-1.23.6-1.74-.47.14-.84.1-1.12-.03h0Z"/>
      <path class="cls-1" d="M134.38,61.32c.08-.49.09-1,0-1.55-.61-.27-.8-1.01-.54-1.79-.16-.38-.34-.77-.57-1.17-.25,1.41-.57,6.15,0,6.72.05-1.62.43-2.34,1.12-2.21Z"/>
      <path class="cls-1" d="M139.98,65.02v-.74c-.64.28-.65.53,0,.74Z"/>
      <path class="cls-1" d="M135.5,59.79c-.63.51-.77,1.12-.6,1.74.58.36,1.32,1.15,2.22,2.35.98.52,2.08.74,2.86.39-3.44-.38-3.28-1.74-4.48-4.48Z"/>
      <path class="cls-1" d="M134.38,54.56c-.17.2-.49.8-.74,1.34-.1.27-.22.56-.38.91h1.5c.01-.69.28-2.24-.38-2.25h0Z"/>
      <path class="cls-1" d="M133.83,57.98c.27.63.45,1.23.54,1.79.29.13.66.16,1.13.03-.53-1.23-1.49-2.09-1.49-2.24-.08.14-.13.28-.18.42Z"/>
      <path class="cls-1" d="M134.38,59.77c-.09-.56-.28-1.16-.55-1.79-.26.78-.06,1.52.55,1.79Z"/>
      <path class="cls-1" d="M133.26,56.81c.16-.35.28-.64.38-.91-.2.42-.36.8-.38.91Z"/>
      <path class="cls-1" d="M137.12,63.88c-1.06-.56-1.97-1.45-2.22-2.35-.19-.12-.36-.18-.52-.21-.08.53-.27,1.02-.55,1.47,1.68-.25,2.33,1.39,3.73,2.07.78.38,2.01-.01,2.42.16-.9-.33-1.84-.69-2.8-1.06-.02-.03-.04-.05-.06-.07Z"/>
      <path class="cls-1" d="M133.83,62.79c.28-.45.47-.94.55-1.47-.69-.14-1.07.59-1.12,2.21l.43-.73c.05-.01.09,0,.14-.01Z"/>
      <path class="cls-1" d="M137.12,63.88c-.9-1.2-1.64-1.99-2.22-2.35.25.9,1.16,1.79,2.22,2.35Z"/>
      <path class="cls-1" d="M104.86,21.92c.03.14.05.32.05.56.22-.24.04-.4-.05-.56Z"/>
      <path class="cls-1" d="M105.91,18.69c-.29-1.24-.89-2.43-1.8-3.6-.04.2-.45.22-1.44-.08,1.82.85,1.38,3.3,3.24,3.67Z"/>
      <path class="cls-1" d="M104.83,21.78c0-.19.3-.41,1.57-.79.19-.06.46-.59.74-.75l-1.02.13c0-.32-.03-.63-.07-.94-.18.05-.36.04-.4.07-.05.05.12.62-.37.73l-.37-.73c-.55-.88-2.05-1.33-2.24,0,.67.2.66.45,0,.75,2.07-.35,1.84.69.75,2.24.77-.91,1.24-1.14,1.41-.7h0Z"/>
      <path class="cls-1" d="M104.83,21.78c-.18-.44-.65-.21-1.42.7.4-.15,1.35.16,1.5,0,0-.24-.02-.42-.05-.56-.02-.04-.03-.09-.03-.14Z"/>
      <path class="cls-1" d="M102.67,19.5c.06.23-.06.51,0,.75.65-.3.66-.55,0-.75Z"/>
      <path class="cls-1" d="M104.11,15.1c-.42-.53-.9-1.06-1.44-1.57.45,1.06,1.21,1.11,0,1.49.99.29,1.4.28,1.44.08Z"/>
      <path class="cls-1" d="M107.23,20.33s-.05-.06-.09-.09c.02.03.05.05.09.09Z"/>
      <path class="cls-1" d="M104.11,15.1c.91,1.16,1.51,2.36,1.8,3.6.15.03.3.08.49.08.06.45-.14.6-.35.66.04.31.06.62.07.94l1.02-.13c-.55-1.14-.7-3.68-1.74-4.97-.63-.78-2.13-1.06-2.74-1.74.91.72,1.5,1.31,1.45,1.57h0Z"/>
      <path class="cls-1" d="M102.67,13.53c.54.52,1.02,1.04,1.44,1.57.05-.26-.54-.85-1.44-1.57Z"/>
      <path class="cls-1" d="M132.03,55.83c-1.6-.85-.28-1.14-.26-1.26.04-.26-.08-.57,0-.75.21-.5.6-1.01.75-1.49v-1.49c-.48-.47-.62-.85-1.5-.75-.04.11-.07.18-.11.25.99.77.66,3.06-.63,3.48-.02.91.16,2.23,0,2.99h1.49c-.86-.93-.65-1.35.26-.98h0Z"/>
      <path class="cls-1" d="M131.77,56.81c.13-.26.69-.51.75-.75-.19-.08-.35-.16-.49-.23-.91-.37-1.12.05-.26.98h0Z"/>
      <path class="cls-1" d="M130.91,50.35c.04-.07.08-.14.12-.25h-.75c.26.02.46.12.63.25h0Z"/>
      <path class="cls-1" d="M130.28,53.82c1.29-.41,1.63-2.71.63-3.48-.19.35-.4.27-.63-.25.05.49.01,2.98,0,3.73Z"/>
      <path class="cls-1" d="M130.91,50.35c-.17-.13-.37-.23-.63-.25.23.53.44.6.63.25Z"/>
      <path class="cls-1" d="M118.09,57.41c-1-.97-1.73-1.98-2.18-3.03-.1.64-.5.98-1.19,1.04l.63,2.14v-2.24c1.16.05,1.7,1.87,2.24,2.24.13-.17.31-.2.5-.14Z"/>
      <path class="cls-1" d="M118.09,57.41c-.2-.06-.37-.03-.5.14.33.22,1.18.69,1.49.75-.36-.29-.68-.59-.99-.89Z"/>
      <path class="cls-1" d="M115.91,54.38c-.38-.91-.58-1.84-.56-2.8-1.16,1.51.07,1.41.02,2.56-.01.24-3.07.77-.02,3.41l-.63-2.14c.69-.05,1.09-.4,1.19-1.04Z"/>
      <path class="cls-1" d="M115.91,54.38c.45,1.05,1.18,2.06,2.18,3.03.28.08.6.36,1,.89l-3.73-6.72c.48,1.23.66,2.16.56,2.8h0Z"/>
      <path class="cls-1" d="M115.35,51.58c-.02.96.17,1.89.56,2.8.11-.64-.08-1.57-.56-2.8Z"/>
      <path class="cls-1" d="M118.09,57.41c.31.3.63.6,1,.89-.4-.53-.73-.81-1-.89Z"/>
      <path class="cls-1" d="M130.28,43.37l-.75-.75c-.17.44-.84.56-1.57.48.42.34.71.67.83,1.01-.03-.84.72-1.09,1.49-.74h0Z"/>
      <path class="cls-1" d="M130.28,43.37c-.77-.35-1.52-.09-1.49.74.31-.01.56.01.79.05.35-.04.43-.24.7-.8Z"/>
      <path class="cls-1" d="M129.58,44.17c-.23-.04-.48-.06-.79-.05.37.05.61.07.79.05Z"/>
      <path class="cls-1" d="M129.53,42.63c-1.19-.09-3.54-.79-3.73-.75.95.4,1.66.81,2.16,1.22.73.08,1.4-.04,1.57-.48Z"/>
      <path class="cls-1" d="M127.96,43.11c-.5-.41-1.21-.82-2.16-1.22.06.62,1.17,1.11,2.16,1.22Z"/>
      <path class="cls-1" d="M100.82,58.25c-.15-.18-.29-.4-.39-.7l-1.49.74c.6-.08,1.3-.13,1.88-.05h0Z"/>
      <path class="cls-1" d="M101.91,58.94c.24-.74,1.15-1.29,2.12-1.66-.19-.05-.39-.2-.62-.47l-1.49.75c.02.54-.11.85-.3.98.14.1.24.24.3.41h0Z"/>
      <path class="cls-1" d="M105.65,56.81c.03-.74-.02-1.49,0-2.24-.13.79-.45,1.97-.95,2.48.34-.1.67-.19.95-.24h0Z"/>
      <path class="cls-1" d="M101.97,57.37c-.02.06-.04.12-.05.18.03-.04.05-.1.05-.18Z"/>
      <path class="cls-1" d="M101.91,58.94c-.06-.17-.15-.31-.29-.41-.22.14-.53.03-.8-.28-.58-.08-1.28-.03-1.88.05l2.98,1.49c-.12-.31-.09-.59,0-.85h0Z"/>
      <path class="cls-1" d="M101.62,58.53c.19-.12.32-.43.3-.98-.15.17-1.1-.15-1.49,0,.1.29.24.52.39.7.32.05.59.13.8.28h0Z"/>
      <path class="cls-1" d="M104.03,57.28c.23-.09.45-.16.67-.23.5-.51.83-1.7.95-2.48-1.07.84-.29,2.62-2.24,2.24.23.27.43.42.62.47h0Z"/>
      <path class="cls-1" d="M100.82,58.25c.28.32.58.43.8.28-.21-.15-.48-.24-.8-.28Z"/>
      <path class="cls-1" d="M104.7,57.05c-.19.2-.42.29-.67.23-.97.37-1.87.92-2.12,1.66.09.22.11.49,0,.85,1.3-.96,2.38-2.1,3.73-2.99-.28.06-.61.14-.95.24h0Z"/>
      <path class="cls-1" d="M101.91,58.94c-.08.26-.11.54,0,.85.1-.36.08-.63,0-.85Z"/>
      <path class="cls-1" d="M104.7,57.05c-.22.07-.44.14-.66.23.24.07.47-.03.66-.23Z"/>
      <path class="cls-1" d="M116.83,49c-.87-.46-1.66-1.16-2.22-1.9l2.24,2.99c-.48-.82-.49-1.19-.02-1.09Z"/>
      <path class="cls-1" d="M117.59,49.35c-.15-.05-.31-.14-.46-.21.02.29-.05.61-.28.95.29-.22.52-.61.74-.75Z"/>
      <path class="cls-1" d="M117.13,49.14c.15.07.31.16.46.21-.18-.1-.33-.18-.46-.24v.03Z"/>
      <path class="cls-1" d="M116.83,49c.1.05.2.09.3.13v-.03c-.12-.05-.22-.08-.3-.1Z"/>
      <path class="cls-1" d="M117.13,49.14c-.1-.05-.21-.08-.3-.13-.47-.1-.46.27.02,1.09.23-.34.3-.66.28-.95Z"/>
      <path class="cls-1" d="M136.99,68v-.74c-.19.1-.37.16-.55.2.2.16.4.34.55.55Z"/>
      <path class="cls-1" d="M135.27,66.44c.03-.21.09-.43.23-.67-.1.26-.22.46-.35.63.04,0,.08.03.12.04Z"/>
      <path class="cls-1" d="M135.15,66.4c.13-.18.25-.38.35-.63-2.59-.81-2.09,1.41-2.23,1.49.19-.16.41-.27.64-.34.11-.31.62-.65,1.24-.52Z"/>
      <path class="cls-1" d="M136.99,68c-.15-.21-.34-.39-.55-.55-.47.1-.85-.03-1.05-.32-.3.25-.82.4-1.38.12-.05-.03-.08-.07-.1-.1-.2.05-.42.09-.65.11.62,1.18,2.54.73,3.73.74h0Z"/>
      <path class="cls-1" d="M133.9,66.91c-.22.08-.44.18-.64.34.23-.03.45-.06.65-.11-.04-.07-.04-.15-.01-.23Z"/>
      <path class="cls-1" d="M135.5,66.52c.17.09.17.27.05.44.32.11.62.28.89.49.18-.04.36-.09.56-.2-.46-.52-1.07-.95-1.5-1.49-.14.25-.2.47-.23.67.08.02.15.04.23.08h0Z"/>
      <path class="cls-1" d="M135.39,67.13c.2.29.58.42,1.05.32-.27-.21-.57-.38-.89-.49-.04.06-.09.12-.16.17Z"/>
      <path class="cls-1" d="M119.53,69.07c.1.06.2.18.3.42-.27-.37-.31-.75-.2-1.07-.18.1-.34.21-.54.32.29.1.43.21.44.33h0Z"/>
      <path class="cls-1" d="M120.64,65.75c-.14.01-.27.03-.4.03l-.04.14c.55.11.89.28,1.06.48-.05-.21-.05-.44.07-.64-.36.09-.59.09-.69-.01h0Z"/>
      <path class="cls-1" d="M120.64,67.75c.22.02.45.08.68.25-.06-.64.19-.69.75-.74-.3-.09-.53-.29-.68-.53,0,.12-.05.25-.14.39.02.05.05.08.07.13-.06-.01-.09-.01-.14-.02-.13.16-.29.34-.54.53Z"/>
      <path class="cls-1" d="M121.26,66.41c.03.11.06.22.13.32,0-.11-.04-.22-.13-.32Z"/>
      <path class="cls-1" d="M120.64,67.75c.24-.19.41-.36.54-.53-2.63-.57-1.95,1.43-2.1,1.52.21-.11.37-.21.55-.32.13-.42.53-.71,1.01-.68h0Z"/>
      <path class="cls-1" d="M121.26,66.41c.09.1.13.2.13.32.15.24.38.44.68.53-.28-.37-.48-1.29-.75-1.49-.11.21-.11.43-.06.64h0Z"/>
      <path class="cls-1" d="M119.63,68.43c.4-.24.75-.47,1.01-.68-.48-.04-.88.25-1.01.68Z"/>
      <path class="cls-1" d="M119.63,68.43c-.1.32-.07.7.2,1.07.25-.83.81-1.1,1.49-1.49-.23-.17-.46-.23-.68-.25-.26.21-.61.44-1.01.68Z"/>
      <path class="cls-1" d="M119.53,69.07c0-.12-.15-.22-.45-.33v.75c.14-.41.29-.53.45-.42Z"/>
      <path class="cls-1" d="M119.53,69.07c.02.13-.12.27-.45.42h.75c-.1-.24-.2-.36-.3-.42Z"/>
      <path class="cls-1" d="M119.53,69.07c-.16-.11-.31,0-.45.42.33-.15.47-.29.45-.42Z"/>
      <path class="cls-1" d="M106.4,73.23c3.04-1.68,1.64-2.65-1.49-2.24,1.4.22,2.5.8,1.49,2.24Z"/>
      <path class="cls-1" d="M104.91,70.99c.36.45.48,1.13,1.49,2.24.17-.92-.33-1.67-1.49-2.24Z"/>
      <path class="cls-1" d="M106.4,73.23c1.01-1.44-.09-2.02-1.49-2.24,1.16.57,1.66,1.32,1.49,2.24Z"/>
      <path class="cls-1" d="M116.1,70.24c-.5.18-1.57-.14-2.24,0l.75,2.24c.21-1.14.71-1.88,1.49-2.24Z"/>
      <path class="cls-1" d="M116.1,72.48c.19-.22-.11-1.67,0-2.24l-1.5,2.24c.45-.06,1.39.13,1.49,0h.01Z"/>
      <path class="cls-1" d="M114.61,72.48l1.49-2.24c-.78.35-1.28,1.1-1.49,2.24Z"/>
      <path class="cls-1" d="M107.4,55.29c.23-.79.15-1.04-.26-.72.21.19.28.43.26.72Z"/>
      <path class="cls-1" d="M107.14,56.06c.12-.31.2-.55.26-.77.02-.28-.05-.53-.26-.72-.06.48.05,1,0,1.49Z"/>
      <path class="cls-1" d="M107.14,56.06c.16-.29.24-.54.26-.77-.06.22-.14.47-.26.77Z"/>
      <path class="cls-1" d="M75.81,33.67c-.43,1.78.21,2.5.74,3.73-.1-1.34-.15-2.01-.15-2.01,0,0,.05.67.15,2.01.13-1.45,1.61-2.97-.74-3.73Z"/>
      <path class="cls-1" d="M120.58,58.3c.56-.07,1.46-.8,2.24-.75-.92-.14-1.6.18-2.24.75Z"/>
      <path class="cls-1" d="M120.58,55.32c.25.68.52,1.26.49,1.85.55-.94,1.13-.82,1.75.38-.52-1-.18-2.62-2.24-2.23Z"/>
      <path class="cls-1" d="M121.07,57.17c-.02.37-.16.73-.5,1.13.65-.56,1.33-.89,2.24-.75-.61-1.21-1.2-1.32-1.75-.38h0Z"/>
      <path class="cls-1" d="M86.01,20.66c.11.08.23.16.35.22-.09-.16-.14-.36-.11-.64-.07.24-.15.36-.24.42Z"/>
      <path class="cls-1" d="M88.49,20.99c-.57-.2-1.82-.68-2.24-.74-.03.28.02.48.11.64.52.27,1.09.28,2.13.11Z"/>
      <path class="cls-1" d="M86.36,20.88c-.12-.06-.23-.13-.35-.22-.14.09-.31-.03-.5-.42-.63,2,1.7,2.17,2.98.74-.82.3-1.81.46-2.13-.11h0Z"/>
      <path class="cls-1" d="M86.36,20.88c.32.56,1.31.41,2.13.11-1.04.18-1.61.16-2.13-.11Z"/>
      <path class="cls-1" d="M85.5,20.24c.18.17.35.3.51.42.09-.06.17-.18.24-.42-.24-.04-.5.02-.75,0Z"/>
      <path class="cls-1" d="M86.01,20.66c-.16-.12-.33-.25-.51-.42.2.39.36.51.51.42Z"/>
      <path class="cls-1" d="M86.25,17.26v.74c.14.06.24.12.31.18.18-.34.34-.66.44-.92-.21.65-.46.64-.75,0h0Z"/>
      <path class="cls-1" d="M86.25,18.75l2.24-1.12c.07-.78-1.35-.18-1.49-.37-.11.26-.26.58-.44.92.19.17.08.36-.31.57h0Z"/>
      <path class="cls-1" d="M86.25,18v.75c.12-.21.21-.39.31-.57-.06-.06-.17-.12-.31-.18h0Z"/>
      <path class="cls-1" d="M87,17.26h-.75c.29.64.54.65.75,0Z"/>
      <path class="cls-1" d="M86.56,18.18c-.1.18-.19.36-.31.57.39-.21.5-.4.31-.57Z"/>
      <path class="cls-1" d="M101.92,20.98c.37-.29-1.3-1.97-2.24-1.48-.36.29,1.31,1.99,2.24,1.48Z"/>
      <path class="cls-1" d="M115.35,73.23c.65.21.65.46,0,.74,1.1-.47,1.1-.72,0-.74Z"/>
      <path class="cls-1" d="M115.35,73.23v.74c.65-.28.65-.53,0-.74Z"/>
      <path class="cls-1" d="M115.35,73.23c1.1.02,1.1.27,0,.74l1.5-.37c.04-.61-1.08-.44-1.5-.37h0Z"/>
      <path class="cls-1" d="M98.94,58.3l1.49-.74c-.71.05-1.2.3-1.49.74Z"/>
      <path class="cls-1" d="M98.94,58.3c.29-.44.78-.69,1.49-.74-.49.19-1.55-.4-1.49.74Z"/>
      <path class="cls-1" d="M76.55,39.64v-1.49c-.13,1.02.02,1.41,0,1.49Z"/>
      <path class="cls-1" d="M123.56,66.88c-.05-.81-1.1.02-.74.37.17.17.76-.11.74-.37Z"/>
      <path class="cls-1" d="M131.77,57.56v-.38c-.02-.13-.05-.27,0-.37h-.75c.44.1.75.24.75.75Z"/>
      <path class="cls-1" d="M131.77,57.18v.38c.06-.08.03-.23,0-.38Z"/>
      <path class="cls-1" d="M131.03,56.81l.74.75c0-.5-.3-.65-.74-.75Z"/>
      <path class="cls-1" d="M131.77,54.57c.02.29.2.65.45,1.04.04-.1.13-.2.3-.3-.2-.27-.55-.47-.75-.74Z"/>
      <path class="cls-1" d="M132.22,55.61c.1.15.17.29.3.45.05-.21-.02-.49,0-.75-.17.1-.26.2-.3.3h0Z"/>
      <path class="cls-1" d="M132.22,55.61c-.25-.39-.43-.75-.45-1.04-.02.11-1.34.41.27,1.26.14.06.3.13.48.23-.28-.14-.36-.3-.3-.45h0Z"/>
      <path class="cls-1" d="M132.52,56.06c-.18-.1-.34-.18-.48-.23.14.07.29.15.48.23Z"/>
      <path class="cls-1" d="M132.52,56.06c-.13-.16-.2-.3-.3-.45-.06.16.02.31.3.45Z"/>
      <path class="cls-1" d="M99.68,19.5c.17-.17-.11-.76-.37-.75-.82.06.02,1.1.37.75Z"/>
      <path class="cls-1" d="M61.5,122.89c.06.01.11.05.15.11.02-.11.05-.21.08-.32-.07.08-.15.14-.23.2h0Z"/>
      <path class="cls-1" d="M62.31,121.49c.21-.25.48-.43.81-.51l-.75-1.49c.12.61.1,1.34-.06,2h0Z"/>
      <path class="cls-1" d="M61.73,122.69c-.02.1-.05.21-.07.32.14.23.13.8-.04,1.71.51-1.29,1-2.24,1.5-3.73-.33.07-.59.26-.81.51-.12.46-.3.88-.58,1.19h0Z"/>
      <path class="cls-1" d="M61.5,122.89c.08-.07.16-.12.23-.2.12-.46.31-.88.58-1.19.16-.66.18-1.39.06-2-.52,1.15-.87,2.43-1.49,3.73.27-.26.47-.36.62-.33Z"/>
      <path class="cls-1" d="M62.31,121.49c-.27.31-.46.74-.58,1.19.28-.32.46-.74.58-1.19Z"/>
      <path class="cls-1" d="M61.66,123c-.05-.07-.1-.1-.16-.11-.18.15-.38.27-.62.33l.75,1.49c-.09-.52-.08-1.13.03-1.71h0Z"/>
      <path class="cls-1" d="M61.66,123c-.11.58-.12,1.19-.03,1.71.16-.91.17-1.48.03-1.71Z"/>
      <path class="cls-1" d="M60.88,123.22c.24-.06.44-.18.62-.33-.15-.03-.35.07-.62.33Z"/>
      <path class="cls-1" d="M151.17,57.55c-.32.11-1,1.22-1.49,1.49.58-.47,1.16-.44,1.69-.13-.18-.47-.07-1,.55-1.36-.23.06-.53-.08-.74,0h-.01Z"/>
      <path class="cls-1" d="M152.33,59.86c.41.56.72,1.24.9,1.88,0-.04.02-.07.02-.1-.12-.31-.1-.7.16-1.1-.05-.09-.03-.23,0-.37v-.38c-.35.21-.73.2-1.08.07h0Z"/>
      <path class="cls-1" d="M153.25,61.64s-.02.06-.02.1c.11.38.18.74.18,1.04.18-.15,1.29.02,1.49-.74-.74.45-1.43.16-1.65-.39h0Z"/>
      <path class="cls-1" d="M153.23,61.74c-.18-.63-.5-1.32-.9-1.88-.44-.16-.81-.53-.96-.95-.53-.31-1.11-.34-1.69.13,1.5.38,2.59,2.75,3.73,3.73-.13-.45-.18-.79-.18-1.04h0Z"/>
      <path class="cls-1" d="M153.41,62.78c0-.31-.07-.66-.18-1.04,0,.25.05.59.18,1.04Z"/>
      <path class="cls-1" d="M150.19,57.53c-.11,0-.23,0-.32.02.11.03.22.04.32-.02Z"/>
      <path class="cls-1" d="M153.25,61.64c.04-.35.26-.45.65-.28-.17-.24-.31-.51-.49-.82-.26.4-.28.79-.16,1.1h0Z"/>
      <path class="cls-1" d="M151.36,58.91c.36.21.69.55.97.95.35.13.73.14,1.08-.07-.41-.67-1.36-1.25-1.49-2.24-.62.36-.73.89-.56,1.36h0Z"/>
      <path class="cls-1" d="M153.9,61.36c-.39-.17-.61-.08-.65.28.21.56.91.84,1.66.39-.51-.13-.79-.37-1-.67h-.01Z"/>
      <path class="cls-1" d="M151.36,58.91c.16.42.53.79.97.95-.29-.4-.61-.74-.97-.95Z"/>
      <path class="cls-1" d="M157.14,68.75h-2.23v1.49h2.23v-1.49Z"/>
      <path class="cls-1" d="M151.92,70.23c1.05.54,2-.47,1.49-.73-1.05-.54-1.99.47-1.49.73Z"/>
      <path class="cls-1" d="M107.33,21.3c-.23-.02-.54-.11-.93-.32,1.18,1.13,1.92,1.38,2.23.75-.59.58-1.06.2-1.3-.43h0Z"/>
      <path class="cls-1" d="M107.33,21.3c.25.63.71,1.01,1.31.43-.31-.77-1.13-1.19-1.41-1.4.68.64.64,1.02.11.97h0Z"/>
      <path class="cls-1" d="M106.4,20.99c.39.2.7.3.94.32-.13-.32-.2-.71-.19-1.06-.29.16-.55.69-.75.74h0Z"/>
      <path class="cls-1" d="M107.23,20.33s-.07-.06-.09-.09c0,.36.07.74.19,1.06.54.05.57-.34-.1-.97h0Z"/>
      <path class="cls-1" d="M106.4,20.99c.74.58.55,1.62.84,2.06.04.04.08.08.12.12.12.08.27.12.52.06l.76-1.48c-.32.63-1.06.38-2.24-.74h0Z"/>
      <path class="cls-1" d="M107.24,23.05s.08.08.12.12c-.04-.04-.08-.08-.12-.12Z"/>
      <path class="cls-1" d="M114.91,15.48c-.07-.14.06-.3.44-.47-.89-.11-1.03.05-.44.47Z"/>
      <path class="cls-1" d="M115.35,15.76c-.26-.09-.39-.18-.44-.28-.59-.41-.45-.57.44-.47-3.58-2.74-1.83,1.99,0,.74h0Z"/>
      <path class="cls-1" d="M114.91,15.48c.12.08.26.18.44.28v-.74c-.38.17-.51.32-.44.47h0Z"/>
      <path class="cls-1" d="M115.35,15.76c-.18-.11-.32-.2-.44-.28.05.1.18.2.44.28Z"/>
      <path class="cls-1" d="M110.87,21.73c.54-1.05-.47-1.99-.73-1.49-.54,1.05.47,1.99.73,1.49Z"/>
      <path class="cls-1" d="M109.38,23.97c-.05-.23.06-.51,0-.74-.35.29-.35.54,0,.74Z"/>
      <path class="cls-1" d="M108.65,23.6l.73.37c-.41-.22-.4-.47,0-.74-.15.1-.28.16-.4.21l-.32.17h-.01Z"/>
      <path class="cls-1" d="M109.38,23.97c-.35-.2-.35-.45,0-.74-.4.28-.41.53,0,.74Z"/>
      <path class="cls-1" d="M109.38,23.23l-.4.21c.12-.04.25-.1.4-.21Z"/>
      <path class="cls-1" d="M142.22,54.57c-.51.42-1.55.69-2.24.76.73,1.7,2.99.91,2.21,3.32l-.72.4c2.32-.31,2.81-2.05,1.5-5.22-.22.29-.47.52-.75.74h0Z"/>
      <path class="cls-1" d="M141.47,59.04c1.91,3.69,6.49-3.3,1.49-5.22,1.32,3.17.83,4.91-1.49,5.22Z"/>
      <path class="cls-1" d="M142.46,52.43c.22-.18.65-.24,1.25-.1-.3-.14-.55-.48-.75-.74-.08.05-.15.06-.21.07-.05.27-.16.53-.29.78Z"/>
      <path class="cls-1" d="M142.31,52.67c-.23.31-.52.52-.84.57.49.21.76.64.75,1.33-.18-.68.07-.93.74-.74-.55-.44-.74-.86-.66-1.15h.01Z"/>
      <path class="cls-1" d="M142.31,52.67c.02-.09.07-.17.15-.24.14-.24.24-.51.3-.78-.6.13-.09-1.06-.06-1,.13.26.13.62.06,1,.06-.01.12-.03.21-.07-.19-.14.41-1.56-.37-1.49l-1.87,2.98c.29.01.53.07.74.16.32-.05.61-.26.84-.57h0Z"/>
      <path class="cls-1" d="M142.31,52.67c.05-.08.1-.15.15-.24-.08.06-.13.14-.15.24Z"/>
      <path class="cls-1" d="M142.7,50.66c-.03-.06-.54,1.13.06,1,.07-.37.07-.74-.06-1Z"/>
      <path class="cls-1" d="M142.46,52.43c-.05.08-.1.16-.16.24-.08.3.11.72.66,1.15.31-.4.46-1.05.75-1.49-.61-.15-1.03-.08-1.25.1Z"/>
      <path class="cls-1" d="M142.22,54.57c.28-.23.52-.46.74-.75-.67-.18-.92.07-.74.75Z"/>
      <path class="cls-1" d="M140.8,54.16c.41.06.87.18,1.42.41,0-.69-.26-1.12-.75-1.33-.24.04-.48.01-.74-.16.23.46-.04.82.07,1.08Z"/>
      <path class="cls-1" d="M141.47,53.24c-.21-.09-.45-.15-.74-.16.26.18.5.2.74.16Z"/>
      <path class="cls-1" d="M142.22,54.57c-.54-.23-1.01-.36-1.42-.41.08.21.39.35,1.42.41Z"/>
      <path class="cls-1" d="M143.71,52.33c4.19.32,4.09.1-.3-.67-.21-.01-.38-.03-.45-.08.51.11.76.36.75.75h0Z"/>
      <path class="cls-1" d="M143.71,52.33c1.04.48,2.06.7,2.98,1.49l.75-2.23c-.78-.18-3.04.11-4.03.07,4.38.77,4.49.99.3.67Z"/>
      <path class="cls-1" d="M143.71,52.33c.01-.39-.24-.64-.74-.74.2.27.44.61.74.74Z"/>
      <path class="cls-1" d="M133.92,47.33c-.02.16-.03.32-.06.48.1-.09.21-.14.33-.15-.11-.09-.2-.2-.27-.33Z"/>
      <path class="cls-1" d="M133.54,45.27c.09.17.17.35.23.54.06-.34.14-.66.24-.94-.14.43-.29.54-.47.4Z"/>
      <path class="cls-1" d="M133.92,47.33c.07.13.16.24.27.33.17-.01.36.05.57.2-.4-.78-.42-2.1-.75-2.99-.1.28-.18.61-.23.94.14.47.18.99.14,1.52h0Z"/>
      <path class="cls-1" d="M133.86,47.8c.02-.16.04-.32.06-.48-.21-.4-.23-.96-.15-1.52-.06-.19-.14-.37-.23-.54-.09-.07-.18-.19-.28-.4.2,1.36-.27,3.25,0,4.48.13-.8.33-1.31.6-1.54h0Z"/>
      <path class="cls-1" d="M133.77,45.81c-.08.55-.06,1.12.15,1.52.04-.53,0-1.05-.15-1.52Z"/>
      <path class="cls-1" d="M134.01,44.87c-.23-.07-.52.07-.74,0,.1.12.19.26.27.4.18.14.34.03.47-.4Z"/>
      <path class="cls-1" d="M133.54,45.27c-.08-.14-.17-.28-.28-.4.1.21.19.33.28.4Z"/>
      <path class="cls-1" d="M134.76,47.85c-.24,0-.42-.09-.57-.2-.12,0-.23.06-.34.15-.1.56-.29,1.1-.59,1.54.45-.06,1.1-1.11,1.49-1.49h0Z"/>
      <path class="cls-1" d="M134.19,47.66c.15.11.32.19.57.2-.21-.15-.4-.21-.57-.2Z"/>
      <path class="cls-1" d="M133.26,49.34c.3-.44.49-.98.6-1.54-.27.24-.47.74-.6,1.54Z"/>
      <path class="cls-1" d="M137.68,56.91c-.08-.02-.14-.05-.2-.08-.02.09-.05.18-.07.26.08-.08.17-.13.27-.18Z"/>
      <path class="cls-1" d="M137.68,56.91c-.09.05-.19.11-.27.18-.25.86-.63,1.76-1.16,2.7.45-.47,2.19-2.76,2.24-2.99-.34.11-.61.14-.81.1Z"/>
      <path class="cls-1" d="M137.48,56.83c-.4-.23-.34-.84.26-1.52-.12.2-.94.24-1.28,1.2-.18.49.07,1.44.04,2.29.25-.81.55-1.39.91-1.71.02-.09.05-.18.07-.26Z"/>
      <path class="cls-1" d="M136.5,58.81c-.02.36-.08.71-.25.99.53-.94.91-1.84,1.16-2.7-.36.32-.67.9-.91,1.71Z"/>
      <path class="cls-1" d="M137.48,56.83c.06.03.12.07.2.08.24-.13.51-.17.81-.1.05-.25-.61-1.09-.75-1.49-.03.49-.13,1-.26,1.52h0Z"/>
      <path class="cls-1" d="M137.68,56.91c.2.04.47.01.81-.1-.3-.07-.57-.03-.81.1Z"/>
      <path class="cls-1" d="M137.48,56.83c.13-.52.23-1.03.26-1.52-.6.67-.66,1.29-.26,1.52Z"/>
      <path class="cls-1" d="M139.23,49.34l.75.75c.11-.62-.14-.87-.75-.75Z"/>
      <path class="cls-1" d="M139.98,50.09c.02-.09,1.14.05.74-1.49-1.54-.4-1.39.72-1.49.74.61-.12.85.12.75.75h0Z"/>
      <path class="cls-1" d="M147.44,59.05c-.24.37-.36.55-.36.55,0,0,.12-.18.36-.55-.03.08-1.35.41-.74,1.49.08.14.15.22.2.26l.32-.21c.16-.49.17-1.5.22-1.54h0Z"/>
      <path class="cls-1" d="M147.22,60.59l-.31.21c.14.11.24,0,.31-.21Z"/>
      <path class="cls-1" d="M139.98,52.33c-.05-.23.01-.5,0-.74-.36.3-.36.55,0,.74Z"/>
      <path class="cls-1" d="M139.33,52l.65.33c-.4-.2-.38-.45,0-.74l-.68.35s.02.05.03.07Z"/>
      <path class="cls-1" d="M139.98,52.33c-.36-.2-.36-.45,0-.74-.38.29-.4.54,0,.74Z"/>
      <path class="cls-1" d="M139.25,51.96l.08.04s-.02-.05-.02-.07l-.06.03h0Z"/>
      <path class="cls-1" d="M139.23,49.35c-.22.05-.49-.03-.74,0,.34.09.64.27.89.5-.07-.14-.12-.31-.15-.5Z"/>
      <path class="cls-1" d="M139.56,50.05c.19.23.34.49.42.78.02-.26-.05-.53,0-.75-.18.07-.31.03-.42-.04Z"/>
      <path class="cls-1" d="M139.56,50.05c-.07-.05-.13-.11-.18-.21-.25-.23-.55-.41-.89-.5l1.49,1.49c-.08-.29-.23-.55-.42-.78h0Z"/>
      <path class="cls-1" d="M139.56,50.05c.11.07.24.1.42.04l-.75-.75c.03.19.08.36.15.5.07.06.12.13.18.21Z"/>
      <path class="cls-1" d="M139.38,49.85c.05.09.11.16.18.21-.06-.07-.11-.14-.18-.21Z"/>
      <path class="cls-1" d="M22.69,160.71c.29.61.28,1.41.13,2.06.29-.5.68-.51.99-.26.13-.16.57-.09,1.25.26-.59-.25-1.57-1.43-2.24-1.87l1.49-.37c-.61.21-1.15.26-1.61.17h-.01Z"/>
      <path class="cls-1" d="M22.69,160.71c-.56-.1-1.02-.39-1.36-.92.05.35,1.26,2.75,1.49,2.99.14-.66.15-1.46-.13-2.07Z"/>
      <path class="cls-1" d="M23.81,162.52c.25.2.46.57.5,1l.75-.74c-.68-.35-1.12-.42-1.25-.26h0Z"/>
      <path class="cls-1" d="M22.69,160.71c.47.08,1,.04,1.62-.17-.68-.27-1.21-.82-2.03-.88-.42.06-.77.11-.95.14.72.05,1.14.42,1.36.92Z"/>
      <path class="cls-1" d="M22.69,160.71c-.22-.49-.64-.87-1.36-.92.34.53.8.82,1.36.92Z"/>
      <path class="cls-1" d="M21.33,159.79c.18-.03.52-.08.96-.14-.28-.02-.6.01-.96.14Z"/>
      <path class="cls-1" d="M23.81,162.52c-.31-.25-.7-.24-.99.26.27.28,1.06.46,1.49.74-.48-.51-.62-.85-.5-1Z"/>
      <path class="cls-1" d="M23.81,162.52c-.12.15.02.5.5,1-.04-.44-.25-.8-.5-1Z"/>
      <path class="cls-1" d="M132.57,49.92c.13.22.15.53-.05.92.09.09.63-.06.75.41.09.74-.72.99-.75,1.08.27.13.41.27.45.4.37-.43.91-.71,1.37-.62l-.32-.16.35-.18c-.79.08-1.59-1.74-1.11-2.43-.04.26-.27.45-.69.57Z"/>
      <path class="cls-1" d="M131.77,53.82h.75c-.01-.16.03-.33.09-.5-.23.17-.53.34-.84.5Z"/>
      <path class="cls-1" d="M132.57,49.92c.42-.12.66-.31.69-.57-1.32.16-2.57-2.11-2.23.75.52-.66,1.28-.62,1.54-.17Z"/>
      <path class="cls-1" d="M132.97,52.73c.06.2-.1.4-.36.59-.06.17-.1.34-.09.5.62-.59,1.89-.71,2.24-1.49l-.42-.21c-.46-.1-1,.19-1.37.62Z"/>
      <path class="cls-1" d="M134.37,51.78l.39-.2c-.15-.67-1.35-1.59-1.5-2.24-.48.69.32,2.51,1.11,2.43Z"/>
      <path class="cls-1" d="M132.97,52.73c-.04-.13-.18-.27-.45-.4-.15.49-.54.99-.75,1.49.31-.16.62-.33.84-.5.08-.21.2-.41.36-.59Z"/>
      <path class="cls-1" d="M132.52,50.84c.2-.39.18-.7.05-.92-.37.11-.88.17-1.54.17.87-.1,1.02.28,1.49.75Z"/>
      <path class="cls-1" d="M131.03,50.09c.66,0,1.17-.06,1.54-.17-.26-.44-1.02-.49-1.54.17Z"/>
      <path class="cls-1" d="M132.97,52.73c-.16.18-.28.38-.36.59.27-.19.42-.39.36-.59Z"/>
      <path class="cls-1" d="M130.09,42.88c.12.11.19.26.19.5v-.74c-.05.14-.12.21-.19.25h0Z"/>
      <path class="cls-1" d="M130.28,42.63v.75c.08-.17-.05-.48,0-.75Z"/>
      <path class="cls-1" d="M130.09,42.88c.07-.04.14-.11.19-.25-.25-.01-.5.02-.75,0,.24.05.43.12.56.25h0Z"/>
      <path class="cls-1" d="M130.09,42.88c-.14.07-.33,0-.56-.25l.75.75c0-.23-.08-.39-.19-.5h0Z"/>
      <path class="cls-1" d="M130.09,42.88c-.13-.13-.32-.2-.56-.25.23.24.42.32.56.25Z"/>
      <path class="cls-1" d="M128.79,91.89l2.24,3.72h.74c3.37-4.24,2.45-5.3-2.98-3.72Z"/>
      <path class="cls-1" d="M131.03,95.61c-1.38,1.76-3.42-.94-3.72-.74-.07.04.21,1.3-.5,1.49-1.47.4-3.83-.28-5.48,0,.38,1.59,3.37.35,4.76.83,1.26.44.94,2.19,1.58,2.15.68-.04.37-1.4,1.07-1.86.5-.33,1.66.44,2.3.03.77-.5.54-1.66.73-1.9-.21.65-.46.64-.74,0Z"/>
      <path class="cls-1" d="M131.77,95.61h-.75c.29.64.54.65.75,0Z"/>
      <path class="cls-1" d="M95.44,87.48s.07-.05.13-.05l1.88.72c-.58-.57-1.24-.97-1.99-1.22.03.15.03.33-.02.55h0Z"/>
      <path class="cls-1" d="M95.46,86.93c.75.25,1.41.65,1.98,1.22.1-.8-.67-2.53,0-3.73-1.47.73-2.97,1.57-4.47,2.24,1.52-.43,2.34-.33,2.49.27Z"/>
      <path class="cls-1" d="M95.44,87.48c.05-.22.05-.4.02-.55-.75-.24-1.58-.33-2.49-.27l2.23,1.49c.07-.21-.01-.55.24-.67h0Z"/>
      <path class="cls-1" d="M92.97,86.66c.91-.06,1.74.03,2.49.27-.15-.6-.97-.7-2.49-.27Z"/>
      <path class="cls-1" d="M98.87,91.19c-.3.05-.6.05-.91.03.11.16.2.37.23.67.18-.26.42-.49.68-.7Z"/>
      <path class="cls-1" d="M96.7,91.88c.03-.41.2-.68.4-.83-.45-.14-.86-.36-1.15-.66-.25,0-.5,0-.74,0l1.49,1.49h0Z"/>
      <path class="cls-1" d="M100.43,90.39c-.62.19-1.13.46-1.56.8.62-.1,1.19-.36,1.56-.8Z"/>
      <path class="cls-1" d="M98.19,91.88c.31.02.86.92,1.51.42.78-.6.5-1.4.73-1.91-.37.44-.94.7-1.56.8-.26.21-.49.43-.68.69h0Z"/>
      <path class="cls-1" d="M97.96,91.21c.31.02.61.02.91-.02.43-.34.94-.61,1.56-.8-.77-.33-1.48-1.34-1.87-1.49-.38-.15.38,1.43-2.61,1.49.29.3.7.52,1.15.66.28-.21.63-.16.86.16Z"/>
      <path class="cls-1" d="M97.1,91.05c-.2.15-.36.42-.4.83.06-.06,1.12-.03,1.49,0-.03-.29-.11-.51-.23-.67-.29-.02-.58-.08-.86-.16h0Z"/>
      <path class="cls-1" d="M97.1,91.05c.28.09.57.14.86.16-.23-.32-.58-.37-.86-.16Z"/>
      <path class="cls-1" d="M107.14,83.67c-1.71-2.79.9-2.15.75-2.61-.92-2.73-2.95.53-4.48,1.12v.75c1.42-.09,2.48.11,3.73.75Z"/>
      <path class="cls-1" d="M139.61,85.18l-3.36,1.49,4.47.73-1.11-2.22Z"/>
      <path class="cls-1" d="M101.17,88.9l.75,2.24c.65-.91.4-1.65-.75-2.24Z"/>
      <path class="cls-1" d="M101.92,91.13c2.92.08,3.5-3.34-.74-2.24,1.14.59,1.39,1.33.74,2.24Z"/>
      <path class="cls-1" d="M106.4,91.14v2.24c1.44-.78,2.72-.41,2.23-2.24h-2.23Z"/>
      <path class="cls-1" d="M137.11,71.88c-.21-.04-.4-.14-.55-.32-.08.06-.17.12-.31.18l.75,1.49c-.18-.59-.13-1.06.11-1.35h0Z"/>
      <path class="cls-1" d="M136.25,70.99v.75c.14-.06.23-.12.31-.18-.13-.14-.23-.32-.31-.57Z"/>
      <path class="cls-1" d="M137.11,71.88c-.24.29-.29.76-.11,1.35.82.01,1.14-.93,1.49-1.49-.53.12-1,.22-1.38.14Z"/>
      <path class="cls-1" d="M138.33,70.3c-.35-.12-1.11.69-2.08.68.51.17.6.36.31.57.15.18.33.28.55.32.25-.31.73-.4,1.38-.14-.13-.6-.18-1.07-.16-1.43h0Z"/>
      <path class="cls-1" d="M136.25,70.99c.08.25.18.43.31.57.29-.21.2-.4-.31-.57Z"/>
      <path class="cls-1" d="M138.33,70.3c-.02.36.03.83.16,1.43.11-1,.04-1.36-.16-1.43Z"/>
      <path class="cls-1" d="M137.11,71.88c.38.07.85-.02,1.38-.14-.65-.26-1.12-.17-1.38.14Z"/>
      <path class="cls-1" d="M115.35,96.36c.11.16-1.36,2.04,2.24.74.11-.11-.52-1.18-.74-1.49.69,1.04-.69,1.54-1.5.75h0Z"/>
      <path class="cls-1" d="M116.85,95.61l-1.5.75c.81.8,2.19.29,1.5-.75Z"/>
      <path class="cls-1" d="M103.41,82.18c-.62.24-2.03-.48-2.24.38-.58,2.43,1.98.38,2.24.37-.65-.21-.64-.46,0-.75h0Z"/>
      <path class="cls-1" d="M103.41,82.93v-.75c-.64.28-.65.53,0,.75Z"/>
      <path class="cls-1" d="M90.55,89.28c-.15.18-.34.06-.57-.38,0,1.02.18,1.15.57.38Z"/>
      <path class="cls-1" d="M90.55,89.28c.06-.11.12-.24.18-.38-.23-.09-.56.1-.75,0,.23.43.42.56.57.38h0Z"/>
      <path class="cls-1" d="M90.73,88.9c-.05.19-.11.31-.18.38-.39.76-.58.64-.57-.38-2.04,2.67,1.2,3.94.75,0h0Z"/>
      <path class="cls-1" d="M90.73,88.9c-.06.15-.12.27-.18.38.07-.08.13-.19.18-.38Z"/>
      <path class="cls-1" d="M104.9,93.37v-1.48l-2.23.37c.68.79,1.13,1.36,2.23,1.12Z"/>
      <path class="cls-1" d="M88.46,59.08c-.04.34-.12.61-.22.84.11-.06.23-.1.37-.15-.1-.06-.15-.26-.15-.69Z"/>
      <path class="cls-1" d="M90.29,59.67c-.43-.16-.54-.36-.31-.62-.44.08-.81.46-1.08.64.46-.09.97-.09,1.38-.02h.01Z"/>
      <path class="cls-1" d="M88.9,59.69c-.12.08-.22.12-.3.08-.13.04-.25.09-.36.14-.12.28-.28.5-.5.63.75-.26,2.29-.73,2.99-.75-.18-.04-.32-.08-.45-.12-.41-.07-.92-.07-1.38.02Z"/>
      <path class="cls-1" d="M89.98,59.04c-.23.26-.12.47.31.62.16.03.32.07.44.12.12-.49-.33-.82-.75-.75h0Z"/>
      <path class="cls-1" d="M90.73,59.79c-.12-.05-.28-.09-.44-.12.12.05.26.09.44.12Z"/>
      <path class="cls-1" d="M88.24,59.91c.11-.23.18-.5.22-.84,0-.21.01-.46.03-.78-.56.77-1.02,1.04-.75,2.24,0-.27.21-.47.5-.62Z"/>
      <path class="cls-1" d="M88.24,59.91c-.29.15-.49.35-.5.62.22-.12.38-.35.5-.62Z"/>
      <path class="cls-1" d="M145.2,74.72h.75c.12-.3-.13-.3-.75,0Z"/>
      <path class="cls-1" d="M145.95,74.72c.04-.15,1.77-1.87-.75,0,.62-.3.87-.3.75,0Z"/>
      <path class="cls-1" d="M126.92,89.64v.75c.48-.25.48-.5,0-.75Z"/>
      <path class="cls-1" d="M88.12,65.62s.05.06.08.08c.36-.22.35-.44-.05-.66,0,.04-.02.07-.03.11v.47Z"/>
      <path class="cls-1" d="M88.12,65.76s.05-.04.08-.06c-.03-.03-.05-.06-.08-.08v.14Z"/>
      <path class="cls-1" d="M88.12,65.15s.02-.07.03-.11c0,0-.02-.02-.03-.03v.14Z"/>
      <path class="cls-1" d="M100.21,64.05c.17-.36.46-.69.86-.98.04-.09.08-.18.11-.28-.62-.19-1.98.32-2.68.8.38.21.7.44.96.69.28-.04.52-.11.75-.23h0Z"/>
      <path class="cls-1" d="M100.21,64.05c.38-.19.68-.51.86-.98-.4.29-.68.62-.86.98Z"/>
      <path class="cls-1" d="M98.19,64.26c.44.07.87.08,1.27.02-.27-.25-.58-.48-.96-.69-.39.27-.59.54-.31.67h0Z"/>
      <path class="cls-1" d="M87.01,56.81c.51.12.68-.76.73-.75-.35.41-.6.16-.74-.75-.05.49,0,1,0,1.5Z"/>
      <path class="cls-1" d="M87.74,56.06l-.74-.75c.14.91.39,1.15.74.75Z"/>
      <path class="cls-1" d="M95.01,90.79s.01-.02.02-.03c0,0-.02,0-.03.01,0,0,0,0,0,.01Z"/>
      <path class="cls-1" d="M95.19,92.31c-.18.35-.44.71-.73,1.06,2.94.09,1.94-1.22,2.24-1.49-.57.7-1.16.74-1.51.43Z"/>
      <path class="cls-1" d="M95.07,92.19c-.23-.31-.29-.82-.06-1.39,0,0,0,0,0-.01-.16.18-.34.06-.54-.39.07.16-1.42,2.31,0,2.99.13-.58.33-.96.61-1.19h0Z"/>
      <path class="cls-1" d="M95.07,92.18c-.28.23-.48.61-.61,1.19.29-.36.55-.71.73-1.06-.05-.04-.08-.08-.12-.13Z"/>
      <path class="cls-1" d="M95.03,90.76s0,.02-.02.03c.39.38.44.8.29,1.24.34-.17.79-.21,1.4-.15l-1.5-1.49c-.05.17-.11.29-.17.37Z"/>
      <path class="cls-1" d="M95.3,92.03c-.03.09-.07.18-.11.28.35.31.94.27,1.51-.43-.61-.06-1.06-.02-1.4.15Z"/>
      <path class="cls-1" d="M95.07,92.18c.07-.06.15-.11.23-.15.15-.44.1-.86-.29-1.24-.23.58-.17,1.08.06,1.39Z"/>
      <path class="cls-1" d="M95.19,92.31c.04-.09.08-.18.11-.28-.08.04-.16.09-.23.15.04.05.07.09.12.13Z"/>
      <path class="cls-1" d="M95.01,90.78s.01,0,.02-.02c.05-.12.1-.25.18-.37h-.75c.24.12.41.25.55.39h0Z"/>
      <path class="cls-1" d="M95.01,90.78c-.14-.14-.31-.27-.55-.39.2.45.38.57.55.39Z"/>
      <path class="cls-1" d="M95.2,90.39c-.08.13-.12.25-.17.37.06-.08.12-.2.17-.37Z"/>
      <path class="cls-1" d="M116.85,71.73l.59-.58c-.2-.04-.42-.13-.66-.3,0,.23.02.51.07.89Z"/>
      <path class="cls-1" d="M116.78,70.85c.24.18.46.26.66.3l.9-.9c-1.19-.16-1.55-.12-1.56.6Z"/>
      <path class="cls-1" d="M137.46,67.64c.08.08.17.2.28.37,1.29-.87,1.04-1.12-.74-.75.35.11.49.24.46.38h0Z"/>
      <path class="cls-1" d="M137.46,67.64c-.03.11-.17.24-.47.37.25,0,.51.02.75,0-.11-.16-.2-.28-.29-.37h0Z"/>
      <path class="cls-1" d="M137.74,68c1.8-.18,3.36.51,1.5-1.87-1-1-1.86.11-2.25,1.12,1.79-.38,2.04-.13.75.74h0Z"/>
      <path class="cls-1" d="M137.46,67.64c.03-.14-.11-.26-.47-.38v.74c.06-.5.22-.6.47-.37h0Z"/>
      <path class="cls-1" d="M137.46,67.64c-.25-.24-.41-.14-.47.37.3-.13.44-.25.47-.37Z"/>
      <path class="cls-1" d="M129.53,57.56c.2-.61.45-.86.75-.75-.26-.29-.35-.68-.38-1.08-.13.61-.24,1.24-.37,1.82Z"/>
      <path class="cls-1" d="M129.53,57.55c.14-.58.24-1.22.37-1.82-.05-.64.1-1.34.38-1.91-1.21.64-.7,2.53-.75,3.73h0Z"/>
      <path class="cls-1" d="M130.28,56.81c.17-.76-.02-2.07,0-2.99-.12.66-.26,1.27-.38,1.91.03.4.12.78.38,1.08Z"/>
      <path class="cls-1" d="M129.9,55.73c.12-.64.26-1.25.38-1.91-.28.57-.43,1.27-.38,1.91Z"/>
      <path class="cls-1" d="M129.53,57.56c.71-.11.61-.12.75-.75-.3-.11-.55.14-.75.75Z"/>
      <path class="cls-1" d="M104.91,19.5l.37.73c.49-.11.32-.68.37-.73-.22.47-.47.46-.74,0Z"/>
      <path class="cls-1" d="M105.65,19.5h-.74c.27.46.52.47.74,0Z"/>
    </g>
  </g>
</svg>