<?xml version="1.0" encoding="UTF-8"?>
<svg id="_레이어_2" data-name="레이어 2" xmlns="http://www.w3.org/2000/svg" viewBox="0 0 137.5 189.48">
  <defs>
    <style>
      .cls-1 {
        fill: #ff319c;
      }
    </style>
  </defs>
  <g id="_레이어_1-2" data-name="레이어 1">
    <g>
      <path class="cls-1" d="M44.14,189.2c-.06.05-.12.13-.18.21.06-.07.12-.12.18-.21Z"/>
      <path class="cls-1" d="M45.09,181.1c2.66-1.55,9.93-10.3,9.47-13.26-.34-2.17-5.28-5.87-7.33-6.3-3.43,1.02-4.93-.38-4.53-4.2-.36.16-.76.21-1.12.06-1.67-.69-.64-1.58-.76-2.41-1.58.12-3.02.82-4.62-.42.86-2.05,4.38-1.19,4.62.42.12,0,.47-.86,1.26-.77.49.06.87.18,1.15.34.16-.64.34-1.3.57-2.02-1.08.01-1.69-.62-2.01-1.61-1.79,1.11-5.39.22-5.17-2.12l-3.45,3.34,1.43-4.95-1.73.67-8.7-5.79c-4.75-1.69-2.72-2.66.59-4.16,4.76-2.15,7.99-10.66,5.29-15.4-.24-3.98,6.23-4.92,5.73-.1.1-1.6,1.12-2.85,3.09-3.75.14-2.64,2.18-3.21,4.42-2.23-1.13-1.56-1.14-2.72-.01-3.48-.37-2.2,3.09-.26,3.28-.3,2.27-.56-2.42-2.69-.39-3.62,2.06-.93,5.57-.55,6.87,1.58.33-1.18,1.29-1.61,2.86-1.29-2.76-1.25-4.82-2.72-6.17-4.41-.66.1-1.36.52-2.05.65-2.28-3.3,1.27-3.37,1.54-4.34.21-.76-.89-2.35-.75-2.66.25-.54,4.94-.46,4.98-2.82.08-4.72-2-5.03-4.59-7.8-.36-.39-.18-1.79-1.42-2.18-2.04-.64-6.43,1.96-5.51-3.12-2.06,1.27-3.84,2.44-6.42,1.87-4.12-.91-10.05-2.47-14.25-4.32-2.73-1.21-9.99-4.23-6.44-7.36-2.12-.97-3.96-1.63-4.34-4.26-1.16.45.35,1.7-.93,1.79l-.65-2.04c.55-.44,1.5.28,1.58.25,1.52-.58,3.27-3.38,5.59-2.62-.39-.55-.08-1.3-.1-1.37-.12-.29-1.62-1.01-1.33-1.84.08-.22,1.15.35,1.38.11.23-.23-.81-2.23,2.03-1.18-.23-.98.23-1.88-.87-2.73-1.41-.21-3.31.44-4.73-.75-.22.05-.48.13-.69.22-3.88,1.67-7.92,12.07-11.76,14.98.32,1.14.77,2.26,1.07,3.41,1.7,6.35,4.06,12.8,6.04,19.1,2.88-.01,4.23,4.03,1.51,4.77,1.5,3.82,2.68,7.62,3.63,11.4.34,1.09.7,2.18,1.03,3.27.35,1.16,1.39,2.89.49,3.96.03.23.19.45.21.68,0,.03-.01.12-.03.23l-.47,2.93c0,.23.22.46.22.68-.01.14-.04.34-.09.57l-.41,2.59c-.01.23.22.46.21.68l-.5,3.16c.01.22.19.44.22.68.12,1.21.02,2.44.39,3.62.17.44.25.93.43,1.36l1.55,2.51c.1.21.11.47.21.68l1.25,2.03c.12.18.23.35.3.48.1.21.11.47.21.68,1.29.23,1.38,2.11,1.76,3.19.11.21.11.48.22.68l1.15,1.87c.16.24.3.46.39.64.11.21.11.47.22.68l1.14,1.85c.16.25.31.48.4.66.22.4.22.96.44,1.36l1.13,1.84c.16.25.31.49.41.67.11.21.11.47.22.68l1.12,1.82c.17.26.32.5.42.69.11.21.11.47.22.68l1.12,1.83c.17.25.32.49.42.68.22.4.22.97.43,1.36l1.1,1.78c.18.27.34.53.45.73.11.21.1.48.22.68l1.08,1.77c.18.28.35.54.46.74.21.4.22.97.43,1.36l1.1,1.78c.18.27.34.53.45.73.11.21.1.48.21.68l1.09,1.77c.18.27.35.53.46.74.11.21.1.48.21.68l1.08,1.76c.18.28.35.54.47.75.21.39.21.97.43,1.36l1.06,1.73c.19.3.37.58.48.79.12.21.11.47.22.68l1.08,1.76c.18.27.34.53.46.75.12.21.1.48.22.68,1.13.72,1.2,2.36,2.69,1.4.18-.14.53-.08.68-.22l-.21-.68c-3.96-.19-1.73-5.39.48-7.21v.02ZM7.54,91.25c1.71-1,3.29,2.29,1.74,3.19-1.71,1-3.29-2.29-1.74-3.19Z"/>
      <path class="cls-1" d="M49.57,99.28c-.02-.09-.05-.18-.08-.27-.04,0-.07.01-.11.02.07.09.12.17.19.25Z"/>
      <path class="cls-1" d="M42.7,157.34c-.4,3.82,1.1,5.22,4.53,4.2,2.05.43,6.99,4.12,7.33,6.29.46,2.96-6.81,11.72-9.47,13.26-2.21,1.82-4.44,7.02-.48,7.21-3.1-4.02,4.13-8.06,6.34-10.67,1.41-1.66,5.28-7.93,5.01-9.98-.32-2.51-4.76-5.96-6.95-7.03-2.85-1.39-2.64.65-4.99-.28-1.19-2.07,2.52-4.07-.22-7.8-.23.72-.41,1.38-.57,2.01,1.32.73.56,2.29-.53,2.77h0Z"/>
      <path class="cls-1" d="M43.29,116.44c-2.24-.98-4.28-.41-4.42,2.23-1.96.9-2.99,2.15-3.08,3.75.49-4.81-5.98-3.87-5.74.11,2.7,4.74-.53,13.24-5.29,15.4-3.31,1.5-5.34,2.47-.59,4.16l8.7,5.79,1.74-.67c-3.91-2.14-5.87-3.79-9.58-6.26-1.02-.68-2.23-.14-2.52-1.16,7.51.27,12.73-13.28,8.42-18.42l3.41-1.08c-.13,2.69.66,4.31,2.05,6.52.65,1.03-.07,2.21,1.9,1.22l-1.21-2.62,2.39-.76c.14-1.27-2.96-2-2.44-2.97.09-.17,2.76-1.81,3.05-2.19.44-.57.05-1.82.54-2.01,1.5-.56,3.48,1.43,5.06.7-.08-1.9-2.15-3.68-2.41-5.24-1.12.76-1.11,1.92.02,3.48h0Z"/>
      <path class="cls-1" d="M55.91,109.33c-1.58-.32-2.53.11-2.87,1.29,1.16.12,5.76.64,4.89-1.18-.78-1.63-6.59-4.77-8.19-4.53,1.35,1.69,3.4,3.16,6.16,4.41h.01Z"/>
      <path class="cls-1" d="M41.79,150.94c-1.75-1.15-4.1-1.55-5.17-2.12-.22,2.33,3.38,3.23,5.17,2.12Z"/>
      <path class="cls-1" d="M49.76,109.56c.06,0,.12,0,.17-.01-.08-.04-.15-.07-.26-.12l.09.13Z"/>
      <path class="cls-1" d="M90.87,81.85c-.1.61-.27,1.26-.54,1.97l1.36-.43c-.36-.5-.63-1.01-.82-1.54Z"/>
      <path class="cls-1" d="M31.11,50.78c0-.15-.02-.32-.05-.49.02.17.02.33.05.49Z"/>
      <path class="cls-1" d="M93.09,51.99c-.06.46-.21.92-.47,1.38.3-.22.5-.41.55-.56.04-.18,0-.47-.08-.82Z"/>
      <path class="cls-1" d="M48.42,103.76c.29-.29.51-.57.7-.86-.21.28-.47.54-.8.77l.11.09h-.01Z"/>
      <path class="cls-1" d="M40.04,64.09c3.18,2.86,6.39,5.66,7.93,6.77,0-.77-3.88-3.68-7.93-6.77Z"/>
      <path class="cls-1" d="M49.63,101.88s-.02.06-.03.1c.02-.03.02-.07.03-.1Z"/>
      <path class="cls-1" d="M49.75,101.28s0,.08-.01.12c.01-.04.01-.08.01-.12Z"/>
      <path class="cls-1" d="M49.36,102.53s-.01.02-.01.03c0,0,.01-.02.01-.03Z"/>
      <path class="cls-1" d="M33.2,57.83c1.11,1.04,2.68,2.49,4.4,4.05,3.93,3.25,8.97,6.93,11.97,9.32.12.07.22.13.31.19.78.42,2.18.79,2.6,1.88-1.49.96-2.35-.74-3.37-1.18-8.93-3.83-21.04-7.29-29.23-11.76,1.88,2.35,4.51,4.1,6.88,5.88,1.79,1.35,5.17,1.59,4.72,4.69l1.82-1.32c.18,4.37.23,2.09,3.35,2.92,4.32,1.15,3.36-.21,6.03.13.9.11,1.22,1.16,1.77,1.27,1.82.38,3.1-1.65,3.47,1.56.23.24,1.57-1.35,1.79-1.29,1.56.44,4.52,5.44,5.47,6.51,2.07,2.32,4.98,4.16,6.45,7.3.19,1.57-3.09,1.66-4.15,1.63-.5-.02-3.71-.05-3.91-.11-.84-.26-1.34-3.34-4.71-1.58,2.66.33,4.45,2.12,5.15,4.14.06-.1.12-.2.2-.29l-.09-.27c.11.02.2.05.27.08,1.73-1.64,6.41-1.54,8.51-1.42,1.44-2.22,4.03-2.2,6.16-1.03,5.64,5.18,9.46,4.93,11.46-.73.04-.75-.25-.93.04-2.26.14-.65.19-1.54.92-1.79.29.64.36,1.43.66,2.04.1.22,1.01-.08.57.62.91-.83,1.62-.58,2.12.78.12-.03,1.16-2.04,2.05-.65l-.66-1.58c1.43-.84.89-2.06-1.6-3.68,1.54-5.45,5-5.74,6.06-3.09.52-1.85,2.33-2.7,4.7-.35.22-.06.47-.12.68-.21-.68-1.87,1.63-4.14,3.45-4.46,4.28,1.22,8.61,2.07,12.97,2.55-2.62-2.06-4.52-4.42-5.71-7.09-3.59-.44-6.11-10.47-6.52-13.86,1.1-4.72.36-8.46-2.21-11.23.88-5.37,1.12-8.26-3.33-11.77.86-1.21.22-2.32-1.92-3.34-8.93-10.04,1.3-16.6,5.93-6.42l.47-.9c-.15-.45-.27-.92-.43-1.36-.08-.22-.11-.48-.21-.68l-1.12-1.15c-.12-.2-.09-.48-.21-.68-1.64-.67-1.9-2.35-2.66-3.66-.12-.2-.1-.49-.22-.68l-1.11-1.15c-.12-.2-.09-.48-.22-.68l-1.11-1.15c-.12-.19-.09-.49-.21-.68-1.64-.67-1.9-2.35-2.66-3.66-.12-.2-.1-.49-.22-.68l-1.11-1.15c-.13-.19-.09-.49-.22-.68l-1.11-1.15c-.13-.18-.08-.5-.21-.68-1.1-1.36-1.85-1.74-3.59-1.87-.23.03-.46.16-.69.22-.76.18-1.63.76-2.26-.03-.21.02-.44.17-.68.22-2.65,1.45-3.11,5.69-2.61,8.33.17.89.61,1.83.86,2.73,1.74,1.17,2.16,4.47,2.84,6.6.29.91.57,1.82.86,2.73,1.74,1.17,2.16,4.47,2.84,6.6.29.91.57,1.82.86,2.73,1.75,1.17,2.16,4.47,2.84,6.6.29.91.57,1.82.86,2.73,1.74,1.17,2.16,4.47,2.85,6.6.28.91.6,1.81.86,2.73,3.25,2.98,1.29,5.03-1.28,6.78-.89.73-2.01,1.47-3.38,2.2-.19.13-.5.08-.69.22l-1.14,1.11c-.2.12-.49.09-.69.22l-1.15,1.11c-.19.12-.49.09-.68.22-.72,1.58-3.17,3.64-4.88,3.45l-37.42-18.57c-.41.01-.93.41-1.36.43l-2.94.18c-.24.04-.45.17-.68.22l-2.95.18c-.42.16-1.13.25-1.36.43l-.29,3.84c.01.23.22.45.22.68l-.04,2.26c.04.23.18.45.22.68.24,1.46.75,2.37,1.69,3.43h0ZM78.7,9.09c3.27-.35-1.31-5.25,4.59-4.44,3.94.54,3.13,5.75,4.02,7.58.69,1.4,3.24,1.88,3.37,3.96-4.15,1.89-3.9-3.69-4.25-3.88-.15-.08-1.15.5-1.84.3-1.55-.46-4.32-2.74-5.89-3.51h0ZM98.34,55.79c2.39-.8,1.47,6.1,1.92,7.22.49,1.23,2.29,2.11,2.44,3,.2,1.19-1.55,1.5-2.51.99-.36-.19-3.26-3.1-3.37-3.47-.34-1.12.57-7.42,1.52-7.73h0ZM85.8,83.75c.98.51.05,2.29-.93,1.79-.98-.51-.05-2.29.93-1.79Z"/>
      <path class="cls-1" d="M49.38,98.62c.02.06.03.12.05.18,2.93-.69,4.28-1.28,4.6-3.11-.6,1.59-2.09,2.82-4.66,2.93h.01Z"/>
      <path class="cls-1" d="M47.99,70.95c-.06-.02-.11-.04-.17-.06l.17.07h0Z"/>
      <path class="cls-1" d="M85.67,1.11c.11.22.27.47.49.75-.16-.29-.33-.53-.49-.75Z"/>
      <path class="cls-1" d="M90.69,78.81c.31.78.4,1.81.18,3.04.19.52.46,1.04.82,1.54-.07-1.48.21-2.83-.61-4.31,1.29-.79,3.12-.27,4.3-.61-2.36-2.35-4.17-1.51-4.69.35Z"/>
      <path class="cls-1" d="M90.69,78.81c-1.06-2.65-4.52-2.36-6.06,3.09,2.49,1.61,3.02,2.84,1.6,3.68l.65,1.58c.44-.85,2.03-2.3,1.9-3.33-.28-2.13-6.73-1.04.5-5.68.48.36.97,4.62,1.05,5.67.27-.71.44-1.35.54-1.97-.4-1.09-.43-2.17-.18-3.04Z"/>
      <path class="cls-1" d="M49.74,101.39c-.02.17-.06.33-.11.48-.01.03-.02.07-.03.1-.06.19-.14.38-.24.55,0,0-.01.02-.01.03-.07.12-.14.23-.23.34-.19.29-.41.57-.7.86l1.31,1.15c.03-2.84,2.14-2.64-.16-5.63.19.74.25,1.4.18,2,0,.04-.01.08-.01.12h0Z"/>
      <path class="cls-1" d="M92.8,29.06c2.14,1.02,2.78,2.13,1.92,3.34,4.45,3.52,4.2,6.4,3.33,11.77,2.57,2.77,3.31,6.51,2.21,11.23.41,3.39,2.93,13.42,6.52,13.86,1.19,2.67,3.09,5.03,5.71,7.09-4.36-.48-8.69-1.33-12.97-2.56-1.82.31-4.13,2.59-3.45,4.46,1.62-.76,2.23-2.94,3.59-3.06.87-.08,2.38.82,3.47.98,2.83.41,3.68.91,5.64,1.3.84.17,5.68.54,5.85.15-.44-3.04-3.24-4.05-5.1-6.08-.91-1-1.08-2.45-1.75-3.25-.76-.92-2.13-.37-2.46-.98-.29-.53-3.22-10.26-3.51-11.4-.72-2.87.74-6.81.28-8.52-.44-1.64-2.29-1.94-2.66-3.53-.24-1.03.61-2.51.58-3.76-.11-4.49-.25-5.57-4.23-7.91,3.8-3.8-.13-2.39-1.53-3.65-.64-.58-3.83-5.61-4.05-6.58-.37-1.67,2.55-3.03,3.84-3.14.3-.03,4.22,3.31,4.7,3.82-4.63-10.18-14.86-3.63-5.93,6.42h0Z"/>
      <path class="cls-1" d="M69.06,89.15c-2.12-1.17-4.72-1.19-6.16,1.03-2.1-.11-6.78-.22-8.51,1.42.25.11.24.31-.05.6l-.13-.42c-.08.09-.14.19-.2.29.42,1.21.45,2.5.02,3.62-.33,1.83-1.67,2.42-4.6,3.11.02.07.04.14.06.21,7.45-1.19,4.14-2.9,5.28-5.4,1.92-4.18,8.06-2.46,11.1-.56l-1.42-3.3c.95.21,2.21-.05,3.02.22,1.59.53,6.61,4.44,8.05,4.5,1.7.07,3.99-1.22,5.83-1.06-2.36-2.82-.32-2.68-.33-3.41,0-.63-.51-1.26-.49-1.58-2.01,5.66-5.83,5.91-11.47.73h0Z"/>
      <path class="cls-1" d="M90.69,78.81c-.25.87-.21,1.95.18,3.04.21-1.22.13-2.26-.18-3.04Z"/>
      <path class="cls-1" d="M91.69,83.39c.01.2.05.39.09.56,0-.16-.03-.35-.09-.56Z"/>
      <path class="cls-1" d="M82.72,87.03c-.14.21-.39.51-.83.96.93-.15,2.07.06,2.95-.18-.51-1.36-1.21-1.61-2.13-.78h0Z"/>
      <path class="cls-1" d="M48.42,103.76l-.1-.09c.32-.22.58-.48.8-.77.08-.11.16-.23.22-.34,0,0,0-.02.02-.03.1-.18.18-.37.24-.55.01-.03.02-.07.03-.1.05-.16.09-.32.11-.48,0-.04.01-.08.01-.12.07-.79-.2-1.58-.81-2.36.17-.04.32-.08.49-.12-.02-.06-.04-.12-.06-.18,2.57-.11,4.06-1.35,4.66-2.93.15-.84.09-1.94-.13-3.43.03-.07.07-.12.11-.18-.7-2.02-2.49-3.82-5.15-4.14,2.59,2.77,4.67,3.08,4.59,7.8-.03,2.35-4.73,2.28-4.98,2.82-.14.31.96,1.89.75,2.66-.26.97-3.82,1.04-1.53,4.34.69-.12,1.38-.54,2.04-.65l-1.31-1.15h0Z"/>
      <path class="cls-1" d="M48.94,98.91c.61.78.88,1.57.81,2.36.07-.59.01-1.26-.18-2-.07-.08-.12-.16-.19-.25.04,0,.07-.01.11-.02-.02-.07-.04-.14-.06-.21-.16.04-.32.07-.49.12Z"/>
      <path class="cls-1" d="M49.6,101.98c-.06.18-.14.37-.24.55.1-.17.18-.36.24-.55Z"/>
      <path class="cls-1" d="M49.35,102.56c-.07.11-.15.23-.23.34.09-.11.16-.22.23-.34Z"/>
      <path class="cls-1" d="M49.74,101.39c-.02.16-.06.32-.11.48.05-.15.09-.32.11-.48Z"/>
      <path class="cls-1" d="M54.03,95.69c.43-1.12.41-2.4-.02-3.62-.03.06-.08.12-.11.18.22,1.49.28,2.59.13,3.43Z"/>
      <path class="cls-1" d="M48.42,103.76l1.31,1.15-1.31-1.15h0Z"/>
      <path class="cls-1" d="M97.14,140.93c-2.09,2.25-5.24,3.38-9.47,3.39-2.77.65-4.65,2.93-5.63,6.85-6,5.63-12.87,10.16-20.61,13.59-.34,4.78-1.38,10.5-6.02,12.62l.89.46c.9-.88,2.61-1.84,3.66-2.66.18-.14.51-.08.68-.22.97-2.04,2.89-3.15,4.6-4.45.17-.13.5-.08.68-.21.6-1.71,2.12-2.37,3.44-3.34.19-.13.51-.08.69-.22.95-2.06,2.91-3.13,4.59-4.45.18-.14.5-.08.68-.21.96-2.06,2.91-3.13,4.59-4.45.18-.14.51-.08.68-.22.96-2.06,2.91-3.13,4.6-4.45.17-.14.5-.08.68-.21.97-2.04,2.89-3.15,4.59-4.45.18-.13.5-.08.68-.21.6-1.71,2.13-2.37,3.45-3.34.18-.13.5-.08.68-.21.54-1.24,1.72-2.3,2.76-3.12l-.9-.47h.01Z"/>
      <path class="cls-1" d="M61.43,164.76c7.74-3.43,14.61-7.96,20.61-13.59.98-3.92,2.86-6.21,5.63-6.86,4.23-.02,7.38-1.14,9.47-3.39-4.04,1.89-11.43,1.02-13.74,3.99-1.19,1.54-1.37,4.45-3.24,6.28-1.29,1.26-4.9,4.09-6.47,5.19-2.26,1.59-12.68,6.74-13.38,7.58-.23.27-.8,5.37-1.38,6.98-.73,2.06-2.19,4.68-3.52,6.43,4.64-2.13,5.67-7.84,6.02-12.62Z"/>
      <path class="cls-1" d="M120.32,119.34c-2.48,4.48-7.05,7.26-11.35,9.67,1.24.99.92,2.34-.38,3.04l.68-.21c.2-.12.5-.08.68-.22l.47-.9c.19-.13.51-.08.68-.22.54-1.78,2.27-2.34,3.44-3.34.17-.14.52-.07.68-.21l.47-.9c.15-.15.53-.07.68-.22,1.83-1.83,3.1-3.54,4.16-5.82l-.21-.68h0Z"/>
      <path class="cls-1" d="M108.97,129.01c4.3-2.41,8.87-5.19,11.35-9.67-4.26,3.38-8.4,7.15-13.7,8.84.33,1.69,2.69,2.02,1.97,3.87,1.3-.71,1.63-2.06.38-3.04h0Z"/>
      <path class="cls-1" d="M130.6,68.83c2.8,2.57,5.36,7.94,5.25,11.84.46-1.26,1.6-2.64,1.65-4.27-.07-.22-.13-.47-.22-.68-1.64-.67-1.9-2.36-2.66-3.66-.12-.2-.09-.48-.21-.68l-1.12-1.15c-.12-.19-.08-.5-.21-.68l-1.12-1.15c-.14-.18-.07-.53-.21-.68-.32-.35-.92-.58-1.11-1.15.03.11-.41,1.07-.04,2.26h0Z"/>
      <path class="cls-1" d="M130.6,68.83c1.28,4.04,2.92,8.26,5.25,11.85.11-3.9-2.45-9.27-5.25-11.85Z"/>
      <path class="cls-1" d="M104.05,29.96l.74-.12,4.14,6.08c-.2-.41-.22-.96-.43-1.36-.11-.21-.11-.47-.21-.68l-1.33-1.83c-.12-.2-.1-.48-.22-.68l-1.11-1.15c-.12-.2-.1-.49-.22-.68l-1.11-1.15-.56.56.31,1.01h0Z"/>
      <path class="cls-1" d="M104.05,29.96c1.3,1.85,2.05,4.92,4.88,5.96l-4.14-6.08-.74.12Z"/>
      <path class="cls-1" d="M98.73,22.64c2.07.67,3.69,3.33,4.7,5.71.09-.18.37-.18.87.03-.13-.19-.09-.49-.22-.68l-1.11-1.15c-.23-.34-.2-1.03-.43-1.36l-1.12-1.15c-.13-.19-.09-.49-.21-.68l-1.11-1.15c-.13-.19-.09-.5-.22-.68l-.68.22c1.06.72.85,1.19-.47.9h0Z"/>
      <path class="cls-1" d="M103.43,28.35c-1.01-2.38-2.63-5.04-4.7-5.71,2.14,2.22,3.57,4.82,5.32,7.32-.54-.85-.73-1.38-.62-1.61Z"/>
      <path class="cls-1" d="M99.2,21.74l-.47.9c1.31.29,1.52-.18.47-.9Z"/>
      <path class="cls-1" d="M103.43,28.35c.24.56.45,1.11.62,1.61l-.32-1.01.57-.56c-.5-.21-.78-.21-.87-.03Z"/>
      <path class="cls-1" d="M104.05,29.96c-.17-.5-.38-1.05-.62-1.61-.11.23.08.76.62,1.61Z"/>
      <path class="cls-1" d="M97.71,140.8c.22,0,.33.14.33.6.09-.07.22-.09.35-.11l.33-.11c.18-.14.5-.08.68-.22l.47-.9c.17-.14.5-.08.68-.22l.93-1.8c-1.06,1.53-2.33,2.42-3.77,2.74h0Z"/>
      <path class="cls-1" d="M101.48,138.05c-1.2.72-3.66,2.55-4.34,2.87.25-.09.43-.14.57-.13,1.45-.33,2.71-1.21,3.77-2.74Z"/>
      <path class="cls-1" d="M97.71,140.8c-.19.04-.37.11-.57.13l.9.47c0-.46-.11-.6-.33-.6Z"/>
      <path class="cls-1" d="M97.14,140.93c.2-.02.38-.09.57-.13-.14,0-.32.04-.57.13Z"/>
      <path class="cls-1" d="M55.35,178.07c-.34,1.34-2.04,2.63-3.39,2.66l.9.46.68-.21c.2-.12.5-.08.68-.22l.46-.9c.19-.13.52-.08.69-.22.22-.36.4-.9.62-1.33-.38.46-.64.35-.65-.25h0Z"/>
      <path class="cls-1" d="M55.35,178.07c0-.19.01-.4.06-.68-1.23,1.6-2.39,2.22-3.45,3.34,1.35-.03,3.05-1.32,3.39-2.66Z"/>
      <path class="cls-1" d="M55.99,178.32c.1-.18.2-.35.32-.46l-.9-.47c.03.22,0,.45-.06.68.01.6.27.72.65.25h-.01Z"/>
      <path class="cls-1" d="M55.41,177.39c-.05.28-.07.49-.06.68.06-.23.08-.45.06-.68Z"/>
      <path class="cls-1" d="M129.96,66.86c.12-.17.33-.28.67-.29l-.21-.68c-.06-.23-.13-.47-.22-.68l-1.11-1.15-.47.9c.53.36.97,1.02,1.34,1.9h0Z"/>
      <path class="cls-1" d="M129.96,66.86c-.38-.89-.82-1.54-1.34-1.9.56,1.21.48,3.51,1.98,3.88-.57-.58-.98-1.51-.64-1.97h0Z"/>
      <path class="cls-1" d="M129.96,66.85c.24.56.46,1.2.64,1.97-.38-1.19.06-2.15.03-2.26-.34.01-.55.12-.67.29Z"/>
      <path class="cls-1" d="M129.96,66.86c-.34.47.07,1.39.64,1.97-.18-.77-.4-1.41-.64-1.97Z"/>
      <path class="cls-1" d="M110.48,38.43l.68-.22c-.1-.21-.11-.47-.22-.68-.33-.02-.73-.17-.89-.47-.12-.2-.1-.48-.22-.68-.11-.2-.11-.47-.21-.68l-.68.22c.69.61,1.59,1.79,1.54,2.51h0Z"/>
      <path class="cls-1" d="M108.93,35.92c.65,1.33.72,1.4,1.55,2.51.05-.73-.85-1.9-1.55-2.51Z"/>
      <path class="cls-1" d="M101.55,127.49c-1.85-1.55-5.19-6.69-7.53-8.26-.92-.62-7.32-1.73-7.47-2.33-.23-.88,2.48-1.46,1.16-2.24-1.8-1.12-3.46-.56-5.09-.64-.41.34-.74.78-1.15,1.11-1.11.89-2.46,1.92-3.66,2.66.03.84-.58,1.24-.93,1.79-.59.92-1.18,1.86-1.75,2.8l-1.1-1.16c-3.33,2.4,1.37,3.91,2.8,6.78.7,1.39.51,2.74.94,3.59,3.48,6.94,7.53,10.17,15.41,7.62,2.11-.69,12.7-6.38,12.71-8.29.01-3.26-3.1-2.38-4.34-3.42h0Z"/>
      <path class="cls-1" d="M60.93,97.61c1.16,1.67-.14,4.21.29,5.54.37,1.12,1.71,1.64,2.12,2.5,1.99,4.24.36,4.76,5.25,9.05l1.14-1.11c-.85-3.35-4.83-13.5-7.06-15.44-.56-.49-.07-1.46-1.74-.53h0Z"/>
      <path class="cls-1" d="M44.72,112.59c-.17-.07-.34-.13-.51-.23l-.93.59c.37-.22.86-.33,1.44-.37h0Z"/>
      <path class="cls-1" d="M49.03,111.02c-.02-.06-.03-.11-.04-.17l-.13-.41s.03,0,.04.01c-.04-.29-.03-.53.02-.71-.4.12-.8.28-1.21.5.18.29.27.56.35.8.26-.09.58-.11.97-.03h0Z"/>
      <path class="cls-1" d="M51.64,109.81c.5.25,1,.55,1.4.81-.45-.37-.92-.63-1.4-.81Z"/>
      <path class="cls-1" d="M51.64,109.81c-.55-.21-1.12-.29-1.7-.26,1.45.65,1.17.87,3.1,1.06-.4-.26-.9-.56-1.4-.81h0Z"/>
      <path class="cls-1" d="M48.92,109.75c-.05.18-.06.42-.02.71.47.1.53.31.17.67l-.08-.27c.01.06.02.1.04.17-.39-.07-.71-.05-.97.03.52,1.81-1.46,2.34-3.34,1.54-.58.03-1.07.15-1.44.37,1.29-.7,2.92,1.05,3.65.88.41-.1.49-1.46,1.96-1.41,1.4.05,2.59,2.82,3.54,1.02l-2.67-3.88c-.27.03-.55.1-.84.18h0Z"/>
      <path class="cls-1" d="M46.18,109.04c-2.03.92,2.65,3.06.38,3.62-.18.05-3.65-1.89-3.28.3l.93-.59c.17.09.34.15.51.23.67-.04,1.47.04,2.42.25.01-1,.32-1.59.92-1.79-.07-.25-.17-.51-.35-.8.41-.22.81-.38,1.21-.5.24-.91,1.51-.54,2.72.06.48.18.95.44,1.4.81-1.3-2.13-4.81-2.51-6.86-1.58h0Z"/>
      <path class="cls-1" d="M48.92,109.75c.28-.08.57-.15.84-.18l-.09-.13c.11.04.18.08.27.12.58-.04,1.15.05,1.7.26-1.21-.61-2.48-.97-2.72-.06h0Z"/>
      <path class="cls-1" d="M48.06,111.05c-.6.2-.91.79-.92,1.79-.95-.21-1.75-.29-2.42-.25,1.88.8,3.86.27,3.34-1.54h0Z"/>
      <path class="cls-1" d="M61.1,127.58c-2.36.8-1.34,3.14-3.84,3.47l5.63,1.21,1.65-4.27c-1.07-.05-1.72-.99-3.44-.41h0Z"/>
      <path class="cls-1" d="M36.62,148.82c-.43-.23-1.06-1.09-2.01-1.61.44.9,1.11,1.43,2.01,1.61Z"/>
      <path class="cls-1" d="M36.62,148.82c-1.72,1.37-2.17.28-2.01-1.61l-1.43,4.95,3.44-3.34Z"/>
      <path class="cls-1" d="M36.62,148.82c-.9-.18-1.57-.72-2.01-1.61-.16,1.9.29,2.98,2.01,1.61Z"/>
      <path class="cls-1" d="M82.62,114.01c-1.73-.08-4.75-1.96-5.45,1.72l4.31-.61c-.62-.77-.23-1.14,1.14-1.11Z"/>
      <path class="cls-1" d="M81.48,115.12c.41-.33.74-.77,1.14-1.11-1.37-.02-1.76.35-1.14,1.11Z"/>
      <path class="cls-1" d="M84.83,87.81l.53,2.84c.06-1.7.94-2.35,1.52-3.49-.51.49-1.19.71-2.05.65Z"/>
      <path class="cls-1" d="M84.84,87.81l2.04-.65c-.89-1.39-1.92.61-2.04.65Z"/>
      <path class="cls-1" d="M86.88,87.16l-2.04.65c.86.06,1.54-.15,2.04-.65Z"/>
      <path class="cls-1" d="M77.81,117.78c-.66.41-3.06-.54-2.97,2.44l2.04-.64c-.82-.58-.51-1.17.93-1.8Z"/>
      <path class="cls-1" d="M77.81,117.78c-1.44.62-1.75,1.22-.93,1.79.36-.56.97-.95.93-1.79Z"/>
      <path class="cls-1" d="M95.39,78.47c.67,1.35.9,1.28.68-.22-.04.68-.26.75-.68.22Z"/>
      <path class="cls-1" d="M95.39,78.47c-.48,3.94,3.33,2.74.68-.21.22,1.49-.01,1.56-.68.21Z"/>
      <path class="cls-1" d="M96.07,78.25c-.21.1-.46.15-.68.22.42.53.64.46.68-.22Z"/>
      <path class="cls-1" d="M68.59,114.7c.5.44,1,1.17,1.78.93-.17-.69-.46-1.36-.64-2.05.09,1.22.04,1.87-1.14,1.11Z"/>
      <path class="cls-1" d="M69.73,113.59l-1.14,1.11c1.18.75,1.23.11,1.14-1.11Z"/>
      <path class="cls-1" d="M41.79,150.94l2.01,1.61c-1.08-1.46-1-.95-2.01-1.61Z"/>
      <path class="cls-1" d="M43.8,152.55l-2.01-1.61c.32.99.94,1.63,2.01,1.61Z"/>
      <path class="cls-1" d="M84.12,90.29c-.98-.51-1.91,1.28-.93,1.79.98.51,1.91-1.28.93-1.79Z"/>
      <path class="cls-1" d="M120.66,119.78l.81-1.54c-.27.61-.65.98-1.15,1.11.29.07.4.22.34.43Z"/>
      <path class="cls-1" d="M120.32,119.34c.5-.13.88-.51,1.15-1.11-.62.12-.85.88-1.15,1.11Z"/>
      <path class="cls-1" d="M120.66,119.78c.07-.21-.04-.36-.34-.43l.21.68.13-.25h0Z"/>
      <path class="cls-1" d="M120.54,120.03c.23-.5,1-.98.93-1.8l-.8,1.54c-.03.08-.07.16-.13.25Z"/>
      <path class="cls-1" d="M120.66,119.78l-.13.25c.07-.09.11-.18.13-.25Z"/>
      <path class="cls-1" d="M111.01,38.73c-.12.06-.29-.03-.53-.3.22.29.21.96.44,1.36l.45-.89c-.19-.03-.3-.09-.36-.16Z"/>
      <path class="cls-1" d="M110.96,38.68c-.04-.11.03-.27.2-.47l-.68.22.48.25h0Z"/>
      <path class="cls-1" d="M111.01,38.73s-.05-.03-.05-.05l-.48-.25c.24.27.41.36.52.3h.01Z"/>
      <path class="cls-1" d="M111.02,38.71l.36.18-.22-.68c0,.28-.05.43-.14.5Z"/>
      <path class="cls-1" d="M111.01,38.73c.06.08.17.14.37.16l-.36-.18s-.01.02-.01.02Z"/>
      <path class="cls-1" d="M110.96,38.68l.06.03c.09-.07.14-.21.14-.5-.17.2-.24.35-.2.47h0Z"/>
      <path class="cls-1" d="M111.02,38.71l-.06-.03s.03.03.05.05c0,0,.01-.01.01-.02h0Z"/>
      <path class="cls-1" d="M82.14,86.41c-.29-.62-.37-1.4-.65-2.04-.74.25-.79,1.14-.93,1.79.39-1.34.99-.76,1.58.25Z"/>
      <path class="cls-1" d="M80.56,86.16l1.58.25c-.53-.38-1-.66-1.58-.25Z"/>
      <path class="cls-1" d="M82.14,86.41c-.59-1.01-1.19-1.59-1.58-.25.58-.4,1.05-.13,1.58.25Z"/>
      <path class="cls-1" d="M85.8,83.75c-.98-.51-1.91,1.28-.93,1.79.98.51,1.91-1.28.93-1.79Z"/>
      <path class="cls-1" d="M65.33,129.23c-.11.02-.24.02-.43,0-.14.03-.29.1-.44.22,0,.15,0,.29,0,.42.43.47,1.47.88,1.61.63-.43-.39-.65-.58-.65-.58,0,0,.21.2.65.58.21-.38-.17-1.1-.75-1.26h0Z"/>
      <path class="cls-1" d="M65.33,129.23c-.14-.04-.28-.04-.43,0,.19.02.32.02.43,0Z"/>
      <path class="cls-1" d="M64.47,129.87c.01-.13,0-.27,0-.42-.06.04-.11.07-.17.12.02.1.09.2.18.3h0Z"/>
      <path class="cls-1" d="M37.13,78.13c2.88-3.91-2.77-3.88-1.01.32l1.01-.32h0Z"/>
    </g>
  </g>
</svg>