<?xml version="1.0" encoding="UTF-8"?>
<svg id="_레이어_2" data-name="레이어 2" xmlns="http://www.w3.org/2000/svg" viewBox="0 0 122.77 136.02">
  <defs>
    <style>
      .cls-1 {
        fill: #ff319c;
      }
    </style>
  </defs>
  <g id="_레이어_1-2" data-name="레이어 1">
    <g>
      <path class="cls-1" d="M44.84,110.72c.03.17.07.34.12.53-.02-.4-.02-.77-.01-1.14-.09.18-.13.38-.11.61h0Z"/>
      <path class="cls-1" d="M21.9,34.58c.03-.27.13-.51.26-.72l-.83.14c-.14.48.05.69.57.58Z"/>
      <path class="cls-1" d="M40.48,109.95c.58.67,1.05,1.45,1.51,2.25.46.8.86,1.65,1.24,2.5,1.31-1.03,2.66.95,2.3-1.15-.24-.42-.42-1.68-.57-2.3-.08-.19-.11-.36-.12-.53-.77-3.55.46-3.77.65-6.73.02-.34-1.74.08-1.1-1.39.94-.06,1.88.02,2.76.39,1.4.58-.5,1.51,2.42.76.32-.08.74-.57.86-.55.99.18.64,2.1,1.02,2.71.23.37,1.22.46,1.61.97.59.75.48,1.99.55,2.06.42.41,5.63-2.15,6.33-2.88.4-.41.81-1.2,1.16-1.73.38-.58.78-1.15,1.15-1.73.18-.28-.5-1.61,1.15-1.15.2.05.57-.06.57.29l-.57.29v.58c.06,0,1.1-.02,1.16,0,1.44.45,2.37,1.7,3.63,2.42,2.21,1.26,6.12,2.03,6.16,5.38.02,1.03-5.87,6.47-6.34,8.34l.58.58c1.22-2.6,4.98-7.25,8.42-6.06,8.18,5.52,16.13,11.58,23.86,18.16.46-2.52,1.56-2.2,2.3-2.88l.58-.58c-.04-.18.05-.4,0-.58l-.19-.18c-.15-.12-.35-.25-.39-.39-.23-.88-.37-1.3-.57-2.31-.04-.18.02-.39,0-.58-.22-1.34-.59-2.66-.58-4.03-.43-.58-.48-1.6-.93-1.73-1.88-.56-2.65,1.76-2.83,1.76-.7-.03-1.3-.9-2.18-1.04-1.69-.27-3.74,1.25-5.34,1.56-.75.15-2.28.51-1.97-.82,4.71-2.66,4.58-6.1,6.32-10.4,1.2-2.96,3.48-5.35,2.9-8.91,2.05-.26,2.2,2.41,3.06,3.28.26.27,3.64,2.94,3.85,3.06.23.04.39.13.53.24.77.32,1.42.36,2.36.34.68-.02,1.97-.44,2.88-.58,3.41-.79,1.33-6.26,1.76-6.86.08-.1,2.15-1.17,2.27-1.21-2.7.16-7.53-1.78-10.04-3.17l-.91-1.44c-.77-.19-1.09-.57-1.15-.58-.15.49-.34.48-.58,0-.53.08-4.19,2.18-4.61,1.73-.29-4.14-.87-3.69-4.03-4.04-3.32-.36-4.09-1.19-6.92-2.88-2.2.09-3.69-1.82-5.76-2.31-.3.41-.46,1.15-1.15,1.15v-2.3c-1.09-.24-.2,1.11-.87,1.16-.62.05.1-1.26-.74-1.16-.05.02-.09.05-.13.08-.06.82-.39,1.28-1.15,1.65-.22.11-.81-.07-1.15,0-.87,1.06-1.43,1.89-2.88,2.31-.62-1.8-.28-2.52,0-4.03.09-.48.46-2.79.57-2.88-.49.17-1.34.5-1.73.58-1.35.26-6.45.45-7.7.01-.63-.22-.23-1.13-.56-1.52-.92-1.08-2.64-1.85-3.26-2.53-.38-.04-.8.07-1.16,0l-.58,6.92c-1.72-1.18-.39-4.35-.57-6.34-2.26-.67-1.96,1.96-3.46,2.88-.27,0-1.58-2.45-1.72-2.88-.91-2.68.05-2.8,0-4.03-.42-8.75-.79-9.28,3.45-17.29-.62-2.14.56-2.22.99-2.28.11-.12.24-.24.37-.35.09-.15.14-.27.16-.37-.05-.09-.09-.18-.12-.29-.39-.18-1.58.31-1.97.4-.34.08-.84-.09-1.15,0-.23-.2-.42-.2-.58,0-1.13.6-.95,2.04-2.31,1.73-.62,3.53-3.28,14.69-6.37,16.39-.77.42-3.15.98-4,.9-1.48-.13-1.62-1.14-2.3-1.41-.02,0-.04,0-.06-.01-.15.03-.31.02-.47-.02-.49.08-1.01.38-1.16.27-.43-.29-.48-1.83-.54-2.96-.05-.33-.08-.67-.08-1.06-1.01-4.86-3.31-7.32-4.61-11.53-2.32-1.09-1.92-2.81-1.46-4.55.02-.2.05-.39.11-.59.04-.2.1-.4.19-.62.32-1.54.76-3.09,1.16-4.61.11-.37.34-.61.69-.7,1.01-1.19,1.69-2.92,1.96-4.58l.8.09c.53,1.39,1.06,1.5,1.16,0,2.49-3.56,4.16-7.81,5.01-12.76,1.72,1.45,8.05,3.42,5.94.08,3.66.46,4.1,1.56,4.69,4.88l1.83.02c-.42-2.04.19-2.99,2.12-3.75,1.44-.25,1.84-2.16.58-2.88.46-.58,1.42-.58,2.88,0,.5,1.3,1.77,3.42,2.66,3.42.08-.14.28-.29.57-.44.09-.17.17-.39.23-.68.1,0,.17-.03.25-.04.24-.39.59-.62,1.08-.7.03-.39-.29-.92-.75-1.57.93-.32.93-1.28,0-2.88,1.82-.92,1.98-6.25,0-6.92.77-2.01-.49-2.81-2.31-3.46l.06-.73c.18,1.05,2.7-.41,2.25-1.58-.17-.33-.3-.65-.39-.96-.54-.78.08-2.82,2.12-1.93.75-1.16,1.05-3.17,1.52-3.51.27-.2,5.8-1.65,6.34-1.66,1.19-.02,1.65.55,2.51,1.14.14-.07.28-.07.42-.03.03-.02.06-.04.08-.06-.06-.33,0-.72.08-1.06-1.77.15-2.2-2.91-.58-3.46h-1.15c-17.57,6.48-35.82,11.06-53.58,17.03-6.44,13.83-11.45,28.28-17.32,42.34v5.76c-2.59.44.1-2.57-1.15-3.46-.59,1.39-.7,3.3-2.3,4.03v1.15c1.66.8,3.19,1.81,4.57,3.04,12.25,13.09,24.13,26.53,35.9,40.05h0ZM85.89,100.29c1.29.08,2.32,3.45.85,3.45-.88,0-1.02-2.61-.85-3.45ZM86.18,104.33c1.8-.39,3.31,2.25,2.53,3.4-.2.29-3.15.84-3.41.62,1.04-.9-.37-3.76.88-4.03ZM73.78,93.38c.2-.39.98.34.57,1.15-.2.39-.98-.34-.57-1.15ZM63.97,95.68c.06.45-.44,2.17-.58,2.3-.08.08-.37-.03-.56,0-.16-1.03.03-2.02,1.14-2.3ZM61.67,90.49c-.42.36-2.36-1.29-2.3-1.43.84-2.11,2.45,1.3,2.3,1.43ZM50.72,78.39c.52.55-1.24,2.68-2.3,2.3.5-.74,1.45-3.2,2.3-2.3ZM46.11,85.88c.16-.55,1.26-3.46,1.72-2.88.1,1.39-.85,2.85-1.14,4.03-.5,2.01-.75,4.03-1.17,6.05-.21,1,.63,1.72-1.14,1.43.68-2.8.94-5.87,1.73-8.64h0ZM38.9,99.14c.38.19.38.38,0,.58v-.58ZM40.35,98.56c.75.08,1.07,1.16,1.7,1.4.63.24,1.73-.7,1.75.33-.27.48-.35,1.36-.57,1.73-.15.24-.36.4-.58.57-.15.13-.12.62-.86.6-.67-.02-.69-.49-.86-.6-.89-.57-1.12-1.74-2.3-1.74.62-1.27,2.32.3,1.72-2.3h0ZM24.79,87.03c-.39-.2.33-.98,1.14-.57.39.2-.33.98-1.14.57ZM13.25,60.52c-.34-1.29.22-1.91.58-2.88.37-.99,1-1.87,1.16-2.31.73-2.05,1.05-4.28,1.72-6.34-1.71-.58-1.76-1.87-.13-3.86-3.04,1.13-3.09-.59-2.17-3.06,1.86-4.78,5.73-13.17,8.98-17.24,3.64-4.55,5.95-3.23,11.19-4.65-1.2,1.59-1.56,2.16-.57,4.03,2.08-.5,2.27-.14,1.15,1.73-2.48,2.78-4.7,4.25-7.49,6.34-1.19.93-1.38.99-1.16-.58-.34-.33-.72-.84-.52-1.19,1.54-2.8,3.16-3.58,5.83-4.82.17-2.78-6.74,4.96-8.41,7.37.44.03.83.38.85,1.24,1.4-.21,1.95.07,1.68.86-1.15,1.51-3.23,4.86-4.04,5.76-.3.96.27,1.54,1.73,1.73,1.41,1.45,4.08,6.08,5.77,6.34v1.73l-.58,2.31c-.02.19.03.39,0,.57-.12.87-.6.71-1.15,0-2.92-.26-4.52-.49-7.49.58-1.15,1.15-2.27,2.35-3.46,3.46l-.59,1.73c-.43.13-.49-.57-.57-.58-.2-.02-.44.05-.57,0,.06,1.2-.88,1.59-1.45,2.3-.7.88-1.38,2.53-2.58,2.31.16-2.24-.09-4.17,2.29-2.88h0ZM28.82,54.76c-.22,1.25-.06,2.92-.87,4.04-2.27-.12.25-3.16.29-4.04.17-.5.36-.5.58,0ZM11.26,63.97c1.85.38,7.74,1.97,8.28,3.83.29,1.02-1.34,2.79.05,3.67,1.1-1.02,1.03-1.25,1.73-2.3.21-.32.47-1.08.86-1.11,2.57-.19.55,3.94,1.5,4.52.63.39,2.18-.47,2.89.4.33.4,1.36,3.31,1.09,3.68-.99-.97-2.62-.79-3.46-1.15.34.8.74,2.23,1.16,2.88.96,1.51,2.6,2.41,3.46,3.46,1.43,1.76,1.58,2.46,1.15,4.61l.57.29c-.06.41.12,1.31.01,1.44,4.01-2.82,4.73,1.26,4.6,4.61l-1.73-2.3-.57,1.73c-1.96-.64-.34-2.52-.58-4.03l-1.15,2.3c-1.26.37-1.26-.77-1.73-1.15-1.82-1.47-1.7-1.86-2.88-3.46-.58-.79-1.13-1.4-1.73-2.31v.58c-.03.88-.42,2.16-1.15,1.15-.45-.62-.59-1.62-.58-2.31-1.75-.86.48-1.93-2.23-1.98-1.85-.03-3.64,2.14-5.24.21-.41-.5.54-1.05.56-1.11.61-2.64,1.22-5.41,1.73-8.07,1.15-5.98-.44-3.31-4.61-2.31-.46.11-1.18-.05-1.73,0-.27.02-.72.59-1.15.58-1.01-2.17.11-4.29.88-6.35h0ZM8.07,68.02h1.15v2.3c-.32.7-1.46-1.98-1.15-2.3ZM5.19,68.01l1.15,1.15c-1.2.17-1.31.06-1.15-1.15ZM4.61,61.67c.03-.53-.28-1.59.28-1.73,2.52,2.2.89,3.82.29,6.33-1.04.03-.55-2.15-.57-2.88-.02-.57-.03-1.16,0-1.73Z"/>
      <path class="cls-1" d="M84.73,87.61s.05,0,.1-.03c0,0-.01,0-.01,0l-.11-.04s.01.06.02.08h0Z"/>
      <path class="cls-1" d="M102.6,93.37c-.18-.01-.41-.03-.58,0,.24.48.43.49.58,0Z"/>
      <path class="cls-1" d="M76.08,3.46c-.29-1.03-.36-2.37-.57-3.46-1.62.54-1.2,3.61.57,3.46Z"/>
      <path class="cls-1" d="M41.99,112.2c-.46-.79-.93-1.57-1.51-2.25-11.77-13.52-23.66-26.96-35.91-40.05-1.38-1.23-2.9-2.24-4.57-3.04,15.09,15.25,28.73,32.01,43.23,47.84-.38-.86-.78-1.7-1.24-2.5Z"/>
      <path class="cls-1" d="M76,4.52c.15-.17.18-.51.08-1.06-.08.34-.13.73-.08,1.06Z"/>
      <path class="cls-1" d="M68.59,119.31c.85-.74,5.43-4.75,5.78-4.91,2.5-1.16,4.13,1.54,5.53,2.5,7,4.84,13.96,9.7,20.97,14.51-7.73-6.59-15.68-12.64-23.85-18.17-3.45-1.19-7.21,3.47-8.43,6.06h0Z"/>
      <path class="cls-1" d="M114.7,98.56c-3.44-1.66-7.24-3.7-10.95-4.61l.9,1.45c2.52,1.38,7.34,3.32,10.05,3.17h0Z"/>
      <path class="cls-1" d="M111.82,107.21c-1.2.26-2.75.33-4.04.58-1.54.29-1.74-.28-2.19.36-.12.39-.35.84-.69,1.37-1.94,4.29-4.46,7.14-1.15,11.53.56-.6.43-.94.57-1.15l-.33-1.51c4.04-5.29,8.77-9.4,14.17-12.33l-.58-.57c-1.39.75-4.14,1.38-5.76,1.73h0Z"/>
      <path class="cls-1" d="M103.99,118.38l.34,1.51c2.99-4.38,9.81-9.9,13.83-13.83-5.4,2.93-10.12,7.04-14.16,12.33h-.01Z"/>
      <path class="cls-1" d="M104,121.11c-.07-.01-.16-.03-.25-.07-.04.04.05.64-.29.57-.48-.56-1-1.13-1.44-1.72,1.61,2.06,1.8,3.41.58,4.03,1.63-.23,1.63.81,0,.58,1.35-.14,1.76,1.61.57,2.31l.39.39c.09.07.17.13.19.18.51.15.5.35,0,.58l-.58.58c.61,1.09-.7,2.12-1.78,2.65,1.27-.42,2.1.43,1.78,1.96l2.3-1.73c.15,1.46-.91,1.94-2.3,1.73l2.05.21c.78,1.49,1.06.84.82-1.94-1.42-1.03-2.48-5.78-1.9-7.1-1.06-.74-.55-1.12.76-.96-.84-.2-1.13-.95-.9-2.24h0Z"/>
      <path class="cls-1" d="M104.14,124.31c-.58,1.33.48,6.07,1.9,7.1.24,2.78-.03,3.43-.82,1.94l-2.05-.21c1.42.97,2.69,2.88,4.61,2.88.47-.38-3.06-10.16-3.23-11.55-.11-.87.35-1.07.35-1.13-1.31-.16-1.82.23-.76.96Z"/>
      <path class="cls-1" d="M101.39,131.19c-.19.09-.36.17-.52.23.77.54,1.51,1.18,2.3,1.73.32-1.53-.51-2.38-1.78-1.96h0Z"/>
      <path class="cls-1" d="M104,121.11c-.23,1.29.06,2.04.9,2.24-.04-1.09.41-2.82-.57-3.46.32.73.35,1.34-.33,1.22Z"/>
      <path class="cls-1" d="M103.75,127.38c.05.18-.04.39,0,.57.51-.23.51-.42,0-.57Z"/>
      <path class="cls-1" d="M102.6,124.5c.2,1.01.34,1.43.57,2.31,1.19-.7.78-2.45-.57-2.31Z"/>
      <path class="cls-1" d="M103.17,128.53c-.74.69-1.84.37-2.3,2.88.18-.1.35-.17.52-.23,1.08-.53,2.39-1.57,1.78-2.65Z"/>
      <path class="cls-1" d="M102.02,119.89c-.01,1.37.36,2.69.58,4.03,1.22-.63,1.03-1.97-.58-4.03Z"/>
      <path class="cls-1" d="M100.87,131.42c.16-.06.33-.14.52-.23-.17.05-.34.13-.52.23Z"/>
      <path class="cls-1" d="M104,121.11c.07-.37.17-.77.33-1.22-.15.21-.02.55-.58,1.15.1.04.18.05.26.07h-.01Z"/>
      <path class="cls-1" d="M104.33,119.89c-.16.45-.26.85-.33,1.22.68.12.65-.49.33-1.22Z"/>
      <path class="cls-1" d="M94.99,83.75c-.13,1.59.25,3.35,1.15,5.29l-1.04.88c.55-.03,1.66.87,2.13.56-.03-.36.02-.74.18-1.14-1.43-.07-2.42-3.2-2.42-5.59Z"/>
      <path class="cls-1" d="M97.23,90.48c.2-.13.29-.45.18-1.14-.16.4-.21.78-.18,1.14Z"/>
      <path class="cls-1" d="M97.41,89.34c-.8-2.04-1.12-5.76-1.73-8.07-.39.77-.61,1.6-.69,2.48.01,2.39,1,5.51,2.42,5.59h0Z"/>
      <path class="cls-1" d="M95.1,89.92l1.04-.88c-.9-1.93-1.28-3.69-1.15-5.29,0-1.11.21-2.07.69-2.48-4.26.74-.53,5.94-.58,8.64Z"/>
      <path class="cls-1" d="M94.99,83.75c.08-.88.3-1.71.69-2.48-.48.41-.69,1.37-.69,2.48Z"/>
      <path class="cls-1" d="M51.38,122.17c-.08-.1-.16-.19-.25-.29l.17-.84c-.19-.11-.36-.21-.51-.31-.99-.53-1.39-.18-1.8-.26.5.16.5.36,0,.58l.58.58c.2-.2.42-.37.65-.4.11-.02.55.37,1.16.96h0Z"/>
      <path class="cls-1" d="M50.22,121.21c-.23.04-.45.2-.65.4.83,1.1,6.94,8.11,7.49,8.07-1.63-2.58-3.53-5.08-5.68-7.52-.61-.59-1.05-.97-1.16-.96Z"/>
      <path class="cls-1" d="M48.99,120.47v.58c.5-.22.5-.41,0-.58Z"/>
      <path class="cls-1" d="M51.3,121.04c-.19-.13-.36-.23-.51-.31.15.1.32.21.51.31Z"/>
      <path class="cls-1" d="M51.3,121.04l-.17.84c.09.09.16.19.25.29,1.81,1.76,5.05,5.37,5.25,5.66l.43,1.86.57-3.46c-2.55,1.19-3.93-3.49-6.33-5.19h0Z"/>
      <path class="cls-1" d="M51.38,122.17c2.15,2.43,4.05,4.94,5.68,7.52l-.43-1.86c-.2-.28-3.44-3.89-5.25-5.66h0Z"/>
      <path class="cls-1" d="M117.29,103.74c.32-.12,1.13-3.05,2.09-3.12l-.05-.02c-1.76.7-4.2,1.38-4.15-1.12-.36.56-1.35.64-2.21.81.34,1.55,2.05-.11,1.73,1.72,1.41-.4,1.46,2.14,2.59,1.72h0Z"/>
      <path class="cls-1" d="M115.18,99.49c-.05,2.5,2.39,1.82,4.15,1.12l.05.02s.03,0,.05,0c-.77-.58-1.14-1.58-2.99.24-.03-.95-.09-2.04-1.16-2.3.1.41.04.7-.1.92h0Z"/>
      <path class="cls-1" d="M114.87,98.81c-.05-.06-.11-.14-.17-.25.01.15-.03.28-.09.41.09-.05.18-.11.26-.16Z"/>
      <path class="cls-1" d="M111.82,106.63c.46-.09,1.14-.41,1.73-.58v-3.46c1.2.62,1.26.96,1.15-.57-.62-.07-1.08-.18-1.43-.32.33,2.03-.12,4.79-2.61,4.93.37-.05.81.07,1.16,0h0Z"/>
      <path class="cls-1" d="M113.44,99.83c-.22.07-.44.14-.71.2.06.1.12.22.17.35.14-.17.31-.35.54-.55Z"/>
      <path class="cls-1" d="M115.28,98.56c-.13-.03-.46-.04-.58,0,.06.11.12.19.17.25.13-.08.26-.16.41-.25Z"/>
      <path class="cls-1" d="M110.67,106.63c2.48-.14,2.93-2.9,2.61-4.93-.71-.29-.83-.73-.38-1.33-.05-.13-.11-.24-.17-.35.27-.06.49-.13.71-.2.3-.26.7-.55,1.17-.86.06-.13.1-.26.09-.41-.12.04-2.19,1.1-2.27,1.21-.43.6,1.65,6.07-1.76,6.86h0Z"/>
      <path class="cls-1" d="M114.87,98.81c-.09.06-.17.11-.26.16-.15.36-.54.64-1.17.86-.23.2-.4.38-.54.55.16.36.29.82.38,1.33.34.14.81.25,1.42.32.32-1.83-1.4-.17-1.73-1.72.86-.17,1.84-.25,2.21-.81,0-.27.03-.57.1-.92-.1.37-.23.44-.41.25h0Z"/>
      <path class="cls-1" d="M115.28,98.56c-.07.35-.1.65-.1.92.14-.22.2-.51.1-.92Z"/>
      <path class="cls-1" d="M115.28,98.56c-.15.08-.28.17-.41.25.18.19.31.12.41-.25Z"/>
      <path class="cls-1" d="M113.28,101.7c-.09-.51-.22-.96-.38-1.33-.45.59-.33,1.04.38,1.33Z"/>
      <path class="cls-1" d="M114.61,98.97c-.48.31-.87.6-1.17.86.63-.21,1.02-.5,1.17-.86Z"/>
      <path class="cls-1" d="M61.1,123.92l2.02-.56c.25,0,.3.29.28.56.12-.59.52-1.21,1.04-1.8-1.05.72-2.18,1.33-3.34,1.8Z"/>
      <path class="cls-1" d="M67.78,119.64c-.07-.14-.01-.45.23-.91-.38.53-.81,1.02-1.27,1.49.35-.22.7-.42,1.04-.58Z"/>
      <path class="cls-1" d="M67.78,119.64c-.34.16-.69.36-1.04.58-.69.7-1.47,1.34-2.3,1.9-.52.59-.92,1.21-1.04,1.8,2.02-1.38,3.47-3.13,5.19-4.61-.44.42-.73.5-.81.33Z"/>
      <path class="cls-1" d="M67.78,119.64c.28-.14.56-.25.81-.33l-.58-.58c-.24.46-.3.77-.23.91h0Z"/>
      <path class="cls-1" d="M68.59,119.31c-.25.08-.53.2-.81.33.08.17.36.09.81-.33Z"/>
      <path class="cls-1" d="M64.44,122.12c.64-.71,1.46-1.38,2.3-1.9.46-.47.89-.96,1.27-1.49-2.56,1.4-4.66,3.38-6.91,5.19,1.16-.47,2.29-1.08,3.34-1.8h0Z"/>
      <path class="cls-1" d="M64.44,122.12c.83-.57,1.6-1.2,2.3-1.9-.84.52-1.66,1.19-2.3,1.9Z"/>
      <path class="cls-1" d="M120.02,101.17c.11.76-1.03,2.06-1.28,2.58-.06.11.67.73-1.16,1.73.93-.42,1.12-.34.58.57,1.09-1.61,1.86-2.91,2.3-3.91l-.44-.98h0Z"/>
      <path class="cls-1" d="M120.02,101.17l.44.98c-.44,1-1.21,2.3-2.3,3.91,1.48-1.45,3.27-2.69,4.61-4.33-.62-.79-2.1-.6-2.88-.86.07.09.12.19.13.3h0Z"/>
      <path class="cls-1" d="M117.58,105.48l.58.57c.54-.92.35-.99-.58-.57Z"/>
      <path class="cls-1" d="M60.11,125.66c.05-.09.11-.18.18-.26-.05.02-.09.04-.15.06l-.03.2h0Z"/>
      <path class="cls-1" d="M63.06,124.07c-1.03.47-1.7.44-1.96-.15.19.28.22.54.12.77.53-.24,1.11-.32,1.6-.19.02-.24.12-.36.24-.43h0Z"/>
      <path class="cls-1" d="M61.22,124.69c-.11.27-.42.51-.93.71-.07.08-.12.17-.18.26l-.17,1.15c.84-.71,2.19-1.57,2.88-2.31-.48-.13-1.07-.04-1.6.19Z"/>
      <path class="cls-1" d="M60.11,125.66l.03-.2c.06-.02.1-.04.15-.06.24-.29.57-.54.93-.71.1-.23.07-.49-.13-.77-.86.69-4.09,1.12-1.15,2.88-.11-.42-.02-.81.17-1.15Z"/>
      <path class="cls-1" d="M60.29,125.4c.5-.2.82-.44.93-.71-.36.17-.69.41-.93.71Z"/>
      <path class="cls-1" d="M59.94,126.8l.17-1.15c-.19.34-.28.73-.17,1.15Z"/>
      <path class="cls-1" d="M63.12,123.36l-2.02.56c.26.59.93.62,1.96.15.13-.08.27-.1.34-.15.03-.27-.03-.56-.28-.56Z"/>
      <path class="cls-1" d="M49.75,119.86c.06.02.12.02.19.05-.02-.04-.04-.09-.04-.13-.05.03-.1.05-.15.08Z"/>
      <path class="cls-1" d="M49.22,119.96c-.36,0-.75-.11-1.04-.31-.04.08-.14.16-.34.23l.57.58c.14-.49.34-.48.58,0,.03-.25.11-.4.22-.5h.01Z"/>
      <path class="cls-1" d="M48.18,119.65c-.14-.1-.26-.2-.34-.34.09.11-.1.46,0,.57.2-.08.3-.16.34-.23Z"/>
      <path class="cls-1" d="M48.42,120.46c.15.05.37-.04.57,0-.24-.48-.43-.49-.57,0Z"/>
      <path class="cls-1" d="M49.9,119.78s.02.08.04.13c.47.2,1.01.67,1.36,1.13-.41-.55-.72-1.2-1.15-1.73,0,.21-.1.36-.25.47Z"/>
      <path class="cls-1" d="M50.79,120.73c-.46-.31-.74-.58-.85-.82-.07-.03-.13-.04-.19-.05-.16.07-.34.11-.53.11-.11.1-.2.25-.23.5.41.08.81-.27,1.8.26Z"/>
      <path class="cls-1" d="M49.94,119.91c.11.24.39.51.85.82.16.08.32.18.51.31-.35-.46-.89-.93-1.36-1.13Z"/>
      <path class="cls-1" d="M48.18,119.65c.29.2.68.31,1.04.31.13-.13.31-.16.53-.11.05-.02.1-.05.15-.08-.04-.18.04-.34.25-.47h-2.31c.3.11.39.23.34.34h0Z"/>
      <path class="cls-1" d="M48.18,119.65c.05-.11-.05-.23-.34-.34.07.14.2.25.34.34Z"/>
      <path class="cls-1" d="M49.9,119.78c.15-.11.25-.26.25-.47-.21.13-.28.29-.25.47Z"/>
      <path class="cls-1" d="M49.22,119.96c.2,0,.37-.04.53-.11-.21-.05-.4-.02-.53.11Z"/>
      <path class="cls-1" d="M105.19,123.92c.63-.04-.02-.85-.29-.58-.13.13.09.59.29.58Z"/>
      <path class="cls-1" d="M54.18,53.03c-1.16-.08-1.14-.99,0-1.15,1.23-.15,1.37-2.4,2.85-2.35l-.54-1.11c-.22-.5-.41-.5-.58,0-.73-.9-1.5-1.67-2.31-2.31l-.28-1.24c1.75-2.36,2.04-3.68.86-3.95-.42-.16-.9,0-1.16.27.12.11.13.38.01.88-1.1,3.2-2.05,6.05-2.69,9.54l-.08,1.28c2.01-.77,2.74.6,2.18,2.05.38-.28.77-.34,1.16-.19.18-.3.37-.29.58,0-.15-1.17.63-.9,1.15,0,.26-1.06-1-1.46-1.15-1.73Z"/>
      <path class="cls-1" d="M54.18,54.76c.31-.09.81.08,1.15,0-.52-.9-1.3-1.17-1.15,0Z"/>
      <path class="cls-1" d="M53.6,54.76c.16-.2.35-.2.58,0-.21-.29-.41-.3-.58,0Z"/>
      <path class="cls-1" d="M52.44,54.95c-.2.54-.58,1.09-1.14,1.54,1.35.31,1.17-1.13,2.3-1.73-.39-.16-.78-.09-1.16.19h0Z"/>
      <path class="cls-1" d="M53.03,42.08c.12-.5.11-.77-.01-.88-.23.24-.3.58.01.88Z"/>
      <path class="cls-1" d="M52.44,54.95c.55-1.45-.17-2.82-2.18-2.05l.08-1.28c.64-3.49,1.59-6.34,2.69-9.54-3.03,4.41-4.08,7.85-4.03,13.26.85.31,2.18-2.54,2.87-1.73.96,1.12-1.06,1.89-1.07,2.01-.03.28.52.72.5.87.37-.74.75-1.25,1.14-1.54Z"/>
      <path class="cls-1" d="M52.44,54.94c-.39.29-.77.8-1.14,1.54.56-.45.94-1,1.14-1.54Z"/>
      <path class="cls-1" d="M40.19,68.56c.05,1.45-.23,2.47-.64,3.08.64.42,1.17.96,1.33,1.7-.1-1.82.82-5.64,2.35-5.9l-1.18-.47c-2.81-5.69-3.43-5.16-1.86,1.59Z"/>
      <path class="cls-1" d="M37.47,72.05l-.02-.07c-.37-.33-.68-.85-.89-1.56.25,1.23.65,1.82,1.19,1.78-.08-.04-.16-.1-.24-.16-.01,0-.02.01-.04.02h0Z"/>
      <path class="cls-1" d="M39.55,71.65c-.28.42-.62.65-.99.71.02,0,.05,0,.06.01.68.27.82,1.27,2.3,1.41-.03-.12-.04-.27-.05-.44-.15-.74-.68-1.28-1.33-1.7h.01Z"/>
      <path class="cls-1" d="M36.56,70.41c-.07-.24-.12-.49-.16-.77.05,1.13.1,2.67.53,2.97.16.1.67-.2,1.17-.27-.12-.03-.24-.08-.35-.14-.54.04-.93-.55-1.19-1.78h0Z"/>
      <path class="cls-1" d="M37.47,59.95c-.58.63,3.78,11.21.04,12.08.08.06.15.12.24.16.35-.03.76-.3,1.23-.88.2.1.39.21.57.33.41-.62.69-1.63.63-3.08-1.56-6.75-.94-7.28,1.87-1.59l1.18.47c.13-2.24-2.91-5.03-4.45-6.75-.23-.26-.45-1.67-1.32-.73h.01Z"/>
      <path class="cls-1" d="M36.56,70.41c.21.71.52,1.24.89,1.56l-1.14-3.39c.03.12.04.3.06.5.05.5.11.94.19,1.32h0Z"/>
      <path class="cls-1" d="M36.37,69.09c0,.17.02.35.03.55.04.28.09.53.16.77-.08-.38-.14-.82-.19-1.32Z"/>
      <path class="cls-1" d="M39.55,71.64c-.18-.12-.37-.23-.57-.33-.47.58-.88.85-1.23.88.11.07.23.11.35.14.16-.03.32-.02.47.02.36-.06.7-.29.98-.71h0Z"/>
      <path class="cls-1" d="M40.88,73.34c.03.14.04.28.04.44,2.07-1.9,1.6-3.85,2.31-6.34-1.53.26-2.45,4.09-2.35,5.9Z"/>
      <path class="cls-1" d="M40.92,73.78c0-.15-.01-.3-.04-.44,0,.16.02.31.04.44Z"/>
      <path class="cls-1" d="M22.82,74.29c-.22.16-.52.21-.92.06-.24.73-1.05,1.92-1.44,2.88-1.01,2.58.25,4.25-4.32,2.88-.02.06-.97.61-.56,1.11,1.6,1.93,3.39-.24,5.23-.21,2.72.05.49,1.12,2.24,1.98.01-.57-.01-1.15.01-1.73h.56c.11.07,1.02,2.09,1.16,2.3.6.91,1.15,1.52,1.73,2.3.37-.71.58-2.13.57-2.88,0-.19.04-.42,0-.58l-.57-.58c-1.08-1.16-2.01-2.42-2.88-3.75-.2-.64,1.41-.14,1.73.29-.42-.65-.82-2.08-1.16-2.88-.19-.08-.62-.98-1.38-1.21h0Z"/>
      <path class="cls-1" d="M62.08,48.22c.35-.28.79-.84,1.22-1.47.4-1.22.99-2.58,1.65-3,.01-.02.01-.05.01-.06-.16-.49-1.15-1.69-1.56-1.04-1-.58-1.33-.26-.57.58-1.52-.67-3.01.44-1.73,1.73-2.37.77-3.9,1.92-4.61,3.46,3.33-.94-.53,5.19-2.31,3.46-.32.42-.35.81,0,1.15.83-.93,1.75-.46,1.93.27.41-.26.88-.19,1.19.1.32-1.51,1.89-3.35,3.22-3.25.22-.4.63-.69,1.15-1.73.13-.25.27-.31.41-.19h0Z"/>
      <path class="cls-1" d="M56.19,56.48c.08-.18.16-.35.27-.52-.06.04-.11.09-.17.13l-.1.39h0Z"/>
      <path class="cls-1" d="M56.29,56.09c.06-.04.11-.09.17-.13.12-.2.26-.4.44-.6-.44.05-1.61.14-.99,2.28.02-.41.13-.79.28-1.16l.1-.39h0Z"/>
      <path class="cls-1" d="M57.3,53.4c-.31-.28-.78-.36-1.19-.1.12.47-.06,1.05-.78,1.46.4-.1,1.58-.58,1.97-.4-.08-.28-.07-.61,0-.96Z"/>
      <path class="cls-1" d="M57.42,54.64c-.02.1-.07.22-.16.37.08-.08.15-.16.24-.23-.03-.04-.05-.09-.08-.14h0Z"/>
      <path class="cls-1" d="M57.3,53.4c.52.48.57,1.53-.85,2.56-.1.17-.18.34-.26.52l-.28,1.16c1.16-2.19,3.29-5.03,4.61-7.49-1.33-.1-2.91,1.74-3.22,3.25h0Z"/>
      <path class="cls-1" d="M55.91,57.64l.28-1.16c-.15.37-.26.75-.28,1.16Z"/>
      <path class="cls-1" d="M56.45,55.96c1.42-1.04,1.37-2.09.85-2.56-.07.35-.08.67,0,.96.1.05.15.14.12.29.03.05.05.1.08.14-.09.07-.16.15-.24.23-.05.09-.12.2-.21.31-.01.02-.08.03-.16.04-.17.19-.31.39-.44.6h0Z"/>
      <path class="cls-1" d="M56.11,53.3c-.18-.74-1.1-1.2-1.93-.27.15.27,1.41.67,1.15,1.73.13-.78.43-1.24.78-1.46Z"/>
      <path class="cls-1" d="M56.49,48.42l.54,1.11c-1.48-.06-1.62,2.19-2.85,2.35,1.78,1.74,5.64-4.4,2.31-3.46Z"/>
      <path class="cls-1" d="M54.18,51.87c-1.14.16-1.16,1.07,0,1.15-.35-.34-.32-.73,0-1.15Z"/>
      <path class="cls-1" d="M56.11,53.3c-.35.22-.65.67-.78,1.46.72-.4.9-.99.78-1.46Z"/>
      <path class="cls-1" d="M57.64,78.39c-.01-.09-.49-.62-.58-1.15-.16-1.02-.2-3.58-.57-4.03-.28-.33-.46.81-1.16-1.15-.32-.91-.5-1.92-.58-2.88-1.25-.29-1.11.32-1.72,1.15,1.62.4,1.71,4.36,0,4.61,0,.09.52,1.64.57,1.73.97,1.55,1.26.4,2.3,1.44l-1.72,3.75,1.79-3.07c.18-1.7,1.02-1.29,1.67.19-.02-.19.01-.39,0-.57h0Z"/>
      <path class="cls-1" d="M55.97,78.77l-1.79,3.07c1.5-.92,1.19-3.55,3.46-2.88-.65-1.48-1.49-1.89-1.67-.19Z"/>
      <path class="cls-1" d="M53.03,74.93c1.71-.25,1.62-4.21,0-4.61-.01,1.31-.06,3.26,0,4.61Z"/>
      <path class="cls-1" d="M76.66,86.46c.2-.46.42-.87.65-1.23-.27.31-.49.72-.65,1.23Z"/>
      <path class="cls-1" d="M79.97,84.28c.23-.45.81-.84,1.59-1.19-2.28-1.11-3.15-.87-2.61.72.36-.06.71.08,1.02.46Z"/>
      <path class="cls-1" d="M79.97,84.28c-.31-.38-.66-.52-1.02-.46.07.2.15.42.26.67-.48-.03-.91.05-1.27.24.84-.1.11,1.21.74,1.16.67-.05-.22-1.39.85-1.16l.02,2.3c.69,0,.85-.74,1.14-1.15-.79-.6-.95-1.13-.72-1.6h0Z"/>
      <path class="cls-1" d="M77.31,85.23c-.23.36-.45.77-.65,1.23.76-.38,1.09-.83,1.15-1.65-.18.11-.35.25-.5.42Z"/>
      <path class="cls-1" d="M82.99,82.72c-1.09-1.36-5.94-2.26-5.55.01.1.53.94.96.96,1.3.18-.12.36-.19.55-.22-.54-1.59.33-1.84,2.61-.72-.78.35-1.37.74-1.59,1.19.28.34.52.85.72,1.6.12-.16-.03-.77.29-1.18.09-.12,2.27-.83,2.01-1.98h0Z"/>
      <path class="cls-1" d="M78.12,84.25c-.54.18-1.72.59-1.46,2.21.16-.51.38-.92.65-1.23.26-.4.53-.73.81-.98h0Z"/>
      <path class="cls-1" d="M78.95,83.81c-.18.03-.37.1-.55.22,0,.04,0,.07-.02.11,0,.03-.12.06-.26.11-.28.24-.55.57-.81.98.15-.17.32-.31.5-.42,0-.03.01-.04.01-.07.05-.01.08,0,.12,0,.36-.19.79-.27,1.28-.24-.12-.24-.2-.46-.27-.66h0Z"/>
      <path class="cls-1" d="M80.69,85.88c-.19-.75-.44-1.27-.72-1.6-.23.47-.07,1,.72,1.6Z"/>
      <path class="cls-1" d="M46.64,104.01c-.17.41-.31.83-.45,1.25.29-.31.63-.51,1.02-.64-.22-.11-.42-.3-.57-.62h0Z"/>
      <path class="cls-1" d="M44.95,110.11c0-2.33.41-3.96,1.24-4.84.14-.42.28-.85.45-1.25.15.31.35.5.57.62.37-.13.76-.2,1.21-.18l1.15-.71c-2.93.75-1.02-.18-2.43-.76-.87-.37-1.82-.44-2.76-.39-.63,1.47,1.13,1.05,1.11,1.39-.19,2.96-1.42,3.17-.65,6.73-.02-.23.02-.43.1-.61h.01Z"/>
      <path class="cls-1" d="M44.96,111.24c-.05-.19-.09-.35-.12-.52.01.16.04.33.12.52Z"/>
      <path class="cls-1" d="M47.21,104.63c-.38.13-.73.33-1.02.64-.48,1.45-.82,2.97-1.04,4.52.53-.65,1.55-.94,1.56-1.2.02-.49-.98-2.15-.6-2.54.16-.16,3.1-.7,3.46-2.31-.66.68-1.64,1.25-2.36.88h0Z"/>
      <path class="cls-1" d="M47.21,104.63c.72.37,1.7-.2,2.36-.88l-1.15.71c-.45-.03-.85.05-1.21.18Z"/>
      <path class="cls-1" d="M44.95,110.11c.05-.11.12-.22.2-.32.22-1.55.56-3.07,1.04-4.52-.83.88-1.24,2.51-1.24,4.84Z"/>
      <path class="cls-1" d="M22.64,68.79c.3.18.97,2.96.67,4.56.91.04,1.71,1.02.9,2.16.83.36,2.47.18,3.45,1.15.27-.37-.76-3.28-1.09-3.68-.71-.88-2.26-.01-2.89-.4-.94-.58,1.07-4.71-1.5-4.52-.38.03-.65.8-.86,1.11.37-.48.77-.71,1.32-.38h0Z"/>
      <path class="cls-1" d="M23.31,73.34c-.08.43-.24.77-.49.95.77.23,1.19,1.13,1.39,1.21.81-1.15.01-2.12-.9-2.16Z"/>
      <path class="cls-1" d="M21.9,74.35c.31-.75.88-1.04,1.41-1.01.3-1.6-.36-4.37-.67-4.56-.55-.33-.95-.1-1.31.38,2.69-.12,1.13,3.46.57,5.19Z"/>
      <path class="cls-1" d="M27.09,83c.01.75-.2,2.18-.58,2.88,1.56.14,1.75-.82.58-2.88Z"/>
      <path class="cls-1" d="M30.54,86.75l-.57-.29.58,1.73c.11-.13-.07-1.02-.01-1.44h0Z"/>
      <path class="cls-1" d="M30.55,88.19l-.58-1.73c-.12.63-.35,1.14-.57,1.72.36-.02,1.09.07,1.15,0h0Z"/>
      <path class="cls-1" d="M29.39,89.34c1.15.93,2.09-.16,1.16-1.15-.27.19-.53,1.05-1.16,1.15Z"/>
      <path class="cls-1" d="M73.45,79.89c.02.11.03.22.02.33.39-.17.95-.07,1.46.47l.05-1.1c-.56.29-1.09.36-1.53.29h0Z"/>
      <path class="cls-1" d="M72.58,78.34c.13-.18.33-.36.62-.52h-1.15c.2.18.37.35.53.52Z"/>
      <path class="cls-1" d="M72.77,81.42c.17.04.32.18.43.43-.13-.23-.19-.44-.22-.64-.06.07-.14.14-.21.21h0Z"/>
      <path class="cls-1" d="M72.77,81.42c-.32.32-.74.65-1.3,1.01.39-.08,1.24-.41,1.73-.58-.12-.26-.26-.39-.43-.43Z"/>
      <path class="cls-1" d="M73.83,82.68h0c-.25-.15-.46-.41-.63-.84-.11.1-.49,2.4-.57,2.88.3-.99.7-1.67,1.2-2.04Z"/>
      <path class="cls-1" d="M74.98,79.59l-.05,1.1c4.21-2.3.98-2.47-1.91-1.83.25.35.4.69.43,1.02.44.07.97,0,1.53-.29h0Z"/>
      <path class="cls-1" d="M72.58,78.34c.08.09.16.17.23.26l.39-.78c-.29.16-.49.34-.62.52Z"/>
      <path class="cls-1" d="M72.77,81.42c.07-.07.15-.14.21-.21-.07-.48.14-.84.49-.99.01-.11,0-.22-.02-.33-.89-.14-1.37-.88-.87-1.55-.16-.17-.33-.34-.53-.52.37,1.91.53,2.75-.58,4.61.54-.75.97-1.08,1.3-1.01h0Z"/>
      <path class="cls-1" d="M71.47,82.42c.56-.35.98-.68,1.3-1.01-.33-.07-.76.26-1.3,1.01Z"/>
      <path class="cls-1" d="M72.58,78.34c-.5.68-.02,1.41.87,1.55-.03-.33-.18-.67-.43-1.02-.14.03-.27.06-.4.09l.19-.37c-.07-.08-.15-.17-.23-.26Z"/>
      <path class="cls-1" d="M73.83,82.67h0c.47-.35,1.03-.44,1.67-.25-.45-.44-1.76-1.04-2.3-.57.43.17.63.45.62.83h.01Z"/>
      <path class="cls-1" d="M73.47,80.22c-.05.33-.2.65-.49.99.03.2.09.41.22.64.1-.03,1-.75,1.73-1.15-.51-.54-1.07-.64-1.46-.47h0Z"/>
      <path class="cls-1" d="M73.83,82.67c0-.38-.19-.66-.63-.83.17.43.38.69.63.83Z"/>
      <path class="cls-1" d="M72.98,81.21c.29-.33.44-.66.49-.99-.35.15-.56.5-.49.99Z"/>
      <path class="cls-1" d="M73.83,82.68s0,0-.01,0c-.01.5-.4,1.18-1.2,2.04l2.88-2.31c-.67.35-1.23.5-1.67.26h0Z"/>
      <path class="cls-1" d="M72.62,84.73c.8-.87,1.19-1.54,1.2-2.04-.49.38-.89,1.06-1.2,2.04Z"/>
      <path class="cls-1" d="M73.83,82.68c.44.25,1,.09,1.67-.25-.64-.19-1.2-.1-1.67.25Z"/>
      <path class="cls-1" d="M53.95,79.41c-.15-.61-.35-1.12-.64-1.52l.29-1.23-1.15,2.31c.78-.13,1.23.07,1.5.44Z"/>
      <path class="cls-1" d="M52.45,78.96c.14.43,1.45,2.88,1.73,2.88.01-.95-.07-1.76-.23-2.44-.27-.37-.72-.57-1.5-.44h0Z"/>
      <path class="cls-1" d="M53.6,76.66l-.29,1.23c.29.4.5.91.64,1.52.4.56.35,1.53.23,2.44l1.72-3.75c-1.04-1.04-1.33.11-2.3-1.44h0Z"/>
      <path class="cls-1" d="M53.95,79.41c.16.69.24,1.49.23,2.44.12-.91.17-1.88-.23-2.44Z"/>
      <path class="cls-1" d="M63.47,103.05c-.05-.1-.07-.25-.07-.45-.21.02-.78.52-1.03.28.37.98-.09,1.52-1.27,1.45l1.15,2.88c-.25-1.78-.14-3.32,1.22-4.16h0Z"/>
      <path class="cls-1" d="M64.55,102.6c-.05-.02-1.09,0-1.15,0,0,.21.02.36.07.45.3-.18.65-.35,1.08-.45Z"/>
      <path class="cls-1" d="M62.36,102.88c-.05-.06-.1-.14-.11-.28-.37.57-.78,1.15-1.15,1.73,1.18.07,1.64-.47,1.26-1.45Z"/>
      <path class="cls-1" d="M63.47,103.05c-1.36.83-1.47,2.37-1.22,4.16.85-1.49,1.21-3.24,2.31-4.61-.58.59-.94.74-1.09.45Z"/>
      <path class="cls-1" d="M64.55,102.6c-.43.11-.78.27-1.08.45.14.29.5.14,1.08-.45Z"/>
      <path class="cls-1" d="M24.01,83.76c-.29-.36-.43-.7-.51-.99-.11.08-.27.16-.45.23-.01.69.13,1.68.58,2.31l1.15-1.15v-.57c-.39.16-.7.27-.77.19h0Z"/>
      <path class="cls-1" d="M23.67,82.56c.28-1.25-.43-.81-.17.21.09-.06.15-.13.17-.21Z"/>
      <path class="cls-1" d="M23.06,81.27c-.02.57,0,1.15-.01,1.73.19-.07.34-.14.45-.23-.26-1.02.45-1.45.17-.21-.02.08-.08.15-.17.21.08.29.22.63.51.99.07.09.39-.02.78-.19-.15-.21-1.06-2.23-1.17-2.3h-.56Z"/>
      <path class="cls-1" d="M11.53,69.74c.55-.05,1.27.11,1.72,0-.88-.57-1.45-.57-1.72,0Z"/>
      <path class="cls-1" d="M11.53,69.74c.27-.57.84-.57,1.72,0l-1.44-2.89c-.49.02-.8,2.4-.29,2.89h.01Z"/>
      <path class="cls-1" d="M59.37,77.24c-.34-.53-.57-.54-.58-.58l-1.73.58c.7-.15,1.07-.06,1.11.19.36-.13.75.15.62.96.07-.24.13-.4.21-.5-.04-.17.06-.38.37-.65h0Z"/>
      <path class="cls-1" d="M59,77.88c-.08.1-.14.26-.21.5.35.06.78-.04,1.15,0-.54-.11-.89-.26-.94-.5Z"/>
      <path class="cls-1" d="M59,77.88c.22-.32.49-.05.94.5-.21-.23-.36-.81-.57-1.15-.31.27-.41.48-.37.65Z"/>
      <path class="cls-1" d="M59,77.88c.05.24.4.39.94.5-.45-.55-.72-.82-.94-.5Z"/>
      <path class="cls-1" d="M58.17,77.43c-.05-.26-.41-.34-1.11-.19.09.53.57,1.06.58,1.15.02-.54.27-.86.53-.96h0Z"/>
      <path class="cls-1" d="M58.17,77.43c.04.21-.13.54-.53.96.64-.67.93-.04,1.15,0,.13-.8-.26-1.09-.62-.96h0Z"/>
      <path class="cls-1" d="M57.64,78.39c.4-.42.57-.75.53-.96-.26.1-.51.42-.53.96Z"/>
      <path class="cls-1" d="M46.11,85.88l.58,1.15c.17-1.31-.03-1.69-.58-1.15Z"/>
      <path class="cls-1" d="M111.82,107.21v-.57c-.39.48-.79.49-1.15,0-.15.17-.35.32-.58.43.63-.07,1.24-.04,1.73.14Z"/>
      <path class="cls-1" d="M107.78,107.78c.27-.16.59-.3.94-.42-.35,0-.68-.04-.94-.16.51.16.5.36,0,.58Z"/>
      <path class="cls-1" d="M108.72,107.37c.43-.15.9-.25,1.37-.3.23-.11.43-.26.58-.43-.91.14-2.2.56-2.89.57.26.11.59.16.94.16Z"/>
      <path class="cls-1" d="M110.09,107.06c-.4.2-.91.3-1.37.3-.35.12-.67.26-.94.42,1.3-.24,2.84-.32,4.04-.58-.48-.18-1.1-.21-1.73-.14Z"/>
      <path class="cls-1" d="M108.72,107.37c.46,0,.97-.1,1.37-.3-.47.05-.94.16-1.37.3Z"/>
      <path class="cls-1" d="M111.82,106.63c-.35.07-.79-.05-1.15,0,.36.49.76.48,1.15,0Z"/>
      <path class="cls-1" d="M107.78,107.21v.58c.5-.22.51-.41,0-.58Z"/>
      <path class="cls-1" d="M102.94,124.2c-.04.09-.14.18-.34.29.23-.1.35-.2.34-.29Z"/>
      <path class="cls-1" d="M102.94,124.2c0-.1-.11-.19-.34-.28.02.19-.04.39,0,.58.2-.11.3-.21.34-.29h0Z"/>
      <path class="cls-1" d="M102.6,123.92c.3.06.4.16.34.28.01.1-.11.2-.34.29,1.63.23,1.63-.81,0-.58h0Z"/>
      <path class="cls-1" d="M102.94,124.2c.06-.12-.04-.22-.34-.28.23.09.34.19.34.28Z"/>
      <path class="cls-1" d="M23.63,85.3c.72,1.01,1.12-.28,1.15-1.15-.22.83-.6,1.22-1.15,1.15Z"/>
      <path class="cls-1" d="M24.78,84.15l-1.15,1.15c.55.07.93-.32,1.15-1.15Z"/>
      <path class="cls-1" d="M15.56,58.79c.07,0,.13.71.57.58l.58-1.73c-.29.62-.67,1-1.15,1.15Z"/>
      <path class="cls-1" d="M15.56,58.79c.48-.15.86-.54,1.15-1.15-.37.34-.98.5-1.15,1.15Z"/>
      <path class="cls-1" d="M103.57,127.2l-.4-.39c.04.14.24.27.4.39Z"/>
      <path class="cls-1" d="M103.57,127.2l.18.18c-.02-.05-.09-.12-.18-.18Z"/>
      <path class="cls-1" d="M43.23,102.02l-.58.57c.22-.17.43-.33.58-.57Z"/>
      <path class="cls-1" d="M63.4,102.02l.57-.29c0-.35-.37-.23-.57-.29.37.17.36.36,0,.58h0Z"/>
      <path class="cls-1" d="M63.4,101.44v.58c.36-.21.37-.41,0-.58Z"/>
      <path class="cls-1" d="M38.9,99.14v.58c.38-.19.38-.38,0-.58Z"/>
      <path class="cls-1" d="M70.31,52.45c-2.59,3.44-.46-.06-4.03.58-2.73,2.05-2.4.51-4.03,4.61-.34.86-.95,2.61-1.15,3.46-.41,1.72.05,2.94,0,3.46,1.54-6.04,7.21,1.52,4.03,4.03.94,1.16,2.07,2.2,2.88,3.46.51.78,1.87,3.19,1.73,4.03.16-.5.36-.5.58,0,1.2-1.41,1.36.09,1.72,1.15.05.01.07.03.1.04.23-.94.68-.72,1.06.54-.23-1.22.05-2.65.82-4.28-.39-2.47-.09-4.7.91-6.68-1.84,1.02-.12,2.6-2.89,2.31-.76-.08-.68.1-1.15-.58-.07-.11.05-.38,0-.58l-1.14.29c.27-.49.77-.61,1.14-.87.45-.32.77-.38,1.15-.57l.31-.31c.09-.11.18-.22.27-.27.15-.07.41.07.58,0,.25-.58.76-.9.57-1.69-.02,0-.04-.02-.06-.03-.3,0-2.3,1.37-2.85,1.5-.85.19-1.06-.35-1.12-.35.01,2.25-3.1,2.13-3.45-.4-.12-.88,3.14-6.89,4.6-6.52-.02-.46,0-.92,0-1.38-.31-1.75-1.62-2.9-.58-4.96h0ZM69.45,56.48v-.58c.38.19.38.39,0,.58Z"/>
      <path class="cls-1" d="M73.72,64.56s.03.03.06.03c-.01-.01-.01-.02-.01-.04-.01,0-.04,0-.05,0h0Z"/>
      <path class="cls-1" d="M74.02,73.54c-.77,1.63-1.04,3.06-.82,4.28,3.3-3.66,1.49-6.64,1.73-10.95-1,1.98-1.3,4.21-.91,6.68Z"/>
      <path class="cls-1" d="M66.3,65.31c.35,2.53,3.46,2.65,3.44.4-1.13.08-2.56,1.15-2.31-.29.35-2.04,2.71-3.99,3.46-6.62-1.46-.37-4.71,5.64-4.59,6.52h0Z"/>
      <path class="cls-1" d="M70.95,58.2c.01-.28-.01-.54-.06-.79.01.46-.01.92,0,1.38.02-.11.03-.21.04-.32,0-.08.01-.17.02-.28h0Z"/>
      <path class="cls-1" d="M72.05,77.24c.05.16-.04.38,0,.58.02-.21.06-.39.09-.54-.03-.01-.05-.03-.09-.04Z"/>
      <path class="cls-1" d="M61.1,64.55c3.33-3.39,3.74,1.45,4.03,4.03,3.18-2.51-2.49-10.07-4.03-4.03Z"/>
      <path class="cls-1" d="M69.74,76.08h.58c-.22-.5-.41-.5-.58,0Z"/>
      <path class="cls-1" d="M72.14,77.27c.4.14.37.32-.09.54h1.15c-.38-1.26-.82-1.48-1.06-.54Z"/>
      <path class="cls-1" d="M72.14,77.27c-.03.15-.07.33-.09.54.46-.22.49-.4.09-.54Z"/>
      <path class="cls-1" d="M81.12,76.68c1.62.56,2.44,1.33,2.45,2.29l.82-.99c4.83,1.54.21-3.86-1.23-5.34-.48-1.03-.11-1.45.99-1.74-.06-.11-.61-.21-.84-.64-.64-1.2.21-2.4-2.04-2.82.1,1.51.39,2.17-1.16,2.59l1.15.29c.48,1.45-1.31,1.34-1.64,1.84-.16.25.5.99-.66,2.76.92-.05,1.64.53,2.16,1.75h0Z"/>
      <path class="cls-1" d="M83.16,72.64c1.44,1.48,6.06,6.88,1.23,5.34l-.82.99c3.6.91,5.1.45,3.32-3.6-.65-1.47-2.15-2.28-2.71-3.19-.21-.35.08-1.09-.03-1.28-1.1.29-1.47.72-.99,1.74Z"/>
      <path class="cls-1" d="M83.57,78.96c-.01-.96-.83-1.72-2.45-2.29-.52-1.21-1.24-1.8-2.16-1.75.68,2.74,2.16,3.42,4.61,4.03Z"/>
      <path class="cls-1" d="M79.48,66.14c.28-1.12.58-2.21.87-3.26-.45.53-1.19.81-1.39,1.11l.64.33c-.05.61-.08,1.22-.13,1.83h.01Z"/>
      <path class="cls-1" d="M83.16,68.27c-.04-.06-.07-.12-.1-.17.03.06.06.11.1.17Z"/>
      <path class="cls-1" d="M83.87,70.02c-.21-.67-.43-1.23-.69-1.7.23.45.46,1.01.69,1.7Z"/>
      <path class="cls-1" d="M79.06,73.02c.3-2.9,1.29-6.05,2.55-6.15-.56-.22-1.25-.32-2.16-.3-.15,2.15-.28,4.3-.39,6.45Z"/>
      <path class="cls-1" d="M79.36,66.57s.06,0,.09,0c.01-.15.02-.29.03-.43-.04.14-.08.28-.12.43h0Z"/>
      <path class="cls-1" d="M79.45,66.57s-.06,0-.09,0c.04-.15.08-.29.12-.43.04-.61.08-1.22.13-1.83l-.64-.33c-.45.66-1.04,5.3-1,6.18.01.25.86,4.22,1,4.77-.01-.6.02-1.25.1-1.91.1-2.15.23-4.3.38-6.45h0Z"/>
      <path class="cls-1" d="M80.36,62.87c-.3,1.06-.6,2.14-.88,3.26-.01.14-.02.29-.03.43.92-.02,1.6.08,2.16.3.45-.04.94.32,1.45,1.23.03.06.06.11.1.17.01.01.01.03.02.04.25.47.47,1.03.69,1.7.1.27.19.56.28.88.7-2.1-1.93-4.37-2.31-6.34l-1.72,1.72c-.54-1.53,1.04-2.71,1.13-3.73.04-.42-.57-.8-.56-.87.09.52-.08.9-.33,1.2h0Z"/>
      <path class="cls-1" d="M79.62,72.17c.33-.5,2.12-.39,1.65-1.84l-1.16-.29c1.55-.42,1.26-1.08,1.17-2.59,2.24.42,1.39,1.62,2.04,2.82.22.43.77.53.83.64-.09-.31-.18-.6-.28-.88-.23-.69-.46-1.25-.69-1.7-.01-.01-.01-.03-.02-.05-.04-.06-.07-.11-.1-.17-.36-.58-.82-.98-1.45-1.23-1.26.1-2.24,3.25-2.55,6.15-.03.64-.07,1.27-.1,1.91,1.16-1.78.5-2.51.66-2.76h0Z"/>
      <path class="cls-1" d="M78.97,74.93c.02-.64.06-1.27.09-1.91-.07.66-.1,1.31-.09,1.91Z"/>
      <path class="cls-1" d="M83.18,68.32s-.02-.03-.02-.04c0,.01.01.03.02.04Z"/>
      <path class="cls-1" d="M81.61,66.87c.63.25,1.09.65,1.45,1.23-.51-.91-1-1.27-1.45-1.23Z"/>
      <path class="cls-1" d="M84.15,70.89c-.09-.31-.18-.6-.28-.88.1.28.19.56.28.88Z"/>
      <path class="cls-1" d="M71.1,52.01l-.08-.14c-.04.08-.1.15-.18.22-.06.01-.11.02-.17.04.12.3.21,1.4.26,2.64.04-.92.09-1.84.18-2.75h-.01Z"/>
      <path class="cls-1" d="M71.02,51.87l.08.14c-.08.92-.13,1.84-.17,2.76.05,1.25.06,2.62.02,3.43,0,.09-.01.18-.02.28-.01.13-.02.24-.04.32.94-3.27.09-5.88,2.89-8.64-.93.74-3.23.51-3.46.57.54.24.9.76.7,1.15h0Z"/>
      <path class="cls-1" d="M70.31,52.45c-1.04,2.07.28,3.21.58,4.96,0-.88,0-1.76.04-2.64-.05-1.24-.14-2.34-.26-2.64-1.57.34-2.82.61-4.39.9,3.56-.64,1.43,2.87,4.03-.58h0Z"/>
      <path class="cls-1" d="M70.89,58.79c.02-.08.03-.19.04-.32-.01.1-.02.21-.04.32Z"/>
      <path class="cls-1" d="M70.89,57.41c.05.25.07.51.06.79.04-.81.03-2.19-.02-3.43-.04.88-.04,1.76-.04,2.64Z"/>
      <path class="cls-1" d="M69.47,51.76c-.51-.03-1.03-1.24-1.45-1.04-.13.06-.83,1.62-1.74,2.3.57-.67,3.72-1.22,4.33-.98.02,0,.04.04.06.08.06-.01.11-.02.17-.04.08-.06.14-.14.18-.22l-.7-1.15c-.11.03-.41,1.07-.85,1.04h0Z"/>
      <path class="cls-1" d="M70.32,50.72l.7,1.15c.2-.39-.16-.91-.7-1.15Z"/>
      <path class="cls-1" d="M70.61,52.05c-.61-.24-3.76.31-4.33.98,1.57-.29,2.82-.56,4.39-.9-.02-.04-.04-.07-.06-.08Z"/>
      <path class="cls-1" d="M78.96,62.83c.46-.8.97-2.34,1.31-2.74-.51-.36-1.16,1.36-1.31,2.74Z"/>
      <path class="cls-1" d="M80.27,60.08c.22-.25.38-.06.42,1.01.01-.26,1.04-1.41.57-2.31l-1.14.59c-.54-.75,1.94-3.98-.58-3.46-.13,2.4-.61,4.46-.58,6.92.14-1.38.8-3.1,1.31-2.74h0Z"/>
      <path class="cls-1" d="M71.18,65.36c-.48.16-.96.28-1.44.35l1.03-.08c.13-.09.27-.18.41-.27h0Z"/>
      <path class="cls-1" d="M73.16,64.43c.14-.04.27-.08.4-.11-.01-.04-.02-.07-.03-.11-.12.08-.24.14-.37.22h0Z"/>
      <path class="cls-1" d="M73.89,65.59c.35-.28.7-.44,1.04-.46-.23-.11-.38-.22-.48-.33-.09.2-.27.46-.56.78h0Z"/>
      <path class="cls-1" d="M73.16,64.43c.13-.07.25-.14.37-.22.01.04.02.08.03.11.34-.08.62-.09.79-.02.22-.56,1.44-.99,1.41-.9-.05.12-.69.71-1.27,1.03.05.09.04.22-.04.39.1.11.26.22.48.33.1-.59.76-1.51,1.15-2.02-1.77,0-4.51,1.61-6.34,2.6.49-.07.96-.19,1.44-.35.66-.4,1.38-.73,1.99-.93h-.01Z"/>
      <path class="cls-1" d="M74.49,64.42c.58-.31,1.22-.9,1.27-1.03.03-.09-1.19.34-1.41.9.06.03.11.07.14.12Z"/>
      <path class="cls-1" d="M73.89,65.59c.29-.33.48-.58.56-.78-.09-.1-.13-.2-.14-.3-.2.09-.39.13-.53.09.18.79-.33,1.11-.58,1.69.23-.29.46-.51.69-.7h0Z"/>
      <path class="cls-1" d="M70.86,66.06c.56-.13,2.56-1.49,2.86-1.5-.08-.04-.13-.12-.16-.24-.12.03-.26.07-.39.11-.66.4-1.32.71-1.99.93-.14.09-.28.18-.41.27l-1.03.08c.06,0,.28.54,1.13.35h-.01Z"/>
      <path class="cls-1" d="M74.45,64.8c.08-.17.09-.3.04-.39-.06.03-.12.06-.18.08.01.1.05.2.14.3Z"/>
      <path class="cls-1" d="M73.16,64.43c-.61.19-1.33.52-1.98.93.67-.22,1.33-.53,1.98-.93Z"/>
      <path class="cls-1" d="M74.31,64.5c.06-.03.12-.05.18-.08-.03-.05-.08-.1-.14-.12-.03.07-.04.14-.04.21Z"/>
      <path class="cls-1" d="M74.31,64.5c0-.07.01-.14.04-.21-.17-.07-.45-.06-.79.02.03.12.08.2.16.24.02,0,.05-.01.05,0,.01.01.01.03.01.04.14.04.33,0,.53-.09h0Z"/>
      <path class="cls-1" d="M73.2,66.28c.46-.21.95-.15,1.34-.52.1-.19.22-.39.39-.63-.34.01-.69.17-1.04.46-.19.21-.41.43-.69.7Z"/>
      <path class="cls-1" d="M74.93,65.13c-.17.24-.29.44-.39.63.15-.14.28-.33.39-.63Z"/>
      <path class="cls-1" d="M73.89,65.59c-.23.18-.46.4-.69.7.29-.26.5-.49.69-.7Z"/>
      <path class="cls-1" d="M80.32,60.84c-.1.47-.22.93-.37,1.39.22-.24.47-.45.75-.56-.5-.19-.5-.38,0-.58-.16-.07-.29-.15-.37-.26h-.01Z"/>
      <path class="cls-1" d="M79.38,63.06c.05-.08.09-.16.14-.23-.15.05-.34.05-.56,0,.24.03.36.12.42.24h0Z"/>
      <path class="cls-1" d="M80.69,61.67c.03-.18,0-.39,0-.58-.49.19-.49.38,0,.58Z"/>
      <path class="cls-1" d="M78.96,62.83c.01.39,0,.77,0,1.15.12-.29.26-.61.42-.92-.06-.11-.18-.2-.42-.24Z"/>
      <path class="cls-1" d="M80.36,62.87c.11-.4.22-.81.33-1.2-.27.11-.52.31-.74.56-.02.06-.03.12-.05.18-.07.23-.21.36-.39.42-.04.08-.09.15-.13.23.11.2,0,.49-.42.92.2-.3.94-.58,1.39-1.11h.01Z"/>
      <path class="cls-1" d="M80.69,61.67c-.11.39-.22.8-.33,1.2.25-.3.42-.68.33-1.2Z"/>
      <path class="cls-1" d="M79.38,63.06c-.16.3-.3.62-.42.92.41-.43.53-.72.42-.92Z"/>
      <path class="cls-1" d="M80.27,60.78s.04.04.05.06c.03-.09.05-.19.07-.28,0-.01-.13.21-.12.22Z"/>
      <path class="cls-1" d="M79.52,62.83c.13-.22.27-.42.43-.6.15-.47.26-.92.37-1.39-.02-.02-.04-.04-.05-.06-.01-.01.12-.24.12-.22-.02.1-.05.19-.07.28.09.11.22.19.37.26-.11-.59-.26-.9-.42-1.01-.34.4-.85,1.94-1.31,2.74.22.06.4.06.55,0h.01Z"/>
      <path class="cls-1" d="M80.28,60.08c.16.11.3.42.41,1.01-.04-1.08-.2-1.26-.41-1.01Z"/>
      <path class="cls-1" d="M79.9,62.41c.02-.06.03-.12.05-.18-.16.18-.3.38-.43.6.17-.06.31-.19.38-.42h0Z"/>
      <path class="cls-1" d="M84.73,85.3c-.07-.75.1-1.58,0-2.31-.38.69-.38,1.46,0,2.31Z"/>
      <path class="cls-1" d="M84.73,85.3c-.41-.86-.41-1.63,0-2.31-1.46.61-.07,1.91,0,2.31Z"/>
      <path class="cls-1" d="M84.73,85.3c-.38-.85-.38-1.62,0-2.31-.41.68-.41,1.45,0,2.31Z"/>
      <path class="cls-1" d="M53.03,118.16c-.38.06-.7.99-.58,1.42.26.98,1.6.33,1.65.39.55.72.89,4.51,2.38,5.1-.15-1.5-1.53-6.54-2.3-7.49.22,2.21-.67.49-1.15.58h0Z"/>
      <path class="cls-1" d="M60.36,107.37l-.42.42c.11.63.69.63,1.73,0-1,.53-1.39.34-1.31-.42Z"/>
      <path class="cls-1" d="M59.94,107.78c-.67,1.48-1.77,2.63.29,2.89.25,0,1.08-2.27,1.44-2.89-1.04.63-1.62.63-1.72,0h-.01Z"/>
      <path class="cls-1" d="M60.52,106.63c.24.18.23.37,0,.57l-.16.16c-.08.76.31.95,1.31.42-.18-.22-.29-.41-.34-.55-.25-.24-.56-.39-.81-.6h0Z"/>
      <path class="cls-1" d="M61.33,107.23c.05.14.16.33.34.55-.06-.25-.2-.41-.34-.55Z"/>
      <path class="cls-1" d="M60.52,106.63v.57c.23-.2.24-.4,0-.57Z"/>
      <path class="cls-1" d="M54.18,117.58c-.87-1.07-1.35-.78-1.15.58.21-.38.59-.57,1.15-.58Z"/>
      <path class="cls-1" d="M54.18,117.58c-.56.01-.94.2-1.15.58.48-.08,1.37,1.63,1.15-.58Z"/>
      <path class="cls-1" d="M111.82,106.63c.5.16.49.36,0,.58,1.61-.9,3.89-1.51,5.76-1.73.37-.55.76-1.12,1.16-1.73-1.58,1.37-3.26,1.77-5.19,2.31-.24.64-1.15.9-1.73.58h0Z"/>
      <path class="cls-1" d="M117.58,105.48c-1.87.22-4.15.82-5.76,1.73,1.62-.35,4.38-.98,5.76-1.73Z"/>
      <path class="cls-1" d="M113.55,106.06c-.59.16-1.27.48-1.73.58.58.33,1.49.07,1.73-.58Z"/>
      <path class="cls-1" d="M118.74,103.75c-.4.61-.79,1.18-1.16,1.73,1.83-.99,1.1-1.62,1.16-1.73Z"/>
      <path class="cls-1" d="M111.82,106.63v.57c.49-.22.5-.41,0-.57Z"/>
      <path class="cls-1" d="M105.47,131.42l-2.3,1.73c1.39.21,2.45-.27,2.3-1.73Z"/>
      <path class="cls-1" d="M115.71,104.23c-.18-.15-.34-.38-.5-.69-.06.3-.17.6-.31.9.28-.08.54-.15.81-.21h0Z"/>
      <path class="cls-1" d="M119.89,100.87l-.28-.13c.09.05.18.1.28.13Z"/>
      <path class="cls-1" d="M118.58,102.78c-.32.43-.66.81-1,1.11.4-.05.78-.1,1.15-.14-.22-.26-.24-.61-.15-.97Z"/>
      <path class="cls-1" d="M119.89,100.87c-.16-.17-.31-.24-.46-.25.06.04.12.08.18.12l.28.13Z"/>
      <path class="cls-1" d="M119.38,100.63c-.97.07-1.78,3-2.1,3.12-1.13.41-1.17-2.13-2.58-1.72.55.23.65.84.51,1.52.15.31.32.53.5.69.64-.15,1.28-.27,1.87-.35.34-.3.67-.68,1-1.11.18-.73.82-1.54,1.31-1.91-.1-.03-.2-.08-.28-.13l-.23-.11h0Z"/>
      <path class="cls-1" d="M119.61,100.74c-.06-.04-.12-.07-.18-.12-.02,0-.03,0-.05,0l.23.11Z"/>
      <path class="cls-1" d="M113.55,102.59v3.46l.36-1.3c.34-.12.67-.22,1-.32.13-.3.24-.6.3-.9-.19-.38-.36-.87-.51-1.52.11,1.53.05,1.19-1.15.57h0Z"/>
      <path class="cls-1" d="M114.7,102.02c.15.65.32,1.15.51,1.52.14-.68.04-1.3-.51-1.52Z"/>
      <path class="cls-1" d="M118.74,103.75c.25-.52,1.39-1.82,1.28-2.58l-.13-.3c-.39.62-.84,1.3-1.31,1.91-.09.37-.07.71.16.97h0Z"/>
      <path class="cls-1" d="M119.89,100.87l.13.3c-.01-.11-.05-.22-.13-.3Z"/>
      <path class="cls-1" d="M118.58,102.78c.47-.61.91-1.29,1.31-1.91-.49.37-1.13,1.18-1.31,1.91Z"/>
      <path class="cls-1" d="M113.55,106.06c1.93-.54,3.61-.94,5.18-2.31-.37.04-.75.08-1.15.14-.66.59-1.31.83-1.87.35-.27.06-.54.13-.81.21-.34.73-.85,1.39-1.36,1.61h.01Z"/>
      <path class="cls-1" d="M117.59,103.89c-.6.08-1.23.2-1.88.35.56.49,1.21.25,1.88-.35Z"/>
      <path class="cls-1" d="M114.9,104.44c-.32.1-.65.19-.99.32l-.36,1.3c.5-.22,1.02-.89,1.35-1.61Z"/>
      <path class="cls-1" d="M42.52,50.31c-.65.48-1.44.92-2.39,1.31l-.94,1.99c2.19-.76,2.59,2.18,1.73,3.46.59.18,1.21.45,1.84.77-1.36-1.86-1.32-5.92-.25-7.52h.01Z"/>
      <path class="cls-1" d="M45.53,46.11c-.11-.03-.47-.04-.57,0l-.58.57c-.05.16.04.38,0,.58v.57c-.1.37-.26.71-.48,1.05.97-.78,2.13-1.37,2.79-1.05-.38-.26-.57-.65-.58-1.15.59-1,.28-1.33-.58-.57h0Z"/>
      <path class="cls-1" d="M42.76,57.83c-.63-.33-1.25-.59-1.84-.77.4.71.58,1.5.59,2.31,1.59-1.17.98.4,1.16.53,1.09.8,1.23-.86,1.71-1.11-.68-.03-1.21-.4-1.62-.96h0Z"/>
      <path class="cls-1" d="M42.52,50.31s.02-.05.04-.07c.3-.42.79-.92,1.34-1.36.21-.33.38-.68.48-1.05-1.45,1.47-5.54,2-5.8,4.38-.1.88.57,1.2.61,1.39l.94-1.99c.95-.39,1.74-.83,2.39-1.31Z"/>
      <path class="cls-1" d="M43.9,48.89c-.33.51-.79.98-1.38,1.42-1.08,1.61-1.12,5.67.24,7.52.53.27,1.07.58,1.62.96-2.85-4.88-2.16-7.89,2.31-10.95-.66-.32-1.82.27-2.79,1.05h0Z"/>
      <path class="cls-1" d="M44.38,58.79c-.55-.37-1.09-.69-1.62-.96.41.56.95.93,1.62.96Z"/>
      <path class="cls-1" d="M42.55,50.25s-.02.05-.03.07c.59-.44,1.05-.91,1.38-1.42-.55.44-1.04.93-1.35,1.36Z"/>
      <path class="cls-1" d="M39.19,53.6c.53,2.22,1,2.13,1.73,3.46-.16-1.62-.49-2.51-1.73-3.46Z"/>
      <path class="cls-1" d="M39.19,53.6c1.25.28,1.8,2.21,1.73,3.46.85-1.27.46-4.22-1.73-3.46Z"/>
      <path class="cls-1" d="M39.19,53.6c1.25.95,1.57,1.83,1.73,3.46.07-1.25-.48-3.18-1.73-3.46Z"/>
      <path class="cls-1" d="M46.69,62.25c-1-.65-1.49-2.38-1.16-3.46-1.58,1.18-.58,3.46,1.16,3.46Z"/>
      <path class="cls-1" d="M45.53,58.79c.02,1.54.17,2.18,1.16,3.46.13-.7-.4-3.16-1.16-3.46Z"/>
      <path class="cls-1" d="M46.69,62.25c-.99-1.28-1.14-1.92-1.16-3.46-.33,1.08.16,2.81,1.16,3.46Z"/>
      <path class="cls-1" d="M67.24,72.1c-.53-.06-.93-.34-1.24-.73.32,2.23,1.1,5.41,3.17,5.29-.89-1.08-3.1-4.05-1.93-4.56h0Z"/>
      <path class="cls-1" d="M66,71.37c-.55-.71-.8-1.81-.87-2.78.09.78-.53,1.76-.4,2.5.44,2.47,2.48,4.78,2.71,7.29,1.6.28,1.34-.99,1.73-1.73-2.07.12-2.85-3.06-3.16-5.29h-.01Z"/>
      <path class="cls-1" d="M66,71.37c.31.39.71.67,1.24.73.18-.08.43-.1.77-.05-.81-1.26-1.93-2.3-2.88-3.46l.75,1.78c.03.29.07.63.12,1h0Z"/>
      <path class="cls-1" d="M65.88,70.37l-.75-1.78c.07.97.32,2.07.87,2.78-.05-.36-.09-.7-.12-1Z"/>
      <path class="cls-1" d="M68.49,74.66c.11.39.23.79.38,1.19.12-.1.42-.04.87.23-.38-.22-.87-.78-1.25-1.42Z"/>
      <path class="cls-1" d="M68.87,75.85c.09.27.18.54.29.81.1-.18.55-.38.58-.58-.45-.27-.75-.33-.88-.23h.01Z"/>
      <path class="cls-1" d="M68.49,74.66c.38.64.87,1.2,1.25,1.42.14-.85-1.22-3.26-1.73-4.03.06.84.23,1.71.48,2.61h0Z"/>
      <path class="cls-1" d="M68.87,75.85c-.15-.4-.27-.8-.38-1.19-.54-.9-.9-1.98-.48-2.61-.28.07-.54.08-.77.05-1.17.51,1.04,3.48,1.92,4.56-.34-.41-.42-.7-.29-.81Z"/>
      <path class="cls-1" d="M69.16,76.66c-.11-.27-.2-.54-.29-.81-.13.11-.05.39.29.81Z"/>
      <path class="cls-1" d="M68.49,74.66c-.25-.9-.42-1.78-.48-2.61-.42.63-.07,1.71.48,2.61Z"/>
      <path class="cls-1" d="M67.24,72.1c.23.03.49.01.77-.05-.34-.05-.59-.03-.77.05Z"/>
      <path class="cls-1" d="M59.45,73.84c.11-.62.26-1.22.49-1.8l-1.15.58c.36.22.57.68.66,1.22Z"/>
      <path class="cls-1" d="M59.26,75.85c-.11.32-.27.61-.47.8.2-.2.37-.32.5-.39,0-.14-.02-.28-.03-.41h0Z"/>
      <path class="cls-1" d="M59.26,75.85c.01.14.03.28.04.41.41-.21.47.17.07.97,1.44-.99.62-3.39.57-5.19-.23.57-.38,1.18-.49,1.8.11.65.04,1.4-.19,2.01Z"/>
      <path class="cls-1" d="M58.79,76.66s.24.04.58.58c-.05-.33-.06-.65-.07-.97-.14.07-.31.19-.51.39Z"/>
      <path class="cls-1" d="M59.3,76.27c.01.32.02.64.07.97.4-.8.34-1.17-.07-.97Z"/>
      <path class="cls-1" d="M59.45,73.84c-.09-.54-.3-1-.66-1.22-.07,1.38-.42,2.69,0,4.03.2-.19.36-.48.48-.81-.01-.69.06-1.36.18-2.01Z"/>
      <path class="cls-1" d="M59.26,75.85c.23-.61.3-1.36.19-2.01-.12.65-.2,1.31-.19,2.01Z"/>
      <path class="cls-1" d="M58.79,72.62c.21-.62.41-.96.62-1.03.01-.2.2-.44.53-.7,0-.18.02-.45.04-.74.07-2.07-.32-1.26-1.19,2.47Z"/>
      <path class="cls-1" d="M59.4,71.6c.18-.06.36.08.54.45-.01-.38.02-.77,0-1.15-.33.26-.52.5-.54.7Z"/>
      <path class="cls-1" d="M59.98,70.16c.09-1.07.24-2.61-.61-2.72.21,1.74-.49,3.54-.58,5.18.87-3.73,1.26-4.54,1.19-2.47h0Z"/>
      <path class="cls-1" d="M59.4,71.6c-.2.07-.41.4-.61,1.03l1.15-.58c-.39-.1-.55-.26-.54-.45Z"/>
      <path class="cls-1" d="M59.4,71.6c-.01.19.16.35.54.45-.18-.37-.36-.51-.54-.45Z"/>
      <path class="cls-1" d="M71.32,75.98s.03.03.05.04c-.02-.01-.04-.03-.05-.04Z"/>
      <path class="cls-1" d="M71.44,76.09c.25.26.43.7.61,1.15-.16-.55-.37-.93-.61-1.15Z"/>
      <path class="cls-1" d="M71.37,76.03s-.04-.03-.05-.04c-.29-.18-.62-.14-1,.1.95-.2,1.28.43,1.73,1.15-.18-.44-.36-.88-.61-1.15-.02-.02-.05-.04-.07-.06h0Z"/>
      <path class="cls-1" d="M70.32,76.08c.43-.3.75-.28,1-.1.01.01.03.03.05.04.03.02.05.04.07.06.24.22.45.59.61,1.15-.37-1.06-.53-2.56-1.73-1.15h0Z"/>
      <path class="cls-1" d="M71.37,76.03s.05.04.07.06c-.02-.02-.04-.04-.07-.06Z"/>
      <path class="cls-1" d="M71.32,75.99c-.25-.18-.57-.2-1,.1.38-.24.71-.27,1-.1Z"/>
      <path class="cls-1" d="M56.19,65.89l2.07-1.59c.02-1.84.58-2.71,1.68-2.63l-.58-1.73-1.15.58c.38,1.9-.59,3.9-2.02,5.37h0Z"/>
      <path class="cls-1" d="M58.21,60.52c-1.34,2.29-2.8,4.54-4.03,6.92l2.02-1.55c1.42-1.46,2.39-3.47,2.02-5.37h-.01Z"/>
      <path class="cls-1" d="M59.08,65.1c.92-1.01.24-2.31.86-3.43-1.09-.08-1.65.79-1.67,2.63l-2.07,1.59c-.62.63-1.31,1.17-2.02,1.55.89.77,4.59-1.98,4.9-2.34h0Z"/>
      <path class="cls-1" d="M56.19,65.89l-2.01,1.54c.71-.37,1.4-.92,2.01-1.54Z"/>
      <path class="cls-1" d="M61.08,56.05c-.08,1.17-.49,2.33-1.21,3.22.28.17.34.79.21,1.67.1,0,.23.04.44.16-.03-1.48.8-2.61,1.15-4.03-.35-.06-.55-.4-.59-1.01h0Z"/>
      <path class="cls-1" d="M59.87,59.27c.72-.89,1.13-2.05,1.21-3.22-.01-.21-.01-.44.01-.71-.94,1.76-1.88,3.48-2.88,5.19.83-1.09,1.37-1.43,1.66-1.25Z"/>
      <path class="cls-1" d="M61.67,57.06c.16-.64-.08-1.5.57-2.02l-1.14.29c.01.24,0,.47-.02.71.04.61.24.95.59,1.01h0Z"/>
      <path class="cls-1" d="M61.08,56.05c.02-.24.02-.48.02-.71-.03.27-.03.51-.02.71Z"/>
      <path class="cls-1" d="M60.08,60.94c-.04.23-.08.47-.14.73.11-.19.44-.35.58-.58-.22-.12-.35-.16-.44-.16h0Z"/>
      <path class="cls-1" d="M59.94,61.67c-.07-.5-.07-.74.14-.73.13-.88.07-1.5-.21-1.67-.43.54-.98.98-1.65,1.25l1.14-.58.58,1.73Z"/>
      <path class="cls-1" d="M59.87,59.27c-.29-.18-.83.16-1.66,1.25.68-.27,1.22-.71,1.66-1.25Z"/>
      <path class="cls-1" d="M59.94,61.67c.06-.26.11-.5.14-.73-.21,0-.21.24-.14.73Z"/>
      <path class="cls-1" d="M26.51,81.85l.58.58c-.08-.33-.17-.59-.58-.58Z"/>
      <path class="cls-1" d="M71.74,67.82c-.25.1-.57.01-.85-.39v.58c.5.19.5.38,0,.58h1.16c-.25-.24-.35-.49-.31-.77Z"/>
      <path class="cls-1" d="M72.86,66.52c-.08-.03-.16-.1-.24-.23l-.26.26c-.1.12-.2.25-.31.31.03.11.05.2.05.3.19-.21.44-.42.76-.64h0Z"/>
      <path class="cls-1" d="M72.86,66.52c.11-.08.21-.15.34-.23-.16.07-.42-.07-.57,0,.08.13.15.2.23.23h0Z"/>
      <path class="cls-1" d="M70.9,68.01c.04.19-.08.47,0,.58.49-.19.49-.39,0-.58Z"/>
      <path class="cls-1" d="M71.74,67.82c.03-.21.16-.43.36-.66,0-.09-.02-.19-.05-.3-.38.2-.7.26-1.16.58.28.4.6.49.85.39Z"/>
      <path class="cls-1" d="M72.86,66.52c-.33.22-.58.44-.76.64.02.33-.14.57-.36.66-.04.27.06.53.31.77.32-.79.81-1.52,1.15-2.31-.11.22-.22.29-.35.23h.01Z"/>
      <path class="cls-1" d="M73.2,66.28c-.12.08-.23.15-.34.23.12.06.23-.01.34-.23Z"/>
      <path class="cls-1" d="M72.1,67.16c-.2.23-.33.45-.36.66.22-.09.38-.33.36-.66Z"/>
      <path class="cls-1" d="M71.34,68.81l.41.21c-.05-.05-.07-.1-.06-.15-.11,0-.22,0-.35-.06Z"/>
      <path class="cls-1" d="M71.75,69.02l-.41-.2c-.15-.05-.31-.13-.45-.22.48.67.39.5,1.16.58-.15-.05-.24-.1-.3-.15Z"/>
      <path class="cls-1" d="M71.69,68.87c-.01.05.01.1.06.15l.3.15v-.58c-.06.2-.19.27-.36.28Z"/>
      <path class="cls-1" d="M72.05,69.17l-.3-.15c.06.05.15.1.3.15Z"/>
      <path class="cls-1" d="M71.69,68.87c.03-.09.13-.18.36-.28h-1.16l.45.22c.13.05.24.06.35.06Z"/>
      <path class="cls-1" d="M70.89,68.59c.15.09.3.17.45.22l-.45-.22Z"/>
      <path class="cls-1" d="M71.69,68.87c.17-.01.3-.08.36-.28-.23.1-.33.19-.36.28Z"/>
      <path class="cls-1" d="M70.65,67.8c-.11.22-.04.3.25.21-.15-.07-.22-.14-.25-.21Z"/>
      <path class="cls-1" d="M70.65,67.8c-.05-.11.02-.24.25-.37-.37.26-.88.38-1.15.87l1.15-.29c-.28.09-.36.01-.25-.21h0Z"/>
      <path class="cls-1" d="M70.65,67.8c.03.07.1.14.25.21v-.58c-.13.16-.2.27-.25.37h0Z"/>
      <path class="cls-1" d="M70.65,67.8c.05-.1.12-.21.24-.37-.22.13-.29.25-.24.37Z"/>
      <path class="cls-1" d="M72.36,66.55l.26-.26c-.09.05-.17.15-.26.26Z"/>
      <path class="cls-1" d="M72.36,66.55l-.31.31c.11-.06.21-.19.31-.31Z"/>
      <path class="cls-1" d="M69.45,55.91v.58c.38-.19.38-.39,0-.58Z"/>
      <path class="cls-1" d="M85.3,39.77c.62,2.48,1.12,5.02,1.73,7.49-.83-.49-1.47-1.23-2.3-1.73-1.48-1.22-1.67-2.76-.58-4.61.21-.41-.42-1.48,1.15-1.15Z"/>
      <path class="cls-1" d="M76.66,5.19l-.29.57c-.46-.17-.64-.99-.86-1.14l.57-1.15c.15.51.39.99.58,1.73h0Z"/>
      <path class="cls-1" d="M81.27,24.21l-.57-.28.57-.29c.04.18-.05.39,0,.58Z"/>
      <path class="cls-1" d="M21.32,34.01c1.3-1.56,7.25-9.4,8.49-9.72,1.19-.31,3.71.19,3,1.89-.49,1.15-2.66,1.39-3.56,2.06-1.17.87-1.99,2.64-2.74,3.46-.34.94-.34,1.71,0,2.31-.07.08-.16.6-.58,1.15l-.38-.49c-2.26,1.06-1.87-.65-2.25-.7-.43-.06-1.03.55-1.4.61-1.02.88-1.48.45-.58-.58h0Z"/>
      <path class="cls-1" d="M14.41,42.08c-.82,4.23,2.27,1.26,2.87,1.72,1.11.85.19,3.65-1.72,3.47l1.73.57c.31,1.04-.54,1.05-.58,1.15l-4.03,1.15c-.08-.36.1-.89,0-1.15.95-1.29.95-1.48,0-.57-.02-.13-.73-.41-.5-1.27.21-.78,1.72-3.76,2.23-5.07h0Z"/>
      <path class="cls-1" d="M57.06,27.09c1.6.47,1.66,1.63.18,3.5,1.41,3.26,1.15,5.17-.76,5.72-.38.77-.98.97-1.72.58-.6-.59-.79-.59-.58,0-.53,1.59-1.09,1.48-1.73,0-1.66.26-2.04-2.04-.57-2.88l.21-.77c1.37.66,1.88-.11,1.52-2.31l2.3-.96c.67-1.17,1.23-1.64.58-2.88.16-.5.35-.5.57,0h0Z"/>
      <path class="cls-1" d="M59.37,27.09c1.24.9,2.87.94,1.72,2.3h1.74c.51.11.48.31,0,.58-.03.38.02.77,0,1.15.53.65.64,1.69,0,2.31,1.28,2.67-1.53,4.87-1.16,1.15-1.25-.13-1.72-1.17-1.42-3.1-1.39-1.11-1.69-2.19-.88-3.23-.52-.15-.51-.35,0-.58-.51-.16-.5-.36,0-.58h0Z"/>
      <path class="cls-1" d="M21.9,40.92c-.42,1.44,1.05,1.03,1.73,1.73-1.54-.35-1.6,1.63-1.74,1.73-.23.17-2.94-2.15-4.02-1.73.61-1.34,3.01-.58,4.03-1.72Z"/>
      <path class="cls-1" d="M36.31,41.5c.18.06.4.54.58.58.19-.32.38-.31.57,0,.97.34,2.12.88,1.16,1.73-.64,1.59-2.09,1.24-2.89,0-.18-.77-.39-1.54-.57-2.31.36.06.86-.09,1.15,0h0Z"/>
      <path class="cls-1" d="M49.57,26.51v-.58c.52-.12,1.03-.79,1.44-1.15,1.05,1.21-.59,1.39-1.44,1.73Z"/>
      <path class="cls-1" d="M54.18,54.76c-1.06.31-.53-.03-.58,0l.29-.57.29.57Z"/>
      <path class="cls-1" d="M77.81,23.63c1.11,1.42,1.58,1.27,3.46,1.16-.31,1.76-1.11,2.99-1.19,4.89-.09,2.17,1.09,5.07.63,6.85-.17.69-1.03.26-1.17.36-.71.64-1.09.64-1.15,0-.79-4.26-2.85-10.75-2.91-14.69-.03-2.73,1.96.95,2.33,1.43h0Z"/>
      <path class="cls-1" d="M78.96,40.92l.58-2.02.57.29c-.1-4.13,2.8-.2,3.46,1.72.91,2.38.35,3.65-2.3,2.31-1.31-1.04-1.37-.09-2.31-2.31Z"/>
      <path class="cls-1" d="M72.62,44.96c.2-.37.39-.37.58,0,.22.47-.88.92-1.15,1.15l-.58.58c-1.06.63-2.16,1.21-3.46,1.15v-.58c.88-.45,1.73-1.22,2.88-1.73l.58-.57c.23-.07.84-.03,1.15,0h0Z"/>
      <path class="cls-1" d="M66.86,46.69c.03.38-.02.77,0,1.15-.77.32-1.38.76-2.31.57l1.16-3.45,1.15,1.73h0Z"/>
      <path class="cls-1" d="M79.54,36.89c-.27.2-.53,1.04-1.15,1.15-.06-.37.06-.8,0-1.15h1.15Z"/>
      <path class="cls-1" d="M71.47,46.69l.58-.58c-.21.17-.38.46-.58.58Z"/>
      <path class="cls-1" d="M70.89,45.53l.58-.57c-.15.05-.35.48-.58.57Z"/>
      <path class="cls-1" d="M73.2,44.96c-.19-.01-.39.02-.57,0l.28-.57.29.57h0Z"/>
      <path class="cls-1" d="M21.9,34.58l-3.75,3.45c.08-1.85,2.34-3.01,3.17-4.02-.1.36.3.62.58.58h0Z"/>
      <path class="cls-1" d="M48.99,36.31c2.7-2.08,3.11.49.58,2.31-.65.82-.85,1.91-1.16,2.88l-1.22,2.99c.58,1.65.04,2.42-1.66,1.62-.16.47-.36.46-.58,0l-.57.57c.49.15.48.34,0,.58.12.36-.19.5-.58.57-1.37.01-2.69-.37-4.03-.57-2.76-1.12-1.99-2.66,2.31-4.61.08-1.86,3.67-5,5.44-6.39.17-.14.51-.07.9.05.17-.5.36-.49.57,0h0Z"/>
      <path class="cls-1" d="M42.08,42.65c-1.54,1.55-3.85,2.72-2.31,4.61-1.71-.26-2.76-.52-4.61-.58l-2.3-.86c.78-.6,2-1.7,2.87-2.02,1.42-.52,1.96.13,2.89,0,.29-.75,2.73-2.28,3.45-1.15h.01Z"/>
      <path class="cls-1" d="M44.38,47.84h-.57l.57-.57c-.05.27.62-.05,0,.57Z"/>
      <path class="cls-1" d="M50.14,31.12h1.15c.18.2-1.98,3.14-.28,3.44.17.03.62-.55.86-.56l.58,2.88c.2,1.48-.06,1.56-1.16.58-.18.1-1.66,1.07-1.72,1.15-.51-1.19,1.26-1.12,1.15-1.44-.29-.78-1.33-.64-1.73-.87-1.21-1.26-1.02-2.61.58-4.03-.55-.48-.03-.86.57-1.15h0Z"/>
      <path class="cls-1" d="M52.45,36.89c.44-.12,1.19.07,1.73,0,.14-.51.33-.5.57,0,.91,1.25-1.06,4.88-2.88,4.61-.5.7-.6,2.07-1.72,2.31.39-2.23,2.43-3.93,1.14-6.34.4-.2.44-.38,1.16-.58h0Z"/>
      <path class="cls-1" d="M47.84,47.26c-.34.24-.81.34-1.15.57-2.17.17-.59-.48-.58-1.15l1.73.58h0Z"/>
      <path class="cls-1" d="M50.14,31.12c-.13.38-.49.79-.57,1.15l-1.47,1.78c.89.72.42,1.28-1.41,1.68.53,1.76-4.59,6.47-6.34,5.76-.55.6-1.24.73-1.73,0-.88.47-1.18.24-.58-.58,1.23-1.36,2.05-2.25,3.46-3.46-.2-.55.18-.74,1.16-.58,2.29-1.94,4.56-3.86,6.91-5.76h.58-.01Z"/>
      <path class="cls-1" d="M38.62,41.5c.5.16.49.36,0,.58.23.96-.15.96-1.16,0-.18-.04-.39.04-.57,0,.14-.65.86-.83,1.15-1.15.07.27.31.54.58.58h0Z"/>
      <path class="cls-1" d="M61.1,44.96c-.14.17-.11.96-.54,1.47-.94,1.14-2.57.19-1.19,2.55l-1.16-1.73c-.2-.2-1.24.97-1.72,1.16-.16.06-.39-.05-.58,0,.15-1.33.94-2.45,1.73-3.46h3.46Z"/>
      <path class="cls-1" d="M55.33,40.35c-.22,1.25.93,1.13,1.73,1.73-1.49.58-3.22,2.33-3.46,4.03l-1.72-.29c1.47-.82.72-3.69,2.3-3.38v-1.52c.16-.22.45-.38.58-.58.16-.5.35-.5.57,0h0Z"/>
      <path class="cls-1" d="M54.76,36.89c-.2.02-.39-.02-.58,0-1.5-2.26.27-2.32.58,0Z"/>
      <path class="cls-1" d="M77.82,29.97c-.39-.72.92-2.01,1.14-1.73.38.72-.93,2.01-1.14,1.73Z"/>
      <path class="cls-1" d="M57.64,36.89c-.14,1.23-.92,2.05-1.73,2.88-.75,0-.51-.66,0-1.15.17-.74.39-1.56.58-2.31.37.12.83.53,1.15.58h0Z"/>
      <path class="cls-1" d="M55.91,39.77c-.19.19-.4.37-.58.58h-.57c.27-.41.05-1.55,1.15-1.73-.07.33.05.78,0,1.15h0Z"/>
      <path class="cls-1" d="M58.79,43.81h.58c-.08.15-.06.33-.26.38l-.32-.38h0Z"/>
      <path class="cls-1" d="M44.38,46.69c.06-.19.42-.39.58-.58-.04.01-.06.65-.58.58Z"/>
      <path class="cls-1" d="M40.63,45.53c.38.19.38.39,0,.58v-.58Z"/>
      <path class="cls-1" d="M40.35,41.5c-.2.15-.25.9-.85.99-.38.05-.73-.41-.88-.41v-.58c.55.08,1.16-.05,1.72,0h.01Z"/>
      <path class="cls-1" d="M53.89,43.23c.38.19.38.39,0,.58v-.58Z"/>
    </g>
  </g>
</svg>