<?xml version="1.0" encoding="UTF-8"?>
<svg id="_레이어_2" data-name="레이어 2" xmlns="http://www.w3.org/2000/svg" viewBox="0 0 25 22">
  <g id="_레이어_1-2" data-name="레이어 1">
    <path d="M12.9.56c.38.36.56.77.56,1.27s-.18.95-.56,1.3l-4.35,4.39c-.21.21-.32.44-.32.68s.09.44.26.62c.18.18.41.24.68.24h15.83v3.85h-15.8c-.29,0-.5.09-.68.24-.18.18-.26.36-.26.59s.12.47.32.68l4.29,4.39c.41.42.59.86.59,1.33s-.18.92-.56,1.3c-.35.36-.76.53-1.26.53s-.94-.18-1.29-.53L0,11.03,10.34.56c.38-.39.82-.56,1.29-.56s.91.18,1.26.56Z"/>
  </g>
</svg>