<?xml version="1.0" encoding="UTF-8"?>
<svg id="_레이어_2" data-name="레이어 2" xmlns="http://www.w3.org/2000/svg" viewBox="0 0 144.07 141.09">
  <defs>
    <style>
      .cls-1 {
        fill: #ff319c;
      }
    </style>
  </defs>
  <g id="_레이어_1-2" data-name="레이어 1">
    <g>
      <path class="cls-1" d="M30.14,36.46l-.3-.62c0,.17.09.36.3.62Z"/>
      <path class="cls-1" d="M130.7,91.35c-1.64-2.48-3.49-7.06-4.81-9.58-.28-.47-.58-.94-.86-1.41-.79-.93-2.74-.81-1.83-4.12-1.04.42-1.71.7-2.69,0-1.07-.76-1.04-2.02-1.7-2.74-.86-.95-.65,1-1.67-1.3-.96-.58-1.96-1.16-2.7-2.02-.5-.58-.5-1.1-.67-1.35-.46-.65-.94-1.34-1.35-2.02-.07-.07-.11-.16-.13-.26-.32-.67-.43-1.38-.88-1.77-.78.01.22,2.08-1.01,2.03l1.44,1.22,1.13,9.79c1.13,2.92,1.79,9.49-1.89,5.85.16.24-.16,1.1,0,1.35,4,6.18,8,13.11,12.39,18.96.43.58.68,1.22,1.17,1.6.33.01.75.12,1.27.34.93-.65,1.79-1.37,2.7-2.02.07-1.09.96-3.87,1.57-4.53.27-.29,1.13-.15,1.51-.43.44-.33.53-1.12,1.12-1.32,1.05-.36,2.32.52,3.24-.09,1.03-.68-.41-2.37.99-3.06,1.77-.41,2.04,1.2,2.35,1.35.1.05.53.03.67,0-2.02-2.85,1.95-5.39,1.35-1.35.62-.43,2.96-.6,2.64-2.26-.03-.17-1.59-2.49-1.98-2.96-.17-.07-.34-.11-.53-.14-.62.08-1.59.55-2.16.65-.22.04-.46-.05-.67,0l-6.74,4.72c1.33-2.84-.28-1.59-1.27-3.1h0Z"/>
      <path class="cls-1" d="M112.96,77.81l-1.13-9.79-1.44-1.22c.78,5.4.61,11.55,2.69,16.52l-2.02.33c3.69,3.64,3.03-2.93,1.9-5.85h0Z"/>
      <path class="cls-1" d="M37.15,9.75c-.3.17-.43.94-.76,1.1-1.58.77-4.72.01-6.24,2.68,1.75,1.59,1.45,3.64,2.02,4.72,1.48,2.78,3.6,5.14,4.74,8.09,2.31-1.59,5-2.66,7.4-4.05-.59-2.39-5.58-6.68-4.42-8.79.22-.39.81-.44,1.05-.65,1.26-1.14,9.12-6.34,10.47-6.73.95-.28,1.19.06.99.99-.65.48-1.38,1.3-2.02,1.69,1.05-.06,3.18,1.59,3.32,2.45.23,1.39-2.85,2.09-1.3,3.61,1.6-.86,1.99-1.32,2.02.67,1.97-1.32,2.68-1.67,4.72-2.7.33-.17.63-.68,1.18-.68.06-.02.11-.03.16-.04-.01-.07-.04-.14-.07-.2-.17-.22-.37-.57-.6-1.1-1.14-3.74-4.18-5.72-5.39-9.44-.13-.05-.46-1.39-1.69-1.39s-1.58,1.36-1.68,1.39c.67.24.52.84.68,1.35,1.87,1.6,1.22,1.69,2.02,3.37.8.93,2.58,1.16,2.01,3.37-.45.94-1.75-2.81-2.01-3.37-1.33-1.53-1.35-1.08-2.02-3.37-.47-.4-1.16-.56-1.35-1.35-.2.07-.48-.07-.67,0-.2.07-.49-.08-.67,0-3.11,3.73-7.63,6.03-11.87,8.36h0Z"/>
      <path class="cls-1" d="M28.8,17.58c.25.01,1.2-1.01,2.02-.67-.81,1.59-1.31.84-.67,2.02l1.51-.5c-.68.13-.85-.42-.49-1.68-1.38-.22-1.63-2.01-1.02-3.22-1.2,1.29-1.46,1.07-1.35-.67-.17-.04-.5-.03-.67,0,1.21,1.3-.52,3.05-.67.67-.22.03-.46-.05-.67,0l-.67,2.7c.74-1.65,3.23-.42,2.7,1.35h0Z"/>
      <path class="cls-1" d="M26.1,16.23c.77.1,2.03,1.32,2.7,1.35.53-1.77-1.96-3-2.7-1.35Z"/>
      <path class="cls-1" d="M30.14,13.53c-.61,1.2-.36,3,1.02,3.22-.36,1.25-.19,1.8.49,1.67l.51-.17c-.57-1.08-.28-3.13-2.02-4.72h0Z"/>
      <path class="cls-1" d="M30.14,13.53c-.21-.19-1.06-.61-1.35-.67-.11,1.75.14,1.97,1.35.67Z"/>
      <path class="cls-1" d="M116.46,63.43v.67c-.17.26-.52.44-.68.67-.27.41-.42.92-.67,1.35-.72,1.19-1.63-.32-.67,2.7.1.31.51.62.56,1.02l-.56.33c.79-.25,1.69.42,2.7,2.02-.31-.69-1.35-2.55-1.35-2.7,0-.98,2.34-1.57,2.7-2.7-.45-.6-.47-1.34-.67-2.02-.06-.21.07-.48,0-.67-.33-.07-.57-.65-.67-.67-.21.57-.44.57-.67,0h0Z"/>
      <path class="cls-1" d="M116.46,63.43c.24.57.46.57.67,0-.2-.04-.44.02-.67,0Z"/>
      <path class="cls-1" d="M90.16,130.86c.18-.09.5.09.67,0,.09-.05.21-.02.34,0h.34c.18-.09.49.09.67,0,.28-.14,2.46-2.1,3.37-2.7-1.74.76-3.54,1.67-5.39,2.7h0Z"/>
      <path class="cls-1" d="M90.16,130.86c1.86-1.03,3.66-1.93,5.39-2.7l-.33-1.35-5.06,4.04h0Z"/>
      <path class="cls-1" d="M111.19,55.05l-2.16,2.99c.1.14,1.65-1.05,2.02-1.35.06-.52.3-.99.67-1.35l.67.67h.67c-.04-.22.05-.46,0-.67-.05-.22.06-.48,0-.67-.32-.07-.63-.68-.67-.67.38.72-.03,1.08-1.22,1.05h0Z"/>
      <path class="cls-1" d="M109.07,57.1c0,.28,0,.58-.03.94l2.15-2.99c1.19.02,1.6-.33,1.22-1.05-1.65.13-3.07,1.52-3.34,3.11h0Z"/>
      <path class="cls-1" d="M109.04,58.04c.03-.35.04-.65.03-.94-.05.31-.08.62-.03.94Z"/>
      <path class="cls-1" d="M99.6,124.12c-1.26,1.02-2.16,1.92-2.7,2.7,1.1-.74,2.28-1.32,3.37-2.02.16-.1.51.1.67,0,.34-.35,1.25-1.96,1.35-2.02-.94,1.09-1.84,1.54-2.7,1.35h0Z"/>
      <path class="cls-1" d="M96.24,126.48l.66.33c.54-.78,1.43-1.68,2.7-2.7-1.14.72-2.54,1.07-3.36,2.36Z"/>
      <path class="cls-1" d="M102.3,122.77c-1.1.09-1.83.8-2.7,1.35.86.19,1.76-.26,2.7-1.35Z"/>
      <path class="cls-1" d="M83.09,120.07c-.18.03-.23.66-.35.68.28.13.56.28.83.46-.25-.5-.38-1.16-.48-1.14h0Z"/>
      <path class="cls-1" d="M84,117.8c.7,1.01.88,3.49.76,3.61-.2.22-.37.32-.53.33,1.32,1.22,2.05,3.11,1.38,5.18.09-.09.24-.15.49-.11v2.7c.91-.42,2.36-.52,3.38-.68.17-.55-.64-.56-.67-.67-1.53-.02-2.29-.79-2.03-2.36.24-.68,1.32.34,2.03.33,2.57-.03,1.3-1.24,1.35-1.35l-2.7-.68c-.03-1.15,1.78-2.24,2.02-2.69.18-.33-.14-1.46,0-2.02,1.47-.35,1.3.37,2.02,1.35-.29-2.38-.17-1.2-.68-2.7h-.67c-1.83.31-2.68-1.14-4.05-2.02.25,1.78-.85,2.48-2.11,1.77h0Z"/>
      <path class="cls-1" d="M85.62,126.93c.67-2.07-.07-3.96-1.38-5.18-.29.03-.51-.22-.67-.54-.26-.18-.54-.33-.83-.46.8.68,2.35,6.83,2.7,6.74.03,0-.02-.36.18-.56Z"/>
      <path class="cls-1" d="M84,117.8c1.26.71,2.36,0,2.11-1.77-.72.55-1.95.82-2.7,1.35.23.02.42.18.59.43Z"/>
      <path class="cls-1" d="M89.71,129.06s0-.07,0-.12c-.06.06-.12.11-.18.17.07-.02.12-.04.19-.05h0Z"/>
      <path class="cls-1" d="M90.13,127.19c-.02.1-.11.2-.31.3v-.36c-.34-.12-.69-.42-1.01-.98v.67c.04.22-.06.47,0,.67.06.21-.06.47,0,.68.49-.15.8-.18,1-.14.2-.4.57-.69,1.03-.84-.02-.06-.03-.12-.04-.18-.2.13-.43.2-.67.19Z"/>
      <path class="cls-1" d="M87.28,130c-.42-.02-.83-.15-1.17-.48-.21.1-.41.51-.67.67.36.64.21,1.31,0,2.02.22-.89.83-1.63,1.85-2.21h0Z"/>
      <path class="cls-1" d="M85.44,130.19c-.33.21-1.36.68-1.36,1.01,0,.5,1.1.55,1.36,1.01.21-.71.36-1.38,0-2.02Z"/>
      <path class="cls-1" d="M90.84,127.19c-.45.15-.83.43-1.03.84.43.08.31.49-.11.92,0,.04,0,.08,0,.12-.07.02-.13.04-.19.06-.55.48-1.42.92-2.23.88-1.01.59-1.63,1.32-1.85,2.21,1.9-.81,5.33-3.43,7.42-4.72-.95.59-1.76.34-2.01-.3h0Z"/>
      <path class="cls-1" d="M89.82,127.12v-.31c.24.12.34.25.31.38.24.01.47-.06.67-.19-.07-.34-.03-.76.22-1.22l-.86-.99c-.05.11,1.22,1.32-1.35,1.35.32.56.67.86,1.01.98Z"/>
      <path class="cls-1" d="M88.81,128.17c.03.11.85.12.67.67-1.02.16-2.47.26-3.37.68.34.33.75.47,1.17.49.6-.35,1.35-.64,2.23-.88.07-.06.13-.12.18-.18-.06-.35-.01-.65.11-.92-.2-.04-.52,0-1,.14h0Z"/>
      <path class="cls-1" d="M89.7,128.94c.42-.43.54-.84.11-.92-.13.26-.17.57-.11.92Z"/>
      <path class="cls-1" d="M89.52,129.11c-.88.24-1.63.53-2.23.88.82.04,1.68-.4,2.23-.88Z"/>
      <path class="cls-1" d="M92.85,124.12c-1.28.72-2.16-.5-2.69.67,1.72.19,1.47,1.68.64,2.21.01.06.02.13.04.18.62-.2,1.38-.14,2.01.3-2.69-3.06.08-.84,0-3.37h0Z"/>
      <path class="cls-1" d="M90.84,127.19c.26.65,1.07.89,2.01.3-.64-.45-1.39-.51-2.01-.3Z"/>
      <path class="cls-1" d="M90.8,127c.83-.53,1.08-2.02-.64-2.21l.86.99c-.25.47-.29.88-.22,1.22Z"/>
      <path class="cls-1" d="M86.1,108.27c.02-.09-.56-.6-.66-1.01-1.11-1.4-2.56-4.08-4.05-4.05,3.57,4.59,3.91,6.72,1.04,6.42.39.23.5.56.31,1,.7-.58,3.26-1.83,3.36-2.36h0Z"/>
      <path class="cls-1" d="M82.43,109.64c-.48-.05-1.05-.16-1.71-.35-.08.41.03.91,0,1.35l1.6-.47.42.47c.19-.44.08-.77-.31-1Z"/>
      <path class="cls-1" d="M81.39,103.22c-.03.1-.72.2-.58.86.36,1.69,5.97,5.86-.09,5.21.8.03,1.37.15,1.71.35,2.87.3,2.53-1.83-1.04-6.42h0Z"/>
      <path class="cls-1" d="M80.72,109.28c.67.19,1.23.3,1.71.35-.35-.2-.91-.32-1.71-.35Z"/>
      <path class="cls-1" d="M40.26,27.69c-.4.93-.88,1.56-1.45,1.89.64,0,1.35.28,2.13.8-.55-.89-1.96-.1-.68-2.7Z"/>
      <path class="cls-1" d="M37.89,29.86c-.31.02-.65-.03-1-.15l-.44.44c-.08.09-.15.18-.23.23-.54.5-1.27,1.15-2.07,1.8,1.29-.65,2.42-1.15,2.75-1.12.29-.59.63-.96,1-1.2h0Z"/>
      <path class="cls-1" d="M29.43,35c.02-.08.27-.27.66-.53-.47.1-.92.1-1.3-.04.35.98.91,1.34,1.35,2.02-.21-.25-.29-.45-.3-.62l-.41-.84h0Z"/>
      <path class="cls-1" d="M30.22,34.39c.93-.6,2.51-1.49,3.92-2.21.81-.64,1.53-1.3,2.07-1.8-2.36,1.46-4.71,3.24-7.42,4.05.71-.3,1.18-.31,1.43-.04Z"/>
      <path class="cls-1" d="M38.81,29.58c.57-.34,1.05-.96,1.45-1.89-1.12.69-2.25,1.34-3.37,2.02.35.12.69.17,1,.15.28-.18.59-.27.92-.28h0Z"/>
      <path class="cls-1" d="M30.1,34.47s.08-.05.12-.08c-.25-.26-.71-.26-1.43.04.39.14.83.14,1.3.04Z"/>
      <path class="cls-1" d="M37.89,29.86c-.37.24-.71.61-1,1.2,1.4-.57,2.5-.9,4.05-.67-.77-.52-1.49-.82-2.13-.8-.28.17-.59.26-.92.28h0Z"/>
      <path class="cls-1" d="M37.89,29.86c.33-.02.63-.11.92-.28-.33,0-.63.1-.92.28Z"/>
      <path class="cls-1" d="M30.26,34.43c.13.17.19.42.16.77.23-.1.46-.19.58-.28,1.49-1.28,4.09-3.12,5.89-3.85-.33-.03-1.46.47-2.75,1.12-1.23.98-2.65,1.92-3.88,2.24h0Z"/>
      <path class="cls-1" d="M30.26,34.42c-.06.01-.11.03-.16.05-.4.26-.64.45-.66.53l.41.84c-.02-.32.27-.51.58-.65.03-.35-.03-.6-.16-.77h0Z"/>
      <path class="cls-1" d="M34.14,32.18c-1.41.71-2.99,1.61-3.92,2.21.01.01.03.02.04.03,1.23-.32,2.64-1.26,3.88-2.24Z"/>
      <path class="cls-1" d="M30.22,34.39s-.09.06-.12.08c.05-.01.11-.03.16-.05-.01-.01-.03-.02-.04-.03Z"/>
      <path class="cls-1" d="M47.68,42.53c2.63,1.48,2.07,3.49.65,3.39.09.18.15.37.2.56.51-.46,1.27-.69,2.26-.7-1.12-.79-.82-3.24-3.12-3.25h0Z"/>
      <path class="cls-1" d="M48.53,46.48c-.04-.19-.11-.38-.2-.56-.58-.04-1.3-.43-2-1.37.53,1.14.93,2.81,1.35,4.05.03-.95.32-1.64.85-2.12Z"/>
      <path class="cls-1" d="M50.79,45.78c-.99.01-1.75.25-2.26.7.16.77-.06,1.59-.85,2.12,1.74-1.13,3-1.59,4.72-2.7-.76.21-1.25.13-1.61-.12Z"/>
      <path class="cls-1" d="M48.53,46.48c-.53.47-.83,1.17-.85,2.12.79-.53,1.01-1.35.85-2.12Z"/>
      <path class="cls-1" d="M48.33,45.92c1.41.1,1.97-1.91-.65-3.39.27.47,1.54,1.87,1.35,2.02-.87-.07-1.87.14-2.7,0,.94.08,1.65.65,2,1.37h0Z"/>
      <path class="cls-1" d="M48.33,45.92c-.36-.72-1.06-1.29-2-1.37.71.94,1.42,1.33,2,1.37Z"/>
      <path class="cls-1" d="M92.18,115.35c.68.12.77.72.67,1.35.93-.06-.03-1.26,0-1.35-.12-.76.66-.63.68-.67.38-1.73-2.11-4.5-1.36-6.74h-1.34c-.1.62.08,1.37,0,2.02l-1.34-.67c.92,1.33,1.05,1.49-.67,1.35,1.06.05,1.51.5,1.35,1.35,3.03,1.1,1.1,1.29,2.02,3.37h0Z"/>
      <path class="cls-1" d="M92.86,115.35l.68-.67s-.66.63-.68.67Z"/>
      <path class="cls-1" d="M88.81,110.63c.6.83-1,.5,1.35,1.35.17-.84-.28-1.29-1.35-1.35Z"/>
      <path class="cls-1" d="M92.18,115.35c.21.48.45.89.67,1.35.09-.63,0-1.23-.67-1.35Z"/>
      <path class="cls-1" d="M30.92,21.96c-.42-.95-.69-1.96-.78-3.04-.12-.04-.24-.1-.37-.19.16.41.29.91.37,1.53.09.59-.72,1.87-.67,2.02.58-.53,1.12-.55,1.45-.34h0Z"/>
      <path class="cls-1" d="M30.79,24.27c.24.05.51.05.7.06.35,0,.5-.29.65-.3-.34-.44-.63-.91-.89-1.38-.03.38-.35.79-1.11,1,.34.19.55.4.65.62Z"/>
      <path class="cls-1" d="M32.4,24.33c.11.24.24.66.44,1.34.23.79.02.38,0,.67-.03.45.02.9,0,1.35l.62-2.23c-.39-.36-.74-.74-1.06-1.13Z"/>
      <path class="cls-1" d="M30.79,24.26c-.1-.22-.31-.43-.65-.62-.03.4.28.55.65.62Z"/>
      <path class="cls-1" d="M28.8,17.58c-.14,1.02,1.26,2.13,1.35,2.7-.07-.63-.2-1.12-.37-1.53-.32-.22-.65-.61-.98-1.16Z"/>
      <path class="cls-1" d="M31.25,22.64c-.12-.22-.23-.45-.33-.68-.33-.21-.87-.2-1.45.34.2.61,1.44-.14.67,1.35.76-.21,1.08-.62,1.11-1h0Z"/>
      <path class="cls-1" d="M29.78,18.74c.12.08.24.15.37.19-.64-1.18-.14-.42.67-2.02-.82-.34-1.77.68-2.02.67.42.16.75.56.98,1.16Z"/>
      <path class="cls-1" d="M29.78,18.74c-.24-.6-.56-1.01-.98-1.16.33.56.66.94.98,1.16Z"/>
      <path class="cls-1" d="M31.25,22.64c.26.48.55.94.89,1.38.08,0,.16.07.26.31.32.39.67.77,1.06,1.13l-.62,2.23c.26-.07.46-.28.68-.34,1.39-.39-.5,1.12.34,1.02.89-.11,1.14-.33,1.66-1.01-1.76-2.81-3.8-5.52-5.38-8.43.09,1.07.36,2.08.78,3.04.23.15.35.4.33.68h0Z"/>
      <path class="cls-1" d="M30.92,21.96c.1.23.21.45.33.68.03-.28-.1-.53-.33-.68Z"/>
      <path class="cls-1" d="M40.65,37.69c-.1.06-.22.1-.4.12.22.03.39.09.55.17-.05-.09-.11-.19-.15-.29Z"/>
      <path class="cls-1" d="M45.96,44.14c-1.29-1.39-2.37-2.99-3.23-4.82-.54-.04-1-.26-1.38-.62.14.56,0,1.39-.42,2.47l.67-1.35.33-.66c1.25.85,1.25,2.17,1.69,3.36.46.43,1.89,1.97,2.02,2.02.08-.29.19-.42.31-.41h0Z"/>
      <path class="cls-1" d="M45.65,44.55c.17.06.44-.04.67,0-.13-.13-.24-.27-.37-.41-.12-.02-.22.11-.31.41Z"/>
      <path class="cls-1" d="M40.26,36.46c.11.35-.08.93,0,1.35.17-.02.3-.06.4-.12-.16-.35-.29-.76-.4-1.23Z"/>
      <path class="cls-1" d="M41.35,38.7c-.2-.2-.39-.44-.55-.72-.16-.08-.33-.15-.55-.17.29,1.43.05,2.27.68,3.37.42-1.09.56-1.91.42-2.47Z"/>
      <path class="cls-1" d="M40.26,36.46c.62.63.74,1.03.4,1.23.05.1.1.2.15.29.28.15.46.39.55.72.38.36.84.58,1.38.62.85,1.83,1.94,3.43,3.23,4.82.11.01.23.14.37.41-1.31-2.86-3.39-6.38-6.07-8.09Z"/>
      <path class="cls-1" d="M40.26,36.46c.1.47.23.88.4,1.23.35-.2.23-.6-.4-1.23Z"/>
      <path class="cls-1" d="M45.96,44.14c.12.13.24.28.37.41-.14-.26-.26-.39-.37-.41Z"/>
      <path class="cls-1" d="M41.35,38.7c-.08-.34-.27-.57-.55-.72.16.29.34.53.55.72Z"/>
      <path class="cls-1" d="M69.65,82.07c.39-.13.51.24.28.92.61,1.01,1.71.93,2.02,3.37.56.81.71.72,1.35,2.02.72-.24,1.04.42.97,1.14.11-.19.23-.35.37-.46-1.58-2.49-3.24-4.98-4.97-7.47.08.19.08.36-.03.49Z"/>
      <path class="cls-1" d="M73.97,90.4c.47-.5.68-.42.68-1.35-.15.11-.27.27-.37.46-.03.31-.12.62-.3.88Z"/>
      <path class="cls-1" d="M69.68,81.58c-.14-.21-.28-.41-.42-.62-.05.3-.08,1.16,0,1.35.15-.13.28-.21.4-.24.11-.13.11-.29.03-.49Z"/>
      <path class="cls-1" d="M69.93,82.99c.23-.68.11-1.05-.28-.92-.08.1-.2.18-.4.24.02.04.39.19.67.67h0Z"/>
      <path class="cls-1" d="M69.65,82.07c-.11.04-.24.11-.4.24.19-.06.31-.14.4-.24Z"/>
      <path class="cls-1" d="M69.25,80.96c.23.24.35.44.42.62,1.73,2.49,3.39,4.98,4.97,7.47-.02-1.87-3.55-7.12-5.39-8.09Z"/>
      <path class="cls-1" d="M69.25,80.96c.14.21.28.41.42.62-.07-.18-.19-.38-.42-.62Z"/>
      <path class="cls-1" d="M73.3,88.38c.3.62.93,1.05.67,2.02.06-.36.17-.65.3-.88.07-.72-.25-1.37-.97-1.14Z"/>
      <path class="cls-1" d="M73.97,90.4c.18-.26.27-.58.3-.89-.13.24-.24.52-.3.89Z"/>
      <path class="cls-1" d="M83.41,117.38c-1.34.96-2.36,1.37-2.02,3.37.44-.02.91.06,1.34,0l-.69-.35c.74-.78,1.19-1.79,1.36-3.02Z"/>
      <path class="cls-1" d="M83.57,121.21c.24.16.46.35.67.54.15-.02.33-.12.53-.33.11-.13-.06-2.6-.76-3.61-.19-.11-.39-.25-.59-.43-.25,1.16-.48,2.28-.67,3.37.12-.02.17-.64.35-.68.09-.02.22.64.48,1.14h0Z"/>
      <path class="cls-1" d="M83.41,117.38c.2.18.4.32.59.43-.17-.24-.36-.4-.59-.43Z"/>
      <path class="cls-1" d="M84.23,121.75c-.21-.19-.43-.38-.67-.54.16.32.38.57.67.54Z"/>
      <path class="cls-1" d="M82.05,120.39l.69.35c.2-1.09.43-2.21.67-3.37-.17,1.23-.62,2.24-1.36,3.02Z"/>
      <path class="cls-1" d="M31.91,27.21c.02-.25.35-.56.93-.87v-.67l-1.35-1.35c-.02.48-.38.66-.74.61-.03.07-.07.14-.12.21,1.18.93,1.11,1.71-.05,2.34.5-.16.63.19.23.89.3-.54.69-1.02,1.09-1.16h0Z"/>
      <path class="cls-1" d="M30.64,25.14c.05-.07.09-.14.12-.21-.49-.06-.97-.54-.61-1.29-1.05,2.04-.07,1.38,0,2.02l.33-.66c.06.04.1.09.16.13h0Z"/>
      <path class="cls-1" d="M30.59,27.48c-.14.07-.28.15-.44.22.11.56.04.6.67.67.4-.7.27-1.05-.23-.89Z"/>
      <path class="cls-1" d="M31.91,27.21c-.4.14-.8.62-1.09,1.16.83.1,1.42-.51,2.02-.67-.66-.05-.95-.23-.93-.48h0Z"/>
      <path class="cls-1" d="M32.84,26.34c-.58.31-.91.62-.93.87.32-.11.64,0,.93.48.02-.45-.03-.9,0-1.35Z"/>
      <path class="cls-1" d="M30.76,24.93c.36.05.72-.13.74-.61-.2,0-.46,0-.7-.06.09.21.08.43-.03.67Z"/>
      <path class="cls-1" d="M30.76,24.93c.11-.24.13-.46.03-.67-.36-.07-.68-.23-.65-.62-.36.75.12,1.22.61,1.29Z"/>
      <path class="cls-1" d="M31.91,27.21c-.02.25.27.43.93.48-.29-.49-.61-.59-.93-.48Z"/>
      <path class="cls-1" d="M90.5,113.34c-.15-.42-.28-.87-.34-1.36-.49.56-.85,1.56-1.35,2.02.57-.72,1.15-.86,1.69-.66h0Z"/>
      <path class="cls-1" d="M90.67,113.76c-.23.42-.88.57-1.86.24l3.37,1.35c-.73-.4-1.19-.95-1.51-1.59Z"/>
      <path class="cls-1" d="M90.67,113.76c-.07-.13-.12-.27-.17-.42-.54-.2-1.12-.06-1.69.66.99.32,1.63.18,1.86-.24h0Z"/>
      <path class="cls-1" d="M90.77,113.46c.58.35,1.08,1.08,1.41,1.9-.92-2.08,1.01-2.27-2.02-3.37.45.57.65,1.09.61,1.48Z"/>
      <path class="cls-1" d="M90.77,113.46c.04-.39-.16-.9-.61-1.48.06.5.19.94.34,1.36.09.03.18.06.27.11h0Z"/>
      <path class="cls-1" d="M90.77,113.46c-.01.11-.05.21-.1.3.32.65.78,1.19,1.51,1.59-.33-.82-.83-1.55-1.41-1.89Z"/>
      <path class="cls-1" d="M90.5,113.34c.05.14.11.29.17.42.05-.09.09-.19.1-.3-.09-.05-.18-.08-.27-.11h0Z"/>
      <path class="cls-1" d="M84.76,104.56c.27.88.47,1.8.68,2.7.77-.04,1.65.61,1.93,1.32.79.06,1.92,1.12,1.44,2.05l.67-1.35c-2.04-.49-3.11-2.94-4.72-4.72Z"/>
      <path class="cls-1" d="M87.37,108.58c.2.51.11,1.04-.58,1.38.33-.13,1.06-.68,1.27-.58.07.03.46.84.76,1.26.47-.93-.66-1.99-1.44-2.05h0Z"/>
      <path class="cls-1" d="M89.48,109.28l-.67,1.35c1.73.14,1.6-.02.67-1.35Z"/>
      <path class="cls-1" d="M85.85,107.67c.37.33.78.65.94,1.19.12-.21.33-.29.58-.27-.28-.71-1.16-1.36-1.93-1.32.17.13.3.27.41.41Z"/>
      <path class="cls-1" d="M87.37,108.58c-.25-.02-.46.06-.58.27.09.29.11.64,0,1.1.69-.34.78-.87.58-1.38h0Z"/>
      <path class="cls-1" d="M85.85,107.67c-.11-.13-.24-.27-.41-.41.12.15.26.28.41.41Z"/>
      <path class="cls-1" d="M84.76,132.21c-1.3.47-2.68.54-4.05.68l.67,2.01c.13-1.07,1.26-1.97,3.37-2.7h0Z"/>
      <path class="cls-1" d="M84.76,132.21c-1.36.65-2.48,1.55-3.37,2.7,1.2-.77,2.65-1.41,3.37-2.7Z"/>
      <path class="cls-1" d="M84.76,132.21c-2.11.73-3.24,1.63-3.37,2.7.89-1.14,2.01-2.04,3.37-2.7Z"/>
      <path class="cls-1" d="M82.44,101.41c.11.14,0,.29-.38.46.95.8,1.87,1.79,2.7,2.7-.4-1.3-.98-2.27-1.35-3.37-.33.59-.69.56-.97.22Z"/>
      <path class="cls-1" d="M82.42,101.37c-.07-.09-.13-.21-.18-.33-.04.05-.09.1-.17.15.18.06.28.11.35.18Z"/>
      <path class="cls-1" d="M82.07,100.52v.67c.07-.05.12-.1.17-.15-.07-.16-.13-.33-.17-.52h0Z"/>
      <path class="cls-1" d="M82.07,101.87c.37-.17.48-.32.38-.46,0-.01-.02-.02-.03-.04-.07-.06-.17-.12-.35-.18-.05.21.07.48,0,.67Z"/>
      <path class="cls-1" d="M82.23,101.04c.06.12.11.24.18.33.01.01.02.03.03.04.28.34.64.37.97-.22-.35-.27-1.12-.42-1.35-.67.29.16.33.34.17.52h0Z"/>
      <path class="cls-1" d="M82.07,100.52c.04.19.1.37.17.52.16-.19.12-.36-.17-.52Z"/>
      <path class="cls-1" d="M82.44,101.41s-.01-.03-.03-.04c0,.01.02.03.03.04Z"/>
      <path class="cls-1" d="M27.44,29.05c-.95-.48-1.8.43-1.34.66.95.48,1.8-.43,1.34-.66Z"/>
      <path class="cls-1" d="M28.8,22.3l-.67-.67c-.05.5.17.74.67.67Z"/>
      <path class="cls-1" d="M104.99,82.31l-.38,1.78c-1.69,1.38-12.59,8.89-13.4,8.72-.36-.07-.71-.22-1.05-.39-.01.74.54,1.43.67,2.02.43-.06.97.09,1.35,0,3.15-.75,8.24-6.19,11.81-7.41,1.91-.65.31,1.07.32,1.34.03.44-.07.94,0,1.35.05.28.54,1.75.67,2.02.58,1.2,3.49,1.85-1.35,2.7.14.18-.14,1.62.67,2.02,1.44-.9,4.1-2.93,5.39-2.36-3.13,3.66-8.56,5.56-12.13,8.43-.25.2-.41,1.01-.67,1.35.33.18.46.48.67.67.33.29.52,1.71,1.35,2.02.16-.1.51.1.68,0,.24-.14.42-.53.67-.67,1.08-.63,2.74-.95,3.37-1.35,1.22-.77,2.96-2.26,4.72-3.37.19-.15.37-.26.55-.4,1.13-.89,2.23-2.14,3.8-2.29l.37.66v.67c.21.21.54.42.67.68.08.15-.06.44,0,.67.03.12.65.17.65.33,0,.14-.62.59-.65,1.02.67-.02,1.35,0,2.02,0,.04.45-.02.9,0,1.35.02.44.03.91,0,1.35,2.61-.06,1.97,3.11,2.61,5.12.16.04.31.12.45.21.31-.17.73-.5.98-.6.15-.61.38-.6.67,0l.22-.23c.12-.15.27-.34.45-.45-.28-1.93,1-3.21,2.7-2.02-3.37-7.5-9.87-13.91-13.8-20.93-.47-.84-.68-1.82-.17-1.89-.26-.23-.14-.43.35-.59-1.93.05-3.11-3.08-3.24-4.91l-.67.67c1.91,3.8-.05,1.97-1.35,2.7h0ZM115.93,98.68c1.88,2.87,4.21,5.95,5.24,9.25-3.44-4.29-6.64-8.97-9.71-13.54-2-2.97-4.36-6.12-5.78-9.38,3.79,3.79,7.26,9.1,10.26,13.67h0Z"/>
      <path class="cls-1" d="M110.25,83.85c.21-.07.46-.14.81-.19-.71-1.1-3.03-3.16-4.05-4.72.12,1.84,1.3,4.96,3.24,4.91Z"/>
      <path class="cls-1" d="M109.9,84.44c.23-.03.59.11,1.16.56-.16-.24.16-1.11,0-1.35-.28.13-.55.19-.81.19-.49.17-.61.36-.35.59h0Z"/>
      <path class="cls-1" d="M111.06,83.66c-.34.06-.6.12-.81.19.26,0,.53-.06.81-.19Z"/>
      <path class="cls-1" d="M118.85,110.56c-.15-.09-.3-.16-.45-.21.03.1.06.19.1.28.07.06.2.01.36-.07Z"/>
      <path class="cls-1" d="M121.18,109.28c1.3-.77,1.84-1.44,2.7-2.02-1.7-1.18-2.97.09-2.7,2.02Z"/>
      <path class="cls-1" d="M119.83,109.96c.2-.08.5.08.67,0-.3-.6-.52-.61-.67,0Z"/>
      <path class="cls-1" d="M104.61,84.09l.38-1.78c-4.36,2.44-10.3,7.17-14.84,10.11.34.17.69.31,1.05.39.82.17,11.71-7.34,13.4-8.72h0Z"/>
      <path class="cls-1" d="M86.11,49.27c5.91,9.16,15.54,21.04,20.23,30.34-.39-1.07-.36-1.25.67-.67-15.62-23.53-31.13-47.13-46.53-70.8.67,1.03.89,1.93.67,2.7,2.38,5.11,9.3,13.42,12.69,18.67,4.19,6.51,8.08,13.28,12.26,19.76h0Z"/>
      <path class="cls-1" d="M60.49,8.14c15.4,23.67,30.91,47.27,46.53,70.8-14.83-22.85-29.93-49.58-46.53-70.8Z"/>
      <path class="cls-1" d="M60.49,8.14c.11,1.17.17,1.61.67,2.7.22-.77,0-1.67-.67-2.7Z"/>
      <path class="cls-1" d="M106.34,79.61l.67-.67c-1.03-.57-1.06-.39-.67.67Z"/>
      <path class="cls-1" d="M108.36,66.8l-.67,1.35c.16.32.3.72.39,1.14.08-.83.18-1.67.28-2.49Z"/>
      <path class="cls-1" d="M107.93,71.77c-.26.48-.71.78-1.43.72.51.71,1.03,1.41,1.55,2.11-.12-.94-.13-1.88-.12-2.83h0Z"/>
      <path class="cls-1" d="M92.93,52.29c-.03-.11-.06-.21-.08-.32h-.67l.75.32Z"/>
      <path class="cls-1" d="M108.08,69.29c-.08.83-.13,1.65-.15,2.48.35-.65.34-1.62.15-2.48Z"/>
      <path class="cls-1" d="M107.93,71.77c-.02.95,0,1.89.12,2.83-.52-.7-1.03-1.4-1.55-2.11-.06,0-.12,0-.19-.01-1.2-.18-12.57-18.5-13.21-19.71-.08-.15-.13-.31-.17-.48l-.75-.32c.79,1.2,1.47,3.22,2.42,4.66,4.88,7.46,9.7,14.98,14.78,22.31.46-3.96-.55-8.15-1.02-12.13-.11.83-.2,1.66-.28,2.49.19.86.2,1.83-.15,2.48h0Z"/>
      <path class="cls-1" d="M106.31,72.48c.07,0,.12,0,.19.01-4.72-6.47-9.29-13.31-13.14-20.02l-.43-.19c.04.17.1.33.17.48.64,1.21,12,19.53,13.21,19.71Z"/>
      <path class="cls-1" d="M93.36,52.48c3.85,6.71,8.41,13.55,13.14,20.02.72.06,1.18-.24,1.43-.72.02-.83.07-1.65.15-2.48-.1-.43-.23-.83-.39-1.14l-.68,3.72-12.97-19.76-1.19-.14c.02.11.05.22.08.32l.43.19h0Z"/>
      <path class="cls-1" d="M72.38,21.41c.86,1.62,1.64,3.26,2.27,4.94l.67-2.02c-.96-.71-1.98-1.74-2.94-2.91h0Z"/>
      <path class="cls-1" d="M68.58,12.18c-.08-.05-.16-.14-.24-.24l-.43-.43c-1.03,0-.62,1.93-.45,2.39.66.82,1.26,1.65,1.85,2.49-.4-1-.67-1.97-.73-2.86-.02-.03-.65.09-.66-.34l.66-.34c.17-.45.4-.43.67,0v-.67c-.22.44-.45.44-.67,0h0Z"/>
      <path class="cls-1" d="M69.31,16.39c-.59-.84-1.19-1.67-1.85-2.49-.17-.46-.59-2.39.45-2.39-1.11-.6-2.72-2.53-4.04-1.69l10.78,16.52c-.63-1.68-1.41-3.32-2.27-4.94-1.25-1.53-2.38-3.3-3.08-5.02h0Z"/>
      <path class="cls-1" d="M69.31,16.39c.7,1.72,1.83,3.5,3.08,5.02-.9-1.7-1.92-3.38-3.08-5.02Z"/>
      <path class="cls-1" d="M69.25,12.18c-.16-.1-.51.1-.67,0,.23.44.45.44.67,0Z"/>
      <path class="cls-1" d="M72.38,21.41c.96,1.17,1.98,2.21,2.94,2.91-2.2-3.59-4.79-7.07-6.74-10.79.06.88.32,1.86.73,2.86,1.16,1.64,2.17,3.32,3.08,5.02Z"/>
      <path class="cls-1" d="M68.58,12.86c.21.06.51-.08.67,0-.27-.43-.5-.45-.67,0Z"/>
      <path class="cls-1" d="M92.67,51.68c-1.06-1.59-2.13-3.2-3.19-4.8.96,1.68,1.86,3.39,2.71,5.08.14-.38.31-.47.49-.28Z"/>
      <path class="cls-1" d="M85.28,40.61c-.62-.94-1.25-1.86-1.87-2.8v-1.35s-1.35.67-1.35.67c1.16,1.05,2.22,2.22,3.22,3.47Z"/>
      <path class="cls-1" d="M85.28,40.61c-1-1.25-2.06-2.42-3.22-3.47,3.28,5.01,6.85,9.86,10.11,14.84-.85-1.68-1.74-3.39-2.71-5.08-1.4-2.09-2.79-4.18-4.19-6.29Z"/>
      <path class="cls-1" d="M85.28,40.61c1.55,1.95,2.93,4.09,4.19,6.29,1.06,1.6,2.13,3.2,3.19,4.8.06.06.12.16.19.28-2.55-5.35-6.09-10.62-9.44-15.51v1.35c.63.94,1.25,1.87,1.87,2.8Z"/>
      <path class="cls-1" d="M85.28,40.61c1.4,2.1,2.79,4.19,4.19,6.29-1.26-2.2-2.63-4.34-4.19-6.29Z"/>
      <path class="cls-1" d="M92.18,51.97h.67c-.06-.09-.12-.19-.19-.28-.18-.18-.34-.09-.49.28h0Z"/>
      <path class="cls-1" d="M92.67,51.68c.06.09.12.19.19.28-.06-.13-.13-.22-.19-.28Z"/>
      <path class="cls-1" d="M76.99,28.59c-.65-1.21-1.16-2.44-1.49-3.66.28,1.18,0,1.65-.85,1.42.84.72,1.62,1.47,2.34,2.24Z"/>
      <path class="cls-1" d="M81.93,35.7c-.29-.36-.59-.73-.88-1.11.39.82.74,1.67,1.02,2.54-.33-.77-.33-1.24-.14-1.43Z"/>
      <path class="cls-1" d="M76.99,28.59c-.72-.78-1.5-1.53-2.34-2.24,2.38,3.65,5.04,7.16,7.42,10.79-.29-.88-.64-1.72-1.02-2.54-1.46-1.86-2.93-3.9-4.05-6Z"/>
      <path class="cls-1" d="M76.99,28.59c.21.22.4.45.6.68-.55-1.36-1.46-3.63-2.26-4.95.07.22.13.42.17.61.33,1.22.84,2.45,1.49,3.66Z"/>
      <path class="cls-1" d="M81.93,35.7c.24-.24.8-.01,1.49.75-1.18-1.73-2.76-4.9-3.74-6.11-.38-.47-.95-.28-1.3-.12,1.06,1.36,1.94,2.82,2.66,4.36.3.38.59.75.88,1.11Z"/>
      <path class="cls-1" d="M81.04,34.59c-.72-1.54-1.61-2.99-2.66-4.36-.18.08-.31.16-.32.13-.07-.1-.24-.52-.47-1.1-.2-.23-.39-.46-.6-.68,1.12,2.1,2.59,4.14,4.05,6Z"/>
      <path class="cls-1" d="M75.49,24.93c-.06-.2-.13-.4-.17-.61l-.67,2.02c.85.24,1.13-.24.85-1.42h0Z"/>
      <path class="cls-1" d="M75.32,24.32c.04.2.12.4.17.61-.04-.19-.1-.39-.17-.61Z"/>
      <path class="cls-1" d="M82.45,36.35c-.17-.21-.35-.43-.52-.65-.19.19-.19.66.14,1.43l1.35-.67c-.44.06-.82.07-.97-.11Z"/>
      <path class="cls-1" d="M81.93,35.7c.17.22.35.44.52.65.14.18.52.17.97.11-.68-.77-1.25-.99-1.49-.75h0Z"/>
      <path class="cls-1" d="M107.01,55.34l-.67.67c.25,1.16.46,2.34.64,3.52-.04-1.41,0-2.82.03-4.2h0Z"/>
      <path class="cls-1" d="M107.66,67.32c.06-.43.28-.62.7-.51-.38-.87-.66-1.78-.87-2.7.08,1.06.14,2.14.16,3.22h0Z"/>
      <path class="cls-1" d="M106.98,59.54c.23,1.5.4,3.02.52,4.56.21.93.49,1.83.87,2.71-.44-3.81-.83-7.67-1.35-11.46-.04,1.38-.08,2.79-.03,4.2Z"/>
      <path class="cls-1" d="M107.5,64.1c-.12-1.54-.29-3.06-.52-4.56.05,1.54.19,3.08.52,4.56Z"/>
      <path class="cls-1" d="M107.66,67.32c-.03-1.08-.08-2.15-.16-3.22-.33-1.48-.47-3.02-.52-4.56-.18-1.18-.39-2.36-.64-3.52.37,3.85-.03,8.52,1.35,12.14-.06-.36-.06-.62-.03-.83h0Z"/>
      <path class="cls-1" d="M107.66,67.32c0,.28.02.55.03.83l.68-1.35c-.42-.11-.64.08-.7.51h0Z"/>
      <path class="cls-1" d="M107.69,68.15c0-.28-.02-.56-.03-.83-.03.22-.03.48.03.83Z"/>
      <path class="cls-1" d="M59.05,5.4c.23.37.45.76.65,1.14-.05-.51.2-.88.78-1.1-.48.35-.97.27-1.44-.03Z"/>
      <path class="cls-1" d="M60.49,5.44c-.58.22-.83.59-.78,1.1.28.53.55,1.06.78,1.59-.09-.88.06-1.81,0-2.7Z"/>
      <path class="cls-1" d="M59.05,5.4c-.84-.55-1.59-1.82-1.93-2.66-1.04,1.87,2.44,4.21,3.37,5.39-.49-.64-.74-1.16-.78-1.59-.21-.38-.42-.76-.65-1.14Z"/>
      <path class="cls-1" d="M60.49,8.14c-.23-.54-.5-1.07-.78-1.59.04.43.3.96.78,1.59Z"/>
      <path class="cls-1" d="M60.49,5.44c-.87-.57-1.98-2.31-3.37-2.7.72.87,1.37,1.76,1.93,2.66.47.3.96.39,1.44.03Z"/>
      <path class="cls-1" d="M59.05,5.4c-.57-.91-1.21-1.79-1.93-2.66.35.84,1.09,2.12,1.93,2.66Z"/>
      <path class="cls-1" d="M106.32,55.16c.15-.03.36,0,.7.18-.46-1.17-.69-1.22-.7-.18Z"/>
      <path class="cls-1" d="M106.32,55.16c0-1.04.24-.99.7.18-.26-1.89-.43-3.84-.69-5.73-.18-1.25.68-1.99-1.33-1.69.9,2.33.5,4.65.72,7.02.05.54.61.94.62,1.07-.29-.53-.27-.81-.03-.86Z"/>
      <path class="cls-1" d="M106.32,55.16c0,.23,0,.51.03.86l.67-.67c-.34-.18-.55-.21-.7-.18Z"/>
      <path class="cls-1" d="M106.32,55.16c-.25.05-.26.33.03.86-.02-.35-.03-.62-.03-.86Z"/>
      <path class="cls-1" d="M69.42,12.37c.08.16.03.32-.17.49.37.09.73.23,1.09.4-.35-.27-.65-.57-.93-.89Z"/>
      <path class="cls-1" d="M69.25,12.86c.9.43,1.16.74,2.7,1.35-.6-.27-1.13-.59-1.6-.95-.36-.17-.73-.3-1.09-.4Z"/>
      <path class="cls-1" d="M71.95,14.21c-.53-.4-1.07-.71-1.6-.95.47.36,1,.68,1.6.95Z"/>
      <path class="cls-1" d="M69.42,12.37c.27.32.58.62.93.89.54.24,1.07.55,1.6.95-.75-.5-1.64-1.32-2.7-2.02.08.06.13.12.17.18Z"/>
      <path class="cls-1" d="M69.42,12.37c-.05-.06-.11-.12-.17-.18v.67c.2-.17.25-.33.17-.49Z"/>
      <path class="cls-1" d="M69.25,12.18c.05.06.11.12.17.18-.03-.06-.08-.12-.17-.18Z"/>
      <path class="cls-1" d="M73.77,15.29c-.03-.13.03-.27.21-.41-.23.03-.46,0-.71-.06.2.14.36.3.5.47Z"/>
      <path class="cls-1" d="M73.97,14.88c-.73-.31-1.41-.43-2.02-.67.53.16.96.37,1.32.61.24.06.48.08.71.06h0Z"/>
      <path class="cls-1" d="M71.95,14.21c.46.32.9.52,1.32.61-.35-.25-.78-.46-1.32-.61Z"/>
      <path class="cls-1" d="M73.77,15.29c-.14-.17-.3-.33-.5-.47-.42-.09-.85-.29-1.32-.61.7.47,1.28.88,2.02,1.35-.12-.08-.18-.17-.21-.26h0Z"/>
      <path class="cls-1" d="M73.77,15.29c.07.09.15.17.21.26v-.67c-.17.14-.24.28-.21.41Z"/>
      <path class="cls-1" d="M73.97,15.56c-.06-.09-.14-.18-.21-.26.02.09.08.18.21.26Z"/>
      <path class="cls-1" d="M104.99,45.22c.13.62-.35,2.03.34,2.03.62-.15.37-1.47.34-2.03-.19.59-.42.58-.67,0h0Z"/>
      <path class="cls-1" d="M105.67,45.22h-.67c.26.58.48.59.67,0Z"/>
      <path class="cls-1" d="M68.58,13.53c-.09-.04-.15-.09-.2-.13.04.05.11.09.2.13Z"/>
      <path class="cls-1" d="M68.38,13.4c.05.04.11.09.2.13v-.67c-.26.23-.33.41-.2.54h0Z"/>
      <path class="cls-1" d="M68.58,13.53c-.09-.04-.16-.08-.2-.13-.2-.17-.13-.35.2-.54l-.66.34c.01.43.64.3.66.34Z"/>
      <path class="cls-1" d="M68.38,13.4c-.13-.14-.06-.32.2-.54-.33.2-.4.38-.2.54Z"/>
      <path class="cls-1" d="M67.91,11.51l.43.43c-.13-.16-.27-.34-.43-.43Z"/>
      <path class="cls-1" d="M68.58,12.18l-.24-.24c.08.1.16.19.24.24Z"/>
      <path class="cls-1" d="M110.32,85.37l.78,1.17s0,0,0,0c-.23-.37-.18-.92-.04-1.52-.31.52-.57.73-.74.36Z"/>
      <path class="cls-1" d="M111.1,86.53s0,0,0,.01l12.88,19.22c.15-.14.36-.2.64-.19-.49-.38-.74-1.02-1.17-1.6-4.4-5.85-8.39-12.79-12.39-18.96-.14.6-.19,1.15.04,1.52h0Z"/>
      <path class="cls-1" d="M124.18,106.22l-.31,1.04c.68-.46,1.34-.87,2.02-1.35l-1.47.52c-.06-.02-.14-.1-.25-.21h0Z"/>
      <path class="cls-1" d="M123.99,105.76l.23.34-.04.12c.1.11.19.19.25.21l1.47-.52c-.58.03-.97-.11-1.27-.34-.28-.01-.49.05-.64.19Z"/>
      <path class="cls-1" d="M110.07,86.33c3.93,7.01,10.43,13.42,13.8,20.93-.17-.65-.16-1.1,0-1.38-2.45-2.96-11.17-16.74-12.78-19.34l-.78-1.17c.17.36.43.15.74-.36-.59-.21-.97-.39-1.16-.56-.51.07-.3,1.05.17,1.89Z"/>
      <path class="cls-1" d="M109.9,84.44c.19.17.56.36,1.16.56-.57-.45-.93-.59-1.16-.56Z"/>
      <path class="cls-1" d="M111.11,86.54c1.61,2.6,10.33,16.38,12.78,19.34.03-.05.07-.08.11-.12l-12.88-19.22h0Z"/>
      <path class="cls-1" d="M123.88,105.88c-.17.28-.18.74,0,1.38l.31-1.04c-.09-.09-.18-.2-.3-.34Z"/>
      <path class="cls-1" d="M124.22,106.1l-.23-.34s-.08.07-.11.12c.12.14.21.25.3.34l.04-.12Z"/>
      <path class="cls-1" d="M136.48,97.77c.05-.16.1-.3.15-.45-.09.15-.17.31-.25.49.04-.01.07-.03.1-.04Z"/>
      <path class="cls-1" d="M136.37,97.81c.08-.17.16-.34.25-.49.54-1.5,1.46-2.02,2.76-1.53-.31-.15-.58-1.75-2.35-1.35-1.41.69.04,2.38-1,3.07-.91.6-2.19-.28-3.24.09-.59.2-.68.99-1.12,1.32-.38.29-1.25.15-1.51.43-.61.66-1.51,3.44-1.57,4.53,1.47-3.25,4.56-4.96,7.78-6.08Z"/>
      <path class="cls-1" d="M136.62,97.33c-.05.15-.11.29-.15.45-.03.01-.07.02-.1.04-.02.03-.03.06-.05.1-3.32,1.15-5.92,2.73-7.73,5.98,3.57-2.55,7.77-4.9,10.79-8.09-1.14-.17-2.06.35-2.76,1.53h0Z"/>
      <path class="cls-1" d="M136.32,97.91s.03-.06.05-.1c-3.22,1.12-6.31,2.83-7.78,6.08,1.81-3.25,4.41-4.83,7.73-5.98Z"/>
      <path class="cls-1" d="M136.62,97.33c.7-1.18,1.62-1.7,2.76-1.53-1.3-.49-2.21.03-2.76,1.53Z"/>
      <path class="cls-1" d="M110.69,66.03c-.08.24-.17.49-.31.78l.29-.49c0-.1,0-.19.01-.28h0Z"/>
      <path class="cls-1" d="M114.74,64.82c-.09-.02-.18-.05-.3-.04.08.03.19.04.3.04Z"/>
      <path class="cls-1" d="M114.47,64.86s-.03-.05-.04-.08c-.4-.26-1.64.54-1.34-.67.02,0,.03,0,.05,0-.27.04-.58.05-.89.06.21.28.35.73.35,1.32.17-.19.36-.26.48-.02.21.43.04.95-.2,1.23.25-.01.43.08.56.25-.06-1,.54-1.75,1.67-.81-.4-.2-.54-1.01-.63-1.27h0Z"/>
      <path class="cls-1" d="M114.43,64.78s.03.05.04.08c-.01-.04-.03-.07-.04-.08Z"/>
      <path class="cls-1" d="M114.43,64.78c.12,0,.21.01.3.04.33,0,.74-.09,1.05-.04-.93-.88-.55-.92.68-.67-.52.05-1.1-.63-1.35-.67-.51.33-1.15.55-1.92.66.64-.13,1,.6,1.24.68h0Z"/>
      <path class="cls-1" d="M110.89,64.77c.08-.27.19-.47.31-.62-.27-.01-.52-.01-.8-.04.3.1.45.35.5.67Z"/>
      <path class="cls-1" d="M113.73,68c.02.27.03.55.02.83h.67c-.3-.22-.54-.51-.7-.83h0Z"/>
      <path class="cls-1" d="M113.44,66.94c-.13-.17-.31-.27-.56-.25-.16.18-.34.25-.47.12.41.68.88,1.37,1.35,2.02,0-.27,0-.56-.02-.83-.18-.35-.28-.72-.3-1.06Z"/>
      <path class="cls-1" d="M111.4,64.77c.45.39.56,1.1.88,1.77-.08-.35.1-.81.32-1.06,0-.59-.14-1.04-.35-1.32-.33.01-.68,0-1.05-.01-.12.15-.22.35-.31.62.05.32,0,.73-.19,1.26,0,.1-.01.18-.01.28l-.29.49c1.23.05.23-2.02,1.01-2.03Z"/>
      <path class="cls-1" d="M112.25,64.16c.31-.01.61-.02.89-.06.02,0,.03,0,.05,0,.77-.11,1.41-.33,1.92-.66-.61-.11-1.38.08-2.03,0l.68-1.34c-1.44-.17-2.61.84-3.38,2.02.29.03.54.03.8.04.33-.42.76-.38,1.05.01h0Z"/>
      <path class="cls-1" d="M111.19,64.15c.37.02.72.03,1.05.01-.3-.4-.72-.43-1.05-.01Z"/>
      <path class="cls-1" d="M115.78,64.78c.15-.23.51-.41.68-.67-1.23-.24-1.6-.2-.68.67Z"/>
      <path class="cls-1" d="M113.44,66.94c.18.24.26.63.3,1.06.16.31.39.6.7.83-.96-3.02-.05-1.51.67-2.7-1.13-.94-1.73-.19-1.67.81h0Z"/>
      <path class="cls-1" d="M110.89,64.77c-.05-.32-.2-.56-.5-.67-.06.89.04,1.81,0,2.7.14-.29.22-.53.31-.78.02-.51.09-.93.19-1.26Z"/>
      <path class="cls-1" d="M110.89,64.77c-.1.32-.17.74-.19,1.26.18-.53.25-.94.19-1.26Z"/>
      <path class="cls-1" d="M120.14,73.47c.02-.7.14-1.35.36-1.95-3.54,1.99-4.21-1.38,0-.67-.91-.25-1.33-.53-1.27-.82-.4.26-.91.46-1.44.51.11.36-.07.86-.66,1.66,1.46.14,2.45.56,3.01,1.27h0Z"/>
      <path class="cls-1" d="M120.5,76.24c1.94-3.29.84-2.62,0-4.72-.23.6-.34,1.25-.37,1.95.52.67.65,1.59.37,2.77h0Z"/>
      <path class="cls-1" d="M119.23,70.03c-.06.29.36.57,1.27.82-.21-.45-.43-.92-.67-1.35-.13.19-.35.37-.6.53Z"/>
      <path class="cls-1" d="M117.79,70.54c.52-.05,1.03-.25,1.44-.51.04-.17.24-.35.6-.53h-4.05c1.14.32,1.86.55,2.01,1.04h0Z"/>
      <path class="cls-1" d="M119.23,70.03c.25-.16.47-.34.6-.53-.37.18-.56.36-.6.53Z"/>
      <path class="cls-1" d="M140.49,94.3c.22-.09.52-.06.92.15-.35-.58-.66-.63-.92-.15Z"/>
      <path class="cls-1" d="M140.49,94.3c.26-.48.57-.43.92.15.6-4.04-3.37-1.5-1.35,1.35-.12-.73.01-1.33.43-1.5Z"/>
      <path class="cls-1" d="M141.4,94.45c-.39-.21-.69-.24-.92-.15-.16.3-.3.79-.43,1.5.92-.2,1.03-1.13,1.35-1.35Z"/>
      <path class="cls-1" d="M140.06,95.8c.13-.71.27-1.2.43-1.5-.42.16-.55.77-.43,1.5Z"/>
      <path class="cls-1" d="M114.25,69.17c.08.09.14.18.18.28v-.63c-.06.18-.12.28-.18.35Z"/>
      <path class="cls-1" d="M114.25,69.17c-.15.16-.31.05-.49-.35.18.25.18.76.67,1.35v-.72c-.04-.1-.11-.19-.18-.28Z"/>
      <path class="cls-1" d="M114.43,70.17l.56-.33c-.05-.4-.46-.72-.56-1.02v.63c.1.23.12.48,0,.72Z"/>
      <path class="cls-1" d="M114.43,69.45v.72c.12-.24.1-.49,0-.72Z"/>
      <path class="cls-1" d="M114.25,69.17c.07-.07.13-.17.18-.35h-.67c.2.07.36.2.49.35Z"/>
      <path class="cls-1" d="M114.25,69.17c-.13-.15-.29-.28-.49-.35.18.4.34.51.49.35Z"/>
      <path class="cls-1" d="M51.72,2.74l2.02,3.37c-.81-1.68-.16-1.77-2.02-3.37Z"/>
      <path class="cls-1" d="M51.72,2.74c.68,2.29.7,1.84,2.02,3.37l-2.02-3.37Z"/>
      <path class="cls-1" d="M55.76,9.48c.57-2.21-1.21-2.44-2.01-3.37.86,1.15,1.29,1.72,1.29,1.72,0,0-.43-.57-1.29-1.72.27.56,1.57,4.31,2.01,3.37Z"/>
      <path class="cls-1" d="M50.67,1.69l1.05,1.05-.68-1.35c-.11.26-.24.35-.38.29Z"/>
      <path class="cls-1" d="M51.05,1.39l.68,1.35c-.15-.51,0-1.11-.68-1.35Z"/>
      <path class="cls-1" d="M50.37,1.39c.19.79.88.95,1.35,1.35l-1.05-1.05c-.09-.03-.19-.12-.29-.29Z"/>
      <path class="cls-1" d="M50.37,1.39l.29.29c.14.05.26-.03.38-.29-.21.06-.47-.07-.67,0Z"/>
      <path class="cls-1" d="M50.67,1.69l-.29-.29c.1.17.2.26.29.29Z"/>
      <path class="cls-1" d="M100.27,107.94c.13-.57-.09-1.39,0-2.02-.08.61-.31.83-.67.67v1c.14.34.35.37.67.35Z"/>
      <path class="cls-1" d="M100.27,105.91c-.25.15-.44.53-.67.67.37.16.59-.07.67-.67Z"/>
      <path class="cls-1" d="M104.99,118.05l-2.69-.67-.68,2.02c.16-1.83.07-3.28-2.02-3.38-.32-1.3,1.5.02,1.33-1.33-2.07.29.02-1.88-2.01-.69v-2.03c1.66,1.15,1.16.07,2.02-.67.51-.44,2.07-1.56,2.02-1.68-1.22-3.03-1.69-1.76-2.69-1.69-.18.78-.85,2.49-1.32,3-.49.54-1.61-1.03-1.39,1.04l-2.01-2.69v.67c0,1.14.48,3.43.67,4.72.17,1.13,1.17,2.53.67,4.04-.94.23-.82-1.14-1.34-2.02-.07-.06-.12-.11-.19-.16-.5-.32-1.66-.69-.49-1.18v-.67c-.43.03-1.06-.1-1.35,0l-.68.67c1.76-.45,1.9,1.99,0,1.35,2.42.77,4.57,3.95,4.37,6.22.02-.02.05-.05.07-.07l1.63.59c.23-.15.42-.5.68-.67-.56-1.75.03-1.94,1.35-.67.22-.23.42-.49.67-.67-.45-1.76,1.83-3.48,3.37-2.02.05-.43-.08-.94,0-1.35h0Z"/>
      <path class="cls-1" d="M97.23,122.93c-.1,1.09-.73,1.97-2.15,2.28l-.88.94c1.42-.93,3.16-1.69,4.72-2.7l-1.63-.59s-.05.05-.07.07h0Z"/>
      <path class="cls-1" d="M99.6,122.77c.39-.27.93-.42,1.35-.67-1.32-1.26-1.91-1.08-1.35.67Z"/>
      <path class="cls-1" d="M101.62,121.42c1.08-.79,2.21-1.37,3.37-2.02-1.54-1.46-3.82.26-3.37,2.02Z"/>
      <path class="cls-1" d="M92.86,116.7c.49,1.01,3.74,5.73,3.49,7.14.29-.3.58-.61.88-.91.2-2.27-1.96-5.46-4.37-6.23h0Z"/>
      <path class="cls-1" d="M94.2,126.14c.58-.65,1.21-1.32,1.85-2-.7.04-3.25-.03-1.85,2Z"/>
      <path class="cls-1" d="M97.23,122.93c-.3.31-.59.61-.88.91-.02.11-.06.21-.12.27-.01.01-.08.02-.17.03-.64.68-1.27,1.35-1.85,2l.88-.94c1.42-.31,2.05-1.19,2.15-2.28h0Z"/>
      <path class="cls-1" d="M92.86,115.35c-.03.09.93,1.29,0,1.35,1.9.64,1.76-1.8,0-1.35Z"/>
      <path class="cls-1" d="M111.74,59.38c.17.33.11.73-.13,1.21l2.15-3.23c-1.05.36-1.44,1.2-2.02,2.02Z"/>
      <path class="cls-1" d="M111.06,61.41c1.2-.77,2.64-2.63,2.7-4.05l-2.15,3.23c-.13.25-.3.52-.54.82Z"/>
      <path class="cls-1" d="M111.74,59.38c-1.06,1.5-.54,1.42-.67,2.02l.54-.82c.24-.48.3-.88.13-1.21h0Z"/>
      <path class="cls-1" d="M111.06,61.41c.25-.3.41-.56.54-.82l-.54.82Z"/>
      <path class="cls-1" d="M116.05,63.71s.04.03.05.04c0-.02.02-.04.03-.06-.03,0-.06.02-.08.02Z"/>
      <path class="cls-1" d="M116.14,63.68c.05-.08.14-.17.32-.25-.44-.03-.9.02-1.35,0,.4.03.71.13.95.27.03,0,.06-.01.08-.02h0Z"/>
      <path class="cls-1" d="M116.14,63.68s-.03.04-.03.06c.14.1.27.22.35.36v-.67c-.06.14-.18.22-.32.25h0Z"/>
      <path class="cls-1" d="M116.14,63.68c.14-.04.25-.11.32-.25-.17.09-.26.17-.32.25Z"/>
      <path class="cls-1" d="M116.11,63.74s-.03-.03-.05-.04c-.23.02-.54-.06-.95-.27.25.04.83.72,1.35.67-.29-.11-.39-.23-.35-.36h0Z"/>
      <path class="cls-1" d="M116.05,63.71c-.24-.15-.55-.24-.95-.27.4.21.71.3.95.27Z"/>
      <path class="cls-1" d="M116.11,63.74c-.04.13.06.25.35.36-.08-.15-.2-.26-.35-.36Z"/>
      <path class="cls-1" d="M117.11,110.48c-.35-.64-.56-1.73-.64-3.3l-.69-1.94c-.05.7-.33,2.34-1.02,2.69-1.42.71-.4-1.53-1.2-1.96-.14.2-.32.37-.54.51l-.27,2.13c-.27-.31-.63-.54-1.01-.67.39,1.35.73,2.77,1.35,4.05.18.37-.17,1.28.67,1.35.29-1.05,1.64-2.14,2.02-.67-.04-1.01.56-1.82,1.33-2.18h0Z"/>
      <path class="cls-1" d="M117.11,110.48c-.77.35-1.37,1.17-1.33,2.18,1.41-.59,3.28-1.28,4.05-2.7-1.26,1.38-2.16,1.54-2.72.52Z"/>
      <path class="cls-1" d="M117.11,110.48c.4-.18.85-.24,1.28-.12-.64-2.01,0-5.18-2.61-5.12l.69,1.94c.07,1.57.29,2.66.64,3.3Z"/>
      <path class="cls-1" d="M119.03,110.66l.79-.71c-.26.1-.67.44-.98.6.06.04.13.05.19.1Z"/>
      <path class="cls-1" d="M118.85,110.56c-.16.09-.29.13-.36.07-.04-.09-.07-.18-.1-.27-.44-.12-.88-.06-1.28.12.56,1.02,1.46.86,2.72-.52l-.79.7c-.06-.05-.13-.06-.19-.1Z"/>
      <path class="cls-1" d="M110.39,114c-1.42.15-1.59,0-2.7-.67-.59.36-.17,1.22-.62,1.72-1.49,1.64-1.48-.11-2.08,3,.29.08.49.15.61.23.18,0,.42.15.74.44-.35-1.93,2.42-4.04,4.05-2.7l-.46-.33c-.01-.59.4-1.18.46-1.7Z"/>
      <path class="cls-1" d="M106.34,118.72c1.52-.9,2.69-1.84,4.05-2.7-1.63-1.35-4.4.77-4.05,2.7Z"/>
      <path class="cls-1" d="M104.99,119.4c.44-.25.92-.42,1.35-.67-.32-.3-.56-.43-.74-.44.4.26.06.57-.61,1.12h0Z"/>
      <path class="cls-1" d="M105.6,118.28c-.13-.08-.32-.16-.61-.23-.08.41.05.92,0,1.35.14-.72.29-1.13.61-1.12Z"/>
      <path class="cls-1" d="M105.6,118.28c-.32-.01-.47.39-.61,1.12.67-.55,1.01-.86.61-1.12Z"/>
      <path class="cls-1" d="M110.39,111.31c-.18.08-.47-.08-.68,0-.83.33-1.2.43-2.02.67-.23.07-.48.61-.67.67.26.17.45.54.67.67,1.2-1.18,2.18-.87,2.7.67.09-.88-.06-1.81,0-2.7h0Z"/>
      <path class="cls-1" d="M111.74,111.98c-.21-.09-.61.1-.67,0-.09,1.28.51,1.89-.67,2.02.43.23.65.51.66.83.57-.44,1.2-.79,1.88-1.06-.29-.21-.23-1.09.16-1.8h-.67c.3,2.81-.98,2.81-.67,0h0Z"/>
      <path class="cls-1" d="M113.76,113.33c-.09.11-.16.17-.24.24.3-.09.6-.18.91-.24-.22.03-.45-.02-.67,0h0Z"/>
      <path class="cls-1" d="M112.93,113.78c-.68.27-1.31.62-1.88,1.06,0,.34-.21.74-.66,1.19,1.35-.85,3.27-1.06,4.05-2.7-.32.06-.62.15-.91.24-.26.25-.46.31-.59.21Z"/>
      <path class="cls-1" d="M112.93,113.78c.19-.08.39-.15.59-.21.08-.07.15-.13.24-.24-.85-.06-.5-.98-.67-1.35-.38.72-.44,1.59-.16,1.8Z"/>
      <path class="cls-1" d="M113.52,113.57c-.2.06-.4.14-.59.21.13.09.33.03.59-.21Z"/>
      <path class="cls-1" d="M107.69,113.33c1.11.67,1.28.83,2.7.67-.51-1.54-1.49-1.86-2.7-.67Z"/>
      <path class="cls-1" d="M111.04,114.84c0-.33-.23-.61-.66-.83-.05.52-.47,1.1-.46,1.69l.46.33-.05-.6c.23-.22.47-.41.71-.59h0Z"/>
      <path class="cls-1" d="M111.04,114.84c-.24.19-.48.37-.71.59l.05.6c.45-.45.67-.85.66-1.19h0Z"/>
      <path class="cls-1" d="M114.61,112.82c-.16.07-.32.15-.48.25.09.03.19.1.3.26.01-.21.08-.37.18-.51Z"/>
      <path class="cls-1" d="M114.61,112.82c-.09.14-.16.3-.18.51.85-.11.99-.52,1.35-.67-.39-.06-.78,0-1.17.16Z"/>
      <path class="cls-1" d="M113.76,113.33c.11-.23.23-.3.37-.26.16-.1.32-.19.48-.25.24-.35.7-.45,1.17-.16-.38-1.47-1.73-.38-2.02.67h0Z"/>
      <path class="cls-1" d="M114.61,112.82c.39-.16.79-.23,1.17-.17-.47-.28-.93-.18-1.17.17Z"/>
      <path class="cls-1" d="M114.13,113.07c-.12.08-.25.16-.37.26.22-.02.45.03.67,0-.11-.15-.21-.23-.3-.26h0Z"/>
      <path class="cls-1" d="M113.76,113.33c.12-.1.25-.18.37-.26-.14-.04-.26.03-.37.26Z"/>
      <path class="cls-1" d="M98.92,123.44h.68v-.67c-.11.39-.24.67-.68.67Z"/>
      <path class="cls-1" d="M98.92,123.44c.44,0,.57-.28.68-.67-.25.18-.44.52-.68.67Z"/>
      <path class="cls-1" d="M102.3,122.77h.34c-.13-.03-.26-.05-.34,0Z"/>
      <path class="cls-1" d="M102.97,122.77h-.33c.13.03.25.05.33,0Z"/>
      <path class="cls-1" d="M104.32,121.42l-.67.67c.34-.08.53-.61.67-.67Z"/>
      <path class="cls-1" d="M101.62,121.42l-.67.67c.26-.16.47-.45.67-.67Z"/>
      <path class="cls-1" d="M100.95,122.1l.67-.67c-.26.19-.46.45-.67.67Z"/>
      <path class="cls-1" d="M111.56,56.92c.07-.11.15-.2.23-.3-.09-.07-.13-.32-.1-.78-.1.34-.33.62-.63.85.3,0,.44.09.5.23Z"/>
      <path class="cls-1" d="M111.79,56.62c.19-.23.39-.44.62-.6l-.67-.67c.03.18,0,.34-.05.5-.03.46,0,.71.1.78Z"/>
      <path class="cls-1" d="M111.06,58.04c.1-.39.28-.77.5-1.12-.06-.14-.2-.24-.5-.23-.05.43,0,.91,0,1.35Z"/>
      <path class="cls-1" d="M111.79,56.62c-.08.1-.16.19-.23.3.09.22-.06.57-.5,1.12.46-.53,1.48-.71,1.35-2.02-.3.49-.5.69-.62.6Z"/>
      <path class="cls-1" d="M111.79,56.62c.11.08.32-.11.62-.6-.23.16-.43.37-.62.6Z"/>
      <path class="cls-1" d="M111.56,56.92c-.22.34-.4.73-.5,1.12.44-.54.59-.9.5-1.12Z"/>
      <path class="cls-1" d="M119.15,68.82v-.67c-.27.26-.27.49,0,.67Z"/>
      <path class="cls-1" d="M119.15,68.15l-.52.34c.09.21.42.2.52.33-.32-.21-.31-.43,0-.67h0Z"/>
      <path class="cls-1" d="M119.15,68.15c-.31.24-.32.47,0,.67-.27-.19-.27-.42,0-.67Z"/>
      <path class="cls-1" d="M120.73,109.73l-.23.23c.07-.03.14-.12.23-.23Z"/>
      <path class="cls-1" d="M120.73,109.73l.45-.45c-.18.11-.32.29-.45.45Z"/>
      <path class="cls-1" d="M89.64,56.41c-1.67-1.97-2.83-4.3-4.2-6.46l-.91.24c-3.43-4.97-6.94-9.99-10.55-15.07-.11.52-.24,1.04-.46,1.51-1.01,2.21-13.71,9.99-16.9,11.69l-2.87.28c-.06.47-.18.86-.33,1.22.14.98,1.11,1.94,1.68,2.83.48.74,1.89,3.23,2.02,3.37,2.16-1.81,8.41,3.03,4.72,4.72.5.34,1.15.37,1.7.12.3.21-.39,1.17-.35,1.22.04.06,1.13-.29,1.34.46.39,1.42.17,3.84.68,5.61.06.22-.07.49,0,.67.79-.6,1.51-.41,2.16.57,5.85-3.94,11.84-7.74,17.91-11.39.34-.2.81-.2,1.32-.2.51,0,1.02.1,1.53.23.43-.21,1.51-.6,1.88-.85-.12-.26-.25-.52-.37-.78h0ZM63.19,60.05c-.69-.7,1.34-2.7,2.01-2.02.69.7-1.34,2.7-2.01,2.02Z"/>
      <path class="cls-1" d="M73.51,36.62c.22-.47.35-.99.46-1.51-6.31,5.09-13.53,8.94-20.23,13.49l2.87-.28c3.2-1.7,15.89-9.48,16.9-11.69h0Z"/>
      <path class="cls-1" d="M53.41,49.81c.15-.35.27-.74.33-1.22-.32.41-.39.81-.33,1.22Z"/>
      <path class="cls-1" d="M85.28,58.01c-6.07,3.66-12.06,7.45-17.91,11.39-.65-.98-1.37-1.17-2.16-.57.32.77,1.77,2.5,2.72,1.77,6.73-4.12,13.12-9.04,20.21-12.56-.51-.12-1.02-.22-1.53-.23-.51,0-.99,0-1.32.2h0Z"/>
      <path class="cls-1" d="M57.12,56.01c1.23,1.33,5.38,1.67,4.72,4.72,3.69-1.69-2.56-6.53-4.72-4.72Z"/>
      <path class="cls-1" d="M90.15,57.03c-.19-.2-.34-.42-.51-.62.12.26.25.52.37.78.09-.06.15-.12.14-.15h0Z"/>
      <path class="cls-1" d="M85.44,49.95c-2.09-3.27-7.6-12.73-9.81-14.87-.78-.76-1.59.09-1.65.03,3.61,5.08,7.12,10.11,10.55,15.07l.91-.24Z"/>
      <path class="cls-1" d="M61.45,15.46l-1.64-.58-.48,1.53c-5.25,4.56-12.24,10.09-19.07,11.29,1.14.62,1.14,1.56.68,2.7,2.23.09,3.01,1.36,2.02,3.37,2.91,1,5.36,5.78,4.72,8.77,1.2-1.77,2.77-.65,4.72,3.37,4.75-5.61,12.38-10.53,19.56-12.14l-.17-1.94-10.33-16.36h0ZM51.73,32.42c2.03-.15,2.77,2.41,2.69,4.04-1.06-.13-3.26-3.45-2.69-4.04Z"/>
      <path class="cls-1" d="M52.4,45.9c6.41-4.11,12.93-8.39,19.55-12.14-7.18,1.6-14.8,6.53-19.55,12.14Z"/>
      <path class="cls-1" d="M59.81,14.88c-6.11,4.92-12.91,8.69-19.55,12.81,6.84-1.2,13.82-6.73,19.07-11.29l.48-1.53h0Z"/>
      <path class="cls-1" d="M42.96,33.76c1.64,2.98,2.98,5.72,4.72,8.77.64-2.99-1.81-7.77-4.72-8.77Z"/>
      <path class="cls-1" d="M40.93,30.39c.68,1.11,1.4,2.23,2.02,3.37.98-2.01.21-3.28-2.02-3.37Z"/>
      <path class="cls-1" d="M40.26,27.69c-1.28,2.6.12,1.81.68,2.7.46-1.13.46-2.08-.68-2.7Z"/>
      <path class="cls-1" d="M47.68,42.53c2.29,0,2,2.46,3.12,3.25.48,0,1.01.02,1.61.12-1.95-4.02-3.52-5.14-4.72-3.37h0Z"/>
      <path class="cls-1" d="M50.79,45.78c.35.25.84.34,1.61.12-.6-.1-1.12-.13-1.61-.12Z"/>
      <path class="cls-1" d="M73.97,32.75l-11.53-18.25c-.26-.31-.52-.62-.79-.93-.43.2-1.53,1.06-1.84,1.31l1.64.58,10.33,16.36.17,1.94c.5-.3.97-.49,1.39-.6.37-.16.65-.31.63-.4Z"/>
      <path class="cls-1" d="M71.95,33.76c.31-.17.92-.4,1.39-.6-.42.11-.89.3-1.39.6Z"/>
      <path class="cls-1" d="M61.83,13.53s-.09,0-.17.04c.26.31.53.62.79.93l-.61-.97h0Z"/>
      <path class="cls-1" d="M43.63,56.69c1.68.13,3.14-.72,2.69,1.35-.42.1-1.03-.11-1.34,0v3.37c.23.04.47-.05.67,0,.32-.73,1.51-.12,2.02-.67.15-.16-.02-1.32.63-1.7.66-.39,2.63-.47,4.09-.99l-3.72-.68c.83-.41,2.76-1.88,3.39-2.02.25-.06.29.94.8,1.31.21-.04.48-.03.87.04.27-.26,1.22-1.07,1.73-1.31-.21-.24-.35-.56-.42-.94-.22.59-.91.33-1.98-.45-.23-.16-.43-.46-.67-.67-1.37,2.09-2.49,2.32-3.37.67,1.91,2.61-1.27,3.3-.68,0-1,1.65-3.03,2.33-6.07,2.02.18.66.78.63,1.35.67h0Z"/>
      <path class="cls-1" d="M55.76,55.65v1.72c.12-.74.28-1.23.47-1.49-.18-.06-.33-.13-.47-.23Z"/>
      <path class="cls-1" d="M48.35,53.99c-3.47.47-3.08.48-6.07,2.02,3.04.3,5.06-.37,6.07-2.02Z"/>
      <path class="cls-1" d="M52.4,53.32c-1.82-1.51-1.02.37-1.8.68-.5.2-1.15-.09-1.57,0,.88,1.64,2.01,1.42,3.37-.67h0Z"/>
      <path class="cls-1" d="M55.77,57.36c.47-.42.88-.93,1.35-1.35-.34,0-.62-.05-.88-.14-.19.26-.35.74-.47,1.49Z"/>
      <path class="cls-1" d="M55.09,53.32c.07.53.05.89-.04,1.13.07.38.21.7.42.94.14-.06.25-.09.29-.04v.31c.14.1.3.17.47.23.24-.32.53-.28.88.14-.13-.14-1.55-2.63-2.02-3.37v.67h0Z"/>
      <path class="cls-1" d="M56.23,55.88c.26.08.54.14.88.14-.35-.42-.65-.45-.88-.14Z"/>
      <path class="cls-1" d="M49.03,60.36c.01-.05.09-.13.22-.22-.48.21-1,.41-1.57.59l1.35.67c-.05-.36-.07-.71,0-1.04Z"/>
      <path class="cls-1" d="M52.4,58.03c-.42.46-.96.87-1.57,1.26,1.65-.75,3.9-1.54,4.26-1.26-.19-.62.04-.85.67-.67l-2.02-.67c-.48.46,1,.5-1.35,1.35h0Z"/>
      <path class="cls-1" d="M50.83,59.3c-.48.3-.99.59-1.59.85-.12.09-.21.17-.22.22-.07.33-.05.68,0,1.04,1.87-1.13,4.29-2.09,6.07-3.37-.36-.28-2.61.51-4.26,1.26h0Z"/>
      <path class="cls-1" d="M55.09,58.04c.23-.17.44-.46.67-.67-.63-.17-.86.05-.67.67Z"/>
      <path class="cls-1" d="M55.47,55.38c-.5.23-1.46,1.05-1.73,1.31l2.02.67v-1.72c-.11-.08-.21-.16-.3-.26h0Z"/>
      <path class="cls-1" d="M47.68,60.73c.56-.18,1.08-.38,1.57-.59.3-.22.88-.53,1.59-.85.61-.39,1.15-.8,1.57-1.26-1.46.52-3.43.61-4.09.99-.65.38-.48,1.54-.63,1.7Z"/>
      <path class="cls-1" d="M52.87,56.65c.2.15.47.2.87.04-.39-.07-.67-.08-.87-.04Z"/>
      <path class="cls-1" d="M50.83,59.3c-.7.32-1.29.63-1.59.85.59-.26,1.11-.54,1.59-.85Z"/>
      <path class="cls-1" d="M55.76,55.65v-.31c-.04-.05-.15-.02-.29.04.08.1.18.19.29.26Z"/>
      <path class="cls-1" d="M52.33,51.1s.07.06.11.08c-.01-.05-.03-.09-.04-.14-.03.02-.05.04-.07.06h0Z"/>
      <path class="cls-1" d="M53.07,53.99l1.93-.65s0-.05,0-.07c-.48-.18-.46-.4.08-.64-.83.2-1.55-.03-2.04-.48-.02.36-.25.75-.66,1.16.64-.17.86.05.67.67h0Z"/>
      <path class="cls-1" d="M52.45,51.19s-.07-.06-.11-.08c.03-.01.05-.04.07-.06-.17-.84.18-1.81,1.34-2.45-1.47,1-3.44,1.65-4.72,3.04-.25,2.07,1.18-.2,2.7.62.43.24.49.9.67,1.05.41-.4.64-.79.66-1.16-.29-.26-.5-.6-.61-.98h0Z"/>
      <path class="cls-1" d="M55,53.35l.09-.03s-.05-.03-.08-.04c0,.02,0,.05,0,.07Z"/>
      <path class="cls-1" d="M52.4,51.05s.03.09.04.14c.43.29.62.62.61.98.49.45,1.21.68,2.04.48-.57-.89-1.54-1.85-1.68-2.83-.23.55-.57.97-1.01,1.24h0Z"/>
      <path class="cls-1" d="M52.4,51.05c.44-.26.78-.68,1.01-1.24-.06-.4.01-.81.33-1.22-1.16.64-1.51,1.62-1.34,2.45h0Z"/>
      <path class="cls-1" d="M52.45,51.19c.11.37.31.71.61.98.02-.35-.18-.68-.61-.98Z"/>
      <path class="cls-1" d="M53.07,53.99c.19-.62-.04-.85-.67-.67.24.21.45.51.67.67Z"/>
      <path class="cls-1" d="M55.01,53.28c.02-.2.04-.41.08-.64-.54.24-.57.45-.08.64Z"/>
      <path class="cls-1" d="M55.09,53.32v-.67c-.04.23-.06.43-.08.64.03.01.04.03.08.04h0Z"/>
      <path class="cls-1" d="M49.02,53.99c-.22.59-.45.59-.68,0,.53,1.25.76,1.25.68,0Z"/>
      <path class="cls-1" d="M49.02,53.99c-.21.04-.45-.03-.68,0,.23.59.45.59.68,0Z"/>
      <path class="cls-1" d="M49.02,53.99c.08,1.25-.14,1.25-.68,0-.6,3.3,2.58,2.61.68,0Z"/>
      <path class="cls-1" d="M104.96,79.97c-3.08-3.11-12.12-20.76-14.81-21.93l.94,1.7c-5.98,5.1-12.52,9.64-19.61,13.61-.66.82-1.17,1.78-1.55,2.89,2.51.39,4.96,5.09,4.05,7.42,1.57.02,3.15-.03,4.72,0,.22,0,.45-.01.67,0,1.87.12,3.94-.15,5.39,1.35,1.67-.98,2.2.15.68,1.35.35.14.6.31.8.48.75.14,1.44-.46,1.9-.48.82-.78,3.06-2.24,4.02-2.39.75-.12,1.26.76,1.71.73.75-.05,1.7-1.33,3.04-.36.11-2.52,4.58-4.59,6.74-3.37.41-.41.79-.65,1.12-.75.12-.11.21-.2.2-.24h0ZM79.37,76.24c-.33-.26,1.18-1.78,2.02-1.33.33.26-1.18,1.79-2.02,1.33ZM80.72,76.92c1.99.97,3.22,3.22,3.36,5.4-1.55-1.11-3.12-3.49-3.36-5.4Z"/>
      <path class="cls-1" d="M91.1,59.74l-.94-1.7c-.05,1.5-1.06,2.15-2.08,2.98-5.66,4.62-13.87,7.91-19.33,12.86.32.82.77,1.59,1.19,2.37.38-1.11.9-2.07,1.55-2.89,7.1-3.97,13.64-8.51,19.61-13.61h0Z"/>
      <path class="cls-1" d="M96.9,84.33c2.13-1.32,4.55-2.23,6.74-3.37-2.16-1.22-6.63.85-6.74,3.37Z"/>
      <path class="cls-1" d="M103.64,80.96c.2-.11.81-.48,1.12-.75-.33.11-.71.34-1.12.75Z"/>
      <path class="cls-1" d="M103.64,80.96c.52.09.95.13,1.3.12-.16-.22-.54-.2-1.3-.12Z"/>
      <path class="cls-1" d="M85.44,86.36c0,.23.02.43.05.61.01-.19,0-.39-.05-.61Z"/>
      <path class="cls-1" d="M85.44,86.36c.27.29.54.43.8.48-.2-.17-.45-.33-.8-.48Z"/>
      <path class="cls-1" d="M84.76,85.01c.14.15.62,1.11.68,1.35,1.53-1.2.99-2.33-.68-1.35Z"/>
      <path class="cls-1" d="M69.93,76.24c1.26,2.38,2.62,5.17,4.05,7.42.92-2.33-1.54-7.03-4.05-7.42Z"/>
      <path class="cls-1" d="M63.64,69.28s-.03-.08-.03-.14c-.02.03-.05.07-.07.1.03,0,.07.02.11.04Z"/>
      <path class="cls-1" d="M63.64,69.28s-.07-.04-.11-.04c-.1.11-.21.21-.35.27.1.05.47.02.67,0-.12-.02-.18-.11-.22-.22h0Z"/>
      <path class="cls-1" d="M63.54,69.23s.05-.06.07-.1c0-.19.07-.48.2-.82,0-.02,0-.05,0-.06l-.62,1.25c.11-.2.23-.28.35-.27h0Z"/>
      <path class="cls-1" d="M63.86,68.15l-.05.1s0,.04,0,.06c.02-.06.03-.1.06-.16Z"/>
      <path class="cls-1" d="M63.54,69.23c-.12-.02-.24.06-.35.27.14-.06.25-.15.35-.27Z"/>
      <path class="cls-1" d="M63.61,69.14c0,.06.02.1.03.14.07.04.14.11.22.22-.03-.34-.06-.59-.06-.81-.04.18-.11.32-.19.45Z"/>
      <path class="cls-1" d="M63.64,69.28c.04.12.1.2.22.22-.08-.11-.15-.18-.22-.22Z"/>
      <path class="cls-1" d="M63.86,68.15c0,.2-.03.38-.06.54,0,.22.03.47.06.81-.08-.41.12-1.04,0-1.35Z"/>
      <path class="cls-1" d="M63.8,68.31c-.13.35-.2.63-.2.82.08-.12.15-.27.19-.45,0-.15,0-.28,0-.38Z"/>
      <path class="cls-1" d="M63.8,68.69c.04-.16.06-.34.06-.54-.03.06-.03.1-.06.16-.01.1-.02.22,0,.38Z"/>
      <path class="cls-1" d="M86.79,99.17c-.09-.09-.16-.2-.24-.29.06.15.14.26.24.29Z"/>
      <path class="cls-1" d="M90.96,106.71c.26-.35,1.43-.47,1.9-.8-.25-3.46,1.13-3.56-2.69-5.06l2.01-.35c.53-1.92-.9-3.25-1.34-4.71-.06-.21.06-.47,0-.67-.06-.2.05-.45,0-.67-.55.07-.94.05-1.22-.04-.63.87-1.73,1.34-2.85,1.43-.35.57-.53,2.32-.22,3.03.08.1.15.21.24.29.49.16,1.92-.77,2.02-.68.62.55.69,3.11-1,2.7-.79-.19-.92-1.96-1.02-2.02-.06-.04-1.28.79-1.34.68.1-.65-.32-2.08-.34-3.07-.19.42-.4.71-.66.86-.03.23-.15.51-.36.85.55.89.8,2.02,1.36,2.86.3.44,5.04,5.81,4.47,7.49l.91-.91c.06-.36-.18-.8.12-1.22h0Z"/>
      <path class="cls-1" d="M84.45,97.64c.25-.15.47-.44.66-.86,0-.47.06-.85.34-.99-.65.41-1.74.74-2.7,1.35,1.13-.37,1.82-.22,1.7.5Z"/>
      <path class="cls-1" d="M86.79,95.8s-.01.03-.02.04c1.12-.09,2.22-.56,2.85-1.43-.75-.24-.52-1.03.54-1.98-1.58,1.03-3.31,2.47-4.72,3.37.22-.11.93.05,1.35,0Z"/>
      <path class="cls-1" d="M89.48,109.28l1.34.67c.08-.65-.1-1.4,0-2.02l-.91.91c-.07.2-.2.36-.44.44Z"/>
      <path class="cls-1" d="M82.74,97.15c.37.47,1.06.88,1.35,1.35.21-.34.32-.62.36-.85-.46.28-1.03.12-1.7-.5Z"/>
      <path class="cls-1" d="M84.45,97.64c.11-.72-.58-.87-1.7-.5.68.62,1.24.77,1.7.5Z"/>
      <path class="cls-1" d="M90.83,94.45c-.13-.6-.69-1.29-.67-2.02.07.82-.16,1.47-.54,1.98.27.09.67.11,1.22.04h0Z"/>
      <path class="cls-1" d="M89.62,94.41c.38-.52.61-1.17.54-1.98-1.06.96-1.29,1.74-.54,1.98Z"/>
      <path class="cls-1" d="M93.13,85.33c-.34.03-.67.04-.98.03-1.06.85-2.04,1.26-2.93,1.24.56.4.6,1.19,1.61,1.77.3-1.36,1.08-2.36,2.3-3.05h0Z"/>
      <path class="cls-1" d="M90.83,88.38c2.01-1.31,4.06-2.8,6.07-4.05-1.38.57-2.64.9-3.77,1-1.22.68-2,1.69-2.3,3.05Z"/>
      <path class="cls-1" d="M93.87,84.7c-.45.03-.96-.86-1.71-.73-.96.16-3.19,1.61-4.02,2.39.54-.02.85.08,1.09.25.89.02,1.87-.39,2.93-1.24.31.01.64,0,.98-.03.97-.54,2.21-.88,3.77-1-1.34-.97-2.28.31-3.04.36Z"/>
      <path class="cls-1" d="M96.9,84.33c-1.55.12-2.8.46-3.77,1,1.13-.1,2.38-.43,3.77-1Z"/>
      <path class="cls-1" d="M84.76,89.73c1.1.04,1.36.47,1.15.97.74-.33,1.49-.65,2.22-.97-1.17-.39-2.32-.82-3.37,0h0Z"/>
      <path class="cls-1" d="M81.67,92.41c.07.06.12.15.17.24l.04-.17c.2-.09.4-.18.6-.27-.18-.04-.35-.1-.52-.18-.09.15-.19.26-.29.38h0Z"/>
      <path class="cls-1" d="M82.48,92.22c-.2.09-.4.17-.6.27l-.04.17c.18.4.11,1.04-.45,1.8,2.3-1.53,4.65-3.35,6.74-4.72-.73.31-1.48.64-2.22.97-.35.83-2.04,1.85-3.44,1.52Z"/>
      <path class="cls-1" d="M84.76,89.73c.02.1-1.58.61.67.68-.08.25-.16.44-.26.61.25-.11.49-.21.74-.32.21-.5-.05-.93-1.15-.97Z"/>
      <path class="cls-1" d="M81.67,92.41c.1-.12.2-.24.29-.38.17.09.34.15.52.18.51-.23,1.01-.45,1.51-.67-1.05-.28-2.33-1.65-3.27-1.13l-.67,2.69c.64-.86,1.28-.98,1.63-.69h0Z"/>
      <path class="cls-1" d="M85.92,90.7c-.25.11-.49.21-.74.32-.31.55-.72.65-1.18.52-.5.22-1,.45-1.51.67,1.4.32,3.09-.69,3.44-1.52Z"/>
      <path class="cls-1" d="M81.67,92.41c-.41.46-.95.7-1.63.69.78.11,1.04.75,1.35,1.35l.45-1.8c-.04-.1-.09-.18-.17-.24h0Z"/>
      <path class="cls-1" d="M81.84,92.65l-.45,1.8c.56-.75.63-1.4.45-1.8Z"/>
      <path class="cls-1" d="M81.67,92.41c-.35-.29-.99-.17-1.63.69.68,0,1.22-.23,1.63-.69Z"/>
      <path class="cls-1" d="M43.1,43.22c.02-.29.16-.54.53-.69-.83-.78-1.45-1.72-2.02-2.7.53,1.42.31,1.87-.67,1.35.79.43,1.5,1.13,2.17,2.04h0Z"/>
      <path class="cls-1" d="M44.3,45.22c-.59-.47-1.25-1.34-1.2-2-.67-.91-1.38-1.62-2.17-2.04.74,1.29,2.31,4.4,3.37,4.05h0Z"/>
      <path class="cls-1" d="M41.61,39.83l-.67,1.35c.98.53,1.21.08.67-1.35Z"/>
      <path class="cls-1" d="M43.1,43.22c.42.58.83,1.23,1.2,2-.27-.88-.36-1.84-.67-2.7-.37.15-.51.4-.53.69h0Z"/>
      <path class="cls-1" d="M44.3,45.22c-.37-.78-.78-1.42-1.2-2-.04.66.62,1.53,1.2,2Z"/>
      <path class="cls-1" d="M70.6,87.71c.76.2,1.33.58,1.58,1.02.3-.15.67-.26,1.11-.35-.03-.07-1.15-.62-1.35-.67-.37-.1-.92.07-1.35,0Z"/>
      <path class="cls-1" d="M72.19,88.73c-.25-.44-.82-.82-1.58-1.02.21.45.6,1.21.73,1.85.13-.35.41-.62.85-.83Z"/>
      <path class="cls-1" d="M71.28,90.4c.56-.38,2.68-.26,2.02-2.02-.45.08-.81.2-1.11.35.31.54.13,1.17-.91,1.68h0Z"/>
      <path class="cls-1" d="M72.19,88.73c-.44.21-.72.49-.85.83.07.33.08.64-.06.84,1.04-.5,1.22-1.13.91-1.68Z"/>
      <path class="cls-1" d="M69.93,83.66c0,.96,0,1.86,0,2.7l1.35-.68c-.5-.62-.87-1.37-1.35-2.02Z"/>
      <path class="cls-1" d="M69.93,83.66c-3.4.11-.33,2.08,0,2.7,0-.83,0-1.73,0-2.7Z"/>
      <path class="cls-1" d="M71.28,85.68c.3.5.26.86.07,1.06.23.04.44.35.61.96-.04-.44.06-.91,0-1.35-.15-.22-.47-.42-.67-.67h0Z"/>
      <path class="cls-1" d="M69.93,86.36c.22.41.48.93.67,1.35.11-.39.25-.65.39-.8-.32.04-.73-.12-1.07-.55Z"/>
      <path class="cls-1" d="M71.95,87.71c-.16-.61-.38-.92-.61-.96-.06.06-.12.1-.2.13-.03.22-.2.5-.54.83.43.07.98-.1,1.35,0h0Z"/>
      <path class="cls-1" d="M71,86.9c-.14.16-.28.42-.39.8.34-.33.51-.61.54-.83-.05.02-.1.02-.15.03Z"/>
      <path class="cls-1" d="M71.14,86.78c.07-.04.13-.05.2-.03.19-.2.23-.56-.07-1.06l-1.35.67c.78-.08,1.19.08,1.22.42Z"/>
      <path class="cls-1" d="M71,86.9c.05-.06.1-.1.15-.13-.02-.33-.44-.5-1.22-.42.34.43.75.58,1.07.55h0Z"/>
      <path class="cls-1" d="M71.14,86.78s0,.06,0,.1c.08-.03.15-.07.2-.13-.07-.01-.13,0-.2.03h0Z"/>
      <path class="cls-1" d="M71.14,86.78c-.05.03-.1.07-.15.13.05,0,.1-.01.15-.03,0-.04,0-.07,0-.1h0Z"/>
      <path class="cls-1" d="M69.92,90.14c-.47.27-.53.84-.66.93.66-.39,1.33-.61,2.02-.67-.04.06-.91-.51-1.36-.26h0Z"/>
      <path class="cls-1" d="M71.28,90.4c-.59.43-1.39.63-2.02.67.74,1.87,1.67-.43,2.02-.67Z"/>
      <path class="cls-1" d="M71.28,90.4c-.69.06-1.36.29-2.02.67.63-.05,1.44-.25,2.02-.67Z"/>
      <path class="cls-1" d="M71.28,85.68c.08-.07.16-.08.23-.06l-.26-.44c.04.17.06.33.03.5Z"/>
      <path class="cls-1" d="M70.61,84.12l-.68-1.14v.68c.24.1.47.26.68.46Z"/>
      <path class="cls-1" d="M71.25,85.18l.26.44c.16.04.31.28.44.74-.31-2.44-1.42-2.36-2.02-3.37l.68,1.14c.31.29.55.67.64,1.06h0Z"/>
      <path class="cls-1" d="M71.25,85.18l-.64-1.06c-.21-.2-.44-.36-.68-.46.48.65.85,1.4,1.35,2.02.03-.16,0-.33-.03-.5Z"/>
      <path class="cls-1" d="M70.61,84.12l.64,1.06c-.09-.4-.33-.77-.64-1.06Z"/>
      <path class="cls-1" d="M71.28,85.68c.2.25.52.46.67.68l-.44-.74c-.08-.02-.15-.01-.23.06h0Z"/>
      <path class="cls-1" d="M71.51,85.62l.44.74c-.14-.46-.28-.69-.44-.74Z"/>
      <path class="cls-1" d="M90.16,122.1s-.6.29-.38.68c.58.98.98-.02,1.05,0-.56.32-.77-.06-.67-.67h0Z"/>
      <path class="cls-1" d="M90.83,122.77l-.67-.67c-.04.5.19.72.67.67Z"/>
      <path class="cls-1" d="M90.16,122.1c-.1.61.11.99.67.67-.49.05-.71-.18-.67-.67Z"/>
      <path class="cls-1" d="M89.82,127.12v.36c.19-.1.29-.2.31-.3-.1,0-.2-.03-.31-.07Z"/>
      <path class="cls-1" d="M89.82,126.82v.31c.11.04.21.06.31.07.03-.12-.07-.25-.31-.38Z"/>
      <path class="cls-1" d="M88.81,127.49c-.06-.21.04-.46,0-.67-.32.27-.32.49,0,.67Z"/>
      <path class="cls-1" d="M88.81,127.49c-.43-.22-.43-.45,0-.67l-.66.34.66.34h0Z"/>
      <path class="cls-1" d="M88.81,127.49c-.32-.18-.32-.41,0-.67-.43.23-.43.45,0,.67Z"/>
      <path class="cls-1" d="M93.03,108.46c-.16-.57.49-.93.49-1.2-.24-.26-.47-.61-.59-.96.07.59-.19,1.02-.77,1.3.79.81,1.64,2.82,2.16,4.43-.01-.9.36-1.76,1.22-2.07-.56.29-2.48-1.36-2.52-1.5h0Z"/>
      <path class="cls-1" d="M94.77,113.65s0,.04.01.06c.02.12-.05.25-.16.36.08.17.17.37.25.61.45-.03.9.02,1.35,0-.62-.07-1.12-.48-1.45-1.03Z"/>
      <path class="cls-1" d="M94.63,114.07c.11-.12.18-.24.16-.36,0-.02,0-.04-.01-.06-.28-.48-.44-1.05-.44-1.62-.52-1.61-1.37-3.62-2.16-4.43-.34.16-.78.28-1.33.34h1.34c-.75,2.25,1.74,5.01,1.36,6.74.02-1.6.56-1.74,1.1-.61h0Z"/>
      <path class="cls-1" d="M94.88,114.68c-.08-.23-.17-.43-.25-.61-.24.26-.7.48-1.1.61.28-.1.92.02,1.35,0Z"/>
      <path class="cls-1" d="M94.33,112.03c.21.64.37,1.21.44,1.62.33.55.83.96,1.45,1.03-.19-1.29-.68-3.58-.67-4.72-.86.32-1.23,1.17-1.22,2.07h0Z"/>
      <path class="cls-1" d="M94.77,113.65c-.08-.41-.24-.98-.44-1.62,0,.57.16,1.14.44,1.62Z"/>
      <path class="cls-1" d="M93.53,114.68c.4-.13.86-.35,1.1-.61-.54-1.13-1.08-.99-1.1.61Z"/>
      <path class="cls-1" d="M92.17,107.6c.58-.28.84-.71.77-1.3-.04-.13-.07-.26-.08-.38-.47.33-1.64.45-1.9.8-.31.42-.06.86-.12,1.22.36-.88.83-.85,1.33-.34h0Z"/>
      <path class="cls-1" d="M90.83,107.94c.56-.06,1-.17,1.33-.34-.5-.51-.98-.54-1.33.34Z"/>
      <path class="cls-1" d="M93.53,114.68s-.79-.09-.68.67c.02-.04.63-.66.68-.67Z"/>
      <path class="cls-1" d="M72.25,87.22c0,.08-.02.15-.06.22.06,0,.11-.02.19.01-.05-.07-.09-.15-.13-.23Z"/>
      <path class="cls-1" d="M72.25,87.22c.04.08.08.16.13.23.23.11.53.42.91.93-.64-1.3-.79-1.21-1.35-2.02.23.34.32.63.3.86Z"/>
      <path class="cls-1" d="M72.39,87.45c-.08-.04-.13-.02-.19-.01-.05.1-.13.19-.24.27.2.05,1.32.61,1.35.67-.36-.3-.68-.59-.91-.93Z"/>
      <path class="cls-1" d="M72.39,87.45c.24.33.55.62.91.93-.39-.51-.69-.82-.91-.93Z"/>
      <path class="cls-1" d="M71.95,87.71c.04-.18.13-.25.24-.27.03-.07.05-.14.06-.22-.14-.25-.25-.52-.3-.86.06.44-.04.91,0,1.35Z"/>
      <path class="cls-1" d="M71.95,86.36c.04.34.16.61.3.86.02-.23-.07-.52-.3-.86Z"/>
      <path class="cls-1" d="M72.2,87.44c-.11.02-.2.08-.24.27.11-.07.19-.17.24-.27Z"/>
      <path class="cls-1" d="M96.9,106.59c.01,1.45-.09,2.11-.25,2.39l.29-.08c.19.62.86.59,2.01-.07-.42-.2-.51-1.02.24-1.85-.08-.06-.17-.17-.27-.38-.05.07-.11.09-.16.13-.69.68-.54,2.34-1.86-.13Z"/>
      <path class="cls-1" d="M95.55,109.28l.62-.17c-.24-.1-.48-.27-.62.17Z"/>
      <path class="cls-1" d="M98.76,106.72c.06-.05.11-.07.16-.13-.06.04-.11.08-.16.13Z"/>
      <path class="cls-1" d="M99.19,106.97c.12-.13.25-.26.41-.38-.17.1-.51-.1-.68,0,.09.21.18.33.27.38Z"/>
      <path class="cls-1" d="M99.19,106.97c-.75.83-.66,1.65-.24,1.85.39-.22.82-.52,1.32-.89-.32.02-.53,0-.67-.35v-1c-.12.38-.26.49-.41.38Z"/>
      <path class="cls-1" d="M99.19,106.97c.15.1.28,0,.41-.38-.16.13-.29.26-.41.38Z"/>
      <path class="cls-1" d="M98.95,108.82c-1.15.67-1.82.69-2.01.07l-.29.08c-.13.24-.31.21-.48.13l-.62.17,2.01,2.69c-.22-2.07.9-.5,1.39-1.04.47-.51,1.14-2.22,1.32-3-.48.84-1,1.04-1.32.89Z"/>
      <path class="cls-1" d="M100.27,107.93c-.49.37-.93.66-1.32.89.32.16.83-.04,1.32-.89Z"/>
      <path class="cls-1" d="M102.24,106.54c.43.28.7.95.49,2.03,2.73.24.55,4.46-1.79,2.73l3.04,3.37c.17-3.46,1.89-1.68,3.03-2.02-.75-.86-.55-1.28.26-.9-.57-.49-.97-1.61-1.06-1.65-.57-.25-1.56,1.87-1.25-1.95-.07-.05-.13-.1-.19-.15l-1.8.6c-.45-1.08.58-1.63.67-2.02.13-.57-.09-1.39,0-2.02-.18.99-.72,1.73-1.4,1.98h0Z"/>
      <path class="cls-1" d="M101.39,106.48c.3-.12.6-.09.85.07.68-.25,1.22-.99,1.4-1.98-.63.4-2.29.72-3.37,1.35.53.17.89.36,1.12.56Z"/>
      <path class="cls-1" d="M100.27,107.94c.21-.72.59-1.16.98-1.38-.32-.1-.65-.3-.98-.64-.09.64.13,1.45,0,2.02Z"/>
      <path class="cls-1" d="M101.39,106.48c-.23-.2-.59-.4-1.12-.56.33.34.66.54.98.64.05-.02.09-.06.14-.08Z"/>
      <path class="cls-1" d="M102.73,108.58c.21-1.09-.06-1.75-.49-2.03-.22.08-.46.11-.71.07.35.46-.05.96-1.26,1.32,1-.07,1.47-1.34,2.69,1.69.05.12-1.52,1.24-2.02,1.68,2.34,1.73,4.52-2.49,1.79-2.73h0Z"/>
      <path class="cls-1" d="M102.24,106.54c-.25-.16-.55-.19-.85-.07.05.05.1.09.14.14.25.03.49,0,.71-.07Z"/>
      <path class="cls-1" d="M101.53,106.62c-.09-.01-.18-.03-.28-.06-.39.22-.76.65-.98,1.38,1.21-.35,1.62-.85,1.26-1.32h0Z"/>
      <path class="cls-1" d="M101.39,106.48s-.09.05-.14.08c.09.03.19.05.28.06-.04-.05-.09-.1-.14-.14h0Z"/>
      <path class="cls-1" d="M107.69,111.98c-.15-.02-.28-.11-.41-.23-.81-.38-1.01.04-.26.9.2-.06.44-.6.67-.67h0Z"/>
      <path class="cls-1" d="M96.9,101.87c-1.18.62-2.29-.12-3.15-1.36.36,1.19.56,2.17.46,2.29-.17.1-.31.24-.45.39.69,0,2.7.47,3.14.71-1.48-1.07-1.12-1.53.67-1.35-.25-.19-.43-.49-.67-.67Z"/>
      <path class="cls-1" d="M93.53,107.26c.03-1.25-.02-2.52,0-3.77-.39.57-.62,1.37-.68,2.43.38.22.61.67.68,1.35Z"/>
      <path class="cls-1" d="M92.25,96.93c-.14-.66-.21-1.27-.18-1.79-.14.33-.44.25-.88-.25-.07.07-.17.15-.36.23l.66.34-.66.34c.47-.1.96.39,1.42,1.13h0Z"/>
      <path class="cls-1" d="M96.9,103.89c.27-.34.43-1.15.67-1.35-1.8-.18-2.16.28-.67,1.35Z"/>
      <path class="cls-1" d="M91.19,94.89c.44.5.74.59.88.25.01-.26.04-.5.11-.7-.38.09-.92-.06-1.35,0,.41.13.51.28.36.44Z"/>
      <path class="cls-1" d="M93.53,103.22s.11-.04.23-.04c.14-.15.28-.29.45-.39.09-.12-.1-1.1-.46-2.29-.7-1.01-1.24-2.35-1.5-3.57-.46-.75-.95-1.23-1.42-1.14.44,1.46,1.87,2.79,1.34,4.71l-2.01.35c3.82,1.5,2.44,1.6,2.69,5.06.05-1.06.29-1.85.68-2.43v-.27Z"/>
      <path class="cls-1" d="M90.83,95.12c.18-.08.29-.16.36-.23-.11-.12-.23-.27-.36-.44.05.22-.06.48,0,.67Z"/>
      <path class="cls-1" d="M90.83,94.45c.13.18.25.32.36.44.15-.17.05-.31-.36-.44Z"/>
      <path class="cls-1" d="M92.86,105.91c.04.14.07.26.08.38.12.36.35.7.59.97-.07-.68-.29-1.13-.68-1.35h0Z"/>
      <path class="cls-1" d="M92.94,106.29c-.02-.12-.04-.25-.08-.38,0,.13.04.26.08.38Z"/>
      <path class="cls-1" d="M92.25,96.93c.6.97,1.14,2.37,1.5,3.57.86,1.24,1.97,1.98,3.15,1.36-2.21-1.68-3.88-4.71-4.72-7.42,0,.32-.04.55-.11.7-.03.51.03,1.12.18,1.79h0Z"/>
      <path class="cls-1" d="M92.18,94.45c-.06.19-.09.44-.11.7.07-.15.1-.38.11-.7Z"/>
      <path class="cls-1" d="M92.25,96.93c.27,1.22.8,2.56,1.5,3.57-.37-1.2-.91-2.6-1.5-3.57Z"/>
      <path class="cls-1" d="M93.53,107.26c.77.46,1.36,1.2,1.8,2.18.06-.05.12-.1.22-.16-.16-1.32-.06-2.18,1.35-2.7,0-.55-1.28-1.43.67-2.02-1.23.39-1.45.16-.67-.67-1.38.7-2.5,1.82-3.37,3.37Z"/>
      <path class="cls-1" d="M97.57,104.56c-.22-.19-.35-.5-.67-.67-.78.84-.56,1.06.67.67Z"/>
      <path class="cls-1" d="M95.55,109.96v-.67c-.1.05-.16.11-.22.16.08.17.16.33.22.52h0Z"/>
      <path class="cls-1" d="M95.33,109.44c-.44-.98-1.03-1.72-1.8-2.18,0,.26-.65.63-.49,1.2.04.14,1.96,1.79,2.52,1.5-.48-.1-.53-.28-.22-.52Z"/>
      <path class="cls-1" d="M95.55,109.96c-.07-.19-.15-.35-.22-.52-.31.24-.26.41.22.52Z"/>
      <path class="cls-1" d="M96.17,109.11l.48-.13c.16-.28.26-.94.25-2.39-1.41.52-1.5,1.38-1.35,2.7.14-.44.38-.28.62-.17Z"/>
      <path class="cls-1" d="M96.65,108.98l-.48.13c.17.08.35.11.48-.13Z"/>
      <path class="cls-1" d="M93.53,103.48c-.02,1.26.03,2.52,0,3.77.87-1.55,1.99-2.67,3.37-3.37-.44-.24-2.45-.7-3.14-.71-.09.09-.16.2-.23.3Z"/>
      <path class="cls-1" d="M93.53,103.22v.27c.07-.11.15-.21.23-.3-.11,0-.2,0-.23.04h0Z"/>
      <path class="cls-1" d="M113.76,104.56l.05-.02c-.01-.08-.03-.15-.06-.23,0,.08,0,.17,0,.25h0Z"/>
      <path class="cls-1" d="M109.71,101.2c.31,1.34-.17,1.43-.67,2.02-.11.13-.63.66-.67.67v4.04s.69-2.04.69-2.04c.4-.07.61.7.66.69.25-.04.83-.67,1.36-.85.42-.14.9.02,1.14.09.07-.06.16-.1.24-.16.8-1.4-1.05-3.06,1.31-3.13-.19-.4-.19-.85,0-1.35-4.53,3.11-5.52-1.39-.67-2.02-1.26-.04-2.65.53-4.17,1.63-.18.14-.36.28-.55.4.09-.09.92.04,1.34,0h0Z"/>
      <path class="cls-1" d="M113.76,104.31c.02.08.04.16.06.23l1.97-.65c-1.01-.18-1.69-.63-2.02-1.35-.03.58,0,1.18,0,1.77h0Z"/>
      <path class="cls-1" d="M113.76,102.54c.02-.44.65-.88.65-1.02,0-.15-.62-.21-.65-.33-.19.5-.19.95,0,1.35Z"/>
      <path class="cls-1" d="M112.72,98.51c-1.57.15-2.67,1.4-3.8,2.29,1.51-1.1,2.91-1.66,4.17-1.63l-.37-.66Z"/>
      <path class="cls-1" d="M115.78,103.89c-.02-.45.04-.9,0-1.35-.67,0-1.35-.02-2.02,0,.33.72,1.01,1.17,2.02,1.35h0Z"/>
      <path class="cls-1" d="M112.45,105.67c-.08.05-.18.09-.24.16.08.02.12.03.14.02.04-.06.08-.12.11-.18Z"/>
      <path class="cls-1" d="M113.09,105.91l-.07.56c.22-.14.4-.31.54-.51-.11-.06-.27-.08-.47-.06Z"/>
      <path class="cls-1" d="M115.15,105.19c.21.01.42.03.63.05-.23-.04-.41-.09-.55-.15-.03.03-.05.07-.08.1Z"/>
      <path class="cls-1" d="M111.7,106.88c-.6.04-1.28-.05-1.98-.3v.67c.61.43,1.35.45,2.02.67-.09-.41-.08-.75-.04-1.05h0Z"/>
      <path class="cls-1" d="M115.78,105.24c.03-.44.02-.91,0-1.35-.15.52-.34.91-.55,1.2.14.06.32.11.55.15Z"/>
      <path class="cls-1" d="M111.74,107.93c.38.13.75.36,1.01.67l.27-2.13c-.36.23-.81.37-1.32.41-.04.3-.05.64.04,1.05h0Z"/>
      <path class="cls-1" d="M113.76,105.59c-.05.13-.12.26-.2.38.8.43-.22,2.67,1.2,1.96.69-.35.97-1.99,1.02-2.69-.21-.03-.42-.04-.63-.05-.45.55-.98.63-1.39.41h0Z"/>
      <path class="cls-1" d="M113.85,105.21c.42-.05.86-.06,1.3-.03.03-.03.05-.06.08-.1-.63-.26-.41-.7.55-1.2l-1.97.65c.05.24.06.47.04.67h0Z"/>
      <path class="cls-1" d="M113.39,105.28c.15-.03.3-.05.46-.07.03-.21,0-.43-.04-.67l-.05.02c0-.08,0-.17,0-.25-.08-.26-.18-.53-.35-.82l.35-.95c-.88,1.08-.81,2.16-.37,2.74h0Z"/>
      <path class="cls-1" d="M112.45,105.67c.27-.18.58-.31.94-.39-.44-.58-.51-1.65.36-2.74-2.35.07-.5,1.73-1.31,3.13h0Z"/>
      <path class="cls-1" d="M113.76,104.31c0-.59-.04-1.18,0-1.77l-.35.95c.16.29.27.56.35.82h0Z"/>
      <path class="cls-1" d="M111.7,106.88c.06-.45.23-.8.51-1.06-.23-.07-.72-.23-1.14-.09-.53.18-1.11.81-1.36.85.7.25,1.38.34,1.98.3Z"/>
      <path class="cls-1" d="M115.23,105.09c.21-.29.4-.67.55-1.2-.96.5-1.18.93-.55,1.2Z"/>
      <path class="cls-1" d="M113.39,105.28c-.36.08-.67.21-.94.39-.04.06-.07.12-.11.18,0,.01-.06,0-.14-.02-.28.25-.45.61-.51,1.06.51-.04.96-.18,1.32-.41l.07-.56c.2-.03.35,0,.47.06.08-.12.15-.24.2-.38-.14-.08-.26-.18-.37-.31h0Z"/>
      <path class="cls-1" d="M115.15,105.18c-.44-.03-.88-.02-1.3.03-.02.13-.05.26-.09.38.41.23.94.15,1.39-.41Z"/>
      <path class="cls-1" d="M113.76,105.59c.04-.12.08-.24.09-.38-.16.02-.31.03-.46.06.1.14.23.24.37.31Z"/>
      <path class="cls-1" d="M103.52,89.74c-.72.94-1.7,1.63-2.57.67-1.41,2.94.78,1.49,2.02,1.35.33-.77.6-1.53,1.35-2.02-.44.11-.7.12-.8.01h0Z"/>
      <path class="cls-1" d="M104.32,89.73c-.07-.41.03-.91,0-1.35-.18.4-.46.91-.8,1.36.1.11.36.11.8,0Z"/>
      <path class="cls-1" d="M103.52,89.74c-.16-.17.11-.62.8-1.36-1.01.85-2.26,1.34-3.37,2.02.86.97,1.85.27,2.57-.67h0Z"/>
      <path class="cls-1" d="M103.52,89.74c.35-.45.63-.95.8-1.36-.7.74-.96,1.18-.8,1.36Z"/>
      <path class="cls-1" d="M102.97,91.75c-.91,2.17-2.94,1.13-2.79-.19-.26.22-.55.31-.86.27,1.82.58,3.52,4.25,3.66,5.99,0-.83.11-1.34.35-1.56-.52-.51-.57-1.6.32-1.82-.3-.38-2.28,1.07-.67-2.7h0Z"/>
      <path class="cls-1" d="M103.32,96.27c.22-.2.56-.14,1,.21-.81-.4-.54-1.85-.67-2.02-.9.22-.85,1.3-.32,1.82Z"/>
      <path class="cls-1" d="M100.18,91.56c.04-.39.27-.8.77-1.16-.73.45-1.33.88-2.02,1.35.13,0,.26.04.39.08.31.04.6-.05.86-.27Z"/>
      <path class="cls-1" d="M103.32,96.27c-.24.22-.35.73-.35,1.56.72-.47,1.14-1.22,1.35-1.35-.41.16-.75.03-1-.21Z"/>
      <path class="cls-1" d="M103.32,96.27c.25.24.59.37,1,.21-.44-.35-.77-.41-1-.21Z"/>
      <path class="cls-1" d="M102.97,91.75c-1.25.14-3.43,1.6-2.02-1.35-.22.55-.48.92-.77,1.16-.15,1.32,1.88,2.36,2.79.19h0Z"/>
      <path class="cls-1" d="M100.18,91.56c.28-.24.55-.61.77-1.16-.5.36-.73.78-.77,1.16Z"/>
      <path class="cls-1" d="M105,92.46c-.2.75-1.09,1.12-1.36,1.99.74-.4,1.26-1.13,1.36-1.99Z"/>
      <path class="cls-1" d="M105,92.46c-.09.86-.62,1.59-1.36,1.99,4.83-.85,1.92-1.5,1.35-2.7.08.28.06.5,0,.71Z"/>
      <path class="cls-1" d="M103.98,91.27c-.23.26-.55.43-1.01.48.66-.07,1.36.05,2.02,0-.55-.08-.87-.24-1.01-.48Z"/>
      <path class="cls-1" d="M103.98,91.27c.14.24.46.4,1.01.48-.13-.28-.63-1.75-.67-2.02.09.7-.04,1.2-.34,1.54h0Z"/>
      <path class="cls-1" d="M102.97,91.75c.46-.04.78-.22,1.01-.48-.22-.35-.05-.87.34-1.54-.75.49-1.02,1.25-1.35,2.02h0Z"/>
      <path class="cls-1" d="M103.98,91.27c.3-.34.42-.84.34-1.54-.38.67-.55,1.19-.34,1.54Z"/>
      <path class="cls-1" d="M113.08,99.84l.67.68c-.13-.26-.46-.46-.67-.68Z"/>
      <path class="cls-1" d="M113.76,100.52c-.43-.1-.73-.17-.67-.68l-.67.67h1.35Z"/>
      <path class="cls-1" d="M113.76,100.52l-.67-.68c-.05.51.25.58.67.68Z"/>
      <path class="cls-1" d="M111.06,58.04c-.32.38-1.29.52-1.38,1.26,0,.03,0,.06,0,.1,0,.1,0,.2.03.32l1.36-.33c-1.11-.01-.62-.59,0-1.35h0Z"/>
      <path class="cls-1" d="M109.68,59.29s0,.06,0,.1c0-.03,0-.06,0-.1Z"/>
      <path class="cls-1" d="M111.06,59.38v-1.35c-.42.68-.42,1.13,0,1.35Z"/>
      <path class="cls-1" d="M111.06,58.04c-.62.76-1.1,1.34,0,1.35-.41-.22-.41-.67,0-1.35Z"/>
      <path class="cls-1" d="M46.4,12.57c-1.26,1.09-2.32,1.65-3.2,1.68,1.24,4.42,2.01,4.82,5.41,1.65-.76-.56-1.5-1.65-2.21-3.33Z"/>
      <path class="cls-1" d="M43.21,14.25c.88-.04,1.94-.59,3.2-1.68.71,1.68,1.45,2.78,2.21,3.33.1-.1.2-.18.31-.29l1.45.62c-.77-.83-3.07-5.25-3.69-5.3-.87-.08-3.66,2.65-5.08,2.61l1.49.33c.04.14.07.26.11.4h0Z"/>
      <path class="cls-1" d="M44.74,19.56c1.52.45,4.33-2.5,5.64-3.33-.6.21-1.18.09-1.76-.33-3.41,3.17-4.17,2.77-5.41-1.65-.63.03-1.17-.2-1.6-.72.64,2.3,1.01,4.34,3.13,6.03Z"/>
      <path class="cls-1" d="M43.21,14.25c-.04-.13-.07-.26-.11-.4l-1.49-.33c.43.52.97.75,1.6.72Z"/>
      <path class="cls-1" d="M48.62,15.9c.57.42,1.16.54,1.76.33l-1.45-.62c-.11.1-.21.19-.31.29h0Z"/>
      <path class="cls-1" d="M49.03,8.82c-.14,1.59,1.03.01,1.34,0-.21.13-.94-.09-1.34,0Z"/>
      <path class="cls-1" d="M101.1,113.39c-.07.09-.15.19-.23.29-.16.18,1.65,2.41,3.15,2.79.21-1.06,1.56-2.22,2.67-2.79-.08-.16,0-.51.32-1.03-1.91,3.05-5.08,3.16-5.91.73h0Z"/>
      <path class="cls-1" d="M104.03,116.47c-1.5-.38-3.32-2.61-3.15-2.79.09-.1.16-.2.23-.29-.19-.56-.26-1.26-.16-2.08-.85.74-.36,1.82-2.02.67v2.03c2.03-1.19-.06.98,2.01.69.16,1.35-1.66.03-1.33,1.33,2.09.09,2.18,1.55,2.02,3.38l.68-2.02,2.69.67c-.85-.41-1.09-.98-.97-1.58h0Z"/>
      <path class="cls-1" d="M106.69,113.68c-1.11.57-2.46,1.73-2.67,2.79.17.04.34.08.5.07l.47,1.51c.6-3.12.58-1.36,2.08-3,.45-.5.03-1.35.62-1.72-.55.46-.9.54-1,.35h0Z"/>
      <path class="cls-1" d="M104.03,116.47c-.12.6.12,1.16.97,1.58l-.47-1.51c-.16,0-.33-.03-.5-.07h0Z"/>
      <path class="cls-1" d="M107.02,112.65c-.32.52-.41.87-.32,1.03.38-.19.73-.32,1-.35-.23-.14-.42-.5-.67-.67h0Z"/>
      <path class="cls-1" d="M107.69,113.33c-.27.03-.62.16-1,.35.1.19.45.11,1-.35Z"/>
      <path class="cls-1" d="M101.1,113.39c.83,2.43,4,2.31,5.91-.73-1.14.34-2.86-1.44-3.03,2.02l-3.04-3.37c.68.86.68,1.38.16,2.08Z"/>
      <path class="cls-1" d="M101.1,113.39c.52-.7.52-1.22-.16-2.08-.1.83-.03,1.52.16,2.08Z"/>
      <path class="cls-1" d="M95.15,116.35c-.31-.34-.41-.67-.28-1-.15.31-.06.64.28,1Z"/>
      <path class="cls-1" d="M95.15,116.35c-.33-.35-.43-.69-.28-1-1.17.5,0,.86.49,1.19-.07-.06-.16-.13-.21-.19h0Z"/>
      <path class="cls-1" d="M95.15,116.35c.06.06.14.13.22.19.08.06.15.11.18.16l-.67-1.35c-.13.32-.04.66.28,1h0Z"/>
      <path class="cls-1" d="M95.15,116.35c.06.06.14.13.21.19,0,0,0,0,0,0-.07-.07-.16-.13-.22-.19Z"/>
      <path class="cls-1" d="M110.39,111.31s-.09-.79.67-.68c.11.4-.12,1.15,0,1.35.18-.58.41-.57.67,0,.19.08.47-.06.67,0,.04-.13.09-.22.14-.29-1.02-.66-1.93-1.91-1.52-2.94-.72.61-1.1.04-1.31-1.49v4.05c.15-.61.38-.6.68,0h0Z"/>
      <path class="cls-1" d="M111.03,108.75c-.41,1.03.5,2.28,1.52,2.94.16-.24.34-.15.54.29-.62-1.28-.96-2.7-1.35-4.05-.27.38-.5.64-.71.82Z"/>
      <path class="cls-1" d="M111.06,111.98c.07.1.47-.08.67,0-.27-.57-.49-.58-.67,0Z"/>
      <path class="cls-1" d="M109.71,111.31c.2-.08.5.08.68,0-.3-.6-.52-.61-.68,0Z"/>
      <path class="cls-1" d="M112.41,111.98h.67c-.18-.08-.36-.18-.54-.29-.05.07-.09.16-.14.29Z"/>
      <path class="cls-1" d="M112.55,111.69c.18.12.36.22.54.29-.2-.44-.38-.53-.54-.29Z"/>
      <path class="cls-1" d="M111.03,108.75c.12-.3.34-.57.71-.82-.67-.22-1.42-.25-2.02-.67.22,1.53.59,2.1,1.31,1.49Z"/>
      <path class="cls-1" d="M111.03,108.75c.21-.18.44-.43.71-.82-.37.24-.59.52-.71.82Z"/>
      <path class="cls-1" d="M110.71,113.13c.13-.38.25-.76.34-1.14l-.67-.67c.37.46.45,1.17.33,1.82Z"/>
      <path class="cls-1" d="M110.39,114c.17-.25.27-.56.33-.88-.1.29-.21.59-.33.88Z"/>
      <path class="cls-1" d="M111.06,111.98c-.1.38-.21.76-.34,1.15-.06.32-.16.63-.33.88,1.18-.13.58-.74.67-2.02h0Z"/>
      <path class="cls-1" d="M110.39,111.31c-.06.89.09,1.82,0,2.7.12-.29.23-.59.33-.88.12-.65.04-1.36-.33-1.82Z"/>
      <path class="cls-1" d="M111.06,110.63c-.76-.11-.62.65-.67.68l.67.67c-.13-.2.11-.96,0-1.35h0Z"/>
      <path class="cls-1" d="M111.74,111.98c.25,1.23.48,1.23.67,0-.15.59-.38.57-.67,0Z"/>
      <path class="cls-1" d="M111.74,111.98c-.3,2.81.98,2.81.67,0-.19,1.23-.42,1.23-.67,0Z"/>
      <path class="cls-1" d="M111.74,111.98c.29.57.52.59.67,0-.21-.06-.49.08-.67,0Z"/>
      <path class="cls-1" d="M63.19,60.06c.68.69,2.71-1.32,2.01-2.02-.68-.69-2.71,1.32-2.01,2.02Z"/>
      <path class="cls-1" d="M51.73,32.41c-.57.59,1.63,3.91,2.69,4.04.08-1.63-.66-4.19-2.69-4.04Z"/>
      <path class="cls-1" d="M53.07,53.99c1.07.78,1.76,1.04,1.98.45-.04-.23-.06-.48-.06-.76-.3.69-1.12.57-1.92.31Z"/>
      <path class="cls-1" d="M55.05,54.44c.09-.23.11-.59.04-1.13-.02.14-.06.26-.1.37,0,.28.01.53.06.76Z"/>
      <path class="cls-1" d="M54.99,53.46s0-.08.01-.11l-1.93.65c.91.29,1.54.1,1.92-.53Z"/>
      <path class="cls-1" d="M54.99,53.46c.03-.05.07-.09.1-.14l-.09.03s0,.08-.01.11h0Z"/>
      <path class="cls-1" d="M55,53.68c0-.08,0-.14,0-.23-.38.63-1.01.82-1.92.53.81.27,1.62.38,1.92-.31h0Z"/>
      <path class="cls-1" d="M55,53.68c.05-.1.08-.23.1-.37-.03.06-.07.09-.1.14,0,.08,0,.15,0,.23Z"/>
      <path class="cls-1" d="M80.72,76.92c.24,1.91,1.81,4.28,3.36,5.4-.14-2.17-1.37-4.42-3.36-5.4Z"/>
      <path class="cls-1" d="M81.39,74.9c-.85-.45-2.35,1.08-2.02,1.33.85.45,2.35-1.08,2.02-1.33Z"/>
      <path class="cls-1" d="M85.44,99.85c.07.11,1.28-.72,1.34-.68-.71.18-1.16-.95-1.35-3.37-.1.39-.21.71-.34.99.02.99.44,2.41.34,3.07h0Z"/>
      <path class="cls-1" d="M86.76,95.85c-.45.04-.91.03-1.33-.05.11,1.33.48,2.34,1.11,3.08-.3-.71-.12-2.46.22-3.03h0Z"/>
      <path class="cls-1" d="M86.79,99.17c-.11-.03-.18-.15-.24-.29-.62-.74-1-1.75-1.11-3.08.19,2.42.63,3.55,1.35,3.37Z"/>
      <path class="cls-1" d="M86.76,95.84s.01-.03.02-.04c-.42.05-1.13-.12-1.35,0,.42.08.88.08,1.33.05Z"/>
      <path class="cls-1" d="M85.1,96.78c.12-.27.24-.59.34-.99-.27.14-.34.52-.34.99Z"/>
      <path class="cls-1" d="M87.8,101.19c1.69.41,1.62-2.15,1-2.7-.1-.09-1.53.83-2.02.68,1.09.5,1.64.75,1.64.75,0,0-.55-.25-1.64-.75.09.06.22,1.83,1.02,2.02Z"/>
      <path class="cls-1" d="M90.83,95.12c.06.21-.06.47,0,.67.32-.27.32-.49,0-.67Z"/>
      <path class="cls-1" d="M90.83,95.12c.38.2.37.42,0,.67l.66-.34-.66-.34h0Z"/>
      <path class="cls-1" d="M90.83,95.12c.32.18.32.41,0,.67.37-.25.38-.48,0-.67Z"/>
      <path class="cls-1" d="M95.58,95.38c1.83,1.85,2.4,3.38,1.73,4.57,1.15-1.31,3.7-2.82,5.18-2.37-1.65-.95-3.07-4.12-3.57-5.84.08,1.47-1.03,2.68-3.34,3.63h0Z"/>
      <path class="cls-1" d="M95.58,95.38c2.31-.95,3.42-2.16,3.34-3.63-1.01.68-4.48,2.43-4.68,3.12-.46,1.55,2.36,3.12,2.66,5.65.1-.18.25-.37.42-.56.67-1.2.09-2.72-1.73-4.57h0Z"/>
      <path class="cls-1" d="M102.97,97.82c-.16-.05-.32-.14-.47-.24-1.48-.46-4.03,1.06-5.18,2.37-.11.2-.24.38-.42.56,1.4.8,4.52-1.69,6.07-2.7Z"/>
      <path class="cls-1" d="M96.9,100.52c.17-.18.31-.37.42-.56-.17.2-.31.38-.42.56Z"/>
      <path class="cls-1" d="M102.5,97.59c.17.05.34.12.47.24-.14-1.75-1.84-5.41-3.66-5.99-.13-.02-.25-.02-.39-.08.5,1.71,1.92,4.89,3.57,5.84h0Z"/>
      <path class="cls-1" d="M98.92,91.75c.14.06.26.06.39.08-.13-.04-.26-.07-.39-.08Z"/>
      <path class="cls-1" d="M102.97,97.82c-.14-.11-.3-.18-.47-.23.16.09.31.19.47.23Z"/>
      <path class="cls-1" d="M108.04,107.94c-.06.24-.33.46-.74.76-.18.13-.4.16-.64.16.61.69.96,1.41,1.04,2.13.1-.42.33-.63.65-.62-.39-1.09.15-2.8,1.35-3.12-.59-.19-.58-.42,0-.67-.24.12-.38.16-.47.18-.38,1.29-.84,1.52-1.19,1.18Z"/>
      <path class="cls-1" d="M108.36,110.38c-.32,0-.55.19-.65.62.04.33.04.65-.02.99.82-.25,1.19-.34,2.02-.67-.72.03-1.15-.37-1.35-.93h0Z"/>
      <path class="cls-1" d="M107.71,111c-.09-.73-.43-1.44-1.04-2.13-.53-.01-1.15-.3-1.7-.7-.32,3.82.68,1.7,1.25,1.95.09.04.49,1.16,1.06,1.65.12.06.26.13.41.22-.06-.41-.04-.73.02-.99h0Z"/>
      <path class="cls-1" d="M103.64,106.59c-.09.39-1.12.94-.67,2.02l1.8-.6c-.61-.49-1.1-1.07-1.13-1.42Z"/>
      <path class="cls-1" d="M107.28,111.76c.13.11.27.2.41.23-.15-.09-.29-.17-.41-.23Z"/>
      <path class="cls-1" d="M107.71,111c-.06.26-.08.57-.02.99.06-.33.06-.66.02-.99Z"/>
      <path class="cls-1" d="M107.62,107.14c.36.34.48.58.42.8.36.34.81.12,1.19-1.18-.39.07.14-.51.13-.44-.04.17-.08.3-.13.44.1-.02.24-.06.47-.18-.05,0-.26-.76-.66-.69l-.68,2.04v-4.04c-.75,1.17-.99,1.9-.75,3.25Z"/>
      <path class="cls-1" d="M109.24,106.77c.04-.14.08-.27.13-.44.02-.07-.51.51-.13.44Z"/>
      <path class="cls-1" d="M106.67,108.86c.24,0,.46-.03.64-.16.41-.3.68-.51.74-.76-.69-.65-1.01-3.3.32-4.06-.5.16-1.83-.19-2.03,0-.14.14.97,3.1.35,4.02l-3.04-1.33c1.34.74,2.34,1.5,3.02,2.27Z"/>
      <path class="cls-1" d="M103.64,106.59c.03.35.52.93,1.13,1.42l.21-.07c0,.08-.01.15-.02.22.55.4,1.17.69,1.7.7-.68-.78-1.68-1.54-3.02-2.27h0Z"/>
      <path class="cls-1" d="M108.04,107.94c.06-.22-.06-.46-.42-.8-.24-1.35,0-2.08.74-3.25-1.33.76-1.01,3.4-.32,4.05Z"/>
      <path class="cls-1" d="M109.71,107.26v-.67c-.58.26-.59.48,0,.67Z"/>
      <path class="cls-1" d="M108.36,110.38c.38.01.86.31,1.35.93v-4.05c-1.2.32-1.74,2.03-1.35,3.12Z"/>
      <path class="cls-1" d="M108.36,110.38c.2.56.63.96,1.35.93-.49-.62-.97-.92-1.35-.93Z"/>
      <path class="cls-1" d="M103.62,92.62c-.25-.14-.49-.42-.65-.87.18.37.32.78.43,1.22.06-.12.13-.24.22-.35Z"/>
      <path class="cls-1" d="M103.4,92.97c-.11-.44-.25-.85-.43-1.22-1.6,3.76.37,2.32.67,2.7-.48-.42-.48-.97-.24-1.48h0Z"/>
      <path class="cls-1" d="M103.62,92.62c-.08.11-.16.23-.22.35.11.46.19.95.24,1.48.26-.87,1.16-1.23,1.36-1.99.03-.23.04-.47,0-.71-.28.86-.87,1.15-1.37.87h0Z"/>
      <path class="cls-1" d="M104.99,91.75c.04.25.04.48.01.71.05-.21.07-.43-.01-.71Z"/>
      <path class="cls-1" d="M103.64,94.45c-.04-.53-.13-1.02-.24-1.47-.24.5-.24,1.06.24,1.47Z"/>
      <path class="cls-1" d="M102.97,91.75c.16.45.4.73.65.87.34-.45.85-.8,1.37-.87-.66.05-1.36-.07-2.02,0Z"/>
      <path class="cls-1" d="M103.62,92.62c.5.29,1.09,0,1.37-.87-.52.07-1.03.43-1.37.87Z"/>
      <path class="cls-1" d="M73.31,140.97c1.47.57,1.45-1.04,2.01-1.34,1.29-2.33,3.92-3.34,6.07-4.72l-.67-2.01c1.37-.14,2.74-.21,4.05-.68.2-.07.49.08.68,0-.26-.46-1.35-.51-1.36-1.01,0-.33,1.03-.8,1.36-1.01v-2.7c-.35.09-1.9-6.06-2.7-6.74-.43.06-.91-.02-1.34,0-.34-2,.68-2.41,2.02-3.37.75-.53,1.98-.8,2.7-1.35.81-.62,2.08-1.44,2.7-2.02.49-.46.86-1.46,1.35-2.02-2.35-.85-.75-.52-1.35-1.35-.3-.41-.69-1.23-.76-1.26-.21-.1-.93.45-1.27.58-1.18.46-5.01,3.08-5.39,2.69-.33-1.38.59-1.39,1.35-2.02l-.42-.47-1.6.47c.03-.44-.08-.94,0-1.35.06-.32.84-1.09.66-1.3-.07-.09-1.35-.4-2.02-1.02-3.92-3.6-.62-3.62,2.71-5.77v-.67c-.39-.44-.52-1.64-1.35-2.02-2.98,1.9-5.53,3.81-8.77,5.39-.19.09-.09,1.05-1.34.67.66-1.29-.82-6.38-.62-6.65.13-.18,3.27-1.66,3.99-2.12,1.14-.72,1.9-1.94,3.37-2.02.07-.16-.05-.44,0-.67-.24-.21-.47-.43-.67-.67-.88-1.06-1.16-2.04-1.35-3.37h-.67c0,.93-.21.85-.68,1.35-.8.86-4.59,3.04-5.76,3.35-1.45.38-.55-.61-.67-1.09-.11-.06-.22-.13-.32-.24-2.33,1.14-4.85-4.86-4.66-5.66.26-1.09,5.57-3.39,6.69-4.45-.08-.19-.05-1.04,0-1.35.04-.23-.07-.63,0-.67-2.77-3.54-7.37,3.14-9.78,3.15-1.99,0-5.6-5.29-7.92-5.07-1.24.12-6.64,3.88-7.06,4.79-.49,1.06.37,2.64-.87,2.52l-3.38-6.06c.9.02,1.82.02,2.66-.38,4.69-2.22,12.76-8.02,17.57-11.09-.67-2.41-2.6-4.39-3.37-6.74l-2.47-.85-18.39,11.72c-.59.84,3.72,6.05.97,5.33-.21-.06-2.91-2.82-3.06-3.02-2.04-2.73-3.44-8.68-3.96-9.39-.2-.27-5.01-1.71-1.42-3.78-.79-.11-.49-1.12-.67-1.35-.45-.58-1.8-.59-1.34-2.02.78.21,1.8,1.31,2.02,2.02.11.35-.07.93,0,1.35,2.18-1.26,7.13-3.26,8.71-4.43,3.23-2.4,6.01-5.68,10.16-8.38-.42-1.24-.82-2.9-1.35-4.05-.24-.04-.51.06-.67,0-.24.69-.81.96-1.35,1.35-1.93,1.4-4.29,3.39-6.74,3.36l1.34-1c-2.89-.4-1.57-6.26-4.71-5.06-1.29-2.24,4.64-4.36,6.06-5.39-.08-.42.11-.99,0-1.35-.07-.22.08-.5,0-.67-.25-.53-1.45-1.71-2.02-2.02-1.02,1.5-2.8,1.91-4.05,2.7-.71.45-1.44,2.19-3.01,2.02-1-.35-.77-1.6-1.04-2.02-.43-.69-1-1.04-1.35-2.02-.24-.69-.85-3.94-.67-4.04.45-.26,1.32.64,1.7.65.14,0,.07-2.32,1-2.68-.63-.08-.56-.11-.67-.67-.12-.58.07-1.37,0-2.02-.07-.64-1.05.02,0-2.02.76-1.49-.48-.74-.67-1.35h-.67c-.51.06-.72-.17-.67-.67.1-.98,1.19-1.32,2.02-1.35-.08-.56-1.49-1.67-1.35-2.7-.67-.03-1.93-1.25-2.7-1.35-.19-.03-1.09.87-1.67.68.51-2.38-.18-1.17-1.7-.68-.21.07-.48-.07-.67,0-.78,1.15-7.08,4.71-7.75,4.71-1.38,0-2.91-2.03-4.48-2.93-.42-.17-.84-.32-1.25-.43-.84-.03-1.9-.1-2.7,0-1.22.81-2.76.48-3.37,2.02-.08.17.07.45,0,.67l-.67,2.02c-.06.2.06.47,0,.67l-.67,2.02c-.04.22.04.46,0,.67l-.68,2.02c-.03.22.02.45,0,.67-.09,1-.43,1.94-.49,2.94l73.32,109.66h-.01ZM77.68,111.98c.44.23.44.45,0,.67v-.67ZM77.69,114.01c.59-.09.38,1.29.33,1.34-.78.76-2.17-.29-.33-1.34ZM76.34,108.61l.33,2.02h-1.34c-.22-.99.3-1.4,1.01-2.02ZM73.31,134.91c.17-.2,3.67,1.82,2.69,2.69-1.21,1.09-3.04-1.16-2.69-2.69ZM57.11,95.8s.26,1.43-.33,1.34c-1.84-1.05-.45-2.11.33-1.34ZM58.46,98.51c1.39,1.74-2.15,1.7-2.7-.68.5-.05,2.61.57,2.7.68ZM51.04,94.45l.68,3.37c-1.44-.09-.73-1.56-.81-1.69-.2-.29-3.38-1.35.14-1.68h0ZM48.35,89.72l-.33,2.02-.83-1.43-.17.09-1.36-2.7,1.53,2.62,1.16-.6ZM29.47,54c.46.23-.4,1.14-1.34.66-.46-.23.4-1.14,1.34-.66ZM27.44,29.05c.46.23-.4,1.14-1.34.66-.46-.23.4-1.14,1.34-.66Z"/>
    </g>
  </g>
</svg>