<?xml version="1.0" encoding="UTF-8"?>
<svg id="_레이어_2" data-name="레이어 2" xmlns="http://www.w3.org/2000/svg" viewBox="0 0 122.55 122.58">
  <defs>
    <style>
      .cls-1 {
        fill: #ff319c;
      }
    </style>
  </defs>
  <g id="_레이어_1-2" data-name="레이어 1">
    <g>
      <path class="cls-1" d="M71.49,120.03c.53.08,1.08,0,1.28.64.17-.55.38-.54.64,0l1.27.64c.22-.55.43-.55.64,0,1.32.3,2.82.06,3.83,1.28.12-.57.34-.55.64,0l31.24-25.89,1.95-3.47c-.54-.21-.54-.42,0-.64.27-1.34.09-2.81,1.28-3.83-.55-.17-.54-.39,0-.64l.64-1.28c-.55-.17-.54-.39,0-.64.02-.1.07-.22.12-.37l.51-1.55c-.55-.21-.55-.43,0-.64l.64-1.28c-.55-.21-.55-.43,0-.64.29-1.32.07-2.82,1.28-3.83-.55-.21-.55-.42,0-.64l.64-1.28c-.55-.15-.53-.37,0-.64,0-.43-.01-.85,0-1.28-.43-3.54-2.07.04-2.27.05-3.98.18-2.93-7.25-1.63-9.25.66-1.03,4.43.64,6.11.36.11-.03.21-.07.34-.09-1.75-1.19,0-5.48,1.91-5.74-3.47-4.42-4.07-2.34-7.65.64l-5.75-16.6c-4.31-1.15-8.29-4.75-10.15-8.81.03.33-.76.78-1.34.5-.25-.12-.14-.33.09-.5-.9.02-1.03-.41-.73-2.05h-1.92l.64,3.19c-1.27-.34-1.37-2.04-1.91-3.19-.29-.62-1.14-1.32-1.28-1.91-.05-.21.51-.93.64-1.28h-1.95c-4.41-4.88-9.3-8.65-14.66-11.29-2.12-2.57-4.52-4.99-7.13-7.3-.26.2-.69.31-1.15.08-.29-.15-.03-.57.44-.71-1.4-1.2-2.84-2.38-4.37-3.51l-.54-2.16-.32,2.54c-1.92-.98-4.6-2.95-6.71-3.18-.08.34-.52.47-.63.64v.64c.43-.09.67.25.63.64-.02.32-.48.88-.63,1.28,1.75-.39,1.14,1.14,1.27,1.28.1.1.78-.18,1.12.11.17.15.78,2.72,1.44,3.72.76,1.16,2.31,3.33,3.19,4.47,1.67,2.18,2.12,1.96,3.42,3.25,5.94,5.88.47,4.98.44,9.89,0,.41,2.25-.63-.04,2.82.93,2.62,2.07,5.13,3.2,7.66.24.54,1,1.06,1.1,1.71.13.79-.41,1.13-.47,1.48-.14.82-.63,1.81-.63,1.91-.03.21.01.43,0,.64-.02.26.96,1.48.64,1.91-.22.29-3.7.3-2.55,1.92.28.4,1.57-2.3,2.53-.32-.67,1.79-2.46.83-2.53.96-.5.92,1.84,2.87-.98,3.17-.25.03-.69-1.19-.94-1.26-.61-.16-1.41-.04-2.13.2-.31.15-.66.29-1.07.44-1.03.72-2.13,1.26-3.19,1.91.13.15.21.28.28.39.8.62,2.63-.68,2.91-.39,1.31,1.35-2.69,2.68-3.82.64-4.28,2.63-8.57,4.89-12.77,7.66v1.28s-.64-.64-.64-.64c-2.94,1.99-7.28,3.79-9.37,6.62-.4.55-.09,1.44-.22,1.68-.09.18-2.23-.87-4.15-.06-1.66.7-2.88,2.31-4.61,3.09-1.24.55-3.68.67-3.95.85-.09.06.79,1.46-.37,1.87-.64.06-1.11-.47-1.58-.64-.63-.22-1.2-.63-1.92-.64-.38.34-1.97,1.25-2.25,1.28-.36.04.04-1.99-1.57-1.29.79,2.94-1.19,2.4-1.28,2.55-.15.24.27,1.47-.07,1.82-.4.39-1.66-.07-1.85.1-.18.17.19,1.62,0,1.91-.08.12-2.32-1.33-1.27,1.27-2.14.57-.95-1.59-1.28-1.91-1.36-1.3-1.34,2.21-2.24,2.55-.64.02-.17-.93-.31-1.28-.28.04-.54.03-.78,0-.6.24-.74,1.14-1.14,1.92-.22.45-.43.67-.63,1.28,1.71,1.17.59,4.31.8,5,.09.32,4.56,3.21,4.3,4.25-.12.44-.62.29-.64.33-.4.94.84,1.58-1.91,1.28.57.17.56.38,0,.64,2.65-.63,1.74,1.19,2.49,2.13.59.76,2.3.36,2.62,1.7l3.15.08c16.58,4.41,33.34,8.97,49.59,14.62.96.33,1.85.84,2.75,1.38.9.54,1.76,1.16,2.6,1.8.16-.56.37-.55.64,0h-.01ZM88.73,108.54c.31.24-1.12,1.69-1.92,1.26-.31-.24,1.12-1.69,1.92-1.26ZM87.13,88.75v-.64c.42.21.42.43,0,.64ZM86.82,72.79l1.27,1.27c-1.33.18-1.45.06-1.27-1.27ZM86.81,95.13c-.05.05-1.35.24-1.27-.31,1-1.74,1.99-.43,1.27.31ZM86.17,75.35c.05.04.25,1.35-.31,1.27-1.74-1-.43-1.99.31-1.27ZM82.34,33.86c.7.7-.57,1.97-1.27,1.27-.69-.7.58-1.97,1.27-1.27ZM81.72,86.19c.4-1.96-1.89-.58-1.92-1.9,2.66-.47,5.17-1.06,1.92,1.9ZM77.24,105.99s.24,1.35-.32,1.27c-1.74-1-.43-1.99.32-1.27ZM75.33,102.16c.92.21,1.46,1.03,1.27,1.91h-1.27v-1.91ZM67.03,10.23c-.8.43-2.23-1.02-1.92-1.26.8-.43,2.23,1.02,1.92,1.26ZM18.83,86.84v-.64c.42.21.42.43,0,.64ZM35.73,92.59l.34,2.52c-1.68-.32-2.86-2.74-.34-2.52ZM39.58,75.98l.64-1.9h.63v1.91h-1.27ZM42.12,97.68c-.09.09-.42-.03-.62,0-.18-1.14.03-2.24,1.26-2.55.07.5-.49,2.4-.64,2.55ZM44.69,80.45c1.32.63,2.57,2.31,2.54,3.83-1.14-.69-2.46-2.45-2.54-3.83ZM49.8,72.8h.62l.65,1.91c-1.68.32-1.34-.37-1.27-1.91ZM53.94,65.77v-.64c.41.21.41.43,0,.64ZM62.88,63.85c-1.74-1-.43-2,.31-1.27.05.05.25,1.35-.31,1.27ZM63.52,60.03v-.64c.41.21.41.43,0,.64ZM63.84,70.88l.31-1.91c1.21.85,1.08,1.37-.31,1.91ZM63.2,58.11l1.28-1.92,1.27-.62-2.55,2.55h0ZM72.77,63.21c-.61-.13-2.2,1-2.55.64-1.03-1.03,2.21-2.84,2.55-.64ZM67.02,58.75c.03.54-.09,1.26.22,1.69.35.5,1.69.99,1.7,2.13-1.02,1.01-3.65-3.54-1.92-3.82h0ZM67.66,110.77c.01-.78,2.71-.14,3.19.32l.64-1.28c.32-1.47-.64-1.37-1.91-1.28v-.63l2.89.63c.55.44-.2.84-.34,1.28-.25.79-.15,1.75-1.28,1.91-.48.07-2.65-.54-3.19-.96Z"/>
      <path class="cls-1" d="M68.75,10.16c.23-.07.52-.07.82.08.21.11.13.36-.11.55,2.61,2.31,5.01,4.73,7.13,7.3,5.36,2.65,10.25,6.41,14.65,11.3h1.96c-4.02-3.4-8.67-8.19-12.79-11.15-1.11-.8-2.69-.76-3.09-1.06-.2-.15.06-1.73-2.95-3.8-2.96-2.04-7.09-5.94-10.54-8.89l.54,2.16c1.54,1.13,2.98,2.31,4.37,3.51h.01Z"/>
      <path class="cls-1" d="M99.01,34.62c1.86,4.05,5.84,7.65,10.15,8.81-3.4-2.89-6.77-6-10.22-8.94.04.04.06.08.07.13Z"/>
      <path class="cls-1" d="M7.66,97.69c.07.19-.06.45,0,.64.56-.26.57-.47,0-.64Z"/>
      <path class="cls-1" d="M97.75,34.63c.33-.24.9-.4,1.19-.13-.54-.46-1.1-1.22-1.91-1.91-.31,1.64-.17,2.06.72,2.05Z"/>
      <path class="cls-1" d="M93.89,30.59c.51.12,1.12.35,1.86.71-.8-.67-1.75-1.24-2.55-1.91.69.68.91,1.04.69,1.2Z"/>
      <path class="cls-1" d="M93.64,30.54c-.36-.31-.57-.7-.44-1.15-.13.34-.69,1.07-.64,1.28.24-.17.61-.2,1.09-.12h-.01Z"/>
      <path class="cls-1" d="M93.64,30.54c.08.01.16.03.25.05.22-.16,0-.52-.69-1.2-.12.45.08.84.44,1.15Z"/>
      <path class="cls-1" d="M92.56,30.66l2.86,1.28.33-.64c-.6,0-1.41-.25-1.96-.65-.22.07-.63.07-1.23.02h0Z"/>
      <path class="cls-1" d="M93.79,30.65c.55.4,1.36.65,1.96.65-.74-.37-1.35-.59-1.86-.71-.03.02-.06.04-.1.06Z"/>
      <path class="cls-1" d="M93.79,30.65c-.05-.03-.1-.07-.15-.11-.47-.08-.84-.05-1.08.12.6.05,1,.06,1.22-.02h.01Z"/>
      <path class="cls-1" d="M93.89,30.59c-.09-.02-.17-.04-.25-.05.05.04.1.07.15.11.04-.02.07-.04.1-.06Z"/>
      <path class="cls-1" d="M2.86,88.83c-.14-.03-.26-.05-.31-.08.56.18.55.39,0,.64.23-.07.42-.1.61-.13.38-.12.28-.27-.3-.43h0Z"/>
      <path class="cls-1" d="M2.55,89.39c.27-.04.47-.08.61-.13-.19.02-.38.06-.61.13Z"/>
      <path class="cls-1" d="M2.55,88.75v.64c.55-.24.56-.46,0-.64Z"/>
      <path class="cls-1" d="M2.86,88.83c.58.17.68.31.3.43.12-.01.23-.02.34-.01,1.05-.2-.04-.31-.64-.42Z"/>
      <path class="cls-1" d="M3.16,89.26c-.14.04-.34.09-.61.13.43-.05.73-.1.95-.14-.11,0-.22,0-.34.01Z"/>
      <path class="cls-1" d="M65.24,48.08v.16c.47.14,1.24-.21,1.78-.35.53-.13.92-.91,1.27-.33-.36.23-.44.62-.63.96-.33.61-.77,1.13-1.27,1.6,2.05.61,1.71,1.33,0,2.23,1.56-.13,2.15-1.23.94-2.67.81-1.39,1.77-2.63,2.89-3.71-1.85.46-3.76.52-4.98,2.1h0Z"/>
      <path class="cls-1" d="M65.25,48.25c-.01-.06-.01-.11-.01-.16-.04.05-.08.09-.12.14.04.02.09.01.13.02h0Z"/>
      <path class="cls-1" d="M5.43,83.49c.06-.19.15-.35.26-.47-.11-.15-.17-.33-.21-.53-.18.18-.5.37-1.01.52.43.06.73.25.96.49h0Z"/>
      <path class="cls-1" d="M5.74,81.09l-1.27.64c.5.01.82.11,1,.24.03-.27.11-.56.27-.88h0Z"/>
      <path class="cls-1" d="M5.69,83.02c-.11.12-.2.28-.26.47.41.42.54,1.09.32,2.07.39-.77.54-1.68,1.13-1.92-.52-.07-.94-.28-1.19-.62Z"/>
      <path class="cls-1" d="M5.47,81.97c-.18-.13-.5-.23-1-.24.11.33-.11.93,0,1.28.51-.15.84-.34,1.01-.52-.03-.16-.03-.33-.01-.51Z"/>
      <path class="cls-1" d="M5.47,81.97c.18.14.19.32.01.51.04.2.1.38.21.53.41-.45,1.14-.4,1.97.63-.63-1.5-1.46-1.82-1.91-2.55-.17.32-.25.61-.28.88h0Z"/>
      <path class="cls-1" d="M5.48,82.49c.18-.19.17-.37-.01-.51-.03.18-.02.35.01.51Z"/>
      <path class="cls-1" d="M5.69,83.02c.25.34.67.55,1.19.62.2-.08.45-.09.78,0-.83-1.03-1.56-1.07-1.97-.63Z"/>
      <path class="cls-1" d="M5.43,83.49c-.23-.24-.53-.42-.96-.49.42,1.36-.14,1.96,1.28,2.55-.42-.75-.49-1.52-.32-2.07Z"/>
      <path class="cls-1" d="M5.43,83.49c-.17.55-.11,1.32.32,2.07.22-.97.09-1.64-.32-2.07Z"/>
      <path class="cls-1" d="M59.36,55.56c.61.16.84.02.64-.64-.24.15-.42.5-.64.64Z"/>
      <path class="cls-1" d="M59.36,55.56c.91.56,1.29.39.92-.24-.12-.09-.21-.22-.28-.39.2.65-.03.79-.64.64Z"/>
      <path class="cls-1" d="M53.62,6.41c.68-.39,1.53-1.02,2.55-1.91-.03-.03-.04-.06-.07-.09-.89.69-1.74,1.37-2.48,2.01h0Z"/>
      <path class="cls-1" d="M56.17,4.49c.12-.17.57-.3.64-.64-.25.19-.47.37-.71.55.03.03.03.06.07.09h0Z"/>
      <path class="cls-1" d="M53.62,6.41c.74-.64,1.58-1.31,2.48-2.01-.19-.23.03-.42.71-.55-2.38-.26-1.98.88-3.19,2.55h0Z"/>
      <path class="cls-1" d="M56.1,4.4c.24-.18.46-.36.71-.55-.68.13-.9.31-.71.55Z"/>
      <path class="cls-1" d="M54.88,6.79c.43-.37.8-1.59,1.29-2.3-1.02.89-1.87,1.53-2.55,1.91.06-.02.64.93,1.26.38h0Z"/>
      <path class="cls-1" d="M69.87,44.12s-.01-.01-.02-.03c0,.01.01.03.02.04,0,0,0,0,0-.01h0Z"/>
      <path class="cls-1" d="M69.87,44.12s0,.01-.01.01c.14.37.26.77.36,1.21.01-.1.5-1.09.63-1.91-.34.77-.7,1.03-.98.69Z"/>
      <path class="cls-1" d="M69.58,43.43c.1.2.18.43.27.67.01.01.02.01.02.03.2-.35.57-.65.98-.69-.41.04-.86-.06-1.27,0h0Z"/>
      <path class="cls-1" d="M69.87,44.12c.29.34.64.08.98-.69-.41.04-.78.34-.98.69Z"/>
      <path class="cls-1" d="M69.86,44.13s-.01-.03-.01-.04c-.11-.14-.2-.35-.27-.67-.53.74-.8,1.34-.65,1.67.14.05.31.14.51.27.2.02.44.02.77-.03-.56-.25-.59-.77-.35-1.21h0Z"/>
      <path class="cls-1" d="M70.22,45.34c-.1-.44-.22-.84-.36-1.21-.24.44-.21.96.36,1.21Z"/>
      <path class="cls-1" d="M69.58,43.43c.07.31.17.53.27.67-.09-.23-.17-.46-.27-.67Z"/>
      <path class="cls-1" d="M69.44,45.38c-.2-.13-.37-.22-.5-.27.06.15.23.24.5.27Z"/>
      <path class="cls-1" d="M65.11,8.97c-.31.24,1.12,1.69,1.91,1.26.31-.24-1.11-1.69-1.91-1.26Z"/>
      <path class="cls-1" d="M45.96,63.86l.63.64v-1.28c-.08.43-.14.7-.63.64h0Z"/>
      <path class="cls-1" d="M45.96,63.86l.64-.64c-.24.16-.41.48-.64.64Z"/>
      <path class="cls-1" d="M46.6,63.22l-.64.64c.49.07.55-.21.64-.64Z"/>
      <path class="cls-1" d="M56.17,5.13l.64.64c.03-.39-.2-.73-.64-.64Z"/>
      <path class="cls-1" d="M51.07,19.81c.04,2.04-.39,4.27-2.56,2.55-.9.44-1.38.42-1.91.64.37,1.67-.1,1.86-1.28.64-.18.06-.31.75-1.27.64v.64l-.64.64c-1.52.59.32.57.43.78.13.27-.34.69-.2.99.08.19.99.11.97.42-.03.86-1.02,2.16-.36,3.35l.42.53c-.18-.17-.32-.35-.42-.53l-.85-1.07c-1.13-.23-.41.95-.63,1.27.82,1.3.11,2.93,1.77,2.57.05-.05.1-.12.15-.17v-1.12l.64.64c.31-1.02,1.56-2.62,1.91-3.83-.16.09-.57-.14-.87,0-.71.31,0,1.54-1.04,1.28-.37-2.98,2.08-2.32.64-5.74l1.62,1.26c2.05-.77.12-1.67,2.84-.62-1.42-1.2-1.15-1.72.64-1.28.32-.69.54-1.1.64-1.91.04-.36-.47-2.05-.64-2.55h0Z"/>
      <path class="cls-1" d="M50.43,25.56c-.07-.59.48-.94.64-1.28-1.79-.44-2.06.08-.64,1.28Z"/>
      <path class="cls-1" d="M46.6,23v-.56c-.03.15-.04.33,0,.56Z"/>
      <path class="cls-1" d="M46.6,23c-.49.2-1.1.58-1.28.64,1.17,1.22,1.65,1.03,1.28-.64Z"/>
      <path class="cls-1" d="M48.51,22.36c2.17,1.72,2.6-.52,2.56-2.55-1.28,1.57-.35,1.48-2.56,2.55Z"/>
      <path class="cls-1" d="M28.76,43.53c1.69.09,2.45-1.23,3.79-2.01.76-.44.76-.92,1.92,0,.18-.78.89-1.38,1.17-1.74.03-.06.05-.12.1-.17.07-.19-.06-.44,0-.64.12-.35-.11-.95,0-1.28-1.19,2.05-2.49,2.14-3.49,1.24,0,.01-.01.02-.01.03v-.03c-.43-.39-.8-.97-1.08-1.67-.31.43-.93.66-1.8.43-.18.51-1.25,5.45-1.27,5.74.26-.02.48.03.67.1Z"/>
      <path class="cls-1" d="M31.16,37.25c-.26-.64-.45-1.36-.52-2.12-.4,1.42-1.09,2.01-1.28,2.55.87.23,1.49,0,1.8-.43Z"/>
      <path class="cls-1" d="M32.26,38.93c.99.9,2.3.81,3.49-1.24-2.83,1.99-1.31-2.82-3.49,1.24Z"/>
      <path class="cls-1" d="M31.16,37.25c.28.69.65,1.28,1.09,1.67l.93-3.48-2.54-.31c.78.77.89,1.6.52,2.12Z"/>
      <path class="cls-1" d="M30.64,35.13c.07.76.26,1.49.52,2.12.36-.53.26-1.36-.52-2.12Z"/>
      <path class="cls-1" d="M9.57,24.92c.27-.26.95-.37,1.28-.64,2.39-1.92,4.77-1.61,2.56-5.11-.39.08-.87-.05-1.28,0-2.49,1.34-4.62.67-4.25,4.15.14,1.31.28,1.57,1.69,1.6Z"/>
      <path class="cls-1" d="M61.28,40.88l-.25.25c-.12.15-.24.31-.39.39-.86.46-1.51,1.17-2.19,1.85.5.82.38,1.05-.8,1.16l-.84,1.45c.4-.15.99-.81,1.28-.64-.3-.3.59-1.01.63-.32.02.22-.49.46-.63.32-.01.21.01.43,0,.64l1.15-.5c.54-2.34,1.36-3.44,2.99-3.43v-.54c.35.18.39.36.16.53.25.01.52.05.8.11,0-.43.01-.85,0-1.28-.57.1-1.52-.16-1.91,0h0Z"/>
      <path class="cls-1" d="M62.24,42.15v-.1c-1.64,0-2.46,1.09-2.99,3.43l-1.16.5c1.56,2.81,1.01.23,1.94-.3,1.19-.67,3.98-.48.62-1.94.59-1.31,2.07-.12,2.41-.44.3-.28.05-1.1.14-1.16-.29-.06-.56-.1-.81-.11-.04.03-.08.07-.15.11h0Z"/>
      <path class="cls-1" d="M58.46,43.37s-.04.03-.06.05l-.31-.63c-.53.95-1.64,1.57-1.28,3.19l.84-1.45c1.18-.11,1.3-.34.81-1.16h0Z"/>
      <path class="cls-1" d="M37.09,43.71c-.42,0-.87-.09-1.34-.29-.06.07-.11.12-.17.18-.3.42-.79,1.44-1.11,1.73,2.28-.33,2.82-1.13,2.62-1.63h0Z"/>
      <path class="cls-1" d="M36.26,43.29c-.16.04-.32.07-.51.14.47.2.92.28,1.34.29-.11-.26-.44-.45-.83-.42Z"/>
      <path class="cls-1" d="M35.75,43.43c.19-.07.35-.1.51-.14-.16,0-.33.05-.51.14Z"/>
      <path class="cls-1" d="M35.58,43.61c.06-.06.11-.12.17-.18-.04.02-.1.09-.17.18Z"/>
      <path class="cls-1" d="M29.41,46.5c-.38.94-1.12,1.67-1.96,1.4.56.18.55.39,0,.64.33-.17,1.18.18,2.55-.64-.43-.62-.6-1.07-.59-1.4Z"/>
      <path class="cls-1" d="M32.56,41.52c-.05,1.72-1.56,3.28-2.91,3.17.07.43.03.92-.1,1.39.52-.64,2.3-.47,3.65-.74,1.05-.82.65-1,2.55-1.91.58-.28,1.06-1.14,2.55-.64l-.64-1.27c-.77.45-2.27.92-3.19,1.28-1.82.7-2.07,1.54-1.91-1.28h0Z"/>
      <path class="cls-1" d="M27.45,47.9v.64c.55-.24.56-.46,0-.64Z"/>
      <path class="cls-1" d="M32.56,41.52c-1.35.78-2.11,2.11-3.8,2.01.52.18.79.62.89,1.16,1.35.11,2.86-1.46,2.91-3.17Z"/>
      <path class="cls-1" d="M29.41,46.5c0-.17.05-.31.14-.42.13-.47.17-.96.1-1.39-.6-.05-1.17-.42-1.56-1.26-.1,1.26,1.87,3.59-.64,4.47.85.27,1.58-.46,1.96-1.4h0Z"/>
      <path class="cls-1" d="M28.76,43.53c-.21-.01-.43-.04-.67-.1.39.84.96,1.21,1.56,1.26-.1-.54-.38-.98-.89-1.16Z"/>
      <path class="cls-1" d="M33.82,10.88l1.92-.32c-2.02-2.55-3.9.04-7.01.95l.63,1.91c2.34.85,5.39-.07,4.46-2.55h0Z"/>
      <path class="cls-1" d="M58.58,3.14c.37-.14.64-.4.76-.84L56.77.11c-.57-.12-1.11-.15-1.47-.04-2.78.83.37,3.15,2.49,3.2.25-.08.51-.13.79-.12h0Z"/>
      <path class="cls-1" d="M59.36,2.25c.22-1.01-1.26-1.85-2.59-2.14l2.57,2.19s.02-.03.02-.06Z"/>
      <path class="cls-1" d="M58.58,3.14c-.28,0-.54.04-.79.12.29,0,.55-.03.79-.12Z"/>
      <path class="cls-1" d="M62.55,39.74c.23.14.45.51.65,1.13-.06-2.84,1.04-1.62,1.26-1.92.43-.59.25-.97-.18-1.17-.47.04-1.04.02-1.72-.1.77.51.58,1.42-.01,2.06h0Z"/>
      <path class="cls-1" d="M61.04,40.46l-2.11,1.67c.49-.28,1.05-.5,1.71-.61l.39-.39c.09-.11.18-.22.25-.25.09-.19.18-.35.26-.5-.16.05-.33.08-.49.08h-.01Z"/>
      <path class="cls-1" d="M61.04,40.46c.17,0,.34-.03.5-.08.35-.6.69-.82,1-.63.59-.64.78-1.55.01-2.06-.24.2-.27,1.28-.82,1.72-1.93,1.58-1.73-.01-3.65,3.38.24-.26.53-.48.85-.67l2.11-1.67h0Z"/>
      <path class="cls-1" d="M64.28,37.78c-.44-.21-1.14-.23-1.72-.1.68.11,1.25.14,1.72.1Z"/>
      <path class="cls-1" d="M60.64,41.52c-.66.11-1.22.32-1.71.61l-.84.67c.15.22.27.41.37.58.68-.68,1.32-1.39,2.18-1.85Z"/>
      <path class="cls-1" d="M62.55,39.74c-.27.29-.62.52-1.01.63-.08.15-.17.31-.26.5.4-.16,1.35.1,1.92,0-.2-.62-.42-.99-.65-1.14h0Z"/>
      <path class="cls-1" d="M58.09,42.79l.84-.67c-.31.19-.6.4-.84.67Z"/>
      <path class="cls-1" d="M62.54,39.74c-.31-.19-.64.04-1,.63.39-.11.74-.35,1-.63Z"/>
      <path class="cls-1" d="M58.46,43.37c-.1-.17-.22-.35-.37-.58l.31.63s.04-.03.06-.05Z"/>
      <path class="cls-1" d="M52.34,40.24v2.22l1.61-.29-.97,1.89,2.55-1.27-.62-.32c.1-.43.54-.25.62-.32.54-.44,1.42-.51,1.28-1.27l-4.47-.64Z"/>
      <path class="cls-1" d="M47.57,19.14c-.38.18-.71.19-.97.03.05.25.08.47.11.68.2-.25.51-.49.86-.71h0Z"/>
      <path class="cls-1" d="M46.91,21.97c-.2-.13-.35-.28-.46-.45-.24.12-.61-.01-1.13-.44.19.16-.56,1.94,1.27.64v.72c.04-.24.14-.4.32-.47Z"/>
      <path class="cls-1" d="M46.7,19.85c-.02-.21-.05-.43-.1-.68-.41.4-.44,1.86-1.28,1.91.36.03.73.1,1.05.22-.17-.44-.07-.95.33-1.45Z"/>
      <path class="cls-1" d="M46.45,21.53c-.04-.07-.05-.15-.08-.22-.32-.11-.69-.19-1.05-.22.52.43.89.56,1.13.44h0Z"/>
      <path class="cls-1" d="M46.61,21.4c.33.14.58.33.7.53.31.03.7.17,1.2.43l-1.77-1.47c-.02.21-.06.39-.13.5h0Z"/>
      <path class="cls-1" d="M47.57,19.14c.16-.1.3-.2.49-.29-.17.13-.33.22-.49.29-.36.22-.66.46-.87.71.04.27.06.51.06.72l1.75-2.03c-.33-.06-.69-.01-1.02.1-.19.18-.48.35-.89.53.26.17.59.15.97-.03h0Z"/>
      <path class="cls-1" d="M47.57,19.14c.16-.07.32-.16.49-.29-.19.09-.33.19-.49.29Z"/>
      <path class="cls-1" d="M47.49,18.64c-.34.12-.66.3-.89.53.41-.18.7-.35.89-.53Z"/>
      <path class="cls-1" d="M47.31,21.93c-.12-.2-.37-.39-.7-.53-.04.07-.1.1-.16.13.11.17.26.32.46.45.11-.05.24-.06.4-.04Z"/>
      <path class="cls-1" d="M46.61,21.4c-.08-.03-.16-.07-.24-.09.03.08.04.15.08.22.06-.03.12-.07.16-.13h0Z"/>
      <path class="cls-1" d="M46.74,20.89l-.15-.12.17-.2c0-.21-.02-.45-.06-.72-.4.49-.5,1.01-.33,1.45.08.03.16.06.24.09.07-.11.11-.29.13-.5h0Z"/>
      <path class="cls-1" d="M47.39,22.17c.01.27-.21.55-.79.83.53-.22,1.01-.2,1.91-.64-.45,0-.81-.08-1.12-.19h0Z"/>
      <path class="cls-1" d="M47.39,22.17c-.17-.06-.35-.12-.48-.2-.17.07-.28.23-.31.47v.56c.58-.28.8-.57.79-.83h0Z"/>
      <path class="cls-1" d="M47.39,22.17c.31.11.67.19,1.12.19-.49-.26-.89-.4-1.2-.43.05.08.07.16.08.24Z"/>
      <path class="cls-1" d="M46.91,21.97c.13.08.3.14.48.2-.01-.08-.03-.16-.08-.24-.16-.02-.29,0-.4.04Z"/>
      <path class="cls-1" d="M3.51,41.53l-.96,2.54-1.27-1.91-.64,3.83c.19.23,5.34-3.08,2.87-4.46Z"/>
      <path class="cls-1" d="M57.66,46.17c.15-.07.29-.14.43-.19-.11-.02-.17-.05-.24-.08-.05.11-.12.2-.19.27Z"/>
      <path class="cls-1" d="M57.43,46.29c-.16.02-.36-.06-.62-.31.36.9-1.02,1.94-1.91,1.91.28.92.98,1.27,1.91,1.28-.55-.18-.54-.39,0-.64l-.62-.32.62-.32c-.56-.62-.04-1.21.62-1.6Z"/>
      <path class="cls-1" d="M57.43,46.29c-.66.39-1.18.99-.62,1.6.16-.31,1.2-.23,1.28-1.91-.14.05-.28.12-.43.18-.07.07-.14.12-.23.13h0Z"/>
      <path class="cls-1" d="M56.81,45.98c-2.33.9-1.12,1.16-1.91,1.91.89.03,2.27-1.01,1.91-1.91Z"/>
      <path class="cls-1" d="M56.81,49.17c.09-.17-.08-.47,0-.64-.54.25-.55.46,0,.64Z"/>
      <path class="cls-1" d="M57.85,45.9c.09-.16.16-.35.24-.56-.44.25-.52.43-.24.56Z"/>
      <path class="cls-1" d="M57.66,46.17c.07-.07.13-.16.19-.27-.28-.13-.2-.31.24-.56-.29-.17-.88.49-1.28.64.26.25.46.33.62.31.08-.05.16-.09.24-.13h-.01Z"/>
      <path class="cls-1" d="M57.85,45.9c.07.03.13.06.24.08.01-.21-.01-.43,0-.64-.08.21-.15.4-.24.56Z"/>
      <path class="cls-1" d="M57.66,46.17c-.07.04-.15.08-.23.13.09-.01.16-.06.23-.13Z"/>
      <path class="cls-1" d="M34.75,56.66c.18-.08.36-.14.55-.19-.36-.06-.71-.13-1.05-.2.32.09.48.22.5.38h0Z"/>
      <path class="cls-1" d="M34.75,56.66c.05.25-.26.55-.92.82,1.52.1,2.57-.51,3.83-.64-.85-.11-1.62-.23-2.36-.36-.19.05-.37.11-.55.18Z"/>
      <path class="cls-1" d="M33.83,56.2c.17.02.3.05.43.08.33.07.68.13,1.04.2.84-.2,1.81-.12,2.36.36-.64-1.91-2.34-1.12-3.83-.64h0Z"/>
      <path class="cls-1" d="M35.3,56.47c.74.13,1.51.25,2.36.36-.56-.48-1.52-.56-2.36-.36Z"/>
      <path class="cls-1" d="M34.75,56.66c-.02-.16-.18-.29-.5-.38-.13-.03-.29-.05-.42-.08-.03.42.02.85,0,1.28.15-.35.5-.62.92-.82h0Z"/>
      <path class="cls-1" d="M34.75,56.66c-.42.19-.77.46-.92.82.66-.26.96-.57.92-.82Z"/>
      <path class="cls-1" d="M33.83,56.2c.14.03.29.05.43.08-.12-.03-.26-.06-.43-.08Z"/>
      <path class="cls-1" d="M54.26,35.13l3.84-1.59c-1.12-.92-2.82.46-3.84.95v.64h0Z"/>
      <path class="cls-1" d="M48.73,15.99c-.34.41-1.04.83-2.13,1.27,1.15-.38,1.85-.8,2.13-1.27Z"/>
      <path class="cls-1" d="M48.73,15.99c.23-.4.17-.82-.22-1.29.28,2.45-1.69-.03-1.91,2.55,1.09-.44,1.79-.86,2.13-1.27h0Z"/>
      <path class="cls-1" d="M48.51,14.7c.53.41.59.84.22,1.29-.28.47-.98.89-2.13,1.27,2.07-.09,4.9-.7,1.91-2.55h0Z"/>
      <path class="cls-1" d="M48.73,15.99c.37-.45.31-.88-.22-1.29.39.46.45.89.22,1.29Z"/>
      <path class="cls-1" d="M9.57,24.92c-.95.94-2.12,3.17-.32,2.55,1.1-.81,1.78-1.76,1.6-3.18-.26.97-.66,1.57-1.28.64Z"/>
      <path class="cls-1" d="M10.85,24.28c-.33.27-1.01.38-1.28.64.62.94,1.02.33,1.28-.64Z"/>
      <path class="cls-1" d="M54.26,34.49c-.32.15-1.13-.41-1.31.38-.18.78.16,1.93.04,2.81,1.18-.24,1.33-1.52,1.27-2.55-.56-.18-.55-.39,0-.64h0Z"/>
      <path class="cls-1" d="M54.26,35.13v-.64c-.55.24-.56.46,0,.64Z"/>
      <path class="cls-1" d="M13.4,19.17c1.35-.27,2.68-.87,2.55-2.55-1.24.9-2.47,1.82-3.82,2.55.5-.26.92-.26,1.27,0Z"/>
      <path class="cls-1" d="M13.4,19.17c-.35-.26-.77-.26-1.27,0,.41-.05.89.08,1.27,0Z"/>
      <path class="cls-1" d="M3.12,40.81c.11-.07.93-2.21.7-2.49-3.13.71-3.14,3.97-.7,2.49Z"/>
      <path class="cls-1" d="M55.12,20.62c-.11-.44.33-.91,1.05-.81-.66-3.43-1.3-.5-1.91,1.28.29-.62.55-.71.86-.47h0Z"/>
      <path class="cls-1" d="M55.12,20.62c-.31-.24-.57-.15-.86.47.34-.07.44.96,1.28,0-.25-.12-.38-.29-.42-.47Z"/>
      <path class="cls-1" d="M55.12,20.62c.13.1.26.26.41.47.26-.29.37-.92.64-1.28-.72-.11-1.17.37-1.05.81h0Z"/>
      <path class="cls-1" d="M55.12,20.62c.04.18.17.35.41.47-.15-.21-.28-.37-.41-.47Z"/>
      <path class="cls-1" d="M52.03,9.6c.63-.02.19.89.31,1.27.62-.61.89-.22.64.64.03-.11.68-.15.54-.8-.14-.65-1.24-1.44-1.18-2.39-.17.65-.43.93-.69.84-.02.55-.42,1.33-1.22,2.35.64-.05,1.02-1.52,1.6-1.91h0Z"/>
      <path class="cls-1" d="M51.07,8.32c-.42.74-.45,2.29-.64,3.19.8-1.02,1.2-1.8,1.22-2.35-.21-.07-.41-.33-.58-.84h0Z"/>
      <path class="cls-1" d="M51.64,9.16c.27.08.53-.19.7-.84-.42.03-.85-.02-1.27,0,.4.16.58.44.57.84h0Z"/>
      <path class="cls-1" d="M51.64,9.16c.01-.4-.17-.69-.57-.84.16.51.37.78.57.84Z"/>
      <path class="cls-1" d="M52.34,10.87c.06.17.51.39.64.64.25-.85-.02-1.24-.64-.64Z"/>
      <path class="cls-1" d="M64.11,41.5c.01.23-.29.47-.91.65.42-.29,2.43.76,1.91-1.28-.07.52-.54.7-1,.62Z"/>
      <path class="cls-1" d="M63.2,40.88c0,.43-.01.85,0,1.28.23-.25.5-.47.8-.67-.34-.08-.65-.29-.8-.61Z"/>
      <path class="cls-1" d="M64.11,41.5s-.08,0-.11-.02c-.3.2-.57.42-.81.67.63-.18.93-.42.91-.65h.01Z"/>
      <path class="cls-1" d="M63.2,40.88c.52.16.81.35.88.55.31-.2.65-.39,1.03-.55-1.07-.13-.36-.27-1.91,0Z"/>
      <path class="cls-1" d="M64.11,41.5c.46.07.93-.11,1-.62-.38.16-.72.34-1.03.55.01.03.02.05.03.08Z"/>
      <path class="cls-1" d="M64,41.48s.05-.04.08-.06c-.07-.2-.36-.39-.88-.55.15.32.46.52.8.61h0Z"/>
      <path class="cls-1" d="M64.11,41.5s-.02-.05-.03-.08c-.03.02-.05.04-.08.06.03,0,.07.01.11.02h0Z"/>
      <path class="cls-1" d="M47.87,52.37c.81.82.11.97,0,1.28.2.11.3.23.35.33.4-.48.72-1.01.93-1.61-.39-.05-.88-.03-1.28,0Z"/>
      <path class="cls-1" d="M47.24,54.92c1.73.02,2.04-.99,1.91-2.55-.21.6-.53,1.13-.93,1.61.15.35-.38.67-.98.94Z"/>
      <path class="cls-1" d="M48.22,53.98c-.05-.11-.15-.22-.35-.33-.14.43-.47.84-.64,1.28.38-.28.71-.6.99-.94h0Z"/>
      <path class="cls-1" d="M48.22,53.98c-.28.34-.6.66-.98.94.6-.27,1.13-.59.98-.94Z"/>
      <path class="cls-1" d="M50.41,5.45l-.63-1.6c-2.37.83-.79,3.6.63,1.6Z"/>
      <path class="cls-1" d="M42.13,14.07c.03-.59-.5-1.64,0-2.55-.77.29-2.49,1.89-2.55,2.55,1.02-.92,2.21-1.65,2.55,0Z"/>
      <path class="cls-1" d="M39.58,14.07h2.55c-.34-1.65-1.53-.92-2.55,0Z"/>
      <path class="cls-1" d="M26.81,49.18l-1.91,2.55c.26-.25,2.13,0,1.91-2.55Z"/>
      <path class="cls-1" d="M24.9,51.73l1.91-2.55c-1.08.64-1.88,1.15-1.91,2.55Z"/>
      <path class="cls-1" d="M37.66,28.11c.28.23.37.44.37.64.24-.53.12-.74-.37-.64Z"/>
      <path class="cls-1" d="M37.66,28.11c0,.08-.58.23-.53.78.02.23.52.37.53.5.17-.25.29-.46.37-.64,0-.2-.09-.41-.37-.64Z"/>
      <path class="cls-1" d="M37.66,28.11c.49-.1.61.11.37.64-.01.23-.15.45-.37.64l1.92-.65c-.42-1.22-.99-1.47-1.92-.63Z"/>
      <path class="cls-1" d="M38.03,28.75c-.08.18-.21.39-.37.64.22-.19.36-.4.37-.64Z"/>
      <path class="cls-1" d="M29.36,13.43c-1.33-.84-1.54-1.48-.63-1.91-.36.1-1.17-.13-1.28,0-.89,1.1,1,1.58,1.91,1.91Z"/>
      <path class="cls-1" d="M29.36,13.43l-.63-1.91c-.91.44-.7,1.07.63,1.91Z"/>
      <path class="cls-1" d="M41.45,55.94c-.2.3-.38.59-.6.89.86-.03.95-.49,1.28-.64-.37,0-.59-.1-.68-.26h0Z"/>
      <path class="cls-1" d="M42.13,54.92c-.18.3-.41.62-.62.93.18.01.38.11.62.35.05-.41-.08-.9,0-1.28Z"/>
      <path class="cls-1" d="M41.41,55.85c-.07-.28.18-.68.72-.93-.54.32-1.77-.62-1.28,1.91.08-.56.26-.93.56-.99h0Z"/>
      <path class="cls-1" d="M41.41,55.85s.07,0,.1,0c.2-.31.43-.63.62-.93-.54.25-.79.64-.72.93h0Z"/>
      <path class="cls-1" d="M41.41,55.85s.02.07.04.09c.02-.03.04-.06.06-.09-.03,0-.07,0-.1,0Z"/>
      <path class="cls-1" d="M41.45,55.94c.09.16.31.26.68.25-.24-.24-.44-.34-.62-.35-.02.03-.04.06-.06.09h0Z"/>
      <path class="cls-1" d="M41.41,55.85c-.29.05-.48.42-.56.99.22-.31.4-.6.6-.89-.02-.03-.03-.06-.04-.09Z"/>
      <path class="cls-1" d="M52.34,22.36c.36-.42.74-.65,1.01-.46,0-.27.28-.54.91-.82-.94.2-1.58.09-1.92,1.28Z"/>
      <path class="cls-1" d="M53.35,21.9c.11.08.21.22.27.46.13-.35.46-.74.64-1.28-.63.27-.91.55-.91.82Z"/>
      <path class="cls-1" d="M53.35,21.9c-.27-.18-.65.04-1.01.46h1.28c-.2-.15-.27-.31-.27-.46Z"/>
      <path class="cls-1" d="M53.35,21.9c0,.15.06.31.27.46-.06-.24-.16-.38-.27-.46Z"/>
      <path class="cls-1" d="M7.02,27.47h-1.27v1.91c.92-.22,1.46-1.03,1.27-1.91h0Z"/>
      <path class="cls-1" d="M62.56,16.62c-.68.71-1.11,1.56-1.28,2.55.61-.8.99-1.59,1.28-2.55Z"/>
      <path class="cls-1" d="M61.28,19.17c.1-1.42.53-2.27,1.28-2.55h-1.28s0,2.55,0,2.55h0Z"/>
      <path class="cls-1" d="M61.28,19.17c.17-1,.6-1.85,1.28-2.55-.75.28-1.18,1.13-1.28,2.55Z"/>
      <path class="cls-1" d="M48.51,34.49v-1.28c-.46.39-.44.81,0,1.28Z"/>
      <path class="cls-1" d="M47.22,34.17c0,.5.89.29,1.2.3-.83-.13-.8-1.04.09-1.26-.12.03-1.29-1.46-1.29.96Z"/>
      <path class="cls-1" d="M48.42,34.47s.08,0,.09.02c-.44-.46-.46-.89,0-1.28-.89.22-.92,1.13-.09,1.26Z"/>
      <path class="cls-1" d="M49.15,36.41l-2.55,1.28c1.19-.56,1.04-.25,2.55-1.28Z"/>
      <path class="cls-1" d="M25.53,44.07l.64,1.28c.25-1.07.03-1.49-.64-1.28Z"/>
      <path class="cls-1" d="M24.9,45.34c.41.05.87-.05,1.27,0l-.64-1.28-.63,1.27h0Z"/>
      <path class="cls-1" d="M25.53,44.07c.67-.22.88.21.64,1.28,1.75-3.03-.17-1.25-.64-1.28Z"/>
      <path class="cls-1" d="M37.02,8.32c-.7-.7-1.97.57-1.27,1.27s1.97-.57,1.27-1.27Z"/>
      <path class="cls-1" d="M15.32,26.19c.7.7,1.97-.57,1.27-1.27-.69-.7-1.96.57-1.27,1.27Z"/>
      <path class="cls-1" d="M37.26,31.38c.12-.05.25-.08.4-.08-.11-.03-.17-.07-.24-.11-.05.08-.1.14-.16.19Z"/>
      <path class="cls-1" d="M37.04,31.51c-.19.06-.41,0-.66-.21v.64c.09.03.14.07.19.11.12-.25.28-.42.47-.54h0Z"/>
      <path class="cls-1" d="M36.39,31.94v.64c.04-.2.11-.38.18-.53-.05-.04-.1-.07-.18-.11h0Z"/>
      <path class="cls-1" d="M37.04,31.51c.07-.05.14-.09.22-.12.06-.05.11-.12.16-.19-.24-.15-.16-.32.24-.53-.37.27-.96.38-1.28.64.25.21.47.26.66.21h0Z"/>
      <path class="cls-1" d="M37.66,31.3c-.14,0-.28.04-.4.08-.07.06-.14.1-.21.12-.19.12-.36.29-.48.54.22.16.17.33-.18.53.64-.15,1.04-.69,1.27-1.28Z"/>
      <path class="cls-1" d="M36.57,32.05c-.08.15-.14.33-.19.53.35-.19.41-.37.19-.53Z"/>
      <path class="cls-1" d="M37.26,31.38c-.08.03-.15.08-.22.12.08-.02.15-.07.22-.12Z"/>
      <path class="cls-1" d="M37.66,31.3c-.08-.16.08-.44,0-.64-.06.2-.14.38-.23.53.06.04.13.08.23.11h0Z"/>
      <path class="cls-1" d="M37.43,31.19c.09-.14.17-.32.23-.53-.4.2-.48.38-.23.53Z"/>
      <path class="cls-1" d="M.64,38.96c.7.7,1.97-.57,1.27-1.27-.37-.38-.91-.17-1.22.2-.02.35-.05.69-.07,1.04,0,0,0,.02.02.03h0Z"/>
      <path class="cls-1" d="M.62,38.93c.03-.35.05-.69.07-1.04-.26.31-.35.72-.07,1.04Z"/>
      <path class="cls-1" d="M39.1,55.88s-.03-.08-.04-.12c-.02.14-.06.29-.12.43.05-.14.11-.24.16-.31h0Z"/>
      <path class="cls-1" d="M39.05,54.48s-.08.02-.12.03c.02.15.06.3.01.41.07.15.11.3.13.46.05-.23.15-.49.29-.73-.1.06-.2,0-.31-.17h0Z"/>
      <path class="cls-1" d="M39.1,55.88c-.05.07-.11.17-.16.31.21-.03.43.04.64,0-.26-.04-.4-.15-.47-.31h-.01Z"/>
      <path class="cls-1" d="M39.58,54.28c-.07.21-.15.31-.22.37-.14.24-.24.5-.29.73.02.13.02.26-.01.39.01.04.03.08.04.12.16-.2.32-.1.48.31-.11-.55.16-1.54,0-1.91Z"/>
      <path class="cls-1" d="M38.93,54.51s.08-.02.12-.03c-.04-.06-.07-.11-.11-.19-.02.07-.02.15-.01.23Z"/>
      <path class="cls-1" d="M39.1,55.88c.08.16.22.28.48.31-.16-.41-.32-.51-.48-.31Z"/>
      <path class="cls-1" d="M39.07,55.38c-.02-.16-.05-.31-.13-.46-.13.3-.44.56-.49.92.15.1.31.21.49.35.06-.15.1-.29.12-.43-.02-.12-.02-.25.01-.38h0Z"/>
      <path class="cls-1" d="M39.36,54.65c.07-.13.14-.25.22-.37-.17.08-.35.14-.53.19.11.18.21.23.31.17h0Z"/>
      <path class="cls-1" d="M38.44,55.88l.5.31c-.18-.14-.34-.26-.49-.35,0,.01-.01.03-.01.04h0Z"/>
      <path class="cls-1" d="M39.05,54.48c.18-.06.36-.12.52-.19h-.63c.03.08.07.13.11.19h0Z"/>
      <path class="cls-1" d="M39.58,54.28c-.08.11-.15.24-.22.37.08-.05.15-.15.22-.37Z"/>
      <path class="cls-1" d="M39.06,55.76c.03-.13.03-.26.01-.38-.03.14-.03.27-.01.38Z"/>
      <path class="cls-1" d="M48.24,51.95s.04.05.04.07c.04-.01.07-.03.1-.03-.05-.01-.09-.02-.14-.04Z"/>
      <path class="cls-1" d="M49.15,52.37v-.64c-.09.18-.26.25-.45.28.15.06.3.16.45.36h0Z"/>
      <path class="cls-1" d="M48.24,51.95c.05.02.1.02.14.04.11-.03.21-.02.32.02.19-.02.36-.09.45-.28-1-.33-1.05.03-1.28,0,.21.07.32.14.37.22h0Z"/>
      <path class="cls-1" d="M48.7,52c-.1.01-.21,0-.31-.02-.04,0-.07.02-.1.03,0,.11-.13.23-.41.35.39-.03.88-.05,1.27,0-.14-.2-.3-.3-.45-.36Z"/>
      <path class="cls-1" d="M48.7,52c-.11-.04-.21-.05-.31-.02.1.03.21.03.31.02Z"/>
      <path class="cls-1" d="M48.29,52.02s-.04-.05-.05-.07c-.13-.05-.26-.12-.36-.22v.64c.12-.19.26-.29.41-.35Z"/>
      <path class="cls-1" d="M47.87,51.73c.11.1.24.17.37.22-.05-.08-.16-.15-.37-.22Z"/>
      <path class="cls-1" d="M48.29,52.02c-.15.07-.29.17-.41.35.28-.13.41-.24.41-.35Z"/>
      <path class="cls-1" d="M47.87,7.68c.73-.74-.27-2.05-1.27-.31-.08.56,1.23.36,1.27.31Z"/>
      <path class="cls-1" d="M50.43,41.51l.63,1.28c-.06-.57.25-1.31-.63-1.28Z"/>
      <path class="cls-1" d="M39.54,21.89c.01-.09.02-.15.04-.16-.18.56-.4.55-.64,0,.16,1.05.37,1.1.6.16Z"/>
      <path class="cls-1" d="M39.58,21.73h-.64c.24.55.45.56.64,0Z"/>
      <path class="cls-1" d="M39.54,21.89c-.23.94-.44.89-.6-.16.29,2.7.49.77.6.16Z"/>
      <path class="cls-1" d="M49.79,1.94c-.9-.46-1.71.4-1.27.62.89.46,1.7-.4,1.27-.62Z"/>
      <path class="cls-1" d="M39.58,49.18h-.64c-.05.12-.1.2-.15.3.25-.1.5-.2.78-.3h.01Z"/>
      <path class="cls-1" d="M44.94,33.31c0,.07-.01.13-.01.2.13-.1.25-.22.39-.29-.17.07-.29.09-.38.09h0Z"/>
      <path class="cls-1" d="M43.95,38.87c-.8-.92-.72-2.54-.16-3.83-1.08-.04-2.35-1.86-1.02-3.74-.3.44-1.1.89-1.28,1.28-.23.49-1.04,2.39-.64,2.55.1.04.82-.71,1.27-.34-.44.94-.88,1.94-1.27,2.89-.13.32.14,1.02,0,1.28-.47.88-1.4.87-1.91,1.28-.37.29-.49.81-1.28,1.28,2.32.14,1.86,1.65.35,2.09.68,1.1-1.45,3.81-3.54,1.74-.41.06-.89-.08-1.28,0-.88.68-2.54,2.16-3.19,2.55.44,1.73-1.22,2.37-2.15,1.31.08.35-.3.38-1.04-.03,2.66,1.24-.22,4.86-1.91,2.55-.1,2.69-2.39,5.07-5.11,5.11,2.63.5,2.21,3.28.31,3.96.62.44.95,1.19.77,1.85.31.15.61.53.83,1.21.09-1.32,2.62-3.72,4.28-3.57-3.31-2.14,3.81-8.29,5.94-4.09-.91-1.61-.57-2.16,1.28-1.91-1.39-1.79,2.02-4.12,3.33-3.09.06-.24.23-.48.5-.72-1.21-.47-1.93-2.76.63-3.21.22-.53.17-.73.64-1.28-.85-1.71,1.16-3.08,2.58-2.82.24-.88,1.71-1.68,3.16-1.65-.6-.92-.52-1.74-.09-2.64h0Z"/>
      <path class="cls-1" d="M19.61,64.58c-.07-.29-.08-.57-.05-.82-.13.04-.26.07-.41.09.17.13.32.38.46.73h0Z"/>
      <path class="cls-1" d="M24.9,51.73c-1.73,1.65-3.38,3.44-5.11,5.11,2.72-.04,5.01-2.42,5.11-5.11Z"/>
      <path class="cls-1" d="M27.85,49.21c-.16-.18-.3-.39-.4-.67-.28.14-.45.52-.64.64.74.41,1.12.38,1.04.03h0Z"/>
      <path class="cls-1" d="M21.7,63.86c.38-.12.77-.08,1.25-.33,1.68-.86,2.5-2.4,3.86-2.86-.33-.1-.61-.23-.83-.38-1.66-.15-4.19,2.25-4.28,3.57Z"/>
      <path class="cls-1" d="M40.88,43.17c.65.12,1.18.59,1.25,1.54.16-.41-.11-1.35,0-1.92,1.74,1.18,1.11.11,1.91-1.27-1.45-.03-2.92.77-3.16,1.66h0Z"/>
      <path class="cls-1" d="M44.93,33.5c0-.07.01-.13.01-.2-.47.01.01-.65.01-.2,0,.07-.01.13-.01.2.09,0,.2-.02.38-.09l-.63-.64v1.12c.07-.08.15-.13.23-.2h.01Z"/>
      <path class="cls-1" d="M43.79,35.04c.2-.45.46-.84.75-1.17-1.66.36-.96-1.27-1.77-2.57-1.33,1.87-.06,3.7,1.02,3.74Z"/>
      <path class="cls-1" d="M44.94,33.31c0-.07.01-.12.01-.2,0-.45-.48.21-.01.2Z"/>
      <path class="cls-1" d="M45.7,37.95l-1.65-.28c-.27-1.09.96-.41,1.18-.69.12-.15-.45-2,.09-3.78-.14.07-.27.18-.4.29-.09,1.11-.58,1.56-1.13,1.54-.57,1.3-.65,2.91.16,3.83-.43.9-.51,1.72.09,2.64.64-1.09,1.24-2.16,1.79-3.29-.03-.1-.08-.19-.13-.27h0Z"/>
      <path class="cls-1" d="M45.95,38l-.25-.04c.05.09.11.17.14.27.03-.08.08-.15.11-.23Z"/>
      <path class="cls-1" d="M44.92,33.5c-.08.07-.16.12-.24.2v.15c-.05.02-.09.01-.14.02-.29.33-.55.72-.74,1.17.54.02,1.03-.42,1.13-1.54h-.01Z"/>
      <path class="cls-1" d="M38.62,50.45c.29.62.49.99.64,1.19.1-.25.21-.51.34-.77-.03-.57-.08-1.27-.02-1.7-.29.1-.54.2-.79.3-.51,1.02-1.19,1.22-1.76,1-.27.24-.44.48-.5.72.29.22.48.6.5,1.18l1.59-1.91h0Z"/>
      <path class="cls-1" d="M38.79,49.48c-.8.33-1.39.66-1.76,1,.57.22,1.26.02,1.76-1Z"/>
      <path class="cls-1" d="M38.94,49.18c-2,1.13-2.04-.07-1.28-1.91-2.56.45-1.85,2.75-.64,3.21.38-.34.97-.67,1.77-1,.05-.1.1-.19.15-.3Z"/>
      <path class="cls-1" d="M40.88,43.17c-1.42-.27-3.43,1.1-2.58,2.81.98-1.13,2.41-2.14,3.83-1.28-1.08-.43-1.4-1-1.25-1.54Z"/>
      <path class="cls-1" d="M39.6,50.88c-.13.26-.24.52-.34.77.34.46.36-.05.34-.77Z"/>
      <path class="cls-1" d="M40.88,43.17c-.15.54.17,1.11,1.25,1.54-.07-.94-.6-1.41-1.25-1.54Z"/>
      <path class="cls-1" d="M35.75,43.43c.17-.09.35-.13.51-.14.97-.24,1.52-.06,1.75.31,1.51-.44,1.97-1.95-.35-2.09l.64,1.27c-1.49-.5-1.97.36-2.55.64h0Z"/>
      <path class="cls-1" d="M37.09,43.71c.21.5-.34,1.3-2.62,1.63,2.09,2.07,4.21-.64,3.54-1.74-.28.08-.59.12-.92.11h0Z"/>
      <path class="cls-1" d="M36.26,43.29c.39-.02.72.16.83.43.33,0,.64-.03.92-.11-.23-.37-.78-.55-1.75-.31Z"/>
      <path class="cls-1" d="M30,47.9c-1.37.82-2.22.47-2.55.64.24.29.36.51.4.67.93,1.06,2.59.42,2.15-1.31h0Z"/>
      <path class="cls-1" d="M27.85,49.21c-.04-.16-.16-.38-.4-.67.1.28.24.49.4.67Z"/>
      <path class="cls-1" d="M37.02,52.37c-.43-.4-.58-.79-.49-1.18-1.31-1.03-4.72,1.3-3.34,3.09.73-.84,2.47-2.99,3.83-1.91h0Z"/>
      <path class="cls-1" d="M37.02,52.37c-.01-.58-.21-.95-.49-1.18-.09.39.06.78.49,1.18Z"/>
      <path class="cls-1" d="M25.98,60.29c.31.03.6.14.83.38-1.73-3.25,2.13-5.32,5.11-4.47-2.13-4.2-9.25,1.95-5.94,4.09Z"/>
      <path class="cls-1" d="M26.81,60.66c-.23-.24-.52-.35-.83-.38.22.15.5.27.83.38Z"/>
      <path class="cls-1" d="M19.04,60.94l-.51,1.35c1.97-.41,1.45-.04.62,1.57.15-.02.28-.05.41-.09.11-.87.72-1.42,1.31-1.12.18-.66-.15-1.41-.77-1.85-.32.11-.67.17-1.06.14h0Z"/>
      <path class="cls-1" d="M17.87,60.66c.89-.39,1.68-.25,2.23.13,1.9-.68,2.32-3.46-.31-3.96,1.11,2.5.35,2.93-1.91,3.83h0Z"/>
      <path class="cls-1" d="M17.87,60.66h1.28l-.11.27c.39.02.74-.03,1.06-.14-.55-.38-1.33-.52-2.22-.13h0Z"/>
      <path class="cls-1" d="M20.87,62.64c-.13.49-.54.92-1.31,1.12-.03.25-.02.52.05.81.06.16.12.34.18.55-.38-2.12.85-.93,1.91-1.28-.22-.68-.52-1.06-.83-1.21h0Z"/>
      <path class="cls-1" d="M19.56,63.77c.77-.2,1.18-.63,1.31-1.12-.59-.3-1.21.25-1.31,1.12Z"/>
      <path class="cls-1" d="M31.92,56.2c.44-.6.8-1.37,1.27-1.91-1.84-.24-2.18.31-1.27,1.91Z"/>
      <path class="cls-1" d="M26.81,49.18c.22,2.55-1.65,2.3-1.91,2.55,1.68,2.31,4.57-1.31,1.91-2.55Z"/>
      <path class="cls-1" d="M19.16,64.49c.14.32.47.44.63.64-.09-.19-.14-.37-.18-.55-.14-.35-.29-.59-.46-.73.02.26.02.45.01.64h0Z"/>
      <path class="cls-1" d="M19.16,64.49c.01-.18.01-.38-.01-.64-.08.29-.05.48.01.64Z"/>
      <path class="cls-1" d="M19.61,64.58c.04.18.09.36.18.55-.06-.21-.12-.39-.18-.55Z"/>
      <path class="cls-1" d="M.64,53l.32.63.32-.63c-.19.36-.41.36-.64,0h0Z"/>
      <path class="cls-1" d="M1.28,53h-.64c.23.36.45.36.64,0Z"/>
      <path class="cls-1" d="M17.55,49.81v.64c.42-.21.42-.43,0-.64Z"/>
      <path class="cls-1" d="M55.53,42.79v-.64c-.3.22-.3.43,0,.64Z"/>
      <path class="cls-1" d="M54.91,42.47l.62.32c-.3-.21-.3-.42,0-.64-.08.07-.52-.11-.62.32h0Z"/>
      <path class="cls-1" d="M41.49,15.34c-.01-.21,0-.43,0-.64-.3.25-.3.46,0,.64Z"/>
      <path class="cls-1" d="M41.49,15.34c-.3-.18-.3-.39,0-.64l-.63.32.63.32h0Z"/>
      <path class="cls-1" d="M.2,83.5c.42-.32.71-.71.81-1.09-.17-.33-.31-.67-.39-1.02-.07.81-.16,1.56-.42,2.11H.2Z"/>
      <path class="cls-1" d="M.32,81.09l-.32,2.55c.07-.05.13-.1.2-.15.26-.55.35-1.31.42-2.11.08.35.22.69.39,1.02.13-.49-.05-.98-.69-1.31Z"/>
      <path class="cls-1" d="M1.92,83.65c-.46.9.41,1.7.63,1.27.16-.32.15-.62.07-.86-.23-.1-.45-.25-.66-.44-.02.01-.03.01-.04.03h0Z"/>
      <path class="cls-1" d="M1.96,83.61c.21.19.43.34.66.44-.14-.42-.5-.65-.66-.44Z"/>
      <path class="cls-1" d="M52.34,22.36c-.07-.13-.14-.25-.19-.37-.01,0-.03.02-.04.03.08.06.15.16.23.34Z"/>
      <path class="cls-1" d="M51.07,19.81c.64,0,1.08.17,1.36.4.39-.22.98-.1,1.54.51-1.92-2.6,2.3-4.2,2.2-.91-.1-.93.12-1.36.64-1.28l-1.92-.65c-.16-.52.61-.53.64-.63-.55-.16-.53-.38,0-.64h-.64c-.53,1.31-2.2,3.7-3.83,3.19h.01Z"/>
      <path class="cls-1" d="M55.53,17.26c.06-.18-.03-.42,0-.64-.53.26-.54.47,0,.64Z"/>
      <path class="cls-1" d="M54.9,16.62c-2.33.09-2.5,1.56-3.83,3.19,1.63.51,3.29-1.88,3.83-3.19Z"/>
      <path class="cls-1" d="M51.7,22.36c.13-.37.26-.47.41-.34.01,0,.03-.02.03-.03-.38-.85-.17-1.53.28-1.78-.27-.23-.71-.39-1.35-.4.17.5.68,2.2.63,2.55h0Z"/>
      <path class="cls-1" d="M56.17,19.81c.37-.49.44-.95.64-1.28-.52-.08-.74.35-.64,1.28Z"/>
      <path class="cls-1" d="M52.11,22.02c-.12.12-.25.23-.41.34h.64c-.08-.18-.15-.28-.23-.34Z"/>
      <path class="cls-1" d="M51.7,22.36c.16-.11.29-.23.41-.34-.15-.13-.29-.03-.41.34Z"/>
      <path class="cls-1" d="M56.17,19.81c.1-3.29-4.11-1.69-2.2.91.1.11.19.23.29.36.61-1.78,1.25-4.7,1.91-1.28Z"/>
      <path class="cls-1" d="M52.43,20.21c.49.42.41,1.11-.28,1.78.05.12.12.25.19.37.34-1.18.98-1.07,1.92-1.28-.12-.12-.2-.24-.29-.36-.56-.62-1.15-.73-1.54-.51Z"/>
      <path class="cls-1" d="M52.15,21.99c.69-.67.78-1.36.28-1.78-.46.25-.67.93-.28,1.78Z"/>
      <path class="cls-1" d="M53.97,20.72c.09.12.17.24.29.36-.1-.14-.19-.26-.29-.36Z"/>
      <path class="cls-1" d="M56.57,17.7c.21.2.34.47.24.83.21-.8.21-1.44,0-1.91.06.59-.03.95-.24,1.08Z"/>
      <path class="cls-1" d="M55.8,17.71c-.14-.15-.14-.24-.08-.29-.06-.05-.12-.1-.19-.16-.18.97.32.51.27.45Z"/>
      <path class="cls-1" d="M56.57,17.7c.21-.13.3-.49.24-1.08-.42.22-.85.43-1.28.64.07.06.13.11.19.16.13-.1.56,0,.85.28Z"/>
      <path class="cls-1" d="M56.81,18.53c.37-.59,3.08-1.8,0-1.91.21.48.21,1.12,0,1.91Z"/>
      <path class="cls-1" d="M54.89,17.89l1.92.65c.11-.36-.03-.64-.24-.83-.19.12-.48.02-.85-.28-.06.05-.06.14.08.29.05.05-.45.51-.27-.45-.02.1-.79.11-.64.63Z"/>
      <path class="cls-1" d="M55.72,17.42c.37.3.66.4.85.28-.29-.28-.72-.39-.85-.28Z"/>
      <path class="cls-1" d="M60,17.9v1.28c.33-1.53,0-1.19,0-1.28Z"/>
      <path class="cls-1" d="M60,19.17c-.26-.26-.26-.69,0-1.28l-.62.89.62.39Z"/>
      <path class="cls-1" d="M60,19.17v-1.28c-.26.59-.26,1.02,0,1.28Z"/>
      <path class="cls-1" d="M54.9,16.62h.64c.03-.21-.04-.43,0-.64-.09.37-.21.64-.64.64Z"/>
      <path class="cls-1" d="M55.53,15.98l-.63.64c.42,0,.55-.26.63-.64Z"/>
      <path class="cls-1" d="M53.62,13.23c-.03-.22.17-.58.64-1.07l-1.28.64c.16.19.38.33.64.44Z"/>
      <path class="cls-1" d="M53.62,13.23c.34.14.76.21,1.28.2.08-.47-.64-1.15-.64-1.28-.47.5-.67.85-.64,1.07h0Z"/>
      <path class="cls-1" d="M53.62,13.23c-.26-.11-.48-.25-.64-.44l-2.55,2.55c1.73.15,3.22-.9,4.47-1.91-.82.15-1.24.08-1.28-.2h0Z"/>
      <path class="cls-1" d="M54.9,13.43c-.52.01-.93-.06-1.28-.2.04.28.46.35,1.28.2Z"/>
      <path class="cls-1" d="M52.65,8.68c.83,1.07,1.92,3.4.33,2.84.12.16.18.34.19.53.18-.18.44-.25.69-.18.02-.1.15-.22.4-.35l-1.28-3.19c-.04.38-.16.48-.33.35h0Z"/>
      <path class="cls-1" d="M53.86,11.87c.14.04.28.13.4.28-.01-.21-.01-.43,0-.64-.25.14-.37.25-.4.35h0Z"/>
      <path class="cls-1" d="M52.98,8.32c-.21.01-.43-.02-.64,0,.1.09.2.21.31.35.17.12.29.03.33-.35Z"/>
      <path class="cls-1" d="M53.17,12.04c-.01-.19-.07-.37-.19-.53-.08.31-.46.64-.62.96l.62.32c-.08-.3.01-.57.19-.75Z"/>
      <path class="cls-1" d="M52.98,11.51c1.59.56.5-1.76-.33-2.84-.09-.06-.19-.17-.31-.35-.06.95,1.04,1.74,1.18,2.39.15.65-.51.69-.54.8h0Z"/>
      <path class="cls-1" d="M52.65,8.68c-.11-.14-.21-.27-.31-.35.13.19.22.29.31.35Z"/>
      <path class="cls-1" d="M53.86,11.87c-.25-.08-.51,0-.69.18.02.23-.04.48-.19.75l1.28-.64c-.32-.07-.43-.16-.4-.28h0Z"/>
      <path class="cls-1" d="M54.26,12.15c-.12-.16-.26-.24-.4-.28-.04.12.08.22.4.28Z"/>
      <path class="cls-1" d="M53.17,12.04c-.18.18-.28.45-.19.75.15-.27.21-.52.19-.75Z"/>
      <path class="cls-1" d="M54.13,9.35c.16.52.21,1.24.13,2.16,0-.16.55-3,.64-3.19-.26.62-.51.95-.77,1.03Z"/>
      <path class="cls-1" d="M54.02,9.08c.13-.44.42-.7.88-.76-1.18-.48-1.35-.03-1.92,0,.48.04.83.3,1.05.76h-.01Z"/>
      <path class="cls-1" d="M54.02,9.08c.04.08.08.18.11.27.26-.08.51-.41.77-1.03-.46.06-.75.32-.88.76h0Z"/>
      <path class="cls-1" d="M53.96,9.38c-.3-.03-.62-.39-.98-1.06l1.28,3.19c-.27-.91-.36-1.61-.3-2.13Z"/>
      <path class="cls-1" d="M54.13,9.35c-.06.02-.11.03-.17.03-.06.52.03,1.23.3,2.13.08-.92.03-1.64-.13-2.16Z"/>
      <path class="cls-1" d="M53.96,9.38c.02-.11.03-.21.06-.3-.21-.46-.56-.72-1.04-.76.36.67.68,1.03.98,1.06Z"/>
      <path class="cls-1" d="M54.13,9.35c-.03-.1-.07-.19-.11-.27-.03.09-.04.19-.06.3.06,0,.11-.01.17-.03h0Z"/>
      <path class="cls-1" d="M55.54,8.32c-.06-.32.04-.62.28-.92l-.69.69c.13-.05.26.01.41.23Z"/>
      <path class="cls-1" d="M55.53,8.32c-.14-.22-.27-.28-.4-.23l-.23.23c.19.08.49-.09.63,0Z"/>
      <path class="cls-1" d="M54.9,8.32c.07-.13.15-.2.23-.23l.69-.69c.1-.12.21-.24.35-.35-.69.15-1,.68-1.27,1.28Z"/>
      <path class="cls-1" d="M54.9,8.32l.23-.23c-.08.03-.16.1-.23.23Z"/>
      <path class="cls-1" d="M55.53,8.32c.58-.28.47-.85.64-1.28l-.35.35c-.24.3-.34.61-.29.92Z"/>
      <path class="cls-1" d="M55.82,7.4l.35-.35c-.14.12-.25.23-.35.35Z"/>
      <path class="cls-1" d="M57.65,9.93c-.01.1-.08.2-.2.3.29.11.35,0,.2-.3Z"/>
      <path class="cls-1" d="M57.65,9.93c.15.31.09.41-.2.3.12.15-.08.89.01,1.27.99.31,1-1.62-.01-1.91.15.11.21.22.2.33Z"/>
      <path class="cls-1" d="M57.65,9.93c-.05-.09-.11-.2-.2-.33v.64c.12-.1.19-.21.2-.3Z"/>
      <path class="cls-1" d="M57.45,9.6c.09.13.15.24.19.33.02-.12-.04-.23-.19-.33Z"/>
      <path class="cls-1" d="M58.73,12.79c-.06-.17-.1-.31-.13-.45-.26-.22-.75-.37-1.15-.18-.28.14-.11.4.21.58.33-.08.69-.07,1.07.05h0Z"/>
      <path class="cls-1" d="M58.6,12.34c.03.14.07.28.13.45.13-.12.05-.3-.13-.45Z"/>
      <path class="cls-1" d="M58.73,12.79c-.38-.13-.74-.13-1.07-.05.33.19.81.29,1.07.05Z"/>
      <path class="cls-1" d="M66.11,51.07c-.15-.1-.26-.22-.34-.34-.04.05-.06.1-.07.15l.05.2c.07.07.22.04.36-.02Z"/>
      <path class="cls-1" d="M65.75,51.09l-.05-.2c-.01.07-.01.15.05.2Z"/>
      <path class="cls-1" d="M66.11,51.07c.15-.07.28-.19.28-.3-.04-.47-.45-.29-.62-.03.08.12.19.23.34.34Z"/>
      <path class="cls-1" d="M68.05,38.99c-.07.13-.17.27-.29.41.03.05.07.1.12.14l.42.06c0-.08.02-.14.03-.21-.03-.17-.15-.36-.28-.4h0Z"/>
      <path class="cls-1" d="M68.3,39.6l-.42-.06c.14.11.31.17.42.06Z"/>
      <path class="cls-1" d="M67.76,39.4c.12-.14.21-.27.29-.41-.02,0-.05-.03-.07-.03-.34.02-.34.25-.22.44Z"/>
      <path class="cls-1" d="M68.33,39.39c-.01.07-.02.13-.03.21.05-.04.05-.12.03-.21Z"/>
      <path class="cls-1" d="M40.72,33.03c-.18.09-.5.13-.5.19-.3,1.79.22,1.77-1.92,2.88,2.05.75.89.42.64,1.59.4.36.6.68.66.99.2-.08.44-.07.71.02-1.03-.61-1.01-1.36.22-2.27.09-.88,1.02-1.05.88-1.02-.15.04-.35-.09-.55-.27.3.3-.6,1.02-.64.32-.02-.22.49-.46.64-.32-.59-.22-.52-1.42-.14-2.11h0Z"/>
      <path class="cls-1" d="M42.77,28.11c-.71.03-1.29.37-1.92.64-.02.31-.06.61-.11.9.52-.59,1.28-1.14,2.03-1.54h0Z"/>
      <path class="cls-1" d="M40.16,31.58c-.17.36-.36.7-.58,1h.63l.6.3c.18-.27.42-.43.68-.3-.73-.27-1.15-.62-1.33-1h0Z"/>
      <path class="cls-1" d="M40.74,29.65c.05-.29.09-.58.11-.9-3.32,1.39-1.46,1.05-1.27,3.83.22-.3.41-.64.58-1-.29-.6.01-1.29.58-1.93Z"/>
      <path class="cls-1" d="M40.53,36.42s0,0,.01,0l.31,1.27c.39-.96.83-1.95,1.27-2.89-.45-.37-1.17.38-1.27.34.21.18.41.31.56.27.14-.04-.79.14-.88,1.02h0Z"/>
      <path class="cls-1" d="M39.6,38.67c.09.5-.19.97-.66,1.57.51-.41,1.44-.39,1.91-1.28-.21-.09-.38-.18-.54-.27-.28-.09-.52-.1-.72-.02h.01Z"/>
      <path class="cls-1" d="M40.81,32.88l.03.02c-.01.05-.06.09-.13.12-.37.69-.45,1.88.14,2.11-.4-.16.41-2.06.64-2.55-.26-.12-.5.03-.69.3h.01Z"/>
      <path class="cls-1" d="M39.6,38.67c-.06-.31-.26-.62-.66-.99-.15.72-.52,1.4-.5,2.16l.5.39c-.06-.82.2-1.39.66-1.57Z"/>
      <path class="cls-1" d="M39.6,38.67c-.46.17-.72.74-.66,1.57.46-.59.75-1.07.66-1.57Z"/>
      <path class="cls-1" d="M42.77,28.11c-.76.4-1.51.95-2.03,1.54-.12.71-.31,1.35-.58,1.93.18.38.6.73,1.33,1-1.33-2.06,1-3.24,1.28-4.47Z"/>
      <path class="cls-1" d="M40.16,31.58c.27-.58.46-1.22.58-1.93-.57.64-.87,1.33-.58,1.93Z"/>
      <path class="cls-1" d="M40.37,38.02c.07-.12.21-.23.48-.33-.6-.8-.75-.4-.48.33Z"/>
      <path class="cls-1" d="M40.37,38.02c.1.28.26.61.48.94.14-.26-.13-.96,0-1.28-.27.1-.41.22-.48.33Z"/>
      <path class="cls-1" d="M40.53,36.42c-1.23.91-1.25,1.66-.22,2.27.17.06.35.14.54.27-.39-.39-.64-.69-.48-.94-.27-.73-.12-1.13.48-.33-.28-.53-.36-.94-.32-1.27h0Z"/>
      <path class="cls-1" d="M40.53,36.42c-.04.32.04.73.32,1.26l-.31-1.27s-.01,0-.01,0h0Z"/>
      <path class="cls-1" d="M40.85,38.96c-.19-.13-.37-.21-.54-.27.16.09.34.18.54.27Z"/>
      <path class="cls-1" d="M40.85,38.96c-.22-.33-.38-.66-.48-.94-.16.26.09.56.48.94Z"/>
      <path class="cls-1" d="M52.34,10.88c-.63.2-1.27.42-1.91.64.31.23.95.02,1.91-.64Z"/>
      <path class="cls-1" d="M49.89,13.27c.06.05.12.1.22.15l2.23-2.55c-.96.66-1.6.87-1.91.64-.07.32-.75.94-.72,1.44.07.11.13.22.18.33h0Z"/>
      <path class="cls-1" d="M49.89,13.27c-.05-.11-.11-.21-.18-.33.01.12.07.23.18.33Z"/>
      <path class="cls-1" d="M52.03,9.6c-.58.39-.96,1.86-1.6,1.91.64-.22,1.28-.44,1.91-.64-.12-.39.31-1.29-.32-1.27h.01Z"/>
      <path class="cls-1" d="M38.21,35.09c-.13.09-.27.08-.41,0,.07.63-.13,1.35-.52,1.87.34-.11.7-.07,1.08.18-.15-.18-.24-.32-.27-.41-.3-.49-.26-1.04.12-1.64h0Z"/>
      <path class="cls-1" d="M36.41,37.63c-.21.07-.43.09-.66.05.22.02.39.06.53.1.04-.06.08-.1.13-.15Z"/>
      <path class="cls-1" d="M40.21,33.22v-.64c-.1.33-.22.44-.35.38-.03.09-.11.17-.28.26l-.42.41c-.08.11-.16.2-.22.22-.11.29-.21.51-.31.7.38-.42.9-.87,1.59-1.34h-.01Z"/>
      <path class="cls-1" d="M36.41,37.63c.25-.33.55-.57.87-.67.39-.52.59-1.24.52-1.87-.24-.15-.5-.56-.77-1.23-.34.59-.92,2.83-1.28,3.83.23.03.45.01.66-.05h0Z"/>
      <path class="cls-1" d="M35.75,37.68c-.12.32.11.93,0,1.28.12-.44.31-.84.53-1.18-.14-.04-.31-.07-.53-.1Z"/>
      <path class="cls-1" d="M37.8,35.09c.14.08.28.09.41,0,.11-.17.25-.35.41-.53.11-.19.21-.41.32-.7-.47.15-1.34-.1-1.92,0,.48.24.73.71.78,1.23Z"/>
      <path class="cls-1" d="M39.86,32.95c-.09-.04-.18-.15-.28-.38.01.21-.01.43,0,.64.17-.09.25-.17.28-.26Z"/>
      <path class="cls-1" d="M37.8,35.09c-.05-.53-.3-.99-.78-1.23.28.68.53,1.09.78,1.23Z"/>
      <path class="cls-1" d="M38.36,37.14c-.38-.25-.74-.29-1.08-.18-.23.31-.53.56-.88.67-.04.05-.08.09-.12.15.73.2.41.62-.54,1.18l3.2-1.28c-.26-.2-.44-.38-.58-.55h0Z"/>
      <path class="cls-1" d="M36.41,37.63c.34-.11.64-.36.87-.67-.32.1-.62.34-.87.67Z"/>
      <path class="cls-1" d="M36.28,37.78c-.22.34-.41.74-.53,1.18.94-.56,1.26-.98.53-1.18Z"/>
      <path class="cls-1" d="M38.09,36.72c.11.18.24.35.44.51-.32-.7-.53-.75-.44-.51Z"/>
      <path class="cls-1" d="M38.62,34.56c-.14.26-.27.44-.41.53-.38.6-.42,1.15-.12,1.64-.09-.24.12-.18.44.51-.2-.16-.33-.33-.44-.51.03.1.12.24.27.41.19.13.39.3.58.55.25-1.17,1.41-.84-.64-1.59,2.14-1.1,1.61-1.09,1.92-2.88-.69.47-1.21.92-1.59,1.34h0Z"/>
      <path class="cls-1" d="M39.86,32.95c.13.06.25-.05.35-.38h-.63c.24.13.33.25.28.38Z"/>
      <path class="cls-1" d="M39.86,32.95c.05-.13-.04-.25-.28-.38.1.22.19.33.28.38Z"/>
      <path class="cls-1" d="M38.62,34.56c-.16.18-.3.36-.41.53.14-.09.28-.27.41-.53Z"/>
      <path class="cls-1" d="M38.36,37.14c.14.16.32.35.58.55-.2-.25-.39-.42-.58-.55Z"/>
      <path class="cls-1" d="M32.87,34.49h0s0,0,0,0h0Z"/>
      <path class="cls-1" d="M32.87,33.85v.64h0c.41-.21.41-.42,0-.64h0Z"/>
      <path class="cls-1" d="M25.54,40.87c1.61.52,1.47-.96,1.1-1.64-.16-.07-.31-.15-.47-.26l-.63,1.88v.03Z"/>
      <path class="cls-1" d="M26.17,38.96c.16.12.31.2.47.27-.15-.27-.33-.42-.47-.27Z"/>
      <path class="cls-1" d="M25.53,40.87h.01v-.03.03Z"/>
      <path class="cls-1" d="M41.56,27.48c-.1-.33.09-.77.57-1.29l-1.91,1.3.63,1.25c-.15-.65.23-1.14.71-1.27h0Z"/>
      <path class="cls-1" d="M41.94,27.46c.31.05.62.23.83.65.26-1.15-.33-1.3-.64-1.91.1.41.03.83-.19,1.27Z"/>
      <path class="cls-1" d="M41.56,27.48c.12-.03.25-.04.38-.02.23-.43.29-.85.19-1.27-.48.52-.67.95-.57,1.29h0Z"/>
      <path class="cls-1" d="M41.75,27.75c-.22.33-.5.66-.9.99.63-.26,1.21-.6,1.92-.64-.49-.05-.83-.17-1.03-.36h.01Z"/>
      <path class="cls-1" d="M41.75,27.75c-.09-.08-.16-.17-.19-.27-.48.13-.86.61-.71,1.27.4-.34.68-.67.9-.99Z"/>
      <path class="cls-1" d="M41.94,27.46c-.05.1-.13.2-.2.29.2.18.54.31,1.03.36-.21-.41-.52-.6-.83-.65Z"/>
      <path class="cls-1" d="M41.56,27.48c.03.1.1.19.19.27.06-.1.14-.2.19-.29-.13-.02-.26-.02-.38.02h0Z"/>
      <path class="cls-1" d="M39.16,33.63l.42-.41c-.16.07-.29.26-.42.41Z"/>
      <path class="cls-1" d="M39.16,33.63l-.22.22c.06-.02.14-.12.22-.22Z"/>
      <path class="cls-1" d="M42.77,53.64c-.1-.5-.15-.76-.15-.76,0,0,.05.25.15.76.35-.57,1.56-.44,1.27-1.27-.75,0-1.37-.15-1.71.01-.08.2-.16.4-.25.57.01.11.02.22.05.36.08.18.54.17.64.32h0Z"/>
      <path class="cls-1" d="M42.09,52.96c.08-.18.16-.37.24-.57-.17.08-.26.25-.24.57Z"/>
    </g>
  </g>
</svg>