<?xml version="1.0" encoding="UTF-8"?>
<svg id="_레이어_2" data-name="레이어 2" xmlns="http://www.w3.org/2000/svg" viewBox="0 0 149.24 161.62">
  <defs>
    <style>
      .cls-1 {
        fill: #ff319c;
      }
    </style>
  </defs>
  <g id="_레이어_1-2" data-name="레이어 1">
    <g>
      <path class="cls-1" d="M40.85,133.65c-.09-.27-.17-.53-.27-.76.06.29.14.57.27.76Z"/>
      <path class="cls-1" d="M39.55,122.39s-.02-.05-.03-.08c0,.03,0,.06,0,.09h.04Z"/>
      <path class="cls-1" d="M121.07,46.1c1.61-3.28,8.2-8.29,9.29-11.66.51-1.6-2.16-2.97-1.03-4.15.05-.06.99.31,1.56-.24,3.04-2.87,3.58-5.42,5.6-8.12,2.08-2.79,7.31-10.39,9.59-12.09,1.93-1.44,1.72,2.97,3.16,1.48-.82-3.42-2.55-7.6-3.75-11.02-4.97-1.22-10.72,1.57-15.07,1.85-4.12.26-8.65-1.39-13.06-.55-1.68.32-4.03,3.64-4.95-.23-6.45,2.17-10.45,4.67-15.81,6.74-9.63,3.71-23.3,5.49-33.54,8.46-18.42,5.35-36.74,11.51-55.01,17.33-.49,1.94.38,2.31.81,3.31,1.52-1.65,5.6-2.68,4.63.27,3.52.84,2.83-3.14,3.07-3.2,1.02-.27,6.54,1.81,5.27,4.32-3.58-2.69-6.99,4.65-9.26-.54-.82.38-1.73.63-2.57.98.01.22-.13.48-.17.74-.32,2.51-1.52,3.28-2.76,5.19l-1.22-1.4c-.18.18-2.98.46-3.73,2.68l2.3.12-.1,3.89c.54-.43,1.21-.82,1.82-1.15,1.05-.57,1.49-.66,2.57-.98,1.34-.39,6.24-1.47,7.37-1.45.45,0,1,.26,1.48.35-.07.87-.79.51-.91.57-1.2.58-4.63,1.12-4.9,1.38-.49.47.78,2.31-1.65,3.38-1.03.45-2.7-.03-3.72-.85-.09.59-.28,1.83-.5,2.23-.54.95-.81.61-1.66.4-.78-.18-1.47-.72-2.06-1.25-2.79,4.03-1.54,2.5-.55,6.93.14.62-.63,1.36-.57,1.41.13.11,3.21.77,3.38.73.15-.03-.11-1.26.07-1.36.18-.1,3.07-.62,3.92-.81l-.06-3.14c1.04,1.06,2.09,1.63,3.37,2.33,5.82,3.17,2.35.3,4.07-1.06,1.64-1.3,2.49.23,3.05.15.23-.03.7-.92,1.16-1.11,1.14-.49,1.2-.57,2.57-.98,1.97-.59,3.87-1.25,5.88-1.79,1.93-.52,2.64-.83,4.22-1.38,1.24-.43,1.75-.73,3.14-.07,2.16-.64,4.46-1.05,6.63-1.62.72-.19,1.56-1.07,2.67-1.29.51-.1,6.17-.82,6.35-.56.79,1.16-2.74,1.6-2.45,3.13-1.83.13-3.61.18-5.42.55-1.13.23-1.99,1.26-3.17,1.36-1.08.1-3.65-1.19-4.66-.63-.39.21-.57,1.62-1.44,2.22-.96.65-3.18.59-4.48,1.05-.86.31-3.38,4.07-2.81.04-.13-.06-.38-.92-.87-.9-2.32.1-1,2.27-1.13,2.79-.26,1.12-.79.97-1.08,1.32,1.77,1.29,1.86,3.07-.51,2.23-.02.1-.83.36-.81.87.04.87.94,1.52,1.16,2.35.05.21-.07.47-.22.71.16.31.24.57.24.79,1.13-.08,3.25-.65,3.73,1.3l-4.14,1.01c.9.17,2.29,1.2,3.72.85l-.17.73c-.49,0-1.12-.39-1.48-.33.89.99-.94,5.03-1.2,5.2-1.69,1.12-.77-.76-.88-1.67-.25-.06-.58-.16-1-.32-.24.51-.89,1.47-1.25,2.06.22.53.61,1.06.42,1.65,1.26.61.75-1.11,1.07-1.31,1.56-.96,1.03,3.68,3.54,1.58.19-.15.13-1.08.35-1.48,1.87.09,2.29,2.19,1.51,3.75-.36.71-1.56.07-1.62.13-.11.12-1.37,2.66-1.42,2.81-.15.44-.28,1.02-.34,1.49-.21,1.59.6,3.11.49,4.69,0,.04.03.08.04.12l.68.15.35-1.48c.75,0,.53.88.57.91.24.15.44.28.62.4.69.41,1.45.71,2.22.67.25-.11.53-.19.88-.22.44-.48,1.58-.21,1.75-.77.18-.58-1.04-.72-1.41-.71-.72.02-1.28,1.89-.4-1.65.63-.06.44.86.57.91,1.6.67,3.87-3.04,5.45.07-3.59.45-2.89,3.27-4.41,5.64-.46.71.05,2.38-2.21,1.08-.37-.21-.13-.75-.12-1.18-.17-.14-.34-.32-.51-.53-.43.11-.22,1.25-.47,1.44l-1.25,2.06c.23.32.21,1.2.4,1.66,2.42-.16,6.84,3.57,4.71,6.48-.96.26-2.2-.05-3.09.15-1.66.37-1.47.68-2.41.96-.48.14-1.49-.5-2.22-.27-2.49.78-7.27,11.46-8.12,14.1-.51,1.56,1.59,1.1,1.17,1.72-1.27,1.53-3.04,1.32-4.3,1.76.21.92,2,1.15,2.06,1.26.54.97-.93,1.61-1.25,2.05-.99,1.37-2.04,2.68-3.82,3.04.18.87.09,1.73.23,2.4l5.2,1.19-2.24,3.01,3.63,1.21c.92-.36,5.82-2.78,6.04-2.54-.67,2.76,2.06,3.53,2.88,4.57.76.97.35,2.83.83,4.22.12.22.25.46.38.75,1.58.89,2.66,2.78,2.87,4.56l3.32-.81c1.66-5.3,3.51-10.7,5.21-16.02.96-3,1.65-1.76,2.16-2.63-1.62-2.21-2.01-6.26-2.6-9.19-.29-1.43-2.23-7.43-1.27-8.11,4.23,1.88,1.94,1.98,2.08,4.72.07,1.29.58,2.33.68,3.73.04.58-.42,1.44-.49,2.15,0,.03.02.05.02.08l1.61-.41c-1.95,3.1,1.52,4.36-.03,7.03.1.13,1.37-.03,1.39.85.03,1.06-1.49,2.9-1.66,3.78-.05.26-.18.54-.17.74,2.37.18,4.35-1.09,6.62-1.62l.22-1c-2.45-1.76-.61-1.48-.29-2.14,1.13-2.29,2.07-2.22,2.14-2.38.57-1.34-.24-2.94-.01-3.74.16-.54,2.72.93.82-3.37l2.97.66-1.55-3.47c2.42,1.16,7.16-.68,9.1-.24.67.15-.62,1.79.72,1.68.08-2.31,1.92-.74,2.73-.99,1.02-.32,1.06-1.64,2.42-.96,6.96-8.54,13.74-17.26,20.72-25.78l19.2-26.69,3.35-.24c4.09-5.02,8.01-10.21,12.07-15.24.95-1.66-1.51-1.44-.85-2.79h0ZM8.14,55.83l.16-.74c.43.36.38.61-.16.74ZM11.78,44.93c-1.34-.69-1.3-2.03-.79-3.3.53-.69,1.32,2.41.79,3.3ZM13.11,46.01c-.62-1,1.19-2.14,1.82-1.14.62,1-1.19,2.14-1.82,1.14ZM17.44,40.74c-.44-.37.72-1.16,1.64-.39.45.37-.72,1.16-1.64.39ZM26,87.26l.17-.74c.43.36.37.61-.17.74ZM30.38,66.36l.67-2.97c1.86,1.12.76,1.63.05,3.13l-.72-.17ZM33.64,72.58c-1.2,1.67-2.79,3.9-4.89,4.36.48-2.48,2.7-3.7,4.32-5.27.19-.19.12-1.07.34-1.48,2.65.34,1.17,1.09.23,2.4h0ZM29,115.31l.17-.74c.42.36.36.61-.17.74ZM36.72,69.37c-1.43-2.54,3.04-2.12,3.65-2.29.03-.02.06-.03.09-.06.48-.38,2.05-2.52,2.22.2.07,1.16-.83.83-.99.94-.64.43-4.69,1.7-4.97,1.21ZM30.24,121.84c-1.51-.39.79-5.24,1.92-5.03l-1.92,5.03ZM31.05,125.15c-.37.45-1.16-.72-.39-1.64.37-.45,1.16.72.39,1.64ZM89.33,20.36c.33.42,1.89,1.2,1.94,1.31.13.3-.07,2.17-.76,2.08-.69-1.17-1.81-2.04-1.18-3.39ZM83.97,30.09c.63,1-1.19,2.14-1.82,1.14-.62-1,1.19-2.14,1.82-1.14ZM77.36,31.71l2.79,1.43c.59.54-4.89,2.59-2.79-1.43ZM77.82,36.5c-.07.04-1.64-.07-1.4-.7,1.63-1.76,2.44.03,1.4.7ZM81.3,34.96c.62,1-1.19,2.14-1.82,1.14-.62-1,1.19-2.14,1.82-1.14ZM84.18,22.32l-.17.73-2.39.25c.07-2.04.78-1.46,2.56-.97ZM78.77,28.91c.62,1-1.19,2.14-1.82,1.14-.62-1,1.19-2.14,1.82-1.14ZM77.73,23.2c.38-.45,1.17.72.39,1.64-.37.45-1.16-.72-.39-1.64ZM72.39,32.93l.73.17c.85,1.84-1.12,3.87-2.15,2.62-.1-.12,1.53-1.86,1.42-2.79h0ZM75.29,21.85c1.17,1.24-.4,1.22-.71,1.41-.86.54-1.77,1.03-1.48-.34.15-.71,1.41-1.42,2.19-1.07ZM68.69,23.47c.52.4-.08,1.48.01,1.58.23.06.41.13.57.21.94.12,2.38-.15,1.15,2.52-.69-.45-1.28-.9-2.05-1.25-.6-.27-2.03-.27-2.24-.52-.13-.16,1.08-3.04,2.56-2.55h0ZM65.25,35.26c1.73-.86.55-2.39,3.82-1.53.24,0,.38.03.47.11.34.07.68.14,1.02.24l-1.82,1.14c.16.72,2.03,1,.97,2.56-.78.11-1.21-1.05-1.31-1.08-.25-.06-.5-.12-.74-.17-.11-.02-.68.67-1.25.55-.89-.18.59-1.83-.81-1.8l-.52,2.22,3.72.86c-1.8,2.75-3.82-.89-5.77-2.1-.34.14-.61.39-.92.57-.49.3-1.62.37-1.75.88-.22.86.52,2.36-.01,3.41l-.77-1.73-2.19,1.06c.3-1.7,1.82-4.02,3.41-4.7.83-.35,1.79-.07,2.4-.23.48-.13,1.15.19,2.06-.26h-.01ZM53.69,49.78c-.39-.87-1.92-.97-.98-2.57.7.02,1.66.56,2.23.5,4-.42,8.14-1.51,12.16-1.92-1.25,4.59-8.18,2.9-11.92,4.32-.31.12-1.42,1.71-1.82,1.15,0-.46.43-1.26.33-1.49h0ZM62.69,37.75c.09-.07,1.88,1.22,1.93,1.32.14.32-.28,2.08-.38,2.15-1.39,1.01-2.18-2.97-1.55-3.47ZM60.91,27.26c.71.06.67.77.83.89.26.24.41.47.5.68.52-.24,1.25-1.11,1.89-.91.09,2.09-1.79,3.37-3.64,2.3-.32-.19-.39-1.68-.86-1.8-1-.26-5.5,2.22-4.83-.65l6.1-.49h.01ZM39.01,28.45c.37-.45,1.16.72.39,1.64-.38.45-1.17-.72-.39-1.64ZM38.38,34.57c.63,1-1.19,2.14-1.81,1.14-.63-1,1.19-2.14,1.81-1.14ZM30.39,31.97c.37-.45,1.16.72.39,1.64-.38.45-1.17-.72-.39-1.64ZM28.09,36.72c.81.23,1.44-2.57,3.09-1.45-.19,2.91-2.02,2.96-4.38,2.12.22-2.4.09-1.03,1.29-.68ZM24.33,34.5l1.48.34-.87,2.14c-.63-.86-1.1-1.44-.61-2.48ZM20.21,49.19c-.63-1,1.19-2.14,1.81-1.14.63.99-1.19,2.14-1.81,1.14ZM22.37,46.56c-1.06-1.35.98-5.02,2.27-3.33.2.26-.67,1.44.09,1.51l2.19-1.06c-.6.96.35,1.87.31,2.03-.12.58-4.71,1.04-4.86.85h0ZM28.25,44.76c-.44-.37.72-1.16,1.65-.39.44.37-.73,1.16-1.65.39ZM32.04,31.55c.73-1.39,1.96-1.31,3.3-.8l-.33,1.48-2.97-.68h0ZM30.9,43.41c.06-.67,1.52-.09,1.57-.03.64,1.06-.87,2.32-1.57.03ZM31.8,46.35c-.45-.37.72-1.16,1.64-.39.45.37-.72,1.16-1.64.39ZM38.14,49.36c-.06.04-1.63-.07-1.39-.7,1.62-1.76,2.43.03,1.39.7ZM46.97,41.6c-.42.66-2.48.36-3.24.43-1.69.17-3.14-.16-4.8.47,0,.51-.52.74-.92.57-.35-.15-.99-1.32-1.31-1.08-1.63,1.21,1.91,2.37,1.55,3.47-5.18.69-2.06-.76-2.18-1.15-.1-.35-1.94-1.1-1.84-1.71.11-.71,2.38-.52,2.47-.61.3-.32-.04-2.15.92-2.19,1.61-.06,4.4,1.39,6.27,1.48,1.05-1.37,5.06-2.86,3.07.31h.01ZM43.93,34.26c.62,1-1.19,2.14-1.82,1.14-.63-1,1.19-2.14,1.82-1.14ZM49.65,33.22c.37-.45,1.16.72.39,1.64-.37.45-1.16-.72-.39-1.64ZM49.26,41.73c-.37.45-1.16-.72-.39-1.64.37-.45,1.16.72.39,1.64ZM52.55,30.75c-1.23-.75-.28-1.85-3.55-1.59-.24.02-.65.56-.91.57-.81.04-3.45.47-3.88-.11-.16-.22.49-1.62.5-2.23,0-.43-1.61-2.52,1.08-1.32.79.35.52.89.58.91.44.19,1.1.14,1.48.34.6-2.54,9.55-1.78,6.29-.13-.27.14-3.48-1.24-1.66.41l1.11.27c.35.22.18.52.21.82,0,.12-.9.86-.34,1.49,1.73-.5,2.56.11,3.89.1.1,0,.43-1.12,1.65-.4l-1.82,1.14c-1.85.33-3.12.65-4.63-.27h0ZM53.15,41.83c-1.31-.17-1.78-.15-1.23-1.44.31-.47.77-.18.83-.21.57-4.32,3.41.05,2.32-3.37,3.27.74.73,2.33-.67,2.97-.29.14-.57.43-.91.57-.19.08-.56-.26-.74-.17-.05.39.75,1.5.4,1.65h0ZM62.09,110.21c-3.54,9.52-11.29,2.97-14.32,4.13-.32.12-.36,1.09-.5,1.15-1.71.73-1.22-1.41-1.82-2.21-1.17-1.54-2.44-2.38-3.18-4.4-.97-2.63-1.31-10.25.94-11.99,8.28-6.41,23.41,1.15,18.88,13.32ZM49.6,88.33c1.7-1.04,3.38.91,4.38,1.39,2.94,1.42,3.03-.16,3.62,4.73-2.18-.87-1.47-2.49-3.79-3.98-.91-.59-4.32-1.67-4.21-2.13h0ZM67.15,91.94c-3.76-1.04-1.46-3-1.75-4.33-.03-.13-1.49.24-2.65-.45-1.1-.66-1.25-1.89-1.47-2.04-.76-.52-3.44-2.18-4.12-2.5-4.11-1.9-9.75-1.58-14.12-3.22.38-1.31,3.16-.87,4.05-.63-.24-3.56,3.62-1.58,6.45-.88,2.7.67,1.38-.62,2.6-.11,2.42,1.02,5.88,3.77,7.88,5.62,1.28,1.19,1.57,1.19,2.46,2.91,1.05,2.01,1.37,3.14.67,5.63ZM76.19,45.56l-6.28,1.65c1.39-3.34,4.06-3.36,7.23-4.25.84-.24,2.2.23,2.31.17.2-.11.15-1.39.34-1.48,1.87-.91,1.39,1.95.8,3.3-.65.05-.49-.88-.57-.91-2.81-1.28-2.29.8-3.82,1.51h-.01ZM64.56,108.55c.15-.12,2.4,1.87,3.54,1.59,1.95,2.71-5.76.05-3.54-1.59ZM84.08,43.4c-.81-.61,2.98-1.3,3.3-.8l-.34,1.48-2.96-.68ZM89.01,32.01c.74-1.39,1.97-1.31,3.31-.79-.73,1.39-1.97,1.31-3.31.79ZM78.96,89.93c-.63-.99,1.19-2.14,1.81-1.14.63.99-1.19,2.14-1.81,1.14ZM88.29,28.33c1.82.34,7.36-1.35,8.59.01.16.17-1.36,1.24-1.3,2.03l-7.29-2.04ZM96.44,33.7c-.07.04-1.64-.07-1.4-.7,1.63-1.76,2.44.03,1.4.7ZM101.18,30.09c-1.05.28-2.32-1.78-1.9-1.98,1.05-.28,2.32,1.78,1.9,1.98ZM101.59,14.55c-.89-1.73,2.87-1.87,4.22-1.38.58.69-4.11,1.58-4.22,1.38ZM106.28,17.96c-.38.45-1.17-.72-.39-1.64.37-.45,1.16.72.39,1.64ZM105.2,27.88l.17-.74c.42.36.37.61-.17.74ZM105.6,29.54l.17-.74c.43.36.37.61-.17.74ZM117.61,2.57c.95-.54,1.61.76,2.06,1.25.62.67,3.49,3.98,1.3,4.6-2.25,1.19-1.89-3.46-2.21-4.03-.08-.13-3.17-.67-1.15-1.82h0ZM115,10.57c.63.49-3.87,1.92-4.21,1.37-.83-1.31,2.68-2.56,4.21-1.37ZM110.28,14.17c-.45-.37.72-1.16,1.64-.39.45.37-.72,1.16-1.64.39ZM113.42,14.12l1.15,1.82c-1.61-.14-1.71-.31-1.15-1.82ZM113.72,19.66l.34-1.48,2.22.51c-.49,1.02-1.58,1.43-2.56.97ZM112.4,35.77l.34-1.48c1.07,0,1.88.85,1.89,1.98l-2.23-.51h0ZM119.9,14.83c-.41.06-1,.51-1.28.47-.75-.11-1.49-.37-2.23-.52.3-1.29,2.18-.75,2.57-.97.27-.15-.05-1.69.71-1.41.11,2.11,1.06,1.95,3.01,2.26-.01-.38.45-.94.21-1.39-.27-.5-5.64-2.5-3.02-3.57,4.43-1.81,3.55,2.12,4.63,3.81.31.48,1.3,1,1.89,1.99.89,1.48,1.57,1.77.65,4.06l2.39-.24c-.58,3.49-1.9,8.02-5.8,4.92l1.64-.44c.29-.55-.57-.82-.57-.88-.74-.19-1.5-.31-2.23-.51-.49-.14-1-.2-1.48-.35.92-1.8,1.54-.4,1.65-.4.72-.02,1.55-.44,2.4-.23-.02-.51-.34-1.12-.41-1.66-.21-.08-.51-.15-.74-.17-.13-.01-.37.9-.9.57,0-.47.42-1.29.33-1.49-.06-.08-.11-.16-.17-.23-.43-.56-1.62-1.83-1.72-1.76l-.13,2.3c-3.14-1.87.29-1.98-1.4-4.19h0ZM118.17,24.18c.05-.67,1.52-.09,1.56-.03.64,1.06-.87,2.32-1.56.03ZM116.96,32.9c.86-1.26,2.91-1.75,4.22-1.37-.95,1.42-2.61,2.02-4.22,1.37ZM116.45,52.33c-.45-.37.72-1.16,1.64-.39.45.37-.72,1.16-1.64.39ZM120.34,35.23c-.45-.37.72-1.16,1.64-.39.45.37-.72,1.16-1.64.39ZM123.57,31.28c.09.13-.44,2.27.08,3.14-2.42,1.27-1.8-5.96-.08-3.14Z"/>
      <path class="cls-1" d="M30.44,148.48c.26,2.14-.48,2.61-1.77,4.28l2.15.88-2.82,2.1c.41,1.88.4,4.56,1.78,5.88,2.27-4.38,2.53-9.36,3.97-13.95-1.05,1.81-1.89,3.04-3.31.81h0Z"/>
      <path class="cls-1" d="M33.75,147.67l-3.31.81c1.42,2.23,2.26,1,3.31-.81Z"/>
      <path class="cls-1" d="M47.96,132.63c.03.09.06.18.09.31.56-.13,1.07-.29,1.65-.4,1.67-.34,3.31-.87,4.97-1.21.36-.44.72-.88,1.08-1.32-1.08.32-5.19,1.45-6.94,1.61.08.47-.19.81-.86,1.01h0Z"/>
      <path class="cls-1" d="M47.96,132.63c.66-.2.94-.54.85-1.01-.35.03-.61.03-.73-.03-.47-.23-1.08-1.38-.84-1.96-.33.66-2.16.38.29,2.14l-.22,1c.29-.5.5-.52.65-.14h0Z"/>
      <path class="cls-1" d="M47.24,129.63c.97.82,1.48,1.48,1.57,1.99,1.75-.16,5.86-1.29,6.94-1.61-2.67-1.43-6.7,1.71-8.51-.38Z"/>
      <path class="cls-1" d="M48.08,131.58c.12.06.38.06.73.03-.09-.51-.6-1.17-1.57-1.99-.24.57.36,1.73.84,1.96Z"/>
      <path class="cls-1" d="M48.05,132.94c-.03-.13-.06-.22-.09-.31-.19.06-.41.11-.65.14.22-.05.52.22.74.17Z"/>
      <path class="cls-1" d="M47.31,132.77c.24-.04.46-.08.65-.14-.15-.38-.36-.36-.65.14Z"/>
      <path class="cls-1" d="M49.36,134.04c.42.62.75,1.46.98,2.55.37-.44.73-.88,1.09-1.32l-1.72-2.74c-.08.81-.18,1.3-.35,1.5h0Z"/>
      <path class="cls-1" d="M49.36,134.04c-.24.32-.63-.05-1.31-1.1l.35,1.04-3.25,1.42,5.2,1.19c-.24-1.09-.57-1.93-.98-2.55h0Z"/>
      <path class="cls-1" d="M49.7,132.54c-.58.12-1.09.27-1.65.4.51.17.94.54,1.31,1.1.16-.21.27-.7.35-1.51h0Z"/>
      <path class="cls-1" d="M49.36,134.04c-.37-.55-.8-.93-1.31-1.1.68,1.05,1.07,1.42,1.31,1.1Z"/>
      <path class="cls-1" d="M12.84,123.86c.1-.01.2-.02.3-.03l.16-.35c-.13.14-.28.27-.46.38h0Z"/>
      <path class="cls-1" d="M10.9,124.42c-.58.03-1.13-.04-1.51-.28.06.3.52.64.58.91.23-.24.56-.45.93-.63h0Z"/>
      <path class="cls-1" d="M13.14,123.83c1.42-.08,2.47.51,1.29,2.24.32-.45,1.79-1.08,1.24-2.05-.05-.1-1.84-.34-2.05-1.26,0,.27-.13.51-.32.72l-.16.35Z"/>
      <path class="cls-1" d="M10.9,124.42c.59-.29,1.28-.49,1.94-.57.18-.11.34-.24.46-.38l.32-.72c-1.4.49-2.74,1.17-4.23,1.38.38.24.93.32,1.51.28h0Z"/>
      <path class="cls-1" d="M13.62,122.76l-.32.72c.19-.22.32-.45.32-.72Z"/>
      <path class="cls-1" d="M14.43,126.07c1.04-1.61.09-2.01-1.3-2.2v-.04c-.09,0-.19.02-.29.03-.53.33-1.25.53-1.94.56-.37.18-.7.39-.93.63,1.86.43,5.62-2.17,4.46,1.02Z"/>
      <path class="cls-1" d="M13.14,123.83v.04c1.39.19,2.33.59,1.29,2.2,1.18-1.73.13-2.32-1.29-2.24Z"/>
      <path class="cls-1" d="M12.84,123.86c-.65.07-1.35.28-1.94.57.69-.03,1.41-.24,1.94-.57Z"/>
      <path class="cls-1" d="M26.1,142.11c-.23-.84-.15-1.9.25-3.17-1.33,1.74-1.22,2.54-1.02,4.46.2-.85.45-1.27.77-1.29Z"/>
      <path class="cls-1" d="M26.1,142.11c.3-.02.66.31,1.08,1.05-.48-1.39-.07-3.25-.83-4.22-.4,1.27-.48,2.32-.25,3.17Z"/>
      <path class="cls-1" d="M27.57,143.91c-.77-.41-1.25-1.02-1.47-1.8-.32.02-.57.44-.77,1.29.66.27,1.71.21,2.23.51h.01Z"/>
      <path class="cls-1" d="M26.1,142.11c.22.79.7,1.39,1.47,1.8-.18-.22-.29-.48-.39-.75-.42-.74-.77-1.07-1.08-1.05h0Z"/>
      <path class="cls-1" d="M4.81,99.64c.13.67.06,1.54.23,2.4.56-.64.48-1.44-.23-2.4Z"/>
      <path class="cls-1" d="M7.78,100.32l-2.97-.68c.71.95.79,1.75.23,2.4,1.38.28,2.67-.17,2.74-1.72Z"/>
      <path class="cls-1" d="M41.6,135.85l-.34-.55c.03.18.2.37.34.55Z"/>
      <path class="cls-1" d="M41.25,135.3l.35.55c.11.13.2.26.23.36l.91-.56-1.49-.35h0Z"/>
      <path class="cls-1" d="M23.26,65.68c-.08-.04-.16-.09-.24-.13.07.09.14.18.2.27.02-.04.02-.09.04-.13h0Z"/>
      <path class="cls-1" d="M21.27,63.69c-.05-.13-.08-.26-.09-.38-.08.03-.14.07-.21.09.11.1.2.19.3.29Z"/>
      <path class="cls-1" d="M18.37,67.54c.7.24,1.58.24,2.23.51.34.14.57.54.57.91.2-.08,1.66.4,2.23.51-.23-.52-.36-1.01-.44-1.49-.87.2-2.39.06-4.59-.43h0Z"/>
      <path class="cls-1" d="M22.87,61.53c-.09.27-.21.5-.34.71.26.03.56.08.91.2.17-.61.02-.77-.57-.91h0Z"/>
      <path class="cls-1" d="M22.96,67.97c.08.48.21.97.45,1.49l4.13-1.01c-.47-1.95-2.59-1.38-3.73-1.3,0,.42-.28.69-.85.82Z"/>
      <path class="cls-1" d="M22.52,62.24c-.31.49-.77.84-1.35,1.07.02.12.05.25.1.38.75.7,1.33,1.32,1.75,1.85.08.04.16.09.24.13-.02.04-.03.09-.05.13.15.2.27.39.36.56.15-.24.27-.5.22-.71-.22-.83-1.13-1.48-1.16-2.35-.02-.51.79-.77.81-.87-.35-.11-.65-.17-.91-.2h-.01Z"/>
      <path class="cls-1" d="M23.22,65.81c-.07-.09-.13-.17-.2-.27-.9-.5-1.51-1.21-1.75-1.85-.1-.1-.19-.19-.3-.29.07-.02.13-.06.21-.09-.09-.68.32-1.17,1.35-1.07.13-.21.25-.45.34-.71-.8-.2-2.51.41-3.71-.85.63,3.64-.5,5.34,3.6,4.73-.22,4.81-3.2-.45-4.79,1.6-.09.11.42.5.4.53,2.21.49,3.73.63,4.6.43-.12-.77-.05-1.5.25-2.17h0Z"/>
      <path class="cls-1" d="M23.02,65.54c-.42-.53-1-1.15-1.75-1.85.24.64.85,1.35,1.75,1.85Z"/>
      <path class="cls-1" d="M21.17,63.31c.59-.23,1.04-.58,1.36-1.07-1.04-.1-1.45.39-1.36,1.07Z"/>
      <path class="cls-1" d="M23.22,65.81c-.3.67-.37,1.39-.25,2.17.56-.13.84-.4.84-.82-.29.02-.53,0-.64-.09-.06-.05.2-.36.4-.7-.09-.17-.21-.36-.35-.56Z"/>
      <path class="cls-1" d="M30.9,91.51l.73.17.41,1.65c.19-.84.17-1.49-.75-1.91.29-.3.5-.57.68-.84-.43.1-.94-.06-1.48-.73-.14.31-.32.53-.5.7-1.01,1.89.58,3.64.91.96h0Z"/>
      <path class="cls-1" d="M31,87.62l-.17.74c.35-.18.64-.29.9-.35-.2-.14-.44-.28-.73-.39Z"/>
      <path class="cls-1" d="M29.45,92.73c-.1-.04-.18-.04-.25-.03.18.22.35.4.52.53,0-.22-.04-.41-.27-.5h0Z"/>
      <path class="cls-1" d="M30.49,89.85c-.21.23-.37.47-.5.7.19-.17.36-.39.5-.7Z"/>
      <path class="cls-1" d="M31.73,88.01c.91.62.99,1.48.25,2.57,1.3-.3,1.81-3.08-.25-2.57Z"/>
      <path class="cls-1" d="M29.62,90.07c.29-.02.58-.08.87-.22-.34.03-.63.11-.87.22Z"/>
      <path class="cls-1" d="M31.98,90.57c-.19.27-.4.55-.69.84.92.42.94,1.07.76,1.91,1.52-2.37.82-5.19,4.41-5.64-1.58-3.11-3.85.59-5.46-.07.29.12.53.25.73.39,2.06-.51,1.55,2.26.25,2.57h0Z"/>
      <path class="cls-1" d="M31.98,90.57c.74-1.09.66-1.94-.25-2.57-.26.07-.55.17-.9.35.37-.01,1.59.13,1.41.71-.16.57-1.31.3-1.75.77.54.67,1.05.83,1.49.73h0Z"/>
      <path class="cls-1" d="M62.94,84.72c-.81.32-1.19-.29-1.15-1.82l-.51,2.23c.22.15.37,1.39,1.47,2.04,1.16.69,2.62.32,2.65.45.29,1.33-2.01,3.29,1.75,4.33.7-2.49.38-3.62-.67-5.63-1.67,1.62-2.7-.71-3.54-1.59Z"/>
      <path class="cls-1" d="M61.79,82.9c-.04,1.54.34,2.15,1.15,1.82-.38-.39-.52-1.33-1.15-1.82Z"/>
      <path class="cls-1" d="M125.3,16.83c-.7-.25-1.54-.25-2.22-.51-.18.37-.34.46-.48.35-.22.37-.03.98.55,1.82.08.1.15.19.17.23.45-2.33,1.69-.47,1.98-1.89h0Z"/>
      <path class="cls-1" d="M122.51,15.4c0-.25.17-.5.17-.74-.73.21-.81.45-.17.74Z"/>
      <path class="cls-1" d="M123.08,16.32c-.25-.1-.55-.06-.74-.17.08.28.17.44.26.52.09-.15.25-.27.48-.35Z"/>
      <path class="cls-1" d="M123.08,16.32c-.23.07-.39.19-.48.35.14.12.3.03.48-.35Z"/>
      <path class="cls-1" d="M2.16,52.9c.58.53,1.28,1.07,2.06,1.25.04-.56,0-1-.09-1.33-.5.33-1.21.42-1.98.08h.01Z"/>
      <path class="cls-1" d="M5.87,53.75c.23-.4.42-1.64.51-2.23-2.02.28-2.49,1.51-.51,2.23Z"/>
      <path class="cls-1" d="M4.13,52.82c-.24-.82-.89-.9-1.98.08.77.34,1.48.25,1.98-.08Z"/>
      <path class="cls-1" d="M25.47,90.2c.42,1.19.79,2.44,1.1,3.76.39.3.64.6.83.89.09-.11.21-.21.37-.3-.58-.03-.81-.79-1.1-1.66-.25-.8-.28-1.57-.23-2.4.03-.48.28-.99.34-1.49-.5,1.04-.94,1.34-1.31,1.2h0Z"/>
      <path class="cls-1" d="M23.74,85.18l-.17.74c.31.56.6,1.14.88,1.74-.11-1.06-.07-2.23.2-3.06l-.74-.17c.46.37.4.61-.17.74h0Z"/>
      <path class="cls-1" d="M24.45,87.67c.24.52.47,1.07.68,1.63.12-1.58-.69-3.1-.48-4.69-.26.83-.31,2-.2,3.06Z"/>
      <path class="cls-1" d="M27.77,94.54c-.16.1-.28.2-.38.3.29.47.35.92.09,1.35l1.25-2.06c-.41.31-.71.42-.96.41Z"/>
      <path class="cls-1" d="M26.78,89c-.05-.03.18-.91-.57-.91l-.35,1.48-.68-.15c.1.26.2.52.29.79.36.14.81-.16,1.31-1.2Z"/>
      <path class="cls-1" d="M26.78,89c.19.14.4.27.62.4-.18-.12-.38-.25-.62-.4Z"/>
      <path class="cls-1" d="M27.4,94.85c-.18-.29-.44-.58-.83-.89-.31-1.33-.68-2.57-1.1-3.76-.52-.2-.89-1.28-1.02-2.54-.28-.6-.57-1.18-.88-1.74,1.97,5.14.51,5.51,3.92,10.28-.43-.52-.45-.97-.09-1.35Z"/>
      <path class="cls-1" d="M23.9,84.44c-.1.22-.07.51-.16.74.57-.13.63-.38.16-.74Z"/>
      <path class="cls-1" d="M27.4,94.85c-.36.38-.34.83.09,1.35.25-.43.2-.88-.09-1.35Z"/>
      <path class="cls-1" d="M25.47,90.2c-.1-.26-.19-.53-.29-.79h-.05v-.12c-.21-.56-.44-1.11-.68-1.63.13,1.25.5,2.34,1.02,2.54Z"/>
      <path class="cls-1" d="M28.89,92.25c-.26-.48-.31-.97-.14-1.38-.37-.09-.73-.3-1.06-.6-.26.08-.67.14-1.25.22,3.14-.21,2.79,3.39.23,2.4.53.12.97.31,1.35.58.13-.31.41-.71.87-1.21Z"/>
      <path class="cls-1" d="M28.89,92.25c-.46.51-.74.91-.87,1.21.27.19.52.41.71.67.25-.19.05-1.33.47-1.44-.05-.07-.11-.12-.16-.2-.06-.08-.1-.17-.15-.25Z"/>
      <path class="cls-1" d="M29.72,93.23c-.02.42-.25.96.12,1.18,2.26,1.3,1.75-.37,2.2-1.08-1.07.36-1.71.38-2.32-.1h0Z"/>
      <path class="cls-1" d="M27.69,90.27c.33.3.69.51,1.06.6.14-.34.44-.61.87-.8-.77.05-1.54-.26-2.23-.67.74.5.86.71.3.87h0Z"/>
      <path class="cls-1" d="M30.9,91.51c-.32,2.68-1.91.93-.91-.96-.37.35-.8.42-1.24.32-.17.42-.12.91.14,1.38.19-.21.4-.43.65-.68-.16,1.43,1.34,2.05,2.5,1.76l-.41-1.65-.73-.17h0Z"/>
      <path class="cls-1" d="M28.75,90.87c.44.11.87.03,1.25-.32.12-.24.28-.47.5-.7-.29.14-.59.2-.88.22-.43.18-.72.46-.86.8h-.01Z"/>
      <path class="cls-1" d="M29.55,91.57c-.25.25-.46.47-.65.68.04.09.08.17.14.25.06.07.11.13.16.2.07-.02.15-.01.25.03.23.09.28.29.27.5.61.48,1.25.46,2.33.1-1.17.29-2.66-.33-2.51-1.76h.01Z"/>
      <path class="cls-1" d="M26.44,90.49c.58-.08.99-.14,1.25-.22-.39-.35-.72-.8-.91-1.27-.06.49-.31,1.01-.34,1.49Z"/>
      <path class="cls-1" d="M28.02,93.46c-.37-.26-.82-.46-1.35-.58.29.87.52,1.63,1.1,1.66.25-.15.57-.28.96-.41-.69.05-.91-.18-.71-.67h0Z"/>
      <path class="cls-1" d="M27.69,90.27c.56-.16.44-.37-.29-.87-.22-.13-.43-.26-.62-.4.19.47.52.92.91,1.27Z"/>
      <path class="cls-1" d="M27.77,94.55c.25.01.55-.1.96-.41-.39.12-.71.26-.96.41Z"/>
      <path class="cls-1" d="M28.73,94.14c-.19-.27-.43-.48-.71-.67-.2.49.03.73.71.67Z"/>
      <path class="cls-1" d="M36.72,69.37c.28.49,4.33-.78,4.97-1.21l-1.32-1.08c-.61.18-5.09-.25-3.65,2.29Z"/>
      <path class="cls-1" d="M40.46,67.02s-.06.03-.09.05c.02,0,.06-.03.09-.05Z"/>
      <path class="cls-1" d="M27.18,78s.08.1.12.15c-.03-.06-.06-.11-.12-.15Z"/>
      <path class="cls-1" d="M27.18,78c.06.04.09.1.12.15.46.64.22,1.97-.89,2.17.05-.06,1.26.59,1.62-.13.78-1.56.36-3.67-1.51-3.75-.22.4-.16,1.33-.35,1.48.45-.19.78-.12,1.01.08h0Z"/>
      <path class="cls-1" d="M26.41,80.32c.53-.45,1.22-1.62.89-2.17-.04-.05-.07-.11-.12-.15-.19-.13-.5-.18-1.01-.08.24.56.6,2.09.23,2.4h.01Z"/>
      <path class="cls-1" d="M27.3,78.15c.33.54-.36,1.71-.89,2.17,1.11-.2,1.35-1.53.89-2.17Z"/>
      <path class="cls-1" d="M27.18,78c-.23-.2-.56-.27-1.01-.08.51-.1.82-.05,1.01.08Z"/>
      <path class="cls-1" d="M115,10.57c-1.53-1.18-5.04.06-4.21,1.37.34.55,4.84-.89,4.21-1.37Z"/>
      <path class="cls-1" d="M24.99,83.12c.05-.15,1.31-2.69,1.42-2.81-.41.57-.78.97-1.12,1.21.03.36-.07.89-.3,1.6Z"/>
      <path class="cls-1" d="M24.91,81.72c-.41.14-.77,0-1.07-.43.18.35.8,1.06,1.04,1.51-.11-.39-.1-.75.03-1.08h0Z"/>
      <path class="cls-1" d="M25.29,81.53c-.13.09-.26.16-.38.2-.13.34-.14.7-.03,1.08.07.13.12.24.11.31.23-.71.33-1.24.3-1.59h0Z"/>
      <path class="cls-1" d="M25.21,81.21c.27-.33.67-.62,1.2-.89-.07.05-.95.39-1.67.66.23-.01.38.06.47.23Z"/>
      <path class="cls-1" d="M25.21,81.21c.05.08.07.19.08.32.34-.24.71-.64,1.12-1.21-.53.27-.93.57-1.2.89h0Z"/>
      <path class="cls-1" d="M24.91,81.72c.07-.18.16-.35.3-.52-.09-.16-.24-.24-.47-.23-.46.17-.85.31-.9.32.3.43.66.57,1.07.43h0Z"/>
      <path class="cls-1" d="M25.29,81.53c0-.13-.03-.24-.08-.32-.14.17-.23.34-.3.52.12-.04.25-.11.38-.2Z"/>
      <path class="cls-1" d="M53.98,89.72c-1-.48-2.67-2.43-4.38-1.39-.11.46,3.3,1.55,4.21,2.13-.6-.36-.53-.6.17-.74Z"/>
      <path class="cls-1" d="M53.81,90.46l.17-.74c-.7.14-.77.38-.17.74Z"/>
      <path class="cls-1" d="M30.24,121.84l1.92-5.03c-1.13-.21-3.43,4.64-1.92,5.03Z"/>
      <path class="cls-1" d="M64.56,108.55c-2.22,1.64,5.49,4.3,3.54,1.59-1.14.28-3.39-1.71-3.54-1.59Z"/>
      <path class="cls-1" d="M24.2,61.49c.04.19-.18.52-.76.95,2.37.84,2.28-.94.51-2.23.31.63.38,1.05.25,1.28Z"/>
      <path class="cls-1" d="M24.02,61.33c.05-.33.03-.71-.07-1.12-.3.35-1.03.57-1.08,1.32.55-.19.93-.24,1.15-.2Z"/>
      <path class="cls-1" d="M24.2,61.49c.13-.23.06-.65-.25-1.28.1.42.12.79.07,1.12.1.03.16.08.18.16Z"/>
      <path class="cls-1" d="M22.87,61.53c.59.15.74.3.57.91.24-.22.39-.48.49-.77-.24.05-.58.01-1.07-.14h0Z"/>
      <path class="cls-1" d="M24.2,61.49c-.06.09-.15.15-.27.18-.1.29-.25.55-.49.77.58-.43.81-.76.76-.95h0Z"/>
      <path class="cls-1" d="M23.93,61.67c.04-.11.07-.22.09-.34-.22-.05-.61,0-1.15.2.48.16.83.2,1.06.14Z"/>
      <path class="cls-1" d="M23.93,61.67c.12-.03.22-.09.27-.18-.02-.08-.08-.13-.18-.16-.02.12-.05.23-.09.34Z"/>
      <path class="cls-1" d="M118.76,4.39c-.75-1.22-.26-1.45.91-.57-.45-.49-1.11-1.79-2.06-1.25-2.02,1.15,1.07,1.69,1.15,1.82h0Z"/>
      <path class="cls-1" d="M118.76,4.39l.91-.57c-1.17-.88-1.67-.65-.91.57Z"/>
      <path class="cls-1" d="M31.05,63.39l-.67,2.97.72.17c.71-1.5,1.81-2.02-.05-3.13Z"/>
      <path class="cls-1" d="M33.41,70.18c-.22.41-.15,1.3-.34,1.48,1.17-.75,1.24-.31.57.91.94-1.31,2.42-2.06-.23-2.4h0Z"/>
      <path class="cls-1" d="M33.07,71.67l.57.91c.67-1.22.6-1.66-.57-.91Z"/>
      <path class="cls-1" d="M78.96,89.93c.62.99,2.44-.15,1.81-1.14-.62-.99-2.44.15-1.81,1.14Z"/>
      <path class="cls-1" d="M114.57,15.94l-1.15-1.82c-.56,1.5-.46,1.68,1.15,1.82Z"/>
      <path class="cls-1" d="M30.66,123.51c-.78.92.02,2.09.39,1.64.77-.92-.02-2.09-.39-1.64Z"/>
      <path class="cls-1" d="M110.28,14.18c.92.77,2.09-.02,1.64-.39-.92-.77-2.09.02-1.64.39Z"/>
      <path class="cls-1" d="M26.17,86.52l-.17.74c.54-.14.6-.39.17-.74Z"/>
      <path class="cls-1" d="M8.3,55.08l-.16.74c.54-.14.59-.39.16-.74Z"/>
      <path class="cls-1" d="M19.01,71.59l-4.22,1.38,5.78,2.11c-1.8-.93-2.32-2.09-1.56-3.48h0Z"/>
      <path class="cls-1" d="M19.01,71.59c.12,1.29.63,2.46,1.55,3.48-.36-.9-.07-2.49-1.55-3.48Z"/>
      <path class="cls-1" d="M19.01,71.59c-.76,1.39-.25,2.55,1.55,3.48-.92-1.03-1.43-2.19-1.55-3.48Z"/>
      <path class="cls-1" d="M21.99,57.17c.08.06.16.15.24.31,1.04-.84,1.15-1.34.34-1.49.35.54-.02.96-.58,1.18Z"/>
      <path class="cls-1" d="M21.99,57.17c-.16.06-.33.11-.51.14.24.06.52.08.75.17-.08-.15-.16-.25-.24-.31h0Z"/>
      <path class="cls-1" d="M22.23,57.47l1.82-1.14c-.34-.04-.85-.25-1.19-.32-.1-.01-.19,0-.29-.02.81.15.7.64-.34,1.49Z"/>
      <path class="cls-1" d="M22.57,55.98c.1.02.19,0,.29.02-.12-.03-.23-.04-.29-.02Z"/>
      <path class="cls-1" d="M21.48,57.3c.19-.21.36-.24.51-.14.56-.22.93-.64.58-1.18-.05.04-.08.06-.13.1-.25.26-.65,1-.95,1.22h-.01Z"/>
      <path class="cls-1" d="M22.57,55.98s-.08.05-.13.1c.05-.04.08-.06.13-.1Z"/>
      <path class="cls-1" d="M21.48,57.3c.18-.03.35-.07.51-.14-.15-.11-.32-.07-.51.14Z"/>
      <path class="cls-1" d="M16.13,67.03l.15-2.31c-1.63.67-1.63,1.31-.15,2.31Z"/>
      <path class="cls-1" d="M19.89,69.76l.7-.44s-.08.03-.12.02c-.23.2-.56.26-.95.02.27.15.38.28.37.4Z"/>
      <path class="cls-1" d="M19.52,69.37c-.08.2-.2.61-.17.74l.54-.34c0-.12-.1-.25-.37-.4h0Z"/>
      <path class="cls-1" d="M20.47,69.35s.08,0,.12-.02l.59-.37c-.01-.38-.24-.77-.58-.91.29.48.19,1.03-.13,1.3h0Z"/>
      <path class="cls-1" d="M20.6,70.21c.45-.36.5-1.22.58-1.25-.26.21-.45.33-.59.37l-.7.44c0,.13-.18.25-.54.34.5-.03.91.02,1.25.1Z"/>
      <path class="cls-1" d="M19.89,69.76l-.54.34c.36-.09.53-.21.54-.34Z"/>
      <path class="cls-1" d="M20.6,70.21c-.34-.09-.75-.13-1.25-.1.61.36,1,.31,1.25.1Z"/>
      <path class="cls-1" d="M21.18,68.96l-.59.37c.14-.04.33-.15.59-.37Z"/>
      <path class="cls-1" d="M20.47,69.35c-.22-.03-.18-.46.13-1.3-.04.59-1.01,1.13-1.08,1.32.38.25.72.19.95-.01h0Z"/>
      <path class="cls-1" d="M20.47,69.35c.32-.27.42-.83.13-1.3-.31.84-.35,1.27-.13,1.3Z"/>
      <path class="cls-1" d="M23.59,96.1c-.04-.07-1.51-.64-1.56.03.7,2.29,2.21,1.03,1.56-.03Z"/>
      <path class="cls-1" d="M19.92,88.21l-1.15-1.82c-.56,1.5-.45,1.68,1.15,1.82Z"/>
      <path class="cls-1" d="M16.32,79.98c-.24.62,1.34.74,1.4.7,1.04-.67.23-2.46-1.4-.7Z"/>
      <path class="cls-1" d="M2.87,43.11v-.21l-.74-.17c-.27.23-1.16,1.19-1.08,1.31.2.09.38.16.55.21.24-.48.66-.87,1.27-1.14Z"/>
      <path class="cls-1" d="M2.87,43.11c-.61.27-1.03.66-1.27,1.14.87.25,1.3-.08,1.27-1.14Z"/>
      <path class="cls-1" d="M27.21,100.83l-.91.57c.47.06,1.17.4,1.49.35-.49-.12-.68-.42-.58-.91h0Z"/>
      <path class="cls-1" d="M27.78,101.74l-.57-.91c-.1.49.09.79.57.91Z"/>
      <path class="cls-1" d="M6.45,37.47c-.92-.77-2.09.02-1.65.39.93.77,2.09-.02,1.65-.39Z"/>
      <path class="cls-1" d="M12.46,67.76l-.17.74c.54-.14.6-.39.17-.74Z"/>
      <path class="cls-1" d="M.16,46.19l-.16.74c.54-.14.59-.39.16-.74Z"/>
      <path class="cls-1" d="M56.2,124.63c.25.05.49.12.74.17-.22-.41-.46-.47-.74-.17Z"/>
      <path class="cls-1" d="M56.2,124.63c.28-.3.52-.24.74.17l-.21-.81-.54.64h.01Z"/>
      <path class="cls-1" d="M43.04,141.18c1.8-.41,2.79-.19,2.98.68l-.04-1.58-2.94.9Z"/>
      <path class="cls-1" d="M43.04,141.18l2.98.68c-.97-.66-1.85-.82-2.98-.68Z"/>
      <path class="cls-1" d="M43.04,141.18c1.13-.14,2.01.01,2.98.68-.19-.86-1.18-1.09-2.98-.68Z"/>
      <path class="cls-1" d="M23.47,72.61c-.04.23-.08.53-.17.74.43-.21.48-.46.17-.74Z"/>
      <path class="cls-1" d="M23.47,72.61c.35.3.28.54-.17.74l.81-.2-.64-.54Z"/>
      <path class="cls-1" d="M23.47,72.61c.31.29.26.54-.17.74.45-.2.52-.45.17-.74Z"/>
    </g>
  </g>
</svg>