<?xml version="1.0" encoding="UTF-8"?>
<svg id="_레이어_2" data-name="레이어 2" xmlns="http://www.w3.org/2000/svg" xmlns:xlink="http://www.w3.org/1999/xlink" viewBox="0 0 134.59 121">
  <defs>
    <style>
      .cls-1 {
        fill: none;
      }

      .cls-2 {
        fill: #ff319c;
      }

      .cls-3 {
        clip-path: url(#clippath);
      }
    </style>
    <clipPath id="clippath">
      <rect class="cls-1" width="134.59" height="121"/>
    </clipPath>
  </defs>
  <g id="_레이어_1-2" data-name="레이어 1">
    <g class="cls-3">
      <g>
        <path class="cls-2" d="M17.95,85.6c-2.68-2.02-3.32-6.61-3.29-10.01.03-3.06,1.17-9.61,3.98-10.7l-4.13-1.04c.84-1.89,2.93-1.27,3.77-1.07.11-.05.25-.1.39-.14.1-.69-.05-3.16-.03-3.97-.93-1.06-1.53-2.37-1.82-3.9-.36,1.43-1.59,2.27-3.7,2.52l2.76.35c.02.61-2.13.75-2.76,1.03.26,1.97-4.46,4.56-7,4.17-.14.2-.57.42-1.28.67,1.88-.42,1.27,1.02,1.73,2.03,1.94,4.18,3.97,8.26,5.86,12.47.59.23.59.46,0,.69l.69.69c.59.23.59.46,0,.69l.69.69c.6.23.6.46,0,.69l.69.69c.59.23.59.46,0,.69,1.33,1.29,1.91,3.21,2.76,4.83l.69-2.07Z"/>
        <path class="cls-2" d="M12.42,78c.09.19-.08.5,0,.69.6-.23.6-.46,0-.69Z"/>
        <path class="cls-2" d="M6.12,62.84c-.56-.08-1.01-.31-1.29-.71.15.32-.14,1.06,0,1.38.72-.24,1.14-.46,1.29-.67Z"/>
        <path class="cls-2" d="M13.81,80.77c.08.19-.09.5,0,.69.59-.23.59-.46,0-.69Z"/>
        <path class="cls-2" d="M13.11,79.38c.09.19-.08.5,0,.69.6-.23.6-.46,0-.69Z"/>
        <path class="cls-2" d="M14.49,82.15c.09.19-.09.5,0,.69.6-.23.6-.46,0-.69Z"/>
        <path class="cls-2" d="M16.82,54.78c.28,1.54.89,2.84,1.82,3.9.02-1.38-.02-2.77-.01-4.15l-1.38-1.38c-2.97.22-.84,3.91-4.83,2.77-.24.14.59.99.69,1.37,2.11-.26,3.35-1.1,3.71-2.52Z"/>
        <path class="cls-2" d="M6.12,62.84c2.54.39,7.25-2.2,6.99-4.17-2.37,1.08-5.74,3.21-8.28,3.45,1.1.18,1.49.42,1.28.71h.01Z"/>
        <path class="cls-2" d="M18.63,62.82s.03-.1.04-.18c-.14.04-.28.08-.4.14.2.05.34.07.36.04Z"/>
        <path class="cls-2" d="M14.66,75.59c-.03,3.4.61,7.98,3.28,10.01-3-9.62-2.23-11.65.69-20.71-2.8,1.09-3.94,7.64-3.97,10.7h0Z"/>
        <path class="cls-2" d="M6.12,62.84c.2-.29-.19-.53-1.29-.71.28.41.73.63,1.29.71Z"/>
        <path class="cls-2" d="M90.47,6.67c2.77.8,5.44,2.59,6.16,5.07,2.74,1.68,4.39,2.81,6.9,4.83l.41.3c.68.48,1.26.76,2.35,1.77,1.2.73,2.59,1.11,3.44,2.42l-.68.34c2.59,2.55,5.19,5.55,7.6,8.28-1.28-2.33-3.03-5.41-4.91-8.41-1.63-2.29-3.24-4.59-4.84-6.9-.43-.52-.86-1-1.27-1.43-1.07-1.11-2.85-.97-3.48-2.58-.19.59-.42.58-.69,0l-.69-.69c-.19.59-.42.58-.68,0-2.46-1.23-6.47-3.73-8.98-4.14-.07.66-.33,1.03-.64,1.14h0Z"/>
        <path class="cls-2" d="M89.68,6.47c-.24-.2-.47-.51-.64-.94-.75.04-1.73-.21-2.07.69.85-.04,1.78.05,2.72.25h0Z"/>
        <path class="cls-2" d="M100.77,9.67c-.18-.09-.5.09-.69,0,.27.58.5.59.69,0Z"/>
        <path class="cls-2" d="M102.15,10.36c-.18-.1-.51.09-.69,0,.27.58.5.59.69,0Z"/>
        <path class="cls-2" d="M108.27,15.95c1.12,1.6,2.26,3.2,3.42,4.78-1.12-1.65-2.27-3.27-3.42-4.78Z"/>
        <path class="cls-2" d="M111.75,21.28c-1.59-2.53-3.26-4.99-4.85-6.9,1.6,2.31,3.21,4.61,4.85,6.9Z"/>
        <path class="cls-2" d="M90.47,6.67c-.25.09-.52.02-.79-.2-.94-.2-1.86-.3-2.71-.25,3.41,1.53,6.49,3.58,9.66,5.52-.72-2.48-3.39-4.27-6.16-5.07Z"/>
        <path class="cls-2" d="M90.47,6.67c-.26-.08-.53-.14-.79-.2.26.21.54.29.79.2Z"/>
        <path class="cls-2" d="M89.68,6.47c.27.06.53.12.79.2.31-.12.57-.48.64-1.14-.57-.09-1.44-.03-2.07,0,.17.44.4.74.65.94h0Z"/>
        <path class="cls-2" d="M31.75,6.22c-.98,1.55-1.31,3.56-2.76,4.83.36,1.07,2.7,2.78.69,4.14,1.27-.35,1.46-1.62.56-3.81,1.94-2.36,3.83-4.54,5.65-6.55h-.69c-.19.6-.42.59-.69,0l-.28.14c-.27.17-.63.42-1.1.55-.22.6-.45.6-.69,0-.03.42-.6.54-.69.69h0Z"/>
        <path class="cls-2" d="M33.13,5.53c-.21.06-.46-.04-.69,0,.24.6.47.6.69,0Z"/>
        <path class="cls-2" d="M35.2,4.84c-.22.05-.48-.06-.69,0,.27.59.5.6.69,0Z"/>
        <path class="cls-2" d="M29.68,15.19c.36.32,1.84,1.65,2.07,1.38-.06-1.55-1.08-2.65-.58-4.33.45-1.53,4.13-4.06,4.55-4.82.48-.85.04-1.8.17-2.58-1.82,2.01-3.71,4.19-5.65,6.55.9,2.19.71,3.46-.56,3.81h0Z"/>
        <path class="cls-2" d="M10.06,32.6s-.02.03-.03.04c.01,0,.01,0,.02-.01v-.03h.01Z"/>
        <path class="cls-2" d="M5.52,36.59c.08.57-.01,1.16.69,1.38-.09-1.21.31-2.31,1.18-3.31-.68.32-1.36.53-1.87.55.59.16.57.4,0,.69-.03.19-.03.49,0,.69h0Z"/>
        <path class="cls-2" d="M5.52,35.21c-.07.17.04.45,0,.69.57-.29.59-.53,0-.69Z"/>
        <path class="cls-2" d="M7.39,34.66c.63-.73,1.5-1.4,2.64-2.02.01-.01.02-.03.03-.04l.29-1.53c-.81.74-2.28,1.36-3.43,2.33-.49.58-.96,1.18-1.4,1.81.52-.02,1.19-.23,1.87-.55h0Z"/>
        <path class="cls-2" d="M5.52,35.21c.44-.63.91-1.22,1.39-1.81-.58.49-1.09,1.07-1.39,1.81Z"/>
        <path class="cls-2" d="M10.06,32.6v.03s-.02,0-.03.01c-.56.79-1.61,1.54-2.64,2.02-.87,1-1.27,2.1-1.18,3.31,1.54-2.24,3.28-2.87,4.72-4.61,1.32-1.6.79-1.4-.57-2.29.2.48.05,1.01-.3,1.53h0Z"/>
        <path class="cls-2" d="M10.35,31.07l-.29,1.53c.35-.52.5-1.04.29-1.53Z"/>
        <path class="cls-2" d="M10.03,32.64c-1.14.62-2.01,1.29-2.64,2.02,1.03-.48,2.08-1.23,2.64-2.02Z"/>
        <path class="cls-2" d="M5.11,38.45c-.26-.24-.14-1.02.41-1.86h-.69c.47.22.47.45,0,.69-.02.05-.07.15-.13.26l-.56,1.12c.6.23.6.46,0,.69l-.69.69c.6.23.6.46,0,.69l-.69,1.38c.6.23.6.46,0,.69l-.69.69c.6.23.6.46,0,.69l-.69,1.38c.6.23.6.46,0,.69v.69c1.16-2.32,2.41-5.16,3.73-8.49h0Z"/>
        <path class="cls-2" d="M4.83,36.59c-.09.17.08.48,0,.69.47-.24.47-.47,0-.69Z"/>
        <path class="cls-2" d="M4.14,38.66c-.08.2.08.49,0,.69.6-.23.6-.46,0-.69Z"/>
        <path class="cls-2" d="M3.45,40.04c-.08.2.08.49,0,.69.6-.23.6-.46,0-.69Z"/>
        <path class="cls-2" d="M1.38,45.56c-.04.22.03.47,0,.69.59-.23.59-.46,0-.69Z"/>
        <path class="cls-2" d="M2.76,42.11c-.08.2.08.49,0,.69.6-.23.6-.46,0-.69Z"/>
        <path class="cls-2" d="M2.07,43.49c-.07.2.07.48,0,.69.6-.23.6-.46,0-.69Z"/>
        <path class="cls-2" d="M5.11,38.45c-1.33,3.33-2.57,6.18-3.73,8.49l.68.69c1.41-3.07,2.24-6.87,4.15-9.66-.55.55-.91.64-1.1.48h0Z"/>
        <path class="cls-2" d="M5.52,36.59c-.55.84-.67,1.62-.41,1.86.05-.13.1-.25.16-.38l.94-.1c-.69-.22-.6-.81-.69-1.38h0Z"/>
        <path class="cls-2" d="M5.11,38.45c.18.16.55.07,1.1-.48l-.95.1c-.05.13-.1.25-.15.38h0Z"/>
        <path class="cls-2" d="M51.77.7v.69c.25-.22.55-.39.89-.51-.31-.01-.63-.08-.89-.17Z"/>
        <path class="cls-2" d="M53.59.66c.36-.04.71-.02,1.04.05,0-.1.07-.21.17-.33-.08-.07-.17-.18-.27-.36-.23,0-.47-.02-.69,0,.04.31-.07.51-.25.65h0Z"/>
        <path class="cls-2" d="M54.8.37c.1-.11.23-.23.42-.36-.23,0-.46,0-.69,0,.1.19.19.29.28.36h-.01Z"/>
        <path class="cls-2" d="M54.63.71c-.33-.07-.69-.09-1.04-.05-.22.17-.56.24-.93.22-.34.13-.64.3-.89.51,1.35-.11,2.77.03,4.14,0-.76-.17-1.28-.37-1.28-.68Z"/>
        <path class="cls-2" d="M53.59.66c-.32.03-.64.1-.93.22.37.02.71-.04.93-.22Z"/>
        <path class="cls-2" d="M53.59.66c.18-.14.29-.34.25-.65-.76.06-1.39.4-2.07.69.27.1.58.16.89.17.3-.12.61-.18.94-.22h-.01Z"/>
        <path class="cls-2" d="M54.8.37c-.1.12-.16.24-.17.33.49.1.94.32,1.28.68-.28-.28-.41-1.01-.69-1.38-.09.42-.23.52-.42.36Z"/>
        <path class="cls-2" d="M54.8.37c.19.16.33.06.42-.36-.19.14-.32.25-.42.36Z"/>
        <path class="cls-2" d="M55.91,1.39c-.34-.37-.79-.58-1.28-.68,0,.32.52.51,1.28.68Z"/>
        <path class="cls-2" d="M1.03,54.17s-.02.03-.02.04c.11,0,.24.1.37.32v-.69c-.09.28-.21.37-.35.32h0Z"/>
        <path class="cls-2" d="M1.01,54.21s.02-.03.02-.04c-.1-.03-.21-.13-.34-.32.06.22-.06.49,0,.69.1-.22.21-.32.32-.33h0Z"/>
        <path class="cls-2" d="M1.03,54.17c.14.05.26-.05.35-.32-.15.04-.55.05-.69,0,.23.1.34.21.34.32h0Z"/>
        <path class="cls-2" d="M1.03,54.17c0-.12-.11-.22-.34-.32.12.19.24.29.34.32Z"/>
        <path class="cls-2" d="M1.01,54.21c-.03.1-.12.21-.32.32h.69c-.13-.22-.25-.33-.37-.32Z"/>
        <path class="cls-2" d="M1.01,54.21c-.11,0-.22.11-.32.32.2-.11.3-.22.32-.32Z"/>
        <path class="cls-2" d="M27.02,6.54c-.28,1.77-1.44,1.5-3.47-.79.94,1.94-.35,5.49-2.03,6.83,1.31,1.16,2.52,1.94,4.36,1.96.78-1.19,1.79-1.79,2.59-1.79-.09-.09-.16-.18-.25-.26l.77-1.43c-2.06.36-3.01-3.85-1.38-4.83-.23.13-.43.24-.61.32,0,0,0,0,0,0h.01Z"/>
        <path class="cls-2" d="M23.55,5.75c2.03,2.29,3.19,2.56,3.47.79-.01,0-.01,0-.02,0-.73.35-.96.29,0,0,.18-.08.38-.19.61-.32-.07-.02-.75-1.23-1.34-.64-.32.33.47,1.64-.73,1.33.6-2.19-.81-2.62-2.76-2.07.34.23.59.54.77.91h0Z"/>
        <path class="cls-2" d="M18.64,13.11c3.2,0,3.79,3.54,6.2,2.08l-.68,2.76c1.62-.52,3.26-3.6,4.49-4.14.34-.15.57.97,1.03,1.38-.08-.9-.5-1.71-1.21-2.45-.8,0-1.81.6-2.59,1.79-1.84-.02-3.05-.8-4.36-1.96,1.68-1.34,2.97-4.89,2.03-6.83-.25-.28-.5-.57-.77-.91-.39,1.63-.36,4.05-1.07,5.49-.79,1.6-2.62,1.44-3.07,2.78h0Z"/>
        <path class="cls-2" d="M22.78,4.84c.27.34.52.63.77.91-.18-.37-.42-.68-.77-.91Z"/>
        <path class="cls-2" d="M28.99,11.05l-.77,1.43c.09.08.16.17.25.26.9,0,1.53.78,1.21,2.45,2.01-1.36-.33-3.08-.69-4.14h0Z"/>
        <path class="cls-2" d="M28.47,12.75c.72.73,1.13,1.55,1.21,2.45.32-1.67-.31-2.44-1.21-2.45Z"/>
        <path class="cls-2" d="M28.99,11.05c-.48-1.39-.69-3.35-1.38-4.83-1.63.98-.68,5.19,1.38,4.83Z"/>
        <path class="cls-2" d="M35.35,15.71c.4.29,2.48-.6,2.56-.5.35.5.31,3.76,2.37,3.38.77-.14,11.11-10.05,9.41-11.68-2.69-1.05-3.35,1.09-3.98,1.32-1.27.47-3.03.2-4.27,1.12-1.22.91-1.28,2.97-1.42,3.07-.32.26-4.83-3.44-7.58.34,1.41.38,2.35,2.52,2.91,2.93Z"/>
        <path class="cls-2" d="M17.26,41.42l.68,3.45-4.13-.69c-.39-1.27.6-1.19.69-1.38.19-.43.85-1.2.69-1.37-.44-.1-1.03.1-1.38,0-.07-.02-.14-.12-.23-.22l-.46-.47c-.14.11-.51-.1-.69,0-.44.25-.25,1.27-2.07,1.38-.58.04-.52-.26-2.07,0,1.22,2.95,2.63,5.66,6.21,4.84-1.43,3.29,1.5,2.51,3.45,4.14.22-.02.89.71,1.38.69.14-2.52,2.79-7.82,1.04-9.7-.21-.22-1.11-.14-2.42-1.34-.16.28-.39.57-.69.69h0Z"/>
        <path class="cls-2" d="M27.61,25.55c-.25,0-.46-.02-.64-.04-.72.02-1.55.18-2.12.04v1.38c.12.16-.17.93.04,1.33l1.33-.65c.72,2.78-1.25,1.93-2.06,2.77-2.57,2.65.89,2.72,2.42,4.13,1.75-.69.21-2.65.33-2.74.38-.28,4.54.78,2.58-1.95-.23-.32-1.49.32-1.19-.81,2.34.95,1.79.15,2.76-.7-1.16-2.42-1.12-2.3-3.45-2.76h0Z"/>
        <path class="cls-2" d="M63.59,2.45l1.29-1.06c-.7.52-1.42.87-2.14,1.1.28-.02.56-.04.85-.04Z"/>
        <path class="cls-2" d="M58.21,3.56c.73-.33,1.52-.59,2.35-.77-.62-.01-1.24-.12-1.87-.28.08.3-.09.65-.48,1.05Z"/>
        <path class="cls-2" d="M58.21,3.56c-1.1.49-2.1,1.14-2.99,1.97,1.45-.76,2.44-1.41,2.99-1.97Z"/>
        <path class="cls-2" d="M58.69,2.51c-.92-.24-1.86-.62-2.78-1.12.49.49,2.27.94,1.36,2.04-.4.49-1-.47-2.05,2.1.89-.82,1.89-1.47,2.99-1.97.39-.4.56-.75.48-1.05h0Z"/>
        <path class="cls-2" d="M62.73,2.49c-.72.23-1.44.32-2.17.3-.83.18-1.62.44-2.35.77-.55.56-1.54,1.21-2.99,1.97,1.46-.69,6.01-1.19,8.16-1.87,1.7-.54,1.74-.04,1.5-2.27l-1.29,1.06c-.29,0-.57.03-.86.04Z"/>
        <path class="cls-2" d="M55.91,1.39c1.72.2,2.65.58,2.78,1.12.63.16,1.25.27,1.87.28.69-.15,1.41-.25,2.17-.3.72-.23,1.44-.59,2.15-1.1-2.98.01-5.99-.07-8.97,0h0Z"/>
        <path class="cls-2" d="M60.56,2.8c.73.02,1.45-.08,2.17-.3-.76.05-1.48.15-2.17.3Z"/>
        <path class="cls-2" d="M55.91,1.39c.92.51,1.86.88,2.78,1.12-.13-.55-1.06-.92-2.78-1.12Z"/>
        <path class="cls-2" d="M5.78,51.29l-1.64-6.42c-1.1,3.77.66,6.65.69,10.35,2.67-.5,1.08-2.23,4.14-3.45v-.69c-1.18,1.08-2.26,1.77-3.19.2h0Z"/>
        <path class="cls-2" d="M8.97,51.09c-3.08.46-1.55-.69-2.46-2.69-.52-1.15-1.52-2.56-2.37-3.52l1.64,6.42c.93,1.56,2.02.87,3.19-.2h0Z"/>
        <path class="cls-2" d="M24.85,26.93c-.19-.08-.36-.15-.5-.22-.86-.08-2.27.44-2.26-2.54h-.7c-.1.11-.59.04-.64.39l3.41,5.83c-.52-2.06-.29-3.21.68-3.45h.01Z"/>
        <path class="cls-2" d="M26.22,27.61l-1.33.65c-.21-.4.08-1.18-.04-1.33-.98.24-1.21,1.39-.69,3.45.81-.84,2.79.02,2.06-2.77Z"/>
        <path class="cls-2" d="M24.85,26.93c-.12-.14-.29-.2-.5-.22.14.07.31.14.5.22Z"/>
        <path class="cls-2" d="M32.44,24.86c.28-2.11,1.54-1.24-.69-3.45-1.01,1.25-.78,2.4.69,3.45Z"/>
        <path class="cls-2" d="M32.44,24.86c-1.47-1.05-1.7-2.2-.69-3.45-3.39.36-2.55,3.86.69,3.45Z"/>
        <path class="cls-2" d="M109.05,62.82c-2.46-3.35-2.69-3.12-.68.69-.18-.53.69-.64.68-.69Z"/>
        <path class="cls-2" d="M109.05,62.82c-.16-1.27-1.69-3.16-1.38-4.83-4.34,2.42-.47,3.78.7,5.52-2.01-3.81-1.78-4.04.68-.69Z"/>
        <path class="cls-2" d="M18.43,88.62c-.18-.45-.32-.91-.41-1.38-.11.34-.37.49-.76.42.43.21.82.54,1.17.95Z"/>
        <path class="cls-2" d="M19.59,90.66c.23.63.38,1.27.43,1.84-.14-.42.39-.74.69-.69-.4-.32-.78-.71-1.12-1.15h0Z"/>
        <path class="cls-2" d="M18.02,87.24c.09.47.23.92.41,1.38.49.57.89,1.3,1.16,2.04.34.44.72.83,1.12,1.15-.96-1.99-2.11-4.11-2.76-6.21.17.75.19,1.3.07,1.65h0Z"/>
        <path class="cls-2" d="M18.02,87.24c-.1-.56-.14-1.11-.08-1.65l-.68,2.07c.39.06.65-.08.76-.42Z"/>
        <path class="cls-2" d="M18.02,87.24c.12-.35.09-.89-.08-1.65-.06.53-.02,1.09.08,1.65Z"/>
        <path class="cls-2" d="M18.43,88.62c-.35-.41-.74-.74-1.17-.95.86,1.66,1.88,3.22,2.76,4.83-.05-.57-.2-1.21-.43-1.84-.47-.6-.86-1.3-1.16-2.04Z"/>
        <path class="cls-2" d="M18.43,88.62c.3.74.69,1.44,1.16,2.04-.27-.75-.67-1.47-1.16-2.04Z"/>
        <path class="cls-2" d="M8.97,51.09c.6.2.6.43,0,.69,3.18-1.27,1.7.65,2.37.63.54-.01,1.96-.53,3.15-.63-1.43-.62-3.27-.85-5.52-.69Z"/>
        <path class="cls-2" d="M8.97,51.09c2.25-.16,4.09.07,5.52.69l.69-1.37c-2.3-.6-4.43.42-6.21.68h0Z"/>
        <path class="cls-2" d="M8.97,51.09v.69c.6-.26.6-.49,0-.69Z"/>
        <path class="cls-2" d="M12.42,37.97c-.13.25.1.95,0,1.38-.05.27-.53.61-.51,1.05l.51.33c.18-.62.41-.61.69,0-.61-1.07.56-2.62,1.38-3.45-.01-.23,0-.46,0-.69-.37.14-1.1.46-1.38.69-.15.12-.65.61-.69.69h0Z"/>
        <path class="cls-2" d="M13.11,40.73c-.28-.61-.51-.62-.69,0,.18-.1.56.11.69,0Z"/>
        <path class="cls-2" d="M13.11,40.73c.5-.4,1.78-1.32,1.88-1.7.09-.4-.47-1.23-.5-1.75-.82.83-1.99,2.38-1.38,3.45Z"/>
        <path class="cls-2" d="M26.92,21.41c.02.09.94.68.69,1.37.2,0,.42,0,.69.01-1.21-1.43-.41-4.22,1.38-2.76-1.07-1.13-.31-1.93-1.03-2.76-.18.82-1.81,2.89-1.73,3.45.03.24-.05.5,0,.69Z"/>
        <path class="cls-2" d="M28.3,22.79c-.27-.02-.49-.02-.69-.01h0s.69.01.69.01h0Z"/>
        <path class="cls-2" d="M28.3,22.79c.29-1-.46-2.09,1.38-2.76-1.79-1.47-2.59,1.33-1.38,2.76Z"/>
        <path class="cls-2" d="M26.22,24.06c-.01.21-.01.47,0,.8.11-.24.08-.52,0-.8Z"/>
        <path class="cls-2" d="M24.85,25.55c.14-.32.83-.51,1.49-.51.13-.22.54-.51,1.27-.87-.44.14-1.01.65-1.38.69-2.08.2-1.85-3.85-4.83-.69h.69c1.47-.42,2.6,1.34,2.76,1.38h0Z"/>
        <path class="cls-2" d="M26.97,25.51c-.57-.07-.78-.22-.63-.47-.66,0-1.35.18-1.49.51.57.15,1.4-.02,2.12-.04h0Z"/>
        <path class="cls-2" d="M27.61,25.55c.06-.44-.09-.98,0-1.38-.73.36-1.14.65-1.27.87.57,0,1.12.15,1.27.51Z"/>
        <path class="cls-2" d="M26.97,25.51c.23,0,.45,0,.64.04-.15-.35-.7-.5-1.27-.51-.15.24.06.4.64.47h0Z"/>
        <path class="cls-2" d="M11.07,40.69c-.1-.48.29-1.22,1.35-1.34-2.69-.38-2.11.37-2.06,2.76-.03-.67.27-1.18.72-1.42h-.01Z"/>
        <path class="cls-2" d="M12.42,40.73c-.76.64-1.25.4-1.35-.04-.45.24-.74.75-.72,1.42,1.83-.11,1.64-1.13,2.07-1.38h0Z"/>
        <path class="cls-2" d="M11.07,40.69c.38-.2.86-.22,1.35.04l-.51-.33c-.03-.43.46-.77.51-1.05-1.06.12-1.45.86-1.35,1.34Z"/>
        <path class="cls-2" d="M11.07,40.69c.1.44.59.67,1.35.04-.49-.26-.97-.24-1.35-.04Z"/>
        <path class="cls-2" d="M89.04,5.53c-.97-1.31-3.32-.53-4.83-.68-.21,1.13,1.76.92,2.76,1.37-.96-1.34.9-1.24,2.07-.69h0Z"/>
        <path class="cls-2" d="M89.04,5.53c-.99-.46-2.58-.57-2.07.69.33-.91,1.31-.66,2.07-.69Z"/>
        <path class="cls-2" d="M89.04,5.53c-1.17-.55-3.03-.65-2.07.69-.51-1.26,1.08-1.15,2.07-.69Z"/>
        <path class="cls-2" d="M19.32,25.54v-2.07c-1.33.72-2.51.38-2.06,2.07h2.06Z"/>
        <path class="cls-2" d="M118.03,57.99c.32.95-.21,2.09-1.38,2.07h2.06c.25-.98-.32-1.37-.68-2.07Z"/>
        <path class="cls-2" d="M118.03,57.99c-1.31.17-1.1,1.72-1.38,2.07,1.17.01,1.7-1.12,1.38-2.07Z"/>
        <path class="cls-2" d="M5.52,44.18l1.38-2.07c-1.05.33-1.36.99-1.38,2.07Z"/>
        <path class="cls-2" d="M6.9,44.87v-2.76l-1.38,2.07c.32.02,1.19.98,1.38.69h0Z"/>
        <path class="cls-2" d="M33.82,17.27h-1.38v2.06h1.38v-2.06Z"/>
        <path class="cls-2" d="M23.46,20.02c.17-.17-.09-2.09,0-2.76h-.68c.11,1.32.13,2.34-1.38,2.08v.67c.56-.07,1.93.14,2.06,0h0Z"/>
        <path class="cls-2" d="M1.21,51.78c0,.19-.15.41-.52.68.67-.15.84-.37.52-.68Z"/>
        <path class="cls-2" d="M1.21,51.78c.32.31.15.54-.52.68,2.54.2,1.89-1.97-.69-1.38.72.14,1.22.36,1.22.7h-.01Z"/>
        <path class="cls-2" d="M1.21,51.78c-.2-.2-.6-.43-1.21-.7.02.35.6.95.69,1.38.37-.27.52-.5.52-.68h0Z"/>
        <path class="cls-2" d="M1.21,51.78c.01-.34-.49-.56-1.21-.7.61.27,1.01.5,1.21.7Z"/>
        <path class="cls-2" d="M85.59,80.08c-.28-.93-.51-.7-.69.69.54-.09.58-.18.69-.69Z"/>
        <path class="cls-2" d="M85.59,80.08c.12-.6-.07-1.41,0-2.07-1.66.46-1.16,1.48-.68,2.76.18-1.39.41-1.62.69-.69h0Z"/>
        <path class="cls-2" d="M1.38,54.54c.16.05.26.1.33.16.43-.75.34-1.06-.33-.85.6.19.6.43,0,.69Z"/>
        <path class="cls-2" d="M1.73,53.16c-.19.06-.2.65-.35.68.67-.21.76.09.33.85.18.15.07.33-.33.53,1.49-.14,2.12-2.66.35-2.06Z"/>
        <path class="cls-2" d="M1.38,54.54c.03.23-.03.47,0,.69.15-.21.24-.37.33-.53-.07-.06-.17-.11-.33-.16Z"/>
        <path class="cls-2" d="M1.71,54.69c-.09.17-.18.33-.33.53.4-.21.51-.39.33-.53Z"/>
        <path class="cls-2" d="M1.38,53.85v.69c.6-.26.6-.49,0-.69Z"/>
        <path class="cls-2" d="M25.54,22.79l-1.38-1.38c-.03.75.86,1.07,1.38,1.38Z"/>
        <path class="cls-2" d="M26.23,21.41h-2.07s1.38,1.37,1.38,1.37c-.01-.23.94-1.2.69-1.37Z"/>
        <path class="cls-2" d="M11.74,37.62l.68.35c-.6-.75-.24-1.09.69-.69l-.35-.68c-1.07-.16-1.18-.05-1.02,1.02h0Z"/>
        <path class="cls-2" d="M12.42,37.97c.04-.08.54-.57.69-.69-.93-.4-1.29-.06-.69.69Z"/>
        <path class="cls-2" d="M22.78,37.97c.75.75,2.13-.62,1.37-1.37-.75-.75-2.12.62-1.37,1.37Z"/>
        <path class="cls-2" d="M16.57,39.35h-.69c.25,1.28.48,1.28.69,0Z"/>
        <path class="cls-2" d="M15.59,40.74h1.67s-.69-1.38-.69-1.38c-.21,1.28-.44,1.28-.69,0-.03.25-.5.69-.64,1.01.15.07.27.2.35.37h0Z"/>
        <path class="cls-2" d="M15.53,40.74h.06c-.08-.17-.2-.3-.35-.37-.08.19-.04.34.29.37h0Z"/>
        <path class="cls-2" d="M32.44,26.24l-.69,1.38c.28-.52.44-.58.69-1.38Z"/>
        <path class="cls-2" d="M31.75,27.62l.69-1.38c-1.84-.12-1.57-.03-.69,1.38Z"/>
        <path class="cls-2" d="M8.29,58.67c.96.5,1.84-.44,1.37-.68-.97-.5-1.84.44-1.37.68Z"/>
        <path class="cls-2" d="M109.05,111.83l.22-2.01c4.47-3.12,7.74-6.67,10.68-11.12l2.02-.93c2.07,1.18,2.02.67-.13-1.55,10.54-14.44,10.96-34.19,5.03-50.66l.82-2.06c-.49.17-1.14.37-1.46.06-1.62-1.52-8.57-10.16-9.95-12.2l.37-1.67c-3.35-.61-7.19-4.92-7.6-8.28-.88-.87-1.94-2.01-2.76-2.76l-3.45-2.07c-1.97,1.39-7.59-1.63-6.9-4.14l-.84,1.81c-2.91.37-3.78,3.58-1.14,4.31,5.23-4.44,8.42,1.67,10.41,6.18,3.37,4.16,19.68,24.52,17.03,29.22-1.67,2.97-3.42,1.66-3.55,1.54.86.75,1.18,1.46.18,2.49,3.74-.57,1.62,4.3-.35,3.26.5,1.11-.53,3.21-2.41,2.26,2.05.84,1.01,2.83-1.08,3.14-.28.04-3.81-1.98-4.85-3.2.05.3-.13.41-.5.29,7.19,3.57-1.73,12.32-7.05,14.08-3.56.04-5.91.37-8.88,2.56-3.26,1.62-5.7,1.52-7.32-.3.98,1.17.6,1.55-.69.69l-.99,1.53-19.84,2.02c-6.81,1.39-13.87,1.24-21.17-.45l-3.44,1.88c4.4,3.73-.8,6.39-4.73,6.05l-8.01-.92c-.01,2.57-3.48,3.57-5.17,2.25.78.63,1.3,1.72,1.52,3.29,8.02,7.11,17.25,13.02,26.88,17.86l.44,1.7,2.8-.37c11.24,4.14,23.48,5.02,35.25,2.95l2.67.88c-.15-2.03,2.89-2.99,4.14-1.38.19-.61.42-.6.69,0-.82-1.87,1.53-2.88,2.76-1.38.23-.6.47-.6.69,0,.25-3.17,6.94-6.27,9.67-4.83h-.01Z"/>
        <path class="cls-2" d="M20.91,92.36c.03.18-.03.28-.13.33.27.1.52.24.75.41-.25-.2-.46-.44-.62-.74h0Z"/>
        <path class="cls-2" d="M95.25,118.04c.21-.06.48.07.69,0-.27-.6-.5-.61-.69,0Z"/>
        <path class="cls-2" d="M98.7,116.66c.21-.07.49.07.69,0-.23-.6-.46-.6-.69,0Z"/>
        <path class="cls-2" d="M92.91,80.38c2.96-2.2,5.32-2.52,8.88-2.56,5.32-1.75,14.24-10.5,7.05-14.08-.14-.04-.29-.11-.47-.22,3.29,4.91,1.51,7.03-2.94,10.56-5.42,4.31-5.49,1.69-9.14,2.89-1.64.54-3.21,2.24-5.84,2.8-1.63.35-3.21.43-4.86.32,1.62,1.82,4.06,1.92,7.32.3h0Z"/>
        <path class="cls-2" d="M117.03,60.7c-.13-.18-.26-.39-.38-.64-.15.18-.52.55-.69.69.45-.14.8-.14,1.07-.05Z"/>
        <path class="cls-2" d="M114.19,66.65c2.09-.31,3.13-2.3,1.08-3.14-.27.45-.05,1.62-1.04,2.06-1.43-1.88-2.95-2.42-5.17-2.75.17.26.25.47.28.63,1.04,1.23,4.57,3.25,4.85,3.2Z"/>
        <path class="cls-2" d="M20.91,92.36c.16.3.37.55.62.74,0,0,.01,0,.01,0,1.7,1.32,5.16.32,5.17-2.25l8.01.92c3.94.34,9.13-2.32,4.73-6.05l3.45-1.88c7.3,1.69,14.36,1.84,21.17.45l19.84-2.02.99-1.53c-2.59.43-5.88.4-8.55.77-5.34.75-10.01,1.01-14.33,1.67-1.42.21-2.51.96-4.37,1.05-4.3.2-11.48-2.2-14.97-1.74-1.97.26-3.35,2.31-5.41,2.41.5,2.39,4.6,2.94,1.58,4.67-4,2.29-9.82-1.02-14.01.15l.7,2.06c-2.13.76-3.06.29-4.84,0,.12.22.19.41.21.55h0Z"/>
        <path class="cls-2" d="M117.85,55.49s-.02-.01,0,0c.13.11,1.87,1.43,3.55-1.54,2.65-4.7-13.66-25.07-17.03-29.22-1.99-4.51-5.18-10.62-10.41-6.18-2.64-.73-1.77-3.94,1.14-4.31l.84-1.81c-2.05.78-4.03,1.56-5.91,2.69-.37.22-2.41.37-.99,1.44.28.22,2.06-.14,2.76,0-1.77,2.33,1.2,2.85,3.1,4.15l.35-2.08c5.9-1.21,5.55,3.43,7.98,6.85,4.35,6.14,12.41,15.03,15.33,21.94,1.05,2.49,1.14,4.54,1.54,7.09-.98.76-2.35-1.91-2.73-1.03-.02.04.55.55.37.84-.2.31-1.28,0-1.13,1.19.14,1.05,1.01,1.65,1.42,2.45,1-1.03.68-1.74-.18-2.49h0Z"/>
        <path class="cls-2" d="M121.84,96.22c2.15,2.22,2.2,2.74.14,1.55l-2.03.93c-2.94,4.45-6.21,8-10.68,11.12l-.21,2.01c2.91-2.61,6-4.56,8.64-7.57.87-.99,3.36-6.56,5.16-4.85.15.14-.67,3.42,2.07,2.07.22-.11.14-4.63-.03-4.8-.3-.3-1.9.41-2.04-.37,8.21-8.62,9.75-23.73,9-35.23-.39-6.08-2.53-12.09-4.17-17.57l-.81,2.06c5.93,16.47,5.5,36.22-5.04,50.66h0Z"/>
        <path class="cls-2" d="M91.11,119.42l-2.67-.88c-11.78,2.07-24.01,1.19-35.25-2.95l-2.8.37c12.61,5.32,27.44,6.34,40.72,3.45h0Z"/>
        <path class="cls-2" d="M116.65,29.69c-2.41-2.74-5.01-5.73-7.59-8.28.4,3.36,4.25,7.67,7.59,8.28Z"/>
        <path class="cls-2" d="M20.78,92.69c-.14.07-.39.04-.76-.19,1.08,1.98,1.13,2.64,1.57,3.82.23.4.47.81.7,1.21,1.41,1.34,6.21,5.21,7.16,5.89.09.06.19.13.28.2,3.2,2.15,6.41,4.26,9.64,6.36,3.94,2.43,7.99,4.71,11.01,5.99l-.43-1.7c-9.63-4.84-18.87-10.74-26.88-17.86-.23-1.57-.74-2.66-1.53-3.29-.01,0-.01,0-.02,0-.22-.18-.47-.31-.74-.41h0Z"/>
        <path class="cls-2" d="M39.37,109.98c-3.23-2.1-6.44-4.21-9.63-6.36,2.55,1.82,6.04,4.15,9.63,6.36Z"/>
        <path class="cls-2" d="M21.9,97.11c.03.06.17.21.39.42-.23-.4-.47-.81-.7-1.21.08.24.18.49.31.79Z"/>
        <path class="cls-2" d="M21.54,93.12s-.01,0-.01,0c0,0,.01,0,.01,0Z"/>
        <path class="cls-2" d="M99.39,116.66c2.91-2.2,6.3-3.53,9.66-4.83-2.73-1.43-9.41,1.66-9.66,4.83Z"/>
        <path class="cls-2" d="M126.23,43.56c.33.31.97.11,1.46-.06-.75-2.5-8.9-11.37-11.04-13.81l-.37,1.67c1.38,2.04,8.33,10.68,9.95,12.2h0Z"/>
        <path class="cls-2" d="M91.11,119.42c1.14-.25,2.8-.99,4.14-1.38-1.25-1.61-4.29-.65-4.14,1.38Z"/>
        <path class="cls-2" d="M95.94,118.04l2.76-1.38c-1.24-1.5-3.58-.49-2.76,1.38Z"/>
        <path class="cls-2" d="M109.34,63.45c-.21-.25-.33-.47-.28-.63,0,.05-.87.16-.69.69.17.07.32.15.47.22.37.12.55.01.5-.29h0Z"/>
        <path class="cls-2" d="M109.05,62.82c-.04.16.08.38.29.63-.03-.16-.12-.37-.29-.63Z"/>
        <path class="cls-2" d="M108.37,63.51c.18.11.33.18.47.22-.15-.08-.3-.15-.47-.22Z"/>
        <path class="cls-2" d="M102.84,16.57c-2.3-1.35-4.88-2.33-6.9-4.14-.69,2.52,4.93,5.53,6.9,4.14Z"/>
        <path class="cls-2" d="M20.02,92.5c.27.03.52.1.76.19.1-.05.16-.15.13-.33-.08-.17-.16-.35-.2-.55-.3-.05-.83.27-.69.69Z"/>
        <path class="cls-2" d="M20.71,91.81c.04.2.12.39.2.55-.02-.14-.09-.33-.2-.55Z"/>
        <path class="cls-2" d="M20.78,92.69c-.24-.09-.49-.16-.76-.19.37.23.62.27.76.19Z"/>
        <path class="cls-2" d="M117.67,61.25c-.18-.1-.36-.24-.54-.44.08.37-.35.39-1.17-.06,1.18,1.42-.16,1.87-.69,2.76,1.88.95,2.91-1.15,2.4-2.26Z"/>
        <path class="cls-2" d="M117.13,60.8s-.06-.06-.1-.11c-.28-.09-.62-.09-1.07.05.82.45,1.25.42,1.17.06Z"/>
        <path class="cls-2" d="M117.67,61.25c1.98,1.04,4.1-3.83.36-3.26.36.71.93,1.09.68,2.07h-2.06c.25.28.4.5.46.67.26.1.45.28.56.52Z"/>
        <path class="cls-2" d="M117.11,60.72c-.06-.17-.21-.39-.46-.67.12.25.25.46.39.64.02,0,.05.02.07.03h0Z"/>
        <path class="cls-2" d="M117.11,60.73s.02.05.02.08c.18.21.36.35.55.44-.11-.24-.3-.42-.57-.52Z"/>
        <path class="cls-2" d="M117.03,60.7s.07.07.1.11c0-.03,0-.05-.02-.08-.02,0-.05-.02-.08-.03Z"/>
        <path class="cls-2" d="M85.59,80.08c-.11.51-.15.6-.69.69,1.3.86,1.67.48.69-.69Z"/>
        <path class="cls-2" d="M106.29,18.65l-2.36-1.77c-.12-.09-.26-.19-.4-.3h-.69c1.12.66,2.34,1.39,3.45,2.07h0Z"/>
        <path class="cls-2" d="M103.93,16.87l2.36,1.77c-1.09-1.01-1.68-1.29-2.36-1.77Z"/>
        <path class="cls-2" d="M108.1,19.95c.44.45.76.93.95,1.46-.08-.47-.41-.95-.95-1.46Z"/>
        <path class="cls-2" d="M108.1,19.95c.54.5.87.99.95,1.46l.68-.34c-.84-1.31-2.24-1.69-3.44-2.42.74.39,1.34.83,1.81,1.31Z"/>
        <path class="cls-2" d="M109.05,21.41c-.19-.52-.51-1.01-.95-1.46-.45-.42-1.04-.86-1.81-1.31.82.75,1.88,1.89,2.76,2.76Z"/>
        <path class="cls-2" d="M106.29,18.65c.77.45,1.36.88,1.81,1.31-.47-.48-1.06-.91-1.81-1.31Z"/>
        <path class="cls-2" d="M133.32,52.97c.33.32.75.4,1.27.19-.52.09-.93,0-1.27-.19Z"/>
        <path class="cls-2" d="M133.32,52.97c-.79-.44-1.07-1.49-.8-2.57-2.34,2.8,1.67,6.39,2.07,2.76-.52.21-.94.14-1.27-.19Z"/>
        <path class="cls-2" d="M133.32,52.97c.34.19.75.28,1.27.19-.46-1.09-1.4-1.85-2.07-2.76.11,1.31.38,2.15.8,2.57Z"/>
        <path class="cls-2" d="M133.32,52.97c-.43-.42-.7-1.27-.8-2.57-.27,1.08,0,2.13.8,2.57Z"/>
        <path class="cls-2" d="M13.81,41.42l-.23-.22c.08.11.16.2.23.22Z"/>
        <path class="cls-2" d="M13.11,40.73l.47.47c-.13-.17-.29-.39-.47-.47Z"/>
        <path class="cls-2" d="M8.29,47.29l2.06.34v-.07c-.45-.36-.87-.74-1.22-1.12-.29.2-.54.49-.84.84Z"/>
        <path class="cls-2" d="M10.35,47.57v-1.31c-.53-.12-.9-.02-1.22.19.35.38.77.75,1.22,1.12Z"/>
        <path class="cls-2" d="M10.7,48.33c.24-.02.32-.13.31-.26-.21-.15-.41-.3-.6-.45-.02,0-.04,0-.06.03-.15.16.11.71.35.69Z"/>
        <path class="cls-2" d="M10.41,47.61c.19.15.39.3.6.45-.02-.26-.38-.58-.6-.45Z"/>
        <path class="cls-2" d="M26.92,21.41l.68,1.37h0c.25-.68-.67-1.28-.69-1.37h0Z"/>
        <path class="cls-2" d="M27.61,22.77h0,0s0,0,0,0Z"/>
      </g>
    </g>
  </g>
</svg>