<?xml version="1.0" encoding="UTF-8"?>
<svg id="_레이어_2" data-name="레이어 2" xmlns="http://www.w3.org/2000/svg" viewBox="0 0 164.39 141">
  <defs>
    <style>
      .cls-1 {
        fill: #ff319c;
      }
    </style>
  </defs>
  <g id="_레이어_1-2" data-name="레이어 1">
    <g>
      <path class="cls-1" d="M65.77,105.66h.7c-.17-.01-.34,0-.51-.01-.07,0-.13,0-.19.01h0Z"/>
      <path class="cls-1" d="M75.57,65.08c-.1.01-.2.03-.3.04.13,0,.24,0,.3-.04Z"/>
      <path class="cls-1" d="M76,63.75c-.18.39-.33.82-.43,1.33.06-.03.76-1.07.43-1.33Z"/>
      <path class="cls-1" d="M75.93,63.7l-1.75.69v.68c.31-.03.77.04,1.09.05.1-.01.2-.03.3-.04.1-.51.25-.95.43-1.33-.02-.02-.04-.04-.07-.05h0Z"/>
      <path class="cls-1" d="M26.6,86.77c0,.23.01.47,0,.7.6-.33.63-.57,0-.7Z"/>
      <path class="cls-1" d="M25.9,88.87c-.04.23.05.48,0,.7.59-.33.62-.57,0-.7Z"/>
      <path class="cls-1" d="M24.5,93.77c0,.23-.02.48,0,.7.59-.39.63-.63,0-.7Z"/>
      <path class="cls-1" d="M40.12,126.8s-.03-.06-.05-.08c0,0,0,0,0,0,.02.02.03.05.05.07Z"/>
      <path class="cls-1" d="M25.9,97.26c.07.21-.07.5,0,.7.61-.31.63-.54,0-.7Z"/>
      <path class="cls-1" d="M26.6,98.66c.08.2-.08.5,0,.7.6-.23.6-.46,0-.7Z"/>
      <path class="cls-1" d="M147.61,37.73c-1.12-1.83-3.02-4.37-5.06-6.99,1.68,2.33,3.38,4.66,5.06,6.99Z"/>
      <path class="cls-1" d="M149.72,57.39c-.08-1.62.14-3.29,0-4.9-1.95.84-2.08,4.14,0,4.9Z"/>
      <path class="cls-1" d="M157.42,58.09c-.93.04-1.87-.02-2.8,0,.86,1.91,1.94,1.92,2.8,0Z"/>
      <path class="cls-1" d="M157.42,58.09c.25,0,.48.03.73.07-.23-.05-.47-.07-.73-.07Z"/>
      <path class="cls-1" d="M8.82,44.65c.51-.31,1.33-1.02,1.69-1.26.74-.48,1.09-.94,2.1-1.4,2.36-1.07,5.98-1.65,8.4-3.5-.74-1.26-.9-2.41-1.4-3.5-.61-.23-.61-.47,0-.7l-.7-.7c-.62-.2-.61-.43,0-.7l-4.2-7.69c-3.95,1.77-8.81,3.28-11.89,6.3.76,2.41,1.89,4.64,2.8,7,.61.23.61.47,0,.7l.7.7c.6.23.6.46,0,.7l2.06,4.11c.16-.08.3-.1.44-.06h0Z"/>
      <path class="cls-1" d="M8.81,44.65c-.13-.05-.28-.02-.44.06l.04.08c.06.04.2-.02.39-.14Z"/>
      <path class="cls-1" d="M19.6,35c-.09-.19.09-.51,0-.7-.61.23-.61.46,0,.7Z"/>
      <path class="cls-1" d="M5.61,38.5c.08.2-.08.5,0,.7.61-.23.61-.47,0-.7Z"/>
      <path class="cls-1" d="M6.31,39.9c.08.2-.08.5,0,.7.6-.23.6-.47,0-.7Z"/>
      <path class="cls-1" d="M18.9,33.6c-.09-.19.09-.51,0-.7-.61.27-.62.5,0,.7Z"/>
      <path class="cls-1" d="M113.66,4.22c1.22,0,2.35-1.41,3.55-1.4,2.73.03,7.14,12.45,8.71,15.06l.03-2.47c1.09.42,1.67,1.59,2.79,2.1-.08-.41-.77-1-.58-1.66l.58-.43c-.16-.26.12-.67-.7-.7.13.48-.48.92-.7.7-2.26-1.11.75-1.54.71-1.73-.13-.53-1.23-1.45-1.39-2.12-.1-.4.7-.31.68-.34-1.15-3.2-5.92-9.81-9.09-11.19-.23.61-.47.61-.7,0l-.58.29c-.57.32-1.18.73-2.21,1.11-.23.61-.46.61-.7,0l-2.1,1.4c.14.05.43,1.41,1.71,1.4h0Z"/>
      <path class="cls-1" d="M114.74,1.42c-.2.07-.49-.07-.7,0,.24.61.47.61.7,0Z"/>
      <path class="cls-1" d="M118.24.02c-.2.08-.5-.08-.7,0,.23.61.47.61.7,0Z"/>
      <path class="cls-1" d="M18.9,49.69c.93-.46,1.89-.96,2.8-1.4-4.99.15-3.29-5.29,1.14-5.95h0c.08-.1.15-.22.26-.35-1.04-.36-.57-1.31-.7-1.4-.62-.46-3.57.25-4.47.77-1.46.84-2.03,2.99-2.88,3.42-1.13.57-.99-1.42-1.66-2.34-.37-.05-.65-.18-.78-.45.24,1.65-.28,2.36-1.45,1.79-1,1.69-1.56,1.55-1.67,1.96.13.47.24,1.07.32,1.85.61.2.61.43,0,.7.32.07.65.7.7.7,3.38-.14,6.16-5.18,8.4.7h0Z"/>
      <path class="cls-1" d="M9.81,47.59c-.08-.77-.19-1.38-.32-1.85-.06.25.04.69.32,1.85Z"/>
      <path class="cls-1" d="M9.81,47.59c.06.23-.06.5,0,.7.61-.27.62-.5,0-.7Z"/>
      <path class="cls-1" d="M11.19,43.74s-.02.03-.03.05c1.18.57,1.7-.14,1.45-1.79-1.01.46-1.36.92-2.1,1.4l.68.34h0Z"/>
      <path class="cls-1" d="M12.61,42c.13.27.41.4.78.45-.18-.26-.43-.43-.78-.45Z"/>
      <path class="cls-1" d="M22.84,42.36h0c-4.43.64-6.12,6.08-1.14,5.93-4.53-3.68,1.49-4.24,2.1-4.91.02-.02.03-.05.02-.1-.2-.2-.44-.62-.73-1.29-.11.13-.18.25-.26.36-.15,1.69-.96,1.37,0,0h0Z"/>
      <path class="cls-1" d="M23.1,42c.29.67.53,1.09.73,1.29-.03-.28-.59-.94-.73-1.29Z"/>
      <path class="cls-1" d="M7.32,27.66c2.67-2.61,5.13-3.43,7.39-2.46-.41-.7-.62-1.8-1.29-2.31-.06-.04-.11-.08-.16-.12-.71-.3-1.68,1.21-1.34-1.06-.48.29-2.04,1.02-2.8,1.4.17-.05.29-.04.37,0,2.31.02.24.59-.37,1.4-.21.27-.19.91-.7,1.4-.56.54-1.14.94-1.76,1.4-.69-.05-.18-1.25-.34-1.4-.18-.17-1.91.37-1.4-1.4-1.15.48-3.01,1.95-3.5,2.1,2.75.91.7,3,.7,3.5v.7c.63.07.59.31,0,.7h.7c-.23-2.15,2.51-4.47,4.5-3.84h0Z"/>
      <path class="cls-1" d="M2.11,30.8c0,.22-.03.48,0,.7.59-.39.63-.63,0-.7Z"/>
      <path class="cls-1" d="M13.25,22.77c.05.04.1.08.16.12-.04-.03-.06-.07-.09-.09-.02-.01-.05-.02-.07-.03Z"/>
      <path class="cls-1" d="M7.32,27.66c-1.99-.63-4.73,1.69-4.5,3.84,3.08-3.02,7.95-4.53,11.89-6.3-2.26-.97-4.72-.15-7.39,2.46h0Z"/>
      <path class="cls-1" d="M26.6,83.27c.08-.33.38-.65.7-.7-1.23-.33-1.8-1.61-2.1-2.8.02.46-.03.93,0,1.4.62.14.59.38,0,.7.37.44,1.19.94,1.4,1.4h0Z"/>
      <path class="cls-1" d="M25.2,81.17c.02.24-.04.5,0,.7.59-.32.62-.56,0-.7Z"/>
      <path class="cls-1" d="M25.2,79.77c.3,1.18.87,2.47,2.1,2.8-.21-1.48-1.4-1.98-2.1-2.8Z"/>
      <path class="cls-1" d="M52.48,79c.04-.22.05-.44,0-.63-.07.13,0,.39,0,.63Z"/>
      <path class="cls-1" d="M33.7,96.35c.16.29.35.59.59.91-.05-.44-.29-.72-.59-.91Z"/>
      <path class="cls-1" d="M37.09,111.26c-.09-.19.09-.51,0-.7-.21-.46-.47-.91-.7-1.4-.29-.64-.9-1.13-.74-2.08l-1.36.69c.2-1.38-.52-2.66-.66-3.91-.14-1.24.66-.85,1.7-.94.1-.04.21-.07.35-.05,1.58-.34,3.3-1.35,3.5-1.4,1.78-2.05,3.52-.32,2.11-3.5,2.41,1.83,4.76,1.26,2.09-1.4,2.72.28,4.47.52,6.99-.71-2.52-3.38-1.04-2.15,1.4-.69-.09-.76.41-.57.7-.7.17-.08.46.06.7,0l-.69-2.1h2.79c.39-1.29-.62-1.23-.7-1.4-1.14-2.65-2.03-2.06-2.69-2.95-.14-.19.3-3.98-.1-4.75l4.89,2.1c.42-1.67,2.55-3.97,0-3.5-.29-1.18.91-.43,1.28-.78.27-.25-.62-1.2-.58-1.31-.1-.31-.39-.65-.7-.7.31,1.87-.44,1.46-2.09,1.39v-.68l1.39-.71c-1.16-.06-2.34.05-3.5,0-.03.19.77,2.09,0,2.79-1.27,1.16-2.01-2.24-2.79-2.45l2.79-1.04c.14-.25,1.18-.53,1.39-1.06h-1.39l1.39-2.1c-.3-.21-1.99.3-2.08.36-1.79,1.09-2.67,4-4.9,0-3.47,2.52-.86,7.03-1.4,7.7-.1.12-.97-.66-1.24-.51-.17.1-.13,1.15-.6,1.24-.3.05-3.06-.02-3.75-.03-4.59,1.58-.2,2.27-1.4,4.19,1.35.46,1.69-1.05,2.46-1.39,2.06-.91.2,3.5.33,4.19l-1.04-2.09-1.75,2.79,3.16.7.68-2.08,1.05,5.59c-1.17,1.28-3.25-4.87-3.5-.7l-.7-2.09-.7,2.8c-1.34-1.01-1.82-1.32-3.49-.7,0-.7,0-1.4,0-2.1h-.7c-.25,1.89,1.12,2.81,0,4.2-.22.27-.87.26-1.17,1.02-.26.66.64,2.32.46,3.17l-2.09-.7c-.9,1.11,4.01,10.03,4.89,11.89h1.4c-.23-.47-.48-.93-.7-1.4h0ZM50.38,88.17c.76.76-.63,2.15-1.39,1.39-.76-.76.63-2.15,1.39-1.39ZM45.13,83.99c.39.45,1.41.91.71,1.37-.34-.41-1.4-.89-.71-1.37Z"/>
      <path class="cls-1" d="M75.98,112.65c-1.7-6.61-9.46-16.68-11.6-23.79-2.34-.52-5.66.71-6.65-2.1-.58.05-.45,1.6-.35,2.1.01.08,1.07.24.69,1.4l-2.1-.69.71,1.39h-2.1c2.97.23,2.5,1.39-1.4,3.5.41-.09,1.92-.67,2.1,0,1.69-1.54,2.89-1.65,4.9-2.1-1.24-2.6,2.36-3.71,4.2-.7l-1.4,1.4v.7c1.89-.44,2.62.81,3.5,2.1.28.41.46.95.7,1.4,2.9,5.36,5.32,11.51,7.64,17.03-.21.7-11.38,6.51-12.8,6.96-1.02.32-1.06-.2-1.13-.2-.36-.02-1.35-.05-1.4,0-.05.06.83,1.25.71,1.39l-14.24,6.25c-1.91-.56-4.44-9.26-5.35-11.14l-1.4-.7h-.7c1.46,2.96,3.98,10.12,5.56,12.09.65.82,1.5,1.06,2.49,1.15l28.84-14.12c.81-1.04.92-2.05.59-3.32h0Z"/>
      <path class="cls-1" d="M55.28,92.36h-2.79s.69,2.1.69,2.1c3.9-2.11,4.37-3.28,1.4-3.5.07.17,1.08.11.7,1.39h0Z"/>
      <path class="cls-1" d="M37.32,93.6c.52-.08.88-5.13.62-6.23-1.74-3.12-1.72-3.38,1.96-3.4-1.86-.03-3.59-1.55-4.89.35.49.1,2.09,2.29,2.16,2.74.17,1.18-.21,2.65-.07,3.9l-2.09-.7c.43,1.02,0,2.05,0,2.8.64.29,1.65.63,2.32.53h0Z"/>
      <path class="cls-1" d="M38.48,95.86l.7-2.8.7,2.09c.26-4.17,2.33,1.97,3.5.7l-1.05-5.59-.68,2.08-3.16-.7,1.75-2.79,1.04,2.09c-.13-.69,1.73-5.1-.33-4.19-.77.34-1.11,1.85-2.46,1.39,1.2-1.92-3.19-2.61,1.4-4.19-3.68.02-3.7.28-1.96,3.4.27,1.1-.1,6.15-.62,6.23-.67.1-1.68-.23-2.32-.53,0,.7,0,1.4,0,2.1,1.67-.63,2.15-.31,3.49.7h0Z"/>
      <path class="cls-1" d="M56.68,85.37c-.35,1.39-1.24,3.39-.06,3.56.24-.04.48-.06.76-.07-1.35-.34-.71-2.91.61-3.01.37-.03,5.86,2.68,6.38,3.01-1.62-2.42-2.32-5.01-3.17-6.92-.74-1.66-1.55-3.9-2.42-5.33-.35-.58-1.66-1.96-1.4,0,2.92,2.18.16,2.69,0,3.16,3.11-.81,2.35,5.83-.7,5.6h0Z"/>
      <path class="cls-1" d="M57.96,81.09c-.37.35-1.56-.4-1.28.78,2.54-.47.42,1.83,0,3.5,3.05.24,3.81-6.41.7-5.6-.04.11.85,1.06.58,1.31Z"/>
      <path class="cls-1" d="M57.38,88.87c-.28,0-.53.03-.76.07.2.03.44.02.76-.07Z"/>
      <path class="cls-1" d="M57.38,88.87c-.1-.5-.23-2.06.35-2.11.99,2.82,4.3,1.59,6.65,2.11-.52-.33-6.02-3.03-6.38-3.01-1.32.09-1.96,2.67-.61,3.01Z"/>
      <path class="cls-1" d="M132.93,23.81h.7c-.18-.54-.41-.91-.69-1.15,0,.4-.1.85,0,1.15Z"/>
      <path class="cls-1" d="M127.42,20.63c-.03.21.99,2.66,1.29,2.9.85.67,1.55-.29,2.13-.42.66-.15,1.24-.35,1.84-.6-.25-.12-.51-.17-.82-.1-.22-1.21-.05-2.3.43-2.77.01-.33.22-.78.65-1.42-1.56.42-2.29-.21-3.5-.7-.2-.08-.51.09-.7,0,.11.6.71,1.93.64,2.02-.21.28-1.87.39-1.96,1.1h0Z"/>
      <path class="cls-1" d="M132.29,19.63c-.48.47-.66,1.56-.43,2.77.31-.07.57-.01.82.1.08-.04.17-.06.25-.1.01.08.01.16.01.25.28.24.51.61.69,1.15-.31-1.01-.75-2.87-.29-3.48-.71-.04-1.08-.24-1.06-.7Z"/>
      <path class="cls-1" d="M132.29,19.63c.45-.44,1.15-.36,2.05.68-.5-.67-.9-1.43-1.4-2.1-.43.63-.63,1.09-.65,1.42h0Z"/>
      <path class="cls-1" d="M132.29,19.63c-.02.46.35.67,1.06.7.18-.24.48-.29.99-.02-.89-1.03-1.6-1.12-2.04-.68h0Z"/>
      <path class="cls-1" d="M29.97,83.36c.8-.09,1.67-.04,2.43.04l1.2-2.23c-.54.22-1.84.38-2.8.7-.07.68-.41,1.17-.83,1.49h0Z"/>
      <path class="cls-1" d="M27.57,83c.08.15.11.28.09.37.29.1.49.27.6.48.11-.06.22-.12.34-.17-.39-.08-.75-.3-1.03-.68Z"/>
      <path class="cls-1" d="M29.96,83.36c-.4.3-.89.42-1.36.32-.12.05-.23.11-.34.17.28.57-.06,1.44-.97,2.22,5.53-4.15,6.17,1.98,7.69.7,1.34-1.13-1.38-1.58-1.41-1.74-.61-2.59,2.95-.81.02-3.85l-1.2,2.23c-.76-.08-1.63-.12-2.43-.04Z"/>
      <path class="cls-1" d="M28.61,83.68c.4-.17.87-.27,1.36-.32.43-.31.76-.81.83-1.49-1.52.51-2.06.48-3.5.7.13.16.21.3.27.43.29.38.65.61,1.03.68Z"/>
      <path class="cls-1" d="M29.97,83.36c-.49.05-.96.15-1.36.32.47.09.96-.03,1.36-.32Z"/>
      <path class="cls-1" d="M27.66,83.37c.02-.09-.01-.21-.09-.37-.1-.13-.2-.26-.27-.43-.32.05-.61.37-.7.7.45-.05.79,0,1.07.1Z"/>
      <path class="cls-1" d="M27.3,82.57c.08.17.18.3.27.43-.06-.12-.15-.26-.27-.43Z"/>
      <path class="cls-1" d="M28.27,83.85c-.11-.22-.31-.38-.6-.48-.05.24-.43.22-1.07-.1.36.78.39,1.94.7,2.8-.16-1.12.26-1.81.97-2.22h0Z"/>
      <path class="cls-1" d="M28.27,83.85c-.71.41-1.13,1.1-.97,2.22.91-.77,1.25-1.65.97-2.22Z"/>
      <path class="cls-1" d="M27.66,83.37c-.28-.1-.61-.14-1.07-.1.64.32,1.02.33,1.07.1Z"/>
      <path class="cls-1" d="M36.39,73.48c-.27.19.66.99.7,1.39.03.37.09,1.2,0,1.4.26.21.51.43.7.7.6-.08,1-.03,1.24.09.18-.22.42-.33.73-.36.03-.13.07-.27.13-.43-.93-1.36-.91-3.04-3.5-2.79h0Z"/>
      <path class="cls-1" d="M39.76,76.71c-.31.03-.55.14-.73.36,1.02.53-.8,2.49-2.64,2.71,2.38.51,3.64-2.05,4.9-2.8-1.18.75-1.81.86-1.53-.27h0Z"/>
      <path class="cls-1" d="M40.31,76.74c-.14-.11-.28-.25-.42-.46-.06.17-.1.3-.13.43.16-.01.34,0,.55.03Z"/>
      <path class="cls-1" d="M39.76,76.71c-.29,1.13.34,1.02,1.53.27-.45.03-.73-.04-.98-.24-.21-.03-.39-.04-.55-.03h0Z"/>
      <path class="cls-1" d="M39.03,77.07c-.24-.12-.64-.17-1.24-.09.98,1.39.08,1.89-1.4,2.8l1.96-.89c.2-.89.38-1.47.67-1.82h0Z"/>
      <path class="cls-1" d="M39.03,77.07c-.29.34-.47.93-.67,1.82l-1.96.89c1.83-.21,3.65-2.18,2.64-2.71h0Z"/>
      <path class="cls-1" d="M51.78,75.58v-2.1c-1.52.67-3.45,1.05-4.9,2.1,1.62.15,3.25.15,4.9,0Z"/>
      <path class="cls-1" d="M51.78,75.58c-1.64.15-3.28.15-4.9,0,2.23,4,3.1,1.09,4.9,0Z"/>
      <path class="cls-1" d="M34.3,93.07c-6.29-1.58-2.05.14-2.03.41.06.78-.93,2.23-.78,2.38.13.12,1.42,0,2.21.49-.89-1.57-.7-2.67.59-3.29Z"/>
      <path class="cls-1" d="M34.3,93.07c-1.29.61-1.48,1.71-.59,3.29.31.19.54.47.59.91,1.12-1.38-.25-2.3,0-4.2Z"/>
      <path class="cls-1" d="M52.48,79.07s0-.05,0-.07c0,.02,0,.05-.01.07,0,0,0,0,.01,0Z"/>
      <path class="cls-1" d="M52.48,81.87c.78-.71-.02-2.6,0-2.79,0,0,0,0-.01,0-.19.8-.89,1.6-1.52,1.36-1.36-.51.85-1.22,1.52-1.36,0-.03,0-.05.01-.07.01-.24-.07-.5,0-.63l-2.79,1.04c.78.21,1.52,3.61,2.79,2.45h0Z"/>
      <path class="cls-1" d="M50.95,80.44c.62.24,1.33-.56,1.52-1.36-.67.14-2.87.85-1.52,1.36Z"/>
      <path class="cls-1" d="M51.78,74.88c1.97-.33,1.99-2.62,4.2-2.1-.95-2.76-2.92.14-4.2.71,1.39-.11.96.63,0,1.4Z"/>
      <path class="cls-1" d="M51.78,73.48v1.4c.96-.76,1.39-1.5,0-1.4Z"/>
      <path class="cls-1" d="M39.19,116.85v-1.4c-.1-.22-.57-.43-.7-.7-.09-.19.09-.51,0-.7-.22-.46-.47-.94-.7-1.4,0,1.45-.57,1-1.4,0,.68,1.44,1.4,2.79,2.1,4.2.2-.61.43-.6.7,0Z"/>
      <path class="cls-1" d="M37.79,112.65h-1.4c.83,1,1.41,1.44,1.4,0Z"/>
      <path class="cls-1" d="M38.49,116.85h.7c-.27-.6-.5-.61-.7,0Z"/>
      <path class="cls-1" d="M132.93,23.81c.22.75.42,1.37.7,2.1.37.96,1,1.84,1.4,2.8.11-.33.24-.45.37-.41-.98-1.25-1.86-2.99-1.77-4.49-.2.61-.43.6-.7,0h0Z"/>
      <path class="cls-1" d="M135.73,28.71c-.62-1.48-1.7-3.6-2.1-4.9-.09,1.5.79,3.24,1.77,4.49.1.03.21.15.33.41h0Z"/>
      <path class="cls-1" d="M135.03,28.71h.7c-.11-.13-.22-.27-.33-.41-.13-.04-.26.08-.37.41Z"/>
      <path class="cls-1" d="M135.4,28.3c.11.14.22.28.33.41-.12-.25-.23-.38-.33-.41Z"/>
      <path class="cls-1" d="M133.63,23.81h-.7c.27.6.5.61.7,0Z"/>
      <path class="cls-1" d="M58.78,128.04c-.3-.54-.2-2.12-1.4-2.1.04.46-.06.95,0,1.4.03.23-.02.47,0,.7-.02-1.43.81-1.21,1.4,0Z"/>
      <path class="cls-1" d="M57.38,128.04h1.4c-.59-1.21-1.42-1.43-1.4,0Z"/>
      <path class="cls-1" d="M57.38,125.95l-1.39,1.76,1.39-.36c-.56.02-.56-.44,0-1.4Z"/>
      <path class="cls-1" d="M57.38,125.95c-.56.96-.56,1.42,0,1.4-.06-.45.04-.94,0-1.4Z"/>
      <path class="cls-1" d="M111.72,3.18s.1.08.14.13c.03-.16.03-.3.08-.48-.06.21-.14.3-.22.35Z"/>
      <path class="cls-1" d="M109.15,8.42c.86-1.76,1.97-.69,2.1-.7.23-.02.47.04.7,0-.62-1.95,7.47-4.87,6.29-2.46-1.44,1.52-3.61,2.01-5.59,2.46.96,5.02-.72,1.68-1.4,1.4-.19,0-.35-.02-.49-.06-.51,0-1.23.04-1.6.06-1.02.04-2.48,1.05-2.8,2.1,3.67,2.33.73,1.61-.7,2.1v.7c.24.21.55.42.7.7.23.43.5.96.7,1.4-1.1-2.37,2.19-3.22,4.2-2.8-.38-2.85.38-1.71,1.4-2.1,1.8-.69,5.19-2.6,6.66-2.8.53-.07.85-.02,1.02.1-.35-.88-1-1.86-2.02-2.96.94-1.19-.15-1.84-1.37-1.93-2.07,1.12-3.51,1.58-4.33,1.4-.17,1.49-2.27,2.7-4.16,1.99.61.2.6.43,0,.7.05.02.29.68.7.7h0ZM115.09,8.42v-.7c.46.23.46.47,0,.7Z"/>
      <path class="cls-1" d="M125.5,18.23c-1.18-3.27-2.81-6.08-4.86-8.43,0-.31-.07-.63-.18-.97-.03.5-.8,1.28-1.52,1.69.97-.07,1.76-.17,2.44.7.4.51,3.94,7.78,4.55,9.09-.18-1.46-.07-1.59,1.4-1.39l-1.4,1.39c.54,1.15.57,3,1.4,4.2.84-.35,1.21-.72,2.1,0,.23-.1,1.84-.64,2.1-.7l-.7-.7c-3.52,3.26-5.52-3.34-2.1-5.6-.76.81-2.08.77-3.23.72Z"/>
      <path class="cls-1" d="M108.45,7.02v.7c.6-.27.61-.5,0-.7Z"/>
      <path class="cls-1" d="M112.61,5.03c.82.17,2.26-.29,4.33-1.4,1.22.09,2.3.74,1.37,1.93,1.01,1.1,1.66,2.08,2.02,2.96.1.08.15.19.14.31.11.34.18.67.18.97,2.05,2.35,3.67,5.16,4.86,8.43,1.16.06,2.48.09,3.23-.72-1.12-.51-1.7-1.68-2.79-2.1l-.03,2.47c-1.57-2.61-5.98-15.03-8.71-15.06-1.2-.01-2.32,1.39-3.55,1.4-1.28,0-1.57-1.35-1.71-1.4-.04.18-.05.32-.08.48.6.56.81,1.17.75,1.73h0Z"/>
      <path class="cls-1" d="M112.61,5.03c-.31-.06-.51-.23-.65-.48-.11.42-1.09.32-1.22.51-.25.37,1.6,1.54-2.3,1.95,1.9.71,3.99-.49,4.16-1.99Z"/>
      <path class="cls-1" d="M111.86,3.3s-.09-.09-.14-.13c-.14.08-.29-.02-.48-.35-.02.19.35.64.57,1.09,0-.18.02-.39.05-.61Z"/>
      <path class="cls-1" d="M112.61,5.03c.06-.56-.15-1.17-.75-1.73-.04.22-.06.43-.05.61.11.22.19.44.17.61,0,.01-.01.02-.01.03.13.25.34.41.65.48Z"/>
      <path class="cls-1" d="M111.95,2.82c-.17-.07-.45.04-.7,0,.18.11.34.23.48.35.08-.05.16-.15.22-.35h0Z"/>
      <path class="cls-1" d="M111.72,3.18c-.14-.12-.3-.24-.48-.35.18.33.34.43.48.35Z"/>
      <path class="cls-1" d="M130.83,23.11c-.58.13-1.28,1.09-2.13.42-.3-.24-1.32-2.69-1.29-2.9.09-.7,1.75-.82,1.96-1.1.07-.09-.53-1.42-.64-2.02-3.42,2.26-1.42,8.85,2.1,5.6h0Z"/>
      <path class="cls-1" d="M99.01,15.28c-.31.29-7.32,3.46-7.74,3.49-.94.07-1.64-.65-2.11-1.43.48.97.58,1.58,2.51,2.27,2.64-1.46,6.96-4.47,9.8-2.8.17-.64.4-.63.7,0,0-1.97.87-2.8,2.8-3.5-.86-.79-1.86-1.4-2.8-2.1-1.63.34-2.68,1.7-3.14,4.07h0Z"/>
      <path class="cls-1" d="M91.27,18.77c.42-.03,7.44-3.19,7.74-3.49.47-2.37,1.51-3.73,3.14-4.07-.66-.49-.5-2.19-2.37-.62-1.54,1.29-.86,2.83-1.81,3.79-.58.59-4.92,2.2-6.14,2.76-.51.23-1.6,2.26-2.97-.33.12.19.21.36.29.53.47.78,1.17,1.5,2.11,1.43h0Z"/>
      <path class="cls-1" d="M103.61,11.24c-.4-.06-.89-.07-1.46-.02.69.21,1.13.17,1.46.02Z"/>
      <path class="cls-1" d="M101.45,16.81c.2-.03.49-.03.7,0-.3-.63-.53-.64-.7,0Z"/>
      <path class="cls-1" d="M105.65,13.32l.7-2.1c-.23-.15-.8.09-1.17-.07,0,.43-.09.72-.3.87.16.33.2.76.07,1.29.2-.07.49.07.7,0h0Z"/>
      <path class="cls-1" d="M104.89,12.02c.21-.15.31-.45.3-.87-.27-.11-.43-.44-.23-1.33-.53.41-.72,1.14-1.34,1.42.65.1,1.07.37,1.27.78h0Z"/>
      <path class="cls-1" d="M106.35,11.22l-.7,2.1c1.43-.49,4.37.23.7-2.1Z"/>
      <path class="cls-1" d="M104.89,12.02c-.44.32-1.34.06-2.73-.81.93.7,1.94,1.31,2.8,2.1.13-.53.1-.96-.06-1.29h0Z"/>
      <path class="cls-1" d="M104.89,12.02c-.2-.41-.62-.68-1.27-.78-.33.15-.77.19-1.46-.02,1.39.87,2.29,1.13,2.73.81Z"/>
      <path class="cls-1" d="M107,9.1c.32-.21.68-.37,1.01-.42.01-.15.09-.36.23-.62-.16.16-.33.06-.5-.34l-.24.24c-.13.17-.29.38-.46.46.07.23.03.46-.05.68h0Z"/>
      <path class="cls-1" d="M109.15,9.12v-.7c-.15.13-.29.23-.42.31.17.07.32.2.42.39h0Z"/>
      <path class="cls-1" d="M105.75,10.07c.1.07.19.14.27.23.03-.11.07-.22.13-.34-.13.05-.26.09-.4.1Z"/>
      <path class="cls-1" d="M106.14,9.97c.18-.33.49-.64.86-.88.08-.22.12-.45.05-.68-1.37.68-1.1.62-2.1,1.4.33.01.58.11.8.26.13-.01.27-.05.4-.1h0Z"/>
      <path class="cls-1" d="M108.25,8.06c.06-.1.12-.21.2-.34-.15-.05-.53-.03-.7,0,.17.4.33.5.5.34h0Z"/>
      <path class="cls-1" d="M109.15,9.12c-.1-.19-.25-.32-.42-.39-.48.31-.74.26-.71-.05-.34.06-.69.21-1.02.42-.14.38-.47.71-.86.88-.06.11-.1.22-.13.34.18.23.3.52.34.91.32-1.05,1.78-2.06,2.8-2.1h0Z"/>
      <path class="cls-1" d="M108.73,8.73c-.21-.09-.46-.1-.71-.05-.02.31.23.36.71.05Z"/>
      <path class="cls-1" d="M108.25,8.06c-.15.26-.22.47-.23.62.26-.05.51-.04.71.05.13-.08.27-.18.42-.31-.41-.02-.65-.68-.7-.7-.07.17-.13.27-.2.34h0Z"/>
      <path class="cls-1" d="M107,9.1c-.37.24-.68.55-.86.88.39-.16.71-.5.86-.88Z"/>
      <path class="cls-1" d="M108.45,7.72c-.08.12-.14.23-.2.34.07-.07.14-.17.2-.34Z"/>
      <path class="cls-1" d="M106.35,11.22c-.34-.25-.42-.58-.34-.91-.07-.09-.17-.17-.27-.23-.28.03-.56-.04-.8-.26.16.55.23.98.23,1.33.36.15.93-.08,1.17.07Z"/>
      <path class="cls-1" d="M105.75,10.07c-.21-.14-.46-.24-.8-.26.24.21.52.28.8.26Z"/>
      <path class="cls-1" d="M105.18,11.15c0-.36-.07-.79-.23-1.33-.19.89-.04,1.22.23,1.33Z"/>
      <path class="cls-1" d="M106.35,11.22c-.04-.38-.16-.68-.34-.91-.08.33,0,.65.34.91Z"/>
      <path class="cls-1" d="M107.51,7.96l.24-.24c-.06,0-.14.11-.24.24Z"/>
      <path class="cls-1" d="M107.51,7.96l-.46.46c.17-.08.33-.29.46-.46Z"/>
      <path class="cls-1" d="M109.85,4.92h-.7c.36.37.4.46.7,0Z"/>
      <path class="cls-1" d="M36.53,46.69l1.26-1.89c-.07-.2-.54-.43-.7-.7-.6-.24-.61-.47,0-.7-3.96-2.33-2.42,1.03-2.8,1.4-.54.53-2.42-.69-2.8-.7-.08.28-.2.37-.34.33.27.27.32.44.18.51l.14.21-1.38-.36c-.2.61-.43.61-.7,0,.47,1.72-1.53,2.22-2.8,1.4-.36,2.36-2.92,3.38-4.9,2.1,0,2.13-1.08,2.66-2.8,1.4l-.32,1.65c-2.39.52-3.43,1.23-4.58,3.25.85-.31,1.6.05,2.25,1.06l8.89-4.02,1.45.86c.42-.18.91-.47,1.4-.7,1.62-2.58,4.46-4.28,8.53-5.11h0ZM35.34,43.4c.46.23.46.47,0,.7v-.7Z"/>
      <path class="cls-1" d="M16.25,55.65c-.64-1.02-1.39-1.37-2.24-1.06.22.63.94,2.22,1.39,2.5,1.08.67,9.41-3.81,11.21-4.6l-1.45-.86-8.89,4.02h0Z"/>
      <path class="cls-1" d="M26.6,46.2c-1.61.73-3.28,1.32-4.9,2.1,1.97,1.29,4.54.27,4.9-2.1Z"/>
      <path class="cls-1" d="M37.09,44.1c-.1-.17.11-.55,0-.7-.61.23-.6.46,0,.7Z"/>
      <path class="cls-1" d="M30.1,44.8c-.23.05-.5-.06-.7,0,.27.61.5.61.7,0Z"/>
      <path class="cls-1" d="M31.16,44.43c.14.04.26-.05.34-.33-.23,0-.47,0-.7,0,.15.12.26.23.36.33Z"/>
      <path class="cls-1" d="M21.7,48.29c-.91.44-1.87.94-2.8,1.4,1.72,1.26,2.79.73,2.8-1.4Z"/>
      <path class="cls-1" d="M18.59,51.34l.32-1.65c-2.46,1.21-6.2,1.09-4.9,4.9,1.15-2.01,2.19-2.72,4.58-3.25h0Z"/>
      <path class="cls-1" d="M28,51.79c3.35-1.56,6.87-3.3,10.49-4.2.3-1.17-.38-1.9-.7-2.79l-1.26,1.89c-4.07.82-6.91,2.52-8.53,5.11h0Z"/>
      <path class="cls-1" d="M30.02,64.47l-.52-.31c.06.15.18.35.36.58.08-.08.16-.17.16-.27Z"/>
      <path class="cls-1" d="M34.99,65.78c-1.25-.62-1.31-1.75-.18-3.42,2.35-4.24,1.01-6.41-4.04-6.52-.96-.24-1.84-.66-2.44-1.22.01.82-.22,1.75-.63,2.56l-2.29,5.07c1.82.65,3.15,1.59,3.99,2.84.14-.15.28-.24.42-.31.01-.01.03-.02.04-.03-.18-.23-.3-.43-.36-.58l-.79-.47c2.5-.26,3.23-1.21,3.84-3.5,3.28,3.03-1.67,3.12-1.74,5.59,1.03-1.6,1.9-1.13,2.1.7.8.21,1.6-.64,2.1-.7h0ZM31.49,60.17c-.11.13-2.98,1.9-3.49.36-.15-.45,2.74-.92,3.15-1.74.59-.09.41,1.3.34,1.38h0Z"/>
      <path class="cls-1" d="M29.4,65.08s.23-.15.42-.31c-.13.06-.27.15-.42.31Z"/>
      <path class="cls-1" d="M30.8,65.78c.69.28,1.33.64,2.1.7-.2-1.83-1.07-2.3-2.1-.7Z"/>
      <path class="cls-1" d="M25.41,62.24l2.29-5.07c.41-.81.64-1.74.63-2.56-.46-.43-.75-.95-.75-1.54-.25.01-.58-.17-.98-.59,1.9,2.38-2.89,8.49-2.64,10.17.15.99,4.2,2.61,5.43,2.42-.83-1.25-2.16-2.19-3.98-2.84h0Z"/>
      <path class="cls-1" d="M27.79,53c.38.39.53.97.54,1.62.6.56,1.48.99,2.44,1.22,5.05.11,6.4,2.28,4.04,6.52-1.12,1.66-1.07,2.8.18,3.42l2.76-8.66c-.67-2.22-9.54-1.79-9.76-5.33.08.64,0,1.04-.21,1.21h0Z"/>
      <path class="cls-1" d="M27.79,53c-.06.05-.13.08-.21.09,0,.59.29,1.1.75,1.54,0-.65-.16-1.23-.54-1.62h0Z"/>
      <path class="cls-1" d="M28,51.79c-.48.22-.98.51-1.4.7.43.03.75.18,1.01.38.04-.34.14-.7.39-1.08h0Z"/>
      <path class="cls-1" d="M27.58,53.08c0-.07.02-.14.03-.21-.26-.2-.58-.35-1.01-.38.4.42.74.61.98.59Z"/>
      <path class="cls-1" d="M27.79,53c.2-.17.28-.57.21-1.21-.25.38-.35.74-.39,1.08.06.05.13.08.18.13Z"/>
      <path class="cls-1" d="M27.61,52.87c0,.07-.03.15-.03.21.08,0,.15-.03.21-.09-.05-.05-.13-.08-.18-.13Z"/>
      <path class="cls-1" d="M33.02,73.4c.71-.56,2.8-3.52,2.66.43l-.69.35c-.02.39-1.08.94-.36,1.38l2.46-.68c-3.36.34.14-3.45,1.68-2.37.09.06.2.21.32.39.06-1.2,1.09-1.32,3.41-.96l-1.2-.91,1.04-1.06-5.93,2.1c1.3-3.33,6.18-1.27,4.19-4.89l-4.89,2.09c.24-.74,1.46-1.73,2.1-2.09v-1.4c-.16.08-.46-.05-.7,0-.46,1.63-1.46,2.04-1.91.8.03.53-.19.89-.53,1.01-.41,1.06-3.65,2.48-5.33,2.92l.78.87,4.54-2.1c.23,1.9-2.72,1.86-3.84,2.1,1.51.93.7,1.74-2.43,2.42.62-.13.5.22-.37,1.07,1.4-1.07,3.79-.99,4.9-1.4.04-.03.08-.05.13-.08h0Z"/>
      <path class="cls-1" d="M28.37,73.8c3.13-.68,3.94-1.49,2.43-2.42-.41,1.51-2.48,1.26-3.21,2.08-.48.54.44,1.25.41,1.42.87-.85.99-1.21.37-1.07h0Z"/>
      <path class="cls-1" d="M34.65,67.59c-.5.17-1.24-.14-1.75-1.11l.66,1.34c-1.14.48-6.87,2.23-6.94,3.2-.13,1.63,2.95.41,3.48.35l-.78-.87c1.68-.45,4.92-1.87,5.33-2.92h0Z"/>
      <path class="cls-1" d="M35.18,66.58c.45,1.24,1.46.83,1.91-.8-1.85.41-1.94-.02-2.1,0,.13.3.17.56.19.8Z"/>
      <path class="cls-1" d="M42.5,71.93c-2.32-.35-3.34-.24-3.41.96.57.88,1.28,2.86.8,3.38.87-.74,2.1-.48.53-1.45-.23-.14-.61-1.98-.53-2.04.18-.13,1.23.81,3.5-.71h-.7l-.19-.15h0Z"/>
      <path class="cls-1" d="M39.09,72.9c-.11-.18-.22-.32-.32-.39-1.54-1.08-5.04,2.71-1.68,2.37-.03-.4-.97-1.2-.7-1.39,2.58-.25,2.57,1.43,3.5,2.79-.56-1.6-.84-2.67-.8-3.38h0Z"/>
      <path class="cls-1" d="M39.09,72.9c-.04.71.24,1.78.8,3.38.47-.52-.23-2.5-.8-3.38Z"/>
      <path class="cls-1" d="M34.65,67.59c.34-.12.56-.48.53-1.01-.08-.22-.15-.47-.19-.8-.49.06-1.3.91-2.1.7,1.52.2,1.94.61,1.75,1.11h0Z"/>
      <path class="cls-1" d="M34.65,67.59c.19-.5-.24-.91-1.75-1.11.51.97,1.25,1.28,1.75,1.11Z"/>
      <path class="cls-1" d="M34.99,65.78c.04.32.11.58.19.8-.01-.24-.06-.5-.19-.8Z"/>
      <path class="cls-1" d="M29.4,65.08c.07.28-.02.56.36.69.27.15.75-.11,1.04,0-.24-.23-.42-.43-.59-.62-.28.16-.58.2-.81-.09Z"/>
      <path class="cls-1" d="M32.54,60.19c-.61,2.3-1.34,3.24-3.84,3.5l.79.47c-.4-1.01,1.34-.5,1.5-.08.06.15-.15.52-.45.81.16.19.26.5.25.89.07-2.47,5.02-2.56,1.74-5.59h0Z"/>
      <path class="cls-1" d="M29.85,64.75s-.03.02-.04.03c.01,0,.03-.02.05-.02,0,0,0,0,0,0h0Z"/>
      <path class="cls-1" d="M30.55,64.89c.29-.29.5-.67.45-.81-.16-.41-1.9-.92-1.5.08l.53.31c0,.1-.08.19-.17.27,0,0,0,0,0,0,.28-.11.52-.06.69.14Z"/>
      <path class="cls-1" d="M30.55,64.89c-.11.11-.22.21-.34.28.17.19.36.39.59.61.01-.39-.09-.7-.25-.89h0Z"/>
      <path class="cls-1" d="M30.21,65.17c-.13-.15-.25-.29-.35-.41-.02,0-.03.01-.05.02-.18.16-.42.27-.42.31.22.28.53.25.81.09Z"/>
      <path class="cls-1" d="M29.86,64.76c.1.12.21.26.35.41.12-.07.24-.17.34-.28-.17-.19-.41-.25-.69-.14Z"/>
      <path class="cls-1" d="M24.5,77.33c-.05-.76-1.03.02-.7.35.16.16.72-.11.7-.35Z"/>
      <path class="cls-1" d="M30.1,79.77c-.05.12-.03.5,0,.7.31-.3.31-.53,0-.7Z"/>
      <path class="cls-1" d="M30.1,79.77c.39.22.39.45,0,.7l.69-.35-.69-.35Z"/>
      <path class="cls-1" d="M30.1,79.77c.31.17.31.4,0,.7.39-.25.39-.48,0-.7Z"/>
      <path class="cls-1" d="M34.39,42.64c.83-.17,1.56-.08,2.18.32-.91-.7-1.56-.8-2.18-.32Z"/>
      <path class="cls-1" d="M36.57,42.97c.18.12.36.26.52.43-1.8-2.55-3.62-.95-5.6.7,1.08-.8,2.04-1.27,2.9-1.45.61-.48,1.27-.37,2.18.32Z"/>
      <path class="cls-1" d="M34.29,44.8c.38-.38-1.16-3.73,2.8-1.4-.19-.17-.36-.3-.53-.43-.62-.4-1.35-.5-2.18-.32-.35.27-.69.72-1.07,1.38l-1.83.07c.38,0,2.26,1.23,2.8.7Z"/>
      <path class="cls-1" d="M37.09,43.4c-.16-.17-.34-.31-.52-.43.17.13.34.26.52.43Z"/>
      <path class="cls-1" d="M34.39,42.64c-.86.18-1.82.65-2.9,1.45l1.83-.07c.37-.66.72-1.11,1.07-1.38Z"/>
      <path class="cls-1" d="M29.4,44.8c-1.58.51-1.85.97-2.8,1.4,1.3-.05,2.11-.25,2.8-1.4Z"/>
      <path class="cls-1" d="M29.4,44.8c-.35,1.14-1.71,1.52-2.8,1.4,1.27.82,3.27.32,2.8-1.4Z"/>
      <path class="cls-1" d="M29.4,44.8c-.69,1.14-1.5,1.35-2.8,1.4,1.09.12,2.45-.26,2.8-1.4Z"/>
      <path class="cls-1" d="M31.34,44.94l-.34-.52c.05.24-.24.37-.91.38.68.18,1.08.22,1.24.14Z"/>
      <path class="cls-1" d="M31,44.42l-.21-.32c-.62.02-.65.69-.7.7.67,0,.96-.14.91-.38h0Z"/>
      <path class="cls-1" d="M31.34,44.94c-.16.08-.57.04-1.24-.14l1.38.36-.14-.21h0Z"/>
      <path class="cls-1" d="M130.7,16.95c-.6-.67-1.13-1.42-1.61-2.2-.07.18-.18.4-.36.66.39.65.58,1.36.7,2.1.3-.46.73-.64,1.27-.56h0Z"/>
      <path class="cls-1" d="M128.76,14.27s.02,0,.03,0c0-.01-.01-.03-.02-.04,0,.02,0,.03,0,.05h0Z"/>
      <path class="cls-1" d="M127.61,14.55l-.11.35c.13-.1.3-.19.53-.18,0,0,.02-.01.03-.02-.13-.03-.28-.07-.45-.15h0Z"/>
      <path class="cls-1" d="M127.5,14.89l.11-.35c.17.07.32.11.45.15.28-.22.52-.36.7-.42,0-.02,0-.03,0-.05-.58-1.02-1.06-2.06-1.43-3.01.01.04-.78-.06-.68.34.16.67,1.26,1.6,1.39,2.12.05.2-2.96.62-.71,1.73-.13-.13-.04-.36.17-.52h0Z"/>
      <path class="cls-1" d="M128.76,14.27c-.18.07-.41.2-.7.42.48.11.71-.03.7-.42Z"/>
      <path class="cls-1" d="M128.79,14.26s-.01,0-.03,0c.01.4-.22.54-.7.42,0,0-.02.01-.03.02.82.04.54.44.7.7.18-.26.29-.48.36-.66-.1-.16-.22-.32-.31-.49h0Z"/>
      <path class="cls-1" d="M128.79,14.26c.36-.12.48.06.31.49.48.78,1.01,1.53,1.61,2.2.6.09,1.34.5,2.23,1.26-1.76-2.38-3.43-4.95-5.6-7,.91,1.45,1.38,2.45,1.43,3.01,0,.01.01.03.02.04h0Z"/>
      <path class="cls-1" d="M127.34,11.22c.37.94.85,1.99,1.43,3.01-.05-.56-.52-1.56-1.43-3.01Z"/>
      <path class="cls-1" d="M128.79,14.26c.1.17.21.32.31.49.16-.42.04-.61-.31-.49Z"/>
      <path class="cls-1" d="M130.7,16.95c-.54-.08-.96.1-1.27.56,1.21.49,1.94,1.12,3.5.7-.78-.12-1.53-.49-2.06-1.06-.06-.06-.11-.14-.17-.2Z"/>
      <path class="cls-1" d="M130.87,17.16c.53.56,1.29.94,2.06,1.06-.89-.76-1.63-1.17-2.23-1.26.06.06.11.14.17.2h0Z"/>
      <path class="cls-1" d="M9.43,21.95c-1.55.78-3.4,1.7-5,2.46.19,0,.36.03.49.1.34-.14,1.07.14,1.4,0,.65-.28,2.02-1.01,2.8-1.4-.25-.43-.06-.84.32-1.15h0Z"/>
      <path class="cls-1" d="M1.64,25.63c-.26.1-.48.17-.64.22,0,.03.01.07,0,.1.17.13.32.35.42.66-.17-.32-.05-.66.22-.97Z"/>
      <path class="cls-1" d="M11.8,20.74c-.42.21-.95.49-1.56.8.61-.19,1.29-.18,1.67.17-.39-.34-.36-.7-.11-.97h0Z"/>
      <path class="cls-1" d="M.02,25.21c.61.18.93.41.98.64.16-.04.38-.12.64-.22.59-.67,1.91-1.24,2.78-1.22,1.6-.75,3.46-1.67,5-2.46.22-.18.51-.32.82-.41.61-.31,1.14-.59,1.56-.8.18-.2.47-.36.81-.43C10.45,19.75,2.8,24.83.01,25.2h0Z"/>
      <path class="cls-1" d="M4.42,24.41c-1.11.52-2.1.96-2.78,1.22-.28.32-.4.66-.22.97.48-.15,2.35-1.62,3.5-2.1-.13-.06-.3-.09-.49-.1h0Z"/>
      <path class="cls-1" d="M10.24,21.54c-.26.13-.53.27-.82.41-.38.31-.57.72-.32,1.15.75-.38,2.32-1.11,2.8-1.4-.38-.35-1.06-.36-1.67-.17h0Z"/>
      <path class="cls-1" d="M1.64,25.63c.69-.26,1.67-.7,2.78-1.22-.87-.02-2.19.55-2.78,1.22Z"/>
      <path class="cls-1" d="M9.43,21.95c.28-.14.55-.28.82-.41-.31.1-.6.23-.82.41Z"/>
      <path class="cls-1" d="M1.42,26.61c-.09-.31-.24-.52-.42-.66-.04.24-.36.47-.98.66.19.07,1.19.07,1.4,0Z"/>
      <path class="cls-1" d="M11.91,21.71c.36-.22.52-.36.6-.52.01-.25.04-.52.1-.87-.15.08-.43.23-.81.43-.25.27-.28.63.11.97h0Z"/>
      <path class="cls-1" d="M12.61,20.31c-.05.35-.09.63-.1.87.09-.2.06-.43.1-.87Z"/>
      <path class="cls-1" d="M11.8,20.74c.38-.2.66-.35.81-.43-.34.07-.63.23-.81.43Z"/>
      <path class="cls-1" d="M.56,25.8c-.21-.14-.38-.35-.54-.6.03.46-.05.94,0,1.4.02-.51.26-.77.54-.8Z"/>
      <path class="cls-1" d="M1,25.85s-.07.02-.1.03c.04.02.07.05.1.07,0-.03,0-.07,0-.1h0Z"/>
      <path class="cls-1" d="M.02,25.21c.15.25.33.45.54.6.11-.01.23.01.34.08.03,0,.07-.02.1-.03-.05-.23-.36-.46-.98-.64H.02Z"/>
      <path class="cls-1" d="M1,25.95s-.07-.05-.1-.07c-.11.02-.19.03-.23,0-.04-.02-.07-.06-.11-.09-.28.03-.52.29-.54.8.63-.19.95-.42.98-.66Z"/>
      <path class="cls-1" d="M.56,25.8s.07.07.11.09c.04.02.12.01.23,0-.11-.06-.23-.09-.34-.08Z"/>
      <path class="cls-1" d="M8.44,24.8c.16-.16.39-.27.67-.29-.37,0-.57.12-.67.29Z"/>
      <path class="cls-1" d="M8.41,25.91c.51-.49.49-1.13.7-1.4-.28.02-.51.13-.67.29-.16.26-.1.67-.03,1.11Z"/>
      <path class="cls-1" d="M7.76,25.55c.24-.02.47.07.65.36-.31-.39-.25-.83.03-1.11.1-.17.31-.29.67-.29l-.35-.69c-.65.47-1.35,1.24-1.01,1.73h0Z"/>
      <path class="cls-1" d="M7.76,25.55c.11.15.31.28.65.36-.18-.29-.41-.38-.65-.36Z"/>
      <path class="cls-1" d="M8.44,24.8c-.28.28-.33.71-.03,1.11-.07-.44-.13-.85.03-1.11Z"/>
      <path class="cls-1" d="M52.6,61.63s0,.02.01.03v-.03h-.01Z"/>
      <path class="cls-1" d="M49.11,62.21c.35-.12.75-.21,1.22-.26.23-.47.44-.8.64-1.02-.04-.1-.07-.21-.08-.32-.67.5-1.27,1.03-1.79,1.6h0Z"/>
      <path class="cls-1" d="M51.84,59.95c-.34.21-.64.44-.94.67.01.11.04.22.08.32.64-.71,1.15-.22,1.62.71v.03c.21.39.4.84.59,1.32-.51-1.33-.85-2.89-1.4-4.2l.05,1.16h0Z"/>
      <path class="cls-1" d="M47.59,64.38c-.12-1.07.39-1.79,1.53-2.17.52-.57,1.12-1.1,1.79-1.6-.05-.56.24-1.25.89-1.82-3.26,2.82-5.37,1.24-4.2,5.6Z"/>
      <path class="cls-1" d="M50.9,60.61c.3-.23.6-.46.94-.67l-.05-1.16c-.65.57-.94,1.26-.89,1.82Z"/>
      <path class="cls-1" d="M49.11,62.21c-.61.68-1.13,1.39-1.53,2.17,1.07-.71,2.75-.75,3.74-1.38.55-.35.33-1.12.6-1.37-.51-.08-.82-.35-.96-.7-.2.22-.41.55-.64,1.02-.47.05-.87.14-1.22.26h0Z"/>
      <path class="cls-1" d="M52.6,61.63s-.07,0-.12,0c0,.55.4.94.71,1.35l-.58-1.32s0-.02-.01-.03Z"/>
      <path class="cls-1" d="M51.93,61.63c.1-.09.26-.12.54-.04,0,.01,0,.03,0,.04.04,0,.07,0,.12,0-.47-.92-.98-1.41-1.62-.71.14.36.44.63.96.7Z"/>
      <path class="cls-1" d="M53.18,62.98c-.19-.48-.38-.94-.58-1.32l.58,1.32Z"/>
      <path class="cls-1" d="M47.59,64.38c.39-.78.91-1.5,1.53-2.17-1.13.38-1.64,1.11-1.53,2.17Z"/>
      <path class="cls-1" d="M73.47,39.2h-.7l-.22.22c-.16.18-.31.38-.48.48-3.24,1.84-6.86,2.5-9.79,4.9.69-.05,1.42.08,2.1,0,1.28-.16,1.28-.38,2.1-.7l.11-.9c2.52-.91,4.72-2.44,6.88-4h0Z"/>
      <path class="cls-1" d="M66.59,43.2l-.11.9c3.72-1.44,4.65-2.58,7-4.9-2.16,1.56-4.36,3.09-6.88,4Z"/>
      <path class="cls-1" d="M74.38,52.6c-.5.37-1.01.67-1.5.93.18.06.38.19.59.35.66-.33,1.33-.7,2.1-.71.32-.45-.99-1.18-1.4-1.39.17.41.29.75.21.81h0Z"/>
      <path class="cls-1" d="M72.57,53.51c-4.46,1.34-2.42,1.49.31.03-.11-.04-.22-.06-.31-.03Z"/>
      <path class="cls-1" d="M67.24,57.1c1.94-.89,4.21-2.21,6.24-3.21-.21-.16-.41-.29-.59-.35-2.73,1.45-4.76,1.31-.31-.03.09-.03.2,0,.31.03.49-.26,1-.57,1.5-.93.08-.06-.03-.4-.21-.81l-8.39,4.56c-.25,1.41.39,1.24,1.45.75h0Z"/>
      <path class="cls-1" d="M72.77,51.09c2.94-1.43,2.11-1.26,3.5-2.8-4.16,1.98-5.33,2.91-3.5,2.8Z"/>
      <path class="cls-1" d="M67.88,53.19c1.52-.95,3.31-1.33,4.89-2.1-1.83.11-.66-.82,3.5-2.8-1.16.37-8.1,2.49-8.38,2.83-.18.22.06,1.49-.01,2.07h0Z"/>
      <path class="cls-1" d="M64.38,49.69c-2.2,1.56-4.2,1.84-5.82,2.79-.95.55-.37,1.25-.47,2.11l6.99-3.49c-1.87.41-2.1-.11-.7-1.4Z"/>
      <path class="cls-1" d="M65.08,51.09c-.26-.21-.43-1.04-.7-1.4-1.4,1.29-1.17,1.81.7,1.4Z"/>
      <path class="cls-1" d="M76.69,58.2l-1.12,1.29,9.79-5.25c.13-2.59-2.3.84-2.44.88-.57.18-2.87.06-3.85.17,1.23.82.44,1.79-2.38,2.91h0Z"/>
      <path class="cls-1" d="M76.25,57.74c-.68.63-.5,1.48-.68,1.74l1.12-1.29c2.81-1.11,3.6-2.08,2.37-2.91-.96,2.7-1.31,1.06-2.82,2.45Z"/>
      <path class="cls-1" d="M66.48,64.38c1.56-.59,4.68-2.03,6.3-2.8-1.85-1.07-5.11,1.03-6.3,2.8Z"/>
      <path class="cls-1" d="M70.54,60.4c-1,.48-5.72,2.3-4.06,3.98,1.19-1.77,4.45-3.86,6.3-2.8.24-2.75-.01-2.25-2.23-1.18Z"/>
      <path class="cls-1" d="M91.2,50.41c-.98.57-2.09.3-3.04,1.38.43.02,1.06.77,2.27.57.56-.09,3.78-1.18,3.32-2.31-1.2-2.94-2.39.26-2.55.36h0Z"/>
      <path class="cls-1" d="M65.08,53.19h-.7l-.24.24c-.15.18-.3.38-.46.46-.18.09-.5-.09-.7,0-.21.24-.42.54-.7.7-1.1.63-2.26.75-3.5.71l.7,2.1c.6-.41,1.49-.42,2.09-.7.57-1.26,1.73-2.42,3.5-3.5h0Z"/>
      <path class="cls-1" d="M65.08,53.19c-1.77,1.08-2.93,2.24-3.5,3.5,2.39-1.13,2.4-2.06,3.5-3.5Z"/>
      <path class="cls-1" d="M61.58,57.39c-2.46,2.56-.28,2.15,0,2.8.03-.86.03-1.79,0-2.8Z"/>
      <path class="cls-1" d="M61.58,57.39c.03,1.01.03,1.94,0,2.8l4.2-2.11-4.2-.69Z"/>
      <path class="cls-1" d="M90.26,30.8c-1.28.56-2.1,1.31-3.15,1.82-.32.15-.94-.45-1.05-.42.61,1.76,5.43.01,4.2-1.4Z"/>
      <path class="cls-1" d="M90.77,32.36c1.72-.98.38-.81-.52-1.55,1.23,1.41-3.59,3.16-4.2,1.4-.03,3.34,3.25.98,4.71.15Z"/>
      <path class="cls-1" d="M55.29,46.89c-1.61,2.91,3.22,2.19,4.07,1.23.4-.46.01-1.45.12-1.93-1.06.21-1.8.66-2.75.97-.62.2-1.41-.33-1.44-.27h0Z"/>
      <path class="cls-1" d="M95.16,46.2c-3.42,1.12-2.64.42-6.29,2.8,2.76-.86,3.76-.81,6.29-2.8Z"/>
      <path class="cls-1" d="M56.69,51.79c2.47-.53,3.51-.71,4.19-2.8-2.13.43-5.02.13-4.19,2.8Z"/>
      <path class="cls-1" d="M89.56,35c.22-.13,3.47.7,4.9-.71.11-.13-.48-1.07-.7-1.39-.57,1.21-1.97,1.91-4.2,2.1h0Z"/>
      <path class="cls-1" d="M93.76,32.9c-1.8-.13-3.06,1.59-4.2,2.1,2.23-.19,3.62-.89,4.2-2.1Z"/>
      <path class="cls-1" d="M86.76,37.8c1.76-1.09,2.61-2.69,2.8-2.8-1.41,1.34-2.27,1.69-3.93,1.85.61-.03,1.62.05,1.14.95h0Z"/>
      <path class="cls-1" d="M85.62,36.85c-.26.01-.46.04-.42.04.15-.01.28-.03.42-.04Z"/>
      <path class="cls-1" d="M86.76,37.8c.49-.9-.53-.98-1.14-.95-.14.01-.27.03-.42.04-.03,0,.16-.03.42-.04,1.67-.16,2.53-.51,3.94-1.85-1.41.63-3.35,1.23-4.9,1.41.15,1.04,1.2,1.32,2.1,1.39h0Z"/>
      <path class="cls-1" d="M62.28,44.8c-2.29.16-2.27-.87-2.8,1.4,1.03-.2,3.21.8,4.9-1.4-.84.51-1.6.95-2.1,0Z"/>
      <path class="cls-1" d="M62.28,44.8c.5.95,1.26.51,2.1,0-.67.08-1.41-.05-2.1,0Z"/>
      <path class="cls-1" d="M83.96,51.79c1.85-1.03,2.96-1.54,4.9-2.8-1.08.34-2.56.13-3.74.82-1.26.73-1.06,1.91-1.15,1.98Z"/>
      <path class="cls-1" d="M65.08,47.59c-.43.08-.96-.06-1.4,0-1.65.24-1.82-1.6-2.8,1.4.85-.17,3.08-.55,4.2-.7-.61-.2-.6-.43,0-.7Z"/>
      <path class="cls-1" d="M65.08,48.29v-.7c-.6.27-.61.5,0,.7Z"/>
      <path class="cls-1" d="M81.86,39.9c.63-.45,1.4-.47,2.1-.7-.73-1.12-2.21-.76-2.1.7Z"/>
      <path class="cls-1" d="M84.32,37.1l-3.85,1.4c-.12.82,1.29,1.13,1.4,1.39-.11-1.45,1.37-1.81,2.1-.7.41-.56,1.28-1.74.35-2.1Z"/>
      <path class="cls-1" d="M61.58,60.89c.21.45.43.99.7,1.4.38-.31.82-.6,1.28-.89-.77.16-1.53.06-1.99-.51h0Z"/>
      <path class="cls-1" d="M65.77,60.19c-.82.39-1.55.79-2.21,1.2.84-.17,1.69-.65,2.21-1.2Z"/>
      <path class="cls-1" d="M65.77,60.19c-.52.56-1.38,1.03-2.21,1.2-.47.29-.9.59-1.29.89,2.65-.48,2.49-.16,3.5-2.1Z"/>
      <path class="cls-1" d="M63.56,61.39c.66-.41,1.39-.82,2.21-1.2-1.26.33-2.88.44-4.2.7.46.57,1.21.67,1.99.51Z"/>
      <path class="cls-1" d="M83.95,57.95h.03s-.01-.04-.01-.07c0,.02,0,.05-.01.07Z"/>
      <path class="cls-1" d="M83.95,57.95s0-.05.01-.07c-.01-.13-.01-.31,0-.5-.46.22-.74.47-1.4.7.54-.11.99-.14,1.39-.13Z"/>
      <path class="cls-1" d="M84.07,58.12c.31.12.57.21.78.26l.5-.17c-.21-.13-.68-.25-1.36-.25.02.09.04.15.09.17h0Z"/>
      <path class="cls-1" d="M83.97,57.89s0,.05.01.07c.68,0,1.15.13,1.36.25l.36-.12-1.74-.7c.06.19.05.36,0,.5h0Z"/>
      <path class="cls-1" d="M84.84,58.38c-.21-.05-.46-.13-.78-.26-.04-.02-.07-.08-.09-.17h-.03c-.19.46-.86.57-1.39.13l-1.04,1.41,3.32-1.12h0Z"/>
      <path class="cls-1" d="M83.95,57.95c-.4,0-.85.02-1.39.13.53.43,1.2.32,1.39-.13Z"/>
      <path class="cls-1" d="M83.97,57.89c.04-.14.05-.31,0-.5,0,.2-.01.37,0,.5Z"/>
      <path class="cls-1" d="M84.66,33.6c-1.12.61-1.61.48-2.1.7,1.29.56,1.99.33,2.1-.7Z"/>
      <path class="cls-1" d="M86.06,34.99l-1.4-1.39c-.11,1.03-.81,1.26-2.1.7.69,2.06,1.91.99,3.5.69h0Z"/>
      <path class="cls-1" d="M95.86,39.2c1.32-.1,2.35-.88,3.5-1.4-.93.15-1.22.16-.7-.7-.9.06-1.37.43-2.1.7.85.32.61.79-.7,1.4h0Z"/>
      <path class="cls-1" d="M96.55,37.8c-.26.44-.41.98-.7,1.4,1.32-.61,1.55-1.08.7-1.4Z"/>
      <path class="cls-1" d="M99.35,37.8c.11-.41-.39-.72-.7-.7-.52.86-.23.85.7.7Z"/>
      <path class="cls-1" d="M86.07,51.79v2.1c1.94.51,1.66-1.6,2.09-2.1-.43-.02-1.29.71-2.09,0Z"/>
      <path class="cls-1" d="M65.08,47.6c.05-.75.77-1.19,1.4-.7v-.7c-.42-.16-.4-.4,0-.7l-2.8,2.1c.59-.38,1.06-.38,1.4,0h0Z"/>
      <path class="cls-1" d="M66.48,46.2c.04-.23-.05-.48,0-.7-.4.3-.42.54,0,.7Z"/>
      <path class="cls-1" d="M65.08,47.59c.77-.14,1.04-.57,1.4-.7-.62-.49-1.35-.05-1.4.7Z"/>
      <path class="cls-1" d="M65.08,47.59c-.34-.38-.81-.38-1.4,0,.44-.06.97.08,1.4,0Z"/>
      <path class="cls-1" d="M62.98,63.68c.33.4.31,1.1,1.13,1.29.73.17,1.2-.46,1.67-.59-1.09.31-2.03.19-2.8-.7h0Z"/>
      <path class="cls-1" d="M65.77,64.38l-2.8-.7c.77.89,1.7,1.01,2.8.7Z"/>
      <path class="cls-1" d="M66.48,51.79c-.2.26-.5.45-.7.7.5.11.72-.15.7-.7Z"/>
      <path class="cls-1" d="M66.48,51.79c.02.55-.2.81-.7.7-.35,2.69,2.78,1.64.7-.7Z"/>
      <path class="cls-1" d="M74.17,60.19h.7c-.64-.92-.87-.92-.7,0Z"/>
      <path class="cls-1" d="M73.83,58.78c-1,.19.34,1.23.34,1.4-.17-.92.06-.92.7,0,.07-1.19.25-1.63-1.04-1.4h0Z"/>
      <path class="cls-1" d="M115.28,39.49s-.08.06-.12.07c.03.04.06.08.09.13,0-.07.01-.14.03-.2Z"/>
      <path class="cls-1" d="M115.24,39.69s-.06-.09-.09-.13c-.13.03-.26-.09-.41-.36.23.47.47.93.7,1.4-.17-.35-.23-.65-.2-.91Z"/>
      <path class="cls-1" d="M115.28,39.49c-.02.06-.03.13-.03.2.09.16.14.36.17.58.01-.36.13-.79.04-1.07-.05.14-.11.23-.17.29Z"/>
      <path class="cls-1" d="M115.44,40.6c-.03-.09-.04-.21-.04-.33-.03-.22-.08-.42-.17-.58-.03.26.03.56.2.91Z"/>
      <path class="cls-1" d="M115.15,39.56s.08-.03.12-.07c.03-.11.09-.21.17-.29h-.7c.17.08.3.21.41.36Z"/>
      <path class="cls-1" d="M115.15,39.56c-.11-.15-.24-.28-.41-.36.15.28.28.39.41.36Z"/>
      <path class="cls-1" d="M115.44,39.2c-.08.09-.13.19-.17.29.06-.06.12-.16.17-.29Z"/>
      <path class="cls-1" d="M116.14,42l-.7-1.4c.21.59.51.96.7,1.4Z"/>
      <path class="cls-1" d="M116.14,42c-.23-.62-.46-.92-.7-1.4l.7,1.4Z"/>
      <path class="cls-1" d="M45.13,46.45c.35.85.71,1.23,1.06,1.15-.45-.23-.8-.62-1.06-1.15Z"/>
      <path class="cls-1" d="M46.19,47.59c-.5-.82-.79-1.31-1.4-2.1.11.36.23.68.34.95.26.52.61.92,1.06,1.15h0Z"/>
      <path class="cls-1" d="M45.73,48.2c.12-.18.27-.38.46-.6-.35.09-.7-.3-1.06-1.15-.14-.28-.26-.59-.34-.95.09.83.51,2.55.94,2.7h0Z"/>
      <path class="cls-1" d="M46.19,47.59c-.19.23-.34.42-.46.6.16.06.32-.1.46-.6Z"/>
      <path class="cls-1" d="M44.79,45.5c.08.36.2.67.34.95-.11-.27-.23-.58-.34-.95Z"/>
      <path class="cls-1" d="M53.88,49c-.98-.5-1.87.44-1.39.68.98.5,1.87-.44,1.39-.68Z"/>
      <path class="cls-1" d="M47.59,50.39c-.81.05-.9-.59-.7-1.4-.24.65-.08,1.86.7,1.4Z"/>
      <path class="cls-1" d="M47.59,50.39c-.25-.46-.44-.95-.7-1.4-.21.81-.11,1.45.7,1.4Z"/>
      <path class="cls-1" d="M46.9,51.09l.69-.7c-.77.46-.94-.75-.7-1.4l-.68.34.69,1.76Z"/>
      <path class="cls-1" d="M51.08,57.39c-.17-.02-.29-.07-.41-.12.11.06.25.1.41.12Z"/>
      <path class="cls-1" d="M50.67,57.27c.12.05.25.1.41.12-.17-.39-.46-.88-.7-1.4-.14.66-.05,1.09.29,1.28Z"/>
      <path class="cls-1" d="M50.62,57.98c.12-.18.27-.37.46-.59-.16-.01-.3-.05-.41-.12-.51-.2-.63-.65-.29-1.28-1.39.32-.58,1.36.24,1.99h0Z"/>
      <path class="cls-1" d="M50.67,57.27c-.33-.19-.43-.62-.29-1.28-.35.63-.22,1.08.29,1.28Z"/>
      <path class="cls-1" d="M50.74,58.07l.35-.69c-.19.22-.34.42-.46.59.04.03.08.06.11.09h0Z"/>
      <path class="cls-1" d="M61.23,65.08v.7c.46-.23.46-.47,0-.7Z"/>
      <path class="cls-1" d="M59.83,62.29v.7c.45-.23.45-.47,0-.7Z"/>
      <path class="cls-1" d="M124.54,32.2c-1.53.54-3.38.11-4.89,1.4l1.39-4.2c-.31-.05-1.18-.08-1.4,0-1.35.47-3.01,1.59-4.9,2.1l-.36.69c-.34-.03-.7.05-1.04,0,.48.26,1,.71,1.46,1.25.29-.92,1.12-1.46,2.04-1.25v1.39h-1.92c.96,1.21,1.58,2.83.8,3.89,2.13-2.41,5.2-4.01,9.22-4.79,1.44-1.28,2.7-1.68,3.79-1.2-1.74-3.1-1.75-.16-4.2.7h0ZM115.79,35v-.7c.46.23.46.47,0,.7Z"/>
      <path class="cls-1" d="M124.95,32.7c-4.03.78-7.09,2.38-9.22,4.79-.08.11-.17.21-.28.31,4.62-1.68,8.87-4.19,13.29-6.3-1.09-.48-2.35-.08-3.79,1.2Z"/>
      <path class="cls-1" d="M114.92,33.6h-.18c.01-.05.05-.09.06-.14-.45-.54-.97-1-1.46-1.25-.26,2.18,1.6,3.84,2.1,5.6.09-.11.19-.2.28-.31.78-1.07.16-2.69-.8-3.9h0Z"/>
      <path class="cls-1" d="M115.44,37.8c.11-.1.2-.2.28-.31-.09.1-.19.2-.28.31Z"/>
      <path class="cls-1" d="M131.53,23.81c0,1.88-.84,2.16-2.1.7-.74.32-1.98,1.63-2.8,2.1v.7c1.01-.27,4.57-3.16,4.19,0-1.19-.4-.85-.79-2.06-.18-.4.2-2.72,1.45-2.83,1.58-.42.5-.65,2.02-.74,2.08-.16.1-2.58-2.07-.66,1.42.34-2,4.28-4.45,4.46-2.25.25-.18.61-.25,1.12-.19.19-.33,1.86-.84,1.96-1.36.26-1.35-2.22-2.98,1.55-2.5-2.08-.18-2.44-.83-.7-2.1-.45.06-1.01-.1-1.4,0h0Z"/>
      <path class="cls-1" d="M130.12,29.76c-.51-.06-.88.01-1.12.19.03.38-.04.87-.26,1.55.93-.44,1.89-.99,2.8-1.4-1.2-.05-1.51-.17-1.41-.34Z"/>
      <path class="cls-1" d="M133.63,25.91c-.28-.73-.48-1.35-.7-2.1-1.74,1.27-1.38,1.91.7,2.1Z"/>
      <path class="cls-1" d="M131.53,23.81c-.26.06-1.87.6-2.1.7,1.26,1.46,2.1,1.18,2.1-.7Z"/>
      <path class="cls-1" d="M129,29.95c-.18-2.2-4.12.25-4.46,2.25,2.45-.86,2.45-3.8,4.2-.7-.2-.78-.1-1.29.26-1.55Z"/>
      <path class="cls-1" d="M129,29.95c-.37.26-.46.77-.26,1.55.23-.68.29-1.18.26-1.55Z"/>
      <path class="cls-1" d="M133.09,27.94s-.03.07-.05.1c.02-.01.05-.02.08-.03-.01-.02-.02-.05-.03-.07h0Z"/>
      <path class="cls-1" d="M133.12,28.02s-.05.02-.08.03c-.32.75-.78,1.34-1.51,2.06,1.15-.51,2.34-.91,3.5-1.4-.97.28-1.63-.09-1.91-.69Z"/>
      <path class="cls-1" d="M133.12,28.02c.49-.2,1.08-.05,1.91.69-.4-.96-1.03-1.84-1.4-2.8-.15.85-.31,1.48-.54,2.03,0,.03.02.05.03.07Z"/>
      <path class="cls-1" d="M133.12,28.02c.27.6.94.97,1.91.69-.83-.74-1.42-.89-1.91-.69Z"/>
      <path class="cls-1" d="M132.08,28.41c-.1.52-1.78,1.03-1.96,1.36.39.05.86.15,1.41.34.51-1,.94-1.78,1.51-2.06.01-.03.03-.07.05-.1-.24-.62-.1-1.44.54-2.03-3.77-.48-1.29,1.15-1.55,2.5Z"/>
      <path class="cls-1" d="M131.53,30.11c.74-.72,1.19-1.31,1.51-2.06-.57.28-1.01,1.06-1.51,2.06Z"/>
      <path class="cls-1" d="M131.53,30.11c-.55-.19-1.02-.3-1.41-.34-.1.17.21.3,1.41.34Z"/>
      <path class="cls-1" d="M133.09,27.94c.22-.55.39-1.19.54-2.03-.64.6-.78,1.42-.54,2.03Z"/>
      <path class="cls-1" d="M37.79,65.78c.48.05.77.12.92.22.36-.3.79-.54,1.23-.72-.48-.07-.95-.15-1.45-.2-.21.23-.43.56-.7.7h0Z"/>
      <path class="cls-1" d="M42.69,65.78c-.21-.25-.22-1.95-1.06-2.11-.34-.06-2.23,1.1-3.13,1.41.49.05.96.13,1.44.2,1.1-.45,2.28-.46,2.75.5h0Z"/>
      <path class="cls-1" d="M38.71,66c-.15-.1-.44-.17-.92-.22v1.4c.16-.42.5-.83.92-1.18Z"/>
      <path class="cls-1" d="M38.71,66c.35.23-.06.6-.92,1.18,1.13-.64,3.53-1.27,4.9-1.4-.89-.2-1.81-.36-2.75-.5-.44.18-.86.42-1.22.72h0Z"/>
      <path class="cls-1" d="M39.94,65.28c.94.14,1.87.3,2.75.5-.48-.96-1.66-.95-2.75-.5Z"/>
      <path class="cls-1" d="M38.71,66c-.42.35-.76.76-.92,1.18.86-.58,1.27-.96.92-1.18Z"/>
      <path class="cls-1" d="M43.75,66.73c-1.22.91-1.12,1.06.34.45-.41-.11-.51-.26-.34-.45Z"/>
      <path class="cls-1" d="M44.09,67.18c.04-.1.04-.61,0-.7-.13.09-.23.17-.34.25-.17.19-.07.34.34.45Z"/>
      <path class="cls-1" d="M41.14,67.88c0,.06,0,.11.02.16.3.1.56.26.78.48.7.09,1.68-.23,2.15-1.35-1.46.61-1.56.46-.34-.45.07-.08.17-.16.34-.25-1.48.26-2.3.62-2.69.96-.06.12-.16.28-.26.44Z"/>
      <path class="cls-1" d="M43.75,66.73c.11-.08.21-.16.34-.25-.16.09-.27.17-.34.25Z"/>
      <path class="cls-1" d="M41.14,67.88c.1-.16.2-.32.26-.44-.17.15-.24.3-.26.44Z"/>
      <path class="cls-1" d="M41.94,68.53c-.21-.22-.47-.38-.78-.48.08.25.38.43.78.48Z"/>
      <path class="cls-1" d="M48.99,54.94c.01.16.07.25.14.29.14-.19.31-.39.56-.64-.19.04-.36.07-.51.1-.11.07-.19.16-.19.25h0Z"/>
      <path class="cls-1" d="M49.17,54.68c.16-.02.32-.05.51-.1-.1-.1-.34-.03-.51.1Z"/>
      <path class="cls-1" d="M49.68,54.59c-.24.24-.42.45-.56.64.27.15.82-.38.56-.64Z"/>
      <path class="cls-1" d="M48.29,53.54c.01.16.07.25.15.29.14-.19.31-.39.55-.64-.19.04-.36.07-.52.1-.1.07-.19.16-.19.25h0Z"/>
      <path class="cls-1" d="M48.99,53.19c-.24.25-.42.45-.55.64.27.15.81-.38.55-.64Z"/>
      <path class="cls-1" d="M48.47,53.29c.16-.02.32-.05.52-.1-.1-.1-.34-.03-.52.1Z"/>
      <path class="cls-1" d="M47.59,52.14c.01.17.07.25.15.29.14-.19.31-.39.55-.64-.17.02-.3.04-.45.05-.14.08-.26.19-.25.3h0Z"/>
      <path class="cls-1" d="M47.84,51.84c.14-.01.28-.03.45-.05-.08-.08-.28-.04-.45.05Z"/>
      <path class="cls-1" d="M48.29,51.79c-.24.25-.41.45-.55.64.27.15.81-.38.55-.64Z"/>
      <path class="cls-1" d="M44.1,100.41c.68-.89,1.24-1.33,2.4-1.01l.39.66c.22-.04.47.03.7,0l6.29-3.85c.13-.27-1.5-.69-2.1-1.05-.08.69-.39.78-.75.61.38,1.53-2.72,2.57-5.1,2.28-1.7,1.61-3.94,2.75-6.74,3.41,1.85-.44,3.58-.27,5.6-.7l-.69-.35Z"/>
      <path class="cls-1" d="M51.03,95.77c-.72-.34-1.68-1.7-1.59-1.6.99.57,1.47,1.11,1.59,1.6.37.17.68.08.75-.61-2.45-1.46-3.92-2.68-1.4.69-2.52,1.24-4.27.99-6.99.71,2.66,2.65.32,3.23-2.09,1.39,1.41,3.18-.33,1.45-2.1,3.5,2.8-.66,5.05-1.8,6.74-3.41,2.37.29,5.47-.75,5.1-2.28h0Z"/>
      <path class="cls-1" d="M49.44,94.17c-.09-.09.87,1.27,1.59,1.61-.12-.49-.6-1.04-1.59-1.61Z"/>
      <path class="cls-1" d="M62.28,93.05c-.22.23-4.31,2.05-5.6,2.81-2.83,1.68-5.53,2.73-8.4,4.2-1.56,1.82-3.27,2.94-5.14,3.36-.26,1.5-5.09,2.91-7.12,3.21.23.1.48.2.79.27-.65.55-.79,1.3-.42,2.26.37-2.08-.23-2.13,2.1-2.8.45-.13.97-.83,1.66-.62.75.23,1.21,1.49,1.84,2.02.22-.26.41-.51.7-.7-.44-3.03.7-4.87,2.8-1.4.04-.46,0-.94,0-1.4,0-.2-.65-.72-.56-1.06.33-1.24,3.53-1.26,4.41-2.43l.34,1.39c.55-.46.6-1.32.7-1.4,2.18-1.78,4.92-2.58,7.16-3.72,1.1-.56,4.96-3.16,5.43-3.27-.61-.2-.6-.43,0-.7-.17-1.49-.09-1.57,1.4-1.4-1.94-1.15-3.34-.92-4.2.7.63-.14,1.26-.22,1.76-.69.6-.1.39,1.32.34,1.38h0Z"/>
      <path class="cls-1" d="M36.82,106.9c-.3-.07-.55-.16-.79-.27-.49.07-.82.08-.87,0-.31-.39-.74-3.32.19-3.73-1.04.1-1.84-.3-1.7.94.14,1.25.86,2.54.66,3.91l1.36-.69c-.16.95.44,1.44.74,2.08-.37-.96-.23-1.71.42-2.26h0Z"/>
      <path class="cls-1" d="M64.38,91.67c-1.83-3.01-5.44-1.9-4.2.7.86-1.61,2.26-1.85,4.2-.7Z"/>
      <path class="cls-1" d="M62.98,93.77v-.7c-.6.27-.61.5,0,.7Z"/>
      <path class="cls-1" d="M36.03,106.63c2.03-.29,6.86-1.71,7.12-3.21,1.86-.42,3.57-1.54,5.14-3.36-4.07,2.08-7.89,4.78-12.29,6.26l-.3-3.46c-1.15,1.89-1.04,3.14.34,3.77Z"/>
      <path class="cls-1" d="M35.15,106.63c.06.07.39.07.87,0-1.37-.63-1.49-1.88-.34-3.77-.12.03-.23.04-.35.05-.93.41-.5,3.34-.19,3.73h0Z"/>
      <path class="cls-1" d="M54.7,87.04c-.3.28-.69.43-1.11.43.28.6.74,1.36,1.39,2.26.1-.13.22-.24.36-.34-.65-.39-.92-1.43-.64-2.35h0Z"/>
      <path class="cls-1" d="M55.41,85.94c-1.15-.33-1.83-.29-2.04.14h1.88s.11-.09.16-.14Z"/>
      <path class="cls-1" d="M53.59,87.48c-.13,0-.26.02-.4-.01v-1.39h.18c.21-.43.89-.47,2.04-.14.32-.28.73-.49,1.27-.57l-4.89-2.1c.4.76-.04,4.56.1,4.75.67.9,1.55.3,2.69,2.95,0-.5.14-.91.4-1.23-.65-.9-1.12-1.66-1.39-2.26h0Z"/>
      <path class="cls-1" d="M55.34,89.4c-.14.1-.26.21-.36.34.06.09.1.16.17.25l-.57.98h2.1s-.71-1.39-.71-1.39l2.1.69c.38-1.16-.68-1.32-.69-1.4-.85.77-1.55.83-2.04.53h0Z"/>
      <path class="cls-1" d="M54.98,89.73c-.26.32-.39.73-.4,1.23l.57-.98c-.07-.09-.11-.16-.17-.25h0Z"/>
      <path class="cls-1" d="M55.41,85.94c-.05.05-.11.09-.16.14h.04c-.1.4-.31.72-.58.96-.27.93,0,1.96.64,2.36.32-.23.75-.38,1.28-.46-1.18-.17-.29-2.18.06-3.56l-.42.84c-.32-.12-.58-.19-.85-.27Z"/>
      <path class="cls-1" d="M56.26,86.21l.42-.84c-.54.08-.95.29-1.27.57.27.08.53.15.85.27Z"/>
      <path class="cls-1" d="M56.62,88.93c-.53.08-.96.23-1.28.46.49.3,1.19.24,2.04-.53-.32.09-.57.1-.76.07Z"/>
      <path class="cls-1" d="M50.38,88.17c-.76-.76-2.15.63-1.39,1.39.76.76,2.16-.63,1.39-1.39Z"/>
      <path class="cls-1" d="M45.84,85.36c.7-.46-.33-.93-.71-1.37-.69.49.38.96.71,1.37Z"/>
      <path class="cls-1" d="M51.78,95.16l.7-.7c-.29.13-.8-.06-.7.7Z"/>
      <path class="cls-1" d="M59.15,93.47c.54-.22,1.08-.4,1.51-.54l-.49-.57c-.18.38-.56.76-1.03,1.11Z"/>
      <path class="cls-1" d="M55.8,94.92c.29.01.61.16.78.54,0-.37.33-.74.81-1.08-.8.27-1.59.35-2.1.07.25.15.4.31.52.46Z"/>
      <path class="cls-1" d="M57.38,94.39c.49-.34,1.13-.66,1.77-.92.47-.35.85-.73,1.03-1.11-2,.45-3.21.55-4.9,2.1.51.27,1.3.19,2.1-.07h0Z"/>
      <path class="cls-1" d="M60.74,93.02l-.07-.09c-.44.13-.97.32-1.51.54-.52.38-1.14.71-1.77.92-.48.34-.8.7-.81,1.08.05.11.09.24.11.39,1.29-.76,5.38-2.58,5.6-2.81.05-.06.26-1.48-.34-1.38-.5.47-1.13.55-1.76.69l.49.57c1.06-.32,1.55-.36.07.09Z"/>
      <path class="cls-1" d="M60.67,92.94l.07.09c1.48-.45.99-.41-.07-.09Z"/>
      <path class="cls-1" d="M57.38,94.39c.63-.21,1.26-.54,1.77-.92-.64.26-1.29.57-1.77.92Z"/>
      <path class="cls-1" d="M55.59,95.48c.4.06.45-.22.2-.56-.56-.02-1.04.43-.2.56Z"/>
      <path class="cls-1" d="M54.58,95.86h1.3c.24,0,.51,0,.79,0-.08-.13-.11-.27-.11-.4-.17-.39-.48-.53-.78-.54.25.34.19.62-.2.56-.83-.13-.36-.58.2-.56-.11-.15-.27-.31-.52-.46.08.31-.97,1.17-.7,1.39Z"/>
      <path class="cls-1" d="M56.68,95.86c-.02-.16-.06-.28-.11-.39,0,.13.03.26.11.39Z"/>
      <path class="cls-1" d="M55.89,95.86h.79c-.28,0-.55,0-.79,0Z"/>
      <path class="cls-1" d="M59.48,121.05c.34-.35.8-.35,1.4,0-.61-.37-1.08-.37-1.4,0Z"/>
      <path class="cls-1" d="M59.48,121.05c.05-.05,1.04-.02,1.4,0-.6-.35-1.06-.35-1.4,0Z"/>
      <path class="cls-1" d="M59.48,121.05c.32-.37.79-.37,1.4,0l-1.04-.7-.36.7Z"/>
      <path class="cls-1" d="M73.24,65.17s-.07-.05-.12-.08v.32s.04,0,.05,0c0-.07.03-.15.07-.23Z"/>
      <path class="cls-1" d="M73.17,65.4s-.04,0-.05,0v.38c.09-.04.14-.09.19-.13-.1-.05-.15-.14-.14-.26h0Z"/>
      <path class="cls-1" d="M73.24,65.16c-.04.09-.06.16-.07.23.08-.01.17-.02.25-.03-.03-.07-.09-.13-.19-.2Z"/>
      <path class="cls-1" d="M73.31,65.65c.12-.1.15-.19.11-.29-.08.01-.17.02-.25.03,0,.12.04.21.14.26h0Z"/>
      <path class="cls-1" d="M36.85,76.91c0-.13.06-.32.25-.63-.15.27-.28.5-.39.71.04-.03.09-.06.14-.08Z"/>
      <path class="cls-1" d="M36.85,76.91c-.05.02-.1.05-.14.08-.14.27-.25.5-.32.69.41-.29.96-.44,1.4-.7-.65.17-.94.19-.94-.07h0Z"/>
      <path class="cls-1" d="M37.09,76.27c-.18.32-.24.5-.24.63.28-.12.64-.11.94.06-.19-.27-.44-.5-.7-.7Z"/>
      <path class="cls-1" d="M36.85,76.91c0,.25.29.24.94.06-.3-.18-.66-.18-.94-.06Z"/>
      <path class="cls-1" d="M36.71,76.99c.11-.22.23-.45.39-.71-.24.54-1.96.7-1.21,1.17.17.07.33.14.51.23-.05-.3.09-.54.31-.69h0Z"/>
      <path class="cls-1" d="M36.39,77.67c.07-.18.18-.42.32-.69-.22.15-.36.38-.32.69Z"/>
      <path class="cls-1" d="M36.39,77.67c-.18-.09-.34-.16-.51-.23.11.07.28.15.51.23Z"/>
      <path class="cls-1" d="M123.67,26.63c-.68.1-1.35.31-1.93.67-.52.33-.92.46-1.4.7-.26.13-.48.61-.7.7v.7c.34-.92,1.17-1.13,1.4,0,.24.04.66-.07.7,0,.19-.27.49-.45.7-.7.07-.08-.1-.82.69-.7.07.58-.11,1.25.71,1.4-.26-1.41.7-2.19,1.4-.7h.7c-.2-.35-.34-.69-.26-.95.02-.07.84-.19,1.44-.26-.16,0-.32-.08-.48-.2-.32.09-1.45.21-1.41-.35-.01-.74,1.04-.14,1.41-.35-.46-.76.53-1.53,1.58-1.89-.33,0-.62-.07-.88-.21-.91,1.98-3.3,2.97-3.67,2.12h0Z"/>
      <path class="cls-1" d="M123.64,26.2c.06-.39.33-.94.9-1.69-.48.2-.92.52-1.4.7l.5.99Z"/>
      <path class="cls-1" d="M129.43,24.51c-.89-.72-1.26-.35-2.1,0,.26.14.55.2.88.21.43-.15.87-.23,1.22-.21h0Z"/>
      <path class="cls-1" d="M119.64,29.41c.22-.08,1.09-.05,1.4,0-.23-1.13-1.06-.92-1.4,0Z"/>
      <path class="cls-1" d="M127.12,27.5s.04.01.07.01c.91-.11.54-.08-.07-.01Z"/>
      <path class="cls-1" d="M128.21,24.72c-1.05.36-2.04,1.13-1.58,1.89.82-.47,2.06-1.78,2.8-2.1-.45.15-.86.22-1.22.21h0Z"/>
      <path class="cls-1" d="M127.19,27.51s-.04-.01-.07-.01c-.6.07-1.42.18-1.44.26-.08.26.05.59.26.95.1-.12,2.43-1.38,2.83-1.58,1.22-.61.88-.22,2.06.18.38-3.16-3.18-.27-4.19,0,.17.11.33.19.48.2.6-.07.98-.1.07.01h0Z"/>
      <path class="cls-1" d="M129.43,24.51c-.35-.02-.79.06-1.22.21.36,0,.77-.06,1.22-.21Z"/>
      <path class="cls-1" d="M124.54,24.51c-.57.75-.83,1.3-.9,1.69l.2.39c-.06,0-.11.03-.17.04.37.85,2.76-.15,3.67-2.12-1.08.45-1.97,1.33-3.14,1.41-.89-.1.28-.96.34-1.41h0Z"/>
      <path class="cls-1" d="M107.75,16.11c-.07-.24-.04-.46.04-.66-.25.21-.51.43-.74.66.01.03.57.02.7,0Z"/>
      <path class="cls-1" d="M111.7,13.69l-.45-.38c-.59.26-1.15.56-1.68.88.84-.3,1.73-.46,2.13-.5Z"/>
      <path class="cls-1" d="M109.57,14.2c.54-.32,1.09-.62,1.68-.88-2.01-.42-5.3.43-4.2,2.8.24-.23.49-.45.74-.66.24-.56.98-.97,1.78-1.26h0Z"/>
      <path class="cls-1" d="M111.76,13.75l-.06-.05c-.4.04-1.29.2-2.13.5-.63.38-1.22.8-1.78,1.26-.08.2-.11.42-.04.66.79-.11,5.4-2.47,4.89-2.79-.45-.07-.98.08-1.39,0l.45.38c.24-.02.31,0,.07.05h0Z"/>
      <path class="cls-1" d="M111.7,13.69l.06.05c.24-.06.17-.08-.06-.05Z"/>
      <path class="cls-1" d="M107.79,15.45c.55-.46,1.15-.88,1.78-1.26-.8.29-1.54.7-1.78,1.26Z"/>
      <path class="cls-1" d="M112.23,8.13c-.1-.05-.19-.17-.28-.41-.17.63-.4.61-.7,0v1.4l.98-.98h0Z"/>
      <path class="cls-1" d="M111.95,7.72c-.22.04-.47-.02-.7,0,.29.61.53.63.7,0Z"/>
      <path class="cls-1" d="M112.23,8.13l-.98.98c.68.28,2.35,3.63,1.4-1.4-.14.36-.28.48-.41.41Z"/>
      <path class="cls-1" d="M111.25,9.12c-.09-.04-.28-.05-.49-.06.14.03.3.05.49.06Z"/>
      <path class="cls-1" d="M112.23,8.13l.41-.41c-.22.05-.47-.04-.7,0,.1.25.19.37.28.41h0Z"/>
      <path class="cls-1" d="M112.65,7.72l-.41.41c.14.07.28-.05.41-.41Z"/>
      <path class="cls-1" d="M105.65,14.02l.7.7c-.15-.28-.46-.5-.7-.7Z"/>
      <path class="cls-1" d="M35.34,43.4v.7c.46-.23.46-.47,0-.7Z"/>
      <path class="cls-1" d="M31.15,58.79c-.42.82-3.3,1.29-3.15,1.74.51,1.54,3.38-.23,3.49-.36.07-.08.26-1.47-.34-1.38h0Z"/>
      <path class="cls-1" d="M36.04,76.17v.11c.11-.06.19-.11.25-.17-.04-.01-.08-.02-.11-.03-.05.04-.09.06-.14.09Z"/>
      <path class="cls-1" d="M36.37,75.9c-.06.06-.13.12-.19.17.03.01.07.02.11.03.07-.07.09-.14.08-.21Z"/>
      <path class="cls-1" d="M36.04,76.02v.15s.09-.06.14-.1c-.05-.02-.1-.04-.14-.06Z"/>
      <path class="cls-1" d="M36.04,75.58v.44s.09.04.14.06c.06-.05.13-.11.19-.17-.02-.11-.12-.21-.33-.32h0Z"/>
      <path class="cls-1" d="M38.09,43.72c.04.21-.04.57-.3,1.07.23-.48.51-.91.81-1.3-.17.08-.34.15-.52.22Z"/>
      <path class="cls-1" d="M44.06,42.58c.05-.09.1-.16.17-.21-.25-.86.06-2.03.84-2.79-1.14-.07-2.2-.49-2.78-1.34.11,1.32-.26,2.46-1.08,3.43,1.1-.31,2.17-.06,2.84.92h0Z"/>
      <path class="cls-1" d="M49.62,36.37c.11.76-.16,1.4-.66,1.92.43-.12.73-.2.8-.2,1.01-.03,1.93.4,2.22,1.12.61-.95,2.22-1.04,3.31,0-.46-2.82,3.54-4.99,6.33-4.78,2.56-1.02,5.07-2.38,7.5-3.72.42-1.29,4.81-3.35,6.28-3.84.32-.1.85-.1,1.37,0-.56-1.73,3.99-3.96,4.41-.26.04-2.1,3.01-3.66,5.44-3.85-.84-.76.53-2.42,2.32-3.1-.86-.56-1.12-1.72-.06-2.84-2.23-.77-3.7-2.99-4.41-6.65-12.68,5.63-25.45,11.64-38.31,18.04l-1.36-.9c1.95,1.06,4.49,6.76,4.83,9.06h0ZM65.42,18.91c.46.23.46.47,0,.7v-.7Z"/>
      <path class="cls-1" d="M84.46,10.17c.7,3.66,2.17,5.87,4.41,6.65-1.57-2.56-2.46-5.56-3.56-8.34l-1.52.07-38.99,18.76,1.36.9c12.86-6.4,25.63-12.41,38.31-18.04h0Z"/>
      <path class="cls-1" d="M38.09,43.72c.18-.07.35-.15.52-.22.75-.94,1.69-1.59,2.61-1.85.82-.96,1.19-2.1,1.08-3.43.58.85,1.64,1.27,2.78,1.34,0,0,.02-.02.03-.03.12-.11,1.83-.66,3.15-1.05-1.09-.62-3.47.26-4.03-.09-.3-.19-1.36-3.75-3.33-.59-.6.96.39,2.22.05,2.83-.31.57-3.38,2.01-3.85,3.46.56-.63.93-.7.99-.37h0Z"/>
      <path class="cls-1" d="M49.62,36.37c-.33-2.3-2.88-8-4.83-9.06.26,4.62,3.95,6.62,3.49,11.17.24-.07.47-.14.67-.2.5-.51.77-1.16.66-1.92h0Z"/>
      <path class="cls-1" d="M44.23,42.36c-.07.05-.13.13-.17.21.31.46.55,1.06.65,1.85-.03-1.59.59-.67,1.47-1.03-1.13.22-1.74-.3-1.96-1.04h0Z"/>
      <path class="cls-1" d="M51.97,39.21c.15.39.13.85-.19,1.39,1.2-.61,2.57-.92,3.5-1.4-1.09-1.03-2.7-.94-3.31,0h0Z"/>
      <path class="cls-1" d="M44.06,42.58c-.68-.98-1.74-1.23-2.84-.92-.61.72-1.48,1.33-2.61,1.85-.31.39-.58.82-.81,1.3,4.23-3.07,4.37-2.72,7,.7-.85-1.28-1.01-2.39-.73-2.92h0Z"/>
      <path class="cls-1" d="M41.21,41.65c-.92.26-1.86.9-2.61,1.85,1.12-.52,2-1.13,2.61-1.85Z"/>
      <path class="cls-1" d="M44.79,45.5c-.05-.45-.07-.79-.07-1.07-.11-.79-.34-1.39-.65-1.85-.28.53-.12,1.64.73,2.92Z"/>
      <path class="cls-1" d="M88.92,19.66c.89-.34,1.88-.44,2.74-.05-1.93-.69-2.02-1.29-2.51-2.27-.11-.18-.21-.36-.29-.53-1.06,1.12-.8,2.28.06,2.84Z"/>
      <path class="cls-1" d="M88.86,16.81c.08.18.18.36.29.53-.08-.17-.17-.34-.29-.53Z"/>
      <path class="cls-1" d="M37.79,44.8c.25-.5.34-.87.3-1.07-.32.13-.64.26-.99.37.16.27.63.5.7.7h0Z"/>
      <path class="cls-1" d="M37.09,44.1c.36-.12.68-.25.99-.37-.07-.32-.44-.25-.99.37Z"/>
      <path class="cls-1" d="M86.6,22.76c-2.43.19-5.4,1.74-5.44,3.85,2.37-1.52,5.22-2.3,7.69-3.5-1.22.13-1.91-.04-2.26-.35Z"/>
      <path class="cls-1" d="M57.38,36.41l1.77.67-.38-1.38c4.4,1.44,8.22-3.46,12.59-4.21l-1.39-1.38,3.87-.03-.37-1.38,1.78.68-.38-1.38c1.64.66,2.19.27,3.5,0-.99-.27-1.46-.69-1.61-1.14-.52-.1-1.05-.11-1.37,0-1.47.48-5.86,2.55-6.28,3.84-2.43,1.34-4.95,2.7-7.5,3.72-2.78-.2-6.79,1.97-6.33,4.78.76-.39,1.47-1.54,2.78-1.45l-.68-1.34h0Z"/>
      <path class="cls-1" d="M88.86,23.11l-1.39-.71v-.68c1.71-.07,2.83-1.35,4.19-2.11-1.05.57-2.07.49-2.74.05-1.79.68-3.15,2.34-2.32,3.1.88-.07,1.68.03,2.26.35Z"/>
      <path class="cls-1" d="M91.66,19.61c-.86-.39-1.85-.29-2.74.05.66.44,1.69.52,2.74-.05Z"/>
      <path class="cls-1" d="M88.86,23.11c-.58-.32-1.38-.42-2.26-.35.34.31,1.04.48,2.26.35Z"/>
      <path class="cls-1" d="M51.97,39.21c-.28-.72-1.21-1.15-2.22-1.12-.06,0-.37.08-.8.2-.87.9-2.44,1.38-3.89,1.28-.78.76-1.09,1.93-.84,2.79.38-.29,1.09-.05,1.96,1.04-2.6-3.45,3.55-5.33,5.6-2.8-.13-.58-.04-1.04.19-1.39h0Z"/>
      <path class="cls-1" d="M45.07,39.57c1.45.09,3.01-.38,3.88-1.28-.2.06-.43.12-.67.2v.02s-.02,0-.03-.01c-1.32.39-3.03.93-3.15,1.05,0,0-.02.02-.03.03h0Z"/>
      <path class="cls-1" d="M51.97,39.21c-.23.35-.33.81-.19,1.39.32-.54.34-1.01.19-1.39Z"/>
      <path class="cls-1" d="M44.23,42.36c.21.74.83,1.25,1.96,1.04-.87-1.08-1.58-1.33-1.96-1.04Z"/>
      <path class="cls-1" d="M78.17,27.59c-.86-1.9,1.1-1.86,2.99-.98-.41-3.7-4.96-1.47-4.41.26.57.12,1.13.36,1.42.72Z"/>
      <path class="cls-1" d="M78.37,28.01c-.09-.16-.13-.28-.19-.41-.28-.36-.84-.61-1.42-.72.14.45.61.87,1.61,1.14Z"/>
      <path class="cls-1" d="M65.42,18.91v.7c.46-.23.46-.47,0-.7Z"/>
      <path class="cls-1" d="M72.42,30.11v.7c.46-.23.46-.47,0-.7Z"/>
      <path class="cls-1" d="M89.56,22.41h.7s-.07-.09-.1-.13c-.08-.04-.24-.04-.6.13Z"/>
      <path class="cls-1" d="M90.16,22.28s.06.08.1.13c-.02,0-.01-.09-.1-.13Z"/>
      <path class="cls-1" d="M90.96,21.71h.7s-.06-.08-.1-.12c-.08-.04-.24-.04-.6.12Z"/>
      <path class="cls-1" d="M91.56,21.59s.06.08.1.12c-.02,0-.01-.08-.1-.12Z"/>
      <path class="cls-1" d="M92.36,21.01h.7c-.03-.05-.03-.1-.05-.15-.07-.03-.25-.02-.65.15Z"/>
      <path class="cls-1" d="M93.01,20.86c.02.05.03.1.05.15-.02,0,.04-.11-.05-.15Z"/>
      <path class="cls-1" d="M80.9,42.86s.05-.03.07-.04l.89.58c-.41-.87-1.22-1.68-1.4-2.1l.44,1.56h0Z"/>
      <path class="cls-1" d="M80.17,42.73c-2.45.28-4.53,1.74-6.7,2.76,2.28-.15,4.54-.93,6.78-2.26-.05-.13-.08-.3-.08-.5h0Z"/>
      <path class="cls-1" d="M80.9,42.86l-.44-1.56c.09.08-.04.95,0,1.39-.1,0-.2.03-.29.04,0,.2.02.37.08.5.22-.13.43-.24.65-.38h0Z"/>
      <path class="cls-1" d="M80.42,43.47c-1.67.79-6.56,2.56-6.95,2.03-.25,2.19.57,1.39,1.9.85,1.69-.69,5-2.13,6.5-2.95-.7.29-1.18.3-1.44.07h0Z"/>
      <path class="cls-1" d="M80.9,42.86l.08.29c-.03.06-.24.18-.56.33.27.23.74.21,1.44-.07l-.89-.58s-.05.03-.07.04h0Z"/>
      <path class="cls-1" d="M80.42,43.47c-.07-.06-.13-.14-.17-.24-2.24,1.33-4.5,2.11-6.78,2.26.39.53,5.28-1.23,6.95-2.03h0Z"/>
      <path class="cls-1" d="M80.42,43.47c.32-.15.53-.27.56-.33l-.08-.29c-.22.14-.43.25-.65.38.04.1.1.18.17.24Z"/>
      <path class="cls-1" d="M70.68,44.79c2.32.24,4-1.46,5.59-2.79-1.46.28-5.95.51-5.59,2.79Z"/>
      <path class="cls-1" d="M76.27,42c.8-.75,2.11-1.83,4.2-.7-.23-1.35-3.64-.45-4.2.7Z"/>
      <path class="cls-1" d="M80.12,39.2c-.72,1.16-3.18,1.03-3.72,1.55-.35.34-.05,1.17-.13,1.24.55-1.15,3.97-2.05,4.2-.7-.21-.5.44-1.91-.34-2.09Z"/>
      <path class="cls-1" d="M76.27,42c.72-.14,4.02-.86,4.2-.7-2.08-1.13-3.4-.05-4.2.7Z"/>
      <path class="cls-1" d="M69.78,48.45c.5-.24.72-.72.37-1.29.21.45,0,.94-.37,1.29Z"/>
      <path class="cls-1" d="M69.78,48.45c.37-.35.58-.84.37-1.29-.05-.09-.09-.18-.18-.27-.36.22-.73,1.74-2.1,1.4.64.41,1.4.41,1.91.16h0Z"/>
      <path class="cls-1" d="M70.15,47.16c.35.57.13,1.05-.37,1.29-.58.55-1.56.75-1.91-.16.16.14-.14,1.28,0,1.39.74.59,3.51-1.3,3.53-2.27-.43-.11-.91-.3-1.43-.52.08.09.13.18.18.27Z"/>
      <path class="cls-1" d="M69.97,46.89c.52.23,1,.41,1.43.52,0-.37-.37-.61-1.43-.52Z"/>
      <path class="cls-1" d="M69.78,48.45c-.51.25-1.27.25-1.91-.16.34.91,1.32.71,1.91.16Z"/>
      <path class="cls-1" d="M69.97,46.89c.09.09.12.18.18.27-.04-.09-.1-.18-.18-.27Z"/>
      <path class="cls-1" d="M66.48,46.2c.14.05.24.1.32.14-.06-.06-.15-.11-.32-.14Z"/>
      <path class="cls-1" d="M66.79,46.34c.25.16.15.35-.32.56,1.26-.46,3.39-.51,3.5-2.44l-3.5,1.74c.16.04.26.09.32.14Z"/>
      <path class="cls-1" d="M66.79,46.34c-.08-.05-.18-.1-.32-.14v.7c.35-.24.45-.42.32-.56Z"/>
      <path class="cls-1" d="M66.79,46.34c.13.13.03.32-.32.56.46-.21.57-.39.32-.56Z"/>
      <path class="cls-1" d="M68.57,58.79c1.11-.04,2.69-.24,3.49-1.05-1.45-2.1-2.3.09-3.49,1.05Z"/>
      <path class="cls-1" d="M68.57,58.79l-2.8,1.4c.6-.16,1.3.05,2.06-.37.52-.29.57-.9.73-1.03Z"/>
      <path class="cls-1" d="M65.77,60.18l2.8-1.4c-1.03-.04-1.97.42-2.8,1.4Z"/>
      <path class="cls-1" d="M65.77,60.19c.83-.97,1.76-1.44,2.8-1.4-2.09.07-.92-2.21-2.8,1.4Z"/>
      <path class="cls-1" d="M111.25,24.51c-.38-1.44-.84-3.62-1.4-4.9-.28.02-.56-.14-.82-.4.9,1.69,1.56,3.54,1.52,5.29.2-.61.43-.6.7,0h0Z"/>
      <path class="cls-1" d="M107.27,16.42c.25.35.5.71.74,1.08-.18-.51-.29-1.02-.27-1.39-.16.35-.32.44-.48.31h0Z"/>
      <path class="cls-1" d="M109.02,19.22c-.42-.4-.78-1.05-1.01-1.71-.24-.38-.49-.74-.74-1.08-.07-.06-.15-.15-.22-.31,1.1,2.42,2.83,5.98,3.5,8.4.04-1.75-.62-3.6-1.52-5.29Z"/>
      <path class="cls-1" d="M110.55,24.51h.7c-.27-.6-.5-.61-.7,0Z"/>
      <path class="cls-1" d="M109.85,19.61c-.4-.91-1.88-2.18-2.1-3.5-.03.38.08.88.26,1.39.36.54.7,1.11,1.01,1.71.26.26.55.42.82.4h0Z"/>
      <path class="cls-1" d="M109.02,19.22c-.32-.59-.66-1.16-1.01-1.71.23.65.6,1.3,1.01,1.71Z"/>
      <path class="cls-1" d="M107.75,16.11c-.13.02-.68.03-.7,0,.07.1.15.21.22.31.16.13.32.04.48-.31h0Z"/>
      <path class="cls-1" d="M107.27,16.42c-.07-.1-.15-.21-.22-.31.07.16.15.25.22.31Z"/>
      <path class="cls-1" d="M119.64,28.71c-6.93,2.79-4.59,1.64-7-2.8-.26-.49-.98-.97-1.4-1.4,1.02,1.39,2.25,3.61,0,2.8.35.77.54,1.24.7,2.1.63.17.62.4,0,.7.02.46-.02.93,0,1.4,1.36-1.23,1.61-1.12,1.4.7.47-1.82,1.3-.67,1.4-.7.74-1.17,3.32-1.86,4.9-2.1-.61-.2-.6-.43,0-.7h0Z"/>
      <path class="cls-1" d="M111.95,30.11c.62-.3.63-.53,0-.7.04.22-.01.47,0,.7Z"/>
      <path class="cls-1" d="M111.95,31.51c.21.18,1.17.67,1.4.7.22-1.82-.04-1.93-1.4-.7Z"/>
      <path class="cls-1" d="M111.25,27.31c2.25.82,1.02-1.41,0-2.8.2.78.57,1.54.54,2.37l-.54.43Z"/>
      <path class="cls-1" d="M114.74,31.5c1.89-.51,3.55-1.63,4.9-2.1-1.57.24-4.16.93-4.9,2.1Z"/>
      <path class="cls-1" d="M119.64,29.41v-.7c-.6.27-.61.5,0,.7Z"/>
      <path class="cls-1" d="M110.91,27.33l.21.43c.02-.15.05-.3.12-.45-.12.1-.23.09-.34.03Z"/>
      <path class="cls-1" d="M111.25,27.31c-.11-.24-.51-.46-.7-.7l.36.73c.1.06.21.07.34-.03h0Z"/>
      <path class="cls-1" d="M111.95,29.4c-.47-.43-.88-1.02-.82-1.64l-.21-.43c-.14-.09-.27-.32-.36-.73.22,1.17-.21,2.35,1.4,2.8h0Z"/>
      <path class="cls-1" d="M110.91,27.33l-.36-.73c.1.41.22.64.36.73Z"/>
      <path class="cls-1" d="M111.95,29.41c-.16-.86-.35-1.33-.7-2.1-.08.15-.11.3-.12.45l.82,1.64Z"/>
      <path class="cls-1" d="M111.95,29.41l-.82-1.64c-.06.63.36,1.21.82,1.64Z"/>
      <path class="cls-1" d="M94.11,19.61c-.21.01-.3.1-.32.21.21.09.44.24.66.49-.11-.24-.15-.44-.17-.61-.06-.05-.12-.09-.18-.09h0Z"/>
      <path class="cls-1" d="M94.29,19.7c.01.18.05.37.17.61.12-.12,0-.46-.17-.61Z"/>
      <path class="cls-1" d="M94.46,20.31c-.22-.25-.45-.4-.66-.49-.04.28.43.72.66.49Z"/>
      <path class="cls-1" d="M95.86,19.61s-.09.04-.14.07c.05,0,.1-.02.14-.07Z"/>
      <path class="cls-1" d="M95.51,18.91c-.22.01-.3.11-.31.23.21.09.43.24.66.47,0-.11,0-.2.01-.29-.06-.2-.21-.42-.36-.41h0Z"/>
      <path class="cls-1" d="M95.87,19.32c0,.1-.01.18-.01.29.06-.06.05-.17.01-.29Z"/>
      <path class="cls-1" d="M95.71,19.68s.1-.05.14-.07c-.23-.23-.45-.38-.66-.47-.02.23.28.55.52.53h0Z"/>
      <path class="cls-1" d="M97.16,18.41c-.07-.11-.17-.2-.26-.19-.35.02-.37.24-.26.44.03.03.06.08.08.12.15.17.38.29.52.14-.06-.19-.08-.36-.09-.51h0Z"/>
      <path class="cls-1" d="M97.16,18.41c0,.15.03.31.09.51.09-.1.03-.33-.09-.51Z"/>
      <path class="cls-1" d="M96.65,18.66s.05.08.08.12c-.03-.04-.06-.09-.08-.12Z"/>
      <path class="cls-1" d="M98.3,17.51c-.2.01-.29.09-.31.18.21.09.43.26.66.52-.11-.26-.17-.46-.18-.62-.05-.05-.11-.08-.17-.08h0Z"/>
      <path class="cls-1" d="M98.65,18.21c-.23-.26-.46-.43-.66-.52-.08.28.42.76.66.52Z"/>
      <path class="cls-1" d="M98.47,17.59c0,.16.07.37.18.62.12-.12,0-.47-.18-.62Z"/>
      <path class="cls-1" d="M100.05,17.51s-.1.04-.15.06c.05,0,.1-.02.15-.06Z"/>
      <path class="cls-1" d="M100,17.06c-.2.04-.4.06-.6.1.01.04.03.08.06.12.18.05.37.12.59.22-.02-.12,0-.21,0-.3-.02-.05-.03-.1-.06-.15Z"/>
      <path class="cls-1" d="M99.91,17.58s.12-.05.15-.06c-.22-.1-.42-.17-.59-.22.1.16.29.3.44.29h0Z"/>
      <path class="cls-1" d="M100.06,17.21c-.01.09-.03.18,0,.3.06-.06.05-.18,0-.3Z"/>
      <path class="cls-1" d="M99.7,16.81c-.3.02-.36.18-.3.35.2-.05.4-.06.6-.1-.08-.14-.19-.26-.3-.25Z"/>
      <path class="cls-1" d="M47.24,42c-.26.02-.34.15-.31.3.2.1.41.23.66.4-.07-.21-.1-.38-.12-.54-.07-.09-.15-.16-.23-.16h0Z"/>
      <path class="cls-1" d="M47.59,42.7c-.26-.18-.47-.3-.66-.4.04.28.45.62.66.4Z"/>
      <path class="cls-1" d="M47.47,42.16c.02.16.05.33.12.54.1-.1.02-.37-.12-.54Z"/>
      <path class="cls-1" d="M48.64,41.3c-.26.02-.33.14-.31.28.2.09.42.22.66.42-.02-.16-.03-.3-.03-.43-.08-.15-.2-.28-.32-.27h0Z"/>
      <path class="cls-1" d="M48.99,42c-.25-.2-.47-.33-.66-.42.03.28.44.64.66.42Z"/>
      <path class="cls-1" d="M48.95,41.57c0,.13.01.27.03.43.08-.08.05-.27-.03-.43Z"/>
      <path class="cls-1" d="M50.34,40.86c-.08-.14-.19-.27-.31-.26-.2.01-.29.09-.32.19.19.09.42.26.66.51-.03-.17-.04-.31-.04-.44h0Z"/>
      <path class="cls-1" d="M50.39,41.3c-.25-.25-.47-.41-.66-.51-.07.28.42.75.66.51Z"/>
      <path class="cls-1" d="M50.34,40.86c0,.13.01.27.04.44.08-.08.04-.28-.04-.44Z"/>
      <path class="cls-1" d="M125.37,28.87s-.09-.09-.13-.16c-.4.1-1.18.74-1.4.7-.02.1-.05.18-.08.26.45-.32,1-.61,1.61-.81h0Z"/>
      <path class="cls-1" d="M122.69,31.46c-.17-.4.07-.92.58-1.4-.23-.14-.5-.58-.83-1.36-.08,1.07.45,2.35-.69,2.09-.1-.42.13-1.15,0-1.39-.17.6-.4.59-.7,0,.25,1.73.8,2.41,1.65,2.06Z"/>
      <path class="cls-1" d="M122.69,31.46c-.85.35-1.4-.32-1.65-2.06l-1.39,4.2c1.51-1.29,3.36-.86,4.89-1.4-1.12-.05-1.68-.35-1.85-.74Z"/>
      <path class="cls-1" d="M125.37,28.87c-.61.2-1.16.49-1.61.81-.12.38-.29.51-.49.39-.5.48-.75.99-.58,1.4.2-.08.41-.2.65-.41l1.19,1.15c-1.93-3.49.5-1.32.66-1.42.1-.06.32-1.59.74-2.08-.17.34-.36.37-.57.16h0Z"/>
      <path class="cls-1" d="M122.69,31.46c.17.4.73.69,1.85.74l-1.19-1.15c-.24.2-.45.32-.65.41h0Z"/>
      <path class="cls-1" d="M121.74,29.41c-.04-.07-.46.04-.7,0,.3.59.53.6.7,0Z"/>
      <path class="cls-1" d="M123.27,30.07c.14-.14.31-.27.49-.39.03-.08.05-.16.08-.26-.82-.15-.65-.81-.71-1.4-.78-.12-.62.62-.69.7.33.77.61,1.22.83,1.36Z"/>
      <path class="cls-1" d="M125.37,28.87c.19-.06.37-.12.57-.16h-.7c.04.07.09.11.13.16Z"/>
      <path class="cls-1" d="M123.27,30.07c.2.12.37-.01.49-.39-.18.13-.35.26-.49.39Z"/>
      <path class="cls-1" d="M125.94,28.71c-.19.05-.38.1-.57.16.21.21.39.18.57-.16Z"/>
      <path class="cls-1" d="M116.84,33.6v-1.39c-.92-.2-1.75.33-2.04,1.25.04.05.08.09.12.14h1.92Z"/>
      <path class="cls-1" d="M114.92,33.6s-.08-.09-.12-.14c-.01.05-.05.09-.06.14h.18Z"/>
      <path class="cls-1" d="M115.79,34.3v.7c.46-.23.46-.47,0-.7Z"/>
      <path class="cls-1" d="M127.34,42c.21.03.49.02.7,0l.52-.52c.06-.07.12-.14.18-.18h.7c-.2-.48-.51-.92-.7-1.4-.8-1.99-.25-2.65-2.8-3.5-1.01,1.14-.78,2.03-.7,3.5.22.4.47,1.19.7,1.4.19.18,1.16.66,1.4.7h0Z"/>
      <path class="cls-1" d="M128.74,44.1l.45-.45c.1-.13.19-.24.25-.25.17-.64.4-.62.7,0,3.75-.09-.21-2.66,0-2.79,3.73-.13,2.06-.95,2.1-2.11.01.97-1.21,1.85-2.26,1.92.25.26.08.55-.54.87.1.24,1.31-.05-.01,1.04-.9.74-1.8.76-2.79,1.06-.18.63-.41.62-.7,0-.19.29-.76,1.06-.65,1.32.57.06.91.49,1.34.78-1.47-1.12,1.09-2.45,2.1-1.4Z"/>
      <path class="cls-1" d="M126.64,43.4c-.2.06-.47-.05-.7,0,.29.61.52.63.7,0Z"/>
      <path class="cls-1" d="M128.74,39.9c.19.48.5.92.7,1.4.61-.32.78-.61.54-.87-.5.03-.97-.1-1.23-.52Z"/>
      <path class="cls-1" d="M128.74,39.9c.65.16,1.05.33,1.23.52,1.05-.07,2.28-.95,2.26-1.92l-.93.02c-.69,1.23-.97,1.72-2.57,1.38Z"/>
      <path class="cls-1" d="M128.74,39.9c.27.42.73.56,1.23.52-.18-.19-.58-.37-1.23-.52Z"/>
      <path class="cls-1" d="M129.43,43.4c.21-.01.5-.04.7,0-.3-.62-.53-.64-.7,0Z"/>
      <path class="cls-1" d="M128.74,44.1c-1.01-1.05-3.57.28-2.1,1.4.51-1.4,1.29-1.08,2.1-1.4Z"/>
      <path class="cls-1" d="M126.64,42.7c.22-.24.49-.45.7-.7-.76.53-1.29.7-1.47.37-.38.63-1.33.87-2.03.32-.2.07-.48-.05-.7,0-.2.61-.43.6-.7,0-.01.46,0,.93,0,1.39,1.23.1,2.34-.45,3.49-.7-.22-.68.02-.91.7-.7h0Z"/>
      <path class="cls-1" d="M126.64,42.7c-.68-.21-.92.02-.7.7.17-.26.48-.47.7-.7Z"/>
      <path class="cls-1" d="M125.87,42.37c.18.33.71.16,1.47-.37-.24-.04-1.21-.52-1.4-.7.17.42.11.78-.07,1.07h0Z"/>
      <path class="cls-1" d="M125.94,41.3c-.53.72-1.28,1.11-2.1,1.4.7.55,1.66.3,2.03-.32-.1-.19-.09-.53.07-1.07Z"/>
      <path class="cls-1" d="M123.14,42.7h-.7c.27.6.5.61.7,0Z"/>
      <path class="cls-1" d="M125.94,41.3c-.16.54-.17.89-.07,1.07.17-.29.24-.66.07-1.07Z"/>
      <path class="cls-1" d="M126.64,27.31c-.11-.04-.18-.07-.25-.11.04.06.11.11.25.11Z"/>
      <path class="cls-1" d="M126.39,27.19c.07.04.14.08.25.11v-.7c-.25.29-.32.47-.25.59h0Z"/>
      <path class="cls-1" d="M125.23,26.96c-.05.56,1.09.44,1.41.35-.14,0-.21-.05-.25-.11-.31-.17-.24-.37.25-.59-.37.21-1.42-.39-1.41.35Z"/>
      <path class="cls-1" d="M126.39,27.19c-.07-.11,0-.3.25-.59-.49.22-.56.41-.25.59Z"/>
      <path class="cls-1" d="M44.1,100.41l.69.35c-.03-.93,1.32-1.23,2.1-.7l-.39-.66c-1.15-.32-1.72.13-2.4,1.01h0Z"/>
      <path class="cls-1" d="M44.79,100.76c.57-.12,1.25-.53,2.1-.7-1.08-.42-1.77-.18-2.1.7Z"/>
      <path class="cls-1" d="M44.79,100.76c.32-.88,1.02-1.12,2.1-.7-.77-.53-2.13-.23-2.1.7Z"/>
      <path class="cls-1" d="M45.49,106.36c.82-1.21,3.62-3.55,5.78-4.22-.02-.02-.04-.03-.06-.05-.32.18-.85.25-1.52.07-1.29,1.09-2.45,1.91-4.2,2.1,1.42.16,1.37.86,0,1.4-.02.23.02.47,0,.7h0Z"/>
      <path class="cls-1" d="M51.21,102.09c-.32-.32-.59-.78-.82-1.32-.1.08-.15.94-.7,1.4.67.17,1.2.11,1.52-.07h0Z"/>
      <path class="cls-1" d="M45.49,104.26c0,.46.04.94,0,1.4,1.37-.54,1.42-1.24,0-1.4Z"/>
      <path class="cls-1" d="M51.21,102.09s.04.03.06.05c.75-.23,1.43-.27,1.92.02-.22-.1-.67-1.01-1.45-1.38-.39.04-.82.04-1.35-.02,1.26.35,1.37,1.01.82,1.32Z"/>
      <path class="cls-1" d="M51.73,100.79c-.37-.17-.81-.24-1.35-.02.52.07.96.06,1.35.02Z"/>
      <path class="cls-1" d="M51.21,102.09c.55-.32.44-.97-.82-1.32.23.54.5,1.01.82,1.32Z"/>
      <path class="cls-1" d="M51.27,102.14c-2.16.67-4.96,3.01-5.78,4.22l7.69-4.2c-.85.49-1.45.39-1.92-.02h0Z"/>
      <path class="cls-1" d="M51.27,102.14c.47.42,1.07.51,1.92.02-.49-.29-1.16-.26-1.92-.02Z"/>
      <path class="cls-1" d="M42.26,110.39c.84-.74,1.69-1.42,2.52-1.93v-2.1c-.59.44-1.77.49-2.1.7.16.63-.07.86-.7.7.75.89.79,1.92.27,2.63h0Z"/>
      <path class="cls-1" d="M41.2,111.13s.05.07.09.13c.13-.13.26-.22.39-.35-.14.09-.3.16-.47.22h0Z"/>
      <path class="cls-1" d="M42.69,107.06c-.29.18-.48.44-.7.7.63.16.86-.07.7-.7Z"/>
      <path class="cls-1" d="M41.2,111.13c.18-.06.33-.13.47-.22.2-.18.39-.35.59-.52.52-.71.48-1.74-.27-2.63-.69.8-1.17,2.43-1.4,3.5.12-.56.33-.57.61-.13h0Z"/>
      <path class="cls-1" d="M40.59,111.26c.23,0,.47.02.7,0-.03-.06-.06-.08-.09-.13-.19.06-.39.11-.61.13Z"/>
      <path class="cls-1" d="M40.59,111.25c.22-.02.42-.07.61-.13-.29-.44-.49-.44-.61.13Z"/>
      <path class="cls-1" d="M44.79,108.46c-.84.52-1.68,1.19-2.52,1.93-.15.21-.35.38-.59.52-.13.12-.26.22-.39.35.15-.01.59.5,1.03.41,2.58-.57,2-1.55,2.47-3.2Z"/>
      <path class="cls-1" d="M42.26,110.39c-.2.17-.39.34-.59.52.24-.14.44-.31.59-.52Z"/>
      <path class="cls-1" d="M44.09,112.91c-.25.12-.5.26-.76.37.32.08.59.3.76.78-.08-.64-.08-.98,0-1.15h0Z"/>
      <path class="cls-1" d="M59.48,103.91l-2.1-1.75-.45,1.74c-3.36,1.01-6.33,2.52-8.93,4.53l.03,1.96c-1.12.93-2.35,1.72-3.68,2.39.36.05,1,.48,1.82.27,1.6-.41,3.02-1.95,4.21-2.49l-.69-.35v-1.74c1.46.55,1.47.95.69,2.1,2.36-1.06,6.2-2.2,8.4-3.5-.64-1.05-.17-1.28,1.4-.7l-2.09-1.41c-.32-1.26.99-.22,1.39-1.04h0Z"/>
      <path class="cls-1" d="M58.78,107.06c.44-.26.98-.42,1.4-.7-1.57-.58-2.04-.35-1.4.7Z"/>
      <path class="cls-1" d="M43.32,113.27c-.66.29-1.33.55-2.03.78.53-.03,1.38.12,2.8,0-.17-.48-.44-.7-.76-.78Z"/>
      <path class="cls-1" d="M43.32,113.27c.26-.11.51-.24.76-.37.05-.12.15-.15.27-.13,1.33-.67,2.56-1.46,3.68-2.39l-.03-1.96c2.59-2.01,5.57-3.52,8.93-4.53l.45-1.74c-2.63,1.3-9.67,3.29-10.67,5.79-.34.84.24,1.97-.16,2.58-.92,1.39-4.48,1.48-5.26,3.52.65-.5,1.43-.92,2.03-.78h0Z"/>
      <path class="cls-1" d="M41.29,114.05c.7-.23,1.38-.49,2.03-.78-.6-.14-1.39.28-2.03.78Z"/>
      <path class="cls-1" d="M60.36,104.81c.43-1.41,1.57-2.74,3.43-3.98-.09-.43-.08-.81,0-1.15-.87,1.05-2.52,2.15-4.02,2.59.51.51.65,1.46.59,2.54h0Z"/>
      <path class="cls-1" d="M63.8,100.83c-1.87,1.24-3.01,2.57-3.43,3.98-.03.5-.09,1.02-.19,1.55,1.87-1.25,3.22-4.17,5.53-4.96.46-1.14-1.12-1.95-1.33-2.74-.08.32-.29.66-.58,1.02-.07.34-.08.72,0,1.15Z"/>
      <path class="cls-1" d="M59.77,102.27c1.49-.44,3.14-1.54,4.02-2.59.09-.4.28-.74.58-1.02-2.67.31-4.83,2.43-7,3.5,1.18-.46,1.94-.35,2.39.11Z"/>
      <path class="cls-1" d="M64.38,98.66c-.31.28-.5.62-.58,1.02.29-.35.5-.7.58-1.02Z"/>
      <path class="cls-1" d="M59.77,102.27c-.94.28-1.82.3-2.39-.11l2.1,1.75c-.4.82-1.71-.22-1.39,1.04l2.09,1.41c-.03-.53.03-1.04.19-1.55.06-1.08-.08-2.02-.59-2.54Z"/>
      <path class="cls-1" d="M60.18,106.36c.09-.52.16-1.05.19-1.55-.15.51-.22,1.02-.19,1.55Z"/>
      <path class="cls-1" d="M59.77,102.27c-.46-.46-1.21-.57-2.39-.12.57.42,1.45.39,2.39.12Z"/>
      <path class="cls-1" d="M55.98,112.65c.7.56,1.04,2.31,2.8,2.1,0-.36.27-.59.78-.67-.83-.2-1.75-1.21-1.48-1.43.72-.38,1.88.6,2.1,1.12-.03-1.58.35-1.66,1.89-1.62.45-1.56.74-1.79,2.32-.91-4.08-4.98-1.97-.06-2.8.7-.65-.73-2.16-.92-2.79-1.41-.6-.47,3.21-1.58,1.4-2.79-.1,1.35-1.12,1.35-1.4,0-.79.36-1.99,1.7-2.8,2.1,1.91,1.4,3.13,2.28,0,2.8h0Z"/>
      <path class="cls-1" d="M60.18,107.76c-.32.15-1.08-.15-1.4,0,.28,1.35,1.29,1.35,1.4,0Z"/>
      <path class="cls-1" d="M59.56,114.09c-.52.08-.78.3-.78.67.5-.24.91-.42,1.4-.7-.18.09-.4.09-.61.03h0Z"/>
      <path class="cls-1" d="M62.06,112.16c-1.53-.04-1.92.04-1.89,1.63.05.12.07.22,0,.27,2.05-1.18,2.48-1.62,4.2-2.8-1.58-.89-1.87-.65-2.32.91Z"/>
      <path class="cls-1" d="M53.63,115.21s-.05-.05-.07-.07c-1.03.03-.81.21.07.07Z"/>
      <path class="cls-1" d="M55.28,111.95c.23.37.42.69.58.99.05-.1.06-.18.12-.29-.23-.19-.4-.51-.7-.7h0Z"/>
      <path class="cls-1" d="M53.56,115.14h.04c-.08-.08-.2-.16-.04,0Z"/>
      <path class="cls-1" d="M55.87,114.96h0s-.02,0-.03,0c.01,0,.02,0,.03,0h0Z"/>
      <path class="cls-1" d="M53.96,115.13c-.14,0-.25,0-.36,0,.04.04.07.07.06.07-.01,0-.02,0-.03,0,.06.06.14.14.25.24.45-.14.9-.26,1.34-.36-.35.03-.74.05-1.26.04Z"/>
      <path class="cls-1" d="M55.87,114.96s-.02,0-.03,0c-.17.05-.37.09-.62.12-.44.1-.88.22-1.34.36.36.25.68,1.41,1.14,1.42,1.39.04,2.77-1.65,3.76-2.12-1.31.72-2.39.73-2.91.21h0Z"/>
      <path class="cls-1" d="M53.63,115.21s.02,0,.03,0c.01,0-.02-.04-.06-.07h-.04s.04.04.07.07h0Z"/>
      <path class="cls-1" d="M53.63,115.21c-.88.14-1.11-.04-.07-.07-.15-.16-.04-.08.04,0,.11,0,.22,0,.36,0,.51,0,.91-.01,1.26-.05.21-.05.41-.08.62-.12,0,0,.02,0,.03-.01-.38-.39-.43-1.08,0-2.02-.16-.29-.35-.62-.58-.99.51,2.33-.77,2.46-2.79,2.81v.68c.42.1,1.2-.13,1.4,0-.11-.1-.19-.18-.25-.24h0Z"/>
      <path class="cls-1" d="M55.84,114.97c-.21.04-.41.07-.62.12.25-.02.46-.06.62-.12Z"/>
      <path class="cls-1" d="M55.98,112.65c-.05.1-.07.19-.12.29.67,1.22.71,1.78,0,2.02h0c1.02-.18,1.99-.26,2.91-.21-1.76.22-2.1-1.54-2.8-2.1Z"/>
      <path class="cls-1" d="M55.87,114.96c.52.53,1.6.51,2.91-.21-.92-.05-1.9.02-2.91.21Z"/>
      <path class="cls-1" d="M55.87,114.96c.7-.24.67-.8,0-2.02-.43.94-.38,1.63,0,2.02Z"/>
      <path class="cls-1" d="M66.48,115.45c1.96-.91,4.64-1.48,5.6-3.49-2.8-.6-3.66.36-5.6,1.39v2.1Z"/>
      <path class="cls-1" d="M62.63,115.46c-2.41,1.82-5.4,2.59-8.05,3.88-1.01.49-1.75-.15-1.4,1.71,1.36-.76,9.43-3.81,9.79-4.21.06-.06.26-1.48-.34-1.38Z"/>
      <path class="cls-1" d="M65.96,105.65c-1.15-.02-2.37.21-3.69.71,1.24-.27,2.4-.51,3.5-.7.06,0,.12,0,.19,0h0Z"/>
      <path class="cls-1" d="M65.96,105.65c.17,0,.35,0,.51.01-.12,0-.65-.8-1.56-.59-.97.23-1.74.94-2.63,1.29,1.31-.5,2.54-.73,3.69-.71Z"/>
      <path class="cls-1" d="M65.77,105.66c-1.09.19-2.26.42-3.5.7,1.15,1.33,2.38-.51,3.5-.7Z"/>
      <path class="cls-1" d="M43.84,118.07c.02-.42.09-.82.25-1.22-.28.53-.4.96-.25,1.22Z"/>
      <path class="cls-1" d="M43.84,118.07c-.16-.26-.03-.68.25-1.22-.07.19-.62.39-.64,1.04-.03.74.41,1.18.64,1.76-.19-.54-.27-1.07-.25-1.58Z"/>
      <path class="cls-1" d="M44.09,116.85c-.16.4-.23.8-.25,1.22.12.2.42.3,1,.23l-.75,1.35,2.1-1.75c-1.42-.67-2.39,1.63-2.1-1.05Z"/>
      <path class="cls-1" d="M43.84,118.07c-.02.51.06,1.04.25,1.58l.75-1.35c-.57.07-.87-.03-1-.23Z"/>
      <path class="cls-1" d="M60.72,97.75c1-.27,1.98-.44,2.95-.49-1.26.11-1.49-.36-.7-1.4-.13-.05-.56-.04-.7,0-.35.74-.88,1.36-1.55,1.89h0Z"/>
      <path class="cls-1" d="M62.28,95.86c-1.81.5-4.01,2.54-5.6,3.5,1.38-.74,2.72-1.26,4.04-1.61.68-.52,1.2-1.15,1.55-1.89h0Z"/>
      <path class="cls-1" d="M63.68,97.26c.07-.83.19-1.08-.7-1.4-.79,1.04-.56,1.51.7,1.4Z"/>
      <path class="cls-1" d="M56.93,99.31c1.09-.13,5.34-.07,6.74-2.04-.97.05-1.95.22-2.95.49-.95.73-2.21,1.25-3.79,1.56Z"/>
      <path class="cls-1" d="M60.72,97.75c-1.32.35-2.67.87-4.04,1.61.03-.02.13-.04.25-.05,1.58-.3,2.85-.82,3.79-1.56h0Z"/>
      <path class="cls-1" d="M62.98,95.86l-.35-.69-.35.69c.21-.42.44-.4.7,0h0Z"/>
      <path class="cls-1" d="M62.98,95.86c-.27-.35-.51-.35-.7,0,.14-.04.57-.05.7,0Z"/>
      <path class="cls-1" d="M62.98,95.86c-.26-.41-.49-.42-.7,0,.19-.35.43-.35.7,0Z"/>
      <path class="cls-1" d="M56.68,99.36c-1.06.64-4.56.57-2.8,2.8.53-1.06,1.47-1.99,2.8-2.8Z"/>
      <path class="cls-1" d="M56.68,99.36c-1.34.99-2.27,1.92-2.8,2.8,2.37-.21,2.63-2.68,2.8-2.8Z"/>
      <path class="cls-1" d="M56.68,99.36c-1.33.81-2.26,1.74-2.8,2.8.53-.88,1.46-1.81,2.8-2.8Z"/>
      <path class="cls-1" d="M79.42,26.61c-.39.03-.38.29-.23.5.18.05.35.1.58.2.16-.16-.11-.72-.35-.7h0Z"/>
      <path class="cls-1" d="M79.77,27.31c-.23-.1-.4-.15-.58-.2.14.21.42.36.58.2Z"/>
      <path class="cls-1" d="M116.84,20.31c.46-.25.94-.45,1.4-.7-.6-1.75.2-2.13,1.4-.7.1-1.31-.6-1.46-2.12-.46l-1.38-.94c-.82.34-1.79,1.92-3.5,1.4,1.09.1,1.79.8,2.1,2.1-.02-1.75.98-2.06,2.1-.7Z"/>
      <path class="cls-1" d="M119.64,18.91c.03-.08,1.29-.53,1.4-1.05.5-2.46-3.45-.94-4.89-.35l1.38.94c1.52-1,2.22-.84,2.12.46h0Z"/>
      <path class="cls-1" d="M112.65,18.91c.6,1.82-1.28,1.89,2.1,2.1-.31-1.3-1.01-2-2.1-2.1Z"/>
      <path class="cls-1" d="M114.74,21.01c.58-.27,1.36-.29,2.1-.7-1.12-1.36-2.12-1.05-2.1.7Z"/>
      <path class="cls-1" d="M118.24,19.61c.41-.22.75-.76,1.4-.7-1.2-1.43-2-1.05-1.4.7Z"/>
      <path class="cls-1" d="M115.43,16.36c-.23.16-.46.32-.68.45h.7v-.45Z"/>
      <path class="cls-1" d="M116.27,15.61c2.41-1.67,2.61-2.44.57-2.29.34.88,0,1.65-.57,2.29Z"/>
      <path class="cls-1" d="M116.27,15.61c-.25.28-.54.53-.85.76l.02.45c1.04-.7,5.38-2.24,5.59-3.16.64-2.74-2.87-1.3-4.2-.34,2.05-.15,1.84.62-.57,2.29h0Z"/>
      <path class="cls-1" d="M115.42,16.18c.32-.21.59-.39.85-.57.57-.64.91-1.41.57-2.29-.34.31-.65.58-.93.81-.92,1.01-.52,1.63-1.17,2.68.23-.13.46-.29.68-.45v-.18s0,0,0,0Z"/>
      <path class="cls-1" d="M116.27,15.61c-.27.18-.53.37-.85.57v.18c.32-.22.61-.48.85-.76Z"/>
      <path class="cls-1" d="M115.91,14.13c.29-.23.6-.5.93-.81-.42.31-.71.57-.93.81Z"/>
      <path class="cls-1" d="M115.44,27.31c0,.09-.88.16-.7.69,1.68,0,3.3-.82,4.9-1.39.36-.13.86-.49,1.4-.7.7-.28,1.41-.45,2.1-.7-.04-.29-.03-.52,0-.7-.96,0-1.9,0-2.79,0l-.54.54c-.05.07-.11.13-.15.15-.2.62-.43.61-.7,0,.51,1.24-2.2,2.29-3.5,2.1h0Z"/>
      <path class="cls-1" d="M119.64,25.21c-.18.1-.52-.1-.7,0,.27.61.5.62.7,0Z"/>
      <path class="cls-1" d="M123.13,24.5c.11-.67.63-.69,1.4,0,.06-.45-.02-.94,0-1.39-.52-.43-3.38,1.01-4.19,1.39.9,0,1.84,0,2.79,0Z"/>
      <path class="cls-1" d="M123.14,25.21c.48-.18.92-.5,1.4-.7-.48,0-.94,0-1.4,0-.03.19-.04.41,0,.7Z"/>
      <path class="cls-1" d="M123.13,24.5c.47,0,.92,0,1.4,0-.77-.69-1.29-.67-1.4,0Z"/>
      <path class="cls-1" d="M118.94,25.21c-1.05.58-2.11,1.78-3.5,2.1,1.3.19,4.01-.86,3.5-2.1Z"/>
      <path class="cls-1" d="M118.94,10.52l-1.4.7c.56-.22.89-.41,1.4-.7Z"/>
      <path class="cls-1" d="M118.94,10.52c-.7.05-.97.49-1.4.7l1.4-.7Z"/>
      <path class="cls-1" d="M111.98,17.04c-.9-.07-.92.31-.04,1.17-.09-.49-.07-.88.04-1.17Z"/>
      <path class="cls-1" d="M111.98,17.04c.3-.82,1.26-.76,2.06.47l-1.04-2.79c-.68.65-2.98,1.64-3.15,2.45-.46,2.19,1.96,1.01,2.1,1.04-.89-.86-.86-1.24.04-1.17h0Z"/>
      <path class="cls-1" d="M111.98,17.04c-.1.29-.13.68-.04,1.17.51-.48,1.75-.45,2.1-.7-.93-.28-1.6-.43-2.06-.47Z"/>
      <path class="cls-1" d="M111.98,17.04c.46.04,1.13.19,2.06.47-.8-1.23-1.77-1.29-2.06-.47Z"/>
      <path class="cls-1" d="M120.77,27.24c-.02.27-.14.56-.43.77.48-.24.88-.37,1.4-.7-.43.28-.77.18-.97-.07h0Z"/>
      <path class="cls-1" d="M120.61,26.68c.02-.27.14-.56.43-.77-.54.21-1.04.57-1.4.7.43-.28.77-.18.97.07Z"/>
      <path class="cls-1" d="M120.53,27.01c-.27,0-.59-.13-.89-.41l.7,1.4c-.1-.47,0-.81.2-.99Z"/>
      <path class="cls-1" d="M120.65,27.01s-.07,0-.11,0c-.2.18-.29.52-.2.99.29-.21.41-.5.43-.77-.05-.07-.09-.14-.12-.22h0Z"/>
      <path class="cls-1" d="M120.63,26.94c-.02-.08-.03-.17-.02-.26-.2-.25-.54-.35-.97-.07.3.28.62.4.89.41.03-.03.06-.06.1-.08h0Z"/>
      <path class="cls-1" d="M120.53,27.01s.08,0,.11,0c0-.02-.02-.05-.02-.07-.04.02-.07.05-.1.08Z"/>
      <path class="cls-1" d="M120.97,26.87c.23.02.5.15.77.44l-.7-1.4c.2.46.14.78-.07.96Z"/>
      <path class="cls-1" d="M120.75,26.99c.02.08.02.16.02.25.2.25.54.35.97.07-.26-.29-.53-.42-.77-.44-.06.05-.14.09-.22.12h0Z"/>
      <path class="cls-1" d="M120.73,26.9c.07-.03.16-.03.24-.03.2-.18.27-.51.07-.96-.29.21-.41.5-.43.77.05.06.09.14.12.22Z"/>
      <path class="cls-1" d="M120.73,26.9s.02.06.02.09c.09-.02.16-.06.22-.12-.09,0-.17,0-.24.03Z"/>
      <path class="cls-1" d="M120.77,27.24c0-.09,0-.17-.02-.25-.03,0-.07.02-.1.02.03.09.07.16.12.22Z"/>
      <path class="cls-1" d="M120.61,26.68c0,.09,0,.18.02.26.03-.02.07-.03.1-.04-.03-.08-.07-.15-.12-.22Z"/>
      <path class="cls-1" d="M120.63,26.94s.01.05.02.07c.04,0,.07-.01.1-.02,0-.03-.01-.06-.02-.09-.03.01-.07.02-.1.04Z"/>
      <path class="cls-1" d="M122.26,29.22c-.12.12-.29.18-.52.18.17.29.35.23.52-.18Z"/>
      <path class="cls-1" d="M122.26,29.22c.06-.14.12-.31.18-.52-.21.25-.51.43-.7.7.23,0,.41-.06.52-.18h0Z"/>
      <path class="cls-1" d="M121.75,30.8c1.15.26.61-1.02.69-2.09,0,.23-.06.4-.18.52-.18.41-.35.47-.52.18.14.24-.09.97,0,1.39h0Z"/>
      <path class="cls-1" d="M122.44,28.71c-.06.21-.12.38-.18.52.11-.12.17-.29.18-.52Z"/>
      <path class="cls-1" d="M128.55,41.48l.18-.18c-.06.04-.12.11-.18.18Z"/>
      <path class="cls-1" d="M128.55,41.48l-.52.52c.13-.02.33-.3.52-.52Z"/>
      <path class="cls-1" d="M56.03,110.4c-.05.43-.37.71-.96.85.19.16.27.39.21.7.36-.35.63-.52.82-.54,0-.34-.03-.68-.07-1.02h0Z"/>
      <path class="cls-1" d="M55.07,111.25c-.59.14-1.45.15-2.59,0,.76.98,1.42-.16,2.8.7.06-.32-.02-.55-.21-.7h0Z"/>
      <path class="cls-1" d="M56.03,110.4c.04.34.07.68.07,1.02.33-.03.34.43-.12,1.24,3.13-.52,1.91-1.4,0-2.8.06.21.07.38.05.55Z"/>
      <path class="cls-1" d="M55.07,111.25c.59-.14.91-.42.96-.85-.02-.18-.02-.36-.05-.55-1.02.5-2.27.75-3.5,1.4,1.36-.32,2.21-.31,2.59,0Z"/>
      <path class="cls-1" d="M55.07,111.25c-.38-.31-1.23-.31-2.59,0,1.14.15,2,.14,2.59,0Z"/>
      <path class="cls-1" d="M55.98,109.86c.03.18.03.36.05.55.02-.16,0-.34-.05-.55Z"/>
      <path class="cls-1" d="M55.28,111.95c.3.18.47.51.7.7.08-.41.11-.82.12-1.24-.18.02-.46.18-.82.54h0Z"/>
      <path class="cls-1" d="M56.1,111.42c-.01.41-.04.83-.12,1.24.46-.8.44-1.26.12-1.24Z"/>
      <path class="cls-1" d="M118.24,21.01h-.7c.06,2.17.35,2.22.7,0Z"/>
      <path class="cls-1" d="M117.54,21.01c-3.76,2.41-1.07,5.24,2.1,1.74.29-1.16-1.16-1.39-1.4-1.74-.34,2.22-.64,2.17-.7,0h0Z"/>
      <path class="cls-1" d="M158.14,58.15c-.24-.04-.48-.07-.72-.07-.86,1.92-1.94,1.91-2.8,0-.98,1.33-3.36.54-4.9.7-.04-.46.03-.93,0-1.4-2.08-.76-1.95-4.05,0-4.9-.05-.51-.09-1.18-.13-1.95l-.53-8.03c-.15-1.38-.33-2.52-.58-3.13-.18-.44-.48-1-.88-1.65-1.68-2.33-3.38-4.66-5.06-6.99-3.14-4.04-6.63-8.27-8.22-10.43-.39.03-.71.04-.99.02-.46.61-.02,2.46.29,3.48.4,1.3,1.48,3.42,2.1,4.9,1.53,3.63,11.23,21.69,11.2,23.47-.04,2.1-7.27,4.3-9.1,5.22-.98.49-1.73.92-2.8,1.4-2.27,1.03-9.09,5.35-11.09,4.09-1.24-.78-6.29-15.6-8.49-17.74l2.08-1.38c-.22-.66-1.19-1.3-1.39-1.75,1.18,3.2-.46,2.17-3.48,3.55l.68,1.34-1.77-.67c.78,2.52-1.01.49-3.12,1.39l.71,1.39c-1.35-.45-2.22-.18-3.5,0,1.86,1.99-1.68,2.15-2.47,1.42l.37,1.38-1.77-.68c.83,2.86-1.27.2-1.6,1.03-.11.28.96,2.44-2.59,1.07l.37,1.38-1.77-.68c.66,1.47-1.23,2.64-2.42,1.38-.49.69-.1.7,0,1.39l-1.77-.68.38,1.38c-3.55-1.58-.03,1.94-3.18.02l.38,1.38-2.44-.7c-1.01.64-.69,1.11-.36,2.1-4.6-1.93-4.11,1.78-4.31,2-.84.93-4.18.05-5.48.81l1.39,1.38c-.79.27-2.16.37-2.79.71-.79.43-3.2,2.78-4.2,2.09l.37-1.38c-.33.15-.9.72-1.07.68-2.36.72-10.4,6.05-12.14,5.54-2.41-2.68-3.15-6.11-5.35-9.04.94,2.49.86,4.15,2.79,6.26-.56.79-5.19,1.87-5.59,2.13-.14.09.02.88-2.1,2.1-2.26,1.3-4.77,2.17-7,3.5-1.26.75-2.52,3.31-4.9,2.8-.16.1-2.57,1.31-2.8,1.4,2.93,3.04-.63,1.27-.02,3.85.04.16,2.75.61,1.41,1.74-1.52,1.28-2.17-4.85-7.69-.7-.25.19-.44.5-.7.7.63.13.6.37,0,.7l-.7,1.4c.62.13.59.37,0,.7-.32,1.44-.07,3.09-1.4,4.2.63.07.59.32,0,.7l1.4,2.8c.63.15.61.39,0,.7l.7.7c.6.23.6.47,0,.7,2.99,4.32,4.87,9.23,7,13.99.6.23.6.47,0,.7l.7.7c.61.23.61.47,0,.7l.7.7c.6.23.6.47,0,.7,2.04,2.05,3.41,6.55,5.08,9.87.02.03.03.05.05.08.22.32.41.67.63.99.03.05.07.09.1.14.53.76,1.1,1.47,1.67,2.19,5,3.88,15.32,6.62,21.15,10.46.34.14.67.29,1.01.43.87-.1,2.26-.82,3.19-1.07.19-.62.42-.61.7,0l.7-.7c.23-.6.47-.6.7,0l.7-.7c.23-.61.47-.61.7,0,7.59-4.62,15.76-8.14,23.78-11.89.23-.61.47-.61.7,0l.7-.7c.23-.61.47-.61.7,0l.7-.7c.23-.6.47-.6.7,0,7.59-4.62,15.76-8.14,23.78-11.89.23-.6.47-.6.7,0l.7-.7c.23-.61.47-.61.7,0l.7-.7c.23-.61.47-.61.7,0,8.1-4.75,16.62-8.74,25.18-12.59.23-.61.47-.61.7,0l.7-.7c.23-.61.47-.61.7,0l.7-.7c.23-.61.47-.61.7,0,.96-1.44,3.45-1.73,4.77-2.61.43-.49.72-1.02.83-1.58-.61-.17-.59-.41,0-.7l-.7-2.8c-.61-.23-.61-.46,0-.7l-.7-2.8c-.61-.19-.61-.43,0-.7-.05-.18-.71-.49-.7-1.06.02-.65,1.39-2.22,2.68-3.83.63-1.15,1.34-2.32,2.22-3.51-1.34-.36-1.35-.99,0-1.4l.7-2.1c-1.84-1.08-1.87-1.7,0-2.8,0-.23-.02-.47,0-.7.04-.77-.23-1.74.69-2.1v-2.8c-2.18-1.97-3.07-7-6.27-7.63h.02ZM44.05,128.94c-1.57-1.98-4.1-9.13-5.56-12.09-.69-1.4-1.42-2.76-2.1-4.2-.88-1.86-5.8-10.78-4.89-11.89l2.09.7c.18-.85-.72-2.51-.46-3.17.3-.76.95-.76,1.16-1.02-.24-.32-.43-.62-.59-.91-.79-.5-2.09-.37-2.21-.49-.15-.15.84-1.61.78-2.38-.02-.26-4.26-1.99,2.03-.41h.7c0-.74.44-1.78,0-2.8l2.09.7c-.14-1.25.24-2.72.07-3.9-.07-.46-1.67-2.65-2.16-2.74,1.31-1.9,3.03-.38,4.89-.35.68,0,3.45.09,3.75.03.47-.08.43-1.14.6-1.24.27-.15,1.15.63,1.24.51.55-.67-2.07-5.17,1.4-7.7,1.44-1.05,3.38-1.43,4.9-2.1,1.27-.56,3.25-3.46,4.2-.71-2.21-.51-2.23,1.78-4.2,2.11v.7c.09-.06,1.78-.57,2.09-.36l-1.39,2.1h1.39c-.21.52-1.25.81-1.39,1.05.05.19.04.41,0,.63,0,.02,0,.05,0,.07,1.16.05,2.34-.06,3.5,0,.23.01.47-.03.7,0,.32.05.6.39.7.7.16-.47,2.92-.97,0-3.16-.27-1.95,1.05-.57,1.4,0,.86,1.43,1.68,3.66,2.42,5.33.85,1.91,1.56,4.5,3.17,6.92,2.14,7.11,9.9,17.17,11.6,23.79.33,1.27.22,2.28-.59,3.32l-28.84,14.12c-.99-.09-1.84-.33-2.49-1.15h0ZM61.22,134.35c-1.14-.59-4.33-3.61-4.54-4.56-.12-.49,1.44-.22,1.39-.67-.03-.28-.66-.75-.69-1.07-.02-.23.03-.47,0-.7l-1.39.36,1.39-1.76c1.2-.02,1.1,1.56,1.4,2.1,1.01,1.82,3.32,4.31,2.44,6.3ZM65.08,132.94c-.76-.76.63-2.15,1.39-1.39.76.76-.63,2.15-1.39,1.39ZM65.77,130.14c2.32-3.04,4.63-.7,2.8-5.59,1.81,1.22,2.99,4.21,3.49,6.29-2.41-3.62-2.89-1.48-6.29-.71h0ZM74.85,129.8c-1.45-.02-2.26-2.74-2.78-3.86-.38-.82-.93-1.66-1.38-2.46l.33-.33,1.76,2.09c3.15-.3,4.59-2.1,7.69-2.79-2.05,3.34-9.36,2.41-5.61,7.35ZM136.44,95.53c-15.41,8.04-31.17,15.36-46.89,22.72-1.42.66-3.44,2.37-4.9,3.15-.91.49-1.85.69-1.4-.69.11-.34,5.35-2.67,6.3-3.16,16.1-8.29,32.71-15.79,48.97-23.78l-2.08,1.76h0ZM143.93,92.51c-.57-.39-1.72-.01-1.91-.15-.07-.05.53-1.05.47-1.62-.14-1.22-.96-2.21-.81-3.26,2.24,2.83,4.26,6.29,5.25,9.78-1.86-.41-2.16-4.18-2.99-4.75h0ZM147.62,93.07c.29.43.73.74.7,1.4l.69,1.39c-1.23.27-.44-.77-.69-1.39-.17-.43-.56-.75-.7-1.4-.53-.8-1.35-1.63-2.1-2.8-.76-1.19-2.02-2.27-2.1-3.84,1.26-.6,1.97,2.19,2.1,3.14l3.49-.69c.32,1.11-1.69.64-2.04,1.8-.12.4.49,1.73.64,2.4h0ZM152.52,88.17c-.05.05-1.48.27-1.39-.34,1.09-1.91,2.19-.47,1.39.34Z"/>
    </g>
  </g>
</svg>