<?xml version="1.0" encoding="UTF-8"?>
<svg id="_레이어_2" data-name="레이어 2" xmlns="http://www.w3.org/2000/svg" viewBox="0 0 116.7 46.72">
  <defs>
    <style>
      .cls-1 {
        fill: #ff319c;
      }

      .cls-2 {
        fill: #e6e7e8;
      }
    </style>
  </defs>
  <g id="_레이어_1-2" data-name="레이어 1">
    <g>
      <rect class="cls-1" x="1.46" y="5.36" width="113.78" height="36" transform="translate(-1.97 5.69) rotate(-5.49)"/>
      <path class="cls-2" d="M35,20.29h-2.02v3.41h-1.9v-8.34h1.9v3.39h2.02v1.54ZM28.93,22.73h-6.75v-6.56h1.86v1.94h3.01v-1.97h1.89v6.59ZM27.04,21.24v-1.68h-3.01v1.68h3.01ZM33.14,26.74c0,1.74-1.79,2.88-4.9,2.88s-4.88-1.14-4.88-2.88,1.81-2.9,4.88-2.9,4.9,1.1,4.9,2.9ZM28.24,25.33c-1.87,0-2.94.54-2.94,1.41s1.07,1.38,2.94,1.38,2.98-.53,2.98-1.38-1.09-1.41-2.98-1.41ZM45.59,18.92h-1.95v-1.47h1.95v-2.08h1.86v8.3h-1.86v-1.81h-1.97v-1.47h1.97v-1.47ZM42.84,22.82h-6.59v-6.43h6.59v6.43ZM41,21.38v-3.55h-2.91v3.55h2.91ZM47.56,26.74c0,1.74-1.79,2.88-4.91,2.88s-4.85-1.14-4.85-2.88,1.78-2.9,4.85-2.9,4.91,1.1,4.91,2.9ZM42.65,25.33c-1.82,0-2.94.54-2.94,1.41s1.12,1.38,2.94,1.38,2.98-.53,2.98-1.38-1.07-1.41-2.98-1.41ZM61.07,21.78h-4.21v1.09h5.54v1.5h-12.88v-1.5h5.47v-1.09h-3.78v-3.66h7.58v-.88h-7.63v-1.41h9.5v3.62h-7.58v.93h7.98v1.41ZM51.04,25.19h9.7v4.45h-1.86v-2.94h-7.84v-1.5ZM80.44,27.75h-12.88v-1.47h12.88v1.47ZM80.57,21.97l-1.09,1.39c-.8-.34-1.97-1.39-2.4-2.26-.37.99-1.42,2.1-2.26,2.54l-1.18-1.26c1.52-.8,2.5-2.48,2.5-4.4v-1.63h1.82v1.63c0,2.05,1.14,3.28,2.61,3.98ZM73.88,21.51l-1.18,1.31c-.59-.3-1.36-1.1-1.66-1.73-.46,1.04-1.55,2.05-2.53,2.51l-1.12-1.38c1.71-.82,2.74-2.42,2.74-4.27v-1.54h1.84v1.54c0,1.86.75,3.01,1.92,3.55ZM93.2,29.62h-1.87v-14.26h1.87v14.26ZM88.81,16.85c-.11,4.3-2.02,7.82-6.37,10.19l-1.15-1.41c3.12-1.42,5.25-4.4,5.5-7.23h-4.64v-1.55h6.66Z"/>
    </g>
  </g>
</svg>