<?xml version="1.0" encoding="UTF-8"?>
<svg id="_레이어_2" data-name="레이어 2" xmlns="http://www.w3.org/2000/svg" viewBox="0 0 169.27 70.38">
  <defs>
    <style>
      .cls-1 {
        fill: none;
        stroke: #ff319c;
        stroke-miterlimit: 4;
        stroke-width: 2px;
      }

      .cls-2 {
        fill: #ff319c;
      }

      .cls-3 {
        fill: #e6e7e8;
      }
    </style>
  </defs>
  <g id="_레이어_1-2" data-name="레이어 1">
    <g>
      <rect class="cls-3" x="3.25" y="8.75" width="162.78" height="52.87" transform="translate(-2.98 8.26) rotate(-5.49)"/>
      <rect class="cls-1" x="3.25" y="8.75" width="162.78" height="52.87" transform="translate(-2.98 8.26) rotate(-5.49)"/>
      <path class="cls-2" d="M46.52,27.61v-2.17h10.63v2.17h-3.87c.05,3.07,2.17,5.31,4.48,6.06l-1.45,2.08c-1.54-.57-3.5-2.24-4.36-4.09-.61,1.97-2.74,3.98-4.68,4.66l-1.56-2.08c2.92-1.06,4.86-3.5,4.86-6.56v-.07h-4.05ZM62.48,38.44h-2.64v-7.12h-3.03v-2.13h3.03v-5.36h2.64v14.61ZM62.91,43.43h-13.91v-6.35h2.67v4.27h11.24v2.08ZM81.5,40.2c0,2.31-2.55,3.73-7.01,3.73s-7.03-1.42-7.03-3.73,2.58-3.75,7.01-3.75,7.03,1.45,7.03,3.75ZM74.49,27.76c-1.02,2.31-4.3,3.91-7.21,4.3l-1.11-2.06c3.37-.34,6.96-2.17,6.96-5.2v-.59h2.74v.59c0,3.03,4.09,5.07,6.99,5.2l-1.13,2.08c-2.69-.38-6.22-2.01-7.24-4.32ZM83.58,35.52h-18.2v-2.1h7.78v-2.6h2.64v2.6h7.78v2.1ZM78.79,40.2c0-1.02-1.7-1.65-4.32-1.65s-4.27.63-4.27,1.65,1.67,1.65,4.27,1.65,4.32-.61,4.32-1.65ZM96.54,30.73h-11.69v-2.1h11.69v2.1ZM87.68,27.22v-2.08h6.22v2.08h-6.22ZM100.7,23.83v8.16h2.8v2.19h-2.8v9.79h-2.67v-20.15h2.67ZM85.85,35.77c0-2.47,1.97-4.34,4.86-4.34s4.86,1.81,4.86,4.34-1.97,4.34-4.86,4.34-4.86-1.79-4.86-4.34ZM88.42,35.77c0,1.31.95,2.19,2.28,2.19,1.47,0,2.28-.88,2.28-2.19s-.97-2.22-2.28-2.22-2.28.88-2.28,2.22ZM121.17,43.98h-2.64v-20.15h2.64v20.15ZM114.97,25.93c-.16,6.08-2.85,11.06-9,14.4l-1.63-1.99c4.41-2.01,7.42-6.22,7.78-10.22h-6.56v-2.19h9.41Z"/>
    </g>
  </g>
</svg>