<?xml version="1.0" encoding="UTF-8"?>
<svg id="_레이어_2" data-name="레이어 2" xmlns="http://www.w3.org/2000/svg" viewBox="0 0 164.01 140.06">
  <defs>
    <style>
      .cls-1 {
        fill: #ff319c;
      }
    </style>
  </defs>
  <g id="_레이어_1-2" data-name="레이어 1">
    <g>
      <path class="cls-1" d="M43.38,107.81c-.02-.07-.04-.13-.07-.19.01.09.03.16.07.19Z"/>
      <path class="cls-1" d="M53.88,91.04s.04.02.05.03l-.02-.04-.03.02Z"/>
      <path class="cls-1" d="M42.96,138.14c.09.22,0,.5.09.69.57-.34.55-.57-.09-.69Z"/>
      <path class="cls-1" d="M28.11,53.4c.03.46.1.93.17,1.39,1.26-.56,1.19-1.16-.17-1.39Z"/>
      <path class="cls-1" d="M140.33,83.68c.38-.71.78-1.42,1.16-2.14-.51.86-.92,1.6-1.16,2.14Z"/>
      <path class="cls-1" d="M108.37,115.15c.86-.59,1.77-1.11,2.6-1.73.22-.16.36-.59.61-.78.3-.24,1.08-.24,1.3-.87-.05-.22-.08-.48-.09-.69-.03-.13-.05-.24-.04-.34-.05-.35-.12-.71-.13-1.05.07-.11,1.41.58,1.47.52.09-.08-.63-.27,1.21-1.56-1.32-1.09-2.06-3.67-2.08-5.37l2.62,4.28c.29.91-.07.76-.54,1.09.71.59.63.45,1.47.52-.64-2.19,1.57-2.25,1.39-.17.23-.07.66-.01.69-.09.93-2.33.81-1.4,2.12-1.51.33-.11.71-.21,1.17-.31.19-.2.34-.33.48-.43.62-.75,1.36-2.04,2.21-.61.16.28.03.97.18,1.39.45.3,1.03-1.14,1.2-1.56.12-.29-.32-1.23-.17-1.39.13-.13,2.65.31,3.55.26-.8-2.1,1.01-1.33,2.6-1.74-.3-.3-.62-1.19-.87-1.3-.21-.1-1.09.36-1.34.12-.48-.46.41-2.24-.01-3.28-.32-.09-.73-.32-1.25-.74-.01,3.6-4.38,1.72-1.42-.13.61-.39,1.34.17,1.42.13.54-.24,1.54-.71,1.99-.95.63-.34,1-.91,1.22-1.56.44-2.69-2.01-1.16-1.82-3.29.46-.04.92-.17,1.38-.18-.31-.63-1.14-.93-.95-1.99.7.29,1.46.27,2.16.43-3.29-4.76,2.94-.36,3.9-5.42.72-.06.39,1.42.61,2.04,1.45-.1,1.74-1.43,2.51-2.43l.7-.09c-.67-.09-.68-.32-.09-.69-.11-1.9,3.35-6.69,5.56-10.38.63-1.31,1.23-2.62,1.8-3.92l-1.22-.26c-3.18,7.31-8.97,13.32-15.15,18.12-1.63,4.09-5.18,1.32-6.23-1.86-3.17-1.36-5.41-4.22-6.71-8.59-1.95,1.89-5.37,1.45-3.7-1.14-.36-.07-.94.19-1.39.17.42,1.26-.68,3.58-.64,3.95.06.65,1.77,2.1,2.2,2.89.85.03,2.04-.46,2.78-.35,4.45.68,1.93,7,.35,2.77-.66,1.89-.87,1.37-2.69,1.04-.78,3.17-3.31,7.5-5.91,9.5-.74.57-2.21.45-2.55.85-.28.35.37,1.5-.25,2.09-.22.21-4.33,2.4-4.89,2.63l-.17,4.24c-1.8.53-1.45-.17-1.64-1.59-.12-.96,1.54-1.52,1.19-1.68-.33.11-.77.12-1.37-.01-1.54.36-3.28.29-4.85.61.19.61.09,1.43.26,2.08.4,1.55,1.74,1.5-.95,3.64.83-.16,2.74.01,3.55.26.2.06.54-.19.72.26.04.42-.39.35-.63.43-.58.2-1.43.09-2.08.27l.09.67c.5-.06,1.11.22,1.47.53.09.08.32.85.81.96-.26.63-.74.03-1.18-.14-.08-.02-.13-.01-.24-.04-.46.05-.93.09-1.38.17.4.32,1.46.79,1.56,1.21.05.22-.66,1.18-.41,1.74,1.18,2.68,5.61-1.34,7.51-1.22,1.18-1.86,3.85-.2,3.04,1.73.45,0,.94-.2,1.38-.17h0ZM122.92,102.05c-.93,1.2-2.46-1.68-2.34-1.81.77-.8,2.91,1.07,2.34,1.81ZM120.31,89.74c.81.53,2.97.48,3.34,1.32,1.08,2.42-1.71,2.24-2.32,2.86-.12.13.5.96.32,1.25-.48.79-1.8,1.31-2.28.99-.27-.18.23-6.28.95-6.43h-.01ZM120.25,103.1c.18-.5,1.22.26.85,1.29-.19.5-1.23-.26-.85-1.29ZM117.89,101.28l-.08,2.12c-.81-.54-1.39-.89-1.29-1.94l1.37-.17h0ZM115.73,98.03c.48.18.51.41.09.69l-.09-.69ZM112.18,94.96c.23-.37,1.99.98,1.64,1.91-.23.37-1.99-.98-1.64-1.91ZM111.84,97.82c1.72.51,3.57,1.37,4.58,2.94-1.4.98-5.28-1.96-4.58-2.94ZM112.36,107.61c.18-.5,1.23.26.85,1.29-.18.5-1.22-.26-.85-1.29ZM111.4,108.43c.48.18.51.41.09.69l-.09-.69ZM111.66,110.51c.48.17.51.41.09.69l-.09-.69ZM105.85,111.94c-1.65-1.3-2.49-.38-4.29-.5-1-.59-.83-.73-.56-1.71.59-2.16,1.15.39,1.23.44.62.33,3.66-2.49,3.62,1.77ZM109.15,104.5l-1.21,1.55c-.38-1.42-.26-1.57,1.21-1.55ZM106.55,111.85c.04-.91-.68-2.81-.33-3.4.2-.34,1.07-.09,1.28-.23.49-.32,2.39-1.91,2.59-1.73l.19,1.38c-.64.23-2.61.14-2.78.35-.16.19.48,2.7.43,3.46l-1.38.17h0Z"/>
      <path class="cls-1" d="M128.73,97.81c.51.42.92.65,1.24.74-.16-.4-.52-.69-1.24-.74Z"/>
      <path class="cls-1" d="M103.95,113.59c.42.03,2.43,1.33,3.04,1.73.81-1.93-1.86-3.59-3.04-1.73Z"/>
      <path class="cls-1" d="M140.33,83.68c.73-1.23,1.43-2.45,2.1-3.67-.33.54-.65,1.06-.94,1.53-.38.71-.78,1.42-1.16,2.13h0Z"/>
      <path class="cls-1" d="M140.42,84.37c-.07-.16-.08-.48-.09-.69-.59.37-.58.61.09.69Z"/>
      <path class="cls-1" d="M146.31,63.92c.1,1.06-.01,2.14-.39,3.14-3.06,8.15-8.65,12.86-14.55,18.75-.98.98-2.82-.1-1.08,1.94-3.07,1.02-3.67-2.96-4.87-5.01l-.52,1.47c-.82.88-7.05-9.47-5.64-11.26-1.36.86-1.32,2.9-3.04,3.62-1.03.43-1.34-.9-1.54-.93-1.67,2.6,1.75,3.03,3.7,1.14,1.3,4.37,3.54,7.23,6.71,8.59,1.05,3.18,4.6,5.95,6.23,1.86,6.18-4.8,11.97-10.81,15.15-18.12l1.22.26c.07-.79-.18-5.24-1.38-5.46h0Z"/>
      <path class="cls-1" d="M62.55,115.49c.56-2.02-2.09-2.84-2.44-3.44-.87-.42-1.42-1.03-.96-1.99-.75.04-.68.93-.51,1.47.03.12.89.04.77.6-1.16.66-2.8.01-3.8-.14-.15-.01-.28-.01-.44-.03,1.68,2.66-1.07,4.17-3.72,3.99.32,1.11-.97,4.39,2.51,3.2-.16-3.59,6.77-7.81,8.06-3.12.12-.18.25-.3.38-.39l.15-.16h0Z"/>
      <path class="cls-1" d="M53.96,119.16c3.58-2.25,3.01-5.08,8.06-3.12-1.29-4.69-8.22-.47-8.06,3.12Z"/>
      <path class="cls-1" d="M62.02,116.04l.38-.39c-.13.09-.26.21-.38.39Z"/>
      <path class="cls-1" d="M60.11,112.05c-.31-.53-.64-1.36-.96-1.99-.46.96.09,1.57.96,1.99Z"/>
      <path class="cls-1" d="M86.31,126.33c.28-.17.5-.44.84-.77-5.41-1.27-7.39-7.26-12.14-9.73.01,1.25.48,1.92-.69,2.89,2-.77,5.84,3.32,4.16,5.11,1.99-1.69,5.62.9,6.67,2.68.48-.12.86-.18,1.15-.18h.01Z"/>
      <path class="cls-1" d="M86.31,126.33c-.3,0-.68.06-1.15.18.55.05.88-.02,1.15-.18Z"/>
      <path class="cls-1" d="M78.48,123.83c2.14.97,4.62,1.72,6.68,2.68-1.06-1.78-4.69-4.38-6.68-2.68Z"/>
      <path class="cls-1" d="M74.32,118.72c.59,1.45,3.51,3.3,4.16,5.11,1.68-1.79-2.16-5.88-4.16-5.11Z"/>
      <path class="cls-1" d="M96.26,131.54c.88-1.63-1.46-2.69,1.72-3.83l-.78-.6c-2.17,4.61-3.42-.53-3.8-4.15l-.71-.32c1.41.78-.89.74-.85,1.37.05.8,1.52,4.78,1.35,4.97-.22.24-1.02.06-1.36.21-.17.08-.36.6-.6.78,2.13-.72,4.38-.24,4.5,2.25.18-.34.36-.55.54-.68h-.01Z"/>
      <path class="cls-1" d="M93.41,120.35s.12-.04.19-.05c-.25-.12-.38-.47-.21-1.15-.1.28-.61.64-.61.78.29-.12.49.08.63.43h0Z"/>
      <path class="cls-1" d="M94.77,118.97c.13.18.15.38.1.56.05,0,.09,0,.14,0l-.33-1.26c-.05.22.15.5.09.69h0Z"/>
      <path class="cls-1" d="M93.92,120.34c.1.03.19.05.33.1l.69-.09c-.2-.08-.36-.16-.49-.23-.17.12-.36.2-.53.22Z"/>
      <path class="cls-1" d="M91.22,129.97c1.54.76,2.92,1.59,4.51,2.25-.13-2.49-2.37-2.97-4.51-2.25Z"/>
      <path class="cls-1" d="M96.26,131.54c-.18.13-.35.34-.53.68.25-.24.42-.47.53-.68Z"/>
      <path class="cls-1" d="M93.27,120.95c0,.53.05,1.24.13,2.01l.18.08c.12.03.17-.91.05-1.77-.03-.08-.04-.15-.03-.23-.05-.26-.11-.49-.19-.69-.11.09-.14.28-.14.6h0Z"/>
      <path class="cls-1" d="M93.92,120.34c-.13-.03-.24-.05-.32-.05.09.05.2.06.32.05Z"/>
      <path class="cls-1" d="M93.6,120.3c.08,0,.19.01.32.05.18-.02.36-.1.53-.22-.43-.25-.45-.47-.08-.56-.29-.24-.7-.27-.98-.43-.17.69-.04,1.03.21,1.16h0Z"/>
      <path class="cls-1" d="M94.45,120.12c.2-.15.37-.36.42-.59-.04,0-.08,0-.13,0-.03.07-.09.14-.22.16-.05-.05-.1-.08-.14-.12-.38.09-.36.31.07.56h0Z"/>
      <path class="cls-1" d="M94.87,119.53c-.05.23-.22.44-.42.59.13.07.29.15.49.23-.03-.24,1.12-1.35-.26-2.08l.34,1.26c-.06,0-.1,0-.15,0h0Z"/>
      <path class="cls-1" d="M93.6,120.3c-.08,0-.15.01-.19.05.08.19.14.43.19.69.03-.2.21-.4.65-.6-.14-.05-.23-.07-.33-.1-.12.01-.23,0-.32-.05h0Z"/>
      <path class="cls-1" d="M94.77,118.97c-.04.12.06.39-.03.56.04,0,.09,0,.13,0,.05-.18.03-.38-.1-.56Z"/>
      <path class="cls-1" d="M93.41,120.35c-.14-.34-.35-.55-.63-.43-.02.56.47,1.54.14,2-.26.37-1.11.13-1.27.26.48.18.81.33,1.04.46l.71.32c-.08-.78-.12-1.49-.12-2.01,0-.32.02-.51.13-.6Z"/>
      <path class="cls-1" d="M93.58,123.04l-.18-.08c.39,3.62,1.63,8.76,3.8,4.15-.66.39-.95,1.1-1.99.95l1.17-1.9c-2.73-.29-.63-1.61-1.22-3.2-.22-.59-1.32-1.14-1.52-1.69.11.86.06,1.81-.05,1.77h-.01Z"/>
      <path class="cls-1" d="M120.16,124.93v-.15c-.12-.7-1.17-3.72-1.31-3.84-.57-.49-4.07.8-2.59-4.68-1.55,1.27-2.44-.01-1.99-1.85l-2.35.98c.33,1.28.24,2.83.53,4.16,2.44-.39,6.34,2.89,6.32,5.54.39-.12,1.31-.06,1.39-.17Z"/>
      <path class="cls-1" d="M112.45,119.57c2.1,1.69,4.09,3.71,6.32,5.54.02-2.65-3.88-5.93-6.32-5.54Z"/>
      <path class="cls-1" d="M48.5,120.54s.03,0,.05,0c.02-.18.01-.41-.05-.68h-.08s.08.69.08.69h0Z"/>
      <path class="cls-1" d="M51.45,115.95c-.21-.7-.73-1.76-1.04-2.69-.08-.22-.02-.48-.09-.69-1.42,1.87-2.43,3.98-3.47,6.07-.11.58-.28.89-.49.99-.21.42-.43.84-.63,1.27,1.13-1.14,1.58-.79.78.61.14-.27.46-.5.6-.78.41-.76,1.03-1.23,1.22-1.56.61-1.13.6-2.66,1.29-3.69,1,.69-.04,2.57.09,3.52.01.09.89.05.79.6l-2,.26c.06.28.07.51.05.68,1.28-.29,2.91-.15,4.11-.51l1.3-.87c-3,1.93-4.44-1.13-2.51-3.2h0Z"/>
      <path class="cls-1" d="M53.96,119.16l-1.3.87c.87-.26.91-.62,1.3-.87Z"/>
      <path class="cls-1" d="M46.51,121.5c.8-1.4.35-1.75-.78-.61.37-.12.83.14.78.61Z"/>
      <path class="cls-1" d="M51.45,115.95c-1.93,2.07-.49,5.13,2.51,3.2-3.48,1.18-2.19-2.1-2.51-3.2Z"/>
      <path class="cls-1" d="M126.52,125.83c-.72.29-1.57.13-2.11-.73-.24.1-.56.66-1.3.87.13.24-.11.91.25,1.25.52.5,2.63.4,3.47.39-.38-.62-.44-1.22-.31-1.78h0Z"/>
      <path class="cls-1" d="M126.52,125.83c-.13.56-.07,1.17.31,1.78,1.4-1.82,1.64-2.01.96-3.64-.03.9-.59,1.58-1.27,1.85Z"/>
      <path class="cls-1" d="M126.52,125.83c.17-.7.65-1.34,1.27-1.86-1.2.18-2.28.68-3.39,1.13.55.86,1.4,1.02,2.12.73h0Z"/>
      <path class="cls-1" d="M126.52,125.83c.68-.28,1.24-.95,1.26-1.86-.61.51-1.09,1.15-1.26,1.86Z"/>
      <path class="cls-1" d="M159.16,127.08c.97,1.74,1.49,3.66.8,4.67.16.02.32.05.5.1.2-1.18.32-2.35.26-3.55l-1.56-1.21Z"/>
      <path class="cls-1" d="M156.99,132.28c.5.4,1.05.82,1.56,1.21-.06-.44-.05-.78.02-1.06-.43.04-.95,0-1.58-.16Z"/>
      <path class="cls-1" d="M160.46,131.85c-.18-.04-.35-.08-.5-.1-.26.38-.69.62-1.33.68.1.27.1.63-.08,1.06,1.4.02,1.41-1.1,1.9-1.65h.01Z"/>
      <path class="cls-1" d="M158.63,132.43s-.04,0-.05,0c-.08.27-.09.62-.03,1.06.18-.43.18-.79.08-1.06h0Z"/>
      <path class="cls-1" d="M159.16,127.08c.02,1.51.48,3.12.58,4.65.07,0,.14,0,.22.01.69-1.01.17-2.93-.81-4.67h.01Z"/>
      <path class="cls-1" d="M158.6,132.36c.13-.38.41-.58.84-.62l-1.98-1.28-.47,1.83c.72-.53,1.37-.41,1.61.07Z"/>
      <path class="cls-1" d="M158.6,132.36c-.24-.49-.89-.61-1.61-.07.63.15,1.15.19,1.59.16,0-.03.01-.06.02-.08Z"/>
      <path class="cls-1" d="M159.76,131.94l-.31-.2c-.44.04-.71.24-.84.62.01.02.01.05.02.08.64-.06,1.07-.31,1.33-.68-.08-.01-.15-.01-.22-.01,0,.07.02.13.02.2h0Z"/>
      <path class="cls-1" d="M158.57,132.44s.04,0,.06,0c-.01-.03-.02-.05-.03-.08-.01.03-.02.05-.03.08h0Z"/>
      <path class="cls-1" d="M142.59,101.7c.16.41-1.27,1.8,2.48,2.81.82.22,1.16-.47,1.33-.47l-.08-.69c-.64-.09-.65-.33-.09-.69l-1.56-1.21c-.64-.12-.66-.35-.09-.69l-2.24-1.13.25,2.08h0Z"/>
      <path class="cls-1" d="M146.32,103.35c-.09-.22.02-.54-.09-.69-.56.36-.55.6.09.69Z"/>
      <path class="cls-1" d="M144.67,101.44c-.12-.16.04-.54-.08-.69-.58.34-.56.58.08.69Z"/>
      <path class="cls-1" d="M90.97,129.01c.21,0,.49.06.86.19l-.26-2.08c-.45-.08-1.12-.54-1.48-.52-1.19.07-2.28.74-3.37,1.13,1.9-.25,3.59-.26,4.25,1.28Z"/>
      <path class="cls-1" d="M90.97,129c-.66-1.55-2.35-1.53-4.25-1.28,1.48.7,3.02,1.52,4.5,2.25-.82-.57-.83-.97-.25-.97Z"/>
      <path class="cls-1" d="M91.83,129.2c-.37-.13-.65-.19-.86-.19.11.28.21.59.25.97.25-.18.44-.7.61-.78h0Z"/>
      <path class="cls-1" d="M91.22,129.97c-.04-.38-.14-.69-.25-.97-.58,0-.57.4.25.97Z"/>
      <path class="cls-1" d="M51.62,120.59c-1.44.64-2.98.77-3.56.43-.23,0-.54-.09-.95-.3l.57,1.88c.05.03.1.07.16.1l3.52-1.8c.1.07-1.02,2.17-1.13,2.25.34-.34,1.03-.54,1.3-.87-.31-.75-.26-1.3.09-1.69h0Z"/>
      <path class="cls-1" d="M49.71,118.99l-1.38.17c.07.23.12.43.16.61.3-.24.69-.5,1.22-.79Z"/>
      <path class="cls-1" d="M51.53,122.28c.45-.53.69-1.62,1.13-2.25-.33.22-.68.4-1.04.56-.34.39-.4.94-.09,1.69Z"/>
      <path class="cls-1" d="M47.84,122.71c-.06-.03-.11-.07-.16-.1l.05.16.11-.06Z"/>
      <path class="cls-1" d="M48.5,119.85l2-.26c.1-.55-.78-.51-.79-.6-.53.29-.92.55-1.22.79,0,.03.01.05.01.07h0Z"/>
      <path class="cls-1" d="M48.06,121.02c.28,0,.45-.17.49-.49-.02,0-.03,0-.05,0l-.08-.68h.08s0-.06-.01-.09c-.76.61-.8,1.03-.42,1.25h-.01Z"/>
      <path class="cls-1" d="M48.49,119.77c-.04-.18-.09-.39-.16-.61-.19.34-.81.8-1.21,1.56.4.21.71.3.94.3-.38-.22-.34-.64.43-1.25Z"/>
      <path class="cls-1" d="M48.55,120.53c-.04.32-.21.48-.49.49.58.33,2.12.2,3.57-.43.22-.25.54-.45,1.03-.56-1.2.36-2.82.22-4.11.51h0Z"/>
      <path class="cls-1" d="M52.66,120.03c-.5.11-.81.31-1.04.56.36-.16.71-.34,1.04-.56Z"/>
      <path class="cls-1" d="M49.03,128.21c.43-1.73,1.76-1.43,1.9.49l-.09-.69c-.12-1.4.17-2.85.87-4.33l-3.03,3.9.35.64h0Z"/>
      <path class="cls-1" d="M51.71,123.67c-.7,1.49-.99,2.93-.87,4.33,1.8-1.09,1.13-2.54.87-4.33Z"/>
      <path class="cls-1" d="M48.39,127.02c.02.21.11.39.29.54-.02-.37-.14-.5-.29-.54Z"/>
      <path class="cls-1" d="M48.06,128.33c1.01-.21,1.91.14,2.87.36-.14-1.92-1.47-2.22-1.9-.49l-.35-.64c0,.09-.62.4-.62.77h0Z"/>
      <path class="cls-1" d="M108.35,115.56c.4.11.73.25.99.41-.26-.28-.57-.56-.97-.83.06.2.04.33-.02.42Z"/>
      <path class="cls-1" d="M109.34,115.98c-.26-.17-.59-.31-.99-.42-.15.21-.59.14-1.36-.24.74.49,2.19,1.72,3.12,2.43.04-.61-.23-1.19-.77-1.77Z"/>
      <path class="cls-1" d="M108.37,115.15c-.43-.02-.93.17-1.38.17.52.05.96.13,1.36.24.06-.09.08-.22.02-.42Z"/>
      <path class="cls-1" d="M108.35,115.56c-.4-.11-.84-.19-1.36-.24.77.38,1.21.45,1.36.24Z"/>
      <path class="cls-1" d="M111.59,117.04c.01-.19.01-.38.04-.58-.31-.63-1.7-1.24-3.26-1.32.4.27.71.55.97.83.66.41.92,1,.77,1.77.82-.18,1.29-.43,1.48-.7Z"/>
      <path class="cls-1" d="M109.34,115.98c.54.57.81,1.16.77,1.77.16-.77-.11-1.35-.77-1.77Z"/>
      <path class="cls-1" d="M111.63,116.46c-.03.2-.03.39-.04.58.14-.19.14-.38.04-.58Z"/>
      <path class="cls-1" d="M61.46,112.37c1.1.74,1.92,2.45,1.68,3.28.28.17.57.52.88,1.05.03-.07.08-.15.16-.24l-1.99-4.68c-.06.39-.31.57-.74.58h.01Z"/>
      <path class="cls-1" d="M64.02,116.71c-.31-.53-.6-.88-.88-1.05-.12.39-.46.59-1.12.38.37.15,1.36.75,2.25,1.13-.25-.12-.33-.28-.25-.46Z"/>
      <path class="cls-1" d="M62.19,111.79c-.1.05-1.48-.49-2.08.26.46-.11.92.04,1.35.32.42,0,.68-.19.73-.58h0Z"/>
      <path class="cls-1" d="M64.02,116.71c.08.14.16.29.25.45l-.09-.69c-.08.08-.13.16-.16.24Z"/>
      <path class="cls-1" d="M64.27,117.16c-.09-.17-.17-.31-.25-.46-.07.18,0,.33.25.46Z"/>
      <path class="cls-1" d="M61.46,112.37c-.34,0-.78-.09-1.35-.32.35.61,3,1.43,2.44,3.44l-.16.16c.24-.15.49-.16.75,0,.24-.83-.58-2.54-1.69-3.28h.01Z"/>
      <path class="cls-1" d="M63.14,115.65c-.26-.16-.51-.16-.74,0l-.38.39c.66.2,1,0,1.12-.38h0Z"/>
      <path class="cls-1" d="M60.11,112.05c.57.24,1.01.33,1.35.32-.43-.28-.89-.43-1.35-.32Z"/>
      <path class="cls-1" d="M142.82,93.07c-.28-.37-.61-1.12-.75-1.16-.22-.06-.5.15-.69.09-.33-.11-1.21.33-1.39.17-.18-.17-.11-1.52-.26-2.08-.1-.03-.61.03-.69.09.17.91.16,1.87.35,2.77,1.45-.35,1.54-.28,1.56,1.21l.53-.35c.22-.17.47-.35.77-.51.12-.47.32-.52.57-.23h0Z"/>
      <path class="cls-1" d="M142.24,93.3c-.29.16-.54.34-.76.51l.76-.51Z"/>
      <path class="cls-1" d="M142.24,93.3c.18-.12.55.03.69-.09-.03-.04-.07-.08-.12-.14-.25-.29-.45-.24-.57.23h0Z"/>
      <path class="cls-1" d="M98.33,127.1s-.09.02-.13.03c-.05.15-.11.34-.22.6.08-.25.2-.45.35-.62h0Z"/>
      <path class="cls-1" d="M100.06,127.46c.14-.5.37-.98.52-1.47-.34.25-.72.49-1.13.7.26.09.49.33.61.77Z"/>
      <path class="cls-1" d="M97.2,127.11c.87-.47,1.16-.56,1,.01.04,0,.09-.02.13-.03.28-.32.64-.5.97-.46.05-.3.5-.55,1.28-.65-.61-1.4-2.46.57-3.38,1.13h0Z"/>
      <path class="cls-1" d="M99.3,126.64c.05,0,.1.03.15.05.41-.21.79-.45,1.13-.7-.79.11-1.23.35-1.28.65h0Z"/>
      <path class="cls-1" d="M98.2,127.12c-.35.06-.68.07-1-.01l.78.61c.1-.25.17-.44.22-.6h0Z"/>
      <path class="cls-1" d="M98.2,127.12c.16-.57-.13-.48-1-.01.32.08.65.07,1,.01Z"/>
      <path class="cls-1" d="M99.29,126.76c-.32.15-.64.26-.96.33-.15.17-.27.38-.35.62.58-.2,1.44-.09,2.08-.26-.48-.24-.72-.48-.77-.7Z"/>
      <path class="cls-1" d="M99.45,126.68c-.05.03-.11.05-.16.08.05.22.29.46.77.7-.12-.44-.35-.68-.61-.77Z"/>
      <path class="cls-1" d="M99.3,126.64c-.33-.04-.69.13-.97.45.32-.07.64-.19.96-.33-.01-.04,0-.08.01-.12h0Z"/>
      <path class="cls-1" d="M99.45,126.68c-.05-.02-.1-.04-.15-.05-.01.04-.02.08-.01.12.05-.03.11-.05.16-.08Z"/>
      <path class="cls-1" d="M30.54,61.55c.59-.54.49-1.48-.27-2.81-.03.23-.26.5-.69.82.96.24.83,1.23.96,1.99Z"/>
      <path class="cls-1" d="M29.24,56.78c.08.46.09.93.17,1.39.27.03.48.09.62.16-.26-.2-.52-.72-.79-1.55Z"/>
      <path class="cls-1" d="M30.07,58.35c.12.07.19.16.21.27l.25-.31c-.15.13-.31.14-.46.04Z"/>
      <path class="cls-1" d="M30.27,58.74s-.02-.05-.03-.07l.04-.05c-.02-.11-.09-.2-.21-.27-.02,0-.03,0-.04-.02-.15-.08-.35-.13-.62-.16.08.46.1.93.17,1.39.43-.31.65-.59.69-.82h0Z"/>
      <path class="cls-1" d="M30.07,58.35c.15.11.31.09.46-.04l.26-.32c-.16-.35-1.19-.84-1.56-1.21.27.83.54,1.34.8,1.55.01,0,.03.01.04.02h0Z"/>
      <path class="cls-1" d="M30.03,58.33s.02.01.04.02c-.01,0-.03-.01-.04-.02Z"/>
      <path class="cls-1" d="M30.53,58.31l-.25.31s0,.08,0,.12c.76,1.32.86,2.26.27,2.81,1.91.76.85-2.29.26-3.55-.09.15-.18.24-.27.32h0Z"/>
      <path class="cls-1" d="M30.28,58.62l-.04.05s.02.05.03.07c0-.04.02-.08,0-.12h0Z"/>
      <path class="cls-1" d="M30.8,57.99l-.26.32c.08-.07.17-.17.26-.32Z"/>
      <path class="cls-1" d="M38.78,82.34c-.64-.13-.66-.36-.09-.69-.24.19-.46.33-.66.46.25.07.52.13.75.24h0Z"/>
      <path class="cls-1" d="M38.78,82.34c-.13-.11.04-.61-.09-.69-.57.33-.55.56.09.69Z"/>
      <path class="cls-1" d="M37.14,80.71c-.23.53-.34.93-.36,1.21.11,0,.21.02.32.03.25-.47.08-1.32.04-1.24h0Z"/>
      <path class="cls-1" d="M37.83,80.35c-1.55-.43-1.41,1.18-1.85,1.58.27-.01.54-.03.8-.02.02-.28.13-.68.36-1.21.03-.08.21.78-.04,1.24.32.03.63.08.92.15.21-.12.43-.27.67-.46-.44-.28-1.93,1.07-.86-1.29h0Z"/>
      <path class="cls-1" d="M36.81,82.21c-.2.07-.48.03-.89-.21-.4.25-.92.35-1.55.31,1.13.19,2.98.81,4.41.03-.23-.1-.49-.17-.76-.24-.65.4-1.1.47-1.21.1Z"/>
      <path class="cls-1" d="M35.92,81.99c-.42.23-1.5.06-2.08.26.15,0,.33.02.53.05.63.03,1.15-.07,1.55-.31Z"/>
      <path class="cls-1" d="M36.81,82.21c-.02-.08-.04-.17-.03-.29-.26-.01-.53,0-.8.02-.02.02-.04.05-.06.06.41.24.69.28.89.21Z"/>
      <path class="cls-1" d="M36.81,82.21c.11.36.56.29,1.21-.1-.29-.08-.6-.12-.92-.15-.06.12-.16.21-.29.26Z"/>
      <path class="cls-1" d="M37.1,81.95c-.11-.01-.21-.03-.32-.03,0,.12.01.21.03.29.13-.04.23-.14.29-.26Z"/>
      <path class="cls-1" d="M148.32,108.03c-.12-1.04.99-1.16,1.38-.17l-.09-.69c-.63-.09-.65-.33-.08-.69l-2.08.26c.19.45.69.87.87,1.3h0Z"/>
      <path class="cls-1" d="M149.61,107.16c-.08-.22.02-.54-.08-.69-.57.37-.55.6.08.69Z"/>
      <path class="cls-1" d="M148.31,108.03l1.39-.17c-.39-.98-1.5-.87-1.39.17Z"/>
      <path class="cls-1" d="M143.7,121.55c.02.12.03.26.03.43.02-.18,0-.32-.03-.43Z"/>
      <path class="cls-1" d="M142.95,121.37c.26.2.52.4.78.6,0-.17-.01-.31-.03-.43-.09-.28-.34-.34-.75-.18h0Z"/>
      <path class="cls-1" d="M143.22,120.64l-.27.73c.43-.29.67-.21.75.18.03.11.05.24.03.43l.64-.44c.03-1.1-.1-1.19-1.15-.9h0Z"/>
      <path class="cls-1" d="M143.7,121.55c-.08-.39-.32-.47-.75-.18.41-.16.66-.1.75.18Z"/>
      <path class="cls-1" d="M103.22,116.29c-.09.11-.18.18-.28.22.06.2.09.43.06.72l.13-.17c.14-.21.34-.54.48-.61-.2-.04-.31-.1-.39-.16h0Z"/>
      <path class="cls-1" d="M103.61,116.45c.05-.19-.12-.46-.09-.7-.09.22-.2.4-.3.53.08.06.19.12.39.16h0Z"/>
      <path class="cls-1" d="M102.13,115.93c.44,0,.7.21.81.57.09-.04.19-.11.28-.22-.17-.14-.09-.31.3-.53-.43.12-1.01.03-1.39.17Z"/>
      <path class="cls-1" d="M103.22,116.29c.1-.13.21-.31.3-.53-.39.22-.47.39-.3.53Z"/>
      <path class="cls-1" d="M102.94,116.51c-.27.12-.55-.05-.81-.57l.14,1.03c.18.44.47.23.73.27.03-.3,0-.53-.06-.72h0Z"/>
      <path class="cls-1" d="M102.94,116.51c-.11-.37-.37-.57-.81-.57.26.52.54.69.81.57Z"/>
      <path class="cls-1" d="M51.29,128.36c-.05.1-.15.21-.36.33l.44-.29s-.05-.03-.08-.04Z"/>
      <path class="cls-1" d="M51.29,128.36s.05.03.08.04l.86-.57c-.29-.1-.96.21-1.39.17.4.08.52.2.45.36h0Z"/>
      <path class="cls-1" d="M51.37,128.4l-.44.29c.48.11.83.32,1.06.44.12-.08.25-.14.39-.19-.01-.21-.06-.56-.15-1.11.02.68-.4.8-.86.57Z"/>
      <path class="cls-1" d="M52.38,128.94c-.14.05-.27.11-.39.19.27.13.39.15.39-.19Z"/>
      <path class="cls-1" d="M52.23,127.82l-.86.57c.46.22.88.11.86-.57Z"/>
      <path class="cls-1" d="M51.29,128.36c-.15-.09-.31-.21-.45-.36l.09.69c.21-.13.31-.24.36-.33h0Z"/>
      <path class="cls-1" d="M51.29,128.36c.07-.16-.05-.29-.45-.36.14.15.3.27.45.36Z"/>
      <path class="cls-1" d="M130.9,119.17c-.73-.17-.8-.1-.17.22.04-.11.1-.17.17-.22Z"/>
      <path class="cls-1" d="M130.73,119.38c.22-.06.48,0,.69-.09-.2-.05-.37-.1-.52-.13-.07.04-.13.1-.17.22h0Z"/>
      <path class="cls-1" d="M129.43,119.39c.44-.08.89-.09,1.3,0-.63-.31-.56-.38.17-.22.14-.09.31-.04.52.13-1.27-1.28-2.63-.24-1.99.09Z"/>
      <path class="cls-1" d="M130.9,119.17c.15.03.32.08.52.13-.21-.17-.38-.21-.52-.13Z"/>
      <path class="cls-1" d="M129.43,119.39c.2.11.61.14,1.3,0-.41-.09-.86-.07-1.3,0Z"/>
      <path class="cls-1" d="M140.77,98.41c.19,1.15.27,2.32.43,3.47-2.36-.64-1.71-4-2.16-6.06-1.04.88-.37,2.96-.17,4.25.34,2.28.97,2.4,1.04,2.69,2.02-.06,2.97,1.72,4.75,2.4.69.26,1.66-.02,2.61.19.07-.26.15-.39.24-.43.02-.04.04-.09.1-.14-.55.29-1.24,0-1.2-.72-.44,2.58-7.29-1.97-3.82-2.34-.86-.06-1.47-1.16-1.82-3.29h0Z"/>
      <path class="cls-1" d="M147.52,104.91c.12-.05.27.05.45.35l-.09-.69c-.08.09-.18.15-.27.2-.05.05-.08.1-.09.14h0Z"/>
      <path class="cls-1" d="M146.41,104.04c-.18,0-.52.69-1.34.47-3.75-1.01-2.32-2.4-2.48-2.81-3.47.37,3.38,4.92,3.82,2.34Z"/>
      <path class="cls-1" d="M142.59,101.7c-.34-.9-1.31-2.35-1.82-3.29.35,2.13.95,3.23,1.82,3.29Z"/>
      <path class="cls-1" d="M147.52,104.91c-.1.04-.18.17-.24.43.22.05.51-.16.69-.09-.38-.07-.52-.19-.45-.35Z"/>
      <path class="cls-1" d="M147.52,104.91c-.06.15.07.27.45.35-.18-.3-.33-.4-.45-.35Z"/>
      <path class="cls-1" d="M147.61,104.76c.06-.06.15-.13.27-.2-.45-.09-1.1-.53-1.48-.52-.03.73.66,1.01,1.21.72h0Z"/>
      <path class="cls-1" d="M147.88,104.56c-.12.07-.2.14-.27.2.1-.05.19-.12.27-.2Z"/>
      <path class="cls-1" d="M162.38,131.09c-.06-.18-.12-.36-.15-.55-.07.21-.2.38-.47.44.22-.07.43-.02.62.11Z"/>
      <path class="cls-1" d="M162.54,131.44c-.06-.11-.11-.23-.16-.35-.19-.13-.4-.18-.62-.11.12.44.68,1.41.95,1.99-.34-.87-.38-1.38-.17-1.54Z"/>
      <path class="cls-1" d="M162.68,131.39c-.09-.12-.18-.23-.3-.3.05.12.1.24.16.35.03-.03.09-.03.14-.04Z"/>
      <path class="cls-1" d="M162.38,131.09c.12.08.21.18.3.3.26-.03.7.2,1.33.71-.97-.6-1.22-1.92-1.74-2.6.05.36.07.74-.04,1.03.03.19.08.37.15.55h0Z"/>
      <path class="cls-1" d="M162.94,131.95c.08.36.03.75-.23,1.02l1.3-.87c-.4.23-.77.12-1.07-.15h0Z"/>
      <path class="cls-1" d="M162.68,131.39c.11.17.21.35.26.56.3.27.67.38,1.07.15-.63-.52-1.07-.74-1.33-.71Z"/>
      <path class="cls-1" d="M162.54,131.44c-.21.16-.17.67.17,1.54.26-.27.31-.65.23-1.02-.16-.14-.29-.31-.4-.52Z"/>
      <path class="cls-1" d="M162.54,131.44c.11.21.24.38.4.52-.05-.2-.15-.39-.26-.56-.05,0-.11.01-.14.04Z"/>
      <path class="cls-1" d="M161.91,129.67c-.28.31-.25.97-.15,1.31.27-.06.4-.23.47-.44-.06-.36-.05-.73.04-1.03-.12.1-.24.15-.36.16h0Z"/>
      <path class="cls-1" d="M162.23,130.54c.11-.29.09-.67.04-1.03-.09.3-.1.66-.04,1.03Z"/>
      <path class="cls-1" d="M162.27,129.51c-.15,0-.27.07-.36.16.12-.02.23-.06.36-.16Z"/>
      <path class="cls-1" d="M160.16,121.98c-.22-.17-.37-.61-.4-1.31l-.43,2.17c.32-.37.57-.56.75-.6.03-.09.05-.18.08-.26h0Z"/>
      <path class="cls-1" d="M160.16,121.98c-.03.08-.06.17-.08.26.33-.07.39.37.03,1.21.62-.57,1.02-1.43,1.12-2.25-.41.77-.79,1-1.07.79Z"/>
      <path class="cls-1" d="M160.08,122.24c-.18.04-.43.23-.75.6.28.16.52.4.77.6-.11-.39-.12-.82-.02-1.21h0Z"/>
      <path class="cls-1" d="M160.08,122.24c-.09.38-.08.81.03,1.21.36-.84.3-1.28-.03-1.21Z"/>
      <path class="cls-1" d="M159.13,121.21c.2-.12.35-.29.47-.41-.19.14-.34.28-.47.41Z"/>
      <path class="cls-1" d="M160.16,121.98c.18-.44.53-.76,1.07-.79-.3-.17-1.15-.48-1.47-.52.03.7.18,1.14.4,1.31h0Z"/>
      <path class="cls-1" d="M160.16,121.98c.28.21.66-.02,1.07-.79-.54.02-.89.35-1.07.79Z"/>
      <path class="cls-1" d="M159.98,126.97c.09.11.18.25.27.4.03-.17.11-.32.29-.46-.23.09-.42.1-.56.06h0Z"/>
      <path class="cls-1" d="M159.81,126.82c.06.04.11.09.17.15.14.04.33.03.56-.06-.23-.38-.54-.68-.86-1.3.21.57.25.97.14,1.21h-.01Z"/>
      <path class="cls-1" d="M159.71,126.76c-.16-.25-.16-.68-.04-1.15-.29.42-.52.96-.52,1.47.18-.35.37-.41.56-.33Z"/>
      <path class="cls-1" d="M159.71,126.76s.07.03.11.06c.11-.24.07-.64-.15-1.21-.12.47-.12.89.04,1.15Z"/>
      <path class="cls-1" d="M160.25,127.37c-.09-.15-.18-.29-.27-.4-.08-.02-.14-.06-.2-.11-.11.18-.3.27-.62.23l1.56,1.21c-.37-.35-.51-.66-.47-.93h0Z"/>
      <path class="cls-1" d="M159.98,126.97c-.06-.06-.11-.11-.17-.15,0,.02-.02.02-.03.04.06.05.12.09.2.11h0Z"/>
      <path class="cls-1" d="M159.78,126.85s-.05-.06-.07-.1c-.19-.09-.38-.03-.56.33.33.04.52-.05.63-.23h0Z"/>
      <path class="cls-1" d="M159.81,126.82s-.07-.04-.1-.06c.02.04.04.07.07.1.01-.01.03-.02.03-.04Z"/>
      <path class="cls-1" d="M160.25,127.37c.17.29.33.64.46.93-.02-.46-.13-.92-.17-1.39-.19.14-.26.29-.29.46Z"/>
      <path class="cls-1" d="M160.71,128.3c-.13-.29-.29-.63-.46-.93-.05.27.09.58.46.93Z"/>
      <path class="cls-1" d="M83.42,112.65c.2.35-.16,2.09,1.2,1.25,1.03-.63,1.13-2.4,1.55-2.81.21-.2,1.23.14,1.73-.24,1.16-.9,1.71-2.24,3.04-2.67.91.46-1.36,3.4-.06,3.56.25-.07.52-.12.86-.13l.69-.09c.93-.12,1.63.11,1.29-.86l-1.37.16c-.56-1.22.46-1.29.51-1.47.13-.46.72-1.2.51-1.46-.04-.06-.92-.03-1.46-.54-.25-.23-.61-.4-.78-.6-1.53-1.79-1.41-2.15,1.12-2.25l-.04-.34c-.03-.12-.07-.25-.04-.36-.59-.6-1.33-.97-1.65-1.9-.14-.4-.06-.95-.17-1.39-.06-.88.89-.64,1.3-.87-.93-.59-1.91-.93-2.95-1.04-.8.82-1.92.88-2,.96-.23.26.81.94.87,1.29.05.23.05.46.09.69.27,1.68,1.04,4.38,0,5.63.2,1.76,1.05,3.16-1.04,2.94.93-1.57-.4-3.13-.43-3.46l-.6.78c-.14-.68-.12-1.4-.27-2.08-.09-.45-.05-.96-.17-1.39-.61.91-.53,1.93-1.04,2.95,1.51,1.41.66,2.39-1.21,1.56,2.33.57,1.57,2.42.52,4.16h0Z"/>
      <path class="cls-1" d="M84.11,106.93c-.44.88-.77.99-1.21,1.56,1.87.83,2.72-.15,1.21-1.56Z"/>
      <path class="cls-1" d="M90.17,96.32c-.62.65-.87,1.66-1.48,2.28,1.04.11,2.03.45,2.95,1.04-.06-1.38-.16-2.64-1.47-3.32Z"/>
      <path class="cls-1" d="M34.65,106.8c-1.38.16-2.16.97-3.14,1.8.18.47,1.24,1.52.96,1.99-.45.74-2.33.29-2.77.35.98.87.53,1.42-1.33,1.67.3.38.26,1.1-.32,2.05l.69-.09c.05-.32-.33-.93-.08-1.29.17-.24,1.31-.18,1.57-1l-.79,2.2c1.3-1.55,2.71-.84,2.25,1.12.84-.92,1.22-2.59,2.43-3.12.26-.12,1.01-.16,1.38-.17-.63-.12-.65-.35-.09-.69-.21.02-2.27-.52-2.2-.78.91-1.34,2.35-2.9,3.76-3.64-1.31.97-2.16.38-2.32-.41h0Z"/>
      <path class="cls-1" d="M35.5,104.61c-.3-.32-.62-.64-.68-.62l-2.22,2.01,2.03.71c-.1-.68.32-1.46,1.39-1.49-.33-.21-.5-.41-.52-.61Z"/>
      <path class="cls-1" d="M35.5,112.32l-.09-.69c-.56.34-.54.57.09.69Z"/>
      <path class="cls-1" d="M36.02,105.22s-.26-.32-.52-.61c.02.2.19.4.52.61Z"/>
      <path class="cls-1" d="M34.63,106.71l.17.06c-.06,0-.1.03-.16.03.17.79,1.02,1.38,2.33.41-1.93-.13-.89-1.86-.95-1.99-1.08.03-1.49.81-1.39,1.49Z"/>
      <path class="cls-1" d="M28.37,112.61c1.86-.25,2.31-.81,1.32-1.67-.25.03-.67.75-.98.77-.24.01-1.47-3.6-2.31,1.06.93-.58,1.65-.56,1.97-.15Z"/>
      <path class="cls-1" d="M28.37,112.61c-.54.07-1.18.12-1.97.15.38.47,1.74,1.32,1.65,1.9.58-.95.62-1.67.32-2.05Z"/>
      <path class="cls-1" d="M29.44,114.49c.11.05,2.14,1.06,2.25,1.12.46-1.97-.95-2.68-2.25-1.12Z"/>
      <path class="cls-1" d="M26.4,112.76c.79-.02,1.43-.07,1.97-.15-.32-.42-1.04-.43-1.97.15Z"/>
      <path class="cls-1" d="M53.87,107.2c-1.68-.18-3.03,1.47-3.43.77-.03.42-.16.7-.39.82,1.05,1.02,1.46,2.67.27,3.79.62.16.65.39.08.69,1.42-.67,3.22-1.18,4.77-1.3.12,0,.27,0,.43.03,1.63.12,2.66-.02,3.03-.46-3.11,1.34-7.29-.89-4.76-4.33h0ZM51.53,111.01c-.85-.66.36-2.21,1.21-1.55.85.66-.36,2.21-1.21,1.55Z"/>
      <path class="cls-1" d="M50.05,108.79c.23-.12.36-.4.39-.82-.11-.18-.15-.49-.13-1.03-.6.23-1.23.86-1.99.95.66.08,1.25.43,1.73.89h0Z"/>
      <path class="cls-1" d="M55.6,111.99c1.01.15,2.65.8,3.81.14.11-.56-.74-.47-.78-.6-.37.44-1.4.58-3.03.46Z"/>
      <path class="cls-1" d="M50.32,112.58c.07.22.01.48.08.69.57-.31.54-.54-.08-.69Z"/>
      <path class="cls-1" d="M50.05,108.79c-.4.2-1.04-.07-1.73-.89.6,1.59,1.47,3.12,2,4.68,1.19-1.12.78-2.77-.27-3.79h0Z"/>
      <path class="cls-1" d="M50.05,108.79c-.48-.46-1.07-.81-1.73-.89.69.82,1.33,1.09,1.73.89Z"/>
      <path class="cls-1" d="M53.87,107.2c-2.53,3.43,1.65,5.67,4.76,4.33-3.83.56-3.57-1.08-4.76-4.33Z"/>
      <path class="cls-1" d="M62.34,82.19c.37-.03,2.35-3.56,3.38-3.93-.17-.36.01-1.11-.17-1.39-.46-.71-1.64-1.32-2.34-1.82-.2,1.32-1.38,1.7-2.6,1.74-.49,1.15-.08,2.54-1.82,2.34.02.22.02.54.09.69,1.68-.63,2.89,2.42,3.46,2.37Z"/>
      <path class="cls-1" d="M64.14,81.83c-.13.06-.25.13-.35.2.12-.06.23-.12.35-.2Z"/>
      <path class="cls-1" d="M37.08,101.54l-.8.12c.06.77.18,1.38.26,2.08.12-.63.35-.65.69-.09.82.06.95-.54,1.3-.87-.72.11-1.21-.46-1.45-1.25h0Z"/>
      <path class="cls-1" d="M37.17,101.53h-.09c.24.81.73,1.37,1.45,1.26-1.81-2.5.08-3.59.78-5.02-1.39,1.05-2.37,1.96-2.14,3.77Z"/>
      <path class="cls-1" d="M36.54,103.74l.69-.09c-.34-.56-.57-.54-.69.09Z"/>
      <path class="cls-1" d="M38.1,97.83c-2.67-.45-3.34-5.02-6.42-4.73.47,2.69,3.92,4.65,4.74,6.43.53,1.15-.18,1.73-.14,2.14l.8-.12c-.4-1.3-.1-3.19,1.02-3.71h0Z"/>
      <path class="cls-1" d="M38.1,97.83c-1.12.53-1.42,2.42-1.02,3.72h.09c-.23-1.82.74-2.73,2.13-3.78-.45.11-.84.13-1.21.07h.01Z"/>
      <path class="cls-1" d="M72.85,112.57c-.21-.35-2.04-.42-1.64-1.9l2.33,1.82c1.23,1.01,2.27.82,3.64.95l.52-1.47-.09-.69c-1.33,1.24-3.3.97-5.91-.8-.36.13-.61.15-.81.13-.23.14-.58.22-1.08.24,1.04-.19,1.24,1.09.18,1.39l2.94,1.04c-.09-.21.02-.52-.08-.69h0Z"/>
      <path class="cls-1" d="M71.36,108.79c-.16-.02-.3-.07-.42-.2-.24,0-.48.11-.7.09.23.22.39.42.54.61.15-.18.35-.35.58-.49h0Z"/>
      <path class="cls-1" d="M70.89,110.59c-.65-.07-.62-.72-.11-1.31-.15-.19-.31-.39-.54-.61.11.74-.39,1.57-.43,2.16.5-.02.85-.11,1.08-.24h0Z"/>
      <path class="cls-1" d="M72.32,108.41c-.45.01-.93.18-1.38.17.12.13.26.18.42.2.28-.17.59-.32.96-.38Z"/>
      <path class="cls-1" d="M69.81,110.83c0,.07.26.36.18,1.39,1.06-.3.86-1.57-.18-1.39Z"/>
      <path class="cls-1" d="M71.36,108.79c-.23.14-.43.31-.58.49.15.2.25.38.32.54l-.07-.54c.59-.03.9-.54,1.29-.88-.37.3-.69.41-.96.38h0Z"/>
      <path class="cls-1" d="M70.89,110.59c.2.02.45,0,.81-.13,2.61,1.77,4.58,2.03,5.91.8-2.08,0-4.28-1.4-6.46-1.31.07.28-.03.49-.26.63h0Z"/>
      <path class="cls-1" d="M71.15,109.96s-.02,0-.03,0l-.02-.14c-.07-.16-.17-.34-.32-.54-.51.59-.54,1.25.11,1.32.23-.15.33-.35.26-.63h0Z"/>
      <path class="cls-1" d="M72.32,108.41c-.37.06-.68.21-.96.38.27.03.59-.08.96-.38Z"/>
      <path class="cls-1" d="M65.64,80.2c-.5.77-1,1.29-1.5,1.63.53-.25,1.34-.38,2.71-.19-.18-.62-.04-1.57-.26-2.08-.27.09-.5.15-.7.19-.07.16-.15.31-.25.46Z"/>
      <path class="cls-1" d="M58.88,79.82c.5,1.09,2.22,3.48,3.24,3.51.88.02.93-.76,1.67-1.29-1.66.82-3.31-.41-4.91-2.21Z"/>
      <path class="cls-1" d="M65.64,80.2c.1-.14.18-.3.25-.46-1.16.24-1.2-.26-.16-1.49-1.03.37-3.02,3.9-3.38,3.93-.57.06-1.78-3-3.47-2.37,1.61,1.8,3.26,3.03,4.92,2.21.1-.07.21-.14.34-.2.5-.33,1.01-.86,1.51-1.63h0Z"/>
      <path class="cls-1" d="M65.89,79.75c.2-.04.43-.1.7-.19-.12-.27-.6-.74-.86-1.3.39.46.36,1,.16,1.49Z"/>
      <path class="cls-1" d="M65.89,79.75c.2-.49.23-1.03-.16-1.49-1.04,1.23-1,1.74.16,1.49Z"/>
      <path class="cls-1" d="M35.67,113.71c-.28.09-.52.16-.74.2-.63.23-1.12.63-1.16,1.43,1.47.16,3.65,1.67,3.9,3.05.42-1.01,1.34-2.36,2.51-2.43-.63-.05-.63-.29-.09-.69-1.16.05-3.11-1.54-3.72-1.64-.17-.03-.48.05-.7.09h0Z"/>
      <path class="cls-1" d="M40.18,115.96c-.02-.23-.05-.46-.09-.69-.54.4-.54.64.09.69Z"/>
      <path class="cls-1" d="M70.24,108.67c.03-.13.07-.23.11-.31-1.28-.47-1.32-.37-.11.31Z"/>
      <path class="cls-1" d="M70.35,108.36c.15-.29.34-.22.59.22.18-2.7-3.67-5.55-1.57-1.22-.36.38-4.97-.67-5.99-.76-1-.09-1.36-.82-1.71,1.02,2.85.44,5.71.72,8.57,1.04-1.21-.68-1.17-.78.11-.31Z"/>
      <path class="cls-1" d="M70.94,108.58c-.22-.08-.41-.16-.59-.22-.04.08-.07.17-.11.31.22.02.46-.09.7-.09Z"/>
      <path class="cls-1" d="M70.35,108.36c.18.06.37.14.59.22-.25-.44-.44-.51-.59-.22Z"/>
      <path class="cls-1" d="M112.97,74.81c.11.33.23.65.32,1,0-.24.01-.43.01-.6-.13-.11-.24-.24-.33-.39h0Z"/>
      <path class="cls-1" d="M112.69,72.84c-.12.12-.27.23-.44.29.18.34.34.7.49,1.07-.08-.37-.09-.83-.04-1.35h-.01Z"/>
      <path class="cls-1" d="M113.29,70.18c-.65.9-.43,1.95-1.04,2.95.17-.06.32-.16.44-.28.07-.74.26-1.62.6-2.66Z"/>
      <path class="cls-1" d="M113.29,70.18c.08,1.34-.13,2.21-.6,2.66-.05.52-.04.98.04,1.35.09.2.16.41.24.62.08.15.2.28.33.39.05-1.31.37-.91,1.38.43-1.32-1.59-1.03-3.61-1.39-5.46h0Z"/>
      <path class="cls-1" d="M113.29,70.18c-.34,1.04-.52,1.92-.6,2.66.47-.45.68-1.33.6-2.66Z"/>
      <path class="cls-1" d="M113.3,75.2c0,.17-.01.37-.01.6.45.02,1.03-.24,1.39-.17-.59,0-1.04-.15-1.38-.43Z"/>
      <path class="cls-1" d="M113.3,75.2c.34.28.78.44,1.38.43-1.01-1.34-1.32-1.74-1.38-.43Z"/>
      <path class="cls-1" d="M112.74,74.19c-.15-.37-.31-.72-.49-1.06-.61,1-1.7,1.86-2.89,1.83-.76-.02-.14-1.76-1.26-1.31-.32,3.31,2.64,2.04,5.19,2.16-.09-.35-.21-.67-.32-1-.11-.18-.19-.39-.24-.62h.01Z"/>
      <path class="cls-1" d="M112.97,74.81c-.08-.21-.15-.42-.23-.62.05.24.12.44.23.62Z"/>
      <path class="cls-1" d="M43.95,109.04c.13-.28.29-.54.46-.8-.4.11-.74-.02-1.03-.43.35.36.53.76.56,1.23h.01Z"/>
      <path class="cls-1" d="M44.41,108.24c.42-.59.95-1.1,1.66-1.47-.79-.19-2.58,1.13-2.69,1.04.29.4.63.54,1.03.43Z"/>
      <path class="cls-1" d="M43.38,107.81c-.52,1.16-.41,2.33-.25,3.55.21-.81.46-1.6.82-2.33-.03-.46-.22-.87-.57-1.23h0Z"/>
      <path class="cls-1" d="M46.07,106.77c-.63.86-1.18,1.34-1.65,1.47-.18.25-.33.52-.47.8.05.67-.22,1.44-.82,2.33,1.52-1.06,2.2-2.97,2.94-4.59Z"/>
      <path class="cls-1" d="M44.41,108.24c.48-.13,1.03-.61,1.66-1.47-.71.37-1.24.88-1.66,1.47Z"/>
      <path class="cls-1" d="M43.12,111.37c.61-.89.87-1.66.83-2.33-.36.72-.62,1.52-.83,2.33Z"/>
      <path class="cls-1" d="M78.55,85.09l-4.5-2.24c1.77.7,1.91,3.52,2.6,3.89-.81-2.25-.25-2.14,1.9-1.65h0Z"/>
      <path class="cls-1" d="M78.55,85.09c-.99.03-1.68.61-1.9,1.65.43-.73,1.11-1.34,1.9-1.65Z"/>
      <path class="cls-1" d="M78.55,85.09c-2.15-.49-2.7-.6-1.9,1.65.22-1.04.91-1.61,1.9-1.65Z"/>
      <path class="cls-1" d="M39.82,121.95c.04-.1.14-.22.36-.36-.17.11-.35.19-.53.23.06.04.12.08.17.13Z"/>
      <path class="cls-1" d="M39.82,121.95c.15.11.29.23.45.33-.05-.23-.02-.48-.09-.7-.21.14-.32.26-.36.36h0Z"/>
      <path class="cls-1" d="M39.82,121.95s-.11-.08-.17-.13c-1.13.29-2.13-.71-1.81-2.05-.63,1.5-2,1.67-2.42,3.11l4.85-.6c-.39-.06-.51-.17-.45-.33h0Z"/>
      <path class="cls-1" d="M40.27,122.28c-.16-.1-.3-.22-.45-.33-.06.16.07.27.45.33Z"/>
      <path class="cls-1" d="M37.84,119.77c.47.78,1.08,1.46,1.81,2.05.18-.05.35-.12.53-.23-.04-.07-.07-.14-.11-.21-.37-.54-1.47-1.57-2.23-1.6Z"/>
      <path class="cls-1" d="M40.18,121.59c-.01-.06-.06-.13-.11-.21.04.07.07.14.11.21Z"/>
      <path class="cls-1" d="M39.65,121.82c-.73-.59-1.34-1.27-1.81-2.05-.32,1.34.68,2.34,1.81,2.05Z"/>
      <path class="cls-1" d="M85.06,103.29c.37-.13,1.29-.04,1.39-.17.23-.33-1.02-1.76,1.21-1.56-.64-.05-.64-.29-.09-.69-.79.03-2.25-.55-2.86-.35.28.39.46.71.55.98.44.21.53.85-.2,1.79Z"/>
      <path class="cls-1" d="M85.26,101.5c-.09-.27-.27-.59-.55-.98-.09.03-.99,1.25-1.21,1.56.68-.62,1.36-.76,1.76-.58Z"/>
      <path class="cls-1" d="M87.66,101.55c-.04-.23-.05-.47-.09-.69-.55.4-.55.64.09.69Z"/>
      <path class="cls-1" d="M85.06,103.29c.73-.94.64-1.58.2-1.79.27.83-.36,1.06-1.76.58.66.16,1.32.56,1.56,1.21Z"/>
      <path class="cls-1" d="M85.26,101.5c-.4-.18-1.08-.04-1.76.58,1.4.48,2.03.25,1.76-.58Z"/>
      <path class="cls-1" d="M63.42,112.71c.02-.25.06-.48.12-.7-.17.08-.38.09-.63.04.19.15.36.38.51.66Z"/>
      <path class="cls-1" d="M62.19,111.79c.26,0,.5.09.71.26.26.05.47.04.64-.04.13-.45.33-.85.64-1.17-2.79.14-.8.31-1.99.95h0Z"/>
      <path class="cls-1" d="M63.54,112.01c-.06.22-.1.45-.12.7.41.77.67,2.01.76,3.76v-5.63c-.11.63-.31,1.02-.64,1.17h0Z"/>
      <path class="cls-1" d="M64.18,110.84c-.3.32-.51.72-.64,1.17.33-.15.53-.54.64-1.17Z"/>
      <path class="cls-1" d="M63.42,112.71c-.15-.29-.32-.51-.51-.66-.21-.04-.45-.12-.72-.25l1.99,4.68c-.59-1.5-.84-2.75-.75-3.76h-.01Z"/>
      <path class="cls-1" d="M62.19,111.79c.27.13.51.21.71.25-.21-.16-.45-.26-.71-.25Z"/>
      <path class="cls-1" d="M63.42,112.71c-.08,1.01.17,2.26.76,3.76-.09-1.75-.35-2.99-.76-3.76Z"/>
      <path class="cls-1" d="M76.38,73.4c-.07.02-.57,1.05-1.3.86.24.25.11,2.11.35,2.77,1.39.05.16-1.76.43-2.17.36-.54,4,2,2.59-1.73-.63.76-1.8.18-2.07.26h0Z"/>
      <path class="cls-1" d="M35.87,56.71c.24.09.39.35.47.59-.04-.34-.18-.54-.47-.59Z"/>
      <path class="cls-1" d="M36.34,57.3c.71-1.28.35-1.44-.78-.61.12-.04.22-.02.31.01.29.06.43.26.47.59h0Z"/>
      <path class="cls-1" d="M72.42,103.47l.93-3.63-2.67,1.04,1.74,2.59Z"/>
      <path class="cls-1" d="M54.85,103.55c-1.14-.1-1.83-1.47-3.06-1.72-.07,1.8,2.02,2.05,3.2,3.12-1.02-1.04-1.19-1.25-.14-1.4h0Z"/>
      <path class="cls-1" d="M54.99,104.95c.53-.59.36-.94.52-1.47l-.52,1.47Z"/>
      <path class="cls-1" d="M54.85,103.55c-1.05.15-.88.36.14,1.4l.52-1.47c-.24.08-.46.09-.67.08h.01Z"/>
      <path class="cls-1" d="M36.43,63.45c-.17.33-.37.65-.6.95.24-.28.44-.45.6-.53,0-.14-.01-.29,0-.42Z"/>
      <path class="cls-1" d="M36.43,63.87c.43-.22.55.22.18,1.14,1.69-1.12.38-2.2.34-2.86-.12.46-.3.89-.52,1.3-.01.13,0,.28,0,.42Z"/>
      <path class="cls-1" d="M35.82,64.4c.24-.3.44-.62.61-.95.06-.48.23-.92.52-1.3-2.41-.08-1.15,1.35-1.13,2.25h0Z"/>
      <path class="cls-1" d="M36.95,62.15c-.29.38-.46.82-.52,1.3.22-.41.4-.84.52-1.3Z"/>
      <path class="cls-1" d="M36.43,63.87c-.16.08-.36.25-.6.53.27.17.5.43.77.61-.12-.41-.16-.78-.17-1.14Z"/>
      <path class="cls-1" d="M36.43,63.87c.01.36.05.73.17,1.14.38-.92.26-1.35-.17-1.14Z"/>
      <path class="cls-1" d="M47.63,91.09c.1,1.55.96,3.49,2.59,3.9.26-.87-2.18-4.6-2.59-3.9Z"/>
      <path class="cls-1" d="M52.33,88.29c-.04-.06-.09-.11-.13-.16-.14.13-.36.25-.68.36.33-.16.6-.22.81-.2Z"/>
      <path class="cls-1" d="M52.67,89.3c.11,0,.25.13.41.4-.09-.22-.22-.42-.33-.63-.02.07-.05.15-.08.23Z"/>
      <path class="cls-1" d="M52.33,88.29c.17.25.29.52.42.79.13-.45-.03-.75-.42-.79Z"/>
      <path class="cls-1" d="M52.67,89.3c.03-.08.06-.16.08-.23-.13-.27-.25-.54-.42-.79-.21-.02-.48.04-.81.2.19.44.69.86.86,1.3.07-.33.16-.48.28-.48h.01Z"/>
      <path class="cls-1" d="M52.2,88.12c.04.06.09.1.13.16.39.03.55.34.42.79.11.21.24.41.33.63,1.18-1.78.15-2.65-1.74-2.6.93.27,1.26.66.86,1.03Z"/>
      <path class="cls-1" d="M51.34,87.1c.13.43.03,1.03.18,1.39.32-.11.54-.24.68-.36-.26-.36-.53-.71-.86-1.03Z"/>
      <path class="cls-1" d="M51.34,87.1c.33.32.6.67.86,1.03.4-.36.07-.75-.86-1.03Z"/>
      <path class="cls-1" d="M52.67,89.3c-.07.15-.16.31-.28.48l.69-.09c-.16-.27-.3-.4-.41-.4h0Z"/>
      <path class="cls-1" d="M52.39,89.78c.12-.17.21-.33.28-.48-.13,0-.22.16-.28.48Z"/>
      <path class="cls-1" d="M55.86,100.62c-2.72.74-1.87,1.3-.35,2.86-.58-1.1-.93-2.21.35-2.86Z"/>
      <path class="cls-1" d="M55.51,103.48c.44-1.5.29-1.48.35-2.86-.6,1.01-.63,1.77-.35,2.86Z"/>
      <path class="cls-1" d="M55.86,100.62c-1.28.64-.93,1.76-.35,2.86-.27-1.09-.25-1.85.35-2.86Z"/>
      <path class="cls-1" d="M60.61,76.79c.08-.18-.15-.49-.09-.69-.72.61-1.87,1.55-2.18,2.41-.19.5.45.58.45.62.37-.89.97-1.67,1.82-2.34h0Z"/>
      <path class="cls-1" d="M60.61,76.79c-.85.67-1.45,1.45-1.82,2.34,1.74.19,1.33-1.19,1.82-2.34Z"/>
      <path class="cls-1" d="M56.62,78.69c-.61-1.52-2.35-1.17-3.63-.94.61,1.52,2.35,1.17,3.63.94Z"/>
      <path class="cls-1" d="M36,71.42c-.33-.1-.99.25-1.39.17.61.29,1.07.23,1.39-.17Z"/>
      <path class="cls-1" d="M37.87,73.05c-.14-.14-.29-.28-.44-.41-.35.02-1.29.2-1.44-.6-.14.67-.83.47-1.38-.43.58,2.74,4.05,2.79,3.26,1.45Z"/>
      <path class="cls-1" d="M37.43,72.63c.15.14.3.27.44.42-.07-.12-.17-.26-.32-.4-.02-.01-.06-.02-.12-.01h0Z"/>
      <path class="cls-1" d="M35.99,72.03c-.03-.16-.04-.35.01-.61-.32.4-.78.46-1.39.17.55.9,1.24,1.1,1.38.43Z"/>
      <path class="cls-1" d="M58.54,77.05c1.08-.25,1.3-1.77,1.81-2.34l-.69.09c-.13.42-1.86.91-1.12,2.25Z"/>
      <path class="cls-1" d="M84.93,98.72c.01.11-.12.25-.39.41.17-.16.44-.25.73-.31-.12-.03-.23-.06-.34-.11Z"/>
      <path class="cls-1" d="M84.93,98.72c-.17-.07-.34-.16-.48-.28l.09.7c.27-.16.4-.3.39-.42Z"/>
      <path class="cls-1" d="M84.93,98.72c.11.04.22.08.34.11.44-.08.95-.07,1.35.05-.45-.86-1.41-.49-2.17-.43.33.06.48.16.48.28Z"/>
      <path class="cls-1" d="M84.45,98.44c.14.12.31.21.48.28,0-.12-.15-.22-.48-.28Z"/>
      <path class="cls-1" d="M86.62,98.87c-.52.07-.96.05-1.35-.05-.29.06-.56.15-.73.31.48.08.84.15,1.08.23.36-.12.67-.41,1-.49Z"/>
      <path class="cls-1" d="M85.62,99.36c-.24-.08-.6-.15-1.08-.23.44.33.78.33,1.08.23Z"/>
      <path class="cls-1" d="M85.27,98.82c.39.1.83.12,1.35.05-.4-.12-.91-.13-1.35-.05Z"/>
      <path class="cls-1" d="M70.67,78.34c.14,1.68-.14,2.47,1.64,1.89l-.96-1.98-.68.08h0Z"/>
      <path class="cls-1" d="M75.52,77.73c-.37,1.04.67,1.79.85,1.29.38-1.04-.67-1.79-.85-1.29Z"/>
      <path class="cls-1" d="M68.24,81.47l-1.39.17c.19.03,1.69,1.54,1.39-.17Z"/>
      <path class="cls-1" d="M71.98,105.64c-.37,1.04.68,1.79.86,1.29.37-1.04-.67-1.79-.86-1.29Z"/>
      <path class="cls-1" d="M60.88,84.5l.63-.43c-.08-.41-.46-.24-.72-.26.47.15.49.38.09.69Z"/>
      <path class="cls-1" d="M60.79,83.8l.09.69c.4-.31.38-.54-.09-.69Z"/>
      <path class="cls-1" d="M68.94,98.27l-.29.37c.11-.12.22-.24.29-.37Z"/>
      <path class="cls-1" d="M68.33,99.05l.32-.41c-.13.15-.26.28-.32.41Z"/>
      <path class="cls-1" d="M122.39,66.92l.08.69c.43-.29.4-.52-.08-.69Z"/>
      <path class="cls-1" d="M136.12,100.11c-.17.51-.05,1.29.15,1.68,0-.65-.06-1.19-.15-1.68Z"/>
      <path class="cls-1" d="M144.59,117.64c-2.19.61-2.19-1.48-.24-1.39,0-.09.02-.17.03-.25l-.05-.43c-2.27.64-1.51-2.28-1.91-3.99-.46-.55-.57-.86-.87-1.3-.86-1.26-2.4-2.62-1.21-4.07-.45-1.22-.19-1.83-.26-2.08-.16-.12-.3-.23-.43-.33-.83-.43-2.25-.23-2.53-.42-.78-.53-.67-1.4-.86-1.58-1.12-1.09-2.67-3.34-3.29-3.81-.5-.38-1.52-.37-2.17-.43.06,1.34,1.84,3.22.52,4.16.68-.2,1.15-.26,1.4-.2,1.79-1.68,7.36,5.06,6.68,7.87-.81,1.55-.94,2.66-.36,3.33l.27-.73,1.03-.13c.05.91.34,1.85.35,2.76,1.55.78,3.1,3.62,2.77,5.29.29-.25.54-.44.77-.6.39-.57.2-1.26.36-1.66h0Z"/>
      <path class="cls-1" d="M137.68,101.98v-.03c-.43-.11-.9-.16-1.41-.15.03.06,1.32.71,1.41.18h0Z"/>
      <path class="cls-1" d="M136.7,99.63c-.3,0-.48.2-.58.49.09.49.15,1.04.15,1.68.52,0,.98.05,1.4.15l-.97-2.32h0Z"/>
      <path class="cls-1" d="M132.73,101.51c-.26-.07-.73,0-1.4.2.24.11.57,1,.87,1.3.05-.75.24-1.23.53-1.5Z"/>
      <path class="cls-1" d="M139.41,109.38c.68-2.81-4.89-9.55-6.68-7.87.43.11.26.6-.53,1.5.57-.15,1.82-.97,1.93-.91.28.16,3.75,4.86,3.89,5.15.78,1.59-1.15,3.31-.46,5.19.27.74,1.41.19,1.48.26-.57-.67-.45-1.78.37-3.33h0Z"/>
      <path class="cls-1" d="M144.23,119.3c-.23.15-.48.34-.76.6.38-.16.61-.37.76-.6Z"/>
      <path class="cls-1" d="M140.69,114.62c.02,2.05-.74.91-1.06,2.01.04.04.08.07.12.11,3.02-2.3,1.73,2.74,3.72,3.17.32-1.67-1.23-4.51-2.78-5.28Z"/>
      <path class="cls-1" d="M139.57,116.86c.07-.05.12-.08.18-.13-.04-.04-.08-.07-.12-.11-.02.07-.04.15-.06.24Z"/>
      <path class="cls-1" d="M132.73,101.51c-.29.27-.48.75-.53,1.5.79-.89.96-1.38.53-1.5Z"/>
      <path class="cls-1" d="M119.2,111.57s0,.07,0,.11c.07.25,1.2,1.13.95,1.99.26-1.33,1.91-3.07,3.29-1.82.07-.17-.13-.46-.08-.69.65-3.25-2.69-2.27-3.63-2.49.04.06.08.12.15.18l-1.03.05c-.09.46-.52,1.09-.52,1.47,2.4-.59.94.61.86,1.19h.01Z"/>
      <path class="cls-1" d="M119.61,108.36c.72-.72,2.37-.39,3.32-.67-.23-.11-.47-.49-.78-.6-.49.19-.87.28-1.18.31-.91.29-1.36.61-1.35.97h-.01Z"/>
      <path class="cls-1" d="M122.15,107.08c.15-.06.31-.23.47-.43-.13.1-.29.23-.47.43Z"/>
      <path class="cls-1" d="M119.74,108.67c-.14-.03-.23-.09-.24-.19.03-.04.08-.07.11-.11-.01-.36.45-.69,1.36-.97-1.3.12-1.18-.81-2.11,1.52l1.02-.05c-.06-.06-.1-.12-.14-.18h0Z"/>
      <path class="cls-1" d="M94.71,103.34c.01-.2.05-.4.14-.57l-.79-.77c.24.39.46.84.65,1.34Z"/>
      <path class="cls-1" d="M91.83,101.69v-.05s-.03.01-.04.02c.02,0,.02.02.04.02Z"/>
      <path class="cls-1" d="M90.34,100.51c.82.3,1.37.62,1.5.88.08-.68.39-.9.8-.78l-1-.96c.48.73.04,1.02-1.3.87Z"/>
      <path class="cls-1" d="M95.11,104.84c-.17-.65-.07-1.47-.26-2.08-.09.18-.13.37-.14.57.17.46.31.97.4,1.51Z"/>
      <path class="cls-1" d="M93.63,98.69c-.59.44-1.38.61-1.99.95l.99.96c.43.12.95.62,1.43,1.38l.79.77c-.38-1.21-1.46-2.44-1.22-4.07Z"/>
      <path class="cls-1" d="M90.34,100.51c1.34.15,1.78-.14,1.3-.87-.4.22-1.35-.01-1.3.87Z"/>
      <path class="cls-1" d="M90.52,101.9c.32.94,1.06,1.31,1.64,1.9-.24-.92-.33-1.61-.33-2.12-.01,0-.02-.02-.04-.02-.15.14-.55.23-1.27.24h0Z"/>
      <path class="cls-1" d="M94.71,103.34c-.19-.51-.41-.96-.65-1.34l-1.43-1.38c-.4-.12-.71.11-.79.78.05.09.05.17-.01.24v.05c.46.21.57.91.34,2.12.18-.73.54-2.83,1.11-2.25l1.83,3.29c-.31-.57-.43-1.06-.4-1.51h0Z"/>
      <path class="cls-1" d="M95.11,104.84c-.09-.54-.23-1.04-.4-1.51-.03.44.09.94.4,1.51Z"/>
      <path class="cls-1" d="M92.63,100.61l1.43,1.38c-.47-.76-1-1.26-1.43-1.38Z"/>
      <path class="cls-1" d="M92.16,103.81c.24-1.21.13-1.91-.33-2.12-.01.51.09,1.2.33,2.12Z"/>
      <path class="cls-1" d="M120.16,113.67c-.78-.17-1.4-1.24-.96-1.99-.66.14-.86-.81-.86-1.3-1.03-.54-.79-.87,0-1.25-.06-.04-.11-.07-.18-.14-.34.1-1.05.2-1.38.17.35,1.2,1.43,2.76,1.91,3.99,1.73-.36,1.27,2.84.74,4.48.13-.2.32-.11.56.29.92-1.29-.02-3.26.17-4.25h0Z"/>
      <path class="cls-1" d="M118.86,108.91c-.03.07-.46.02-.7.09.07.06.12.1.18.14.16-.07.32-.15.52-.23h0Z"/>
      <path class="cls-1" d="M119.43,117.63c-.05.14-.09.27-.14.38l.69-.09c-.24-.4-.42-.49-.56-.29h.01Z"/>
      <path class="cls-1" d="M119.43,117.63c.53-1.63.99-4.84-.75-4.48.18.45.86.87.88,1.64.04,1.65-1.86,2.18-.27,3.21.04-.18.08-.3.14-.38h0Z"/>
      <path class="cls-1" d="M119.29,118c.05-.11.09-.24.14-.38-.06.08-.1.2-.14.38Z"/>
      <path class="cls-1" d="M119.2,111.68c-.44.75.18,1.82.96,1.99.24-.86-.89-1.74-.96-1.99Z"/>
      <path class="cls-1" d="M119.2,111.68s0-.07,0-.11c-.01.04-.01.07,0,.11Z"/>
      <path class="cls-1" d="M118.34,109.13c-.79.37-1.03.71-.01,1.25,0-.39.44-1.02.52-1.47-.11.31-.29.37-.52.23h.01Z"/>
      <path class="cls-1" d="M118.86,108.91c-.2.08-.37.15-.52.23.22.15.4.09.52-.23Z"/>
      <path class="cls-1" d="M94.75,112.71c.24-.01.49,0,.75.02-.31-.21-.39-.49-.21-.87-.07.31-.27.6-.54.84h0Z"/>
      <path class="cls-1" d="M92.8,113.56c-.77.03-1.26-.4-.66-1.56-.11,0-.24-.13-.41-.4-1.85,3.28-.25,1.6,1.22,4.07-.53-.92-.5-1.62-.15-2.12Z"/>
      <path class="cls-1" d="M95.5,112.73c.45.05.91.17,1.35.35-.1-.42-1.16-.9-1.56-1.21-.18.37-.11.66.2.87h.01Z"/>
      <path class="cls-1" d="M94.75,112.71c-.53.5-1.33.83-1.95.85-.35.49-.38,1.2.15,2.12.89-.22,1.87-.15,2.77-.35-.02-.1-.04-.18-.07-.25,0,0,0-.02,0-.03-.49-1.32-2.44.61-2.22-1.18.09-.7,1.96-.57,3-.7.13-.04.26-.08.43-.09-.64-.05-1.09-.17-1.35-.35-.26-.03-.51-.03-.75-.02h0Z"/>
      <path class="cls-1" d="M95.64,115.04s0,.02,0,.03c0,0,0-.02,0-.03Z"/>
      <path class="cls-1" d="M96.85,113.07c-.44-.18-.9-.29-1.35-.35.27.18.71.29,1.35.35Z"/>
      <path class="cls-1" d="M96.85,113.07c-.16.01-.3.04-.43.09.16-.02.31-.05.43-.09Z"/>
      <path class="cls-1" d="M90.88,111.74c.2.03.47-.01.86-.13-.34,0-.61.06-.86.13Z"/>
      <path class="cls-1" d="M92.14,112c.08-.15.17-.31.29-.48l-.69.09c.16.27.29.39.4.4h0Z"/>
      <path class="cls-1" d="M92.43,111.52c-.07.33-.16.48-.29.48-.61,1.16-.11,1.59.65,1.56.37-.53,1.11-.81,1.96-.85.26-.25.46-.53.53-.85-.98.19-2.78,2.47-2.86-.34h.01Z"/>
      <path class="cls-1" d="M94.75,112.71c-.85.04-1.59.32-1.95.85.62-.03,1.42-.36,1.95-.85Z"/>
      <path class="cls-1" d="M92.43,111.52c-.12.18-.21.33-.29.48.13,0,.22-.15.29-.48Z"/>
      <path class="cls-1" d="M140.85,87.84c-.49-.24-.85-.5-1.13-.78-.05.06-.11.12-.18.17.65.35.85,1.01.1,2.17l.69-.09c-.15-.64.35-1.05.52-1.47h0Z"/>
      <path class="cls-1" d="M139.72,87.05c-.68-.72-.69-1.58.01-2.59-.77.99-1.07,2.33-2.52,2.43.93-.04,1.79.04,2.33.34.07-.05.13-.11.18-.17Z"/>
      <path class="cls-1" d="M139.72,87.05c.28.29.64.55,1.13.78.19-.47.34-.82.43-1.08-.14-.32-.28-.65-.41-.98-.18-.08-.44-.18-.74-.28.09.62-.07,1.18-.41,1.56Z"/>
      <path class="cls-1" d="M140.87,85.78c.13.33.27.67.41.98.18-.53.11-.74-.41-.98Z"/>
      <path class="cls-1" d="M139.72,87.05c.34-.38.5-.94.41-1.56-.1-.03-.17-.06-.28-.1l-.12-.93c-.7,1.02-.69,1.88-.01,2.59Z"/>
      <path class="cls-1" d="M139.64,89.4c.75-1.16.55-1.82-.1-2.17-.56.46-1.44.48-2.33-.34,1.07,3.1,1.75.03,2.43,2.51Z"/>
      <path class="cls-1" d="M139.54,87.23c-.54-.29-1.4-.38-2.33-.34.89.82,1.77.79,2.33.34Z"/>
      <path class="cls-1" d="M116.81,83.84c.15.41.14.86-.02,1.26.36-.07.75-.1,1.19-.02-.28-.74-.12-1.94-.35-2.77-.08.89-.4,1.38-.82,1.53h0Z"/>
      <path class="cls-1" d="M116.79,85.1c-.21.53-.7.96-1.5,1.02,1.82.33,2.04.85,2.69-1.04-.44-.07-.83-.05-1.19.02Z"/>
      <path class="cls-1" d="M116.81,83.84c.42-.16.74-.64.82-1.53-.73-.11-1.93.38-2.77.35,1.04-.08,1.71.49,1.95,1.19h0Z"/>
      <path class="cls-1" d="M115.29,86.12c.37-.57.88-.9,1.5-1.02.16-.4.16-.85.02-1.26-.56.21-1.31-.19-1.95-1.19.3.55.74.85.84,1.65.1.78-.26,1.21-.41,1.82h0Z"/>
      <path class="cls-1" d="M116.79,85.1c-.62.13-1.13.45-1.5,1.02.8-.06,1.29-.49,1.5-1.02Z"/>
      <path class="cls-1" d="M116.81,83.84c-.24-.7-.91-1.27-1.95-1.19.64.99,1.39,1.4,1.95,1.19Z"/>
      <path class="cls-1" d="M125.86,108c-.72.38-1.65,0-1.03-1.95-.52,1.58-.7,1.29-1.9,1.65,1.11.51,2.4.36,2.33,1.82l.7-.09c-1.1-.91-.73-1.35.6-.78-.37-.23-.66-.45-.7-.65Z"/>
      <path class="cls-1" d="M125.86,107.99s-.02-.04-.02-.06c.01-.06.45-.63.71-.95-.24.26-.68.56-.33-1.11-.17.42-.75,1.86-1.21,1.56-.15-.42-.01-1.11-.18-1.38-.62,1.96.31,2.34,1.03,1.95h0Z"/>
      <path class="cls-1" d="M125.96,109.42c.03-.33.55-.6.6-.78-1.33-.57-1.71-.13-.6.78Z"/>
      <path class="cls-1" d="M126.69,106.81s-.07.09-.11.14h0c.08-.08.13-.16.11-.14Z"/>
      <path class="cls-1" d="M126.22,105.87c.29.38.39.75.36,1.08.04-.05.09-.11.11-.14.02-.02-.03.05-.11.15-.04.48-.36.85-.72,1.04.05.2.33.42.71.65.47-1.54,2.17-2.02-.35-2.77Z"/>
      <path class="cls-1" d="M126.58,106.95h0s-.02.02-.03.03c.01,0,.02-.02.03-.03Z"/>
      <path class="cls-1" d="M125.84,107.93s.02.04.02.06c.36-.19.67-.57.72-1.04-.01,0-.02.02-.03.03-.26.32-.7.89-.71.95h0Z"/>
      <path class="cls-1" d="M126.55,106.98s.02-.02.03-.03c.03-.33-.07-.7-.36-1.08-.36,1.67.09,1.38.33,1.11Z"/>
      <path class="cls-1" d="M132.59,96.69c.21.24.35.65.38,1.29,1.66-.96-.2-2.31-.34-2.77l-.7.09c.68.51.84,1.04.66,1.39Z"/>
      <path class="cls-1" d="M131.2,97.02s-.07-.02-.11-.03c.04.02.05.05.07.08.01-.01.02-.02.04-.04Z"/>
      <path class="cls-1" d="M131.09,96.99s.07.03.11.04c.53-.61,1.05-.74,1.39-.33.18-.36.02-.88-.66-1.39-.22.65-.59,1.22-1.21,1.56.17.03.29.08.37.13h0Z"/>
      <path class="cls-1" d="M131.2,97.02s-.03.03-.04.04c.08.13-.02.29-.35.49.65.06,1.66.05,2.16.43-.03-.64-.18-1.05-.38-1.29-.17.35-.68.53-1.39.33Z"/>
      <path class="cls-1" d="M132.59,96.69c-.34-.41-.86-.28-1.39.33.71.2,1.22.02,1.39-.33Z"/>
      <path class="cls-1" d="M131.16,97.06s-.03-.05-.07-.07c-.12-.04-.24-.07-.37-.13l.09.69c.11-.18.23-.35.35-.49Z"/>
      <path class="cls-1" d="M130.72,96.86c.13.06.25.09.37.13-.08-.05-.19-.1-.37-.13Z"/>
      <path class="cls-1" d="M131.16,97.06c-.12.14-.24.3-.35.49.33-.2.44-.36.35-.49Z"/>
      <path class="cls-1" d="M101.08,102.17c.34.16-1.32.72-1.2,1.68.19,1.42-.16,2.12,1.64,1.59l.17-4.24c.03.53-.19.83-.61.97Z"/>
      <path class="cls-1" d="M101.69,101.2c-.34.14-.91.43-1.36.65l1.36-.65Z"/>
      <path class="cls-1" d="M99.7,102.16c.86-.05,1.25-.04,1.38.01.42-.14.64-.45.61-.97l-1.36.65c-.32.16-.58.29-.63.3h0Z"/>
      <path class="cls-1" d="M115.13,112.89c.44-.58,1.46-.87,1.82-1.47-.02-.05-.03-.11-.04-.17-.64.02-1.4.32-1.95.25-.23-.03-.55-.55-.78-.6-.35-.08-.95.2-1.39.17.61.16.64.39.09.69.07.35.53,1.06.86,1.3-.09-1.5.87-1.54,1.39-.17Z"/>
      <path class="cls-1" d="M112.79,111.07c0-.11-.03-.23-.04-.34-.01.1,0,.2.04.34Z"/>
      <path class="cls-1" d="M112.79,111.07c.01.22.04.48.09.69.55-.3.52-.54-.09-.69Z"/>
      <path class="cls-1" d="M113.74,113.07c.21-.12.98-.12,1.39-.17-.52-1.36-1.48-1.33-1.39.17Z"/>
      <path class="cls-1" d="M116.91,111.26c.01.06.02.12.03.17.04-.06.07-.12.1-.18-.05,0-.09.01-.13.01Z"/>
      <path class="cls-1" d="M115.12,111c.36-.9,1.16-1.26,1.64-1.02-.01-.25,0-.52.02-.81-.73.55-1.35.78-1.55.46-.22.37-.65.61-1.14.57l.09.69c.74-.91,1.15-.77.94.1Z"/>
      <path class="cls-1" d="M115.23,109.63c.2.32.82.08,1.54-.46-.83-.07-.76.07-1.47-.52.14.37.09.71-.07.99h0Z"/>
      <path class="cls-1" d="M115.23,109.63c-.11-.17-.1-.47.07-.99-1.84,1.29-1.12,1.48-1.21,1.56.49.04.92-.2,1.14-.58Z"/>
      <path class="cls-1" d="M115.23,109.63c.16-.27.21-.62.07-.99-.17.51-.18.82-.07.99Z"/>
      <path class="cls-1" d="M118.16,108.99c.18-2.07-2.03-2.02-1.39.17-.06-1.08.97-1.2,1.39-.17Z"/>
      <path class="cls-1" d="M117.33,112.27c-.37.24-1.09.45-2.2.62,1.19-.14,2.38.11,3.55.26-.58-.11-1.03-.41-1.35-.88h0Z"/>
      <path class="cls-1" d="M117.04,111.25c.53.31.69.59.5.84.44.15.82.5,1.14,1.06-.47-1.23-1.55-2.79-1.91-3.99-.01.29-.02.55-.01.81.32.16.5.57.28,1.27h0Z"/>
      <path class="cls-1" d="M118.16,108.99c-.55-.31-1.02-.28-1.39.17.33.03,1.05-.07,1.39-.17Z"/>
      <path class="cls-1" d="M118.16,108.99c-.42-1.03-1.45-.9-1.39.17.37-.46.84-.48,1.39-.17Z"/>
      <path class="cls-1" d="M117.54,112.09c-.05.06-.11.12-.21.18.32.47.77.77,1.35.88-.32-.57-.7-.92-1.14-1.06h0Z"/>
      <path class="cls-1" d="M117.17,112.01c-.09-.17-.17-.37-.22-.58-.36.6-1.38.89-1.82,1.47.77-.63,1.45-.93,2.04-.89Z"/>
      <path class="cls-1" d="M114.18,110.9c.23.05.55.58.78.6.03-.19.09-.35.16-.51.21-.87-.2-1.01-.94-.1h0Z"/>
      <path class="cls-1" d="M117.17,112.01c-.59-.04-1.27.25-2.04.89,1.11-.18,1.83-.39,2.2-.62-.05-.08-.11-.17-.16-.26Z"/>
      <path class="cls-1" d="M117.54,112.09c.19-.25.03-.53-.5-.84-.03.07-.06.12-.1.18.06.21.14.4.23.58.13,0,.25.04.37.08h0Z"/>
      <path class="cls-1" d="M117.33,112.27c.1-.06.16-.12.21-.18-.12-.04-.24-.07-.37-.08.04.1.1.18.16.26h0Z"/>
      <path class="cls-1" d="M112.88,111.77c-.22.63-1,.62-1.3.87.28.01.59.06.92.12-.01-.29.09-.64.37-.99h.01Z"/>
      <path class="cls-1" d="M112.84,114.6c.43-.26.76-1.45.9-1.53-.44.36-.79.36-1.02.19-.27.13-.69-.03-1.14-.62l.82,1.7c.13.07.28.16.44.27Z"/>
      <path class="cls-1" d="M112.72,113.25c-.13-.11-.21-.28-.22-.5-.33-.06-.64-.11-.92-.12.45.58.87.75,1.14.62h0Z"/>
      <path class="cls-1" d="M112.54,114.62c.1.06.2.03.3-.02-.16-.11-.31-.2-.44-.27l.14.29h0Z"/>
      <path class="cls-1" d="M112.99,112.87c.25.06.48.11.75.2-.33-.24-.79-.95-.86-1.3.16.47.17.83.11,1.1Z"/>
      <path class="cls-1" d="M112.99,112.87c.06-.27.05-.63-.11-1.1-.29.34-.39.69-.38.99.16.03.33.08.49.12h0Z"/>
      <path class="cls-1" d="M112.72,113.25c.23.18.58.17,1.02-.19-.27-.08-.51-.14-.75-.2-.05.19-.14.32-.27.38Z"/>
      <path class="cls-1" d="M112.99,112.87c-.17-.04-.33-.09-.49-.12.01.22.09.39.22.5.13-.06.22-.19.27-.38Z"/>
      <path class="cls-1" d="M113.73,110.55c.04-.1.14-.21.36-.34l-.44.29s.05.03.08.05h0Z"/>
      <path class="cls-1" d="M113.65,110.5l.44-.29c-.06.05-1.39-.63-1.47-.52.01.35.08.7.13,1.05.02-.45.46-.47.9-.24h0Z"/>
      <path class="cls-1" d="M114.18,110.9c-.39-.07-.52-.2-.45-.35-.03-.02-.05-.03-.08-.05l-.86.58c.44.03,1.04-.25,1.39-.17Z"/>
      <path class="cls-1" d="M112.75,110.74c.01.11.04.22.04.33l.86-.57c-.44-.24-.88-.21-.9.24Z"/>
      <path class="cls-1" d="M113.73,110.55c.15.09.31.21.45.35l-.09-.69c-.22.13-.32.24-.36.34h0Z"/>
      <path class="cls-1" d="M113.73,110.55c-.07.16.06.28.45.35-.14-.15-.3-.26-.45-.35Z"/>
      <path class="cls-1" d="M109.15,104.5c-1.47-.02-1.59.13-1.21,1.55l1.21-1.55Z"/>
      <path class="cls-1" d="M113.22,108.91c.37-1.04-.68-1.79-.86-1.29-.37,1.03.68,1.79.86,1.29Z"/>
      <path class="cls-1" d="M115.73,98.03l.09.69c.42-.29.39-.52-.09-.69Z"/>
      <path class="cls-1" d="M96.91,111.73c.44.17.92.76,1.18.14-.49-.11-.72-.88-.81-.96.24.69.21.94-.37.82h0Z"/>
      <path class="cls-1" d="M97.28,110.91l-.61.78c.48-.13.69-.39.61-.78Z"/>
      <path class="cls-1" d="M96.67,111.69c.08,0,.16.01.24.04.58.11.61-.13.37-.83.08.39-.12.65-.61.78h0Z"/>
      <path class="cls-1" d="M21.07,111.66c.07-.06.13-.12.21-.18-.09.02-.18.05-.25.05.03.04.05.08.04.13h0Z"/>
      <path class="cls-1" d="M22.77,110.54c-.12.12-.25.24-.4.35.14-.03.27-.05.41-.04-.04-.09-.04-.19,0-.31h0Z"/>
      <path class="cls-1" d="M23.56,109.61l-2.96,1.77c.23.03.36.08.43.15.07,0,.16-.03.25-.05.33-.27.71-.49,1.09-.59.15-.12.28-.23.41-.35.1-.36.46-.79.79-.93h-.01Z"/>
      <path class="cls-1" d="M22.77,110.54c-.03.12-.03.22,0,.31.21,0,.41.05.59.18l.2-1.42c.07-.03-.29.44-.79.93h0Z"/>
      <path class="cls-1" d="M22.77,110.54c.51-.49.87-.96.79-.93-.32.13-.68.57-.79.93Z"/>
      <path class="cls-1" d="M22.78,110.85c-.14,0-.27,0-.41.04-.35.29-.74.51-1.1.59-.07.06-.13.12-.2.18-.02.11-.14.24-.39.41.65.04,1.91-.88,2.69-1.04-.37.06-.53-.03-.59-.18h0Z"/>
      <path class="cls-1" d="M22.37,110.89c-.38.09-.76.32-1.1.59.36-.07.74-.3,1.1-.59Z"/>
      <path class="cls-1" d="M23.37,111.03c-.19-.12-.39-.17-.59-.18.06.15.23.24.59.18Z"/>
      <path class="cls-1" d="M21.03,111.53c-.16,0-.31-.05-.43-.15.1.2-.03.52.08.69.11-.14.25-.27.39-.41.01-.05-.01-.09-.05-.13h0Z"/>
      <path class="cls-1" d="M20.6,111.38c.12.1.27.15.43.15-.07-.07-.2-.13-.43-.15Z"/>
      <path class="cls-1" d="M21.07,111.66c-.14.14-.28.27-.39.41.25-.16.37-.3.39-.41Z"/>
      <path class="cls-1" d="M19.38,109.55c.19.07.32.21.35.52.62-.17.5-.35-.35-.52Z"/>
      <path class="cls-1" d="M19.73,110.08c.93-.13,1.63.11,1.29-.86l-2.07.25c.17,0,.31.04.43.08.85.18.97.35.35.52h0Z"/>
      <path class="cls-1" d="M19.73,110.08c-.03-.31-.16-.45-.35-.53-.13-.03-.27-.05-.43-.08.21.24.62.39.78.6Z"/>
      <path class="cls-1" d="M18.95,109.47c.16.03.31.05.43.08-.12-.05-.26-.07-.43-.08Z"/>
      <path class="cls-1" d="M27.18,102.1l.68-.09c-.01-2.93-1.38-2.76-.68.09Z"/>
      <path class="cls-1" d="M24.93,109.42l.08.69c.43-.29.4-.52-.08-.69Z"/>
      <path class="cls-1" d="M126.91,111.41c-.91.41-1.56-.33-2.16-.43-.38-.06-.95.19-1.39.17.62.1.63.33.09.69-.24.58-1.53.81-1.26,1.21.9.65,1.99.97,2.99,1.39.62.26,2-.19,2.25,1.12-.92.13-1.85.24-2.77.35-1.94.24-3.2-.94-3.98,1.91,2.42-1.19,5.99-1.78,9.09-1.33-1.5-.78-2.53-2.33-2.45-4.23.75-.4-.35-1.52-1.28-2.15.07.37,1.12,1.06.87,1.29h0Z"/>
      <path class="cls-1" d="M132.05,117.05c.45.17.89.37,1.28.6-.35-.29-.58-.51-.73-.66-.18.02-.37.05-.55.05h0Z"/>
      <path class="cls-1" d="M129.6,110.38l-3.55-.27c.93.63,2.02,1.76,1.28,2.15-.09,1.9.94,3.44,2.44,4.23.8.12,1.57.29,2.28.55.18,0,.37-.03.55-.05-.69-.73.6-.07.5-.05-.17.04-.33.03-.5.05.15.15.38.36.73.66.17-.33.66-1.34.52-1.46-3.53.31-6.83-2.38-4.25-5.81h0Z"/>
      <path class="cls-1" d="M132.6,116.99c.17-.02.33-.01.51-.05.09-.02-1.2-.68-.51.05Z"/>
      <path class="cls-1" d="M129.77,116.5c-3.1-.45-6.67.14-9.09,1.33,4.31-.56,8.52.07,12.65-.18-.4-.24-.83-.43-1.28-.6-.82,0-1.6-.2-2.28-.55h0Z"/>
      <path class="cls-1" d="M129.77,116.5c.68.36,1.45.56,2.28.55-.71-.27-1.48-.44-2.28-.55Z"/>
      <path class="cls-1" d="M123.45,111.85c.54-.36.53-.6-.09-.69-.05.23.16.52.09.69Z"/>
      <path class="cls-1" d="M152.83,117.08c.05.07.1.14.16.2-.02-.1.01-.19.06-.27-.08.04-.15.06-.22.07h0Z"/>
      <path class="cls-1" d="M154.17,116.44l-.57.07c.16.01.37-.03.57-.07Z"/>
      <path class="cls-1" d="M156.2,120.41c-.43-.4-1.76-.36-1.61-1.55-.03-.46.29-.38.66-.21-.84-.54-.93-1.31-.26-2.32l-2,.94c.38.42.84.76,1.56,1.07-.88,1.71.88,2.64,2.44,2.67-.26-.21-.55-.39-.78-.6h-.01Z"/>
      <path class="cls-1" d="M156.03,119.03c-.08-.03-.15-.06-.22-.09.08.04.16.07.22.09Z"/>
      <path class="cls-1" d="M154.55,118.35c-.72-.31-1.18-.65-1.56-1.07h0s0,0,0,0c-.06-.06-.11-.13-.16-.2-.33.03-.57-.33-.7-1.08-.4,1.57-.36,3.34-.08,4.93l.77-2.2c1.25.43,2.27,4.21,4.16,2.29-1.55-.03-3.31-.96-2.43-2.67h0Z"/>
      <path class="cls-1" d="M155.25,118.66c.19.09.39.2.56.28.07.03.14.06.22.09-.15-1.15.13-2.28-1.04-2.69-.67,1.01-.57,1.78.26,2.32h0Z"/>
      <path class="cls-1" d="M153.05,117.01c.16-.25.55-.41.55-.49.07-.99-1.05-.44-1.47-.52.24.43.46.78.7,1.08.07,0,.14-.03.22-.07h0Z"/>
      <path class="cls-1" d="M152.83,117.08c-.24-.31-.47-.65-.7-1.08.14.76.37,1.11.7,1.08Z"/>
      <path class="cls-1" d="M134.11,109.81c-1.3,1.39-3.06,2.3-2.6,4.54l4.24.17-1.64-4.71h0Z"/>
      <path class="cls-1" d="M130.2,109.59c.65.23,1.96,1.33,2.24,1.12.16-.11,1.27-2.84,1.71-3.37,0-.11-2.03-.15-2.12-.09,1.13,1-.28,3.26-1.82,2.34h-.01Z"/>
      <path class="cls-1" d="M130.2,109.59c2.07-.55,2.67-1.33,1.82-2.34-.57.33-1.06,1.89-1.82,2.34Z"/>
      <path class="cls-1" d="M130.2,109.59c1.55.92,2.96-1.35,1.82-2.34.85,1.01.24,1.79-1.82,2.34Z"/>
      <path class="cls-1" d="M146.68,115.5c-.31-.27-.48-.77-.44-1.58l-.61.78c.09.18.01.46.09.69.15.43.68,1.53.95,1.99-.28-.88-.27-1.54.01-1.88h0Z"/>
      <path class="cls-1" d="M149.27,115.65c-.63-.12-.65-.35-.09-.69-.34.25-.68.44-1,.57.13.06.25.12.4.21.2-.07.46-.03.69-.09h0Z"/>
      <path class="cls-1" d="M146.68,115.5c-.28.34-.29,1-.01,1.88.44-.42,1.51-1.5,1.91-1.65-.15-.09-.27-.14-.4-.2-.61.25-1.14.27-1.5-.03Z"/>
      <path class="cls-1" d="M146.68,115.5c.26-.32.77-.33,1.5.03.32-.13.66-.32,1-.57-.38-.03-2.62-.82-2.94-1.04-.04.81.13,1.32.44,1.58Z"/>
      <path class="cls-1" d="M146.68,115.5c.36.3.89.28,1.5.03-.73-.36-1.24-.34-1.5-.03Z"/>
      <path class="cls-1" d="M149.27,115.65l-.09-.69c-.56.34-.54.57.09.69Z"/>
      <path class="cls-1" d="M145.18,118.96s0-.01-.01-.02c0,0-.01.01-.01.02.01,0,.01,0,.02,0Z"/>
      <path class="cls-1" d="M145.25,118.14c.1-.26.26-.47.48-.62-.34-.21-.35-.92-.01-2.13-.34.76-.81,1.48-1.13,2.25.36.12.56.3.66.49Z"/>
      <path class="cls-1" d="M145.73,117.52c-.22.15-.38.36-.48.62.13.25.1.53-.08.8.01,0,.01.01.01.02.22.05.35.27.37.67.25-.15.7-1.85,1.12-2.25-.43.21-.74.26-.94.14h0Z"/>
      <path class="cls-1" d="M145.18,118.96c.05.25.16.49.37.67-.02-.4-.14-.62-.37-.67Z"/>
      <path class="cls-1" d="M145.16,118.96c-.31.47-.97.88-1.69.94.23.05,1.93-.17,2.08-.26-.21-.18-.32-.42-.37-.67-.01,0-.01,0-.02,0Z"/>
      <path class="cls-1" d="M144.38,116.01c-.01.08-.03.16-.03.25.02,0,.04,0,.07,0l-.03-.24h-.01Z"/>
      <path class="cls-1" d="M144.59,117.65c-.16.39.03,1.08-.36,1.66.4-.27.71-.38.93-.34,0,0,.01-.01.01-.02-.05-.27-.02-.55.08-.8-.1-.2-.3-.37-.66-.49h0Z"/>
      <path class="cls-1" d="M144.23,119.31c-.15.22-.38.43-.76.6.72-.06,1.38-.47,1.69-.94-.22-.04-.53.07-.93.34h0Z"/>
      <path class="cls-1" d="M145.17,118.94c.18-.27.21-.56.08-.8-.1.25-.13.54-.08.8Z"/>
      <path class="cls-1" d="M145.73,117.52c.25-.17.56-.24.94-.14-.27-.46-.8-1.56-.95-1.99-.34,1.21-.33,1.92.01,2.13h0Z"/>
      <path class="cls-1" d="M145.73,117.52c.2.12.51.08.94-.14-.37-.11-.69-.03-.94.14Z"/>
      <path class="cls-1" d="M158.78,121.62s.01.02.02.03c.01-.01.01-.02.01-.03-.01,0-.02,0-.03,0Z"/>
      <path class="cls-1" d="M156.03,119.03c.06.46.12.92.17,1.39.63-.27.89-.07.78.61.33.04.6.1.86.17-.52-.42-1.12-1.14-1.81-2.16h0Z"/>
      <path class="cls-1" d="M158.8,121.65s-.01-.02-.02-.03c-.27,0-.59-.15-.94-.43-.26-.07-.53-.14-.85-.17.91.76,1.09,1.12,2.34,1.82-.59-.33-.76-.72-.53-1.18Z"/>
      <path class="cls-1" d="M158.78,121.62s.02,0,.03,0c.07-.13.19-.27.32-.41-.3.19-.69.24-1.12-.32-.52-.66,1.36-.9-1.98-1.86.69,1.03,1.29,1.75,1.81,2.17.39.1.71.24.94.43h0Z"/>
      <path class="cls-1" d="M159.6,120.8s.1-.09.16-.13c-.03,0-.09.06-.16.13Z"/>
      <path class="cls-1" d="M157.84,121.19c.35.29.67.43.94.43-.23-.19-.56-.33-.94-.43Z"/>
      <path class="cls-1" d="M158.81,121.62s0,.02-.01.03c.36.3.54.69.53,1.18l.43-2.17c-.23.63-.55.94-.95.95Z"/>
      <path class="cls-1" d="M159.33,122.84c.01-.5-.17-.89-.53-1.18-.23.46-.06.86.53,1.18Z"/>
      <path class="cls-1" d="M158.81,121.62c.4-.01.72-.33.95-.95-.07.04-.11.09-.16.13-.12.12-.28.29-.47.41-.14.14-.25.28-.32.41Z"/>
      <path class="cls-1" d="M156.2,120.41c.24.22.53.4.78.6.11-.67-.15-.88-.78-.6Z"/>
      <path class="cls-1" d="M131.85,105.87c.04-.35.6-.93.53-1.12-.63-1.8-2.5-.02-2.78,0,.89-.46,2.09.14,2.25,1.13h0Z"/>
      <path class="cls-1" d="M131.85,105.87c-.48-.64-1.23-1.01-2.25-1.13.39,1.01,1.23,1.23,2.25,1.13Z"/>
      <path class="cls-1" d="M131.85,105.87c-.16-.99-1.36-1.59-2.25-1.13,1.02.11,1.78.49,2.25,1.13Z"/>
      <path class="cls-1" d="M148.68,122.06c-.3,2.8,1.33,2.15,3.71,1.65l-.08-.69-3.63-.95Z"/>
      <path class="cls-1" d="M149.17,116.03s.06.02.09.03c-.01-.13-.01-.26.01-.41-.02.19-.05.3-.1.38Z"/>
      <path class="cls-1" d="M149.26,116.06s-.06-.02-.09-.03c-.12.19-.31.09-.59-.3.51,2.4.73,3.29,2.16.43-.71,1.06-1.44.93-1.48-.11h0Z"/>
      <path class="cls-1" d="M149.26,116.06c.47.16.97.21,1.48.11-.38,0-1.18-.59-1.47-.52-.02.15-.02.29-.01.41h0Z"/>
      <path class="cls-1" d="M150.75,116.17c-.52.1-1.01.06-1.49-.11.05,1.04.77,1.17,1.49.11Z"/>
      <path class="cls-1" d="M149.27,115.65c-.23.05-.49.01-.69.09.19.12.39.22.59.3.05-.08.08-.2.1-.38Z"/>
      <path class="cls-1" d="M149.17,116.03c-.2-.08-.4-.17-.59-.3.28.39.48.49.59.3Z"/>
      <path class="cls-1" d="M152.82,121.55l-.68.09.17,1.38c.63.12.65.35.08.69,1.38-.29,1.92-.78.43-2.16Z"/>
      <path class="cls-1" d="M152.31,123.01l.08.69c.57-.34.55-.57-.08-.69Z"/>
      <path class="cls-1" d="M151.09,118.95c-.85-.66-2.06.89-1.21,1.55.85.66,2.06-.89,1.21-1.55Z"/>
      <path class="cls-1" d="M145.98,120.29c.75-.15-.15-1.02-.43-.65-.14.18.19.7.43.65Z"/>
      <path class="cls-1" d="M37.01,118.76c.18-.12.38-.25.66-.38-1.65.09-4-1.91-4.41-3.34-.17.22-.36.37-.57.47-.03.19-.1.43-.22.71.93.65,1.77,1.03,2.36,2.18l-.63.42c.91-.5,2.02-.56,2.81-.06h0Z"/>
      <path class="cls-1" d="M37.01,118.76c-.79-.5-1.9-.44-2.81.06,2.35,1.88,2.03.89,3.64.95-1.41-.05-1.65-.45-.83-1.01Z"/>
      <path class="cls-1" d="M31.69,115.62c.26.16.51.42.78.61.12-.29.19-.52.22-.71-.3.14-.63.19-1,.11h0Z"/>
      <path class="cls-1" d="M32.69,115.51c.21-.1.4-.25.57-.47-.15-.55-.01-1.01.57-1.24-.19-.23-.1-.65.28-1.31-1.21.54-1.58,2.2-2.42,3.12.69-.81,1.1-.77,1-.11Z"/>
      <path class="cls-1" d="M32.69,115.51c.1-.66-.31-.71-1,.11.37.08.7.04,1-.11Z"/>
      <path class="cls-1" d="M33.83,113.82c-.15.51-.33.93-.57,1.23.41,1.43,2.76,3.43,4.41,3.34-.25-1.38-2.43-2.88-3.9-3.05.04-.8.53-1.2,1.16-1.43-.57.12-.93.09-1.1-.1Z"/>
      <path class="cls-1" d="M33.83,113.82h0c-.58.22-.72.67-.57,1.23.24-.3.42-.72.57-1.23Z"/>
      <path class="cls-1" d="M37.67,118.38c-.28.13-.48.26-.66.38.35.22.65.55.83,1.01.12-.28-.29-1.1-.17-1.39Z"/>
      <path class="cls-1" d="M37.01,118.76c-.82.56-.58.95.83,1.01-.18-.46-.48-.79-.83-1.01Z"/>
      <path class="cls-1" d="M35.67,113.71l-1.56-1.21c-.06.5-.16.92-.27,1.3.4-.15.98-.21,1.83-.09Z"/>
      <path class="cls-1" d="M33.83,113.8s.01,0,.01,0c.11-.38.21-.81.27-1.3-.38.65-.47,1.08-.28,1.31h0Z"/>
      <path class="cls-1" d="M33.84,113.8s0,.01-.01.02c.17.18.53.22,1.1.1.23-.09.48-.15.74-.2-.85-.12-1.43-.07-1.83.09h0Z"/>
      <path class="cls-1" d="M33.84,113.8s-.01,0-.01,0c0,0,0,0,.01.01v-.02Z"/>
      <path class="cls-1" d="M34.2,118.82c-.09-.33-.28-.72-.57-1.16.24.38.44.77.57,1.16Z"/>
      <path class="cls-1" d="M32.47,116.22c.19,1.32.77,1.83,1.73,2.6-.14-.4-.33-.78-.57-1.16-.29-.43-.68-.91-1.16-1.44h0Z"/>
      <path class="cls-1" d="M32.47,116.22c.47.47.85.95,1.15,1.44.3.44.49.83.58,1.16l.63-.42c-.59-1.15-1.43-1.52-2.36-2.18h0Z"/>
      <path class="cls-1" d="M32.47,116.22c.48.53.87,1.01,1.15,1.44-.3-.49-.68-.97-1.15-1.44Z"/>
      <path class="cls-1" d="M28.84,114.22c.12-.24.32-.15.59.27-.16-.93-.36-1.02-.59-.27Z"/>
      <path class="cls-1" d="M28.84,114.22c-.03.1-.07.22-.1.36.24.03.53-.15.69-.09-.27-.42-.47-.51-.59-.27Z"/>
      <path class="cls-1" d="M28.66,113.29c-.26.36.13.97.08,1.29.02-.16.06-.28.1-.36.24-.75.43-.66.59.27l.79-2.2c-.25.82-1.39.76-1.56,1h0Z"/>
      <path class="cls-1" d="M28.74,114.58c.03-.14.07-.25.1-.36-.04.08-.08.2-.1.36Z"/>
      <path class="cls-1" d="M48.8,134.23c-.21.15-.43.29-.64.44l.78.61c-.21-.37-.24-.72-.14-1.05Z"/>
      <path class="cls-1" d="M48.94,135.28c.86-1.79,1.71-1.74,3.41-1.86.1-.5.22-.99.4-1.43-1.29.57-2.6,1.32-3.95,2.25-.1.33-.07.68.14,1.05Z"/>
      <path class="cls-1" d="M52.93,133.37l-.18-1.38c-.18.44-.3.93-.4,1.43.19-.01.37-.03.58-.05Z"/>
      <path class="cls-1" d="M47.95,132.66c-.28.32.34,1.64.21,2.02.22-.16.43-.3.64-.44.27-.86,1.58-1.61,3.95-2.25-1.03.35-4.37.18-4.8.67Z"/>
      <path class="cls-1" d="M48.8,134.23c1.35-.92,2.66-1.68,3.95-2.25-2.37.63-3.68,1.38-3.95,2.25Z"/>
      <path class="cls-1" d="M47.96,135.58c-.05.22-.1.44-.14.67.08-.14.17-.27.27-.39-.08-.03-.12-.13-.13-.28Z"/>
      <path class="cls-1" d="M48.09,135.86c-.1.12-.19.25-.27.39-.18.86-.36,1.76-.52,2.75.61-1.28,1.11-2.62,1.64-3.73-.4.49-.69.66-.85.58Z"/>
      <path class="cls-1" d="M47.96,135.59c-.01-.21.05-.51.2-.91-.31.91-2.08,1.98-.86,4.33-.05-.9.08-1.97.52-2.75.04-.23.09-.45.14-.67h0Z"/>
      <path class="cls-1" d="M47.3,139c.16-.99.34-1.89.52-2.75-.44.78-.57,1.85-.52,2.75Z"/>
      <path class="cls-1" d="M48.09,135.86c.22-.27.5-.47.85-.58l-.78-.61c-.06.29-.13.61-.19.91,0,.15.04.24.12.28h0Z"/>
      <path class="cls-1" d="M48.09,135.86c.16.07.45-.1.85-.58-.35.11-.63.32-.85.58Z"/>
      <path class="cls-1" d="M48.16,134.67c-.15.4-.21.71-.2.91.07-.3.13-.63.2-.91Z"/>
      <path class="cls-1" d="M94.61,118.33s.04-.04.07-.06c-.04-.02-.06-.04-.1-.06.02.04.02.08.03.12Z"/>
      <path class="cls-1" d="M94.07,117.73c.04.17.19.33.51.49-.07-.24-.17-.44-.27-.61-.08.05-.16.09-.24.12Z"/>
      <path class="cls-1" d="M94.77,118.97c-.45-.15-.49-.37-.16-.63-.01-.04-.01-.08-.03-.12-.31-.16-.47-.32-.51-.49-.37.14-.76.05-.95-.66.41.86.32,1.74,1.65,1.9Z"/>
      <path class="cls-1" d="M94.07,117.73c-.02-.12.02-.24.09-.36-.27-.3-.62-.4-1.04-.31.19.71.58.8.95.66Z"/>
      <path class="cls-1" d="M94.89,116.83c.04.18-.23.56-.58.78.1.17.2.36.27.6.04.02.06.04.1.06.17-.7.68-1.36.43-2.16-.66.37-1.26.7-1.99.95.42-.1.77,0,1.04.31.21-.34.72-.6.73-.54Z"/>
      <path class="cls-1" d="M94.16,117.37c-.07.11-.11.23-.09.36.08-.03.16-.07.24-.12-.05-.08-.1-.18-.15-.24Z"/>
      <path class="cls-1" d="M94.31,117.61c.34-.23.62-.6.58-.78-.01-.06-.52.2-.73.54.06.06.1.16.15.24Z"/>
      <path class="cls-1" d="M94.77,118.97c.06-.19-.14-.47-.09-.69-.03.02-.04.04-.07.06.06.2.12.39.16.63Z"/>
      <path class="cls-1" d="M94.77,118.97c-.04-.24-.1-.43-.16-.63-.33.26-.29.48.16.63Z"/>
      <path class="cls-1" d="M91.86,115.78c-.09.03-.17.07-.22.13-.25.32.16,1,.1,1.32-.04-.6.22-.86.56-.82.06-.26.27-.55.65-.74-.39.12-.75.14-1.09.11Z"/>
      <path class="cls-1" d="M92.3,116.41c.27.03.58.24.82.65-.17-.37.01-1.09-.17-1.39-.38.19-.59.47-.65.74Z"/>
      <path class="cls-1" d="M92.3,116.41c-.34-.03-.6.23-.56.82.43-.11.98-.04,1.38-.17-.65.12-.92-.24-.82-.65Z"/>
      <path class="cls-1" d="M92.3,116.41c-.1.41.17.78.82.65-.24-.41-.56-.62-.82-.65Z"/>
      <path class="cls-1" d="M91.86,115.78c.34.04.71.01,1.09-.11-.3.07-.78,0-1.09.11Z"/>
      <path class="cls-1" d="M94.94,120.35c-.03.15-.06.26-.1.34.05-.07.08-.18.1-.34Z"/>
      <path class="cls-1" d="M94.84,120.69c-.13.26-.33.18-.59-.25.15.51-.19,1.2.53,1.35,2.08.43.21-1.16.17-1.43-.02.16-.06.26-.11.34h0Z"/>
      <path class="cls-1" d="M94.84,120.69c.04-.08.08-.19.1-.34l-.69.09c.28.35.47.44.59.25Z"/>
      <path class="cls-1" d="M94.84,120.69c-.12.18-.31.1-.59-.25.26.43.46.51.59.25Z"/>
      <path class="cls-1" d="M70.96,114.12c-.69,2.74.3,4.75,3.36,4.6-.55-1.33-.51-3.48-1.39-5.46-.42,1.02-1.28,1.2-1.97.86h0Z"/>
      <path class="cls-1" d="M70.96,114.12c-.6-.3-1.08-.99-.97-1.9-.08.97-.82,2.03-.67,3.24.38,3.23,1.86,5.84,5,3.26-3.06.15-4.05-1.86-3.36-4.6Z"/>
      <path class="cls-1" d="M70.96,114.12c.69.34,1.55.16,1.97-.86l-2.94-1.04,1.15,1.24c-.08.23-.12.44-.18.66h0Z"/>
      <path class="cls-1" d="M70.96,114.12c.06-.22.1-.43.18-.66l-1.16-1.24c-.1.91.37,1.6.98,1.9h0Z"/>
      <path class="cls-1" d="M120.16,124.82v.12s.01-.06,0-.12Z"/>
      <path class="cls-1" d="M120.16,124.93c.29,0,.51.03.69.08.19-.19.41-.27.66-.26-.16-.2-.31-.47-.45-.84-.23.48-.54.86-.9,1.01h0Z"/>
      <path class="cls-1" d="M121.07,123.92c.14.37.29.64.45.84.2.01.4.08.62.22.2-.13.45-.26.8-.39-.84-1.54-2.57.3.95-3.63l-3.55-.26c1.33.27,1.31,2.05.73,3.23h0Z"/>
      <path class="cls-1" d="M121.97,125.08c-.63.46-.27.81,1.14.89-.27-.4-.55-.7-.84-.9-.1.03-.2.03-.3.01Z"/>
      <path class="cls-1" d="M123.11,125.97c-.18-.32,0-1.06-.18-1.39-.23.28-.44.42-.66.48.29.21.57.5.84.9Z"/>
      <path class="cls-1" d="M123.11,125.97c-1.41-.08-1.77-.43-1.14-.89-.16-.04-.31-.14-.46-.32-.25-.02-.47.07-.66.26.66.2.48.75-.51,1.3.88-.2,1.91-.11,2.77-.35h0Z"/>
      <path class="cls-1" d="M121.52,124.76c.14.18.29.28.45.32.04-.03.11-.07.17-.1-.22-.13-.43-.2-.62-.22Z"/>
      <path class="cls-1" d="M122.27,125.07s-.09-.06-.14-.09c-.05.03-.12.07-.16.1.1.02.2.02.3-.01h0Z"/>
      <path class="cls-1" d="M122.27,125.07c.21-.06.43-.21.66-.48-.34.14-.59.27-.8.39.05.03.1.06.14.09Z"/>
      <path class="cls-1" d="M120.85,125.02c-.18-.05-.4-.09-.69-.08.06.18.08.32.05.42.04.32.1.65.12.97.07-.64.26-1.05.52-1.3Z"/>
      <path class="cls-1" d="M120.16,124.94c.01.14.03.28.05.42.03-.1.01-.24-.05-.42Z"/>
      <path class="cls-1" d="M120.85,125.02c-.26.25-.45.66-.52,1.3,1-.55,1.18-1.1.52-1.3Z"/>
      <path class="cls-1" d="M120.16,124.82c.01.06.01.11,0,.12.36-.15.67-.54.91-1.01-.28-.74-.53-1.81-.74-3.23-.17.95-.21,1.76-.2,2.65.03.46.04.94.03,1.47h0Z"/>
      <path class="cls-1" d="M120.33,120.69c.21,1.43.46,2.5.74,3.23.57-1.19.6-2.96-.74-3.23Z"/>
      <path class="cls-1" d="M120.12,123.34c.01.45.02.92.04,1.45v.03c.01-.54,0-1.02-.04-1.48Z"/>
      <path class="cls-1" d="M128.47,118.26c-.85-.66-2.05.89-1.2,1.55.17.13.36.16.54.14.17-.09.34-.17.52-.25.43-.38.64-1.06.14-1.44h0Z"/>
      <path class="cls-1" d="M128.33,119.71c-.18.07-.35.16-.52.24.19-.02.37-.11.52-.24Z"/>
      <path class="cls-1" d="M34.52,62.46l.09.69c.42-.29.39-.52-.09-.69Z"/>
      <path class="cls-1" d="M93.38,119.14c-.38-.21-.73-1.4-1.55-1.21l.22,1.73.73.26c-.69-.84-.43-1.26.6-.78Z"/>
      <path class="cls-1" d="M93.38,119.14c-.51.05-.73.3-.6.78,0-.14.51-.5.6-.78Z"/>
      <path class="cls-1" d="M93.38,119.14c-1.03-.48-1.29-.06-.6.78-.13-.48.09-.73.6-.78Z"/>
      <path class="cls-1" d="M146.93,105.84c-1.92,2.2-6.05-.81-7.02-3.09.1.45.05.97.17,1.39,1.83.52,1.81,1.03.26,2.08l.09.69c.26.19.55.37.78.6.99,1.04,1.43,1.13,2.34,1.82.81.62,1.54,1.18,2.34,1.82.67-.66,1.26-.41,1.72.12-.02-1.03.23-2.13.79-2.55-1.2-.2-1.73-1.03-1.67-2.22l.63-.47c-.25-.05-.37-.12-.43-.2h0Z"/>
      <path class="cls-1" d="M148.51,113.47c.16.02-.22-1.4-.9-2.2.02,1.1.33,2.12.9,2.2Z"/>
      <path class="cls-1" d="M147.61,111.27c.68.79,1.06,2.22.9,2.2-.57-.08-.88-1.1-.9-2.2-.46-.53-1.05-.78-1.72-.12.86.69,1.63,1.92,2.78,2.45l-.61-2.03,1.46.53c.37-1.55-.78-2.5-1.12-3.39-.56.42-.8,1.52-.79,2.55h0Z"/>
      <path class="cls-1" d="M147.36,106.03l-.09-.69c-.1.19-.22.35-.34.5.06.08.18.15.43.2h0Z"/>
      <path class="cls-1" d="M139.91,102.74c.97,2.29,5.1,5.29,7.02,3.09-.1-.13,0-.29.34-.5-.95-.22-1.92.07-2.61-.19-1.78-.68-2.74-2.47-4.75-2.4h0Z"/>
      <path class="cls-1" d="M146.93,105.84c.12-.14.24-.31.34-.5-.34.21-.44.37-.34.5Z"/>
      <path class="cls-1" d="M139.66,103.79c.12.1.26.22.42.34-.1-.15-.25-.25-.42-.34Z"/>
      <path class="cls-1" d="M140.08,104.13c.07.25-.19.86.26,2.08,1.55-1.05,1.57-1.56-.26-2.08Z"/>
      <path class="cls-1" d="M145.47,113.67c-1.02-.53-1.75-1.75-1.61-2.43-.42-.37-.58-1.04-.31-1.91l-1.99.95c1.46-.59,1.88.1.87,1.3,1.1,1.31,2.24,1.15,3.2,3.12-.39-.78-.52-1.08-.16-1.03h0Z"/>
      <path class="cls-1" d="M143.86,111.24c-.14.68.6,1.9,1.61,2.43.15.02.4.1.77.25-1.34-.92-2.12-2.03-.35-2.77-.84.52-1.59.49-2.03.09Z"/>
      <path class="cls-1" d="M141.56,110.28c.3.44.4.75.86,1.3,1.02-1.2.59-1.89-.86-1.3Z"/>
      <path class="cls-1" d="M145.63,114.7l.61-.78c-.27-.03-.53-.12-.77-.25-.37-.05-.23.25.16,1.03h0Z"/>
      <path class="cls-1" d="M146.24,113.92c-.37-.15-.61-.23-.77-.25.24.13.5.22.77.25Z"/>
      <path class="cls-1" d="M143.55,109.33c-.27.87-.11,1.55.3,1.91.1-.52.69-.72,2.04-.09-.8-.64-1.53-1.2-2.34-1.82Z"/>
      <path class="cls-1" d="M143.86,111.24c.44.39,1.19.43,2.03-.09-1.34-.63-1.93-.42-2.03.09Z"/>
      <path class="cls-1" d="M154.17,116.44l.82-.1c-.18-.06-.5.03-.82.1Z"/>
      <path class="cls-1" d="M152.99,117.28h0s2-.93,2-.93l-.82.1c-.2.04-.4.09-.57.07-.2.25-.39.41-.55.5-.05.08-.08.17-.07.27h.01Z"/>
      <path class="cls-1" d="M153.05,117.01c.17-.09.35-.25.55-.49,0,.09-.39.24-.55.49Z"/>
      <path class="cls-1" d="M91.13,123.65c-.68.12-1.4.12-2.08.26.46.34.8.66,1.05.95-.03-.54.31-.94,1.03-1.21h0Z"/>
      <path class="cls-1" d="M90.09,126.6c.36-.02,1.03.44,1.48.52-.43-.41-.75-.78-.99-1.12-.05.23-.2.44-.49.61h0Z"/>
      <path class="cls-1" d="M90.5,125.88c-.2-.31-.33-.59-.37-.85-.29-.17-.63-.56-1.08-1.12-.12,1.27-1.47,1.07.93,1.74l.12.94c.12-.39.25-.62.4-.72Z"/>
      <path class="cls-1" d="M90.13,125.03c-.02-.06-.02-.12-.03-.17-.25-.29-.59-.6-1.04-.95.44.56.79.95,1.07,1.12h0Z"/>
      <path class="cls-1" d="M90.58,125.99s-.06-.08-.08-.11c-.15.1-.28.33-.41.72.29-.17.44-.37.49-.61h0Z"/>
      <path class="cls-1" d="M91.13,123.65c-.19,1.16-.44,1.57-.83,1.45.19.27.3.51.31.73.28-.05.6.37.96,1.29-.14-1.07-.48-2.49-.44-3.47h0Z"/>
      <path class="cls-1" d="M90.1,124.86c.07.08.14.17.2.24.39.12.64-.29.83-1.45-.73.26-1.06.67-1.03,1.21h0Z"/>
      <path class="cls-1" d="M90.61,125.83c0,.06-.02.11-.03.16.24.34.57.72.99,1.12-.36-.92-.68-1.34-.96-1.29h0Z"/>
      <path class="cls-1" d="M90.5,125.88s.07-.04.11-.05c-.01-.22-.12-.46-.31-.73-.06-.02-.11-.03-.17-.07.05.26.17.54.37.85h0Z"/>
      <path class="cls-1" d="M90.13,125.03c.06.04.11.05.17.07-.06-.08-.13-.16-.2-.24.01.06.02.11.02.17h.01Z"/>
      <path class="cls-1" d="M90.5,125.88s.06.07.08.11c.01-.05.03-.1.03-.16-.04,0-.07.02-.11.05h0Z"/>
      <path class="cls-1" d="M141.62,91.54c-1.23-1.08-1.04-1.52.01-3.09l-1.3.87c-.06.32-.15.48-.27.49-.06.09-.16.18-.33.29.89.21,1.19,1.23,1.64,1.9.07-.28.15-.42.25-.46Z"/>
      <path class="cls-1" d="M141.37,92c.2.06.48-.14.7-.09-.17-.14-.31-.26-.45-.37-.1.04-.18.18-.25.46h0Z"/>
      <path class="cls-1" d="M141.63,88.45c-1.05,1.57-1.24,2.01-.01,3.09.13-.05.27.06.45.37l1.03-2.08s-.06-.05-.09-.09l-1.81.86c.09-1.59,2.45-.07.43-2.16h0Z"/>
      <path class="cls-1" d="M143.19,89.66l-.18.08s.06.06.09.09l.09-.17h0Z"/>
      <path class="cls-1" d="M141.62,91.54c.14.12.28.24.45.37-.18-.31-.32-.43-.45-.37Z"/>
      <path class="cls-1" d="M140.06,89.8c-.11,0-.25-.12-.42-.4.06.22.03.47.09.69.17-.11.27-.21.33-.29h0Z"/>
      <path class="cls-1" d="M140.06,89.8c.12,0,.21-.17.27-.49l-.69.09c.44.07.57.2.42.4h0Z"/>
      <path class="cls-1" d="M140.06,89.8c.15-.2.02-.34-.42-.4.17.28.31.41.42.4Z"/>
      <path class="cls-1" d="M140.48,93.8c-.06-.04-.11-.08-.17-.13.03.19.01.39-.06.58.06-.26.14-.4.23-.45h0Z"/>
      <path class="cls-1" d="M140.31,93.67c.05.04.11.08.16.13.13-.07.28.03.47.36-.02-1.49-.11-1.56-1.56-1.21.54-.15.87.24.93.72h0Z"/>
      <path class="cls-1" d="M140.25,94.25c.11-.13.52.04.69-.09-.15-.12-.32-.25-.47-.36-.09.05-.17.19-.22.45Z"/>
      <path class="cls-1" d="M140.48,93.8c.15.12.31.25.46.36-.19-.33-.34-.44-.46-.36Z"/>
      <path class="cls-1" d="M140.25,94.25c.07-.19.08-.39.06-.58-.31-.24-.61-.47-.93-.72.13.58.17,1.2.87,1.3Z"/>
      <path class="cls-1" d="M139.38,92.95c.32.25.63.48.93.72-.06-.48-.39-.87-.93-.72Z"/>
      <path class="cls-1" d="M139.73,90.09c.15.56.07,1.92.26,2.08.17.16,1.06-.28,1.38-.17-.75-.06-1.3-.7-1.64-1.9h0Z"/>
      <path class="cls-1" d="M139.73,90.09c.38.79.93,1.43,1.64,1.9-.45-.68-.75-1.69-1.64-1.9Z"/>
      <path class="cls-1" d="M141.37,92c-.71-.48-1.26-1.11-1.64-1.9.35,1.21.89,1.84,1.64,1.9Z"/>
      <path class="cls-1" d="M140.77,98.41c-1.1,0-1.32-1.74-1.04-2.69-.12.63-.35.65-.69.09,1.02,3.37,1.6,4.23,1.73,2.6Z"/>
      <path class="cls-1" d="M140.77,98.41c-.17-1.09-1-2.34-1.04-2.69-.28.94-.06,2.69,1.04,2.69Z"/>
      <path class="cls-1" d="M141.2,101.88c-.16-1.15-.24-2.32-.43-3.46-.13,1.63-.7.77-1.73-2.6.46,2.07-.2,5.43,2.16,6.06Z"/>
      <path class="cls-1" d="M139.73,95.73l-.69.09c.34.56.57.54.69-.09Z"/>
      <path class="cls-1" d="M140.91,88.35s-.01.06-.02.1c.02-.01.04-.02.05-.03-.01-.02-.02-.04-.03-.06Z"/>
      <path class="cls-1" d="M140.91,88.35s.02.04.03.06c.19-.13.41-.15.69.03-.23-.24-.51-.42-.78-.6.08.16.08.33.06.51h0Z"/>
      <path class="cls-1" d="M140.89,88.44s0-.06.02-.1c-.06-.12-.09-.28-.06-.51-.16.43-.67.83-.52,1.47.16-.34.33-.68.56-.87h0Z"/>
      <path class="cls-1" d="M140.91,88.35c.02-.18.02-.35-.06-.51-.03.23,0,.39.06.51Z"/>
      <path class="cls-1" d="M140.94,88.41s-.03.02-.05.03c-.07.28-.24.56-.56.87l1.3-.87c-.35.14-.57.12-.69-.04h0Z"/>
      <path class="cls-1" d="M140.94,88.41c.12.16.34.18.69.04-.27-.19-.5-.17-.69-.04Z"/>
      <path class="cls-1" d="M140.89,88.44c-.22.18-.4.53-.56.87.32-.31.49-.59.56-.87Z"/>
      <path class="cls-1" d="M82.1,85.35c1.12.07,1.94-.76,1.9-1.81-.47.47-1,.95-1.55,1.37l-.35.45Z"/>
      <path class="cls-1" d="M83.92,83.01l-1.47,1.88c.55-.42,1.08-.9,1.55-1.36,0-.17-.03-.34-.08-.52Z"/>
      <path class="cls-1" d="M92.25,104.5c-.19.93.27,1.5-1.12,2.25,1.09-.63,1.27-.57.78.6.92-1.26,1.01-2.44.25-3.55l.05.36c.03.11.06.23.04.34h0Z"/>
      <path class="cls-1" d="M91.13,106.75c.17.2.53.38.78.6.49-1.18.31-1.23-.78-.6Z"/>
      <path class="cls-1" d="M92.21,104.16l-.05-.36c-.02.11.01.23.05.36Z"/>
      <path class="cls-1" d="M91.91,107.36c2.57-2.57,1.61-2.17.25-3.55.75,1.11.67,2.29-.25,3.55Z"/>
      <path class="cls-1" d="M85.34,103.85c-.06.04-.11.08-.19.13.12,0,.21,0,.31,0-.04-.04-.08-.09-.12-.14Z"/>
      <path class="cls-1" d="M86.64,104.45c-.18,0-.34,0-.45-.04-.1.22-.42.53-.87.96l1.3-.87s.01-.03.02-.05h0Z"/>
      <path class="cls-1" d="M86.19,104.41c-.16-.05-.25-.14-.25-.3-.15.04-.32,0-.48-.12-.1,0-.19,0-.31,0,.12.43.08.94.17,1.39.45-.43.77-.74.87-.96Z"/>
      <path class="cls-1" d="M85.06,103.29c.07.2.02.46.09.69.08-.05.13-.09.19-.13-.12-.14-.22-.31-.28-.56h0Z"/>
      <path class="cls-1" d="M85.34,103.85c.04.05.08.1.12.14.21,0,.38.02.5.05.03-.21.19-.5.48-.93-.1.14-1.01.04-1.38.17.54.13.61.32.27.56h.01Z"/>
      <path class="cls-1" d="M85.46,103.99c.16.12.33.16.48.12,0-.02.02-.05.02-.07-.12-.03-.29-.04-.5-.05h0Z"/>
      <path class="cls-1" d="M85.06,103.29c.06.25.16.43.28.56.33-.25.26-.44-.28-.56Z"/>
      <path class="cls-1" d="M86.04,104.07c.19.07.23.18.15.34.11.03.27.04.45.04.14-.47.36-.48.67-.04-.1-.38-.69-.86-.86-1.3.02.51-.16.83-.41.96h0Z"/>
      <path class="cls-1" d="M86.04,104.07s-.06.03-.09.04c-.01.15.08.25.25.3.07-.16.03-.27-.16-.34h0Z"/>
      <path class="cls-1" d="M86.04,104.07c.25-.12.43-.44.41-.96-.3.43-.46.72-.49.93.03,0,.06.02.08.03h0Z"/>
      <path class="cls-1" d="M85.96,104.04s-.02.05-.02.07c.04,0,.07-.02.1-.04-.03,0-.05-.02-.08-.03Z"/>
      <path class="cls-1" d="M86.62,104.5l.69-.09c-.27.03-.48.04-.67.04-.01.02-.02.03-.02.05h0Z"/>
      <path class="cls-1" d="M86.64,104.45c.19,0,.4-.01.67-.04-.31-.45-.53-.43-.67.04Z"/>
      <path class="cls-1" d="M51.53,111.01c.85.66,2.06-.89,1.21-1.55-.85-.66-2.06.89-1.21,1.55Z"/>
      <path class="cls-1" d="M78.8,112.82c.3-.1.61-.18.91-.26-.79-.04-1.48-.23-2.01-.6.77.32,1.1.62,1.1.86h0Z"/>
      <path class="cls-1" d="M77.7,111.96l-.52,1.47c.53-.23,1.07-.43,1.63-.61-.01-.25-.34-.54-1.11-.86h0Z"/>
      <path class="cls-1" d="M83.22,111.97s-.03-.1-.05-.14c-1.06-1.04-4,.2-5.47.14.54.38,1.22.56,2.01.6,1.12-.3,2.28-.5,3.51-.59Z"/>
      <path class="cls-1" d="M83.33,111.95c-.04-.06-.11-.08-.16-.13.01.05.03.1.05.14.03,0,.07,0,.11-.01h0Z"/>
      <path class="cls-1" d="M83.23,112.02s-.01-.03-.01-.04c-1.37.46-2.53.63-3.51.57-.31.08-.61.16-.91.26.01.33-.59.57-1.62.61,2.69.26,3.59.43,6.05-1.41h0Z"/>
      <path class="cls-1" d="M83.23,112.02s.06-.04.1-.07c-.04.01-.07.02-.11.03,0,.01.01.03.01.04h0Z"/>
      <path class="cls-1" d="M78.8,112.82c-.55.18-1.09.38-1.62.61,1.03-.04,1.63-.28,1.62-.61Z"/>
      <path class="cls-1" d="M79.71,112.56c.98.06,2.14-.12,3.51-.57v-.02c-1.22.09-2.39.29-3.51.59h0Z"/>
      <path class="cls-1" d="M83.22,111.98s.07-.02.11-.03c-.04,0-.08,0-.11.01v.02Z"/>
      <path class="cls-1" d="M65.04,100.87l2.08-.27c.23-.26-1.28-1.59-1.65-1.9.89,1.25,1.12,1.67-.43,2.16h0Z"/>
      <path class="cls-1" d="M65.47,98.7c.24.79-.32,1.51-.43,2.16.6-.65.88-1.35.43-2.16Z"/>
      <path class="cls-1" d="M65.04,100.87c1.55-.5,1.33-.92.43-2.16.44.82.17,1.51-.43,2.16Z"/>
      <path class="cls-1" d="M117.38,114.02c-1.15.08-1.01,2.16-1.12,2.25.41-.75.61-1.13.61-1.13,0,0-.21.38-.61,1.13.1-.38,1.86-.91,1.12-2.25Z"/>
      <path class="cls-1" d="M132.57,92.65c0,.15-.05.31-.2.47l.58-.21c-.12-.09-.25-.17-.38-.26Z"/>
      <path class="cls-1" d="M134.73,91.56c.86.64,1.39,1.2,1.65,1.64.06-.35.09-.76.06-1.29-.53.03-1.09-.09-1.71-.36Z"/>
      <path class="cls-1" d="M135.85,94.23c-.49-.04-1.2-.29-2.09-.8.95.78,1.65,1.04,2.09.8Z"/>
      <path class="cls-1" d="M134.73,91.55c.62.27,1.18.39,1.71.36-1.35-.89-2.13-1.28-3.73-1.64.81.45,1.48.88,2.02,1.29h0Z"/>
      <path class="cls-1" d="M132.57,92.65c.13.1.26.18.38.26l.16-.06c.24.22.45.4.65.57.89.51,1.61.77,2.09.8.27-.15.45-.49.53-1.03-.26-.45-.79-1.01-1.65-1.64-.62-.27-1.3-.7-2.02-1.29,1.03,1.49,3.07,1.92,3.29,3.81-1.74-.58-2.35-2.29-4.5-2.25.73.23,1.06.51,1.07.82h0Z"/>
      <path class="cls-1" d="M132.71,90.27c.72.59,1.4,1.01,2.02,1.29-.54-.4-1.21-.84-2.02-1.29Z"/>
      <path class="cls-1" d="M132.57,92.65c-.34-.24-.7-.51-1.07-.82.22.44.69.86.86,1.3.16-.17.21-.33.21-.47h0Z"/>
      <path class="cls-1" d="M132.57,92.65c-.01-.32-.34-.6-1.07-.82.37.31.73.58,1.07.82Z"/>
      <path class="cls-1" d="M136.44,91.91c.03.52,0,.93-.06,1.29.41.68.19,1.08-.53,1.03-.44.24-1.14-.02-2.09-.8-.25-.15-.52-.32-.81-.51l-.58.21c1.73.74,3.23,2.52,5.19,2.16.05-1.25-.87-2.25-1.12-3.38h0Z"/>
      <path class="cls-1" d="M133.11,92.86l-.16.06c.29.19.56.36.81.51-.21-.17-.42-.35-.65-.57h0Z"/>
      <path class="cls-1" d="M136.38,93.2c-.08.54-.25.88-.53,1.03.72.05.94-.35.53-1.03Z"/>
      <path class="cls-1" d="M135.84,89.46c.02-.1.09-.2.25-.32-.57-.21-.52-.02-.25.32Z"/>
      <path class="cls-1" d="M135.84,89.46c-.27-.33-.32-.53.25-.32l-.44-.65c-.7.16-.37,1.5.53,1.34-.28-.1-.37-.23-.34-.38h0Z"/>
      <path class="cls-1" d="M136.09,89.14c-.16.12-.23.22-.25.32.09.11.21.24.34.38-.04-.22-.12-.67-.09-.69Z"/>
      <path class="cls-1" d="M136.18,89.83c-.13-.14-.25-.26-.34-.38-.03.15.07.27.34.38Z"/>
      <path class="cls-1" d="M119.2,111.57c.07-.58,1.53-1.78-.87-1.19.61-.06.89.34.87,1.19Z"/>
      <path class="cls-1" d="M119.2,111.68l-.86-1.3c0,.49.21,1.44.86,1.3Z"/>
      <path class="cls-1" d="M118.33,110.38l.87,1.3s-.01-.07,0-.11c.02-.85-.26-1.25-.87-1.19Z"/>
      <path class="cls-1" d="M89.14,118.97c-.24.49-.39,1.21-.43,2.16l.43-2.16Z"/>
      <path class="cls-1" d="M89.14,118.97l-.43,2.16c1.96.08,1.62-.85.43-2.16Z"/>
      <path class="cls-1" d="M88.71,121.14c.04-.96.19-1.68.43-2.16-2.53.24-1.01.76-.43,2.16Z"/>
      <path class="cls-1" d="M140.43,106.9l.78.6c-.23-.24-.52-.41-.78-.6Z"/>
      <path class="cls-1" d="M141.21,107.51l-.78-.6c.16.3.46.5.78.6Z"/>
      <path class="cls-1" d="M44.61,140.05c3.3-3.59-.82-9.37-.35-14.03.18-.25,3.07.72,3.64.95l-.87-1.28c1.54-.28,2.22-1.56,3.21-2.53-.42.29-4.57,1.45-4.77,1.3-.34-1.1.51-1.91,1.04-2.94.05-.46-.41-.72-.78-.61-.31.1-1.08,1.14-1.29.86-1.1-2.7.46-2.74.89-2.92-.22-.34-.46-.78-.73-1.33-1.05-2.46-1.13-3.41-1.47-6.15-.16-1.22-.27-2.39.26-3.55l-.87-1.3c1.02-.41.74.64.8,1.11.02.06.04.12.07.19.11.09,1.9-1.23,2.68-1.04.29-.64.46-1.46.44-2.16.76-1.02,1.55,2.57,1.81,3.29.76-.09,1.39-.72,2-.95,1.07-.41,2.27-.56,3.37-1.13.64-.33.71-.2,1.3-.87-1.18-1.07-3.27-1.32-3.2-3.12,1.23.25,1.92,1.62,3.06,1.72.18-.03.4-.05.66-.08-1.51-1.56-2.37-2.12.35-2.86.14-3.65-.64-4.43-.96-7.62l-.97-1.93s-.03-.01-.05-.03l-1.23.83c-.19-.64-.05-1.54-.26-2.08-.18-.44-.68-.85-.87-1.3-2.13-.26-1.81.35-2.7,1.28-1.18,1.25-1.44-1.69.8-2.46.49-.17,1.19-.2,1.73-.21,1.88-.05,2.92.82,1.73,2.6.8.58,1.79.93,2.34,1.82,1.18,1.89,2.27,9.65,2.28,12.09.01,1.29-2.42,1.41-1.14,2.56.21.19,1.03-1.19,1.33-.52.53,1.16.68,3.22,1.27,4.41.31.64.64,1.46.95,1.99.6-.75,1.98-.21,2.08-.26,1.19-.64-.79-.82,1.99-.95,1.9-.1,3.73-.19,5.63,0,.04-.6.54-1.43.43-2.16-2.86-.32-5.73-.6-8.58-1.04.36-1.84.71-1.11,1.72-1.02,1.02.09,5.62,1.14,5.99.76-2.1-4.34,1.75-1.49,1.57,1.22.44.01.93-.16,1.38-.17,4.11-3.5,2.99-1.22,4.91-.32,1.33.63,3.56-.5,3.76,2.04.27-.14.71-.06,1.14-.38.39-.3.48-.91.76-1.27.45-.57.78-.68,1.22-1.56-1.48-2.71-2.35-2.48-.61-4.85.22-.31,1.12-1.53,1.21-1.56l-.26-2.08c-1.15.09-2.31.33-3.46.43-.77-1.97,1.55-1.61,2.11-3.06.88-2.27-1.53-2.42-2.13-3.76-.56-1.25-.47-4.76-.8-5.01-.17-.13-2.39.32-3.53-.29-.69-.37-.82-3.19-2.6-3.89l4.51,2.24c.56-.22,1.6.05,2.25-.27.59-.29,1.87-3.66,4.33-3.38l-1.51-.85c1.18-1.33.67-3.29,1.21-4.69.57-1.46,1.8-1.74,2.58-2.73.3-.37-.25-1.46.43-1.93.73-.52,7.06-2.47,8.02-2.43,1.75.08,2.84,2.86,4.96,3.2,1.41.22,5.1-.61,6.15-1.74-2.61-3.63-2.12-8.21,1.73-3.03,1.26,1.7,2.35,4.08,3.55,5.89.61-1,.39-2.04,1.04-2.95-.71-3.71-.59-2.74-2.86-5.98-3.06-4.37-.97-2.46-.43-3.46.07-.13-1.4-1.12-.52-1.35.85-.25,1.63.44,1.9,1.18.62,1.66-1.17,1.41-1.11,1.88.05.33.68.69.77.98,3.29.66,3.75-.5,6.05-1.75.48-.26,1.44.09,2.09-.34,1.17-.77,1.26-2.2,2.02-3.2.23-.32,1.28-.24,1.56-.59.55-.72.76-4.78,2.4-5.05l-19.94-24.25c-.16.6-.39.62-.7.09-.05.05-.12.07-.18.11-.4.35-1.01,1.33-2.54.6-.21-.1-1.06-1.04-1.94-2.1-.03-.04-.06-.07-.09-.11-1.03-1.25-2.06-2.61-2.11-2.92-.22-1.39,3.73-9.22,4.95-10.83-.62-.12-.64-.35-.09-.69.36-1.14.57-2.36,1.73-3.03-.61-.1-.62-.33-.08-.69-.98-1.15-2.17-2.02-3.21-3.12-6.15-2.24-11.62-4.51-18.22-5.13-2.93-.28-9.03-.62-11.75-.31-1.12.13-1.01.38-1.57.95,3.28-.18,1.1,2.62-.95,3.64-1.8.89-2.15-1.04-1.82,2.34.09.07-.09.92.32,1.17.7.44,2.05-.1,2.74.91-2.61,2.28-4.12.37-2.89,4.94.25.2.43.54.79.6.53.09,1.43-.31,2.08-.26.98,3.21-.88,1.71-1.82,2.34-.13.09-.45,1.93-1.13,2.25.22,1.28,1.19,4.82.01,5.63-.3-2.53-.69-5.08-.96-7.62-.12-1.11-.78-2.83.26-3.55-.1-.15-.09-.49-.08-.85-.21-.43-.34-.83-.4-1.19-.55-.16-1.59.54-1.92-.13-.47-.97,2.63-2.43,1.84-4.24-.1-.15-.21-.32-.32-.51-.95-1.05-1.2-2.35-1.82-3.29-.34-.51-1.44-1.03-1.64-1.9-.13.01-1.23-.56-2.44-.45-5.06.47-9.97,1.53-14.89,2.62-1.36,2.88-8.86,15.75-8.42,17.48.1.4,1.1.74,1.58.98.15-.63.38-.65.69-.09.04.02.08.05.14.1l.64.5c.12-.62.35-.64.7-.09l.77.61c.16-.63.39-.66.7-.09l.78.61c.15-.63.38-.66.69-.09,3.19,1,8.75,3.14,11.7,3.46,1.69.18,4.27-.89,6.32-.08-.49.97-.74,3.01-1.27,3.69-1.04,1.31-2.93.49-3.77,1.81-.07.41-.21.91-.41,1.51,1.37.22,1.45.83.17,1.39.14,3.55-.46,1.52-1.93,3.01-.59.59-.86,2.21-1.28,2.31-.38.09-.96-1.15-1.21-1.24-.12.6-.35.62-.69.09l-1.3.87c-.11.64-.34.65-.69.09l-1.3.87c-.11.64-.34.66-.7.09l-1.3.87c-.11.64-.34.65-.69.09l-1.3.87c-.16.63-.39.66-.69.09-1.5,1.9-4.38,2.66-6.59,3.64-.08.73.62,2.28.25,2.72-.23.27-1.53.03-1.82.39-.16.2-.37,4.01-.95,4.95l-5.18-2.17.08.69c1.36.23,1.44.83.18,1.39.95.23.82,1.24.95,1.99.37.38,1.4.87,1.56,1.21.78-1.54,3.41-.82,4.77-1.3.49-.17,2.07-2.56,3.98-1.9l-3.2,2.51c.88,2.62.47,2.8.61,4.85.04.66,1.35,1.74-.35,2.86,1.2.76,2.25.93,3.64.95.19,0,2.25-1.69,3.52-.09.07.77-2.67.49-3.43.78-.75.29-3.31,2.39-3.99,1.9,1.31-3.11-.64-1.73-.95-1.99l-2.51,2.43c.08.69.17,1.39.26,2.08.21.17,1.12.45,1.47.52.39.08,1.05-.27,1.39-.17,1.71.5,3.32,1.29,5.1,1.48.44,1.22-1.1.58-1.29.86-.2.3,2.05,1.33,1.74,3.49-.13.89-2.07,3.57-2.86,4.39.12.08-.05.58.08.69.04.03.81-.18.78.6l-1.29.86,2.85.35-4.32,1.97.77-2.21c-2.63.71-4.09.24-6.41-.61-.42-.15-1.09.03-1.48-.52-.56,1.86-1.06,1.93-2.07.26-5.93,2.36-13.06,1.91-19.33,3.13,5.28-.07,12.14.43,17.68.6l-.09-.69-1.43-1.11c-.07-.04-.12-.07-.13-.1,0-.01.04-.02.1-.01.42-.05.87-.18,1.29-.17,2.61.09,2.68.72,3.81,2.34.12.17,1.7.33.53,1.33-6.83-.8-13.74-.48-20.59-.87-1.23-.07-2.59.51-3.25-1.06-.48.03-.99.07-1.51.12-1.57.32-3.13.65-4.67,1.01,0,0-.01,0-.01,0l5.77,6.25c.13.08.24.15.35.19l.08-1.94c1.94.43,1.17,1.85,1.31,3.45.96,1.59,1.99,3.15,3.11,4.67,1.62,1.87,3.24,3.74,4.87,5.61.4.44.75.84,1.02,1.17,4.02,1.26,6.7-1.06,10.31-2.01-1.3-3.58-6.76-7.77-.44-9.1l-1.73-2.58c2.55-.52,11.62-5.12,13.39-4.36.49.21,2.68,3.18,2.85,4.07.44,2.4-.72,2.97-1.59,4.78-.7,1.44-2.59,2.53-.78,5.02.66-.62.12-1.96,1.91-1.64.62,2.21-2.8,7.12-3.21,2.51l-.69.09c.06.51.16,1.44-.52,1.47.07.13-.98,1.87.95,1.99.65-.34,1.9-.24,2.68-1.04,1.26,3.47-.88,5.2-4.24,5.46l.09.69c.2,0,.58.6.78.6.83.05,3.22-.62,3.47-.44.12.09.25,2.14.34,2.78.04.23.07.46.09.69.2,1.92.49,3.72,0,5.63.07.22.04.47.09.69,1.18,5.22.77,10.75,2.69,15.86.64.12.66.35.09.69.83.1,1.09.77,1.56,1.21v-.02ZM118.4,54.75l1.56,1.21c-1.43.38-1.57.27-1.56-1.21ZM116.31,46.57c1.43.76,1.36,1.34-.08,2.12l.08-2.12ZM92.76,66.41c-.82-.54-1.4-.89-1.3-1.94l1.38-.17-.08,2.11ZM94.06,59.92c.59-.16.55,1.28.51,1.34-.71.89-2.27-.02-.51-1.34ZM95.81,65.75c-3.37-3.53,2.86-2.66,3.24-2.19,1.55,1.91-1.96,3.53-3.24,2.19ZM100.38,57.01l2.76-.35.09.68-2.67,1.05-.18-1.38h0ZM104.29,62.85c-1.96-.55-1.37-3.01.06-2.11.14.09,1.66,2.6-.06,2.11ZM105.06,60.64l-.17-1.38c.93-.33,1.89.14,2.24,1.12l-2.07.26h0ZM107.17,54.18c-.15.08-.7,2.79-2.64,2.3,1.77-2.42,1.94-3.89,5.29-2.76.25,1.62-2.06.16-2.64.46h-.01ZM111.21,59.16l1.81-2.33c.39,1.23-.47,2.4-1.81,2.33ZM95.25,4.85c1.42.2,1.73,1.28,1.72,2.6l-1.38.17-.35-2.77h.01ZM101.13,29.46c-.78,2.98.12,4.02-2.84,5.28-.8-.68,1.7-4.9,2.84-5.28ZM95.43,34.4c.19-.5,1.23.26.85,1.29-.18.5-1.22-.26-.85-1.29ZM103.58,31.97c1.43-.34.61,2.26,1.04,2.68.18.18,3.32-2.82,3.3,1.08,0,1.71-1.84,3.25.67,2.65.41,1.17-1.04.62-1.47,1.03-1.06,1.02-.95,1.71-1.56,2.87.15-.02.41.46.68.44,1.65-.12,3.08-1.95,2.97.51l-2.78.36,2.2.77c-1.39,2.15-1.34,2.02-3.41.79.62,1.97,1.55,2.14-.26,3.55-.92.72-1.29,1.18-2.68,1.04-.9-1.92,1.06-1.33,1.21-1.56.33-.52-1-2.6-1.13-3.38-.04-.22-.09-.47-.09-.69-.44.71-.79,1.48-1.12,2.25-1,2.29-1.46,3.36-4.42,4.07.3-2.75-1.1-5.64-1.55-8.65,3.37-3.8,7.74-3.98,8.4-9.8h0ZM93.95,45.15c.27,1.28.58,3.02-.94,3.63-.47-.92.43-4.44.94-3.63ZM92.74,41.06c-1.44.41-1.64,1.38-2.81,0l2.72-.68.09.68ZM89.19,35.18c.36.31,1.87,1.65,1.64,1.9-1.02,1.15-1.69-.76-2.25-1.12-1.06-.68-2.52-1.16-3.12-2.42,1.21-.29,2.74.8,3.73,1.64h0ZM51.35,70.21c.18-.5,1.22.26.85,1.29-.19.5-1.23-.26-.85-1.29ZM51.5,60.33c.5.18-.26,1.23-1.29.85-.5-.18.26-1.23,1.29-.85ZM52.99,77.75c1.28-.23,3.02-.59,3.63.94-1.28.23-3.02.59-3.63-.94ZM56.55,89.26c-.74-.58.87-2.91,1.81-2.33.16.09-.62,3.27-1.81,2.33ZM57.32,84.25c1.1-.01,2.44-.51,3.47-.44.26.02.64-.15.72.26l-.64.43c-1.22,1.06-2.79,1.42-3.55-.25ZM64.08,93.24l-1.02.13c-4.16-2.29.87-4.58,1.02-.13ZM69.55,97.49c-.14.28-.47.51-.61.78-.07.13-.18.25-.29.37l-.32.41c-.89,2.25.13,2.55.6,4.85l-3.8-2.33c-.17.49-.53,1.65-1.2,1.55l-1.63-1.54c1.28-.32,1.88-2.28,2.48-2.77l-.09-.69.27-.75c3.22,1.89,2.49-.05,3.11-.38-1.02-1.55-.57-3.12-.6-4.85-.75-.04-2.31.58-2.76.29-.29-.18-.14-1.49-.28-2.02-.19-.67-.76.19-.18-1.39,1.54-4.14,6.14-.59,6.43,2.23.15,1.45-.5,4.89-1.14,6.25h.01ZM72.83,106.93c-.18.5-1.22-.26-.85-1.29.18-.5,1.23.26.85,1.29ZM72.42,103.47l-1.74-2.59,2.67-1.04-.93,3.63ZM70.67,78.34l.68-.08.96,1.98c-1.78.57-1.5-.21-1.64-1.9ZM78.73,92.12l-2.42,3.11c.33-2.85-.62-4,2.42-3.11ZM78.81,98.45c.11.08.03.46.09.68-1.25.26-2.99.6-3.64-.94.71-.14,3.21.01,3.55.26h0ZM76.38,79.03c-.19.5-1.23-.26-.86-1.29.19-.5,1.23.26.86,1.29ZM75.86,74.86c-.26.41.96,2.22-.42,2.17-.25-.66-.12-2.52-.36-2.77-.19-.2-3.92-.09,1.3-.87.27-.08,1.44.5,2.08-.26,1.41,3.73-2.24,1.18-2.59,1.73h-.01ZM74.04,54.68l-.35-2.77.68-.09.35,2.77-.68.09ZM76.03,53.73c-.85-.66.35-2.21,1.2-1.55.85.66-.35,2.21-1.2,1.55ZM79.23,54.03l-.08-.69c.48.17.5.41.08.69ZM85.56,56.76c.5.18-.26,1.23-1.3.85-.5-.18.26-1.23,1.3-.85ZM81.06,54.5c-.7-.34-1.57-5.64-1.56-6.84l4.18,5.46c-.36.94-1.91,1.73-2.62,1.38ZM77.14,34.58c.06.58-.84,3.49-.96,3.64-.07.08-1.43.44-1.41-.16l2.37-3.47ZM77.58,38.05c.71-.92,1.11-2.59,2.41-3.12-.16,1.6-.51,3.33-1.55,4.42-.98,1.04-1.57,1.9-3.29,1.81.19-1.4,1.72-2.2,2.43-3.11ZM75.63,44.97c.28-1.83-1.67-.18-1.6-1.55l4.24.17-1.95,1.29,2.38,2.16-4.37-1.21c-.36-.67,1.19-.08,1.3-.87ZM74.55,50.38c-.46.05-2.57-2.69-2.16-3.23,1.93-.76,3.84,3.04,2.16,3.23ZM73.07,41.43c-2.38.39-4.76-8.29-2.17-6.06.36.31,2.39,5.06,2.17,6.06ZM71.25,32.5l-2.77.35-.17-1.37c1.27-.34,2.39-.3,2.94,1.03ZM69.17,38.4c.83,1.81,2.31,4.55-.77,5.02l.77-5.02ZM67.7,32.25c-.22,1.62-1.98,1.75-3.29,1.81-.91-.29,2.28-2.04,3.29-1.81ZM66.93,48.53c-.85-.66.35-2.21,1.2-1.55.86.66-.35,2.21-1.2,1.55ZM68.83,58.15l.17,1.38-2.15-.44-.09-.68,2.07-.26ZM65.89,40.21c.22-.37,1.98.98,1.63,1.91-.22.37-1.99-.98-1.63-1.91ZM64.31,39c.15.1.9,2.77,1.13,3.38-2.76-.21-3.04-4.78-1.13-3.38ZM65.02,55.82c.85.66-.36,2.21-1.21,1.55-.85-.66.36-2.21,1.21-1.55ZM60.25,51.49l-.87,4.33c-1.83-.17-.24-4.08.87-4.33ZM57.56,46.9c.5.18-.26,1.23-1.29.85-.5-.18.26-1.23,1.29-.85ZM57.66,58.85c.06-.23-.17-.54-.09-.69,1.33-2.5,3.24-1.85,4.94.08l-3.55-.25c.62,2.8.04,1.46-1.82,2.34-.55-1.22.47-1.3.52-1.47h0ZM54.87,56.39c2.24.5,0,2.84-.76,2.2-.27-.23-.76-2.54.76-2.2ZM61.39,71.76c.79-.26,1.91-.13,2.77-.35.09-.42.38-.54.61-.78-.24-3.45-1.15-6.96-1.31-10.4-.05-1.14-.1-2.34.96-.83,1.05,1.5-.18,1.34-.18,1.43.18,2.31.66,4.62.88,6.93,1.32.23,1.15-.78,1.29-.86-.54-2.28.18-4.21,1.74-5.85.73,1.33,1.62,4.1,3.37,1.69-3.72,1.09-2.26-2.37-.24-1.26.28.16.11,1.13.24,1.26.36.36,1.52.37,1.56,1.21-.88.21-1.9.12-2.77.35l-.17,4.25,1.43.17c-1.19.59-2.84,3.01-1.98,4.16.78,1.02,3.15.33,3.41,1.65-4.85-1.23-2.3,1.66-2.8,2.48-1.04,1.73-4.4-.05-3.61,2.56.22.51.08,1.46.26,2.08l1.39-.17c.3,1.7-1.2.19-1.39.17-1.37-.18-2.18-.06-2.71.19-.12.08-.23.14-.35.2-.74.53-.79,1.32-1.67,1.29-1.02-.03-2.74-2.41-3.24-3.51-.07-.15-.07-.47-.09-.69,0-.04-.64-.12-.45-.62.31-.86,1.46-1.8,2.19-2.41.11-.34,1.49-.72.88-1.67-.14-.14-.29-.29-.45-.5-.6.17-.45.61-.61.78-.51.57-.73,2.1-1.81,2.34-.74-1.35.99-1.83,1.12-2.25.05-.17-.16-1.89-.26-2.08-.05-.09-1.45-.51-1.56-1.21-1.41-.27-3.33-1.24-2.87-3.16,2.2,1.39,5.44.04,6.42,3.42ZM72.48,73.18l-.09-.69c.48.17.51.41.09.69ZM53.67,60.76c1.19,1.04-.5,3.23-1.82,2.33-.82-.56,1.06-2.99,1.82-2.33ZM51.06,51.23l-2.33-1.81c1.23-.39,2.39.47,2.33,1.81ZM47.27,54.92c.13-.74,2-.44,2.34-1.38l-1.32,3.67c-1.04.42-1.09-1.9-1.02-2.29ZM48.14,72.72l.68-.08.43,3.46c-2.49.81-.84-1.5-1.11-3.37h0ZM44.15,57.73c.18-.5,1.23.26.85,1.29-.18.5-1.23-.26-.85-1.29ZM23.7,85.63c-2.84.71-3.01-.66-.09-.68l.09.68ZM46.4,98.28l-2.06.26c-1.12-1.38,1.31-2.03,1.89-1.64.11.07.09.95.17,1.38ZM50.22,94.99c-1.63-.41-2.49-2.35-2.59-3.9.4-.7,2.85,3.03,2.59,3.9ZM42.07,57.99c.16-.51,3.69,2.78,1.13,3.37l-1.13-3.37ZM49.61,95.77l.18,1.38-2.08.26c.11-1.04.92-1.73,1.9-1.64ZM44.67,73.16l-.44,2.15-.68.08c-.28-1.66-.75-2.36,1.12-2.24ZM43.37,68.4l-1.21,1.55c-.38-1.42-.27-1.57,1.21-1.55ZM45.37,95.58c-.07.14-2.13,1.01-2.59,1.75l1.03-5.76c.9.23-.11,1.63.11,2.36.22.72,1.65,1.24,1.45,1.66ZM40.95,88.4c.08-.5.42-2.07.77-2.22,2.78-1.18,1.49.91,1.31,1.96-.12.7-.16,2.86-.7,2.91-2.45.25-1.58-1.5-1.38-2.65h0ZM43.29,102.57c.05-.22-.48-2.15-.16-2.46,1.26-1.25,2.99,2.2,2.51,3.2l-3.47.43c-.43-1.11.94-.49,1.12-1.17h0Z"/>
    </g>
  </g>
</svg>