<?xml version="1.0" encoding="UTF-8"?>
<svg id="_레이어_2" data-name="레이어 2" xmlns="http://www.w3.org/2000/svg" viewBox="0 0 151.45 145.54">
  <defs>
    <style>
      .cls-1 {
        fill: #ff319c;
      }
    </style>
  </defs>
  <g id="_레이어_1-2" data-name="레이어 1">
    <g>
      <path class="cls-1" d="M68.94,47.03c-1.72-2.88-5.47-3.14-7.8-5.31l8.55,3.41c2.15,1.27,4.33,2.35,6.28,3.61,1.37.88,3.34,1.09,3.71,3.13-1.19.77-2.58,1.53-3.7,2.39-1.76,1.35-3.47,2.81-5.41,3.91.24,1.29,1.21-.04,1.57.15.42.21-.67,3.08,1.21,1.79,11.68-9.39,24.57-17.26,36.26-26.61,1.04-.83,1.74-2.06,3.68-2.4-.84-1.04-.37-2.18-.45-2.93-.06-.64-.12-1.9-.19-2.28-.2-1.14-.74-2.89-1.05-4.28-.94-4.18-2.08-8.68-3.15-12.83-.28-1.09-1.11-2.22-1.43-3.33-.41-1.41-.13-1.59-.19-2.28-.03-.38-.47-.89-.57-1.33-17.69,11.44-36.11,26.65-53.2,39.41,2.55.83,14.29,6.82,15.88,5.78h0Z"/>
      <path class="cls-1" d="M113.88,21.41c-.25.14-1.19-.13-1.62-.09.4,1.73.98,3.38,1.34,4.94.33,1.42.32,2.94,1.04,4.28-.78.53-1.04-.35-1.36-1.29-.12-.25-.27-.59-.44-1.09,1.42,3.66,1.11,4.95-.93,3.87l-2.3,1.46c5.82-3.54,4.03,2.06,5.03,4.49.57,1.37,2.24,2.44,2.58,4.07l-1.6-.11c.57,2.12.75,5.02,1.47,7.02.63,1.76,1.19,1.45,1.57,1.92,1.47-2.82,3.64-.46.95.38.36.38.48,1.45.86,1.99.33.15.91-1.72,1.42-2.18,1.3-2.57-.74-2.54-1.3-3.76-.49-1.04-.07-2.39-.23-3.47-.25-1.75-.37-3.49-.65-5.23l1.59.1-.09-3.91c-1.41-5.17-2.85-10.33-4.3-15.49l-.19-2.28c-.15-.45-.39-.89-.57-1.33-1.15,1.26-.83,4.87-2.28,5.71h.01Z"/>
      <path class="cls-1" d="M112.84,28.17c.07.75-.4,1.89.44,2.93-1.94.33-2.63,1.57-3.67,2.4l2.3-1.46c2.04,1.08,2.35-.21.92-3.87h.01Z"/>
      <path class="cls-1" d="M42.36,63.92c.84.16,2.31-1.58,3.35-1.94,1.37-.47,4.69.36,4.49-2.39-.08-1.09-.89-1.6-1.04-2.34-.03-.13,1.03-.59.9-.87-.88-1.8-4.85-6.22-6.51-7.9-1.98,1.48-4.22,2.8-6.08,4.19-.02,2.36,2.81,10.85,4.89,11.25h0Z"/>
      <path class="cls-1" d="M108.54,7.16c.22.68.66,1.32.86,1.99,1.12,3.96,1.93,8.15,2.86,12.17-.04-1.19.5-1.16,1.62.09-2.53-3.27.82-5.23.84-9.03.01-1.72-1.97-10.78-2.73-11.69-.95-1.11-3.48-.69-4.7-.09.35,1.68.88,3.3,1.34,4.94.17.58.5,1.16-.09,1.62h0Z"/>
      <path class="cls-1" d="M112.26,21.32c.43-.04,1.37.23,1.62.09-1.12-1.25-1.66-1.28-1.62-.09Z"/>
      <path class="cls-1" d="M12.53,82.7c-.24-.56-3.87-1.21-4.6-1.57-.27-.14-.63-.22-.95-.38-.32-.16-.84-1.36-1.52-1.71l-.95-.38c-.46-.01-1.38.73-1.99.86-.65.5-2.44.53-2.52,1.47,3.14,1.53,6.46,2.75,9.65,4.13,1.35-.45,2.58-.92,2.88-2.42h0Z"/>
      <path class="cls-1" d="M4.51,78.66c.1,0,.75.28.95.38,1.23-.56,2.06.54,1.52,1.71l.67-.29.09-1.62c-.32-.11-2.25-1.29-2.19-1.42,1.35-1.06,2.69-.11,3.9-.11l.48-2.57.65-.28c.55,1.34,1.55,2.07,2.76,2.75l9.42-.11c-4.13-1.27-9.56-3.31-13.79-2.74-2.22,1.68-4.3,3.45-6.46,5.14.72-.61,1.39-.89,1.99-.86h.01Z"/>
      <path class="cls-1" d="M4.51,78.66c-.61-.04-1.27.25-2,.86.62-.12,1.55-.87,2-.86Z"/>
      <path class="cls-1" d="M5.46,79.04c.68.35,1.2,1.55,1.52,1.71.54-1.18-.29-2.27-1.52-1.71Z"/>
      <path class="cls-1" d="M125.04,58.39c.58,1.57,1.33,3.12,2,4.66,1.32-.68,1.38,3.4,3.04,3.42-1.14-4.19-2.66-8.37-3.81-12.55l-.19-2.28c-.22-.67-.57-1.35-.86-1.99l-.67.29c-1.77,4.04-.88,4.76.49,8.46Z"/>
      <path class="cls-1" d="M127.04,63.04c1.09,2.51,2.02,6.24,4.09,7.7-.06-.23-.22-.44-.28-.67l.09-1.62c-.18-.67-.67-1.32-.86-1.99l-.55.83c-.79-1.5-1.62-2.92-2.49-4.25Z"/>
      <path class="cls-1" d="M127.04,63.04c.87,1.34,1.7,2.75,2.49,4.25l.55-.83c-1.66-.02-1.72-4.1-3.04-3.42Z"/>
      <path class="cls-1" d="M123.88,44.7c-.49-2.05-1.1-3.71-1.62-5.61.78,2.42.97,4.7.58,6.84.08-1.18.42-1.59,1.04-1.24Z"/>
      <path class="cls-1" d="M122.26,39.09l.58,6.84c.39-2.14.2-4.42-.58-6.84Z"/>
      <path class="cls-1" d="M122.84,45.93c.36-.39.68-.84,1.04-1.24-.61-.36-.96.06-1.04,1.24Z"/>
      <path class="cls-1" d="M27.84,81.58c.32,0,.61.04.82.1,2.91.31,6.79-.32,9.84.9-2.42,1.72-5.9-.86-8.6.15l.28.66c.32.09.63.28.95.38.88.27,1.88.27,2.71.81.31.66-.87.6-1.19.9-.66.64-.69.86-1.7,1.52-.38.24-.92.35-1.33.57l.19,2.28c2.94,1.3,5.89,2.8,8.84,4.08.45-.03.5-.69.38-.95-.9-1.97-.81-2.05-.38-4.56l-2.55-.47c.57-1.67,2.79-2.13,3.14-2.83.37-.72.47-3.56-.15-4.01-1.34-.99-12.93-1.62-15.48-1.99-2.74-.4-8.09-.68-10.27-1.89-1.28.11-2.61.1-3.89.1-.21.47-.43.83-.69.86-.09.01-.53-.09-1-.21.16.18.21.45-.02.87,3.67,1.26,14.35,2.17,19.77,2.71.1,0,.21.01.33.02h0Z"/>
      <path class="cls-1" d="M7.77,77.98c-.49-.12-1.02-.27-1.22-.33-.07-.02.87-.07,1.22.33.47.12.91.22.99.21.26-.03.48-.4.69-.86-1.2,0-2.55-.96-3.89.11-.07.12,1.86,1.31,2.18,1.42.24-.42.19-.69.03-.87h0Z"/>
      <path class="cls-1" d="M6.55,77.64c.2.06.73.21,1.22.33-.36-.41-1.3-.36-1.22-.33Z"/>
      <path class="cls-1" d="M29.62,87.57c-.28.15-.62,1.23-1,1.16-.12-.03-1.09-.9-2.24-1.34-2.1-.82-2.18-.78-4.09-2.18-.62-.46-1.3-.82-2.03-1.1l.51-.61c-.17-.01-.59-.68-1.13-.69-.93-.01-2.77,1.2-4.23,1.02,4.63,2.29,9.72,3.96,14.4,6.03-.96-.36-1.03-1.12-.2-2.28h.01Z"/>
      <path class="cls-1" d="M29.81,89.86l-.2-2.28c-.82,1.16-.76,1.92.2,2.28Z"/>
      <path class="cls-1" d="M26.1,86.72c.46-.02,2.98-1.06,3.18-1.76-2.72-1.19-5.62-1.29-8.51-1.47.86.38,1.37.95,1.53,1.71,1.09-.35,3.59,1.53,3.8,1.52h0Z"/>
      <path class="cls-1" d="M20.77,83.5l-.51.61c.73.28,1.41.64,2.03,1.1-.15-.76-.66-1.33-1.52-1.71Z"/>
      <path class="cls-1" d="M34.24,63.12c.29.68,2.08,4.01,3.05,3.81-1.51-3.16-2.62-5.92-3.4-9.36-.32-1.39-.41-.77-1.55-.33,1.3,1.71,1.18,4.2,1.9,5.88h0Z"/>
      <path class="cls-1" d="M38.66,93.93c2.41,1.04,5.51,3.34,8.27,2.74l-7.9-3.69c1.38.89,1.18,1.41-.37.95h0Z"/>
      <path class="cls-1" d="M38.66,93.93c1.55.46,1.75-.07.37-.95.12.26.07.92-.37.95Z"/>
      <path class="cls-1" d="M76.12,102.26l-1.42,2.19c1.42.81,3.08,1.1,3.8,1.52l-.48-2.95c-.74-.39-1.47-.53-1.9-.76Z"/>
      <path class="cls-1" d="M124.37,58.67c-.17-.38-.35-1.14-.62-1.71-.19-.23-.38-.46-.55-.69-.18-.1-.38-.11-.63.03.78,2.35,1.55,4.53,2.85,6.65.78-1.17-.49-3.05-1.05-4.28Z"/>
      <path class="cls-1" d="M123.2,56.27c.17.23.36.46.55.69-.14-.32-.33-.57-.55-.69Z"/>
      <path class="cls-1" d="M74.46,103.26c-.29.18-.63.27-1,.15.44.25.8.79,1.24,1.04-.32-.34-.36-.79-.24-1.19Z"/>
      <path class="cls-1" d="M75.12,102.41c.29-.18.64-.26,1-.15-.43-.23-.81-.82-1.24-1.04.32.34.36.79.24,1.19h0Z"/>
      <path class="cls-1" d="M74.46,103.26c.11-.35.35-.66.66-.85.13-.4.08-.85-.23-1.19l-1.43,2.19c.37.12.71.03,1-.15h0Z"/>
      <path class="cls-1" d="M75.12,102.41c-.11.35-.35.65-.66.85-.13.4-.08.85.24,1.19l1.42-2.19c-.37-.12-.71-.03-1,.15h0Z"/>
      <path class="cls-1" d="M74.46,103.26c.31-.19.55-.5.66-.85-.31.19-.55.5-.66.85Z"/>
      <path class="cls-1" d="M25.89,82.23s-.01,0,0,0c-.05.07-.07.16-.03.25,1.36.63,2.92.51,4.32.9-.35-.09-.44-.32-.28-.66-.4-.22-.93-.97-1.24-1.05-.27-.06-2.41.02-2.77.55h0Z"/>
      <path class="cls-1" d="M28.66,81.68c-.3-.06-.56-.08-.82-.1-.05,0-.1,0-.16,0,.35.04.68.07.98.1Z"/>
      <path class="cls-1" d="M30.18,83.39l-.28-.66c-.16.35-.07.57.28.66Z"/>
      <path class="cls-1" d="M27.84,81.58c.26.02.52.03.82.1-.21-.06-.5-.09-.82-.1Z"/>
      <path class="cls-1" d="M25.89,82.23h0s-.01,0,0,0Z"/>
      <path class="cls-1" d="M31.47,85.99c-.25-.03-.4-.23-.43-.6-.03.54-.07,1.08-.09,1.62.13-.45.29-.77.52-1.01Z"/>
      <path class="cls-1" d="M31.47,85.99c-.23.24-.39.56-.52,1.01,1.01-.66,1.05-.89,1.71-1.52-.53.38-.93.54-1.19.51Z"/>
      <path class="cls-1" d="M31.47,85.99c.26-.28.63-.44,1.19-.51l-1.62-.09c.03.38.18.57.43.6Z"/>
      <path class="cls-1" d="M31.47,85.99c.27.03.66-.13,1.19-.51-.56.07-.93.23-1.19.51Z"/>
      <path class="cls-1" d="M6.98,80.75l.95.38-.28-.66-.67.28Z"/>
      <path class="cls-1" d="M7.93,81.13l-.95-.38c.33.16.68.24.95.38Z"/>
      <path class="cls-1" d="M78.5,105.97c.23.13.61,1,1.33,1.43,4.64,2.71,9.3,5.35,13.83,8.22l-2.92.45c3.16,1.51,6.47,2.72,9.64,4.14l.67-.28c-.67-1.17-1.75-1.93-2.76-2.75-.33-.54-.22-.86.37-.95.5.26,1.06.42,1.25,1.04l.75-1.9c-7.21-3.97-15.06-8.37-22.64-12.34,1.88,1.47,2.03,2.45.48,2.95h0Z"/>
      <path class="cls-1" d="M78.02,103.02l.48,2.95c1.56-.5,1.4-1.48-.48-2.95Z"/>
      <path class="cls-1" d="M113.28,29.25c.51,1,.62.03.32-2.99l-.95-.38c.69.57.97,1.71.19,2.28.18.31.31.7.44,1.09Z"/>
      <path class="cls-1" d="M112.65,25.88c.06.38.13,1.64.19,2.28.78-.57.5-1.71-.19-2.28Z"/>
      <path class="cls-1" d="M113.28,29.25c.32.94.58,1.82,1.36,1.29-.72-1.34-.71-2.85-1.04-4.28.3,3.02.19,3.99-.31,2.99h-.01Z"/>
      <path class="cls-1" d="M4.51,78.66l.95.38c-.2-.11-.85-.38-.95-.38Z"/>
      <path class="cls-1" d="M76.4,52.49c-.2.24-.22.41-.12.52.05-.13.1-.26.18-.39l-.06-.14h0Z"/>
      <path class="cls-1" d="M76.69,53.16l-.23-.53c-.08.12-.13.26-.18.39.07.08.19.13.41.15Z"/>
      <path class="cls-1" d="M115.03,130.46c-1.42-.95-.57-3.02,1.43-2.19.64-1.44,2.41-1.1,2.56.47.49-.35.65-1.2.48-2.57-1.38-1.31-.58-2.26,1.29-1.91,4.86,4,10.38,7.04,16.53,9.14.62-6.43.73-12.92.33-19.47l1.41-.9c-1.44-3.43-.94-4.7,1.52-3.81-.06-.66.16-.75.67-.29,3.3,12.21,7.29,24.27,10.2,36.6-12.23-4.77-24.36-9.93-36.42-15.08h0Z"/>
      <path class="cls-1" d="M140.59,109.23c-1.73,2.08-4.24-.39-2.48-2.09-2.35-2.02.88-6.76,2.09-2.47.39,1.43.68,2.91,1.05,4.28l-.66.29h0Z"/>
      <path class="cls-1" d="M111.89,128.66c-.15-3.79,5.29.83,1.24,1.04-.41-.18-.84-.87-1.24-1.04Z"/>
      <path class="cls-1" d="M116.46,128.27c-1.01,1.18-6.93-1.48-6.28-3.61l-.77-.76c1.4-1.09,1.31-1.82-.38-1.9-2.28-.19-9.97-4.44-5.52-5.51l1.85-.63c4.46,1.63,11.32,6.53,13.47,10.6.81.05.86,1.7.19,2.28-.58-.04-2.13-.27-2.56-.47h0Z"/>
      <path class="cls-1" d="M110.18,124.67c-4.05.13-7.23-1.33-9.8-4.46-.06-.66.17-.75.67-.29,2.98-.4,5.15,2.7,8.27,2.75q.23.06,0,0l-.29-.66c.08.05.79-.55,1.21-.31.79.43,1.72,2,2.88,2.49-1.03.76-1.81.08-2.9-.31l-.04.8h0Z"/>
      <path class="cls-1" d="M131.94,112.95l.95.38,1.25,6.55c-.78-2.25-1.6-4.64-2.2-6.93h0Z"/>
      <path class="cls-1" d="M119.02,128.74c-.28-.5-.08-2.15-.19-2.28-.06-.66.17-.75.67-.29.59,1.06.8,2.04.13,3.08-.34.2-.57-.51-.61-.51h0Z"/>
    </g>
  </g>
</svg>