<?xml version="1.0" encoding="UTF-8"?>
<svg id="_레이어_2" data-name="레이어 2" xmlns="http://www.w3.org/2000/svg" viewBox="0 0 148.12 175.84">
  <defs>
    <style>
      .cls-1 {
        fill: #ff319c;
      }
    </style>
  </defs>
  <g id="_레이어_1-2" data-name="레이어 1">
    <g>
      <path class="cls-1" d="M97.96,149.86c-2.51.64-5.02-1.97-4.45-4.45-3.43-.97-6.09-1.9-9.64-.75.96-2.43,5.16-.54,6.67-2.22-2.82.3-6.57-3.13-5.93-5.93-.61.63-.91,1.62-1.49,2.22.96,1.08.52,1.49-.74.74-.15,1.51-.6,2.49-1.48,3.71,1.11,1.9-1.65,5.88-3.71,5.19-.35.61-.43,1.66-.94,2.06-.11.08-1.46.25-2.15.77-.11.15-.21.3-.31.44-.03.15-.05.3-.05.44.07.21.21.46.49.73,1.64,1.65,3.02-4.14,4.1.05l1.08-.79-.73-.38v-1.1c.86,0,1.08.96,1.47,1.48.22.27.49.51.75.74,1.5-1.07,1.63-.58,2.96.74.24.23.63.48.74.74.49-.04,1.01.06,1.49,0,.87-.11,4.1-1.07,4.45-.74v3.7l-2.22-.74v2.24c-.64.23-1.34-.76-1.49-.75-.21.2-.39.26-.56.26-.86.57-2.2,1.79-3.89.48-.35,1.17-1.41,3.68-2.61,3.71-.5-1.97-3.08-2.57-3.75-3.73-.62-1.07.38-1.72.43-2.21-.69-.01-1.25-.87-1.49-1.48-.47.22-1.05.46-1.48.74-.36,3.89-.9,7.38-3.46,10.54l-1.73-.15c1.36,3.61,2.1,5.83,5.93,7.42,3.89-.26,5.79-.13,9.64-1.48l1.49-.74c.2-.1.55.1.74,0,.09-.05.91-1.04,1.48-1.48.66-.51,1.97-1.24,2.22-1.48,1.4-1.36,3.02-4.42,4.46-5.93-.65-.25-.64-.49,0-.74l.74-.74c-.65-.25-.65-.49,0-.74.47-1.28,1.31-2.46,1.48-2.97.83-2.42,1.72-4.78,1.48-7.42h0Z"/>
      <path class="cls-1" d="M94.99,160.98c.08-.21-.08-.52,0-.74-.64.25-.64.49,0,.74Z"/>
      <path class="cls-1" d="M94.25,162.47c.09-.21-.09-.53,0-.74-.64.25-.64.5,0,.74Z"/>
      <path class="cls-1" d="M83.24,137.84c-.04.27-.08.56-.11.89.09-.32.11-.62.11-.89Z"/>
      <path class="cls-1" d="M73.23,153.47c0-.19.01-.38.02-.57-.04.2-.06.39-.02.57Z"/>
      <path class="cls-1" d="M72.15,155.91c-.68.72-.31,3.23-.68,4.32-.84,2.52-1.7,4-3.18,5.94l1.73.15c2.56-3.16,3.1-6.65,3.46-10.54-.17.11-.98-.26-1.33.12h0Z"/>
      <path class="cls-1" d="M73.75,152.09c0-.15,0-.3.04-.44-.02.04-.05.08-.07.12-.01.1-.01.21.03.33h0Z"/>
      <path class="cls-1" d="M84.61,136.51c-.64,2.8,3.11,6.23,5.93,5.93-2.06-2.02-3.99-3.74-5.93-5.93Z"/>
      <path class="cls-1" d="M80.9,143.19c-1.5,2.08-2.21,2.56-3.71,5.19,2.06.68,4.82-3.29,3.71-5.19Z"/>
      <path class="cls-1" d="M93.51,145.41c-.57,2.48,1.94,5.09,4.45,4.45-1.5-1.39-2.97-3.04-4.45-4.45Z"/>
      <path class="cls-1" d="M82.38,139.48c1.26.75,1.7.34.74-.74-.23.25-.54.49-.74.74Z"/>
      <path class="cls-1" d="M73.48,175.08c-.23-.25-.46-.53-.74-.74-3.6-2.73-3.18-3.28-5.19-6.67-.77.66-1.21.6-1.39-.05-.03.01-.05.03-.09.05-.3,1.56-.11,3.26-1.48,4.45.63.25.63.49,0,.74l.74,2.22c1.2-2.05,3.27-2.1,4.45,0,1.23.04,2.47-.03,3.7,0Z"/>
      <path class="cls-1" d="M65.33,175.08c1.47.06,2.97-.04,4.45,0-1.18-2.1-3.25-2.05-4.45,0Z"/>
      <path class="cls-1" d="M64.58,172.11c-.05.24.05.5,0,.74.64-.25.64-.5,0-.74Z"/>
      <path class="cls-1" d="M66.07,166.92c-.05.24.04.5,0,.74.04-.01.05-.03.09-.05-.05-.18-.08-.41-.09-.69Z"/>
      <path class="cls-1" d="M66.16,167.61c.18.65.62.71,1.39.05-.37-.63-.77-.78-1.48-.74.6.23.61.46.09.69Z"/>
      <path class="cls-1" d="M66.07,166.92c.01.28.04.51.09.69.52-.23.51-.46-.09-.69Z"/>
      <path class="cls-1" d="M89.8,170.63c.01-.25,0-.5,0-.74v-1.48c-.04.82-.41,1.29-1.07,1.45.3.04.45.21.32.76-2.07-.58-2.23.99-2.96,1.49-.85.58-1.59,1.85-2.71,2.02-.83.13-1.38-.31-1.84-.42-.26.13-.51.25-.74.36-.21.32-.41.85-.64,1.74.69-1.46,2.28-1.41,2.97,0,3.21-.16,3.82.78,5.93-2.22-.64-.24-.63-.49,0-.74l.74-.74c-.63-.24-.63-.49,0-.74.04-.24,0-.5,0-.74h0Z"/>
      <path class="cls-1" d="M89.06,173.59c.08-.2-.08-.51,0-.74-.64.26-.64.5,0,.74Z"/>
      <path class="cls-1" d="M89.8,172.11c.05-.23-.04-.5,0-.74-.63.25-.63.5,0,.74Z"/>
      <path class="cls-1" d="M80.16,175.82c.98-.02,1.98.05,2.97,0-.69-1.41-2.28-1.46-2.97,0Z"/>
      <path class="cls-1" d="M88.73,169.85c.66-.16,1.03-.63,1.07-1.45-.26.25-1.56.97-2.22,1.48.47,0,.88-.07,1.15-.03h0Z"/>
      <path class="cls-1" d="M80.79,174.08c.24-.11.49-.23.75-.36-.27-.07-.51,0-.75.36Z"/>
      <path class="cls-1" d="M40.85,87.56c1.52,2.26,1.83,6.14,2.97,8.16.22.39,1.67,1.39,2.22,2.22.64.96,1.73,1.78,2.23,2.97.8,1.92-.44,1.82-.44,2.59,0,2.15,4.09,9.31-3.27,4.09-.58-.13-1.4.75-1.49.74-.15,1.66.23,3.6,0,5.19-.65,4.54-2.81,2.96-3.7,3.71-.19.16.41,1.55-.37,1.48-1.55-1.01-1.22-3.6-2.79-3.73-.16.05-.34.07-.55.02-.11.3-.48.55-.74.74,1.17.55,1.96,1.8,2.36,3.75,2.26,1.11,3.51,2.87,1.16,4.51,1.96,1.72,4.24,1.69,6.86-.1.13-.46-.35-.75-.74-.74-.39.01-3.15,1.25-2.95-.37.07-.62,3.58-2.06,4.09-3.35.65-1.62-1.99-6.8,2.57-5.91-2.53,2.49-.78,4.41-.74,7.41h.74l-.36-.81c3.38-3.12,6.71-6.32,10-9.58-.09-.21-1.27-.59-1.48-1.11-.18-.56,1.28-.45,1.48-.89v-.23c-.07-.19-2.38-2.87-2.59-3.04-.43-.36-4.17-.05-1.49-3.62,2.65,2.65,4.48,6.47,8.44,6.73l1.57-.07c1.37-3.19,6.92-2.96,9.22-.54,3.91,4.13-1.03,6.85-3.29,2.76h-2.9s-.04.04-.06.06v.64s.05.04.08.07l1.4.71c1.01-1.09,2.29-.8,2.23.74.26.1.97,1.12,1.48,1.48.03.02.11-.57.74,0,.5.45.97,1.6,1.48,2.22,1.67-1.83,3.72.51,3.62,2.7,1.76-1.03,2.54-1.18,4.34-.13,1.04.6,12.59,17.03,14.11,19.41l-.56,1.75c.36,1.51,3.47,2.81,3.64,3.05.22.3-.72,1.24-.67,1.4,1.97-.9,5.83,4.25,4.45,5.93,1.02,1.17,2.16,1.77,2.96,2.96l-4.45-.74c1.33,2.67.07.82-1.48,2.22-.9.82-1.6,2.43-1.48,3.71l1.64-.39c4.06,5.19,8.54,9.63,13.43,13.34l32.78-29.96c-1.61-2.77-3.44-5.39-5.51-7.86-.31.25-.8.4-1.55.4-1.68,4.24-2.91,5.05-5.93,8.16-.94.96-2.03,3.43-3.72,3.33.23-1.99,2.64-2.91,3.72-4.07.16-.18.61-.72,1.06-1.29.33-.57.69-1.12,1.06-1.66-1.63.19-1.72-1.95-2.82-2.56-.39-.21-3.39-.33-5.24-1.17-2.78-.86-3.96.7-5.93-1.48-.21-.24-.55-.39-.74-.74l-2.96,1.48v-2.84s-.05-.02-.06-.03l-.69,1.39c-3.93-2.98-.3-2.71.74-3.71l-.36-1.73c3.49-2.25,1.85-4.37-4.93-6.37-2.38-3.66-6.27-5.31-11.7-4.95-2.72-4.74-4.06-6.68-9.63-6.1l-.79-1.72c-2.33-.85-3.71-2.68-4.13-5.49-3.27,8.45-10.2-2.7-2.49-5.72l.57-1.86c6.11-5.85,11.18-12.27,15.22-19.25l1.93-.96-2.26-1.04c-3.32-5.72-8.09-10.37-13.26-14.41-19.83-14.67-39.7-29.65-59.62-44.93-2.86.94-5.77,1.77-4.94-2.57-.07-1.29-12.69-11.22-13.16-10.51C6.37,6.47,3.59,10.44.06,13.38c-.61,3.81,3.38,9.44,5.94,12.23,8.47,9.23,17.27,18.34,25.19,28.21,2.97,3.69,8.33,9.52,9.66,13.7.89,2.78,2.18,5.45-2.05,4.25-2.35-2.35-5.65-6.59-3.88.19-1.99.73-1.19-1.35-1.95-1.5-2.09-.4-3.04.61-5.47-.73-.88-.49-1.21-1.32-1.48-1.48-.95-.59-1.78-1.35-2.97-1.48.65.21.64.46,0,.74l.74.74c3.88,2.5,8.49,8.62,8.16,13.35,2.53,1.17,7.41,3.71,8.9,5.93v.02ZM97.22,112.79c.93-.5,2.58,1.19,2.22,1.47-.93.5-2.58-1.19-2.22-1.47ZM65.32,57.89c-.26.5-1.26-.43-.73-1.48.26-.5,1.26.43.73,1.48ZM71.99,77.18c-.28.36-1.96-1.3-1.47-2.22.29-.36,1.97,1.3,1.47,2.22ZM80.15,74.22c.81.81-.66,2.28-1.47,1.48-.81-.81.67-2.28,1.47-1.48ZM77.2,74.22c.26-.5,1.26.43.73,1.48-.26.5-1.26-.43-.73-1.48ZM77.19,77.93c.81.81-.67,2.28-1.48,1.48-.81-.81.67-2.28,1.48-1.48ZM74.23,78.66v-2.96h1.48c.4.41-1.07,3.86-1.48,2.96ZM75.7,54.93c-3.71-.93-6.05,1.84-9.63,1.48-1.78-1.53,9.5-7.25,9.63-1.48ZM68.29,48.26v.73c-3.09.37-3.09-1.09,0-.73ZM69.03,49.75l-5.18,1.47c-.62-2.75,3.61-1.06,5.18-1.47ZM62.36,51.23c.15,2.37-.67,3.86-2.96,4.44.1-3.47-1.23-5.12,2.96-4.44ZM50.5,55.68c.26-.5,1.26.43.73,1.48-.26.5-1.26-.43-.73-1.48ZM6,9.68c-.5-.26.43-1.26,1.48-.73.5.26-.44,1.26-1.48.73ZM6.74,6.72c-.81-.81.67-2.28,1.48-1.48.8.81-.67,2.28-1.48,1.48ZM8.98,9.32c-.21-3.26,5.05,2.72,4.43,3.33-.76.74-4.42-3.05-4.43-3.33ZM11.93,16.36c-.5-.26.44-1.26,1.48-.73.5.26-.44,1.26-1.48.73ZM15.64,18.6l-1.48,1.48c-.21-1.55-.07-1.69,1.48-1.48ZM15.64,21.56c-.19-1.39,1.51-6.93,3.7-5.18.25.2-2.72,4.97-3.7,5.18ZM24.91,26.01v-.74c.48.25.48.5,0,.74ZM27.87,35.65c-.25.02-.54-.58-.37-.74-.28.36-1.97-1.29-1.47-2.22.28-.36,1.95,1.3,1.47,2.22.35-.35,1.18.69.37.74ZM47.52,53.45c.84.86-.32,2.39-1.47.36-.1-.64,1.42-.42,1.47-.36ZM45.31,92.02c.26-.5,1.26.44.72,1.48-.25.5-1.25-.44-.72-1.48ZM43.81,42.33c.85.86-.31,2.39-1.47.36-.1-.64,1.42-.42,1.47-.36ZM41.59,44.55c1.92-.26,2.87,2.08,2.96,3.7-.79-.06-3.15-3.53-2.96-3.7ZM41.59,80.15c.81.81-.67,2.28-1.48,1.48-.8-.81.67-2.28,1.48-1.48Z"/>
      <path class="cls-1" d="M135.68,138.75c-.37.54-.73,1.09-1.06,1.66.61-.76,1.21-1.57,1.15-1.66-.03,0-.05,0-.09,0Z"/>
      <path class="cls-1" d="M69.78,110.55c-.13-.04-.26-.07-.38-.1.15.04.28.08.38.1Z"/>
      <path class="cls-1" d="M23.79,68.28c2.61,4.32,5.76,9.04,8.16,13.35.33-4.73-4.29-10.85-8.16-13.35Z"/>
      <path class="cls-1" d="M8.43,1.49c.47-.71,13.08,9.22,13.16,10.51-.83,4.34,2.08,3.5,4.94,2.57,19.92,15.28,39.79,30.25,59.62,44.93,5.17,4.04,9.94,8.7,13.26,14.41l2.26,1.04c-6.13-11.91-16.86-18.11-27.11-25.95-1.26-.96-2.5-1.86-3.78-2.84-14.61-11.15-29.62-21.78-44.05-33.18l-4.42,1.15c-.15-.82,1.84-1.23,2.35-2.01.02-.11.05-.22.11-.35,0-.18-.06-.37-.24-.6-.23-.27-1.16.78-1.37.65-.13-.08-.68-1.78-1.55-2.55C20.15,7.99,10.83.88,9.68.43c-.79-.31-1.45-.76-2.24-.06C4.82,4.6,2.57,9.12.06,13.4,3.58,10.45,6.37,6.48,8.43,1.49h0Z"/>
      <path class="cls-1" d="M23.05,66.8v.74c.64-.28.65-.53,0-.74Z"/>
      <path class="cls-1" d="M68.29,112.04c.85.21,1.43.43,2.23.74.06-1.54-1.23-1.83-2.23-.74Z"/>
      <path class="cls-1" d="M98.7,144.67c.2.72,3.68,5.05,4.45,5.93,1.38-1.69-2.47-6.83-4.45-5.93Z"/>
      <path class="cls-1" d="M76.42,119.02c-.28,1.41-2.86,1.35-2.93,2.66,3,1.52,6.03-2.64,7.42-1.9l14.82,20.44.56-1.75c-1.53-2.39-13.07-18.81-14.11-19.41-1.8-1.05-2.58-.9-4.34.13.1-2.19-1.95-4.54-3.62-2.7.51.63,2.49,1.13,2.2,2.53h0Z"/>
      <path class="cls-1" d="M38.63,121.69c-.17,1.37-3.58,1.3-1.87,2.98.35.35,4.63,2.76,5.23,2.66,1.37-.24,2.38-2.58,3.31-3.42-2.62,1.79-4.9,1.82-6.85.1,2.34-1.63,1.09-3.4-1.16-4.51-.41-1.95-1.19-3.2-2.37-3.75.44,2.64.13,5.31,3.71,5.94h0Z"/>
      <path class="cls-1" d="M73.48,111.29c-1.27-.12-2.44-.53-3.7-.74,2.26,4.08,7.19,1.37,3.28-2.76-2.3-2.43-7.84-2.65-9.22.54,4.56-.85,7.41-2.28,9.64,2.96h0Z"/>
      <path class="cls-1" d="M66.88,111.32s-.05-.04-.07-.07v.03l.07.04Z"/>
      <path class="cls-1" d="M66.81,110.62s.04-.04.06-.05h-.06v.05Z"/>
      <path class="cls-1" d="M57.91,110.55c-3.29,3.26-6.62,6.45-10,9.58l.36.81c2.53-2.22,10.97-7.04,9.64-10.38Z"/>
      <path class="cls-1" d="M117.93,131.42s.03.02.04.03v-.12l-.04.1Z"/>
      <path class="cls-1" d="M140.97,131.32c-.86.8-1.07,1.94-1.48,2.97.75,0,1.24-.14,1.55-.4-.09-.11-.18-.24-.28-.35l.21-2.22h0Z"/>
      <path class="cls-1" d="M112.4,172.9c.65.45,1,1.06,1.87.37l33.8-30.84c.03-.07.03-.16.04-.24-.29-.86-.63-1.71-1.02-2.55-1.76-2.88-5.23-6.94-6.12-8.31.56,1.16.68,2.08.07,2.57,2.07,2.47,3.9,5.09,5.51,7.86l-32.78,29.96c-4.89-3.7-9.37-8.15-13.43-13.34l-1.64.39c3.15,3.54,10.19,11.72,13.69,14.14h0Z"/>
      <path class="cls-1" d="M147.09,139.63c.39.85.73,1.7,1.02,2.55.06-.55-.35-1.46-1.02-2.55Z"/>
      <path class="cls-1" d="M140.97,131.32l-.21,2.22c.1.11.19.23.29.35.6-.49.49-1.4-.08-2.57h0Z"/>
      <path class="cls-1" d="M11.19,89.79c.05.17.08.32.1.47.19.41.57.77.64,1.01,1.35-1.1,1.38-.46,2.22,0,1.33.72,4.19,3.09,1.83,3.71-.45.12-.93-.73-1.08-.75-.61.25-1.13.38-1.55.41-.21.45-.12,1.16-.68,1.81.88,1.08.97,1.49,1.49,2.22,1.72-1.03,4.06,1.58,3.83,2.95.96.05,1.8,1.37,1.36,2.98.19-.22.37-.42.54-.62.77-1.35-.38-3.35-.14-4.66.24-1.38,2.24-3.15,1.83-5.1,3.02,1.27.49,3.34.16,5.02-.22,1.11,0,2.4-.16,3.14,1.97-.47,2.54.85,1.7,3.96,1.24.65,2.18,1.29,2.75,2.71v-.74c-1.89-3.68-.33-6.99,3.35-3.71.56-2.79,1.31-.2,3.3.02.23-.02.48-.03.76-.03.79-1.47.15-2.34-.74-3.71-.02-.03-1.43-.35-.36-.75l5.55.75c-.16-2.41-1.03-4.16-1.48-6.67-1.9,1.69-1.6,1.01-2.97.74-1.18-.23-2.65.11-2.96-1.48l2.96.73c.59-.29,1.39-.83,1.49-1.48l-3.35-2.97c-.92,3.24-4.52.91-6.29.74-1.42-.13-6.75.17-7.42-.75-.37-.5.75-1.86.74-2.22-.02-1.19-.58-2.85-1.48-3.71.19,2.76-3.13,6.31-5.93,5.93h-.01ZM27.87,92.01c.49.25.49.5,0,.74v-.74Z"/>
      <path class="cls-1" d="M16.38,102.39c-.04.26.07.56,0,.74.11-.29.24-.53.37-.73-.12,0-.23,0-.37-.01Z"/>
      <path class="cls-1" d="M11.19,89.79c2.8.37,6.12-3.17,5.93-5.93-2.17,1.93-3.9,3.95-5.93,5.93Z"/>
      <path class="cls-1" d="M11.19,89.79c0,.16.03.32.1.47-.02-.15-.05-.3-.1-.47Z"/>
      <path class="cls-1" d="M17.98,101.64c.23-1.37-2.11-3.98-3.83-2.95.78,1.11,2.25,2.28,2.64,3,.33.61-.4.65-.41.71.14.02.25,0,.37,0,.37-.55.81-.79,1.23-.76h0Z"/>
      <path class="cls-1" d="M17.98,101.64c-.07.46-.45.77-1.23.77-.14.2-.26.44-.37.73,2.02-.54,2.21.9,2.96,1.48.45-1.61-.4-2.93-1.36-2.98Z"/>
      <path class="cls-1" d="M16.75,102.41c.78,0,1.16-.3,1.23-.77-.42-.02-.86.21-1.23.77Z"/>
      <path class="cls-1" d="M23.27,106.36c.85-3.11.28-4.43-1.7-3.96,1.33,1.26-.2,3.29.33,4.44.75,1.61,2.98,1.65,4.12,2.23-.57-1.42-1.51-2.06-2.75-2.71h0Z"/>
      <path class="cls-1" d="M19.34,104.62c.25-.18.42-.39.55-.62-.18.19-.36.4-.55.62Z"/>
      <path class="cls-1" d="M60.14,113.52l-.74,8.9,5.92-2.98c.76-1.03-4.06-5.26-5.18-5.92Z"/>
      <path class="cls-1" d="M74.44,154.37l-.1.15c.18.1.39.27.63.53.18-.08.1-1.15,1.48-.74-.04.73.08,1.5,0,2.22,1.33.02,2.24-1.62,2.97-2.22.52-.44.97-1.12,1.48-1.48-1.08.99-1.5.56-.74-.74h-.74c1.4,1.06-3.6,2.14-4.98,2.28Z"/>
      <path class="cls-1" d="M76.8,148.61c-1.67.96-2.66,1.9-2.95,2.84.06-.09.15-.17.25-.25.8-1.07,1.94-2.09,2.7-2.59h0Z"/>
      <path class="cls-1" d="M74.33,154.52l.11-.15c-.18.02-.3.02-.34,0-.53-.2-.8-.52-.88-.9-.02,1.01.04,1.95.26,2.32-.04-1.09.27-1.58.85-1.28h0Z"/>
      <path class="cls-1" d="M73.25,152.9c.06-.36.23-.74.47-1.14.02-.11.06-.22.13-.32.29-.93,1.28-1.88,2.95-2.84.14-.1.28-.18.39-.23-.6.4-3.44,1.43-3.57,1.57-.12.13-.31,1.53-.37,2.95Z"/>
      <path class="cls-1" d="M80.9,152.83c-.25-.24-.53-.46-.74-.74-.76,1.3-.34,1.73.74.74Z"/>
      <path class="cls-1" d="M73.48,155.79c.44-.28,1.01-.53,1.49-.74-.24-.26-.45-.44-.64-.53l-.85,1.28h0Z"/>
      <path class="cls-1" d="M74.44,154.36c1.38-.14,6.38-1.22,4.98-2.28l-1.09.79c-1.08-4.19-2.46,1.6-4.1-.06-.28-.28-.42-.52-.48-.73,0,.63.31,1.26.95,1.88l-.26.4Z"/>
      <path class="cls-1" d="M74.1,151.2c.69-.51,2.04-.68,2.15-.77.51-.4.59-1.45.94-2.06-.14.08-.26.16-.39.23-.76.5-1.9,1.52-2.7,2.59h0Z"/>
      <path class="cls-1" d="M73.72,151.77c-.24.4-.41.78-.47,1.14,0,.19-.02.38-.02.57.07.39.34.7.87.9.04.01.17.01.34,0l.26-.4c-.64-.62-.94-1.25-.95-1.88-.04-.12-.05-.23-.03-.33h0Z"/>
      <path class="cls-1" d="M73.48,155.79l.85-1.28c-.58-.31-.88.18-.85,1.28Z"/>
      <path class="cls-1" d="M77.19,148.38c-.11.05-.25.14-.39.23.13-.08.25-.15.39-.23Z"/>
      <path class="cls-1" d="M12.21,97.77c-.16-.35-.02-.79.46-1.3-.91,1.06-1.33.52-2.23.74-.12.33-.39.66-.74.74-.23.06-.5-.04-.74,0h-.74l1.05.99c.9-.69,1.95-1.18,2.94-1.17h0Z"/>
      <path class="cls-1" d="M12.21,97.77c-.99,0-2.05.48-2.94,1.17l-1.05-.99c.04.17-.89,1.09-.66,1.39.72.96,3.72.49,1.4,4.54l3.71-2.59-2.23-2.58h3.71c-1.11-.19-1.75-.51-1.94-.93Z"/>
      <path class="cls-1" d="M12.21,97.77c.71,0,1.39.26,1.94.92-.52-.73-.6-1.14-1.48-2.22-.48.52-.62.95-.46,1.3h0Z"/>
      <path class="cls-1" d="M12.21,97.77c.19.42.83.74,1.94.92-.56-.66-1.23-.92-1.94-.92Z"/>
      <path class="cls-1" d="M28.98,118.71c-.63-1.13-4.53-6.32-5.92-5.19l4.44,5.93c1.52.94,1.61,1.24,1.48-.74h0Z"/>
      <path class="cls-1" d="M8.96,97.94c-2.9-4.98-.19-3.3.74-4.45.14-.17-.09-1.06,0-1.48v-.74c-.55,1.4-1.65,3.02-2.94,3.87.61.24,1.09,1.16,1.46,2.81.22-.49.46-.48.74,0h0Z"/>
      <path class="cls-1" d="M6.77,95.14c1.28-.85,2.38-2.47,2.93-3.87-1.5,1.49-2.96,2.93-4.45,4.45.57-.58,1.08-.75,1.52-.58Z"/>
      <path class="cls-1" d="M6.77,95.14c-.49.32-1,.54-1.52.58.88.04,2.82,1.58,2.97,2.22-.36-1.65-.85-2.56-1.45-2.81Z"/>
      <path class="cls-1" d="M5.25,95.72c.52-.04,1.03-.26,1.52-.58-.44-.18-.95,0-1.52.58Z"/>
      <path class="cls-1" d="M8.22,97.94h.74c-.27-.48-.52-.49-.74,0Z"/>
      <path class="cls-1" d="M72.29,115.52c-.13-.36-.03-.8.45-1.26h-.74c-.25.21-.49.31-.72.36.27.33.6.63,1.01.9Z"/>
      <path class="cls-1" d="M74.23,116.49c-.86.04-1.72-.36-1.94-.96-.4-.28-.74-.58-1.01-.9-.89.17-1.5-.8-.76-1.84l-2.22,1.47c2.04.76,3.31,3.4,5.93,2.24Z"/>
      <path class="cls-1" d="M72.29,115.52c.53.36,1.17.69,1.93.96-.51-.63-.98-1.78-1.48-2.22-.48.46-.58.9-.45,1.26h0Z"/>
      <path class="cls-1" d="M72,114.26c-.51-.37-1.22-1.38-1.48-1.48.06.68.32,1.29.76,1.84.23-.04.47-.14.72-.36Z"/>
      <path class="cls-1" d="M71.28,114.62c-.44-.55-.7-1.15-.76-1.84-.74,1.04-.13,2.01.76,1.84Z"/>
      <path class="cls-1" d="M74.23,116.49c-.77-.28-1.41-.6-1.94-.97.22.61,1.09,1,1.94.97Z"/>
      <path class="cls-1" d="M98.7,144.67c-2.21-1.53-3.2-3.01-2.97-4.45l-1.48,1.11c1.87,1.29,1.79,4.06,4.45,3.34Z"/>
      <path class="cls-1" d="M98.7,144.67c-.04-.16.89-1.1.67-1.4-.17-.24-3.28-1.54-3.64-3.05.28,1.67,1.27,3.16,2.97,4.45Z"/>
      <path class="cls-1" d="M98.7,144.67c-1.7-1.29-2.69-2.78-2.97-4.45-.23,1.43.76,2.92,2.97,4.45Z"/>
      <path class="cls-1" d="M31.21,109.81c-.21-.09-.53.09-.74,0,1.43.76,2.42,1.74,2.97,2.97h.74c-1.13-.76-2.12-1.75-2.97-2.97Z"/>
      <path class="cls-1" d="M30.47,109.81c.09,1.75,1.23,2.89,2.96,2.97-.55-1.22-1.54-2.21-2.96-2.97Z"/>
      <path class="cls-1" d="M34.18,112.78c-.11-.58.31-1.58-.13-2.08-.16-.18-2.1-.58-2.84-.89.85,1.22,1.84,2.21,2.97,2.97Z"/>
      <path class="cls-1" d="M101.67,152.08c-.4.49-.72.76-.97.86,0,.05,0,.11.02.16.25-.12.57-.22.95-.28-.1-.21.12-.6,0-.74h0Z"/>
      <path class="cls-1" d="M101.67,152.08c-.23-.27-1.14-.42-1.49-.74.25.41.44,1,.52,1.61.25-.1.57-.37.96-.86h0Z"/>
      <path class="cls-1" d="M100.18,155.05c1.55-1.41,2.81.44,1.49-2.22-.38.06-.7.16-.95.28.06.73-.07,1.46-.54,1.94Z"/>
      <path class="cls-1" d="M100.72,153.11c-.01-.05-.02-.11-.02-.16-.5.2-.7-.35-.52-1.61-.2.24-.38.4-.55.53-.52.88,0,2.35.55,3.18-.42-.92-.24-1.57.54-1.94h0Z"/>
      <path class="cls-1" d="M100.7,152.95c-.08-.61-.27-1.2-.52-1.61-.18,1.26.02,1.81.52,1.61Z"/>
      <path class="cls-1" d="M99.63,151.87c.17-.12.35-.28.55-.52-.26.13-.43.31-.55.52Z"/>
      <path class="cls-1" d="M100.72,153.11c-.78.38-.96,1.02-.54,1.94.47-.48.6-1.22.54-1.94Z"/>
      <path class="cls-1" d="M17.86,107.59c.15.72.93,1.54.8,2.53-.04.33-3,.72-1.54,1.92,1.53,1.25,3.29-2.78,1.48-5.19-.45-.14-.81.42-.74.74Z"/>
      <path class="cls-1" d="M33.86,113.24c-.13.03-.27-.12-.43-.46.08.31.17.6.26.89.04-.15.1-.29.17-.43h0Z"/>
      <path class="cls-1" d="M33.69,113.67c-.09-.29-.18-.58-.25-.89l-1.48,3.71c.09.1,2.09-1.29,2.22-1.48-.56-.17-.64-.77-.48-1.34h-.01Z"/>
      <path class="cls-1" d="M34.18,112.78c-.1.3-.2.44-.32.46-.07.14-.13.28-.17.43.15.47.31.93.49,1.34.63-.9.12-1.56,0-2.22h0Z"/>
      <path class="cls-1" d="M34.18,115c-.18-.41-.34-.86-.49-1.34-.16.57-.07,1.16.49,1.34Z"/>
      <path class="cls-1" d="M33.86,113.24c.09-.17.2-.33.32-.46h-.74c.15.35.29.49.43.46h-.01Z"/>
      <path class="cls-1" d="M34.18,112.78c-.12.13-.23.29-.32.46.12-.03.22-.17.32-.46Z"/>
      <path class="cls-1" d="M102.06,152.3c.17.16.05.34-.4.53.34-.09.62-.2.85-.32-.15-.05-.29-.12-.45-.2Z"/>
      <path class="cls-1" d="M101.67,152.08c.2.07.31.14.39.21.16.08.31.15.45.21.77-.42.99-1.05.64-1.9.29,1.29-.24,1.65-1.48,1.48h0Z"/>
      <path class="cls-1" d="M102.51,152.5c-.23.13-.51.24-.84.32l4.45.74c-.81-1.19-1.95-1.79-2.97-2.96,1.36,1.58.69,2.38-.64,1.9Z"/>
      <path class="cls-1" d="M102.51,152.5c1.33.47,2-.33.64-1.9.35.85.13,1.48-.64,1.9Z"/>
      <path class="cls-1" d="M102.06,152.3c-.13-.07-.26-.12-.4-.21.12.14-.1.53,0,.74.45-.19.57-.36.4-.53Z"/>
      <path class="cls-1" d="M101.67,152.08c.13.09.26.15.39.21-.07-.07-.19-.15-.39-.21Z"/>
      <path class="cls-1" d="M29.54,108.5c-.06-.09-.1-.17-.14-.26-.12.28-.24.56-.41.83.18-.36.37-.52.55-.57h0Z"/>
      <path class="cls-1" d="M30.69,109.52c-.13-.08-.25-.16-.37-.26.06.17.11.35.15.54.07-.14.15-.23.22-.29h0Z"/>
      <path class="cls-1" d="M29.54,108.5c-.18.04-.37.21-.56.57.17.18,1.11.57,1.49.74-.04-.2-.1-.38-.16-.54-.3-.23-.58-.49-.77-.76Z"/>
      <path class="cls-1" d="M29.54,108.5c.31-.08.59.24.77.76.13.09.25.17.38.26.17-.14.34-.05.52.29l-1.48-2.97c-.03.49-.15.95-.34,1.4.05.09.08.18.15.26h0Z"/>
      <path class="cls-1" d="M29.54,108.5c.19.28.47.54.77.76-.19-.52-.46-.84-.77-.76Z"/>
      <path class="cls-1" d="M29.73,106.84c-.11.14-3.04-.3-.74,2.22.18-.27.29-.55.41-.83-.23-.47-.21-.96.33-1.4h0Z"/>
      <path class="cls-1" d="M29.4,108.24c.18-.45.31-.91.33-1.4-.55.44-.57.93-.33,1.4Z"/>
      <path class="cls-1" d="M31.21,109.81c-.17-.08-.34-.18-.52-.29-.07.06-.15.14-.22.29.21.09.53-.09.74,0Z"/>
      <path class="cls-1" d="M30.69,109.52c.17.11.35.21.52.29-.17-.34-.35-.43-.52-.29Z"/>
      <path class="cls-1" d="M37.14,131.32c-.07-.6.15-2.08,0-2.22-1.11-1.12-6.25.96,0,2.22Z"/>
      <path class="cls-1" d="M80.9,143.19c-.11-1.3.39-2.54,1.48-3.71-.85,1.07-3.31,1.33-1.48,3.71Z"/>
      <path class="cls-1" d="M82.38,139.48c-.96,1.15-1.46,2.38-1.48,3.71.88-1.22,1.33-2.2,1.48-3.71Z"/>
      <path class="cls-1" d="M82.38,139.48c-1.09,1.17-1.59,2.4-1.48,3.71.02-1.33.52-2.56,1.48-3.71Z"/>
      <path class="cls-1" d="M45.85,122.72c.62-.73,1.64-1.34,2.42-1.79h-.74l-2.97,2.22c.75-.56,1.2-.67,1.29-.44h0Z"/>
      <path class="cls-1" d="M48.27,120.94c-.78.45-1.8,1.06-2.42,1.79.07.19-.09.59-.55,1.18,1.1-1,2.11-2.21,2.97-2.97Z"/>
      <path class="cls-1" d="M44.56,123.16c.39-.01.87.28.74.74.02-.42.23-.81.54-1.18-.08-.23-.53-.13-1.28.44h0Z"/>
      <path class="cls-1" d="M45.85,122.72c-.31.37-.53.76-.55,1.18.46-.59.62-.99.55-1.18Z"/>
      <path class="cls-1" d="M69.4,110.46c-.06-.02-.14-.05-.22-.07-.33-.07-.64-.11-.94-.12.37.03.75.09,1.16.18h0Z"/>
      <path class="cls-1" d="M68.24,110.27c.29,0,.61.04.94.12-1.06-.33-2.89-.95-3.85.17-1.65,1.92,2.2,1.29,2.96,1.47-3.65-.71-2.44-1.93-.05-1.76Z"/>
      <path class="cls-1" d="M66.89,111.32c.24.23.68.48,1.4.71l-1.4-.71Z"/>
      <path class="cls-1" d="M68.24,110.27c-.6-.01-1.1.1-1.37.29h2.9c-.1-.02-.22-.06-.37-.1-.41-.1-.8-.16-1.16-.18Z"/>
      <path class="cls-1" d="M66.81,111.25v-.64c-.19.17-.22.39,0,.64Z"/>
      <path class="cls-1" d="M68.24,110.27c-2.39-.17-3.6,1.05.05,1.76-.72-.24-1.16-.49-1.41-.71l-.06-.04v-.03c-.22-.24-.2-.47,0-.64v-.05h.06c.27-.19.77-.3,1.37-.29h0Z"/>
      <path class="cls-1" d="M26.24,108.77c-.03.1-.1.2-.22.31.28.22.56.37.83.49-.23-.23-.45-.51-.61-.8Z"/>
      <path class="cls-1" d="M26.85,109.56c-.27-.12-.55-.28-.83-.49.19.09.44,1.24,1.16,1.44,1.07.29.88-.59,1.06-.69-.36.47-.92.22-1.39-.25h0Z"/>
      <path class="cls-1" d="M26.02,108.33v.74c.12-.11.19-.21.21-.31-.08-.15-.16-.29-.21-.43h0Z"/>
      <path class="cls-1" d="M26.24,108.76c.16.29.38.57.61.8.48.21.94.31,1.39.25l-2.22-1.48c.2.14.26.28.22.43h0Z"/>
      <path class="cls-1" d="M26.85,109.56c.48.47,1.03.72,1.39.25-.45.06-.92-.04-1.39-.25Z"/>
      <path class="cls-1" d="M26.02,108.33c.05.14.13.29.21.43.04-.15,0-.3-.21-.43Z"/>
      <path class="cls-1" d="M57.17,132.07l-2.22.36c.99,1.4,1.59,1.26,2.22-.36Z"/>
      <path class="cls-1" d="M11.19,104.62c-.53,1.04.47,1.98.73,1.48.53-1.04-.47-1.98-.73-1.48Z"/>
      <path class="cls-1" d="M133.56,141.7v.74c.18-.39.39-.75.59-1.13-.19.13-.37.27-.59.39Z"/>
      <path class="cls-1" d="M134.3,136.02c1.07.65,1.61,1.44,1.7,2.24.72-1,1.52-1.94,2.38-2.84-.43.22-.8.1-1.12-.39-.28.19-.94,1.9-1.47,1.48-.51-3.34-7.53-2.07-10.39-2.97.59.49,1.54,1.18,2.22,1.48,1.65-.7,4.93-.07,6.68,1h0Z"/>
      <path class="cls-1" d="M138.38,135.42c.37-.38.72-.77,1.11-1.13-.78.11-1.56.3-2.23.74.32.49.69.61,1.12.39h0Z"/>
      <path class="cls-1" d="M134.62,140.41c-.45.57-.89,1.11-1.06,1.29.22-.12.4-.26.59-.39.16-.3.31-.61.47-.9h0Z"/>
      <path class="cls-1" d="M138.38,135.42c-.86.9-1.66,1.84-2.38,2.84.14,1.07-.54,2.16-1.85,3.05-.2.38-.41.74-.59,1.13,3.02-3.1,4.25-3.92,5.93-8.16-.41.59-.77.96-1.11,1.13Z"/>
      <path class="cls-1" d="M136,138.26c-.11.16-.21.33-.32.49.04,0,.06,0,.09,0,.06.09-.54.9-1.15,1.66-.17.29-.31.6-.47.9,1.31-.89,1.99-1.99,1.85-3.05h0Z"/>
      <path class="cls-1" d="M134.3,136.02c-1.74-1.06-5.02-1.7-6.68-1,1.85.84,4.84.95,5.23,1.16,1.11.6,1.2,2.75,2.83,2.56.11-.16.21-.33.32-.49-.1-.8-.63-1.58-1.7-2.24h0Z"/>
      <path class="cls-1" d="M139.49,134.29c-.39.36-.74.75-1.11,1.13.34-.17.7-.54,1.11-1.13Z"/>
      <path class="cls-1" d="M125.4,133.54c-.1-.08-.87.1-.74-.73.72-.09,1.53.1,2.22,0-1.14-.21-1.82-.39-1.74-.73-.48-.16-.61-1.48-1.07-1.82l-.16-.07c-.18-.04-.42.06-.74.41-.31.34,1.09,2.43.74,2.96-.21.31-1.14-.71-1.48-.74-.05,0-.43.63-.74.74,1.26-.03,2.61.23,4.05.72-.22-.21-.35-.44-.34-.72h0Z"/>
      <path class="cls-1" d="M123.23,129.85c1.66.37,2.51-.94,2.2,1.85.13-.1.28-.21.49-.34-.31-.97,0-2.01.61-2.86-.71-.85.25-1.48.96-.97.7-.5,1.53-.77,2.36-.66-.72-1.29-.83-1.4-2.22-1.48-.25,1.42-.91,1.59-2.13,1.65,1.07,1.93.3,2.87-2.32,2.8,0,0,.02,0,.04,0t.02,0h-.01Z"/>
      <path class="cls-1" d="M123.21,129.84s.02,0,.02,0t-.02,0Z"/>
      <path class="cls-1" d="M124.07,130.24s-.1-.06-.16-.07l.16.07Z"/>
      <path class="cls-1" d="M125.5,127.04c1.21-.07,1.88-.23,2.12-1.65-2.75-.16-7.07,1.24-2.58,2.96l-1.87,1.49c2.62.07,3.4-.86,2.33-2.8h0Z"/>
      <path class="cls-1" d="M127.62,127.61c.05.05.28,1.57-.36,1.48-.36-.2-.57-.4-.73-.59-.62.85-.93,1.9-.61,2.86-.21.13-.37.24-.49.34-.01.12-.03.23-.04.36-.1.04-.18.04-.25.01-.08.35.6.52,1.74.73-1.82-2.23,1.59-3.13,2.97-5.93-.84-.11-1.67.17-2.36.66.04.03.09.05.13.09h0Z"/>
      <path class="cls-1" d="M125.74,134.27c-1.44-.49-2.79-.75-4.05-.72,1.96,2.18,3.15.63,5.93,1.48-.93-.17-1.53-.43-1.88-.76Z"/>
      <path class="cls-1" d="M125.74,134.27c.61.21,1.24.45,1.88.76-.67-.31-1.63-.99-2.22-1.48-.02.28.12.51.34.72Z"/>
      <path class="cls-1" d="M127.62,135.03c-.64-.31-1.27-.55-1.88-.76.35.33.95.59,1.88.76Z"/>
      <path class="cls-1" d="M115.76,115c4.61-.26,2.53-.39,2.96-4.45l-.74-.74c-.12.26.1,2.98-1.48,1.48-.38-.36,1-2.88-1.48-2.22,1.12,2.08,1.56,3.63.74,5.92Z"/>
      <path class="cls-1" d="M123.19,129.84h-.02s0,0,0,0h.02Z"/>
      <path class="cls-1" d="M122.1,130.69c-.18.01-.38-.02-.57-.09-.08.23-.26.48-.58.72l1.48,1.48c-.27-.93-.37-1.62-.33-2.12h0Z"/>
      <path class="cls-1" d="M121.53,130.6c.19.06.39.1.57.09.06-.69.41-.98,1.07-.85h0c-.63-.16-1.47-.6-2.01-.58-.73.03-.85.54-.96.57.97-.29,1.54.15,1.33.76h0Z"/>
      <path class="cls-1" d="M123.17,129.84c-.28.6-.66.82-1.07.85-.04.5.06,1.19.33,2.12.34.04,1.27,1.05,1.48.74.35-.53-1.05-2.62-.74-2.96.32-.35.56-.45.74-.41l-.73-.33h-.01Z"/>
      <path class="cls-1" d="M123.23,129.85s0,0-.02,0h-.02l.72.33c.06.01.11.04.16.07l.66.3c-.6-.37-1.1-.6-1.5-.7h0Z"/>
      <path class="cls-1" d="M125.43,131.7c.31-2.79-.54-1.48-2.2-1.85.4.09.9.33,1.5.7l-.66-.3c.46.34.59,1.67,1.07,1.83.03-.11.11-.23.29-.37h0Z"/>
      <path class="cls-1" d="M123.21,129.84s-.02,0-.04,0h.01s.02,0,.03,0h0Z"/>
      <path class="cls-1" d="M125.39,132.06c.02-.13.03-.24.04-.36-.18.14-.27.26-.29.37.07.02.15.03.25-.01h0Z"/>
      <path class="cls-1" d="M123.17,129.84c-.66-.13-1.01.16-1.07.85.41-.02.79-.25,1.07-.85Z"/>
      <path class="cls-1" d="M121.53,130.6c-.46-.15-.92-.46-1.33-.76.19.5.58.98.75,1.48.32-.25.5-.5.58-.72h0Z"/>
      <path class="cls-1" d="M120.21,129.84c.4.31.86.61,1.32.76.22-.61-.36-1.06-1.32-.76Z"/>
      <path class="cls-1" d="M129.85,124.64c.31-1.71.02-2.49-.74-.74.1.08.86-.1.74.74Z"/>
      <path class="cls-1" d="M129.85,124.65c.19-.15,1.51.34,1.5-.37-.04-2.89-4.83-5.69-2.24-.37.76-1.75,1.04-.97.74.74h0Z"/>
      <path class="cls-1" d="M128.08,124.6c.4-.25.95.06,1.33.65.04-.29.17-.51.44-.61l-.74-.74c-.43.15-.77.39-1.03.7Z"/>
      <path class="cls-1" d="M128.08,124.6c.26-.31.6-.55,1.03-.7-3.47-2.79-3.19-1.88-1.49,1.48.09-.43.26-.66.46-.78Z"/>
      <path class="cls-1" d="M129.41,125.25c.29.44.49,1.02.44,1.62.63-1.3-.09-2.15,0-2.22-.27.1-.4.31-.44.61Z"/>
      <path class="cls-1" d="M129.85,126.87c-.35-.71-.48-1.24-.44-1.62-.38-.59-.93-.9-1.33-.65-.19.22-.35.48-.46.78,1.39.08,1.5.19,2.23,1.48Z"/>
      <path class="cls-1" d="M127.62,125.39c.11-.31.27-.56.46-.78-.2.12-.37.35-.46.78Z"/>
      <path class="cls-1" d="M129.85,126.87c.05-.59-.15-1.17-.44-1.62-.04.38.08.91.44,1.62Z"/>
      <path class="cls-1" d="M79.42,152.08c.05-.11.1-.18.16-.24-.1.01-.16.09-.16.24Z"/>
      <path class="cls-1" d="M79.58,151.84c.18-.18.37-.1.58.24-.4-.52-.62-1.49-1.48-1.48v1.1l.74.38c0-.15.06-.22.16-.24h0Z"/>
      <path class="cls-1" d="M79.58,151.84c-.06.06-.11.13-.16.24h.74c-.27-.19-.46-.26-.58-.24h0Z"/>
      <path class="cls-1" d="M79.58,151.84c.12-.02.31.05.58.24-.21-.34-.4-.42-.58-.24Z"/>
      <path class="cls-1" d="M35.66,88.3c.69.22.68.47,0,.74.43-.26.87-.38,1.31-.41-.45-.11-.89-.22-1.31-.33Z"/>
      <path class="cls-1" d="M35.66,88.3c.05.14.02.52,0,.74.68-.28.69-.52,0-.74Z"/>
      <path class="cls-1" d="M36.97,88.64c-.44.03-.88.15-1.31.41h2.97c-.58-.14-1.12-.27-1.66-.41Z"/>
      <path class="cls-1" d="M38.63,89.05c-.56-1.19-1.73-.73-2.97-.74.42.11.86.22,1.31.33.55-.03,1.11.1,1.66.41Z"/>
      <path class="cls-1" d="M36.97,88.64c.53.13,1.08.27,1.66.41-.55-.31-1.11-.44-1.66-.41Z"/>
      <path class="cls-1" d="M18.73,84.05s.01-.07.01-.11h-.13s.08.07.12.11Z"/>
      <path class="cls-1" d="M17.12,83.85c.52-.41,1.05-.3,1.49.08h.13c.08-1.47,1.05-2.65,2.83-2.3-.12-.04-.3-.44-.66-.64-.18-.04-.36-.06-.53-.09-1.75.1-2.31,2.11-3.26,2.96h0Z"/>
      <path class="cls-1" d="M20.38,80.9c.17.03.35.05.53.09-.13-.07-.27-.11-.44-.1-.04,0-.06.01-.09.02Z"/>
      <path class="cls-1" d="M19.16,85.98c-.32-.63-.45-1.3-.43-1.93-.04-.04-.08-.08-.12-.12l-1.49-.08c.9.86,1.46,2.52,1.48,3.71l.56-1.58h0Z"/>
      <path class="cls-1" d="M17.12,83.85l1.49.08c-.44-.38-.97-.49-1.49-.08Z"/>
      <path class="cls-1" d="M18.77,83.94h-.03s-.01.07-.01.11c.92.94,1.31,3.05-.13,3.51l5.19-.75-1.86-2.96c-1.48,3.73-3.96-.49-.36-2.23-1.43-.1-2.36.68-2.8,2.31h0Z"/>
      <path class="cls-1" d="M18.74,83.94h.03c.44-1.64,1.37-2.41,2.8-2.31-1.79-.35-2.75.84-2.83,2.31Z"/>
      <path class="cls-1" d="M19.16,85.98l-.56,1.58c1.44-.46,1.05-2.57.13-3.51-.02.63.11,1.3.43,1.93Z"/>
      <path class="cls-1" d="M9.7,92.01c.67.47,1.52.47,2.23.74v-.74c-.05-.24.06-.52,0-.74-.45.15-.76.18-.98.14-.27.14-.68.11-1.25-.14.65.21.64.46,0,.74Z"/>
      <path class="cls-1" d="M10.95,91.41c-.54-.11-.42-.75.24-1.62-.51.5-.99.99-1.49,1.48.57.25.98.27,1.25.14Z"/>
      <path class="cls-1" d="M10.95,91.41c.22.04.53.01.98-.14-.08-.25-.46-.61-.64-1.01.09.59-.02.99-.34,1.15h0Z"/>
      <path class="cls-1" d="M10.95,91.41c.32-.16.43-.56.34-1.15-.07-.15-.11-.31-.1-.47-.66.87-.78,1.51-.24,1.62Z"/>
      <path class="cls-1" d="M9.7,91.27v.74c.64-.28.65-.53,0-.74Z"/>
      <path class="cls-1" d="M46.33,100.11c.71.21,1.36.47,1.94.81-.5-1.19-1.59-2.01-2.23-2.97.81,1.15.9,1.86.29,2.16h0Z"/>
      <path class="cls-1" d="M43.01,99.57c1.18.05,2.24.22,3.18.49-.29-.3-.43-.67-.41-1.11-1.14,2.27-5.36-3.81-6.05-3.97-2.7-.59-1.11,2.63-1.1,2.96.83-1.9,2.29-1.36,4.38,1.63h0Z"/>
      <path class="cls-1" d="M46.19,100.06c.05.01.09.03.14.04.61-.3.52-1.02-.29-2.16-.04.45-.14.76-.26,1-.02.44.12.81.41,1.11h0Z"/>
      <path class="cls-1" d="M41.65,100.9h6.62c-.95-.13-1.6-.39-2.01-.77-.61.25-1.81.15-3.63-.32-.68-1.82-2.26-3.79-4-1.86,2.39-.33,2.98.79,3.02,2.95h0Z"/>
      <path class="cls-1" d="M46.26,100.13c.41.38,1.07.64,2.01.79-.58-.34-1.23-.6-1.94-.81-.02.01-.06.01-.08.02h0Z"/>
      <path class="cls-1" d="M42.63,99.8c1.83.48,3.02.58,3.63.32-.03-.02-.05-.04-.07-.06-.95-.27-2-.44-3.18-.49-2.1-2.99-3.56-3.53-4.38-1.63,1.74-1.94,3.32.04,3.99,1.86h0Z"/>
      <path class="cls-1" d="M46.19,100.06s.05.04.07.06c.02,0,.05-.01.07-.02-.05-.01-.09-.03-.13-.04h-.01Z"/>
      <path class="cls-1" d="M27.5,69.76l2.2.08c-.73-.06-1.46-.09-2.2-.08Z"/>
      <path class="cls-1" d="M43.08,108.33c.08.01.9-.87,1.48-.74-.55-.01-1.09-.1-1.63-.25.14.29.2.65.15.99Z"/>
      <path class="cls-1" d="M42.62,107.22c-.34-.11-.69-.21-1.03-.38.07.67.83,1.41,1.49,1.48-.27-.46-.42-.83-.46-1.1Z"/>
      <path class="cls-1" d="M42.93,107.34c-.1-.03-.2-.08-.31-.12.05.27.19.64.46,1.1.05-.34-.01-.69-.15-.99Z"/>
      <path class="cls-1" d="M42.62,106.93c.09-.35.53-.32,1.23.13-1.1-.86-.28-.76-.04-3.18h-3.15c-.08.07-.18.13-.28.2,2.94,2.16,1.11,1.73,1.21,2.76.42-.22.77-.14,1.04.09h0Z"/>
      <path class="cls-1" d="M42.62,106.93c.13.11.24.24.31.41.54.14,1.08.24,1.63.25-.3-.22-.53-.38-.71-.53-.7-.45-1.14-.48-1.22-.13h0Z"/>
      <path class="cls-1" d="M42.62,106.93c-.26-.23-.61-.31-1.03-.09.34.17.69.27,1.03.38-.02-.12-.02-.21,0-.29h0Z"/>
      <path class="cls-1" d="M40.38,104.08c.1-.07.2-.13.28-.19h-.55c.1.07.18.13.26.19h0Z"/>
      <path class="cls-1" d="M42.93,107.34c-.07-.16-.18-.3-.31-.41-.02.08-.02.18,0,.29.11.03.21.09.31.12Z"/>
      <path class="cls-1" d="M133.56,142.44c-.14-.11-.21-.22-.22-.34-.13.32-.06.43.22.34Z"/>
      <path class="cls-1" d="M133.34,142.1c0-.13.06-.26.22-.4-1.08,1.16-3.49,2.08-3.72,4.07,1.69.1,2.77-2.36,3.72-3.33-.28.09-.35-.02-.22-.34h0Z"/>
      <path class="cls-1" d="M133.34,142.1c.01.12.08.23.22.34v-.74c-.1.16-.17.29-.22.4h0Z"/>
      <path class="cls-1" d="M133.34,142.1c.05-.11.12-.24.22-.4-.16.14-.22.27-.22.4Z"/>
      <path class="cls-1" d="M121.54,132.7v-.02s-.06-.1-.1-.16c-.08.14-.22.25-.49.29.26-.13.45-.15.59-.11Z"/>
      <path class="cls-1" d="M121.54,132.7c-.14-.04-.33-.03-.59.11.19.36.53.51.74.74-.21-.41-.24-.69-.16-.85h.01Z"/>
      <path class="cls-1" d="M122.43,132.8c-.23.26-.46.28-.69.09.05.15.05.36-.05.65.31-.11.69-.75.74-.74h0Z"/>
      <path class="cls-1" d="M121.54,132.7s.02,0,.03.01c0-.01-.02-.02-.03-.03v.02Z"/>
      <path class="cls-1" d="M121.74,132.89c-.06-.05-.11-.11-.17-.18,0,0-.02,0-.03-.01-.09.16-.05.43.15.85.11-.29.1-.5.05-.65h0Z"/>
      <path class="cls-1" d="M121.44,132.52c-.17-.28-.33-.68-.49-1.2.38,1.18-.04,1.42,0,1.48.27-.04.41-.15.49-.29Z"/>
      <path class="cls-1" d="M121.44,132.52c.03.06.07.11.1.16.12-.17.41-.15.89.13l-1.48-1.48c.49.56.63.95.49,1.2Z"/>
      <path class="cls-1" d="M121.54,132.67s.02.02.03.03c.08.03.14.09.17.18.23.19.46.17.69-.09-.48-.28-.77-.3-.89-.13h0Z"/>
      <path class="cls-1" d="M121.57,132.71c.05.08.11.14.17.18-.03-.09-.09-.15-.17-.18Z"/>
      <path class="cls-1" d="M120.95,131.32c.16.52.33.91.49,1.2.14-.25,0-.63-.49-1.2Z"/>
      <path class="cls-1" d="M46.03,93.49c.54-1.04-.47-1.98-.72-1.48-.53,1.04.47,1.98.72,1.48Z"/>
      <path class="cls-1" d="M6,9.68c1.04.53,1.98-.47,1.47-.73-1.04-.53-1.97.47-1.47.73Z"/>
      <path class="cls-1" d="M33.43,94.24l-2.96-.73c.31,1.58,1.78,1.24,2.96,1.48-.64-.21-.63-.46,0-.74h0Z"/>
      <path class="cls-1" d="M33.43,94.98v-.74c-.39.22-.37.47,0,.74Z"/>
      <path class="cls-1" d="M33.43,94.24c-.63.28-.64.53,0,.74-.37-.28-.39-.52,0-.74Z"/>
      <path class="cls-1" d="M27.87,92.01v.74c.49-.25.49-.49,0-.74Z"/>
      <path class="cls-1" d="M39.24,114.11c.56-1.45,1.44-2.94,2.35-3.55-1.26.62-2.5,1.11-3.7,1.48.77.39,1.22,1.2,1.35,2.07h0Z"/>
      <path class="cls-1" d="M37.89,112.03c1.2-.37,2.44-.86,3.7-1.48-2.17-1.66-3.09-.6-3.7,1.48Z"/>
      <path class="cls-1" d="M39.24,114.11c.12.84-.07,1.75-.61,2.38,2.49-1.26,3.4-3.14,2.96-5.93-.91.61-1.79,2.11-2.35,3.55h0Z"/>
      <path class="cls-1" d="M38.63,116.48c.04-.63.27-1.5.61-2.38-.13-.87-.58-1.68-1.36-2.07-.64,2.19-.34,2.25.75,4.45h0Z"/>
      <path class="cls-1" d="M39.24,114.11c-.35.88-.57,1.74-.61,2.38.54-.63.73-1.53.61-2.38Z"/>
      <path class="cls-1" d="M37.14,112.03c-.15-2.95.34-6.23-2.96-4.44-.22.22,2.14,3.57,2.22,4.44.21-.65.46-.64.74,0h0Z"/>
      <path class="cls-1" d="M36.4,112.04h.74c-.26-.3-.51-.31-.74,0Z"/>
      <path class="cls-1" d="M37.14,112.04c-.28-.64-.53-.65-.74,0,.24-.31.48-.3.74,0Z"/>
      <path class="cls-1" d="M39.34,101.12c-.12.28-.25.56-.41.82.14-.04.28.1.44.46.03-.43,0-.85-.03-1.27Z"/>
      <path class="cls-1" d="M38.93,101.94c-.1.16-.2.32-.3.46h.74c-.16-.35-.3-.5-.44-.46Z"/>
      <path class="cls-1" d="M38.93,101.94c.15-.25.29-.53.41-.82-.09-.84-.32-1.66-.71-2.44.13,1.21-.09,2.49,0,3.71.09-.29.19-.43.3-.46Z"/>
      <path class="cls-1" d="M38.63,102.39c.1-.14.2-.29.3-.46-.11.03-.21.17-.3.46Z"/>
      <path class="cls-1" d="M39.34,101.12c.04.42.06.84.03,1.27.45-1.88,3.02-3.21-.74-3.71,1.17.36,1.11,1.44.71,2.44Z"/>
      <path class="cls-1" d="M38.63,98.69c.39.78.62,1.59.71,2.44.4-1,.46-2.08-.71-2.44Z"/>
      <path class="cls-1" d="M31.34,106.18c.36.26.58.26.61-.07-.17.16-.38.18-.61.07Z"/>
      <path class="cls-1" d="M31.34,106.18c-.26-.12-.54-.38-.87-.82l1.86,2.96c1.4-1.15-.37-2.09-.38-2.22-.03.33-.25.33-.61.07Z"/>
      <path class="cls-1" d="M31.34,106.18c.24.11.44.09.61-.07-.48-.14-1.07-.68-1.48-.74.36.4.64.65.87.82Z"/>
      <path class="cls-1" d="M31.34,106.18c-.23-.16-.51-.41-.87-.82.33.44.61.7.87.82Z"/>
      <path class="cls-1" d="M41.59,108.33c-.05-.05-1.57-.28-1.48.36,1.16,2.02,2.32.5,1.48-.36Z"/>
      <path class="cls-1" d="M36.21,102.42c-.13-.15-.31-.17-.55-.03.25-.05.42-.03.55.03Z"/>
      <path class="cls-1" d="M36.21,102.43c-.13-.06-.3-.08-.55-.03.27.22.51.49.74.74-.02-.35-.09-.58-.2-.71h0Z"/>
      <path class="cls-1" d="M36.21,102.42c.2.1.28.32.19.71-.04-.09.97-.74-.37-1.47l-.37.73c.25-.14.43-.12.55.03h0Z"/>
      <path class="cls-1" d="M36.21,102.43c.1.13.17.36.19.71.09-.39.01-.61-.19-.71Z"/>
      <path class="cls-1" d="M10.44,97.2l-.74.74c.35-.09.62-.41.74-.74Z"/>
      <path class="cls-1" d="M9.7,97.94l.74-.74c-.32.08-.61.42-.74.74Z"/>
      <path class="cls-1" d="M127.49,127.53c-.71-.51-1.67.11-.96.97.27-.37.58-.7.96-.97Z"/>
      <path class="cls-1" d="M127.26,129.09c.64.09.41-1.42.36-1.48-.04-.04-.09-.05-.13-.09-.38.27-.69.6-.96.97.16.19.37.39.73.59Z"/>
      <path class="cls-1" d="M81.32,155.26c-.11.08-.26.16-.45.25.69.04,1.17.89-.35,1.76-.64.1-.42-1.43-.36-1.48-.59,1.35.03,2.37,1.48,2.22.36-1.11.24-2.02-.32-2.75Z"/>
      <path class="cls-1" d="M80.16,155.79c.22-.21.48-.29.72-.28.18-.09.33-.17.44-.25-.27-.36-.66-.69-1.16-.95-.1.44.14,1.22,0,1.48Z"/>
      <path class="cls-1" d="M80.16,155.79c-.09.17-1.03.36-1.34,1.24-1.07,3.04.79,3.46,2.82.99-1.44.14-2.06-.87-1.48-2.22h0Z"/>
      <path class="cls-1" d="M81.32,155.26c.56.73.68,1.64.32,2.75,1.12-1.36,1.76-2.6,1.48-4.45l-2.96.74c1.38.21,1.73.55,1.16.95Z"/>
      <path class="cls-1" d="M81.32,155.26c.57-.4.23-.75-1.16-.95.5.27.88.59,1.16.95Z"/>
      <path class="cls-1" d="M85.35,157.28c-.74.02-1.11.03-1.11.03,0,0,.37,0,1.11-.03l-1.48-.74c-.26,2.87.86.84,1.48.74Z"/>
      <path class="cls-1" d="M37.89,90.54c-2.64-1.84-1.6,3.09-1.49,3.7.37-1.69.56-2.54.56-2.54,0,0-.19.85-.56,2.54.97-.86,1.84-3.45,1.49-3.7Z"/>
      <path class="cls-1" d="M38.63,89.05c.2.43-.43,1.31.38,1.49,1.74.38.85-.66,1.1-1.49-.04,1.13-1.19,1.11-1.48,0Z"/>
      <path class="cls-1" d="M40.11,89.05h-1.48c.48.46.97.46,1.48,0Z"/>
      <path class="cls-1" d="M38.63,89.05c.29,1.11,1.44,1.13,1.48,0-.5.46-1,.46-1.48,0Z"/>
      <path class="cls-1" d="M43.82,95.72c-.14-.07-.25-.16-.37-.23-.43-.24-1.07-.55-1.11-.51-.97,1.17.62,1.76,1.27,1.41.02-.22.08-.44.21-.67Z"/>
      <path class="cls-1" d="M43.45,95.49c.13.08.23.16.37.23,0-.03-.17-.12-.37-.23Z"/>
      <path class="cls-1" d="M43.82,95.72c-.13.22-.19.45-.21.67.21-.12.32-.33.21-.67Z"/>
      <path class="cls-1" d="M26.33,89.05l.43.74c.06-.26.12-.5.19-.75-.19.01-.39.01-.62.01Z"/>
      <path class="cls-1" d="M26.95,89.04c.09-.35.17-.71.26-1.05-1.32,1.18-6.43-1.61-6.37.68.04,1.47,4.81,1.15,5.92,1.11l-.43-.74c.23,0,.43,0,.62-.01Z"/>
      <path class="cls-1" d="M28.99,89.78c.45-1.47-1.06-2.08-1.49-2.96.96,1.64.95,2.14-.55,2.22-.06.25-.13.49-.19.75.66-.12,1.51.1,2.23,0Z"/>
      <path class="cls-1" d="M27.5,86.82c.09.59-.04.94-.29,1.17-.09.34-.17.69-.26,1.05,1.5-.08,1.5-.58.55-2.22h0Z"/>
      <path class="cls-1" d="M36.03,87.56c.46-.24.47-.47.06-.71,0,.14-.03.27-.06.4v.3h0Z"/>
      <path class="cls-1" d="M36.03,87.26c.03-.13.05-.27.06-.4-.03-.01-.03-.03-.06-.04v.44Z"/>
      <path class="cls-1" d="M46.52,104.63c-.34-.31-.75-.57-1.21-.75.08,1.03.15,2.31.58,3.08.42-.03.87.07,1.37.32-.32-.91-.62-1.8-.74-2.65Z"/>
      <path class="cls-1" d="M47.52,107.58c.21-1.19-.2-2.22-1-2.95.12.84.42,1.74.74,2.65-.5-.25-.95-.35-1.37-.32.31.56.8.87,1.63.62Z"/>
      <path class="cls-1" d="M43.81,102.4c-1.04-.53-1.98.47-1.47.72,1.04.53,1.98-.47,1.47-.72Z"/>
    </g>
  </g>
</svg>