<?xml version="1.0" encoding="UTF-8"?>
<svg id="_레이어_2" data-name="레이어 2" xmlns="http://www.w3.org/2000/svg" xmlns:xlink="http://www.w3.org/1999/xlink" viewBox="0 0 21.91 23.09">
  <defs>
    <style>
      .cls-1 {
        mask: url(#mask);
      }

      .cls-2 {
        fill: #d9d9d9;
      }
    </style>
    <mask id="mask" x="-9" y="-8" width="40" height="40" maskUnits="userSpaceOnUse">
      <g id="mask0_202_704" data-name="mask0 202 704">
        <rect class="cls-2" x="-9" y="-8" width="40" height="40"/>
      </g>
    </mask>
  </defs>
  <g id="_레이어_1-2" data-name="레이어 1">
    <g class="cls-1">
      <path d="M19.96,0c.51-.03.96.13,1.34.51.37.4.59.83.59,1.31s-.16.93-.54,1.33l-7.89,8.35,7.91,8.41c.37.4.53.83.53,1.33s-.21.96-.61,1.34c-.37.35-.83.51-1.34.51-.51-.03-.94-.24-1.31-.61l-7.72-8.27-7.72,8.27c-.37.4-.8.61-1.28.61-.48.03-.94-.13-1.31-.51-.4-.32-.59-.75-.59-1.25s.21-.96.59-1.36l7.83-8.38L.56,3.15c-.38-.4-.56-.85-.56-1.33S.21.88.61.51C.99.16,1.42,0,1.92,0c.51.03.96.24,1.34.64l7.72,8.22L18.65.67c.37-.43.8-.64,1.31-.67Z"/>
    </g>
  </g>
</svg>