<?xml version="1.0" encoding="UTF-8"?>
<svg id="_레이어_2" data-name="레이어 2" xmlns="http://www.w3.org/2000/svg" viewBox="0 0 149.16 178.58">
  <defs>
    <style>
      .cls-1 {
        fill: #ff319c;
      }
    </style>
  </defs>
  <g id="_레이어_1-2" data-name="레이어 1">
    <g>
      <path class="cls-1" d="M16.87,152.75c.33-.4.74-.74,1.19-1.03-.53.24-.96.56-1.19,1.03Z"/>
      <path class="cls-1" d="M13.34,151.79c.13.05.27.08.4.08-.17-.05-.3-.08-.4-.08Z"/>
      <path class="cls-1" d="M13.25,152.42c.86.28,1.77,1.04,2.64,1.41.14-2.18-.92-2.82-2.64-1.41Z"/>
      <path class="cls-1" d="M1.46,142.71c-.51.33-.94,1.17-1.46,1.62-.02.18,1.21.36,1.56.43-.39-.75-.43-1.43-.1-2.05Z"/>
      <path class="cls-1" d="M1.46,142.71c.39.46.42,1.15.1,2.05.55-.28,1.04-.48,1.47-.62l-1.57-1.43Z"/>
      <path class="cls-1" d="M3.03,144.15c-.43.14-.92.34-1.47.62l1.5-.58-.03-.03Z"/>
      <path class="cls-1" d="M1.46,142.71c-.33.62-.29,1.3.1,2.05.32-.91.29-1.59-.1-2.05Z"/>
      <path class="cls-1" d="M6.97,141.78c-.6.44-1.3.61-1.95.25,1.89,1.42,1.89,1.48.15,3.08l2.2-.4c.69-.84.48-2.38-.4-2.92h0Z"/>
      <path class="cls-1" d="M6.97,141.78c-.47-.29-1.13-.3-1.95.25.65.36,1.35.19,1.95-.25Z"/>
      <path class="cls-1" d="M7.37,144.7l-2.2.4c1.08.35,1.79.09,2.2-.4Z"/>
      <path class="cls-1" d="M3.22,143.09c0,.13,0,.25.07.31.39.31.56-.08.53-.41-.11-.11-.2-.23-.31-.38-.04.23-.14.38-.29.48h0Z"/>
      <path class="cls-1" d="M3.22,143.09c.14-.1.25-.24.29-.47-.15,0-.27.25-.29.47Z"/>
      <path class="cls-1" d="M3.51,142.61c.11.14.21.26.31.38-.03-.2-.13-.38-.31-.38Z"/>
      <path class="cls-1" d="M10.72,132.48c2.52-3.24,2.85-.91,4.29-1.65,1-.51,1.57-1.89,2.2-2.26.08-.14.07-.89.44-1.56-1.13-5.45.55-4.09,3.44-6.35,5.46-4.26,9.13-5.52,15.99-6.44,2.5-.34,5.62-.49,8.15-1.43,3.26-1.21,2.97-2.55,5.47-3.87,2.22-1.17,3.43-.41,5.51-2.85l-.56-1.6,4.92-7.29c-2.08-4.73-3.7-10.51-3.16-15.61-8.08-5.05-9.15-17.28-7.98-25.98-1.06-1.22-1.53-2.66-1.42-4.31-.06.05-.1.11-.16.16-.53-1.18-.71-2.79.35-3.61.14.32.25.66.33,1.02.31-.88.74-1.81,1.32-2.79l.07-1.24-1.78,1.97c-.95-2.31-.31-3.89,1.8-2.25l.16-2.72c-1.08,1.3-2.48,1.73-3.73.43l-.49.54c-.17.16-.33.35-.48.54l-.93,2.1c-.12.2-.37.33-.48.54l-.44,1.56c-.12.21-.38.33-.49.54l-.71,1.61c-.08.19-.15.37-.21.49-.11.21-.38.33-.49.54.22,1.77-1.04,2.88-1.85,4.21-.13.2-.36.34-.49.54.22,1.77-1.04,2.87-1.85,4.21-.12.2-.37.33-.49.54l-.92,2.1c-.12.21-.38.33-.49.54l-.43,1.57c-.12.21-.38.33-.49.54l-.72,1.63c-.07.19-.14.36-.21.48-.11.21-.37.33-.48.54.21,1.77-1.04,2.88-1.85,4.21-.13.2-.37.34-.49.54.22,1.77-1.04,2.87-1.85,4.21-.12.2-.37.33-.49.54l-.92,2.1c-.12.21-.38.33-.49.54l-.44,1.56c-.11.21-.38.33-.48.54l-.72,1.63c-.07.19-.15.36-.21.48-.11.21-.37.33-.49.54.22,1.77-1.04,2.87-1.85,4.21-.12.2-.37.33-.48.54l-.93,2.1c-.11.21-.38.33-.49.54l-.43,1.57c-.11.21-.38.33-.49.54l-.73,1.65c-.07.18-.13.33-.19.45-.11.21-.38.33-.49.54l-.44,1.56c-.1.21-.38.33-.48.54l-.7,1.58c-.08.21-.16.4-.23.52-.11.21-.37.33-.49.54.23,1.77-1.04,2.87-1.85,4.21-.12.2-.37.33-.48.54l-.93,2.1c-.11.21-.37.33-.48.54l-.44,1.56c-.11.21-.38.33-.49.54l-.73,1.65c-.07.18-.13.33-.19.45-.11.21-.38.33-.49.54l-.44,1.56c-.1.21-.38.33-.48.54l-.7,1.58c-.08.21-.16.4-.23.52-.11.21-.37.33-.49.54.23,1.77-1.04,2.88-1.85,4.21-.12.2-.36.33-.48.54l-.93,2.1c-.11.21-.37.33-.48.54l-.44,1.56c-.11.21-.38.33-.49.54l-.71,1.61c-.07.19-.15.37-.21.49-.11.21-.38.33-.49.54.51.65-.46,1.44-.44,1.56.45,2.14,7.63.69,9.29.57v.03ZM55.26,86.57c-.05-1.18,1.8-1.52,1.31.71-.36.53-1.31-.63-1.31-.71ZM53.19,107.24c-.47-.32-1.65-2.25-1.66-2.49,0-.14.35-.33.48-.53,1.09.72,1.86,1.74,1.18,3.01ZM44.1,79.41c.45-.08.58,2.23-.39,2.58-.45.08-.58-2.23.39-2.58ZM44.3,83.51c-.48.02-.4-1.28.22-.78.2.16,0,.77-.22.78,1.09-.05,1.24,1.99.1,2.05-1.14.06-1.19-1.99-.1-2.05ZM49.6,97.13c.41-.16.95-1.25,1.48-1.61.29-.04.34,1.09.58,1.51,1.02,1.81,2.39,2.88.55,4.91-.99,1.09-2.23,1.7-3.37.37,2.55-.14,4.7-2.33,1.84-4.2-.29.2-.7.21-1.02.05-.26.55-1.72,3.14-1.91,3.17-2.35-7.85.8-3.78,1.86-4.2h-.01ZM33.91,91.74c-.31-.2-1.5-.09-1.51-.43-.02-.44,1.53-.94.38-1.56l-3.01,1.18c.03-1.08,2.81-5.66,3.27-5.77.2-.05,3.01,1.32,3.12,1.84.14.64-1.71,3.89-2.25,4.75,1.97,1.29.3,2.48-1.68,2.39-.29-.87,1.22-1.67,1.68-2.39h0ZM41.74,104.72c.06.89-2.59,5.12-4.43,3.83.09-.33,4.21-6.82,4.43-3.83ZM10.12,120.18c.44-.08.57,2.23-.4,2.58-.44.08-.57-2.23.4-2.58Z"/>
      <path class="cls-1" d="M58.54,84.09c-.19-.91.68-2.18.15-3.12-.71-1.25-2.78-1.77-3.99-3.33-1.99-2.54-4.14-11.02-4.38-14.23-.11-1.65.8-7.82.51-8.72-.19-.63-1.64-.73-1.66-1.98-.02-1.32,1.84-4.69,2.21-6.84.44-2.64-.05-6.95.09-9.78-1.15.16-2.53,2.7-2.76,3.64-.21.84.69,1.28.68,1.35-.03.16-2.03.48-3.01,1.17,1.24,1.3,2.64.87,3.72-.43l-.16,2.72s.09.06.15.1l-.17.18-.07,1.24c-.57.98-1.02,1.91-1.32,2.79.18.9.1,1.82-.52,2.43-.11,1.65.36,3.09,1.42,4.31-1.17,8.7-.1,20.92,7.98,25.98-.54,5.1,1.08,10.87,3.16,15.6l-4.92,7.29.57,1.59c1.92-2.25,4.54-6.29,6.02-8.78-2.34-4.09-2.75-8.67-3.7-13.19h0Z"/>
      <path class="cls-1" d="M141.29,79.23l-.53-.48c-.49.75-1.28.82-2.01,1.12-.2.08-.28.46-.48.54-.72.28-1.31.43-2.06.1.66,3.25,3.18,6.61,3.28,9.39.07,1.84-.97,1.08-1.2,1.31-.94.89-.56.74-.44,1.56,2.44-.26,2.75,3.41,3.33,4.98.85,2.31,1.32,4.84,2.41,7.08l.28.75-.77-.21c-1.43-.95-2.97-1.69-4.5-2.44,0,0,0,.01,0,.03,1.76,1.04,2.23,1.89,1.43,2.57,1.19,1.1,3.49,1.35,4.21,1.85.14-.55.57-.95.86-1.41-.18-1.99-.44-4-.77-6.02-.91-3.25-2.15-6.96-2.65-9.18-.22-.96.15-1.97.08-2.3-.04-.19-.5-.3-.54-.49-.34-1.59-1.7-4.7-1.82-5.57-.2-1.58.94-2.06,1.9-3.18h0Z"/>
      <path class="cls-1" d="M141.75,88.46c.49,1.92.98,3.83,1.47,5.75-.44-1.9-.91-3.82-1.47-5.75Z"/>
      <path class="cls-1" d="M138.59,102.95s0-.01,0-.03c-.07-.03-.14-.07-.22-.11.97.72,1.41,2.48,1.64,2.7.81-.67.33-1.53-1.43-2.57h0Z"/>
      <path class="cls-1" d="M145.98,110.92s-.03,0-.05,0l-2.37,3.69c-.03.3.16.73.05,1.03-.72,1.86-3.21,3.71-3.32,5.82,2-.56,3.91-1.75,6.11-1.33.19-.09.28-.4.49-.54.14-.1.32-.16.52-.22.6-.3.96-.82,1.1-1.54-.9-1.88-1.15-3.93-1.49-5.96-.31-.35-.71-.62-1.04-.94h0Z"/>
      <path class="cls-1" d="M25.9,148.2c-1.14,1.25-7.3,1.64-7.71-.14-.08-.37,2.96-6.47,3.25-6.85l-1.03.05c-1.11,5.14-3.34,8.68-6.67,10.62l-.49.54c1.72-1.41,2.78-.76,2.64,1.41l.49-.54c.12-.2.35-.34.48-.54.27-.39-.3-1.88,1.67-2.41.31-.08,1.96.02,3.72.14,1.26-.08,2.68,0,4.29.25.59-.63.22-2.1-.64-2.53h0Z"/>
      <path class="cls-1" d="M20.41,141.26c-1.86,3.66-4.15,7.35-6.67,10.62,3.33-1.93,5.56-5.47,6.67-10.62Z"/>
      <path class="cls-1" d="M47.57,24.72c2.13,1.4,5.86-7.3,6.67-10.61-.34.34-.66.72-.97,1.08-.32.36-.68.7-.98,1.08l-1.41,2.64c-.14.2-.36.34-.49.54l-1.12,2.1c-.1.21-.2.4-.29.54-.25.39-.73.69-.98,1.08.37.65-.07,1.06-.43,1.56h0Z"/>
      <path class="cls-1" d="M47.57,24.71c.63,2.5.47,1.07,1.8.46,4.06-1.85,3.63-4.09,5-8.28.37-1.13,1.52-1.83-.13-2.8-.82,3.32-4.54,12.01-6.68,10.61h0Z"/>
      <path class="cls-1" d="M147.38,74.76c-.4.4-.8.78-1.11,1.14.21-.16.64-.61,1.11-1.14Z"/>
      <path class="cls-1" d="M148.93,72.43c-4.58-.62-2.95,1.34-3.72,2.21-.47.54-1,.29-1.04.33-1.6,1.56-3.43,4-6,3.38.1.58.57.93.59,1.51,4.4-3.86,3.07-.6.64,2.54l2.92-3.23c-.13-.65.37-.45.49-.54.61-.47.95-1.37,2-1.13.49-.53.99-1.07,1.46-1.61l2.62-3.33s.03-.1.04-.15h0Z"/>
      <path class="cls-1" d="M146.9,72.22l1.73-.22c-.43-.04-1.07.04-1.73.22Z"/>
      <path class="cls-1" d="M148.62,73.23c.35-.48.58-.86.54-1.01l-.28.34c-.05.23-.14.45-.26.66h0Z"/>
      <path class="cls-1" d="M141.29,79.23c-.96,1.12-2.1,1.6-1.9,3.18,2.43-3.13,3.77-6.4-.64-2.54.73-.3,1.52-.37,2.01-1.12l.53.48Z"/>
      <path class="cls-1" d="M139.65,118.91l-1.96,2.15c-.4-.27,0-.98-.03-1.02-.96,1.65-3.14,2.68-4.98,3.33l3.07-.15c.2-.1.29-.41.49-.54.5-.31,1.87-.99,2-1.13,1.24-1.32.95-1.82,1.41-2.64h0Z"/>
      <path class="cls-1" d="M137.65,120.04c-1.06-.99-4.01,2.36-4.98,3.33,1.85-.65,4.02-1.69,4.98-3.33Z"/>
      <path class="cls-1" d="M117.44,127.21l-1.47,1.61c.05.04.73-.21,1.03-.05.19-.09.28-.42.49-.54-.42-.17-.46-.73-.05-1.03Z"/>
      <path class="cls-1" d="M114.31,126.33c2.97.6,1.16,2.02,1.66,2.49l1.46-1.61c-.83-.27-1.81-1.98-3.12-.88h0Z"/>
      <path class="cls-1" d="M119.95,84.4c.04.76-.36,1.77-.39,2.59.1.2.42.29.54.49l.54.49c-.21-1.1-.44-2.29-.69-3.57Z"/>
      <path class="cls-1" d="M119.95,84.4c.25,1.28.48,2.46.69,3.57.02-.6,1.65-1.63-.69-3.57Z"/>
      <path class="cls-1" d="M78.1,133.31c-.37.06-.67.14-.93.24.27.08.58-.12.93-.24Z"/>
      <path class="cls-1" d="M20.33,131.49l-.64,1.43c5.95,0,5.04,5.11,1.34,7.91.12.02.25.12.41.38,1.43-1.88,3.71-2.34,5.18-4.11,2.26,2.36,2.23,7.03,3.56,9.09.13.2,2.17-1.69,2.3.12.03.35-1.33,2.07-1.1,3.44.14.2.24.44.29.72l1.15-1.28c-.07-.3.03-.75.26-1.35l.94,1.18c1.17-.02,3.04,0,4.97.06-.03-.51.23-1.03.79-1.06.61-.03.9.56.87,1.11,2.62.1,4.94.26,5.16.45,1.88,1.71.93,13.05-2.39,14.23l10.48,4.97-.15,1.69c1.46-3.13,3.3-2.53,5.55-.21,4.37.11,11.67,1.64,14.25,5.4.8-.45,1.6-.72,2.54-.64,1.21-2.12,5.29-1.03,5.72,1.26.17-2.79,2.72-.66,4.1-.2,1.13-1.29,1.33-2.2,2.54-.64-.08-.16.41-1.11.44-1.56-.59-.46-1.15-1.02-1.31-1.77-.4-1.78,2.06-12.23,4.16-13.28.55-3.63-.14-7.94,1.5-11.39-.69-3.04-.58-6.15-.46-9.23-2.48-.43-1.74-4.57.24-5.67l-.54-.49c-.54.87-2.35,2.57-3.17,1.89-.14-.12.19-.67.14-.71-1.51-1.36-4.17-3.01-4.36-4.93-.17-.17-.38-.31-.53-.49-.82-.94-.54-1.45-.59-1.51-.32-.35-.75-.62-1.08-.97-.63-.67-1.61-1.85-2.64-1.41,1.78,3.65,4.21,6.71,8.15,9.31.71,1.07.04,1.97-2.02,2.68-1.99,6.57-5.99.84-7.73-2.65l-1.76.9c1.25,2.32.07,1.13-.19,1.26,1.69,4.56-8.06.57-10.22-1.38-4.31-3.9-6.45-14.61-4.82-20.09.12-.42,1.01-.48,1.61-.49l-2.1-.92c-3.42,4-5.25,9.09-7.55,13.74-1.9,3.84-3.74,7.72-5.6,11.59-1.63-.93-.22-2.28-.52-3.44-.84-3.19-1.75-1.81-.96-5.73-.32-1.44-1.87-3.45-3.3-2.5-.31.2-.23.98-.37,1.14-.21.25-.4.47-.75.29-.86-.88-2.77-1.77-2.48-3.21-.49-.13-1.15-.24-1.56-.44-3.01-1.43-2.5-3.51-5.38-4.88-.36.29-4.19.62-4.6.74l-2.82,5.27c-1-.6.67-1.8-.15-3.07-.48.55-.97,1.08-1.47,1.61-.16.26-.3.46-.44.63-.38.72-.42,1.41-.48,1.47,4.9.9,3.09,6.07-2.4,5.77h-.01ZM31.6,144.05c-.35.53-1.3-.63-1.31-.71-.04-1.18,1.8-1.52,1.31.71ZM30.03,138.21c-1.12.06-1.22-1.99-.1-2.04,1.12-.06,1.22,1.99.1,2.04ZM54.03,165.83c-.14,0-1.89-1.29-2.39-1.66l3.1.35c.52.35-.63,1.31-.7,1.31h-.01ZM57.15,166.71c.2.52-1.14.63-1.55-.44-.19-.52,1.15-.63,1.55.44ZM48.78,153.23l-1.61-1.46c.84-1.63,1.52-.53,3.06-.16l-1.46,1.61h0ZM40,142.35c.2.52-1.14.63-1.55-.44-.19-.52,1.15-.63,1.55.44Z"/>
      <path class="cls-1" d="M78.1,133.31c.05-.02.09-.03.14-.04-.46.04-.84.12-1.13.25.02.01.04.03.06.04.25-.1.56-.18.93-.24h0Z"/>
      <path class="cls-1" d="M86.38,135.9c2.05-.72,2.72-1.61,2.02-2.68-3.95-2.6-6.38-5.66-8.16-9.31.11.95-.32,2.18-.17,2.82.81,3.57,7.69,6.17,7.86,7.09-3.41.63-2.79,1.64-3.9,4.3-2.23-1.8-2.25-4.34-5.38-4.87,1.73,3.5,5.73,9.22,7.73,2.65Z"/>
      <path class="cls-1" d="M92.78,138.2c.06-1.47-.06-4.57.23-5.67-1.97,1.1-2.71,5.23-.23,5.67Z"/>
      <path class="cls-1" d="M61.65,113.92c-1.62,5.49.51,16.19,4.83,20.09,2.15,1.95,11.9,5.94,10.22,1.38-.35.18-.42.92-1.36.8-.29-.04-5.36-1.56-5.63-1.69-5.56-2.63-7.16-11-7.01-16.67.03-1.13.15-3.48.57-4.4-.61.02-1.49.07-1.62.49Z"/>
      <path class="cls-1" d="M21.03,140.83c3.7-2.8,4.61-7.91-1.34-7.91l.64-1.43c5.49.3,7.3-4.88,2.4-5.77l1.71,3.52c-.6,1.02-.88-.4-1.93.01-.5.2-.89,1.12-1.1,1.16-.28.05-.7-2.04-1.12-2-.44.04-1.74,3.99-2.57,5.05-1.93,2.46-4.09,1.47-2.11,4.42.34-2.06,4.69-4.61,6.3-3.17,1.79,1.61-.6,4.77-1.5,6.54.25-.3.43-.46.61-.43h0Z"/>
      <path class="cls-1" d="M59.29,170.26c-2.25-2.32-4.08-2.92-5.55.21,1.96,1.04,1.89-1.16,2-1.12,1.51.5,4.31,4.77,4.7,1.31,1.29,3.02,1.31.94,2.92,1.37,3.62.98,6.38,2.56,10.18,3.63-2.57-3.76-9.87-5.29-14.25-5.4h0Z"/>
      <path class="cls-1" d="M76.08,175.03c1.62.13,4.02.91,5.72,1.26-.42-2.29-4.5-3.38-5.72-1.26Z"/>
      <path class="cls-1" d="M87.57,172.11c.17.75.72,1.31,1.31,1.77.27-5.15,2.09-9.93,2.86-15.06-2.1,1.05-4.56,11.5-4.17,13.28Z"/>
      <path class="cls-1" d="M43.42,163.82c3.32-1.17,4.27-12.51,2.39-14.23-.22-.19-2.54-.35-5.16-.45-.02.46-.27.9-.77.93-.56.03-.87-.47-.89-.98-1.93-.05-3.8-.08-4.97-.06l.43.54c-1.02.22-1.53.12-1.64-.37l-1.14,1.28c2.11.01,4.39.45,6.45.47,2.01.02,6.35-1.33,7.2.1.27.45-.69,9.66-1.21,10.44-1.13,1.7-2.57.76-4.11,1.43,3.34,3.78,10.47,4.89,13.74,7.56l.15-1.69-10.48-4.97h.01Z"/>
      <path class="cls-1" d="M31.67,150.48c-.05-.28-.15-.52-.3-.72.05.26.12.51.3.72Z"/>
      <path class="cls-1" d="M21.03,140.83c-.2.15-.4.3-.62.43l1.03-.05c-.16-.26-.29-.36-.42-.38h0Z"/>
      <path class="cls-1" d="M20.41,141.26c.22-.13.42-.28.62-.43-.19-.03-.37.13-.62.43Z"/>
      <path class="cls-1" d="M92.49,86.11c1.08,5.4,2.25,10.75,3.64,15.92l-3.64-15.92Z"/>
      <path class="cls-1" d="M94.36,100.78c-3.76-16.4-7.52-32.82-11.28-49.24-.45,1.16-1.27,1.79-2.77.87-.5.19-1.45,0-2.05.1.03.42-.46,1.13-.44,1.57,2.23.73,2.64,4.6.25,5.13-.12,1.14.16,2.11-.87,3.13,1.56.78,3.68,4.27,2.86,5.34,1.1.52,1.64,1.63.13,3.25,1.29,1.91,1.71,2.13,2.8,4.49.44.96.83,2.03,1.17,3.03,2.27.04,2.78,1.83.59,1.51l-.48.54c.44,1.22.37,2.63.69,3.57,2.34.06,4.07,4.41,2.36,6.06.1.29-.05.75.05,1.03.07.2.05.44.03.65.02.13.03.26.02.37.3.9.58,2.42.64,2.54l1.61-.35c1.32,2.76,2.88,4.9,4.68,6.41h.01Z"/>
      <path class="cls-1" d="M84.96,84.07c.62,1.83,1.63,3.95,2.36,6.06,1.7-1.65-.02-6-2.36-6.06Z"/>
      <path class="cls-1" d="M77.45,67.47c.28.08.63.04.95.1-.27-.15-.58-.19-.95-.1Z"/>
      <path class="cls-1" d="M94.36,100.78c-1.81-1.52-3.37-3.65-4.69-6.41l-1.61.35c.21.44,1.42,1.31,1.94,2.19,1.29,2.2,2.94,7.89,6.13,5.12l-1.56-.33c-.07-.31-.14-.62-.21-.92h0Z"/>
      <path class="cls-1" d="M77.82,54.08c.07,1.86.49,2.92.25,5.13,2.38-.53,1.98-4.4-.25-5.13Z"/>
      <path class="cls-1" d="M77.2,62.34c.34,2.09.15,3.27,2.3,5.03l-.08.08c.23.06.45.13.65.23.81-1.07-1.31-4.56-2.87-5.34h0Z"/>
      <path class="cls-1" d="M80.07,67.68c-.21.26-.59.38-1.2.27.8.91,1.12,2.69,1.32,2.99,1.51-1.62.97-2.73-.13-3.25h0Z"/>
      <path class="cls-1" d="M80.07,67.68c-.21-.1-.42-.17-.65-.23l-.4.44c-.17-.22-.39-.3-.62-.33.17.09.32.22.46.38.62.11,1,0,1.2-.27h0Z"/>
      <path class="cls-1" d="M83.08,51.54c-.03-.12-.06-.24-.09-.37l.68-3.55c-1.21,1.69-2,4.28-3.36,4.79,1.5.92,2.31.29,2.77-.87Z"/>
      <path class="cls-1" d="M83.08,51.54c3.76,16.42,7.52,32.84,11.28,49.24.56.48,1.16.9,1.77,1.25-1.39-5.18-2.56-10.52-3.64-15.92l-8.82-38.49c-.05,1.18-.15,2.8-.59,3.92Z"/>
      <path class="cls-1" d="M94.57,101.7l1.56.33c-.61-.36-1.21-.77-1.77-1.25.07.31.14.62.21.92h0Z"/>
      <path class="cls-1" d="M83.08,51.54c.44-1.12.54-2.74.59-3.92l-.68,3.55c.03.12.06.24.09.37Z"/>
      <path class="cls-1" d="M70.63,23.06c-.05.06-.07.13-.12.19.07-.07.12-.14.12-.19Z"/>
      <path class="cls-1" d="M74.44,48.07c.78-2.17,1.14-4.45,1.21-6.75.14-4.66-.86-11.42-2.33-15.83-.09-.27-.83-.6-1.07-.98.96-1.99,1.96-.17,2.63,1.41.54,1.27,1.51,5.32,1.87,6.59-.64-2.05,2.12-3.37,3.52-1.72-4.22-8.16-6.25-17.79-5.96-26.96-.69.62-1.4-.03-2.16-1.95.09.84.62,1.74.64,2.54,1.47.58,1.26,2.47-.38,2.59-.04.48.3,1.07.1,2.05l1.17,1.26c-2.28,4.29-3.11,7.13-1.62,11.86l-1.43.86c2.24.74-.19,2.75-.84,1.5-1.1,2.61-.52,5.76,1.79,9.5,1.98,4.94,2.59,9.63,1.83,14.07.3.09.93-.12,1.03-.05Z"/>
      <path class="cls-1" d="M71.55,8.42c.21.21.53.43.96.67-.44-.53-.74-.71-.96-.67Z"/>
      <path class="cls-1" d="M71.58,34.06c-2.31-3.73-2.89-6.89-1.79-9.5-.06-.11-.11-.25-.13-.42-.03-.19.59-.6.85-.89.05-.06.07-.13.12-.19-1.06-.35-3.18,2.77-3.16,3.47.05,2.6,2.3,6.19,2.93,8.63,1.05,4.14,2.26,8.79,3.01,12.96.76-4.44.15-9.13-1.83-14.07Z"/>
      <path class="cls-1" d="M73.68,10.34l-1.17-1.26c-.59,2.86-2.54,4.89-2.75,7.04-.24,2.51.96,4.65.87,6.94l1.43-.86c-1.49-4.73-.66-7.57,1.62-11.86Z"/>
      <path class="cls-1" d="M72.79,4.44c.03.75-.31,1.77-.38,2.59,1.64-.12,1.85-2.01.38-2.59Z"/>
      <path class="cls-1" d="M71.88,7.22c.17-.07.36-.11.53-.19-.21.06-.38.13-.53.19Z"/>
      <path class="cls-1" d="M76.75,32.53l3.52-1.72c-1.4-1.65-4.16-.33-3.52,1.72Z"/>
      <path class="cls-1" d="M74.31,3.85c-.76-.59-1.39-1.39-2.16-1.95.76,1.92,1.47,2.57,2.16,1.95Z"/>
      <path class="cls-1" d="M80.27,30.81c-2.12-8.94-4-17.98-5.96-26.96-.29,9.17,1.74,18.8,5.96,26.96Z"/>
      <path class="cls-1" d="M143.1,105.37l.49-.54c-.32-.12-.62-.29-.9-.49.17.33.32.68.41,1.03h0Z"/>
      <path class="cls-1" d="M138.75,102.08c.85-.25,1.68-.03,2.4.46-.88-1.59-1.09-3.57.03-4.79-.51-.51-1.11-.94-1.61-1.46-1.02-1.05-.73-1.15-1.13-2-.12-.25-.58-1.43-.59-1.51-2.25.12-2.02-2.11.44-1.56-1.04-3.5-1.38-7.77-4.62-10.06.41,3.9,1.25,7.68,2.53,11.33l-1.01,1.73c1.91,2.03.4,3.51-1.59,4.55,2.3,1.08,3.7,2.34,4.22,3.78.6-.68.91-.82.93-.46h0Z"/>
      <path class="cls-1" d="M137.82,102.54c.31-.23.62-.37.93-.46-.02-.36-.33-.22-.93.46Z"/>
      <path class="cls-1" d="M138.38,102.82c-.17-.13-.36-.23-.56-.28.18.09.37.19.56.28Z"/>
      <path class="cls-1" d="M133.6,98.77c1.99-1.04,3.5-2.52,1.59-4.55l1.02-1.73c-1.29-3.66-2.13-7.44-2.53-11.33-1.26,1.6-1.03,10.07,1.57,11.24-2.74,1.77-4.89-4.96-6.78-2.24.54,1.27,6.41,5.42,6.45,5.85.07.72-3.73,1.46-2.52,3.49,1.19,1.98,3.67,2.17,5.42,3.05-.51-1.44-1.92-2.7-4.22-3.78h0Z"/>
      <path class="cls-1" d="M141.15,102.54c-.72-.49-1.55-.7-2.4-.46,0,.17-.03.44-.15.85,1.53.75,3.07,1.49,4.5,2.44-.09-.35-.24-.7-.41-1.03-.61-.45-1.14-1.08-1.54-1.8h0Z"/>
      <path class="cls-1" d="M141.15,102.54c.63.43,1.17,1.08,1.54,1.8.29.21.58.38.9.49-1.09-2.24-1.56-4.77-2.41-7.08-1.12,1.22-.91,3.2-.03,4.79h0Z"/>
      <path class="cls-1" d="M137.85,92.77c-.12-.83-.5-.68.44-1.56-2.46-.54-2.69,1.68-.44,1.56Z"/>
      <path class="cls-1" d="M142.69,104.34c-.37-.72-.9-1.37-1.54-1.8.4.71.93,1.35,1.54,1.8Z"/>
      <path class="cls-1" d="M138.75,102.08c-.31.09-.62.23-.93.46.21.05.39.15.56.28.08.04.15.07.22.11.12-.4.16-.68.15-.85Z"/>
      <path class="cls-1" d="M62.03,15.18c.5-.45,1.02-.87,1.55-1.26-1,.42-1.9.72-2.5.82.32.15.63.26.95.44Z"/>
      <path class="cls-1" d="M69.12,11.12c.05-.21.11-.41.19-.63-.34.34-.78.69-1.27,1.04.36-.14.71-.29,1.08-.41Z"/>
      <path class="cls-1" d="M68.23,8.67c.1,0,.17,0,.26-.01,0,0,0,0,0-.01-.08,0-.17.02-.25.03Z"/>
      <path class="cls-1" d="M65.26,8.98c-3.86.43-8,1.01-11.46,1.91,2.05-.46,7.46-1.39,11.46-1.91Z"/>
      <path class="cls-1" d="M54.73,13.56c1.07-.14,2.18-.07,3.31.15-1.09-.28-2.2-.35-3.31-.15Z"/>
      <path class="cls-1" d="M70.02,9.2c0,.38-.25.83-.71,1.29-.08.21-.14.42-.19.63-.37.12-.72.27-1.08.41-1.28.9-2.98,1.78-4.46,2.4-.53.39-1.05.81-1.55,1.26-.32-.17-.63-.29-.95-.44-.19.03-.35.05-.47.04-.85-.51-1.71-.85-2.57-1.07-1.13-.23-2.24-.29-3.31-.15,1.84.03,6.42,3.38,7.6,2.99,1.39-.45,2.21-2.27,3.45-3.07,1.29-.83,3.05-.56,4.08-1.46,1.13-1,1-3.46,1.69-3.6-.05-.05-.08-.1-.12-.15-.42.4-.92.77-1.41.93h0Z"/>
      <path class="cls-1" d="M65.26,8.98c1.14-.15,2.18-.26,2.97-.32.09,0,.17-.02.25-.03,0,0,0,0,.02.01.75-.04,1.27-.02,1.36.09.07.08.09.17.12.26.39-.64.83-1.1,1.29-1.15,0-.23.21-.44.61-.63-3.97,1.56-8.8.63-13.02,1.33-1.31.22-6.34.97-5.79,2.51.13-.05.4-.11.74-.19,3.45-.9,7.59-1.47,11.45-1.91h0Z"/>
      <path class="cls-1" d="M71.26,7.85c-.45.05-.9.51-1.28,1.15.02.06.04.13.04.19.49-.16.98-.52,1.41-.93-.12-.15-.18-.29-.17-.42h0Z"/>
      <path class="cls-1" d="M58.04,13.72c.99.2,2.01.55,3.04,1.03.6-.1,1.5-.4,2.5-.82,1.36-.99,2.86-1.78,4.46-2.4.5-.35.93-.7,1.27-1.04.14-.43.32-.86.53-1.24-.5.11-.99-.02-1.35-.59-.09,0-.16,0-.26.01-.96.1-1.96.2-2.97.32-4,.51-9.41,1.44-11.46,1.91-.25.06-.5.12-.74.19,3.57-.95,5.31.79,7.99.45.93-.12,7.85-3.91,7.89-1.75,0,.4-6.73,3.51-7.15,3.61-2.96.73-3.98-2.62-7.06.18,1.11-.19,2.21-.12,3.31.15h0Z"/>
      <path class="cls-1" d="M68.04,11.52c-1.6.62-3.1,1.4-4.46,2.4,1.48-.62,3.18-1.5,4.46-2.4Z"/>
      <path class="cls-1" d="M60.6,14.78c.13,0,.29,0,.48-.04-1.04-.47-2.05-.83-3.04-1.03.86.22,1.72.56,2.56,1.07Z"/>
      <path class="cls-1" d="M69.31,10.49c.46-.47.72-.91.71-1.29-.06.02-.12.04-.18.05-.21.39-.39.81-.53,1.24Z"/>
      <path class="cls-1" d="M53.06,11.07c.24-.07.5-.12.74-.19-.33.07-.6.14-.74.19Z"/>
      <path class="cls-1" d="M69.86,8.74c-.09-.11-.61-.13-1.37-.09.37.57.85.7,1.35.59.05-.08.09-.16.14-.25-.03-.09-.05-.18-.12-.26Z"/>
      <path class="cls-1" d="M68.23,8.67c-.79.05-1.83.17-2.97.32,1.02-.11,2.01-.22,2.97-.32Z"/>
      <path class="cls-1" d="M69.98,9c-.05.08-.09.16-.14.25.06-.01.12-.03.18-.05,0-.07-.02-.13-.04-.19h0Z"/>
      <path class="cls-1" d="M72.41,7.03c-.13.24-.37.59-.68.93.27.17.54.51.78,1.12.2-.99-.15-1.57-.1-2.05Z"/>
      <path class="cls-1" d="M71.73,7.96c-.1.1-.2.2-.3.3.04.05.07.1.12.15.22-.04.51.13.96.67-.24-.61-.51-.95-.78-1.12Z"/>
      <path class="cls-1" d="M71.26,7.85c.16-.02.31.02.46.11.32-.35.57-.69.69-.93-.18.08-.36.12-.53.19-.41.18-.61.39-.62.63h0Z"/>
      <path class="cls-1" d="M71.26,7.85c0,.13.05.27.17.42.1-.1.2-.2.3-.3-.16-.09-.31-.13-.47-.11h0Z"/>
      <path class="cls-1" d="M86.44,93.26c.15,1.76.53,2.42,1.13,2-.06-.46-.48-1.02-.59-1.51l-.54-.49Z"/>
      <path class="cls-1" d="M86.44,93.25c-.78,4.04-6.33,9.38-2.72,13.78,1.72,2.09,3.94-1.49,5.01-2.22.51-.35,1.34.58,1.55.31,3.65-4.65-2.48-2.61-2.62-2.93-.59-1.29.1-5.41-.09-6.94-.61.42-.98-.24-1.13-2h0Z"/>
      <path class="cls-1" d="M93.79,158.72c.22-.49.42-.75.61-.86-.36-3.42,0-16.51.55-17.13.04-.04.09-.07.14-.11-.67.13-.8-.77-.75-1.98-1.19,2.75-.37,6.1-.57,9.29-.2,3.35-1.91,7.8.02,10.8Z"/>
      <path class="cls-1" d="M95.09,140.62c.23-.22.53-.39.87-.52-.57-.41-1.05-1.1-1.62-1.46-.05,1.21.08,2.12.75,1.98Z"/>
      <path class="cls-1" d="M94.51,158.53c-.04-.14-.08-.38-.11-.66-.19.11-.39.37-.61.86.38.06.93.68,1.57.44-.43-.17-.77-.36-.85-.63Z"/>
      <path class="cls-1" d="M95.09,140.62s-.1.07-.14.11c-.54.62-.91,13.71-.55,17.13.41-.23.75.31.96,1.3-.31-5.42.29-13.44.6-19.06-.36.31-.65.48-.87.52h0Z"/>
      <path class="cls-1" d="M95.96,140.1c-.34.13-.63.3-.87.52.22-.04.51-.21.87-.52Z"/>
      <path class="cls-1" d="M94.4,157.86c.03.28.07.53.11.66.08.27.42.46.85.63-.21-.99-.55-1.53-.96-1.3Z"/>
      <path class="cls-1" d="M55.88,109.68c.19,5.36-3,8.56-3.93,14.08l1.51-.59c1.7-3.77,4.45-7.47,6.14-11.1-2.37-1.64-2.97-3.49-1.82-5.57-.15.12-.29.21-.41.3-.82.8-1.11,2.48-1.49,2.88h0Z"/>
      <path class="cls-1" d="M57.37,106.8c.13-.08.27-.18.41-.3-.15.07-.29.18-.41.3Z"/>
      <path class="cls-1" d="M59.6,112.07c1.6-3.44.08-1.5-1.24-3.26-.44-.6-.25-1.85-.58-2.31-1.15,2.08-.54,3.93,1.82,5.57h0Z"/>
      <path class="cls-1" d="M130.34,76.17c-.08.34-.24.59-.45.79-.03.23,0,.47.02.78.41-.28.82-.51,1.22-.73-.29-.14-.57-.47-.79-.84Z"/>
      <path class="cls-1" d="M138.11,77.33c.09.19-.01.69.05,1.02,1.79-2.26,3.79-3.38,6.01-3.38-3.86-.79-6.77-.22-9.97.98.43-.05.85-.07,1.27-.04,2.06-.52,2.12.21,2.64,1.41h0Z"/>
      <path class="cls-1" d="M131.54,77.05c-.13.06-.27.02-.41-.05-.4.22-.81.45-1.22.73,2.43,1.8,3.23-1.23,5.56-1.82-.41-.03-.84-.01-1.27.04-.86.33-1.73.69-2.66,1.09Z"/>
      <path class="cls-1" d="M138.16,78.35c2.58.62,4.41-1.83,6.01-3.38-2.22,0-4.22,1.13-6.01,3.38Z"/>
      <path class="cls-1" d="M130.34,76.17c-.3.28-.41.52-.45.79.21-.2.37-.45.45-.79Z"/>
      <path class="cls-1" d="M131.13,77c1.06-.57,2.09-.93,3.07-1.05,3.2-1.21,6.12-1.77,9.97-.98-.2-.3-.22-.59-.13-.87-.75-1.42-4.24-.81-5.35-.67-3.04.38-5.95,2.09-8.35,2.74.22.36.5.7.79.84Z"/>
      <path class="cls-1" d="M131.13,77c.14.07.28.1.41.05.93-.41,1.8-.77,2.66-1.09-.98.12-2.01.48-3.07,1.05h0Z"/>
      <path class="cls-1" d="M144.17,74.97c.05-.36-.01-.64-.13-.87-.09.28-.07.57.13.87Z"/>
      <path class="cls-1" d="M83.73,80.02c-.55-1.53-.8-3.19-1.77-4.54-.2-.2-.19-.62-.27-.93-.11-.11-.23-.22-.33-.34-.06,0-.13,0-.22.03,0,1.8.42,3.61,0,5.4.86,1.93,1.19,4.32,1.08,6.77.36-1.06.91-1.91,1.71-2.28.02-1.11-.88-2.72-.2-4.11Z"/>
      <path class="cls-1" d="M81.62,90.38c-.23.91-.5,1.8-.85,2.64l1.03-.05c-.12-.67-.19-1.59-.18-2.59h0Z"/>
      <path class="cls-1" d="M82.21,86.4c.12-2.45-.21-4.84-1.07-6.77-.4,1.68-1.27,3.37-2.33,4.75l2.26-.88c-.4,3.17-.31,6.35-.3,9.53.35-.84.62-1.73.85-2.64.01-1.32.18-2.78.59-3.98Z"/>
      <path class="cls-1" d="M81.8,92.97c-.05.23-.07.49-.07.74.05-.18.07-.42.07-.74Z"/>
      <path class="cls-1" d="M82.21,86.4c-.41,1.2-.58,2.65-.59,3.98.33-1.3.53-2.65.59-3.98Z"/>
      <path class="cls-1" d="M82.21,86.4c-.06,1.33-.27,2.68-.59,3.98,0,1,.06,1.92.18,2.59.68-3.11,2.08-5.5,2.13-8.85-.8.37-1.35,1.22-1.71,2.28h0Z"/>
      <path class="cls-1" d="M81.36,74.2c.1.12.22.23.33.34-.05-.19-.13-.34-.33-.34Z"/>
      <path class="cls-1" d="M143.46,112.55c-1.49-.78-.71-2.69.48-3.27-.16-.53-.08-1.24.29-1.91-.77.91-1.54,1.03-2.22.73.97,2.09.81,4.47-1.58,5.63,1.48.7,2.06-.25,3.03-1.18h0Z"/>
      <path class="cls-1" d="M142.01,108.1c-.86-.38-1.58-1.43-1.99-2.58l-.79.29c2.19,1.83,2.06,5.48,1.2,7.92,2.39-1.16,2.55-3.54,1.57-5.63h0Z"/>
      <path class="cls-1" d="M144.23,107.37c-.71-.5-3.02-.75-4.21-1.85.84.7,1.53,1.61,1.99,2.58.68.3,1.45.18,2.22-.73Z"/>
      <path class="cls-1" d="M142.01,108.1c-.46-.97-1.16-1.88-1.99-2.58.41,1.15,1.13,2.2,1.99,2.58Z"/>
      <path class="cls-1" d="M143.94,109.27c.63-.31,1.37-.25,1.95.58-.54-.82-.6-1.74-1.66-2.49-.37.67-.45,1.38-.29,1.91Z"/>
      <path class="cls-1" d="M145.29,110.05c-.73.14-1.18-.21-1.35-.77-1.19.58-1.97,2.5-.49,3.28.34-.33.69-1.93,1.84-2.51h0Z"/>
      <path class="cls-1" d="M143.94,109.27c.17.56.62.91,1.35.77.19-.09.38-.16.6-.19-.58-.83-1.32-.89-1.95-.58h0Z"/>
      <path class="cls-1" d="M84.35,123.7c.36.33.71.66,1.07.98.19.16.36.33.54.49.37.31.72.65,1.08.97,1.08.96,2.11,2.01,3.23,2.93.7.57,3.2,0,2.2,2.98.26-.14.42-.17.51-.12-.05-.87-.19-1.69-.58-2.66-2.88-1.44-6.47-4.33-7.62-7.14l-.97,1.08.54.49h0Z"/>
      <path class="cls-1" d="M92.4,129.27c.39.96.53,1.79.59,2.66.12.06.13.26.03.6.84-3.11,1.87-2.16,4.48-2.79-1.75-3.17-3.59-.34-5.46-1.21-2.17-1.01-5.05-4.7-7.25-6.4,1.14,2.81,4.74,5.7,7.61,7.13Z"/>
      <path class="cls-1" d="M92.47,132.04l.54.49c0-.21,0-.4-.03-.6-.09-.05-.26-.02-.51.12h0Z"/>
      <path class="cls-1" d="M92.98,131.93c0,.2.03.4.03.6.11-.35.09-.54-.03-.6Z"/>
      <path class="cls-1" d="M58.81,18.24c-2.85.33-3.26,3.48-5.13,5.14-.05,1.69,8.5.61,5.13-5.14Z"/>
      <path class="cls-1" d="M81.96,75.47c.06.05.74-.16,1.03-.05-.41-.19-.78-.42-1.11-.7.04.22.07.45.08.75h0Z"/>
      <path class="cls-1" d="M81.05,73.79c-.49-.76-.78-1.71-.86-2.85.43,2.84-1.65,5.8-2.12,8.85l3.07-.16c-2.07-.77-1.03-5.09-.09-5.84h0Z"/>
      <path class="cls-1" d="M81.88,74.73c.32.27.69.51,1.11.7-1.09-2.36-1.51-2.58-2.79-4.49l.94,2.81c.31-.17.59.07.74.99h0Z"/>
      <path class="cls-1" d="M81.14,73.74l-.94-2.81c.07,1.14.36,2.09.85,2.85.03-.02.06-.03.09-.04Z"/>
      <path class="cls-1" d="M81.14,74.24c.09-.03.16-.03.22-.03-.08-.1-.16-.21-.23-.31-1.3,1.22-1.42,4.27,0,5.74.42-1.79,0-3.6,0-5.4Z"/>
      <path class="cls-1" d="M81.69,74.55c.08.3.07.72.27.93-.01-.29-.05-.53-.08-.75-.07-.06-.13-.12-.19-.18Z"/>
      <path class="cls-1" d="M81.13,73.89s-.05-.07-.08-.11c-.94.75-1.98,5.08.09,5.84-1.43-1.46-1.3-4.52,0-5.74h0Z"/>
      <path class="cls-1" d="M81.88,74.73c-.15-.92-.43-1.16-.74-.99l.03.1s-.02.03-.04.05c.07.11.15.21.23.31.19,0,.28.15.33.34.06.06.12.12.19.18h0Z"/>
      <path class="cls-1" d="M81.14,73.74s-.06.02-.09.04c.03.04.06.07.08.11,0-.01.03-.03.04-.05l-.03-.1h0Z"/>
      <path class="cls-1" d="M119.75,80.29c-.08.21-.39.33-.49.54.59-.54,1.17-1.05,1.74-1.52-.42.31-.84.64-1.25.98Z"/>
      <path class="cls-1" d="M124.67,75.93l.28.99c-.28.14-.56.29-.83.44.63-.25,1.28-.41,1.97-.45-.61-.27-1.13-.62-1.42-.98Z"/>
      <path class="cls-1" d="M129.04,77.38c.28.1.57.22.87.35-.31-.15-.53-.28-.72-.4-.05.01-.09.03-.15.04h0Z"/>
      <path class="cls-1" d="M130.01,79.78c.74-.55-.05-1.26-.1-2.04-.3-.14-.59-.25-.87-.35-.88.2-2.02-.04-2.95-.46-.69.04-1.34.2-1.97.45-1.08.58-2.12,1.22-3.12,1.95-.57.47-1.15.98-1.74,1.52,2.19-.25,3.92-2.86,6.27-3.11,1.81-.19,3.21.87,4.48,2.05h0Z"/>
      <path class="cls-1" d="M130.34,76.17c-2.19.6-3.76-.2-5.67-.24.29.36.81.71,1.42.98.91-.06,1.88.08,2.95.46.06-.01.1-.03.15-.04-.98-.61-.45-.79,1.15-1.17h0Z"/>
      <path class="cls-1" d="M129.04,77.38c-1.07-.39-2.04-.52-2.95-.46.93.42,2.07.66,2.95.46Z"/>
      <path class="cls-1" d="M124.67,75.93c-1.79,1.34-4.08,2.13-4.92,4.36.41-.34.83-.66,1.26-.98,1.02-.83,2.03-1.52,3.11-1.95.28-.15.55-.3.83-.44l-.27-.99h0Z"/>
      <path class="cls-1" d="M124.12,77.37c-1.08.42-2.09,1.11-3.12,1.95,1-.72,2.04-1.37,3.12-1.95Z"/>
      <path class="cls-1" d="M129.89,76.96c-.19.18-.43.3-.7.38.19.12.41.24.72.4-.03-.31-.05-.55-.02-.78Z"/>
      <path class="cls-1" d="M129.19,77.34c.27-.08.51-.2.7-.38.04-.26.15-.51.45-.79-1.61.38-2.13.56-1.15,1.17Z"/>
      <path class="cls-1" d="M109.72,129.02c.64.02,1.24.2,1.66.55,2.74-3.06.81-1.42-.59-1.51-.19.38-.57.7-1.07.97Z"/>
      <path class="cls-1" d="M106.59,129.74c.17.22.26.6.26,1.12.07-.5.32-.9.7-1.19-.33.04-.65.07-.96.07Z"/>
      <path class="cls-1" d="M104.68,129.38l-.48.54c.36-.16.69-.27.98-.36-.17-.05-.35-.1-.5-.18Z"/>
      <path class="cls-1" d="M106.59,129.74c.31,0,.63-.02.96-.07.56-.45,1.39-.67,2.17-.65.5-.26.89-.59,1.07-.97-2.91-.2-2.99-.43-6.1,1.33.14.08.32.13.49.18.66-.18,1.14-.17,1.41.17h0Z"/>
      <path class="cls-1" d="M105.18,129.56c.41.12.89.18,1.41.17-.28-.34-.76-.36-1.41-.17Z"/>
      <path class="cls-1" d="M106.59,129.74c-.52,0-1-.05-1.41-.17-.29.08-.62.2-.98.36.9.43,1.75.96,2.64,1.41-.02-.17-.01-.32,0-.47,0-.53-.09-.9-.27-1.12h.01Z"/>
      <path class="cls-1" d="M109.72,129.02c-.61.33-1.39.54-2.17.65-.38.3-.63.7-.7,1.19,0,.15,0,.29,0,.47,1.63-.57,2.98-.95,4.54-1.77-.41-.35-1.02-.53-1.66-.55h0Z"/>
      <path class="cls-1" d="M106.84,131.33c0-.18,0-.32,0-.47-.02.15-.03.31,0,.47Z"/>
      <path class="cls-1" d="M107.54,129.67c.79-.11,1.57-.32,2.18-.65-.78-.03-1.61.19-2.18.65Z"/>
      <path class="cls-1" d="M65.74,85.53c.03,1.19-1.59,2.28-.62,3.11l3.32-3.75-4.75-4.39c-.49,1.53,2.01,3.37,2.05,5.03h0Z"/>
      <path class="cls-1" d="M75.95,47.49c-.24.39-.85.75-.97,1.08,1.59.8,1.81,2.75.66,5.85l1.15-.28c-.14-2.21.82-4.79-.84-6.64Z"/>
      <path class="cls-1" d="M74.98,48.56c2.24,3.25-1.71,5.48.09,6.93,1.36,1.09,1.53-1.09,1.72-1.36l-1.15.28c1.15-3.1.93-5.05-.66-5.85Z"/>
      <path class="cls-1" d="M138.83,119.09c.3-.15.58-.22.82-.18.8-1.39,1.72-2.44,1.85-4.21-.88.17-1.4.44-1.87.87-.29.4-.64.83-1.1,1.33.97.38.85,1.4.3,2.19h0Z"/>
      <path class="cls-1" d="M138.53,116.91c-.33.84,0,2.26-.88,3.13.43-.45.83-.76,1.18-.94.55-.78.67-1.8-.3-2.19h0Z"/>
      <path class="cls-1" d="M138.53,116.91c.46-.5.81-.93,1.1-1.33-.35.34-.68.76-1.1,1.33Z"/>
      <path class="cls-1" d="M137.69,121.06l1.96-2.15c-.24-.04-.52.03-.82.19-.3.43-.73.8-1.18.94.05.04-.36.75.04,1.02h0Z"/>
      <path class="cls-1" d="M138.83,119.09c-.36.18-.75.49-1.18.94.46-.14.88-.51,1.18-.94Z"/>
      <path class="cls-1" d="M93.23,139.67c-.2-.23-.36-.72-.45-1.47.14.74.26,1.51.36,2.28.02-.29.04-.57.09-.81Z"/>
      <path class="cls-1" d="M93.35,145.2c-.02.74-.05,1.48-.11,2.24l.54.49c-.14-.65-.3-1.64-.43-2.73Z"/>
      <path class="cls-1" d="M93.23,139.67c.06-.34.14-.64.24-.87.07-.16.43-.18.87-.17-.37-.23-1.11-.23-1.56-.44.09.75.25,1.24.45,1.47h0Z"/>
      <path class="cls-1" d="M93.23,147.44c.06-.76.1-1.5.12-2.24-.19-1.57-.31-3.34-.21-4.72-.09-.78-.21-1.54-.36-2.28-.13,3.09-.24,6.19.45,9.23Z"/>
      <path class="cls-1" d="M93.23,139.67c-.04.25-.07.53-.09.81.18,1.51.24,3.08.2,4.72.14,1.09.29,2.07.43,2.73.2-3.19-.62-6.54.57-9.29-.4,1.09-.8,1.39-1.11,1.03Z"/>
      <path class="cls-1" d="M93.48,138.8c-.11.23-.19.53-.25.87.31.35.71.06,1.11-1.03-.44-.01-.79.01-.86.17Z"/>
      <path class="cls-1" d="M93.14,140.48c-.11,1.38.02,3.15.2,4.72.04-1.64-.02-3.21-.2-4.72Z"/>
      <path class="cls-1" d="M68.52,94.65l6.02,7.41-2.1-4.78-3.92-2.64Z"/>
      <path class="cls-1" d="M53.44,29.05l3.14-4c-2.11-.33-5.51,2.19-3.14,4Z"/>
      <path class="cls-1" d="M109.28,108.07c-.84.99,1.03,5.11,1.28,5.07,2.72-.49-.02-4.54-1.28-5.07Z"/>
      <path class="cls-1" d="M83.33,121.75c-.58-.22-1.18-.51-1.81-.9.07.13.12.27.14.42l2.15,1.95c-.76-.88-.87-1.38-.48-1.47h0Z"/>
      <path class="cls-1" d="M81.52,120.84c.63.39,1.23.69,1.81.9.27-.06.76.06,1.46.39-1.69-1.3-2.76-1.73-4.75-2.34.77.27,1.26.61,1.48,1.04h0Z"/>
      <path class="cls-1" d="M83.81,123.21l.97-1.08c-.46-.06-.95-.2-1.45-.39-.4.09-.29.59.48,1.47Z"/>
      <path class="cls-1" d="M83.33,121.75c.5.19.99.33,1.46.39-.7-.33-1.19-.45-1.46-.39Z"/>
      <path class="cls-1" d="M81.52,120.84c-.48-.3-.97-.64-1.48-1.04l1.61,1.46c-.01-.15-.06-.29-.13-.42h0Z"/>
      <path class="cls-1" d="M80.04,119.8c.51.4,1,.74,1.48,1.04-.22-.43-.71-.77-1.48-1.04Z"/>
      <path class="cls-1" d="M66.34,29.95c.73.22-.62-4.07-1.23-4.04-1.62.09-.27,3.68,1.23,4.04Z"/>
      <path class="cls-1" d="M74.44,48.07c-.01.23-.03.41-.06.57.19.01.38,0,.6-.08-.12-.17-.38-.36-.54-.49h0Z"/>
      <path class="cls-1" d="M74.37,48.64c-.16.82-.62.66-.96-.51.17.93-.67,2.99.2,4.1,1.58-1.35.65-1.8,1.37-3.66-.22.08-.42.09-.61.08Z"/>
      <path class="cls-1" d="M74.37,48.64c.04-.16.06-.34.07-.57-.1-.07-.73.14-1.03.05.28.33.6.49.96.51h0Z"/>
      <path class="cls-1" d="M74.38,48.64c-.36-.02-.69-.19-.97-.51.34,1.18.8,1.33.97.51Z"/>
      <path class="cls-1" d="M80.77,93.02c0,1.27-.56,2.85.2,4.1,1.08-.79.74-2.18.76-3.41-.16.58-.57.35-.96-.69Z"/>
      <path class="cls-1" d="M81.8,92.97l-1.03.05c.35.36.69.34,1.03-.05Z"/>
      <path class="cls-1" d="M80.77,93.02c.39,1.04.8,1.27.96.69,0-.26.02-.51.07-.74-.34.39-.68.41-1.03.05Z"/>
      <path class="cls-1" d="M63.09,113.01c-.01-.21.2-.25.67-.12-.38-.22-.74-.39-1.1-.53.16.19.31.41.43.65h0Z"/>
      <path class="cls-1" d="M61.38,112.03c-.05,0-.1,0-.15,0,.02.11,0,.25-.07.48.06-.21.13-.36.22-.48Z"/>
      <path class="cls-1" d="M63.09,113.01c.07.14.13.28.18.42.07-.17.32-.35.49-.54-.47-.14-.68-.09-.67.12h0Z"/>
      <path class="cls-1" d="M61.23,112.02s.1,0,.15,0c.33-.43.85-.17,1.28.33.36.14.72.31,1.1.53-.64-.69-2.02-2.98-2.21-2.97-.54.01-.7,1.71-.92,2.1.37-.22.56-.2.6,0h0Z"/>
      <path class="cls-1" d="M63.09,113.01c-.12-.23-.27-.45-.43-.65-.44-.17-.86-.29-1.28-.33-.09.11-.16.26-.22.48l2.1.93c-.12-.19-.17-.32-.17-.42h0Z"/>
      <path class="cls-1" d="M61.38,112.03c.42.04.84.16,1.28.33-.43-.5-.95-.76-1.28-.33Z"/>
      <path class="cls-1" d="M63.27,113.43c-.05-.14-.11-.28-.18-.42,0,.1.05.23.18.42Z"/>
      <path class="cls-1" d="M61.23,112.02c-.2-.01-.41-.02-.6,0l.53.49c.08-.23.09-.37.07-.48Z"/>
      <path class="cls-1" d="M60.63,112.02c.19-.02.39,0,.6,0-.04-.21-.23-.22-.6,0Z"/>
      <path class="cls-1" d="M76.38,66.5c-.63.1-1.74,3.47-.88,3.12.42-.29.97-1.11,1.41-1.65-1.75,1.53-1.87.55-.31-.73.13-.11.46.03.85.24-.33-.09-.84-1.01-1.07-.97Z"/>
      <path class="cls-1" d="M76.6,67.23c-1.56,1.28-1.44,2.27.31.73.22-.26.41-.46.54-.5-.38-.21-.72-.34-.85-.24Z"/>
      <path class="cls-1" d="M86.98,93.74c.12-.52.35-1.04.44-1.56-.03-.09-.03-.21-.02-.35v-.05c-.03-.21-.07-.43-.03-.63-.49,0-.5-.33-.05-1.02l-.98,1.08c.79.45.72,1.55.1,2.05.53-.27.7-.1.54.49h0Z"/>
      <path class="cls-1" d="M86.34,91.2c-.13.9.14,1.85.1,2.05.62-.5.68-1.6-.1-2.05Z"/>
      <path class="cls-1" d="M87.37,91.15c-.09-.27.05-.73-.05-1.02-.46.69-.44,1.03.05,1.02Z"/>
      <path class="cls-1" d="M86.44,93.25l.54.49c.16-.59-.01-.76-.54-.49Z"/>
      <path class="cls-1" d="M49.74,27.66l-.51-.46.05,1.02c.1-.28.27-.47.45-.57h0Z"/>
      <path class="cls-1" d="M50.85,28.67c.51-2.15.27-2.02-1.62-1.46l.51.46c.51-.29,1.18.06,1.11,1.01Z"/>
      <path class="cls-1" d="M49.28,28.23c.4,0,1.11.3,1.57.44l-1.11-1.01c-.19.11-.35.29-.45.57h-.01Z"/>
      <path class="cls-1" d="M49.74,27.66l1.11,1.01c.07-.94-.6-1.3-1.11-1.01Z"/>
      <path class="cls-1" d="M136.98,76.51c-.13-.07-.26-.13-.39-.19.05.14.05.31-.04.57.14-.23.28-.35.43-.38h0Z"/>
      <path class="cls-1" d="M136.59,76.33c-.35-.16-.71-.3-1.12-.41.39.26.71.78,1.08.98.09-.25.09-.43.04-.57Z"/>
      <path class="cls-1" d="M136.59,76.33c.13.06.26.12.39.19.36-.08.75.34,1.13.81-.52-1.2-.57-1.94-2.64-1.41.58.04,1.01.1,1.13.41h0Z"/>
      <path class="cls-1" d="M135.47,75.92c.41.11.77.25,1.12.41-.11-.31-.54-.37-1.12-.41Z"/>
      <path class="cls-1" d="M136.98,76.51c-.15.03-.29.14-.43.38.43.23,1.08.24,1.56.44-.36-.33-.73-.59-1.13-.81h0Z"/>
      <path class="cls-1" d="M136.98,76.51c.4.22.77.48,1.13.81-.38-.47-.77-.9-1.13-.81Z"/>
      <path class="cls-1" d="M141.5,114.7c.89-.17,1.33.76,2.11.92-.56-.39-.65-.67-.05-1.03-.54.08-.83-.03-.89-.3-.65.45-1.58.26-2.24-.57.04.28-.07.66-.31,1.1.44-.26.9-.33,1.38-.13h0Z"/>
      <path class="cls-1" d="M140.12,114.83c.23-.44.36-.82.31-1.1-.17.47-1.25,1.48-1.9,3.18.49-1.08,1.02-1.75,1.59-2.08Z"/>
      <path class="cls-1" d="M143.61,115.63c.11-.29-.08-.72-.05-1.03-.59.36-.51.64.05,1.03Z"/>
      <path class="cls-1" d="M143.46,112.55c-.04.88-.36,1.45-.79,1.75.06.27.35.38.89.3.06-.67-.12-1.38-.1-2.05Z"/>
      <path class="cls-1" d="M142.67,114.3c-.08-.33.17-.91.79-1.75-.97.93-1.55,1.88-3.03,1.18.66.84,1.59,1.02,2.24.57Z"/>
      <path class="cls-1" d="M143.46,112.55c-.62.85-.87,1.42-.79,1.75.44-.3.76-.87.79-1.75Z"/>
      <path class="cls-1" d="M140.12,114.83c-.12.23-.29.48-.49.75.47-.43.99-.71,1.87-.87-.48-.2-.94-.13-1.38.13h0Z"/>
      <path class="cls-1" d="M139.63,115.58c.2-.27.37-.52.49-.75-.57.33-1.1.99-1.59,2.08.42-.57.75-.99,1.1-1.33Z"/>
      <path class="cls-1" d="M69.09,64.79l1.94-2.15-.52-.48-1.95,2.15.53.48Z"/>
      <path class="cls-1" d="M97.11,133.81c.08-.08.28-.07.6.03-.53-.83-.73-.83-.6-.03Z"/>
      <path class="cls-1" d="M97.11,133.81c-.13-.8.07-.8.6.03.45-1.52-.72-1.96-1.56-.44.37.29.71.78,1.07.98-.17-.3-.21-.48-.11-.57Z"/>
      <path class="cls-1" d="M97.11,133.81c.02.16.06.34.11.57l.49-.54c-.32-.1-.51-.11-.6-.03Z"/>
      <path class="cls-1" d="M97.22,134.38c-.05-.23-.09-.41-.11-.57-.1.08-.06.27.11.57Z"/>
      <path class="cls-1" d="M104.06,129.44c-.48.09-.44.24.14.48-.13-.23-.16-.37-.14-.48Z"/>
      <path class="cls-1" d="M104.06,129.44c.04-.16.23-.19.63-.06-2.66-1.11-3.75-1.03-.49.54-.58-.23-.62-.39-.14-.48h0Z"/>
      <path class="cls-1" d="M104.06,129.44c-.02.1,0,.25.14.48l.49-.54c-.27.01-.47.03-.63.06h0Z"/>
      <path class="cls-1" d="M104.06,129.44c.16-.03.36-.05.63-.06-.4-.13-.59-.1-.63.06Z"/>
      <path class="cls-1" d="M117.9,127.51c.08-.03.16-.05.25-.06-.22-.07-.45-.14-.72-.24.26.07.39.18.47.3h0Z"/>
      <path class="cls-1" d="M119,127.65c.44-1.46-1.26-.34-1.56-.44.26.1.49.18.71.24.28-.03.59.03.85.19Z"/>
      <path class="cls-1" d="M117.9,127.52c-.08-.12-.21-.24-.46-.31-.41.3-.36.86.05,1.03-.07-.37.12-.61.41-.72h0Z"/>
      <path class="cls-1" d="M118.15,127.45c-.09,0-.17.03-.25.06.14.23.02.5-.41.72.44-.26,1.04-.35,1.51-.59-.23-.02-.52-.09-.85-.19h0Z"/>
      <path class="cls-1" d="M118.15,127.45c.33.1.62.17.85.19-.27-.16-.58-.22-.85-.19Z"/>
      <path class="cls-1" d="M117.9,127.52c-.29.11-.47.35-.41.72.43-.22.55-.49.41-.72Z"/>
      <path class="cls-1" d="M112.19,129.03c.25-.1.48-.11.71-.05,0-.26.02-.49.02-.69-.16.23-.4.48-.73.74Z"/>
      <path class="cls-1" d="M111.38,127.69c.46-.26.84-.39,1.13-.43-.24-.03-.6.12-1.13.43Z"/>
      <path class="cls-1" d="M112.51,127.26c.7-.1.86.38.41,1.03,0,.2-.01.43-.02.69.08-.07.67-1.47,1.18-1.84-1.85-.33-2.08-1.04-3.29.92.21-.14.4-.26.59-.36.53-.31.89-.46,1.13-.43Z"/>
      <path class="cls-1" d="M112.19,129.03c-.23.18-.49.36-.81.54.3-.15.78.02,1.52-.59-.22-.06-.46-.04-.71.05Z"/>
      <path class="cls-1" d="M111.38,129.57c.29-.26.56-.44.81-.54.33-.26.56-.51.73-.74,0-.68-.12-.99-.42-1.02-.28.04-.66.17-1.13.43-.17.1-.36.22-.58.36,1.4.1,3.32-1.55.59,1.51h0Z"/>
      <path class="cls-1" d="M110.79,128.05c.22-.14.41-.25.59-.36-.19.1-.38.22-.59.36Z"/>
      <path class="cls-1" d="M112.51,127.26c.29.04.41.35.41,1.03.45-.65.3-1.12-.41-1.03Z"/>
      <path class="cls-1" d="M111.38,129.57c.31-.18.58-.36.81-.54-.25.1-.53.27-.81.54Z"/>
      <path class="cls-1" d="M135.72,107.02c.49-2.23-1.36-1.89-1.31-.71,0,.07.95,1.24,1.31.71Z"/>
      <path class="cls-1" d="M80.31,104.36c0,.07.95,1.24,1.31.71.49-2.23-1.35-1.89-1.31-.71Z"/>
      <path class="cls-1" d="M94.74,136.05c.62.88.85.13,1.5-.59-.51.27-.76.4-.76.4,0,0,.26-.13.76-.4-.14.11-1.19-.18-1.5.59Z"/>
      <path class="cls-1" d="M136.78,79.94v.03s.02-.01.03-.01c-.01,0-.02-.01-.03-.02Z"/>
      <path class="cls-1" d="M136.22,79.03c-.09.07-.28.06-.6-.03.26.04.48.12.67.22-.03-.06-.05-.12-.07-.19Z"/>
      <path class="cls-1" d="M136.22,79.03c-.05-.18-.1-.37-.11-.57-.08.19-.35.32-.48.54.31.09.5.1.6.03h-.01Z"/>
      <path class="cls-1" d="M136.78,79.97c-.05.19-.21.38-.57.54.75.32,1.34.18,2.06-.1-.59.06-1.09-.12-1.46-.45-.01,0-.02,0-.03.01h0Z"/>
      <path class="cls-1" d="M136.78,79.97s0-.02.01-.03c-.22-.2-.39-.44-.5-.73-.19-.1-.42-.18-.67-.22.58.43.48.96.59,1.51.09-.32.29-.49.57-.54h0Z"/>
      <path class="cls-1" d="M136.78,79.97c-.28.05-.48.21-.57.54.36-.16.52-.35.57-.54Z"/>
      <path class="cls-1" d="M136.22,79.03c.02.06.04.13.07.19.35.19.55.46.5.73,0,0,0,.01.02.02.35-.04.83.1,1.46.45l-2.16-1.95c.2.31.23.49.11.57Z"/>
      <path class="cls-1" d="M136.11,78.45c0,.2.06.39.11.57.12-.08.09-.26-.11-.57Z"/>
      <path class="cls-1" d="M136.81,79.96c.38.32.87.5,1.46.45-.63-.35-1.11-.49-1.46-.45Z"/>
      <path class="cls-1" d="M136.29,79.21c.11.29.28.53.5.73.05-.27-.15-.54-.5-.73Z"/>
      <path class="cls-1" d="M86.34,91.2l.49-.54c-.4.05-.49.12-.49.54Z"/>
      <path class="cls-1" d="M86.83,90.66c-1.12-.33-.44.21-.49.54,0-.42.09-.49.49-.54Z"/>
      <path class="cls-1" d="M113.92,128.93l1.03-.05c-.35-.07-.69.03-1.03.05Z"/>
      <path class="cls-1" d="M48.2,47.83c-1.06.81-.87,2.42-.35,3.61.07-.05.11-.11.16-.16.05-.76.22-1.57.52-2.43-.08-.36-.19-.7-.33-1.02h0Z"/>
      <path class="cls-1" d="M48.53,48.85c-.3.86-.47,1.67-.52,2.43.62-.61.71-1.54.52-2.43Z"/>
      <path class="cls-1" d="M51.53,104.75c.01.23,1.19,2.16,1.67,2.49.67-1.27-.1-2.29-1.19-3.01-.13.2-.48.38-.48.53Z"/>
      <path class="cls-1" d="M44.3,83.51c-1.09.05-1.04,2.1.1,2.05,1.15-.06.99-2.1-.1-2.05Z"/>
      <path class="cls-1" d="M10.12,120.18c-.97.35-.84,2.66-.4,2.58.97-.35.84-2.66.4-2.58Z"/>
      <path class="cls-1" d="M56.57,87.27c.49-2.23-1.36-1.89-1.31-.71,0,.07.95,1.24,1.31.71Z"/>
      <path class="cls-1" d="M44.52,82.73c-.62-.49-.7.81-.22.78.23-.01.42-.63.22-.78Z"/>
      <path class="cls-1" d="M11.28,133.76c.18-.1.35-.22.53-.31-.19-.04-.36-.13-.51-.25.07.19.05.38-.02.56h0Z"/>
      <path class="cls-1" d="M11.81,133.45c-.18.1-.35.21-.53.31-.19.47-.84.93-1.97,1.36,2.8-.37,3.67-.8,5.52-2.85-1.27.96-2.27,1.34-3.02,1.17h0Z"/>
      <path class="cls-1" d="M11.28,133.76c-.7.4-1.37.85-1.97,1.36,1.13-.43,1.78-.89,1.97-1.36Z"/>
      <path class="cls-1" d="M11.3,133.2c-.23-.17-.42-.4-.58-.72-.3.39-.86,1.79-1.41,2.64.6-.51,1.27-.96,1.97-1.36.07-.19.09-.37.02-.56h0Z"/>
      <path class="cls-1" d="M10.72,132.48c.3.24.49.48.58.72.15.12.32.2.51.25.93-.48,1.93-.87,3.02-1.17-1.36.43-2.89.11-4.11.2Z"/>
      <path class="cls-1" d="M11.3,133.2c-.09-.23-.28-.47-.58-.72.16.32.35.55.58.72Z"/>
      <path class="cls-1" d="M14.83,132.28c-1.09.3-2.09.69-3.02,1.17.75.18,1.75-.21,3.02-1.17Z"/>
      <path class="cls-1" d="M7.9,137.77c-.01-1.17.52-1.89,1.41-2.64-1.77.07-1.72,1.09-1.41,2.64Z"/>
      <path class="cls-1" d="M6.78,135.77c.95.46.64,1.6,1.12,2-.31-1.55-.35-2.57,1.41-2.64-.82.11-1.83-.83-2.53.64h0Z"/>
      <path class="cls-1" d="M7.9,137.77c.65-.98.89-1.86,1.41-2.64-.88.76-1.42,1.47-1.41,2.64Z"/>
      <path class="cls-1" d="M6.54,136.54c-.77-1.44-2.26.52-2.25.89,0,1.04,3.37,1.21,2.25-.89Z"/>
      <path class="cls-1" d="M20.73,126.85l-2,1.13c.52-.26,1.56-.05,2-1.13Z"/>
      <path class="cls-1" d="M18.73,127.97l2-1.13c-.49.27-1.58.14-2,1.13Z"/>
      <path class="cls-1" d="M7.37,144.7l2.02-.37c3.2,2.83,5.12-2.66,1.24-3.26l-.42-1.67c-.8.06-1.39-.07-1.78-.38.02.99-.62,2.14-1.46,2.76.87.55,1.08,2.08.39,2.92h0Z"/>
      <path class="cls-1" d="M7.9,137.77c0,.57.19.98.53,1.25,0-.49-.16-.93-.53-1.25Z"/>
      <path class="cls-1" d="M8.43,139.02c.39.31.98.44,1.79.38l.42,1.67c3.87.59,1.95,6.09-1.24,3.26l-2.03.37c-.41.5-1.11.75-2.2.4.08.02.16,1.1.85,1.26,1.08.25,2.21-.8,3.21-.63.88.15,1.46,1.6,2.43,1.4,1.78-.36,3.46-5.76,2.75-7.37-.97-2.22-1.62,2.85-2.51.64-.51-1.25-.23-3.19.8-4.14-1.4-.34-3.6,2.53-4.8,1.51.37.32.53.77.53,1.25h0Z"/>
      <path class="cls-1" d="M6.97,141.77c.85-.62,1.48-1.76,1.46-2.76-.33-.27-.52-.69-.53-1.25-.65.96-2.33,3.73-2.88,4.26.82-.55,1.48-.54,1.95-.25h0Z"/>
      <path class="cls-1" d="M88.97,177.54c.81.35,1.17.15,1.09-.58.19.9-3.45-.64-4.15-.88-1.64-.24-3.01-.17-4.11.2,2.09-.36,4.48.06,7.17,1.25Z"/>
      <path class="cls-1" d="M88.45,175.44c.22.45,1.21.93,1.6,1.46-.07-.63-.45-1.63-1.16-3.03.68,1.36.53,1.88-.44,1.56Z"/>
      <path class="cls-1" d="M90.05,176.91s.01.03.01.05c.07.72-.28.93-1.09.58-2.69-1.19-5.08-1.61-7.17-1.25,3.56.73,7.06,1.8,10.66,2.3l-3.57-4.7c.71,1.4,1.09,2.4,1.16,3.03h.01s-.01,0-.01,0Z"/>
      <path class="cls-1" d="M85.91,176.08c-1.39-.46-3.93-2.58-4.11.2,1.1-.38,2.47-.44,4.11-.2Z"/>
      <path class="cls-1" d="M88.88,173.88c-.02.45-.51,1.41-.43,1.56.97.31,1.12-.21.43-1.56Z"/>
      <path class="cls-1" d="M73.55,175.67c.77.22,1.82,1.03,2.64,1.4l.47-.52-.58-1.52c.11.92-.73,1.13-2.53.64Z"/>
      <path class="cls-1" d="M73.55,175.67c1.08.12,1.93-.1,2.53-.64-.93-.07-1.73.19-2.53.64Z"/>
      <path class="cls-1" d="M73.55,175.67c1.8.49,2.64.28,2.53-.64-.6.54-1.45.76-2.53.64Z"/>
      <path class="cls-1" d="M71.63,2.71c-.01-.3.12-.59.52-.81-.69.6-3.38-.35-3.39-1.39-.13.17-.3.27-.51.34.49.21.86.6.82,1.21.26-.32.75-.28,1.03-.05.54,0,1.05.24,1.53.71h0Z"/>
      <path class="cls-1" d="M66.77.74s.02,0,.03-.01c0,0,0,0,0,0-.01,0-.01.01-.02.02Z"/>
      <path class="cls-1" d="M71.63,2.71c-.48-.47-.98-.72-1.53-.71.93.75,1.25,2.27,2.69,2.44-.55-.51-1.13-1.16-1.16-1.73Z"/>
      <path class="cls-1" d="M68.25.85c-.42.13-.96.07-1.44-.11-.02,0-.02,0-.04.01-.16.14-.42.29-.82.44,1.32.22,1.94.5,3.13.87.03-.6-.33-1-.83-1.21h0Z"/>
      <path class="cls-1" d="M68.76.51c.01,1.04,2.7,1.99,3.39,1.39-.72-.53-2.51-.68-3.18-1.9-.02.21-.11.37-.21.51Z"/>
      <path class="cls-1" d="M66.79.73c-.35-.14-.67-.33-.89-.57l.05,1.02c.2-.21.5-.36.82-.44,0,0,0-.01.02-.02h0Z"/>
      <path class="cls-1" d="M65.95,1.18c.39-.15.66-.3.82-.44-.32.08-.62.22-.82.44Z"/>
      <path class="cls-1" d="M66.79.73s0,0,.02,0c.47-.11,1.01-.07,1.44.11.21-.06.38-.17.51-.34,0-.17.06-.34.22-.51-1.15.01-2.11.13-3.08.15.98-.02,1.26.24.89.57h0Z"/>
      <path class="cls-1" d="M66.8.73c.49.19,1.03.25,1.45.11-.43-.18-.97-.23-1.45-.11Z"/>
      <path class="cls-1" d="M68.76.51c.1-.13.19-.29.21-.51-.16.17-.21.34-.21.51Z"/>
      <path class="cls-1" d="M65.9.15c.22.24.54.43.89.57.37-.33.08-.59-.89-.57Z"/>
      <path class="cls-1" d="M71.63,2.71c.41.4.8.97,1.16,1.73-.02-.8-.55-1.7-.64-2.54-.4.23-.53.51-.52.81Z"/>
      <path class="cls-1" d="M72.79,4.44c-.36-.76-.75-1.32-1.16-1.73.03.57.62,1.22,1.16,1.73Z"/>
      <path class="cls-1" d="M44.98,3.76l-2.09-.93c-.17,1.37-.62,2.59-1.37,3.67l3.46-2.74Z"/>
      <path class="cls-1" d="M41.09,2.67c-.24.28.18,3.15.43,3.83.21-1.36.66-2.58,1.36-3.67-.32.07-1.51-.51-1.8-.16h.01Z"/>
      <path class="cls-1" d="M42.88,2.83c-.7,1.08-1.15,2.31-1.36,3.67.74-1.07,1.2-2.3,1.36-3.67Z"/>
      <path class="cls-1" d="M143.1,105.37l.77.21-.28-.75c.16.44-.01.61-.49.54h0Z"/>
      <path class="cls-1" d="M143.59,104.83l-.49.54c.44.01.61-.17.49-.54Z"/>
      <path class="cls-1" d="M143.1,105.37c.48.08.65-.1.48-.54.13.37-.04.55-.48.54Z"/>
      <path class="cls-1" d="M76.67,41.28c.02,1.82.14,4.37.31,6.16.96-.03,1.52.49,1.8,1.23.1-.72,1.37-5.66,2.78-6.3-.34-.2-.53-.58-.57-1.15-1.36,1.84-4.11,1.03-2.91-2.58l-1.31-.71c.29,1.12-.11,2.33-.1,3.35Z"/>
      <path class="cls-1" d="M80.99,41.22c-.05-.76.16-1.84.66-3.27l-1.9,3.17c-.46-.03-1.33-1.87-1.67-2.48-1.2,3.61,1.55,4.42,2.91,2.58h0Z"/>
      <path class="cls-1" d="M78.78,48.66c.27.71.27,1.61.1,2.41.38-.07.88.42,1.43,1.34l-1.18-3.02c2.5,2.43,1.63-5.86,3.26-6.86-.34.02-.61-.04-.83-.17-1.4.64-2.68,5.58-2.78,6.3Z"/>
      <path class="cls-1" d="M80.99,41.22c.04.57.23.95.57,1.15.28-.12.56-.1.83.17-.29-1.05.15-3.29-.74-4.59.2,1.48-.13,2.57-.65,3.27h-.01Z"/>
      <path class="cls-1" d="M81.65,37.95c-.5,1.43-.71,2.51-.66,3.27.53-.7.85-1.79.66-3.27Z"/>
      <path class="cls-1" d="M81.56,42.37c.22.13.49.19.83.17-.27-.27-.55-.3-.83-.17Z"/>
      <path class="cls-1" d="M78.85,51.22c-.14.53-.34.99-.59,1.29.6-.11,1.55.09,2.05-.1-.85-.09-1.26-.57-1.46-1.19Z"/>
      <path class="cls-1" d="M78.88,51.07c-.01.05-.02.1-.03.15.2.62.62,1.1,1.46,1.19-.55-.92-1.05-1.41-1.43-1.34h0Z"/>
      <path class="cls-1" d="M78.8,51.09c-.19-.73-.12-1.64-.02-2.41v-.02c-.28-.74-.84-1.26-1.8-1.23.07.84,1.16,3.4,1.28,5.08.07-.87.27-1.31.54-1.42h0Z"/>
      <path class="cls-1" d="M76.98,47.44c-.25-.76-.42-1.17-.55-1.35.16.47.35.93.55,1.35Z"/>
      <path class="cls-1" d="M78.8,51.09s.05-.02.08-.02c.17-.79.17-1.69-.1-2.41v.02c-.1.77-.17,1.67.02,2.41h0Z"/>
      <path class="cls-1" d="M78.8,51.09c-.27.12-.47.55-.54,1.42.25-.3.46-.77.59-1.29-.02-.04-.04-.08-.05-.13Z"/>
      <path class="cls-1" d="M78.84,51.22s.03-.1.04-.15c-.03,0-.05.01-.08.02.01.05.03.09.05.13h0Z"/>
      <path class="cls-1" d="M142.32,79.18l.49-.54c-.12.09-.63-.11-.49.54Z"/>
      <path class="cls-1" d="M43.71,125.11c.56-.6,1.27-.6,1.85-.12,1.68-1.52,2.33-7.64,1.51-8.02-.45-.21-6.01,5.96-6.41,7.35,1.17.22,2.29-.1,3.05.79Z"/>
      <path class="cls-1" d="M41.96,126.17c.34.35.65.72.91,1.13.11-.9.36-1.55.68-1.98-.8.4-1.44.58-1.59.86Z"/>
      <path class="cls-1" d="M45.16,125.26c.14-.06.27-.15.4-.27-.58-.48-1.29-.48-1.85.12.02.03.05.05.08.08-.09.05-.16.08-.24.12-.32.43-.57,1.08-.68,1.98.14-.16.05-.93.36-1.14,1.44-.95,2.99,1.06,3.31,2.5.14-1.23-.31-2.37-1.38-3.39Z"/>
      <path class="cls-1" d="M42.87,127.29c-.26-.4-.57-.77-.91-1.13-.12.23.09.54.91,1.13Z"/>
      <path class="cls-1" d="M46.36,126.28c.2.64.29,1.43.17,2.37.19-.92,1.59-1.72-.17-2.37Z"/>
      <path class="cls-1" d="M47.07,116.97c.83.38.17,6.5-1.51,8.02.25.21.47.51.65.89,3.63-2.77,2.11-6.36,2.58-9.96.18-1.36,2.38-2.14.51-4.37-2.17,1.59-2.94,4.33-4.54,6.18-1.53,1.76-6.59,3.59-4.1,6.59.4-1.39,5.96-7.56,6.41-7.35h0Z"/>
      <path class="cls-1" d="M46.36,126.28c-.15-.05-.27-.11-.46-.16.11-.08.2-.16.31-.24-.18-.38-.4-.68-.65-.89-.13.12-.26.21-.4.27,1.07,1.03,1.52,2.16,1.37,3.39.12-.94.04-1.74-.17-2.37h0Z"/>
      <path class="cls-1" d="M34.11,118.88c.92.28,1.82,1.21,2.55,2.29.09-.46.39-.93,1.02-1.42-.08-1.47.09-2.65.52-3.55l-1.02.05c.33.58.16.75-.49.54,1.79,4.88-2.47,4.24-.54-.49l-1.28-.46c.04,1.58-.22,2.58-.76,3.03h0Z"/>
      <path class="cls-1" d="M36.66,121.18c-.74-1.08-1.63-2.01-2.55-2.29-.35.29-.82.36-1.42.17,2.88,1.36,2.37,3.44,5.38,4.88-.95-.99-1.59-1.87-1.41-2.76h0Z"/>
      <path class="cls-1" d="M37.18,116.26l-.49.54c.65.21.82.04.49-.54Z"/>
      <path class="cls-1" d="M38.2,116.21c-.43.9-.6,2.08-.52,3.55-.63.49-.93.95-1.02,1.41.62.92,1.13,1.95,1.41,2.76-.94-2,1.57-6.19.14-7.72h-.01Z"/>
      <path class="cls-1" d="M38.07,123.93c-.28-.81-.79-1.83-1.41-2.76-.18.89.46,1.76,1.41,2.76Z"/>
      <path class="cls-1" d="M34.11,118.88c.55-.45.8-1.45.76-3.03l1.28.46c-.22-.34-.19-1.18-.33-1.25-.13-.07-.24-.12-.36-.15-.41.18-.83.36-1.25.54-.64,1.02-.82,3.04-1.52,3.61.46-.29.94-.32,1.42-.17h0Z"/>
      <path class="cls-1" d="M34.21,115.45c.42-.18.84-.36,1.25-.54-.57-.18-.96.08-1.25.54Z"/>
      <path class="cls-1" d="M34.11,118.88c-.48-.15-.96-.12-1.42.17.6.19,1.07.12,1.42-.17Z"/>
      <path class="cls-1" d="M30.03,138.21c1.12-.06,1.02-2.1-.1-2.04-1.12.05-1.02,2.1.1,2.04Z"/>
      <path class="cls-1" d="M54.74,164.52l-3.1-.35c.5.37,2.25,1.67,2.39,1.67.08,0,1.23-.96.7-1.31h0Z"/>
      <path class="cls-1" d="M30.29,143.34c0,.07.96,1.24,1.31.71.49-2.23-1.35-1.88-1.31-.71Z"/>
      <path class="cls-1" d="M55.6,166.26c.41,1.07,1.75.96,1.55.44-.41-1.07-1.75-.96-1.55-.44Z"/>
      <path class="cls-1" d="M84.17,78.45c.15.46.05,1.1.59,1.51.29-.46.1-.96-.59-1.51Z"/>
      <path class="cls-1" d="M84.76,79.96c2.18.31,1.68-1.47-.59-1.51.69.55.88,1.06.59,1.51Z"/>
      <path class="cls-1" d="M83.73,80.02c.19-.09.32-.1.41-.07.05-.05.12-.07.22-.06-.56-.24-.69-.93-.19-1.43-.22-.14-.42-.33-.59-.56.22.78.29,1.58.15,2.13h0Z"/>
      <path class="cls-1" d="M82.97,76.34s-.06-.02-.09-.03c.05.07.09.15.14.23-.01-.07-.04-.13-.05-.2Z"/>
      <path class="cls-1" d="M84.14,79.94c.16.04.21.22.13.56l.49-.54c-.15,0-.28-.04-.4-.09-.1,0-.18.02-.22.06Z"/>
      <path class="cls-1" d="M82.97,76.34c.01.07.04.13.05.2.24.4.43.87.56,1.34.17.23.37.42.59.56-.35-1-.73-2.07-1.18-3.03.16.61.16.91-.02.92Z"/>
      <path class="cls-1" d="M83.58,77.89c-.29-.38-.46-.86-.56-1.34-.05-.08-.09-.16-.14-.23-.19-.07-.49-.34-.92-.84.97,1.35,1.22,3.02,1.77,4.54.14-.54.07-1.35-.15-2.13Z"/>
      <path class="cls-1" d="M83.02,76.55c.1.48.28.96.56,1.34-.13-.48-.32-.94-.56-1.34Z"/>
      <path class="cls-1" d="M81.96,75.47c.35.14.66.45.92.84.03.01.07.03.09.03-.04-.32-.05-.64.02-.92-.29-.11-.97.1-1.03.05h0Z"/>
      <path class="cls-1" d="M82.97,76.34c.17,0,.18-.31.02-.92-.07.28-.06.6-.02.92Z"/>
      <path class="cls-1" d="M82.88,76.31c-.26-.39-.57-.7-.92-.84.43.5.74.77.92.84Z"/>
      <path class="cls-1" d="M84.14,79.94c-.09-.03-.22-.02-.41.07.07.2.47.29.54.49-.17-.29-.2-.47-.13-.56h0Z"/>
      <path class="cls-1" d="M84.14,79.94c-.07.09-.03.28.13.56.08-.34.03-.52-.13-.56Z"/>
      <path class="cls-1" d="M84.36,79.88c.1,0,.23.03.4.09-.53-.41-.43-1.06-.59-1.51-.5.49-.37,1.19.19,1.43Z"/>
      <path class="cls-1" d="M84.36,79.88c.12.05.24.08.4.09-.16-.05-.3-.08-.4-.09Z"/>
      <path class="cls-1" d="M139.57,96.29l-1.13-2c.4.85.1.95,1.13,2Z"/>
      <path class="cls-1" d="M52.49,124.21c-.21.04-.4-.09-.54-.46.06.35.17.69.26,1.03.06-.2.17-.39.28-.58h0Z"/>
      <path class="cls-1" d="M52.49,124.21c.26-.41.6-.8.97-1.04l-1.51.59c.14.36.33.49.54.46h0Z"/>
      <path class="cls-1" d="M52.49,124.21c-.12.19-.22.38-.28.58.12.5.22,1.01.38,1.51.15-.95.49-2.28.87-3.13-.38.67-.7,1-.97,1.04h0Z"/>
      <path class="cls-1" d="M52.49,124.21c.27-.04.59-.37.97-1.04-.37.25-.71.63-.97,1.04Z"/>
      <path class="cls-1" d="M52.21,124.79c-.08-.34-.2-.69-.26-1.03-.19,1.08-.87,2.16-.6,3.37.51.49.84-.58,1.24-.83-.54-.31-.59-.91-.38-1.51Z"/>
      <path class="cls-1" d="M52.59,126.3c-.16-.5-.26-1.01-.38-1.51-.21.6-.16,1.19.38,1.51Z"/>
      <path class="cls-1" d="M52.42,112.42l1.95-2.15c-.36.26-2.07.09-1.95,2.15Z"/>
      <path class="cls-1" d="M54.37,110.27l-1.95,2.15c1.37.5,1.23-1.03,1.95-2.15Z"/>
      <path class="cls-1" d="M51.29,110.42c.58-.09.6.25.05,1.02,1.06-1.56,1.04-1.9-.05-1.02Z"/>
      <path class="cls-1" d="M51.29,110.42c1.09-.87,1.1-.53.05,1.02,1.89-1.49,1.56-3.02-.05-1.02Z"/>
      <path class="cls-1" d="M51.29,110.42c.09.25-.1.81.05,1.02.55-.78.53-1.12-.05-1.02Z"/>
      <path class="cls-1" d="M44.04,114.63c1.01.03,1.72.07,2.26-.88l-1.07-.97c-.08.16-.19.32-.3.47l-.89,1.38Z"/>
      <path class="cls-1" d="M45.23,112.78l-.3.47c.11-.15.22-.31.3-.47Z"/>
      <path class="cls-1" d="M22.11,122.15c-.76.88-1.53,1.74-2.33,2.6.76-.65,1.53-1.18,2.31-1.57-.15-.38-.12-.73.02-1.03h0Z"/>
      <path class="cls-1" d="M23.5,120.54c-.26.31-.54.62-.8.93.38-.27.87-.43,1.34-.44-.21-.12-.42-.5-.54-.49Z"/>
      <path class="cls-1" d="M24.04,121.03c-.47,0-.95.17-1.34.44-.19.23-.39.45-.59.68-.14.3-.17.65-.02,1.03.62-.74,1.33-1.42,1.95-2.15Z"/>
      <path class="cls-1" d="M19.78,124.75c.8-.86,1.57-1.73,2.33-2.6.12-.27.33-.5.59-.68.27-.31.54-.61.8-.93-2.19.28-4.8,4.55-5.85,6.46.7-.88,1.41-1.62,2.13-2.25Z"/>
      <path class="cls-1" d="M22.11,122.15c.2-.23.4-.45.59-.68-.26.18-.47.41-.59.68Z"/>
      <path class="cls-1" d="M22.09,123.18c-.78.39-1.55.91-2.31,1.57-.7.75-1.4,1.51-2.13,2.25l.78.21c1.2-1.36,2.51-2.64,3.66-4.03h0Z"/>
      <path class="cls-1" d="M17.65,127c.73-.74,1.43-1.5,2.13-2.25-.72.63-1.43,1.38-2.13,2.25Z"/>
      <path class="cls-1" d="M88.78,129.82c.15.15.29.33.43.54.09-.24.26-.49.57-.75-.36.27-.71.31-1,.22h0Z"/>
      <path class="cls-1" d="M88.17,128.14l-1.03.05-.48.54c.15.19.39.3.53.49.4-.05.76.06,1.11.26-.25-.34-.35-.83-.13-1.34Z"/>
      <path class="cls-1" d="M88.17,128.14c-.21.5-.12,1,.13,1.34.16.1.33.19.48.34.29.09.64.05,1-.22-.39-.42-1.19-1.24-1.61-1.46h0Z"/>
      <path class="cls-1" d="M89.88,131.66c.47-1.35,1.16-.7-.1-2.05-.31.27-.47.51-.57.75.24.36.47.77.67,1.3Z"/>
      <path class="cls-1" d="M89.21,130.36c-.14-.21-.28-.39-.43-.54-.2-.06-.36-.18-.48-.35-.35-.2-.71-.31-1.11-.26.57.76,1.13,2.39,2.1,2.52.15-.04.33-.07.59-.08-.67-.38-.87-.82-.67-1.3h0Z"/>
      <path class="cls-1" d="M88.78,129.82c-.15-.15-.32-.25-.48-.35.12.17.28.28.48.35Z"/>
      <path class="cls-1" d="M89.88,131.66c-.2-.53-.43-.94-.67-1.3-.19.48,0,.92.67,1.3Z"/>
      <path class="cls-1" d="M89.88,131.66c-.25.01-.44.04-.59.08.19.02.38.01.59-.08Z"/>
    </g>
  </g>
</svg>