<?xml version="1.0" encoding="UTF-8"?>
<svg id="_레이어_2" data-name="레이어 2" xmlns="http://www.w3.org/2000/svg" viewBox="0 0 178.65 97.25">
  <defs>
    <style>
      .cls-1 {
        fill: #ff319c;
      }
    </style>
  </defs>
  <g id="_레이어_1-2" data-name="레이어 1">
    <g>
      <path class="cls-1" d="M119.27,80.98c-.06.09-.12.23-.2.39l.2-.39Z"/>
      <path class="cls-1" d="M13.59,16.05c-.13-.06-.23-.1-.29-.09.11.04.2.06.29.09Z"/>
      <path class="cls-1" d="M6.08,45.67c6.38,5.45,13.76,11.23,20.45,16.09-6.87-5.29-13.67-10.68-20.45-16.09Z"/>
      <path class="cls-1" d="M161.55,86.91c3.41-1.24,7.57-2.84,10.14-3.98l-10.14,3.98Z"/>
      <path class="cls-1" d="M156.27,88.38c1.94-.54,16.89-6.18,17.49-6.9,1.34-6.56,1.48-13.29,2.29-19.91.03-.2.4-.35.43-.55-.53-3.58.19-7.46.63-11.02.03-.2.41-.35.43-.55-.68-3.59.39-7.46.63-11.02.01-.19.41-.35.43-.55.26-2.7-.45-3.21-2.56-4.66-.19-.13-.36-.3-.55-.43l-.22-.1c-.47-.18-1.55-.53-2.41-1.07-.2-.12-.35-.31-.55-.43-1.17.52-2.27-.94-3.18-1.6-.2-.11-.35-.32-.55-.43l-2.08-.92c-.21-.08-.4-.16-.55-.24-.2-.11-.35-.32-.55-.43-1.71.1-3.3-1.09-4.71-1.91l-3.71.2,1.56,2.54c-.74-.21-3.95-1.51-4.16-1.46-.17.04.24,2.91-1.59,3.17l1.1.86c2.69,1.72,8.31,4.74,10.22,6.41.64.56,3.36,3.79,3.65,4.44.54,1.2-.61,2.9-.34,3.91.14.53,3.34,4.37,3.94,5.97.39,1.06.14,1.32.24,1.96.02.16-.45.38-.43.55.07.8.89,1.85.36,2.94l-.43.55c.27.31,1.02.6,1.07.85.06.31-.97,5.47-1.21,6.12-.4,1.1-.36,1.64-1.72,2.19,2.88,1.63.78,1.78-.06,3.5-.22.44.19,1.43-.86,2.27-.35.28-1.06-.27-1.38-.14-.79.32-1.15,1.22-1.33,1.29-.3.11-.46-1.23-.66-1.41-.16-.08-.3-.16-.41-.23-.1-.01-.22,0-.35.09-.23.26-.44.53-.64.81-.68.93-.99,3.06-2.03,3.73-.56.36-2.88-.7-3.61-1.05-1.79-.86-2.29-1.87-2.75-2.15-.39-.23-.71-.62-1.1-.86-.92-.57-6.26-2.83-6.36-3.2,2.4-.63,3.25-2.88,5.16-.39l-.51-2.17c-2.23-.43-4.51-.88-6.55-.69-.11,0-.36.79-.9.84-.39.04-.74-.35-1.09-.62-.32.01-.64.02-.93,0-.14.14-.28.34-.43.68,2.68,1.61,4.52,2.28,4.97,5.62.26,1.91-1.62,2.72,2.11,3.45-2.07-2.81,3.1-2.97,3.24-1.89l-1.28,1.65c2.1.39,3.6.57,5.26,2.34-2.21.88-6.82,2.16-9.05,1.33-.82-.31-3.93-2.88-3.89-3.47.02-.29,1.11-.78,1.09-.86-.63-1.79-7.54-5.42-7.62-6.03-.06-.45,2.28-2.92,2.29-3.5.04-1.8-1.82-.28-2.61-1.16-.42-.48.07-1.58,0-1.77-.57-1.53-1.9-1.58-3.39-1.31-.09,1.83.69,3,2.22,3.95-1.08,2.02-1.49,1.35-3.37.91-.03.31-.09.5-.19.61-.01.88,1.35,1.15,1.34,1.24-.08.53-1.22,1.33-1.19,1.63.12,1.18,4.2,1.74,5.01,2.31,1.02.72.39,1.86.47,1.99.3.19.52.36.69.51,1.05.47,2.68.66,2.39,2.34-.93-.13-2.65-.82-3.39-1.32-3.37-2.31-4.79-2.31-6.91-3.62-.26-.16-2.02-1.64-2.2-1.72-.5-.24-1.46-.53-2.08-.74-.12-.04-.63.25-.98.12-1.81-.64-3.79-.96-5.26-2.34-.03.04-.72-.22-.98.12.03,1.38-1.85,6.28-3.08,7.34l-.48-3.91c-1.21,4.51-1.85,1.12-3.53,1.63-.7.21-3.16,2.34-4.92,2.39,1.49,1.39,1.08,2.92-.46,2.29-.62-.25.73-1.1.31-1.47-.18-.16-1.28-.17-1.81-.58-1.75-1.35-.55-1.79-.36-2.94-1.19-1.22-3.02-1.01-4.59-.93-.04,0-.07.01-.1.02-.45.14-.18,1.03-2.84.34-.98-.25-1.89-.33-2.63-1.17.48-.69,1.43-.15,1.95-.24.59-.09,1.67-.17,1.96-.24.87-.23,2.29-1.79,3.8-1.46,1.24-2.28,2.39-4.26.21-6.78-.82-.95-6.87-4.43-8.08-4.68l-.86,1.1c-.4.51-.86,1.3-1.29,1.65-1.26,1.04-2.51,1.27-4.01,1.75l.33.69c1.44,1.35,1.32,3.45-.9,2.83-1.44-.4.19-1.48-.23-1.96-1.12-1.27-1.4.61-2.02.25-.44-.25-.87-1.54-1.44-2.06-.27-.25-.9-.82-1.1-.86-.44.2-.79.29-1.06.28-.9.28-2.09.64-2.5.32-.18-.14-.84-2.71-.73-3.05.22-.64,1.34-1.47,1.72-2.2-1.16-1.78-2.32-1.15-3.61-1.05-.6.05-1.15.21-1.96.24-1.15.04-1.76.27-3.06-.62-.93,1.21-2.24,1.4-3.23.16-.21-.27.47-1.06.42-1.27-.16-.69-3.35.12-.61-2.45-.17-.16-.38-.27-.55-.43-1.11,1.82-1.44.94-1.1-.86-1.51-1.41-.24-2.41-4.04-.5-.38.19-.81,1.27-1.29,1.65-2.34-.96.62-1.29.03-1.75-1.58-1.24-1.08.97-2.22.04,2.27-1.46-3.43-3.26-3.43-3.55.42-.85,1.04-.97,1.83-1.22-1.1-.99-4.14-2.48-3.74-4.27.37-1.68,2.32.92,4.07.59,1.57-.3,1.24-1.81,1.46-2.01l-2.91-1.36c-.28-.02-.55.06-.7.32-.05.09.34.65.14.98-2.74-2.68-4.85.23-8.64-1.42l-1.72,2.2c-.43-1.61-.62-2.16-2.32-2.69l1.29-1.65c-1.33-1.17-4.91-4.38-5.71-5.51-.97-1.37.52-2.75-1.81-3.01-.09.29-.22.51-.38.69-.08,1.04.76,2.72-.67,2.92-.79.11-1.17-3.69-4.71-1.9-.39.19-.82,1.25-1.29,1.65-.78-1.19-.61-1.84.74-2.08l.5-1.14c0-.07,0-.13,0-.22-1.19.03-5.08-2.76-5.03-3.06.39-2.1,1.84-.77,2.76-1.33-.02-.04-.04-.09-.05-.13-1.86-2.35-3.9.23-6.14-2.11-.74.78-2.37,1.56-2.94.36.11.16.01.7.12.98.13.04.48.32.55.43.79,1.17-.09.51-.43.55-.04,0-.32.57-.72.33-.75-.46-.31-.99-.38-1.19-.35-.98-1.35-3.33-1.46-3.8-1.15.51-3.05-1-3.87-1.39-.1-.03-.19-.05-.29-.09-.34.03-.73,2.01-2.5-.19.74-.98,2.2.24,2.5.19.27-.04,1.12-1.04,1.84-1.22-.1,0-1.59-1.17-1.62-1.3.33-.61.86-1.08,1.26-1.64-.18-.32-1.27-.53-.89-1.14.71-1.24.81-.65,1.75.04.33-.49.72-.97.31-1.53-.96-.59-1.6-1.84-2.32-2.7-3.56.63-4.3,3.38-6.68,6.29-1.03,1.25-2.05,2.55-3.01,3.85-.21,2.69-2.84,3.89-3.65,6.67-.32,1.1-.46,16.2,0,16.91,11.14,8.13,21.8,18.29,33.13,26.01.19.13.36.31.55.43l2.08.74c.2.11.35.32.55.43l1.53.31c.2.1.35.34.55.43l1.62.58c.18.06.35.11.46.16.21.09.34.34.55.43,1.68-.34,2.83.79,4.16,1.48.2.1.35.33.55.43l2.08.74c.21.1.35.34.55.43l1.53.31c.21.1.34.34.55.43l1.61.57c.19.06.36.12.47.17.21.09.35.33.55.43,1.68-.34,2.83.8,4.16,1.48.2.1.35.33.55.43l2.08.74c.21.1.34.34.55.43l1.53.31c.21.09.35.34.55.43l1.64.58c.17.06.33.11.44.16.21.09.34.34.55.43l1.53.31c.21.09.34.34.55.43l1.56.55c.21.07.4.13.52.18.21.09.34.34.55.43,1.68-.34,2.83.79,4.16,1.48.2.1.35.33.55.43l2.08.74c.21.1.34.34.55.43l1.53.31c.21.1.34.34.55.43l1.61.57c.19.06.36.12.47.17.21.09.34.33.55.43,1.68-.34,2.83.8,4.16,1.48.2.1.35.33.55.43l2.08.74c.21.1.34.34.55.43l1.53.31c.21.09.34.34.55.43l1.61.57c.19.06.36.12.47.17.21.09.34.34.55.43,1.68-.33,2.83.79,4.16,1.48.2.1.35.32.55.43,1.68-.34,2.83.8,4.16,1.48.2.1.35.33.55.43l2.08.74c.2.09.34.34.55.43l1.53.31c.21.07.35.38.55.43,1.49-.49,2.21-1.75,3.13-2.87.29-.36.59-.72.86-1.1-.52-1.17.94-2.27,1.6-3.18.24-.39.62-.71.86-1.1-.46-1.33,1.24-2.67,2.03-3.73.28-.37.6-.72.86-1.1-.52-1.17.94-2.27,1.6-3.18.25-.39.62-.71.86-1.1-.53-1.17.94-2.27,1.6-3.18.22-.37.57-.76.86-1.1l-.33-.71,1.19-.39c.32.32.82.54,1.1.86.86.72,2.55,1.44,2.32,2.7.19.13.35.32.55.43,1.36-.28,2.74.17,4.04.5.21.05.35.38.55.43,3.05-.66,6.43.54,9.18,1.85.2.1.35.32.55.43,1.17-.53,2.27.94,3.18,1.6.21.1.35.32.55.43,1.17-.52,2.27.94,3.18,1.6.39.21.71.66,1.1.86l2.63,1.17c.39.19.74.72,1.1.86,1.13.14,1.59.51,2.79.17h.02ZM27.1,31.11c-.31.06-5.72-1.8-5.98-1.98-1.54-1.08-2.04-3.57-4.66-3.61.41-.85,1.04-.96,1.83-1.22,1.44-.48,1.17-.39,2.51.19,1.58.68,2.59,2.08,4.03,2.75.88.41,3.39.4,3.58.56.69.57-.62,3.18-1.32,3.32ZM101.08,82.72c-.48.22-.68-1.05.32-1.51.48-.22.68,1.05-.32,1.51ZM106.27,82.31c-.25-.22.04-2.85.13-2.96.47-.52,4.33.8,4.35,1.2.07,1.43-3.44,2.69-4.49,1.77ZM107.68,87.87c-.48.22-.68-1.05.32-1.51.48-.22.68,1.05-.32,1.51ZM115.85,77.43l.24,1.95c-1.27-.74-1.29-.92-.24-1.95ZM106.95,89.96l.24,1.95c-1.27-.74-1.29-.92-.24-1.95Z"/>
      <path class="cls-1" d="M83.04,4.88c1.61-2.03,8.68-2.61,9.92-.23-.36-.96-.72-1.75.19-2.51-.55.34-.73.2-.55-.43l-.7.09c-.13.03-.24.06-.27.03-1.73,1.36-2.88-.41-1.22-1.84-1.75.83-3.59,1.4-5.21,2.13-.19.09-.24.46-.43.55l-.98.12c-.18.12-.26.41-.43.55l-.43.55.12.98h0Z"/>
      <path class="cls-1" d="M93.15,2.15c-.2-.06-.34-.34-.55-.43-.18.63,0,.77.55.43Z"/>
      <path class="cls-1" d="M83.04,4.88c1.57-.04,9.42-.31,9.92-.23-1.24-2.39-8.3-1.8-9.92.23Z"/>
      <path class="cls-1" d="M91.62,1.84c-.59-.39-.96-1.19-1.22-1.84-1.66,1.43-.51,3.2,1.22,1.84Z"/>
      <path class="cls-1" d="M66.01,11.96c-.24-.01-.64.26-.98.12-.18.12-.25.41-.43.55l-.43.55c2.43-.36,3.05-.76,1.84-1.22Z"/>
      <path class="cls-1" d="M64.17,13.18c1.49,1.13,2.52.62,3.36-.92,0-.14-1.16-.28-1.52-.31,1.21.46.6.87-1.84,1.22h0Z"/>
      <path class="cls-1" d="M82.03,4.56c.07-.18.36-.41.89-.65l-.55-.43c-.18.08-.24.45-.43.55l-.98.12c-.18.12-.26.41-.43.55l-.43.55c.74-.48,1.38-.69,1.93-.69h0Z"/>
      <path class="cls-1" d="M82.03,4.56c-.55,0-1.19.2-1.93.69,1.05.54,2.22-.34,2.94-.36-.78.07-1.1-.08-1.01-.33h0Z"/>
      <path class="cls-1" d="M82.03,4.56c.38,0,.72.09,1.01.33l-.12-.98c-.53.24-.82.47-.89.66h0Z"/>
      <path class="cls-1" d="M83.04,4.88c-.29-.23-.63-.32-1.01-.33-.1.25.23.4,1.01.33Z"/>
      <path class="cls-1" d="M119.9,47.29c.18-.22.34-.45.53-.68-.22.09-.4.31-.53.68Z"/>
      <path class="cls-1" d="M123.37,65.73c1.07.28.62,2.09,2.47,1.78.36-.06.09-.76.12-.78-1.02-1.48,1.83-1.61,2.45-2.03.01-.07.02-.14.04-.21-.13-.59-.87-2.48.28-3.57-2.89-3.75-2.32-1.02-3.62-1.06-.16,0-.7-1.93-1.33-2.81-1.49-2.09-3.13-1.41-3.17-1.59-.05-.25.87-.9.85-1.1-.03-.25-1.39-.59-.89-1.13l2.3.46c.67-2.45.03-1.36-.65-3.67-.28-.94,1.1-2.07-.89-2.87l-1.28.36s-.04.01-.05.01l-.36.1c.08-.12.17-.22.26-.33.13-.37.3-.59.53-.68.17-.21.34-.42.5-.64.17-.25.89-.99.86-1.1-.07-.25-3.5-2.92-4.04-3.16-.57-.25-1.12.91-1.51.62-1.11-.84-.35-1.86-.5-2.19-3.26,1.86-2.81-1.93-2.22-4.34l-.84-1.85c-.06.04-.11.08-.18.11-.33.15-.52-.4-.28-.92-1.64-1.82-2.43-3.57.77-4.24-.52-1.84-.82-3.59,1.5-3.04-.05-.16-.43-.23-.55-.43-.96.73-2.15.38-3.59-1.04,2.96,5.04-3.24,9.91-4.99,4.09-2.94-.89-3.05.81-4.12.77-.89-.03-1.79-1.14-2.66-1.21-1.33-.1-1.72,2.51-3.13.67,2.19-2.83,3.98-.66,6.62-.58l-.13-3.2c-.28,0-.69.24-.98.12-2.79-1.13-7.79-4.8-3.36-7.05-1.97-.83-2.74-1.72-2.32-2.7-.9,0-1.01-.07-1.96.24l.37,2.93-2.09-.73c-2.23,1.34-.46.61-.57,1.51-.19,1.53-1.16,1.34-2.01,1.79l-.21.27c-.07.13-.13.27-.22.28-1.7.22-2.41-1.09-3.73-2.03-.31-1.05,3.27.76,3.61,1.05l.43-.55c.17-.38.89-.9.86-1.11-.04-.28-4.21-1.39-4.82-2.88,1.09-1.17,2.68.64,3.07.62.26-.01.13-1.23.29-1.53l-.33.68c-1.91-1.35-3.42-.74-5,.47.1.29,2.64,2.02,1.07,2.61-1.25.47-1.76-1.32-2.05-2.49-1.1,1.93-4.93,1.02-5.73-.91-1.46.48-2.53.09-3.1-1.29l-2.14,1.28c16.93,9.79,32.31,22.16,44.33,37.23.2,2.71.71,5.22,1.53,7.52,2.91-.6,3.03,3.66,2.54,6.14.19,0,.44.33.66,1.03.19-.27-.02-1.12.12-1.24.12-.1,3.01-.52,3.16-.48h0ZM106.26,31.86c-.22-.48,1.05-.68,1.51.32.22.48-1.05.68-1.51-.32ZM108.88,40.99c.74-1.27.92-1.29,1.95-.24l-1.95.24ZM121.54,61.06l2.84.9c-1.58.69-3.06,1.11-2.84-.9Z"/>
      <path class="cls-1" d="M120.05,47.51h-.05s.03,0,.05,0Z"/>
      <path class="cls-1" d="M119.42,66.43c-.09.45-.2.86-.32,1.15.26-.34.95-.08.98-.12-.22-.7-.47-1.04-.66-1.03Z"/>
      <path class="cls-1" d="M112.98,28.91c-3.2.67-2.41,2.42-.77,4.24.11-.23.29-.46.6-.6.45-.21.64.87-.14,1.4l.84,1.85c-.59,2.41-1.04,6.2,2.22,4.34-.13-.29-1.26-.6-1.44-1.29-.16-.6.77-1.79.67-2.85-.13-1.43-1.86-4.88-3.37-5.3.6-1.02,2.12.52,2.7-.09.55-.58-.2-2.88-.33-3.7-.07-.47.52-.97.5-1.04-2.32-.55-2.02,1.2-1.49,3.04Z"/>
      <path class="cls-1" d="M115.73,40.14c.23.1.43.15.6.16-.2-.06-.39-.12-.6-.16Z"/>
      <path class="cls-1" d="M97.59,18.01c.17-1.22,1.21-2.83-.36-2.92-.09,0-.53.84-.88.81-.64-.06-.99-.58-1.08-.58-.42.97.35,1.87,2.32,2.7Z"/>
      <path class="cls-1" d="M119.42,66.43c.49-2.48.37-6.73-2.54-6.14-.82-2.3-1.33-4.81-1.53-7.52-12.03-15.08-27.4-27.45-44.33-37.23l2.13-1.28c.57,1.38,1.64,1.77,3.1,1.29.8,1.92,4.62,2.83,5.73.91-1.26-.38-4.51-.69-4.58-.92-.06-.2,1.68-3.71-1.44-2.01-.41.22-.54,1.27-.65,1.25-.62-.1-1.14-2.15-1.73-2.17-.53-.02-4.62,2.29-5.68,2.59,7.79,5.07,16.4,9.85,23.61,15.75,4.14,3.39,20.61,18.57,22.57,22.38.28.54.41,5.17.98,6.56,1.17,2.85,2.61,1.31,3.02,1.62.31.24-.19,2.61-.07,3.48.14.94,1.07,2.21,1.08,2.59-.02-.76.12-1.14.32-1.15h0Z"/>
      <path class="cls-1" d="M87.96,15.86l.33-.68-4.71-1.89c-.41.09-.67,2.9-.61,3.05,1.58-1.22,3.09-1.82,5-.47h0Z"/>
      <path class="cls-1" d="M110.33,24.41c1.44,1.43,2.64,1.77,3.59,1.04-.66-1.1-5.31-3.79-5.94-3.74-2.05.18,2.12,3.72,1.75,5.63-.8,4.15-1.92,1.9-4.39,1.16,1.74,5.82,7.94.96,4.98-4.09h0Z"/>
      <path class="cls-1" d="M119.11,67.58c.12-.29.23-.7.32-1.15-.2,0-.34.39-.32,1.15Z"/>
      <path class="cls-1" d="M60.44,47.45c-3.08-2.1-1.16-2.11,1.29-1.65.6.11,1.27.97,2.28.46l.38-2.53c-1.03-.74-1.4-1.65-1.06-2.72-1.56-.5-2.23-1.37-2.02-2.62-.65,1.5-3.42,5.07-1.8,5.69-.35.92-1.08-.05-1.95.24.64,2.13,2.65,3.83,5.07,4.85-.42-1.24-1.55-1.27-2.2-1.72Z"/>
      <path class="cls-1" d="M64.54,43.83c.68,2.4,3.08,3,4.26,4.32,2.29,2.59-.26,3.49,5.1,3.61.76.02,3.06,0,2.93-.36-.29-.34-.9-.56-1.09-.86-1.96,1.02-3.81-4.75-3.23-6.07-.75,1.6-1.71.25-3.06-.62l-2.89.91c-.83-.27-1.49-.59-2.02-.94h0Z"/>
      <path class="cls-1" d="M57.57,44.32c-.79.26-1.42.38-1.83,1.22,0,.3,5.7,2.1,3.43,3.55,1.14.94.64-1.27,2.22-.04.58.46-2.38.79-.03,1.75.48-.38.91-1.46,1.29-1.65-2.42-1.01-4.44-2.72-5.07-4.85h0Z"/>
      <path class="cls-1" d="M63.33,41.01c-.33,1.07.03,1.98,1.06,2.72l.04-.25c.03.13.07.23.11.34.52.35,1.18.66,2.02.94l2.89-.91c-.78-.5-1.44-1.21-2.21-1.72l-.29,1.52-2.91-1.36,1.56-1.45c-.07-.28-3.69-2.3-4.28-2.46-.21,1.24.46,2.11,2.02,2.62h0Z"/>
      <path class="cls-1" d="M70.87,43.19s0-.01,0-.02h-.02s.01.01.02.02Z"/>
      <path class="cls-1" d="M75.73,50.54c-1.53-2.39-.16-2.84-3.23-6.07-.58,1.32,1.27,7.08,3.23,6.07Z"/>
      <path class="cls-1" d="M160.05,72.97l2.94-.36-1.22-1.84c-.7,1.04-2.5,1.91-3.73,1.91-.82-.63-1.74-.78-2.75-.5.17.2.15.68-.14,1.4.92-2.21,3.35.28,2.75,2.15.74-1.82,3.25-.62,3.61,1.05l-.02-2.22-1.44-1.58h0Z"/>
      <path class="cls-1" d="M155.29,72.18c-.4.11-.81.28-1.24.54.39.24.71.63,1.1.86.29-.72.31-1.2.14-1.4Z"/>
      <path class="cls-1" d="M157.9,75.73c.73.35,3.05,1.41,3.61,1.05-.36-1.67-2.87-2.87-3.61-1.05Z"/>
      <path class="cls-1" d="M155.29,72.18c1-.28,1.92-.13,2.74.5,1.23,0,3.03-.87,3.73-1.91-3.14-.14-1.85.43-2.47.54-1.51.26-3.91-1.2-5.25,1.4.61-.63,1.05-.76,1.24-.54h0Z"/>
      <path class="cls-1" d="M154.05,72.72c.43-.26.84-.42,1.24-.53-.19-.23-.63-.09-1.24.53Z"/>
      <path class="cls-1" d="M126.44,66.23c.14-.12.29-.22.44-.3-.05,0-.1,0-.15,0l-.28.3h0Z"/>
      <path class="cls-1" d="M128.37,65.46c-.13.11-.27.2-.42.28.17.01.33.04.5.09-.04-.12-.07-.24-.08-.37Z"/>
      <path class="cls-1" d="M129.31,62.11c.06.25.1.51.1.77.49-.45,1.13-.77,1.95-.79l-.75-.59c-.78.43-1.13.61-1.3.61Z"/>
      <path class="cls-1" d="M130.86,66.13c-.42.27-.78.41-1.09.47,1.3,1.15,2.01,3.08.82,3.73.25.38.29.99.02,1.8.23-.07.49-.12.78-.15,1.38-.89.06-5.3-.52-5.85h0Z"/>
      <path class="cls-1" d="M130.58,70.32c-.44.24-1.14.31-2.18.08.18.08,1.94,1.56,2.2,1.72.26-.82.22-1.43-.02-1.8Z"/>
      <path class="cls-1" d="M131.38,71.98c-.28.03-.55.07-.78.15.32.04.58-.02.78-.15Z"/>
      <path class="cls-1" d="M128.41,64.7c-.62.41-3.47.55-2.45,2.03.15-.2.31-.36.48-.5l.28-.3c.05,0,.1,0,.15,0,.35-.17.71-.23,1.07-.2.15-.08.29-.17.42-.28-.03-.24,0-.5.04-.76h0Z"/>
      <path class="cls-1" d="M129.41,62.89c0-.26-.04-.52-.1-.77-.3,0-.05-.51-.58-1.19-1.15,1.09-.41,2.98-.28,3.57.15-.58.47-1.16.96-1.61h0Z"/>
      <path class="cls-1" d="M128.37,65.46c.01.13.04.25.08.37.47.14.92.42,1.32.77.31-.06.67-.2,1.09-.47-.46-.44-2.09-.51-2.07-.74.01-.21,2.09-2.68,2.57-3.31-.82.02-1.46.34-1.95.79.03,1-.34,2-1.04,2.58Z"/>
      <path class="cls-1" d="M129.41,62.88c-.49.45-.81,1.03-.96,1.61.02.1.03.16,0,.18-.01.01-.03.02-.05.03-.05.26-.07.52-.04.76.7-.57,1.07-1.58,1.04-2.58Z"/>
      <path class="cls-1" d="M130.58,70.32c1.2-.65.48-2.58-.82-3.73-.71.12-1.14-.22-1.32-.77-.17-.05-.33-.08-.5-.09-.31.15-.67.22-1.07.2-.15.08-.29.18-.44.3l-.48.5c2.23-.87,2.97.6,4.71,1.91l-2.26,1.77c1.03-.66,1.82-.62,2.18-.08h0Z"/>
      <path class="cls-1" d="M130.58,70.32c-.35-.54-1.15-.58-2.18.08,1.03.22,1.73.16,2.18-.08Z"/>
      <path class="cls-1" d="M126.44,66.23c-.16.14-.32.3-.47.5l.47-.5Z"/>
      <path class="cls-1" d="M126.88,65.93c.4.02.76-.05,1.07-.2-.36-.03-.72.02-1.07.2Z"/>
      <path class="cls-1" d="M128.45,65.83c.18.55.61.9,1.32.77-.4-.35-.85-.63-1.32-.77Z"/>
      <path class="cls-1" d="M21.76,19.26c-.83-.76.54-1.57,1.81-.59.17-.69-.43-.99-.67-1.41-1.26,2.35-1.58-.49-3.18-1.6-.17-.11-1.61.08-2.08-.73-.13.02-.25,2.23-.18,2.5l1.51.09c-.04.49-.06.99-.07,1.48l.65-.83c.72.42.1,1.66.24,1.96.72-.58,1.29-1.01,1.99-.87h0Z"/>
      <path class="cls-1" d="M18.87,19.45c0,.59,0,1.19.05,1.78.31.07.8-.18.98-.12-.85.08-.85-.46-.12-.98-.17-.24-.6-.43-.91-.68h0Z"/>
      <path class="cls-1" d="M19.9,21.11c-.11-.28,0-.81-.12-.98-.73.52-.73,1.06.12.98Z"/>
      <path class="cls-1" d="M18.68,19.27l.21-.26c.02-.49.03-.99.08-1.48l-1.51-.09c.11.47,1.12,2.82,1.46,3.8-.04-.6-.05-1.19-.05-1.78-.07-.05-.14-.11-.19-.18Z"/>
      <path class="cls-1" d="M21.76,19.26c-.69-.14-1.27.28-1.99.87.57,1.2,2.2.42,2.94-.36-.48-.15-.76-.33-.95-.51h0Z"/>
      <path class="cls-1" d="M23.57,18.67c-1.27-.97-2.64-.16-1.81.59.29.06.6.21.95.51.15-.16-.61-1.65.86-1.1Z"/>
      <path class="cls-1" d="M22.71,19.77c-.35-.3-.66-.45-.95-.51.2.18.48.36.95.51Z"/>
      <path class="cls-1" d="M82.05,57.79c.7.75,1.67.73,2.61.6-2.52-.95-4.04-1.31-.36-2.94-1.14-.19-2.72.66-2.27,2.1l-.98-.2c.43.32.68.63.8.93.07-.16.12-.31.2-.48h0Z"/>
      <path class="cls-1" d="M81.34,60.39c-.05-.24-.02-.57.1-1-.65.32-1.83.09-2.79-1.26.52,1.18,1.42,1.93,2.69,2.26h0Z"/>
      <path class="cls-1" d="M81.34,60.39c-1.27-.33-2.17-1.08-2.69-2.26-.12.35.55,2.92.73,3.05.41.32,1.6-.04,2.5-.32-.31-.01-.48-.18-.54-.48Z"/>
      <path class="cls-1" d="M84.3,55.45c-.07-.04-.03-1.21-.67-1.41-.76,1.13-1.89,2.15-2.58,3.3l.98.2c-.45-1.44,1.13-2.28,2.27-2.1h0Z"/>
      <path class="cls-1" d="M84.66,58.39c-.94.13-1.9.15-2.61-.6-.08.17-.14.32-.2.48.2.5,0,.92-.4,1.12-.12.43-.15.76-.1,1,.48.12,1.01.2,1.6.2-2.69-2.5.96-.84,1.72-2.2h0Z"/>
      <path class="cls-1" d="M81.88,60.87c.52-.16.94-.3,1.06-.28-.59,0-1.12-.07-1.6-.2.06.3.23.46.54.48Z"/>
      <path class="cls-1" d="M84.68,61.62c.26.07.52.13.77.19-.13-.11-.26-.24-.37-.37-.08.11-.21.18-.4.18Z"/>
      <path class="cls-1" d="M85.45,61.81c-.25-.06-.51-.13-.77-.19-.17,0-.38-.05-.64-.17.56.51,1,1.81,1.44,2.06.62.36.9-1.53,2.02-.25.42.48-1.21,1.56.23,1.96,2.22.62,2.33-1.48.9-2.83-.57.6-2.17.28-3.18-.57Z"/>
      <path class="cls-1" d="M85.08,61.44c-.46-.56-.66-1.27-.3-2.06l-.74,2.08c.22.06.43.11.64.16.19,0,.32-.07.4-.18h0Z"/>
      <path class="cls-1" d="M85.08,61.44c.21-.26.17-.78.05-1.23-.17-.25-.3-.52-.35-.84-.36.8-.16,1.51.3,2.06Z"/>
      <path class="cls-1" d="M85.13,60.21c.12.45.16.96-.05,1.23.11.13.23.26.37.37,1.17.28,2.23.46,3.18.57-.48-.45-2.63-.88-3.5-2.17Z"/>
      <path class="cls-1" d="M84.68,61.62c-.21-.06-.42-.11-.64-.17.27.12.48.17.64.17Z"/>
      <path class="cls-1" d="M88.63,62.38c-.95-.1-2.01-.29-3.18-.57,1.01.85,2.61,1.17,3.18.57Z"/>
      <path class="cls-1" d="M143.92,26.72l9.97,4.25c-.39-.25-.72-.6-1.1-.86-2.62-1.73-5.46-4.59-8.87-3.39Z"/>
      <path class="cls-1" d="M68.33,50.95c-2.74,2.57.44,1.76.61,2.45.05.21-.63,1-.42,1.27.99,1.23,2.3,1.05,3.23-.16-1.68,1.16-3.8-2.37-3.42-3.56h0Z"/>
      <path class="cls-1" d="M71.75,54.51c-.87-.6-2.48-2.65-3.42-3.56.53,2.15,1.67,3.33,3.42,3.56Z"/>
      <path class="cls-1" d="M68.33,50.95c-.38,1.19,1.74,4.72,3.42,3.56-1.75-.22-2.89-1.41-3.42-3.56Z"/>
      <path class="cls-1" d="M16.73,11.56c.2-.45.48-.69.79-.78-.12-.05-.24-.1-.35-.16-.2.15-.69.19-1.54.08.36.26.84.57,1.1.86h0Z"/>
      <path class="cls-1" d="M18.7,11.11c.2.17.39.38.54.64.33-.01.67.03.98-.12l.43-.55c-.57.12-1.27.13-1.95.03Z"/>
      <path class="cls-1" d="M17.17,10.62c-.6-.32-1.06-.8-1.23-1.45.41.56.02,1.04-.31,1.53.85.11,1.35.08,1.54-.08h0Z"/>
      <path class="cls-1" d="M17.17,10.62c.11.06.23.11.35.16.38-.11.8.02,1.18.33.68.1,1.38.09,1.95-.03-1.14-.6-4.32-1.67-4.71-1.91,1.1.7,1.54,1.22,1.23,1.45Z"/>
      <path class="cls-1" d="M17.17,10.62c.3-.24-.13-.75-1.23-1.45.17.66.64,1.13,1.23,1.45Z"/>
      <path class="cls-1" d="M18.7,11.11c-.41-.06-.81-.17-1.18-.33-.31.09-.59.33-.79.78.83,0,1.69.22,2.51.19-.15-.26-.34-.47-.54-.64h0Z"/>
      <path class="cls-1" d="M17.53,10.78c.37.16.77.27,1.17.33-.37-.31-.79-.44-1.17-.33Z"/>
      <path class="cls-1" d="M46.68,36.71c-.11.18-.25.29-.4.36.29.06.6.09.95.07-.19-.08-.34-.31-.55-.43Z"/>
      <path class="cls-1" d="M44.48,35l-1.29,1.65c1.7.53,1.89,1.08,2.32,2.69l1.72-2.2c-.35.02-.66,0-.95-.07-.94.42-2.52-1.08-1.8-2.08h0Z"/>
      <path class="cls-1" d="M46.28,37.07c.15-.07.29-.18.4-.36-1.32-.75-1.21-.85-2.2-1.72.24,1.17.84,1.86,1.8,2.08Z"/>
      <path class="cls-1" d="M46.28,37.07c-.96-.22-1.56-.91-1.8-2.08-.72,1,.86,2.5,1.8,2.08Z"/>
      <path class="cls-1" d="M98.38,71.06s-.05-.09-.06-.14c-.39.44-1.25.16-1.75-.57l.67,1.41c.25-.48.67-.66,1.14-.7h0Z"/>
      <path class="cls-1" d="M98.38,71.06c-.47.04-.89.22-1.14.7,2.65.69,2.39-.2,2.84-.35-.74.16-1.47.06-1.7-.36h0Z"/>
      <path class="cls-1" d="M98.33,70.92c-.05-.21,0-.47.21-.81-.29.08-1.37.15-1.96.24.5.73,1.36,1,1.75.57Z"/>
      <path class="cls-1" d="M98.33,70.92c.01.05.03.1.06.14.58-.04,1.24.14,1.8.34l-1.65-1.29c.03.39-.06.64-.21.81h0Z"/>
      <path class="cls-1" d="M98.33,70.92c.15-.16.24-.42.21-.81-.2.34-.25.6-.21.81Z"/>
      <path class="cls-1" d="M100.08,71.42s.06-.02.1-.02c-.57-.2-1.22-.38-1.8-.34.22.42.95.52,1.7.36Z"/>
      <path class="cls-1" d="M74.45,52.19c.56.84.75,1.61.59,2.32.27-.47.66-.58,1.06-.34.15-.09.32-.17.55-.26-.62-.64-1.54-1.1-2.2-1.72h0Z"/>
      <path class="cls-1" d="M76.1,54.17c-.4-.24-.79-.13-1.06.34-.05.21-.12.42-.23.62.81-.03,1.36-.19,1.96-.24-1.15.09-1.37-.3-.67-.72Z"/>
      <path class="cls-1" d="M76.65,53.91c-.23.08-.4.17-.55.26.23.13.46.37.67.72-.13-.27-.03-.89-.12-.98h0Z"/>
      <path class="cls-1" d="M76.1,54.17c-.71.42-.49.81.67.72-.21-.35-.44-.59-.67-.72Z"/>
      <path class="cls-1" d="M74.45,52.19c-1.27,1.01-.27,1.81.36,2.94.06-.26.14-.45.23-.62.16-.71-.03-1.48-.59-2.32h0Z"/>
      <path class="cls-1" d="M74.81,55.13c.11-.2.18-.41.23-.62-.09.17-.18.36-.23.62Z"/>
      <path class="cls-1" d="M163.73,70.53c-.1.4-.22.67-.37.84.02.03.03.05.04.08.22-.16.54-.16.86.04.12-.05.31-.09.57-.11-.2-.23-.86-.76-1.1-.86h0Z"/>
      <path class="cls-1" d="M163.24,72.48s-.03-.09-.04-.13c-.07.09-.12.17-.21.26.1-.07.18-.1.25-.13Z"/>
      <path class="cls-1" d="M164.26,71.51c-.32-.21-.64-.2-.86-.04.1.25.06.55-.2.89.01.04.02.09.04.13.32-.13.43.04.3.56.21-.28.41-.55.64-.81.14-.08.25-.1.35-.09-.49-.3-.59-.52-.28-.64h0Z"/>
      <path class="cls-1" d="M163.36,71.38c.15-.17.28-.44.37-.84-.87-.35-1.54.26-1.96.24.73-.04,1.35.2,1.59.6Z"/>
      <path class="cls-1" d="M161.77,70.78l1.22,1.84c.09-.09.15-.18.21-.26-.12-.43-.02-.74.2-.89-.01-.03-.03-.06-.04-.08-.39.45-.94.16-1.59-.6h0Z"/>
      <path class="cls-1" d="M163.21,72.35c.25-.34.3-.64.2-.89-.21.15-.32.46-.2.89Z"/>
      <path class="cls-1" d="M163.36,71.38c-.23-.4-.86-.65-1.59-.6.65.76,1.2,1.05,1.59.6Z"/>
      <path class="cls-1" d="M162.99,72.62l.55.43c-.14-.2-.23-.39-.3-.56-.08.03-.15.07-.26.13h0Z"/>
      <path class="cls-1" d="M163.25,72.48c.06.17.15.36.3.56.13-.52.02-.7-.3-.56Z"/>
      <path class="cls-1" d="M164.83,71.39c-.25.02-.44.06-.57.11.25.16.5.44.69.87.13-.33.11-.71-.12-.98h0Z"/>
      <path class="cls-1" d="M164.54,72.15c.14.02.27.1.41.23-.19-.43-.44-.71-.69-.87-.31.12-.22.34.28.64Z"/>
      <path class="cls-1" d="M14.77,11.8l.36,2.94c.17-.6.32-1.09.51-1.41-.27-.64-.73-1.3-.87-1.53h0Z"/>
      <path class="cls-1" d="M13.52,13.44c.03.13,1.51,1.31,1.62,1.3l-.36-2.94c-.39.56-.93,1.03-1.26,1.64Z"/>
      <path class="cls-1" d="M15.5,14.65s.04-.01.06-.02c-.02,0-.03,0-.05.01h-.02s0,0,0,0Z"/>
      <path class="cls-1" d="M15.64,13.33c-.19.32-.33.81-.51,1.41.14-.03.26-.07.38-.1.44-.21.36-.75.13-1.31Z"/>
      <path class="cls-1" d="M18.3,24.29c.89.24,1.72.3,2.51.19-1.34-.58-1.07-.67-2.51-.19Z"/>
      <path class="cls-1" d="M20.81,24.48c-.79.11-1.62.05-2.51-.19l2.2,1.71.31-1.52h0Z"/>
      <path class="cls-1" d="M10.79,15.77c1.78,2.2,2.16.22,2.51.19-.69.12-1.03.17-1.03.17,0,0,.34-.06,1.03-.17-.31.05-1.77-1.17-2.51-.19Z"/>
      <path class="cls-1" d="M66.68,49.66c-.34,1.8,0,2.68,1.1.86-.84.55-1,.08-1.1-.86Z"/>
      <path class="cls-1" d="M66.68,49.66c.23.49.47.88,1.1.86-.33-.32-.76-.54-1.1-.86Z"/>
      <path class="cls-1" d="M66.68,49.66c.1.94.26,1.41,1.1.86-.63.02-.87-.36-1.1-.86Z"/>
      <path class="cls-1" d="M92.31,59.94c.42-.35.89-1.14,1.29-1.65-.82.28-1.21.78-1.29,1.65Z"/>
      <path class="cls-1" d="M92.31,59.94c-.04-.79.51-1.52,1.29-1.65-.89-.57-2.05.93-1.29,1.65Z"/>
      <path class="cls-1" d="M92.31,59.94c.08-.87.47-1.37,1.29-1.65-.78.13-1.33.86-1.29,1.65Z"/>
      <path class="cls-1" d="M108,86.36c-1,.46-.8,1.74-.32,1.51,1-.46.8-1.74.32-1.51Z"/>
      <path class="cls-1" d="M20.02,22.09c.34-.04,1.21.62.43-.55.17.4.02.58-.43.55Z"/>
      <path class="cls-1" d="M20.45,21.54l-.43.55c.42,0,.57-.19.43-.55Z"/>
      <path class="cls-1" d="M20.02,22.09c.45.02.6-.15.43-.55.14.36,0,.54-.43.55Z"/>
      <path class="cls-1" d="M126.33,69.67l-.98.12c.35.12.86-.16.98-.12Z"/>
      <path class="cls-1" d="M121.68,41.31c5.56,2.05,4.85,7.25,9.77,9.33.24-1.37,1.12-3.66,2.87-2.96.41.16.3,1.02.37,1.07.29.2,1.11.15,1.53.31-.12-.17-.21-.31-.28-.44-1.21-.41-2.71-4.44.08-5.53l-.53-1.34c-2.59.52-6.32-1.47-6.17-4.27-.57-.33-1.78-.75-2.63-1.17-.28.2-.67.27-.98.12-.38-.19-.71-.63-1.1-.86l-.55-.43c1.32,2.71-.21,3.59-4.6,2.66l-1.04.02c-.5,5.12,2.34,3.15,3.25,3.49h0ZM133.78,45.37c-.53.15-2.92-1.01-2.53-2.42.65-2.29,5.05,1.69,2.53,2.42Z"/>
      <path class="cls-1" d="M128.64,36.03s-.02,0-.02,0l.03.04v-.03Z"/>
      <path class="cls-1" d="M124.06,35.14c-.62.68-1.57,2.21-1.71,2.21-.34,0-1.59-1.74-2.94-1.43-.61.14-.65,1.4-.99,1.91l1.04-.02c4.39.93,5.93.04,4.6-2.66Z"/>
      <path class="cls-1" d="M135.49,41.74l.53,1.34c-2.79,1.09-1.29,5.13-.08,5.53-.33-.63-.17-.91.09-.97-.42-.82-.21-2.56-.07-2.78.82-1.29,2.22,1.39,2.36,1.38.22,0,2.32-1.41,2.31-1.72-4.29.63-2.49-3.65-5.62-5.27l-.29,1.52c-2.24-.49-3.67-2.32-5.39-3.31-.15,2.8,3.58,4.79,6.17,4.27h0Z"/>
      <path class="cls-1" d="M136.44,48.54c-.15.12-.32.14-.5.08.07.13.16.28.28.44.24-.39.61-.71.86-1.11-.13.06-.25.09-.36.1.02.14-.06.31-.28.49h0Z"/>
      <path class="cls-1" d="M135.94,48.61c.18.06.35.04.5-.08.22-.17.29-.34.28-.48-.32.03-.54-.13-.68-.41-.27.05-.43.34-.1.97Z"/>
      <path class="cls-1" d="M127.19,32.27c-.06-.52.06-1.64-.24-1.96-.96,2.39-2.79.3-3.86-1.28-3.76,2.22-4.35,4.35.51,3.92l1.33,1.09c.63-.23.65-.07,1.41-.67-.82-1.11-.45-1.61.86-1.1h0Z"/>
      <path class="cls-1" d="M123.09,29.02c1.07,1.58,2.91,3.67,3.86,1.28-.11-.12-1.22-.1-1.93-.99-.84-1.05-.16-2.03-.23-2.2-1.36-3.08-1.87.24-2.56.87-.68.62-2.25.13-2.58.59-.22.3.18,1.42-.11,1.92-.82,1.42-2.88,1.11-.65,2.8,1.54,1.16,4.24,1.41,6.03.74l-1.32-1.09c-4.87.43-4.27-1.71-.51-3.92h0Z"/>
      <path class="cls-1" d="M126.33,33.37c.32-.25.53-.8.86-1.1-1.3-.51-1.68-.01-.86,1.1Z"/>
      <path class="cls-1" d="M105.63,6.58l-2.59,1.08,1.43,1.55c2.25.66,5.92,1.57,8.2,1.97l.43-.55-5.8-2.77c1.72-.78,2.66-.34,4.03.5.92-.29,2.63-.73,1.02-1.87-1.96-1.38-8.59-4.45-10.01-2.49.1.3.2.67.12.98-.05.21-.41.36-.43.55l.55.43c1.15.22,2.25-.37,3.06.62h0Z"/>
      <path class="cls-1" d="M159.39,58.35c-.17-.18-.39-.39-.72-.62.21.3.46.48.72.62Z"/>
      <path class="cls-1" d="M159.27,59.25c.06,0,.11-.02.16-.04l-.09-.07s-.05.07-.07.11h0Z"/>
      <path class="cls-1" d="M157.44,49.77c-.51-.46,1.56-1.85-.96-1.71-.28.36-1.93,1.21-2.15,2.76,2.36-.28,1.95,2.94,1.78,5.02-.07.78-.94,1.73-.93,1.84.04.31,2.02.78,2.62,1.16.81.54.77-1.04.86-1.1,1.48-.94,2.02-.31,3.68-2.44-.65-.5-3.25,1.12-4.47.06.53-1.03,1.58-1,2.45-1.56.54-.35.6-1.33.67-1.32l-.12-.98c-.77-.45-1.43-1.23-2.2-1.72-.08-.05-.84.35-1.24,0h0Z"/>
      <path class="cls-1" d="M54.64,36.13c.1-.01.24,0,.43.04l1.41-.67c-2.71-1.14-5.35-2.7-7.93-4.7.3,1.04.22,1.66-.82,2.3.82-.48,1.48.26,2.08.74.48-.41.66-.25.55.43,1.04-.71,1.94.78,2.2,1.72.53-.36.71-.21.55.43.66-1.81,1.48-1.83,1.53-.28h0Z"/>
      <path class="cls-1" d="M49.81,33.84c.18.15.37.29.55.43.11-.67-.07-.84-.55-.43Z"/>
      <path class="cls-1" d="M54.64,36.13c0,.18.01.37,0,.59l.43-.55c-.19-.05-.32-.06-.43-.04h0Z"/>
      <path class="cls-1" d="M48.55,30.81c2.58,2,5.22,3.56,7.93,4.7.52-.95-.77-1.56-1.49-2.1-3.31-2.49-7.44-4.56-10.61-7.34-2.01,2.61,1.24,2.64,2.29,3.92.59.72.56,2.3,1.07,3.12,1.04-.64,1.12-1.25.82-2.3h0Z"/>
      <path class="cls-1" d="M52.56,35.99l.55.43c.16-.64-.02-.79-.55-.43Z"/>
      <path class="cls-1" d="M54.64,36.73c-.25-.37-.24-.56,0-.59-.06-1.55-.87-1.53-1.53.28,1.03-.33.8-.06,1.53.31Z"/>
      <path class="cls-1" d="M54.64,36.73c.02-.22.01-.41,0-.59-.24.03-.26.22,0,.59Z"/>
      <path class="cls-1" d="M84.66,58.39c.94-.89,3.08-1.09,4.96-.91-.29-.28-.55-.63-.79-1.08-1.86.94-4.44,1.73-4.54-.95-.11.95,0,1.93.36,2.94h0Z"/>
      <path class="cls-1" d="M88.83,56.4c.24.45.5.8.79,1.08.94.09,1.82.26,2.44.5-1.3-.31-2.01-3.34-2.18-3.45-.62-.41-3.26,2.4-5.59.93.1,2.68,2.68,1.89,4.54.95h0Z"/>
      <path class="cls-1" d="M89.62,57.48c-1.88-.17-4.03.03-4.96.91,3.05,1.15,4.61.73,7.41-.41-.96.32-1.77.14-2.44-.5Z"/>
      <path class="cls-1" d="M92.07,57.98c-.62-.24-1.5-.41-2.44-.5.67.64,1.49.82,2.44.5Z"/>
      <path class="cls-1" d="M84.66,58.39c-.36-1.01-.48-1.99-.36-2.94-3.67,1.63-2.16,1.99.36,2.94Z"/>
      <path class="cls-1" d="M141.8,41.91c-.1.02-1.53,1.32-.91,1.93,1.1,1.08,1.25,1.56,1.94,2.41.27.33.36,1.14.67,1.41.07.06,1.81-.39,1.31.58l-.76-.15.24,1.96c5.06-.32.67-2.09.92-4.58,2.91,1.46,4.03.6,6.31-1.28-1.64-1.52-2.93.64-4.61.86-4.43.59-4.61-3.23-5.11-3.14h0Z"/>
      <path class="cls-1" d="M125.84,35.6c-.02.23-.06.5-.12.83l.43-.55c-.16.02-.26-.12-.3-.28Z"/>
      <path class="cls-1" d="M125.85,35.18c.07-.15.21-.23.45-.07.2.14.07.74-.15.76.2.11.35.33.55.43.36-.1.76-.19,1.13-.25-.72-.33-1.38-.95-1.65-1.55-.32.18-.84.04-1.26-.46.36.53.21.71-.43.55l.12.98c.78-.91,1.19-1.03,1.23-.39h0Z"/>
      <path class="cls-1" d="M124.92,34.04l-.43.55c.64.16.79-.02.43-.55Z"/>
      <path class="cls-1" d="M129.32,37.48c.44-2.49,2.04-2.4,3.34-3.16.45-.26-.61-.75-.55-1.16.09-.6,1.59-3.12-.7-2.89-1.35.14-1.04,5.76-3.68,2.44l.9,3.32c.63.07,1.01.43.68,1.45h0Z"/>
      <path class="cls-1" d="M126.18,34.5c.27.6.93,1.23,1.65,1.55.29-.04.55-.05.79-.03l-2.29-2.66c.24.61.12.98-.15,1.13h0Z"/>
      <path class="cls-1" d="M129.13,36.25c-.4.1-.86,0-1.3-.19-.38.06-.77.15-1.14.25.85.42,2.06.84,2.63,1.17-.88-.53-1.02-.95-.19-1.23Z"/>
      <path class="cls-1" d="M125.85,35.18c-.05-.64-.45-.53-1.23.39.39.23.72.67,1.1.86.07-.33.11-.6.12-.83-.04-.14-.04-.3.01-.41Z"/>
      <path class="cls-1" d="M129.13,36.25c-.83.27-.69.7.19,1.23.33-1.01-.05-1.38-.68-1.45v.03s-.02-.04-.02-.04c-.24-.02-.51-.01-.79.03.44.2.9.29,1.3.19h0Z"/>
      <path class="cls-1" d="M126.18,34.5c-.19-.43-.18-.84.15-1.13-.76.6-.78.44-1.41.67.42.5.94.64,1.26.46Z"/>
      <path class="cls-1" d="M126.18,34.5c.27-.15.39-.52.15-1.13-.33.29-.34.71-.15,1.13Z"/>
      <path class="cls-1" d="M92.96,4.66c.47-.55.49-2.09.19-2.51.2,1.05.14,1.89-.19,2.51Z"/>
      <path class="cls-1" d="M92.96,4.66c1.63.26,5.72,4.28,8.74,2.41-1.87-2.44-5.45-2.12-7.61-3.29-1.83-.98.72-1,.58-1.32-.45-1.12-1.46-.29-1.53-.32.3.42.28,1.96-.19,2.51h0Z"/>
      <path class="cls-1" d="M92.96,4.66c.33-.62.39-1.46.19-2.51-.9.76-.54,1.55-.19,2.51Z"/>
      <path class="cls-1" d="M143.39,54.58c-.07-.18-.11-.37-.12-.56-.4.08-.87.1-1.42.07.21.21.38.41.52.61.33-.44.58-.47,1.01-.12Z"/>
      <path class="cls-1" d="M145.14,56.91c-.09-.32-.09-.65-.12-.98-.61-.1-1.05-.42-1.35-.82l-.97.12c.39.8.24,1.48-.5,2.05.2,0,1.21.23,1.53.31-.35-1.87.09-2.04,1.41-.67h0Z"/>
      <path class="cls-1" d="M142.7,55.23l-.73.09c.15-.27.28-.47.4-.63-.15-.2-.31-.4-.52-.61.55.03,1.02.02,1.42-.07-.05-.8.34-1.62,1.27-2.01-2.4,1.06-1.46.55-3.53.71-2.67.2.84,3.21,1.19,4.55.73-.56.89-1.25.5-2.04h0Z"/>
      <path class="cls-1" d="M143.73,57.58c.42-.11,1.1-.68,1.41-.67-1.32-1.37-1.77-1.19-1.41.67Z"/>
      <path class="cls-1" d="M143.27,54.02c.01.19.05.38.12.56.15.12.32.28.53.5l-.25.03c.3.4.74.72,1.35.82-.14-1.31-.44-2.6-.48-3.92.07,1.3-.42,1.83-1.27,2.01Z"/>
      <path class="cls-1" d="M143.27,54.02c.85-.18,1.34-.7,1.27-2.01-.93.39-1.32,1.21-1.27,2.01Z"/>
      <path class="cls-1" d="M159.27,59.25c-.36.03-.89-.1-1.46-.42.11.07.02,2.52,1.46.42Z"/>
      <path class="cls-1" d="M159.43,59.22l.45.35c-1.86,2.17.23.7,1.36,1.27.61.31.8,1.34,1.2,1.59.61.38,1.07-.84,1.18-.83l.31-1.53c-.07-.05.07-1.12-.85-1.46-.97-.36-2.52.37-3.7-.26.43.47.38.77.05.87h0Z"/>
      <path class="cls-1" d="M157.81,58.83c.57.32,1.1.45,1.46.42.03-.04.05-.06.07-.11l.09.07c.34-.09.39-.39-.05-.86-.26-.14-.5-.32-.72-.62-.09.06-.05,1.64-.86,1.1Z"/>
      <path class="cls-1" d="M29.15,20.37c.06-.02.12-.05.2-.06.24-.46.53-.47.89.03-.05-1.37.49-1.43.98-.12l.19-2.5c-.9.96-1.71.39-1.65-1.3-.65,1.03-1,2.23-1.05,3.61l.43.34h0Z"/>
      <path class="cls-1" d="M30.24,20.34c.3,0,.67-.18.98-.12-.49-1.31-1.03-1.25-.98.12Z"/>
      <path class="cls-1" d="M31.41,17.72h0s.43-.56.43-.56c-.65-.18-1.76-.71-2.08-.74-.06,1.69.75,2.26,1.65,1.3Z"/>
      <path class="cls-1" d="M29.35,20.3c-.08.01-.14.04-.2.06l.12.09c.03-.07.06-.1.09-.16Z"/>
      <path class="cls-1" d="M25.97,17.88c1.25.79,1.94.77,2.74,2.15.05-1.38.4-2.58,1.05-3.61-1.94-.17-2.4.24-3.79,1.46h0Z"/>
      <path class="cls-1" d="M29.35,20.3c.24-.04.53-.03.89.03-.36-.5-.66-.5-.89-.03Z"/>
      <path class="cls-1" d="M29.26,20.46c.32,0,.65-.12.98-.12-.36-.07-.66-.07-.89-.03-.03.05-.06.09-.08.15Z"/>
      <path class="cls-1" d="M168.09,54.79c-.22.33-.39.75-.5,1.26.09,0,.19.01.33.05l.98-.12c-.48-.5-.75-.89-.8-1.19h0Z"/>
      <path class="cls-1" d="M169.64,53.89c-.17.01-.33.04-.47.08.15-.03.3-.06.47-.08Z"/>
      <path class="cls-1" d="M167.59,56.05c.11-.51.28-.93.5-1.26-.08-.41.28-.66,1.07-.81.15-.04.31-.07.47-.08-.38-.8-1.81-2.35-2.59-3.39-.53-.71-1.04-1.83-1.59-.33-.19.52,1.02,1.75,1.29,2.83.35,1.41-.82,1.87.75,3.64-.28-.42-.24-.61.1-.6h0Z"/>
      <path class="cls-1" d="M168.09,54.79c.05.3.33.68.81,1.19.22-.27.38-.59.49-.92.06-.35.14-.73.25-1.15-.18.02-.33.05-.47.08-.44.12-.8.4-1.07.81h0Z"/>
      <path class="cls-1" d="M167.59,56.05c-.04.19-.07.39-.1.6l.43-.55c-.13-.03-.23-.04-.33-.05h0Z"/>
      <path class="cls-1" d="M169.64,53.9c-.11.42-.19.8-.25,1.15.12-.38.2-.78.25-1.15Z"/>
      <path class="cls-1" d="M167.49,56.65c.03-.21.06-.41.1-.6-.34-.01-.39.18-.1.6Z"/>
      <path class="cls-1" d="M169.16,53.98c-.79.16-1.14.4-1.07.81.27-.41.63-.69,1.07-.81Z"/>
      <path class="cls-1" d="M101.92,24.94c.21.39.45.76.7,1.11.02-.36.1-.75.27-1.23-.32-.01-.67.13-.98.12Z"/>
      <path class="cls-1" d="M105.34,28.49c-.78-.61-2.25-2.9-2.44-3.68-.18.48-.25.87-.27,1.23.71.97,1.61,1.78,2.71,2.45Z"/>
      <path class="cls-1" d="M102.63,26.05c-.26-.35-.5-.72-.7-1.11l.13,3.2c-2.64-.08-4.44-2.25-6.62.58,1.41,1.84,1.81-.77,3.13-.67.87.07,1.77,1.18,2.66,1.21,1.07.04,1.18-1.65,4.12-.77-1.76-.47-2.8-1.04-2.72-2.45h0Z"/>
      <path class="cls-1" d="M102.63,26.05c-.08,1.41.96,1.98,2.72,2.45-1.1-.66-2-1.48-2.72-2.45Z"/>
      <path class="cls-1" d="M101.77,20.45s.06,0,.1.01l.98-.12c-.38-.97-.92-1.66-1.77-2.27.77.76,1.07,1.53.69,2.37h0Z"/>
      <path class="cls-1" d="M101.44,21.02l.43-.55s-.06,0-.1-.01c-.09.19-.17.37-.33.57h0Z"/>
      <path class="cls-1" d="M104.27,16.17l-4.11-1.45c-.83.94,1.06,1.47,1.6,2.54.52,1.02-.66.75-.69.82.85.61,1.39,1.3,1.77,2.27,1.22-1.28.76-2.75,1.42-4.18h0Z"/>
      <path class="cls-1" d="M101.44,21.02c-.33-.5-.21-.67.33-.57.39-.84.08-1.61-.69-2.37-.13.61-.33,1.14-.57,1.6.15.62.7.93.93,1.34h0Z"/>
      <path class="cls-1" d="M100.51,19.68c.24-.45.43-.98.57-1.6-.16.4-.64.7-.63,1.32,0,.11.04.19.06.28h0Z"/>
      <path class="cls-1" d="M101.44,21.02c.16-.19.24-.38.33-.57-.54-.11-.66.07-.33.57Z"/>
      <path class="cls-1" d="M146.21,37.38l-3.17-1.59c-1.09.31-.25,9.29,3.17,1.59Z"/>
      <path class="cls-1" d="M159.86,67.52c-.52-.05-1.03-.14-1.51-.3l-.43.55c.65-.09,1.3-.17,1.94-.25h0Z"/>
      <path class="cls-1" d="M163.8,67.05c-2.69-2.08-3.26,0-5.45.17.48.16.99.24,1.51.3,1.33-.17,2.65-.33,3.94-.47h0Z"/>
      <path class="cls-1" d="M159.86,67.52c-.64.08-1.29.16-1.94.25,1.58,1.47,4.67.98,5.88-.72-1.42.45-2.73.59-3.94.47Z"/>
      <path class="cls-1" d="M159.86,67.52c1.21.12,2.52-.02,3.94-.47-1.29.14-2.61.3-3.94.47Z"/>
      <path class="cls-1" d="M31.42,17.71s0,0,0,0c1.33,1.14,2.96,1.43,1.33,2.81,2.41-.57,2.11-1.69-.91-3.37.35.53.21.7-.42.55Z"/>
      <path class="cls-1" d="M31.42,17.71s0,0-.01,0c0,0,0,0,0,0,0,0,0,0,0,0Z"/>
      <path class="cls-1" d="M32.75,20.53c1.05.32,1.65,2.48,2.58-.07,1.22-3.36-1.98-2.89-3.49-3.3,3.02,1.67,3.32,2.8.91,3.37Z"/>
      <path class="cls-1" d="M31.42,17.71c.62.15.77-.02.42-.55-.14.22-.28.4-.42.55Z"/>
      <path class="cls-1" d="M31.42,17.71c.14-.15.28-.33.42-.55l-.43.55s0,0,.01,0Z"/>
      <path class="cls-1" d="M114.53,25.53c0,.09-.02.21-.06.35.14-.17.27-.29.41-.42-.1.04-.22.06-.34.07h0Z"/>
      <path class="cls-1" d="M115.37,25.09c.5-.28.99-.31,1.49,0-.35-.96-.72-1.75.19-2.51-.48.41-.65.24-.55-.43-.48.59-.99.88-1.52.92.71.38.84,1.42.4,2.02Z"/>
      <path class="cls-1" d="M115.37,25.09c-.12.17-.29.29-.5.37-.13.13-.27.25-.4.42,1.52,1.8,1.58-.35,2.39-.79-.49-.3-.99-.27-1.49,0Z"/>
      <path class="cls-1" d="M115.37,25.09c-.16.09-.33.21-.5.37.21-.08.37-.2.5-.37Z"/>
      <path class="cls-1" d="M117.05,22.58c-.16-.16-.4-.26-.55-.43-.1.67.07.84.55.43Z"/>
      <path class="cls-1" d="M114.53,25.53c.13,0,.24-.03.34-.07.17-.16.33-.28.5-.37.44-.6.31-1.64-.4-2.02-.28.02-.57,0-.86-.13-.03.53.89,1.6-.19,2.51.42-.26.62-.23.61.08h0Z"/>
      <path class="cls-1" d="M114.47,25.88c.04-.15.06-.26.06-.35-.18.01-.38,0-.61-.08.12.2.5.27.55.43h0Z"/>
      <path class="cls-1" d="M113.92,25.45c.23.07.43.09.61.08,0-.31-.19-.34-.61-.08Z"/>
      <path class="cls-1" d="M116.5,22.15c-1.27-1.41-1.4-.53-2.39.79.35-.05.63,0,.86.13.53-.04,1.04-.33,1.53-.92Z"/>
      <path class="cls-1" d="M114.97,23.07c-.23-.12-.51-.18-.86-.13.3.13.58.15.86.13Z"/>
      <path class="cls-1" d="M143.73,57.58c-.13.22-.29.38-.46.46,1.1.24,1.85.83,2.23,1.8,0-.74-.59-1.5-1.77-2.27Z"/>
      <path class="cls-1" d="M141.86,57.92c.22,0,.43,0,.63.02-.14-.14-.26-.36-.29-.67,0,.24-.14.45-.34.65h0Z"/>
      <path class="cls-1" d="M141.86,57.92c.2-.19.34-.41.34-.65-.7-.03-2.17.8-3.37.64l.98.28c.76-.16,1.44-.25,2.05-.26h0Z"/>
      <path class="cls-1" d="M139.48,59.52c.32.02,5.03-2.08,6.02.34-.38-.97-1.13-1.56-2.23-1.8-.28.15-.57.11-.78-.11-.2-.01-.41-.03-.63-.02-.84.81-3.07,1.1-3.58-.17.09.06.22,1.71,1.2,1.76h0Z"/>
      <path class="cls-1" d="M143.73,57.58c1.18.77,1.77,1.53,1.77,2.27-.03-.27.51-.57.6-.93,0-.08-.02-.17-.02-.25-.13-.32-.72-.68-2.35-1.09Z"/>
      <path class="cls-1" d="M141.86,57.92c-.61.02-1.29.1-2.05.26l-.98-.27c-.19-.03-.38-.07-.55-.16.51,1.26,2.74.98,3.58.16h0Z"/>
      <path class="cls-1" d="M146.09,58.67c0,.09.01.17.02.25.02-.08.02-.17-.02-.25Z"/>
      <path class="cls-1" d="M143.27,58.05c.17-.09.33-.24.46-.46-.32-.08-1.34-.3-1.53-.31.04.31.14.52.29.67.28.02.54.05.78.11h0Z"/>
      <path class="cls-1" d="M143.27,58.05c-.24-.05-.5-.09-.78-.11.21.21.5.25.78.11Z"/>
      <path class="cls-1" d="M22.55,14.66c.69-.29,1.54-.38,2.54-.27-.4-.35-.69-.78-.71-1.29-.34.56-1.1,1.15-2.27,1.77.14-.1.29-.17.44-.22h0Z"/>
      <path class="cls-1" d="M28.11,15.13c-1.28-.76-2.45-1.34-3.73-2.03.02.5.31.94.71,1.28.89.1,1.89.33,3.02.74Z"/>
      <path class="cls-1" d="M25.09,14.39c-1-.11-1.85-.02-2.54.27,1.94-.63,4.33,2.78,5.56.47-.93.27-2.23-.06-3.02-.74Z"/>
      <path class="cls-1" d="M28.11,15.13c-1.13-.41-2.13-.65-3.02-.74.79.68,2.09,1.01,3.02.74Z"/>
      <path class="cls-1" d="M22.11,14.87c1.17-.62,1.92-1.21,2.27-1.77-1.6.57-2.25,0-2.27,1.77Z"/>
      <path class="cls-1" d="M153.88,67.27c1.18.52,2.53.68,4.04.5-.05-.09-.08-.17-.1-.23-.6.33-.97.33-1-.62-.78-.03-1.71.27-2.51-.19.36.53.21.71-.43.55Z"/>
      <path class="cls-1" d="M157.82,67.53c-.09-.28.09-.39.53-.31-.42.03-1.04-.29-1.53-.31.04.95.4.95,1,.62h0Z"/>
      <path class="cls-1" d="M154.31,66.72l-.43.55c.64.16.79-.02.43-.55Z"/>
      <path class="cls-1" d="M157.92,67.77c-1.51.19-2.86.02-4.04-.5.13,4.45,1.64,2.17,4.04.5Z"/>
      <path class="cls-1" d="M157.92,67.77l.43-.55c-.19.12-.37.23-.53.32.02.07.04.14.1.23h0Z"/>
      <path class="cls-1" d="M157.82,67.54c.16-.09.33-.19.53-.32-.44-.08-.61.03-.53.32Z"/>
      <path class="cls-1" d="M144.06,48.09l-.55-.43c-1.39.46-1.68-.5-.67-1.41l-.72-.02c-1.65,2.05-.37,3.98,2.18,3.82-1.49-.42-1.85-1.35-.24-1.96Z"/>
      <path class="cls-1" d="M143.51,47.66c-.31-.27-.4-1.08-.67-1.41-1.01.91-.71,1.86.67,1.41Z"/>
      <path class="cls-1" d="M144.3,50.05l-.24-1.96c-1.61.61-1.25,1.54.24,1.96Z"/>
      <path class="cls-1" d="M135,52.06c.36-.1.7-.13,1.03-.12-.02-.09-.02-.21.01-.38l-1.1-.86c.54.38.43.91.06,1.35Z"/>
      <path class="cls-1" d="M136.02,51.94c.19,0,.38.01.56.05l-.55-.43c-.03.16-.03.28-.01.38Z"/>
      <path class="cls-1" d="M134.93,50.71c-.9,1.07-.75.49-1.72,2.2.63-.41,1.23-.69,1.78-.85.37-.45.48-.97-.06-1.35Z"/>
      <path class="cls-1" d="M136.02,51.94c-.33-.01-.67.02-1.03.12-.42.51-1.19.91-1.78.85.31.4.58.57.84.6.28-.18.61-.33.99-.43.45-.36.93-.84,1.54-1.08-.34.2-.52.17-.56-.06Z"/>
      <path class="cls-1" d="M136.58,52c-.18-.04-.37-.05-.56-.06.04.23.22.25.56.06Z"/>
      <path class="cls-1" d="M134.06,53.52c.34.04.65-.16.99-.43-.38.1-.71.25-.99.43Z"/>
      <path class="cls-1" d="M135,52.06c-.55.15-1.15.43-1.78.85.59.07,1.36-.34,1.78-.85Z"/>
      <path class="cls-1" d="M169.07,61.42c.05.41-.08.88-.34,1.4.55-.32.67-.79.34-1.4Z"/>
      <path class="cls-1" d="M168.73,62.82c.27-.52.39-.99.34-1.4-.43.93-3.53.63-1.17,2.63l-.12-.9c.4-.08.7-.2.94-.34Z"/>
      <path class="cls-1" d="M169.07,61.42c.32.61.2,1.08-.34,1.4-.2.38-.46.79-.82,1.23,2.15-.69,4.14-2.14,1.17-2.63Z"/>
      <path class="cls-1" d="M167.79,63.16l.12.9c.37-.44.63-.85.82-1.23-.24.14-.54.25-.94.34Z"/>
      <path class="cls-1" d="M110.5,21.88l-.46-1.68-2.17.51,2.63,1.17Z"/>
      <path class="cls-1" d="M109.59,18.53l.46,1.67-.46-1.67Z"/>
      <path class="cls-1" d="M91.31,13.98c.02-.17.09-.4.23-.7l-.98.12c.02.22.01.41,0,.57.26,0,.51,0,.76,0h0Z"/>
      <path class="cls-1" d="M92.64,14.15c-.39-.19-.78-.77-1.1-.86-.14.29-.21.52-.23.7.46.02.91.07,1.33.16Z"/>
      <path class="cls-1" d="M90.56,13.41c-.9.13-.71.1-1.41.67.44-.06.92-.09,1.4-.11.02-.16.03-.34,0-.57h0Z"/>
      <path class="cls-1" d="M92.16,14.31c-.58.17-.89.1-.85-.33-.25-.01-.51-.02-.76,0-.1.77-.64.84-1.4.11l1.21,1.83c.34-.4,1.18-1.25,1.8-1.6Z"/>
      <path class="cls-1" d="M90.55,13.97c-.48.01-.96.05-1.4.11.76.74,1.3.67,1.4-.11Z"/>
      <path class="cls-1" d="M92.16,14.31c.18-.11.35-.17.48-.16-.42-.1-.87-.14-1.33-.16-.04.42.27.5.85.33Z"/>
      <path class="cls-1" d="M164.59,69.44l.32.7-.76-.15c.12.17.16.29.17.39.24-.05.43-.06.56-.03.08-.15.19-.28.32-.38-.11-.35,0-.92.24-1.63l-.43.55c.36.53.21.71-.43.55h0Z"/>
      <path class="cls-1" d="M165.21,69.97c.4-.31.97-.36,1.46.21-.35-.58-1.2-1.73-1.22-1.84-.23.71-.35,1.28-.24,1.63h0Z"/>
      <path class="cls-1" d="M165.02,68.89l-.43.55c.64.16.79-.02.43-.55Z"/>
      <path class="cls-1" d="M164.16,69.99l-.43.55c.22-.07.42-.12.6-.16-.01-.1-.05-.22-.17-.39h0Z"/>
      <path class="cls-1" d="M165.21,69.97c-.13.1-.24.24-.32.38.31.07.35.36-.06,1.04l1.84-1.22c-.92.29-1.33.18-1.46-.21h0Z"/>
      <path class="cls-1" d="M165.21,69.97c.12.39.54.5,1.46.21-.49-.57-1.06-.52-1.46-.21Z"/>
      <path class="cls-1" d="M164.89,70.35c-.14-.03-.33-.02-.56.03.02.21-.17.26-.6.16.24.1.9.63,1.1.86-.17-.34-.11-.73.06-1.04Z"/>
      <path class="cls-1" d="M164.33,70.38c-.18.04-.38.08-.6.16.43.11.62.05.6-.16Z"/>
      <path class="cls-1" d="M164.89,70.35c-.18.32-.23.7-.06,1.04.41-.68.37-.97.06-1.04Z"/>
      <path class="cls-1" d="M165.13,68.35c.08-.02.18-.03.31-.01-.08-.2-.16-.36-.24-.52-.01.17-.04.34-.07.53h0Z"/>
      <path class="cls-1" d="M165.21,67.82c.08.16.17.31.24.52-.11-.47.89-1.74.47-2.31-1.71-2.32-1.41,0-2.12,1.02,1.19-.57,1.48-.1,1.41.77h0Z"/>
      <path class="cls-1" d="M165.13,68.35c.04-.19.06-.36.07-.53-.39-.75-.86-1.03-1.41-.77.55.43.93,1.2,1.22,1.84-.15-.3-.1-.48.11-.53h0Z"/>
      <path class="cls-1" d="M165.21,67.82c.07-.88-.21-1.35-1.41-.77.55-.25,1.02.03,1.41.77Z"/>
      <path class="cls-1" d="M165.13,68.35c-.03.17-.07.35-.11.53l.43-.55c-.13-.01-.23,0-.31.01Z"/>
      <path class="cls-1" d="M165.02,68.89c.04-.19.08-.36.12-.53-.22.06-.26.23-.12.53Z"/>
      <path class="cls-1" d="M110.16,72.04c-.35-.99-2.99-.44-3.3,1.02.12.47.45.63.86.62.58-.66,1.49-1.22,2.45-1.64h0Z"/>
      <path class="cls-1" d="M110.22,72.15s-.04-.07-.05-.11c-.95.42-1.86.98-2.45,1.64,1.02-.03,2.55-1.16,2.5-1.53Z"/>
      <path class="cls-1" d="M31.22,20.21c.4.07,1.23.22,1.53.31-.2-.26-.38-.52-.55-.78-.15.22-.44.39-.98.47Z"/>
      <path class="cls-1" d="M31.96,19.32c-.26-.49-.46-1.01-.55-1.6,0,0,0,0,0,0l-.19,2.5c.15-.58.45-.86.74-.9Z"/>
      <path class="cls-1" d="M32.21,19.74c-.09-.14-.17-.28-.25-.43-.29.04-.58.32-.74.9.54-.09.84-.26.98-.47h0Z"/>
      <path class="cls-1" d="M31.41,17.71h0s0,.01,0,0c0,0,0,0,0-.01h0Z"/>
      <path class="cls-1" d="M31.42,17.71c.49.61.9,1.21.9,1.68.26.16.45.54.44,1.13,1.63-1.38,0-1.67-1.33-2.81h0Z"/>
      <path class="cls-1" d="M32.31,19.4c0,.13-.04.24-.11.35.17.26.35.52.55.78.01-.58-.18-.96-.44-1.13h0Z"/>
      <path class="cls-1" d="M31.96,19.32c.12-.02.24,0,.35.08,0-.47-.41-1.08-.9-1.68,0,0,0,0,0,0,.09.59.28,1.11.55,1.6Z"/>
      <path class="cls-1" d="M32.21,19.74c.07-.11.11-.22.11-.35-.11-.07-.23-.1-.35-.08.08.14.16.29.25.43Z"/>
      <path class="cls-1" d="M31.42,17.71s0,0,0,0c0,0,0,0,0,.01,0,0,0,0,0,0h0Z"/>
      <path class="cls-1" d="M135.19,57.11c.12.1.24.17.37.29.09.08.15.19.22.28-.02-.3.11-.52.43-.65-.53.36-.71.21-.55-.43-.17.26-.33.46-.47.52h0Z"/>
      <path class="cls-1" d="M136.21,57.02c-.21-.11-.36-.35-.55-.43-.16.64.02.79.55.43Z"/>
      <path class="cls-1" d="M135.78,57.67c.33.38.59.82.67,1.31.17-.22.16-.49.1-.76-.1-.21-.19-.5-.27-.85-.03-.12-.07-.24-.07-.35-.31.13-.45.35-.43.65Z"/>
      <path class="cls-1" d="M136.54,58.21c-.07-.28-.19-.57-.27-.85.07.35.16.64.27.85Z"/>
      <path class="cls-1" d="M133.02,55.43l-.3.39c.03.11.05.21.08.31l3.64,2.85c-.43-.54-.65-.97-.67-1.31-.08-.09-.14-.2-.22-.28-.13-.12-.25-.19-.37-.29-.04.02-.07.03-.11.02-2.5-.4-1.66-1.37.11-.02.14-.06.3-.26.47-.52-.75-.29-1.9-.11-2.63-1.16h0Z"/>
      <path class="cls-1" d="M135.08,57.13s.07,0,.1-.02c-1.77-1.35-2.6-.37-.1.02Z"/>
      <path class="cls-1" d="M136.45,58.98c-.08-.49-.34-.93-.67-1.31.02.33.24.76.67,1.31Z"/>
      <path class="cls-1" d="M132.8,56.12c-.02-.1-.05-.2-.08-.31l-.12.15.2.16Z"/>
      <path class="cls-1" d="M135.7,32.71c1.36-.12.56-2.8-1.34-2.81-.72.94.66,2.87,1.34,2.81Z"/>
      <path class="cls-1" d="M107.61,63.02c1.64,2.11,1.55,2.41,2.51.2l-1.1-.86c-.42.26-1.02.3-1.41.66Z"/>
      <path class="cls-1" d="M109.25,62.13c-.08.06-.16.13-.24.22.09-.06.17-.14.24-.22Z"/>
      <path class="cls-1" d="M151.72,41.68l.43-.55c-.1-.07-.17-.14-.23-.21-.01.2-.07.45-.2.76h0Z"/>
      <path class="cls-1" d="M151.7,40.43c.01-.41.58-.65,1.32-.4-.67-.2-1.66-1.66-2.39.79.49-.35.86-.47,1.07-.39h0Z"/>
      <path class="cls-1" d="M151.7,40.43c.16.06.24.22.23.49.07.07.13.14.23.21l.86-1.1c-.74-.25-1.3,0-1.32.4Z"/>
      <path class="cls-1" d="M151.7,40.43c-.22-.08-.58.04-1.07.39.37.29.73.57,1.1.86.12-.31.18-.56.2-.76-.16-.17-.23-.34-.23-.49Z"/>
      <path class="cls-1" d="M151.92,40.91c.02-.27-.07-.43-.23-.49,0,.15.07.31.23.49Z"/>
      <path class="cls-1" d="M138.29,52.1c.16-.27.36-.56.69-.89l-1.41.67c.07.1.1.17.13.25.25-.09.45-.1.59-.03h0Z"/>
      <path class="cls-1" d="M137.56,51.88l-.43.55c.2-.14.39-.24.56-.3-.03-.08-.07-.15-.13-.25h0Z"/>
      <path class="cls-1" d="M138.29,52.1c.27.13.31.54-.05,1.19.59-.37,1.5-1.81.74-2.08-.32.33-.53.62-.69.89Z"/>
      <path class="cls-1" d="M138.29,52.1c-.14-.07-.34-.06-.59.03.14.32-.04.43-.56.3l1.1.86c-.26-.3-.22-.71.05-1.19h0Z"/>
      <path class="cls-1" d="M137.69,52.13c-.17.06-.35.15-.56.3.52.13.7.03.56-.3Z"/>
      <path class="cls-1" d="M138.29,52.1c-.28.49-.31.89-.05,1.19.36-.65.32-1.06.05-1.19Z"/>
      <path class="cls-1" d="M147.36,54.75v.06s.08-.03.12-.05c-.05,0-.09,0-.12,0h0Z"/>
      <path class="cls-1" d="M147.48,54.76c.11-.06.21-.13.36-.17-.11-.18-.41-.24-.55-.43l.07.59s.07.02.12,0h0Z"/>
      <path class="cls-1" d="M147.53,56.12c-.65-.51-.65-.98-.16-1.31v-.06c-.13-.05-.16-.24-.08-.59l-1.4.67,1.65,1.29Z"/>
      <path class="cls-1" d="M147.36,54.75l-.07-.59c-.08.35-.04.54.07.59Z"/>
      <path class="cls-1" d="M147.48,54.76s-.08.03-.11.05l.16,1.31c.49-.53.74-.85.31-1.53-.15.11-.27.16-.36.17Z"/>
      <path class="cls-1" d="M147.84,54.59c-.15.04-.25.11-.36.17.1-.02.21-.07.36-.17Z"/>
      <path class="cls-1" d="M147.53,56.12l-.16-1.31c-.49.32-.49.8.16,1.31Z"/>
      <path class="cls-1" d="M99.85,2.07c-1.79-.44-1.95,1.4-.46,2.28-.05-.62.83-2.19.46-2.28Z"/>
      <path class="cls-1" d="M110.12,63.21c.17-.41,1.16-.92.58-1.32-.95-1.12-1.04-.28-1.44.24.62-.45,1.23.19.86,1.08Z"/>
      <path class="cls-1" d="M109.02,62.35l1.1.86c.37-.89-.24-1.53-.86-1.08-.07.09-.14.17-.24.22Z"/>
      <path class="cls-1" d="M39.12,23.71l.42-.54c-1.28-1.09-1.64-1.84-2.5-.19l2.08.73Z"/>
      <path class="cls-1" d="M156.8,46.53l.55.43c-.21-.99-.39-1.13-.55-.43Z"/>
      <path class="cls-1" d="M156.47,45.82l.33.71c.16-.7.34-.56.55.43.85-1.79.98-2.79-.88-1.14Z"/>
      <path class="cls-1" d="M126.12,15.5c-.4-.91-2.6-.62-2.5-.2.4.91,2.61.62,2.5.2Z"/>
      <path class="cls-1" d="M113.09,10.63c.3.49.15.67-.43.55.5.09,1.03.28,1.53.31-.36-.53-.21-.71.43-.55l-1.1-.86c.36.53.21.71-.43.55Z"/>
      <path class="cls-1" d="M113.09,10.63l-.43.55c.58.12.73-.06.43-.55Z"/>
      <path class="cls-1" d="M113.52,10.08l-.43.55c.64.16.79-.02.43-.55Z"/>
      <path class="cls-1" d="M114.19,11.49l.43-.55c-.64-.16-.79.02-.43.55Z"/>
      <path class="cls-1" d="M107.3,64.55l.42-.54c-2.08-2.06-2.92-.97-.42.54Z"/>
      <path class="cls-1" d="M151.33,54.67c-1,.46-.8,1.74-.32,1.51,1-.46.8-1.74.32-1.51Z"/>
      <path class="cls-1" d="M166.19,58.3c-.46-1-1.74-.8-1.51-.32.46,1,1.74.8,1.51.32Z"/>
      <path class="cls-1" d="M106.54,74.59l-.98.12c.32.16.86-.16.98-.12Z"/>
      <path class="cls-1" d="M107.64,61.28l-.43.55c.5.1.65-.09.43-.55Z"/>
      <path class="cls-1" d="M124.49,34.59l-.43.55.55.43c-.27-.33-.41-.61-.12-.98Z"/>
      <path class="cls-1" d="M124.62,35.57l-.12-.98c-.29.37-.15.66.12.98Z"/>
      <path class="cls-1" d="M91.89,1.81l.7-.09c-.17-.07-.48.03-.7.09Z"/>
      <path class="cls-1" d="M91.89,1.81l-.28.03s.15,0,.28-.03Z"/>
      <path class="cls-1" d="M102.57,5.96l-.55-.43c-.04.3.09.66.12.98l.43-.55Z"/>
      <path class="cls-1" d="M102.45,4.98l-.12-.98c-.22.31-.12.7.12.98Z"/>
      <path class="cls-1" d="M102.33,4l.12.98c.07-.31-.02-.68-.12-.98Z"/>
      <path class="cls-1" d="M122.59,55.14c-.18-.02-.52-.24-1.13-.78l.68.96c.17-.07.31-.12.45-.17Z"/>
      <path class="cls-1" d="M132.81,58.83c-1.27.56-2.8-1.53-2.17-2.61-1.34.24-2.45-.56-3.33-2.41-1.12-.48-2.26-1.15-3-1.92.1,1.03-.27,1.8-1.43,1.8-.15.55.01,1.2-.13,1.4,1.36-.46,1.55.09,1.04,1.97l1.6-3.18c.36-.15,2.67,3.55,2.87,3.68,1.32.86,2.67-.83,2.99,3.55l.98-.12c-.39-.75-.18-1.47.59-2.16h0Z"/>
      <path class="cls-1" d="M120.92,46.61c.83.24,1.91,1.52,2.63,2.94.18-.5.59-1.01,1.34-1.51.12-.34-1.18-1.97-1.79-1.4-.04.04-.07.08-.1.08l1.64,1.29c-.49.98-1.52-.11-1.78-.81-.44.48-1.9-.46-1.95-1.22.1.22.08.43,0,.63h0Z"/>
      <path class="cls-1" d="M122.74,55.08s-.08.07-.15.06c-.14.05-.28.1-.45.17l-.68-.96c.02.21-.9.86-.85,1.1.04.19,1.68-.49,3.17,1.59.51-1.89.33-2.43-1.04-1.97h0Z"/>
      <path class="cls-1" d="M124.3,51.88c-.69-.71-1.05-1.51-.75-2.33-.72-1.42-1.79-2.71-2.63-2.94-.16.44-.61.8-.87.9l1.28-.36c2,.8.61,1.94.89,2.87.68,2.31,1.32,1.22.65,3.67,1.16,0,1.53-.77,1.43-1.8h0Z"/>
      <path class="cls-1" d="M120.92,46.61c.08-.2.1-.42,0-.63-.15.22-.33.43-.5.64.15-.06.32-.05.5,0h0Z"/>
      <path class="cls-1" d="M120.92,46.61c-.18-.05-.35-.05-.5,0-.18.22-.35.45-.53.68-.02.05-.04.09-.05.15-.03.1.04.11.15.08h.05c.27-.12.71-.48.87-.91h0Z"/>
      <path class="cls-1" d="M119.85,47.44c.01-.06.03-.1.05-.15-.09.11-.18.22-.26.33l.36-.1c-.1.03-.17.01-.15-.08h0Z"/>
      <path class="cls-1" d="M132.22,60.99c.35-.48,2.59-.59,1.17-2.63-.18.24-.38.38-.58.47-.77.69-.98,1.41-.59,2.16Z"/>
      <path class="cls-1" d="M124.89,48.04c-.75.5-1.16,1.01-1.34,1.51.4.8.69,1.63.75,2.33.75.77,1.88,1.44,3,1.92.88,1.84,1.99,2.65,3.33,2.41-.8-.92-1.37-2.52-2.41-3.44-1-.89-2.83-1.15-3.41-2.03-.68-1.03,1.59-3.17-.74-4.92-.45-.35-.77.54-.99.8.61-.56,1.92,1.06,1.79,1.4h0Z"/>
      <path class="cls-1" d="M122.87,47.19c-.1-.27-.08-.48.13-.48-.66.06-1.49-.42-2.08-.74.04.77,1.51,1.71,1.95,1.22h0Z"/>
      <path class="cls-1" d="M123.55,49.55c-.29.82.06,1.62.75,2.33-.07-.71-.35-1.54-.75-2.33Z"/>
      <path class="cls-1" d="M130.64,56.21c-.63,1.09.9,3.17,2.17,2.61.17-.16.34-.31.58-.47-1.71-.73-1.84-1.1-2.75-2.15Z"/>
      <path class="cls-1" d="M133.39,58.36c-.23.15-.41.31-.58.47.2-.09.4-.23.58-.47Z"/>
      <path class="cls-1" d="M91.59,17.75l2.08.73-.37-2.93c0,1.97-.57,2.71-1.72,2.2Z"/>
      <path class="cls-1" d="M92.1,15.94c-.48.77,1.83.42-.51,1.82.92-.31,1.49-1.05,1.72-2.2-.23.08-.63-.54-1.21.38Z"/>
      <path class="cls-1" d="M91.59,17.75c1.15.5,1.72-.23,1.72-2.2-.23,1.16-.8,1.89-1.72,2.2Z"/>
      <path class="cls-1" d="M120.57,53.23c-.5.54.86.88.89,1.13l1.41-.67-2.3-.46Z"/>
      <path class="cls-1" d="M122.59,55.14s.1-.04.15-.06c.14-.2-.02-.85.13-1.4-.4.39-.87.62-1.41.67.61.54.95.76,1.13.78h0Z"/>
      <path class="cls-1" d="M121.46,54.36c.54-.05,1.01-.28,1.41-.67l-1.41.67Z"/>
      <path class="cls-1" d="M122.74,55.09s-.1.04-.15.06c.07,0,.12-.01.15-.06Z"/>
      <path class="cls-1" d="M108.88,40.99l1.95-.24c-1.03-1.05-1.21-1.03-1.95.24Z"/>
      <path class="cls-1" d="M106.26,31.86c.46,1,1.74.8,1.51.32-.46-1-1.74-.8-1.51-.32Z"/>
      <path class="cls-1" d="M146.66,64.17c.38-.32.78-.52,1.21-.57-.92-.7-1.55-1.85-2.07-3.03.2.65,0,.92-.61.82,1.71,1.29,2.65,1.45,1.47,2.79h0Z"/>
      <path class="cls-1" d="M145.81,60.56c-.08-.18-.15-.36-.23-.54-.04-.07-.07-.13-.07-.17.03.07-.24.89-.31,1.53.61.11.81-.17.61-.82h0Z"/>
      <path class="cls-1" d="M146.66,64.17c-.15.17-.33.36-.55.58.57,0,3.78-.34,3.92-.48-.87.05-1.57-.22-2.16-.67-.43.06-.83.26-1.21.58h0Z"/>
      <path class="cls-1" d="M147.87,63.59c.59.45,1.29.72,2.16.67-.78-.53-1.5-.76-2.16-.67Z"/>
      <path class="cls-1" d="M145.81,60.56c-.04-.15-.11-.32-.2-.5,0-.01-.02-.03-.03-.04.07.18.15.36.23.54h0Z"/>
      <path class="cls-1" d="M147.87,63.59c.66-.08,1.37.14,2.16.67-.8-.66-3.85-3.3-4.42-4.2.08.18.15.35.2.5.51,1.18,1.15,2.33,2.07,3.03h0Z"/>
      <path class="cls-1" d="M146.11,64.75c-.53-1.09-.83-2.21-.91-3.37-.17,1.61-1.7,3.4.91,3.37Z"/>
      <path class="cls-1" d="M145.2,61.38c.53.9.83,2.02.91,3.37.18-.23.36-.42.55-.58,1.18-1.35.24-1.5-1.47-2.79Z"/>
      <path class="cls-1" d="M146.11,64.75c.23-.22.4-.4.55-.58-.19.16-.38.35-.55.58Z"/>
      <path class="cls-1" d="M145.2,61.38c.08,1.15.39,2.28.91,3.37-.08-1.34-.38-2.47-.91-3.37Z"/>
      <path class="cls-1" d="M141.09,64.37c1.93-1.86,1.27-2.85-1.22-1.84,1.19-.11,1.94.73,1.22,1.84Z"/>
      <path class="cls-1" d="M140.02,63.34c.26.42.76.67,1.07,1.03-.09-.82-.52-1.42-1.22-1.84.1.3.14.56.15.81h0Z"/>
      <path class="cls-1" d="M140.02,63.34c-.01-.24-.05-.5-.15-.81-.05.34.02.59.15.81Z"/>
      <path class="cls-1" d="M141.09,64.37c.72-1.11-.03-1.94-1.22-1.84.71.42,1.13,1.02,1.22,1.84Z"/>
      <path class="cls-1" d="M155.39,64.57c.07.16.13.32.21.5-.04-.2-.11-.36-.21-.5Z"/>
      <path class="cls-1" d="M154.64,64.88c.06-.15.22-.35.47-.6-.1-.08-.22-.14-.34-.18-.04-.02-.09-.03-.14-.05-.96-.24-2.12.54-.88,2.24-.39-.81.18-1.34.89-1.42Z"/>
      <path class="cls-1" d="M154.63,64.05s.09.03.14.05c-.04-.02-.09-.04-.14-.05Z"/>
      <path class="cls-1" d="M155.11,64.28c-.25.25-.4.45-.47.6.31-.03.65.02.96.19-.08-.18-.15-.34-.21-.5-.08-.11-.17-.21-.28-.29Z"/>
      <path class="cls-1" d="M154.88,65.18c-.5.16-.86.51-1.12,1.11.36-.05,1.02-.35,1.44-.67.08-.16.2-.34.4-.55-.32.08-.55.11-.72.11h0Z"/>
      <path class="cls-1" d="M155.2,65.62c.26-.19.43-.4.4-.55-.2.21-.32.39-.4.55Z"/>
      <path class="cls-1" d="M154.88,65.18c.17,0,.4-.03.72-.11-.27,0-.51.04-.72.11Z"/>
      <path class="cls-1" d="M154.88,65.18c-.25,0-.32-.11-.24-.31-.71.07-1.27.61-.89,1.42.27-.6.62-.95,1.12-1.11Z"/>
      <path class="cls-1" d="M154.88,65.18c.21-.07.44-.11.72-.11-.3-.18-.64-.23-.96-.19-.09.19,0,.3.24.31Z"/>
      <path class="cls-1" d="M150.33,62.74c-.36-.03-.14,1.35-.31,1.52.54.44,1.1.86,1.65,1.28.78.14-.47-2.46-1.35-2.81Z"/>
      <path class="cls-1" d="M149.36,61.14c.15.18.43.36.86.61l-.14-1.15c-.08-.03-.15-.06-.24-.1-.16.26-.32.47-.48.63h0Z"/>
      <path class="cls-1" d="M149.36,61.14c.16-.17.32-.38.48-.64.09.04.16.07.24.1l-.1-.8c-.7.68-.91.99-.62,1.33h0Z"/>
      <path class="cls-1" d="M131.76,61.25c-.16.04-.33,0-.52-.14l.55.43c-.05-.12-.05-.21-.03-.29Z"/>
      <path class="cls-1" d="M131.79,61.54c.14-.18.29-.36.43-.55-.16.13-.31.23-.46.26-.02.08-.02.17.03.29Z"/>
      <path class="cls-1" d="M131.76,61.25c.04-.15.19-.24.46-.26l-.98.12c.19.15.36.18.52.14Z"/>
      <path class="cls-1" d="M131.76,61.25c.15-.04.3-.13.46-.26-.27.03-.42.11-.46.26Z"/>
      <path class="cls-1" d="M24.04,18.23c-.09.16-.23.32-.47.45.29-.05.43-.21.47-.45Z"/>
      <path class="cls-1" d="M22.9,17.26c.38-.12.71-.05.93.11-.29-.62-.85-1.44-1.73-2.49.79.92,1.06,1.72.79,2.39Z"/>
      <path class="cls-1" d="M24.04,18.23c-.04.24-.18.4-.47.45.37.14.89.9,1.1.86,2.08-.45-1.46-3.8-2.56-4.65.87,1.05,1.44,1.88,1.73,2.49.28.2.38.53.21.86h0Z"/>
      <path class="cls-1" d="M24.04,18.23c.03-.21-.04-.5-.21-.86-.23-.16-.55-.22-.93-.11.24.42.84.72.67,1.41.24-.13.38-.29.47-.45h0Z"/>
      <path class="cls-1" d="M24.04,18.23c.18-.33.08-.66-.21-.86.17.36.24.65.21.86Z"/>
      <path class="cls-1" d="M22.9,17.26c.27-.67,0-1.47-.79-2.39,0,1,.33,1.56.79,2.39Z"/>
      <path class="cls-1" d="M28.22,24.06c.26.56.77.74,1.13.7-.42-.34-.79-.69-1-1.02-.13.07-.2.18-.13.32Z"/>
      <path class="cls-1" d="M29.65,24.68c.1-.07.15-.18.09-.3-.22-.48-.64-.68-.98-.71-.07.09-.12.19-.2.28.4.26.76.5,1.09.73h0Z"/>
      <path class="cls-1" d="M28.36,23.74c.21.33.58.68,1,1.02.11-.01.22-.04.29-.08-.33-.23-.69-.47-1.09-.73.08-.09.14-.18.21-.28-.16-.01-.3.02-.4.07h0Z"/>
      <path class="cls-1" d="M164.59,69.44l-.43.55c.43-.02.57-.2.43-.55Z"/>
      <path class="cls-1" d="M164.59,69.44c.19.41.03.59-.43.55l.76.15-.33-.7h0Z"/>
      <path class="cls-1" d="M164.59,69.44c.14.35,0,.53-.43.55.46.04.62-.14.43-.55Z"/>
      <path class="cls-1" d="M18.3,13.19s.04.05.04.08c0-.03-.02-.05-.04-.08Z"/>
      <path class="cls-1" d="M18.22,13.12s.05.02.06.03c-.02-.01-.04-.02-.06-.03Z"/>
      <path class="cls-1" d="M17.4,12.97c.4,0,.67.06.82.15.02.01.05.02.06.03.01,0,.01.02.02.03.02.02.04.05.04.08.05.19-.22.44-.82.68.1-.03.53.5.85.7.12,0,.24,0,.36.02,1.31-.56-.43-4.16-1.32-1.7h0Z"/>
      <path class="cls-1" d="M18.6,14.73c.05-.01.09-.04.13-.06-.11-.01-.23-.02-.36-.02.09.06.17.09.23.08Z"/>
      <path class="cls-1" d="M18.34,13.27s-.02-.05-.04-.08c0-.01,0-.02-.02-.03-.02-.01-.04-.02-.06-.03-.14-.08-.41-.13-.82-.15.1.25.02.68.12.98.56-.29.83-.52.82-.68h0Z"/>
      <path class="cls-1" d="M17.4,12.97c.41.02.67.07.82.15-.15-.09-.41-.15-.82-.15Z"/>
      <path class="cls-1" d="M18.28,13.16s.01.02.02.03c-.01-.01-.01-.02-.02-.03Z"/>
      <path class="cls-1" d="M18.34,13.27c.01.16-.26.39-.82.68.6-.24.87-.49.82-.68Z"/>
      <path class="cls-1" d="M126,36.39l.43-.05c-.11-.01-.19-.07-.24-.18-.01.11-.07.19-.19.23Z"/>
      <path class="cls-1" d="M126.43,36.34l-.43.05c-.07.03-.17.04-.29.04.3.15.7.08.98-.12-.11.03-.19.04-.27.03h0Z"/>
      <path class="cls-1" d="M126.19,36.17c-.03-.07-.05-.16-.05-.29l-.43.55.29-.04c.12-.04.18-.11.19-.23Z"/>
      <path class="cls-1" d="M126.19,36.17c0-.08,0-.17-.05-.29,0,.12.01.21.05.29Z"/>
      <path class="cls-1" d="M126.14,35.88c.04.12.05.21.05.29.04.1.12.16.24.18l.27-.03c-.2-.1-.35-.32-.55-.43h0Z"/>
      <path class="cls-1" d="M126,36.39l-.29.04c.12,0,.21-.01.29-.04Z"/>
      <path class="cls-1" d="M126.69,36.31l-.27.03c.08,0,.16,0,.27-.03Z"/>
      <path class="cls-1" d="M132.48,54.99l.31-1.53c-.18.51-.73.91-.31,1.53Z"/>
      <path class="cls-1" d="M132.79,53.46l-.31,1.53c.18-.5.71-.9.31-1.53Z"/>
      <path class="cls-1" d="M122.87,47.19c.26.69,1.28,1.79,1.78.81l-1.64-1.29c.02.24-.04.38-.13.48Z"/>
      <path class="cls-1" d="M122.87,47.19c.09-.1.16-.24.13-.48-.22,0-.23.21-.13.48Z"/>
    </g>
  </g>
</svg>