<svg width="358" height="39" viewBox="0 0 358 39" fill="none" xmlns="http://www.w3.org/2000/svg">
<path d="M81.0907 10.3559V4.11191C81.0907 3.52401 80.6643 3.07801 80.0755 3.07801C79.4867 3.07801 79.0603 3.52401 79.0603 4.11191V14.4307H75.8117V4.416C75.8117 1.78056 77.6187 0.0371094 80.0755 0.0371094C82.5323 0.0371094 84.3394 1.78056 84.3394 4.416V10.66C84.3394 11.1871 84.7252 11.5925 85.2531 11.5925C85.781 11.5925 86.1667 11.1871 86.1667 10.66V4.416C86.1667 1.78056 87.9738 0.0371094 90.4306 0.0371094C92.8874 0.0371094 94.6944 1.78056 94.6944 4.416V14.4307H91.4458V4.11191C91.4458 3.52401 91.0194 3.07801 90.4306 3.07801C89.8418 3.07801 89.4154 3.52401 89.4154 4.11191V10.3559C89.4154 12.8089 87.6692 14.6334 85.2531 14.6334C82.8369 14.6334 81.0907 12.8089 81.0907 10.3559Z" fill="#FF319C"/>
<path d="M103.242 0.0371094C103.709 0.0371094 104.034 0.320927 104.278 0.868288L110.511 14.4307H95.8924L102.207 0.868288C102.471 0.320927 102.775 0.0371094 103.242 0.0371094ZM105.273 9.36253C105.273 8.22726 104.359 7.33527 103.242 7.33527C102.126 7.33527 101.212 8.22726 101.212 9.36253C101.212 10.4978 102.126 11.3898 103.242 11.3898C104.359 11.3898 105.273 10.4775 105.273 9.36253Z" fill="#FF319C"/>
<path d="M111.851 0.240195H115.1V5.55163L119.709 0.645649C120.44 -0.144985 121.475 -0.205803 122.206 0.442922C122.917 1.09165 122.876 2.1661 122.146 2.95673L118.085 7.27481L122.186 11.6334C122.917 12.4241 122.958 13.4782 122.206 14.1878C121.455 14.8973 120.379 14.8162 119.648 14.0256L115.1 9.18044V14.4311H111.851V0.240195Z" fill="#FF319C"/>
<path d="M124.561 11.2888V0.240234H127.809V14.4311H124.561V11.2888Z" fill="#FF319C"/>
<path d="M136.114 10.1937V4.31464C136.114 3.50373 135.586 2.97664 134.895 2.97664C134.205 2.97664 133.677 3.50373 133.677 4.31464V14.4307H130.428V4.51737C130.428 1.88192 132.317 0.0371094 134.895 0.0371094C137.474 0.0371094 139.362 1.88192 139.362 4.51737V10.3356C139.362 11.1465 139.89 11.6736 140.58 11.6736C141.271 11.6736 141.799 11.1465 141.799 10.3356V0.239836H145.047V10.1937C145.047 12.7278 143.179 14.6334 140.58 14.6334C137.982 14.6334 136.114 12.7278 136.114 10.1937Z" fill="#FF319C"/>
<path d="M146.976 7.33527C146.976 3.30101 150.306 0.0371094 154.408 0.0371094C156.418 0.0371094 158.245 0.848016 159.585 2.16574L157.433 4.53764C156.661 3.76728 155.585 3.28073 154.408 3.28073C152.134 3.28073 150.469 5.10527 150.469 7.33527C150.469 9.56526 152.134 11.3898 154.408 11.3898C156.316 11.3898 157.656 10.2748 157.94 8.75435H153.595V5.81482H161.514V7.33527C161.514 11.4709 158.428 14.6334 154.408 14.6334C150.387 14.6334 146.976 11.3695 146.976 7.33527Z" fill="#FF319C"/>
<path d="M166.712 7.33527C166.712 3.30101 169.859 0.0371094 174.163 0.0371094C178.468 0.0371094 181.615 3.30101 181.615 7.33527C181.615 11.3695 178.468 14.6334 174.163 14.6334C169.859 14.6334 166.712 11.3695 166.712 7.33527ZM178.082 7.33527C178.082 5.10527 176.336 3.28073 174.163 3.28073C171.991 3.28073 170.245 5.10527 170.245 7.33527C170.245 9.56526 171.991 11.3898 174.163 11.3898C176.336 11.3898 178.082 9.56526 178.082 7.33527Z" fill="#FF319C"/>
<path d="M183.646 0.240234H188.579C191.341 0.240234 193.493 2.36886 193.493 5.00431C193.493 7.63975 191.341 9.76838 188.579 9.76838H186.894V14.4311H183.646V0.240234ZM190.001 5.00431C190.001 4.11231 189.27 3.3825 188.356 3.3825H188.336C187.402 3.3825 186.691 4.07177 186.691 5.00431C186.691 5.93685 187.402 6.62612 188.336 6.62612H188.356C189.27 6.62612 190.001 5.89631 190.001 5.00431Z" fill="#FF319C"/>
<path d="M195.258 0.240234H202.832C203.725 0.240234 204.375 0.888959 204.375 1.76068C204.375 2.63241 203.725 3.28113 202.832 3.28113H199.603C198.913 3.28113 198.405 3.78795 198.405 4.47722V4.51777C198.405 5.20704 198.913 5.71385 199.603 5.71385H201.817C202.71 5.71385 203.36 6.36258 203.36 7.2343C203.36 8.10603 202.71 8.75475 201.817 8.75475H199.705C198.954 8.75475 198.405 9.30211 198.405 10.0522V10.0927C198.405 10.8428 198.954 11.3902 199.705 11.3902H202.832C203.725 11.3902 204.375 12.0389 204.375 12.9106C204.375 13.7824 203.725 14.4311 202.832 14.4311H195.258V0.240234Z" fill="#FF319C"/>
<path d="M211.969 10.1937V4.31464C211.969 3.50373 211.441 2.97664 210.75 2.97664C210.06 2.97664 209.532 3.50373 209.532 4.31464V14.4307H206.283V4.51737C206.283 1.88192 208.172 0.0371094 210.75 0.0371094C213.329 0.0371094 215.217 1.88192 215.217 4.51737V10.3356C215.217 11.1465 215.745 11.6736 216.435 11.6736C217.126 11.6736 217.654 11.1465 217.654 10.3356V0.239836H220.902V10.1937C220.902 12.7278 219.034 14.6334 216.435 14.6334C213.837 14.6334 211.969 12.7278 211.969 10.1937Z" fill="#FF319C"/>
<path d="M223.522 0.240234H229.613V14.4311H223.522V0.240234ZM227.988 3.68659C227.988 2.91623 227.359 2.2675 226.588 2.2675C225.775 2.2675 225.146 2.91623 225.146 3.68659C225.146 4.45695 225.775 5.10567 226.588 5.10567C227.4 5.10567 227.988 4.47722 227.988 3.68659Z" fill="#FF319C"/>
<path d="M237.917 10.1937V4.31464C237.917 3.50373 237.389 2.97664 236.699 2.97664C236.009 2.97664 235.481 3.50373 235.481 4.31464V14.4307H232.232V4.51737C232.232 1.88192 234.12 0.0371094 236.699 0.0371094C239.278 0.0371094 241.166 1.88192 241.166 4.51737V10.3356C241.166 11.1465 241.694 11.6736 242.384 11.6736C243.074 11.6736 243.602 11.1465 243.602 10.3356V0.239836H246.851V10.1937C246.851 12.7278 244.983 14.6334 242.384 14.6334C239.785 14.6334 237.917 12.7278 237.917 10.1937Z" fill="#FF319C"/>
<path d="M248.78 7.33527C248.78 3.30101 252.11 0.0371094 256.211 0.0371094C258.221 0.0371094 260.048 0.848016 261.388 2.16574L259.236 4.53764C258.465 3.76728 257.389 3.28073 256.211 3.28073C253.937 3.28073 252.272 5.10527 252.272 7.33527C252.272 9.56526 253.937 11.3898 256.211 11.3898C258.12 11.3898 259.46 10.2748 259.744 8.75435H255.399V5.81482H263.317V7.33527C263.317 11.4709 260.231 14.6334 256.211 14.6334C252.191 14.6334 248.78 11.3695 248.78 7.33527Z" fill="#FF319C"/>
<path d="M264.637 11.2888H270.018C270.992 11.2888 271.541 10.7415 271.541 10.0117C271.541 9.28184 270.992 8.75475 270.018 8.75475H269.226C266.708 8.75475 264.698 7.11267 264.698 4.55831C264.698 2.00396 266.708 0.240234 269.226 0.240234H274.688V3.3825H269.429C268.556 3.3825 268.048 3.86904 268.048 4.53804C268.048 5.20704 268.556 5.71385 269.429 5.71385H274.688V14.4311H264.637V11.2888Z" fill="#FF319C"/>
<path d="M276.495 12.6064C276.495 11.4914 277.408 10.5791 278.525 10.5791C279.642 10.5791 280.556 11.4914 280.556 12.6064C280.556 12.9915 280.434 13.3565 280.17 13.843L278.383 17.2691H276.454L277.754 14.4715C277.023 14.1674 276.495 13.4578 276.495 12.6064Z" fill="#FF319C"/>
<path d="M60.2791 34.6835V28.4396C60.2791 27.8516 59.8527 27.4056 59.2639 27.4056C58.6751 27.4056 58.2487 27.8516 58.2487 28.4396V38.7583H55.0001V28.7436C55.0001 26.1082 56.8071 24.3647 59.2639 24.3647C61.7207 24.3647 63.5278 26.1082 63.5278 28.7436V34.9876C63.5278 35.5147 63.9135 35.9202 64.4414 35.9202C64.9693 35.9202 65.3551 35.5147 65.3551 34.9876V28.7436C65.3551 26.1082 67.1622 24.3647 69.619 24.3647C72.0758 24.3647 73.8828 26.1082 73.8828 28.7436V38.7583H70.6342V28.4396C70.6342 27.8516 70.2078 27.4056 69.619 27.4056C69.0302 27.4056 68.6038 27.8516 68.6038 28.4396V34.6835C68.6038 37.1365 66.8576 38.9611 64.4414 38.9611C62.0253 38.9611 60.2791 37.1365 60.2791 34.6835Z" fill="#FF319C"/>
<path d="M82.4104 24.3647C83.5475 24.3647 84.4408 25.0946 85.0094 26.5542L89.7199 38.7583H86.1464L84.9891 35.6566H79.7303L78.573 38.7583H75.101L79.8115 26.5542C80.38 25.0946 81.2734 24.3647 82.4104 24.3647ZM83.9129 32.7171L82.3698 28.5612L80.8064 32.7171H83.9129Z" fill="#FF319C"/>
<path d="M91.0386 24.5673H94.2872V29.8788L98.8962 24.9728C99.6272 24.1822 100.663 24.1213 101.394 24.7701C102.104 25.4188 102.064 26.4932 101.333 27.2839L97.2719 31.602L101.373 35.9606C102.104 36.7512 102.145 37.8054 101.394 38.5149C100.642 39.2245 99.5663 39.1434 98.8353 38.3527L94.2872 33.5076V38.7582H91.0386V24.5673Z" fill="#FF319C"/>
<path d="M103.749 35.616V24.5674H106.998V38.7582H103.749V35.616Z" fill="#FF319C"/>
<path d="M115.302 34.5213V28.6423C115.302 27.8314 114.774 27.3043 114.084 27.3043C113.394 27.3043 112.866 27.8314 112.866 28.6423V38.7583H109.617V28.845C109.617 26.2096 111.505 24.3647 114.084 24.3647C116.663 24.3647 118.551 26.2096 118.551 28.845V34.6633C118.551 35.4742 119.079 36.0013 119.769 36.0013C120.459 36.0013 120.987 35.4742 120.987 34.6633V24.5675H124.236V34.5213C124.236 37.0554 122.368 38.9611 119.769 38.9611C117.17 38.9611 115.302 37.0554 115.302 34.5213Z" fill="#FF319C"/>
<path d="M126.165 31.6629C126.165 27.6286 129.495 24.3647 133.596 24.3647C135.606 24.3647 137.433 25.1757 138.773 26.4934L136.621 28.8653C135.85 28.0949 134.774 27.6084 133.596 27.6084C131.322 27.6084 129.657 29.4329 129.657 31.6629C129.657 33.8929 131.322 35.7174 133.596 35.7174C135.505 35.7174 136.845 34.6024 137.129 33.082H132.784V30.1425H140.702V31.6629C140.702 35.7985 137.616 38.9611 133.596 38.9611C129.576 38.9611 126.165 35.6972 126.165 31.6629Z" fill="#FF319C"/>
<path d="M145.9 31.6629C145.9 27.6286 149.047 24.3647 153.352 24.3647C157.656 24.3647 160.803 27.6286 160.803 31.6629C160.803 35.6972 157.656 38.9611 153.352 38.9611C149.047 38.9611 145.9 35.6972 145.9 31.6629ZM157.27 31.6629C157.27 29.4329 155.524 27.6084 153.352 27.6084C151.179 27.6084 149.433 29.4329 149.433 31.6629C149.433 33.8929 151.179 35.7174 153.352 35.7174C155.524 35.7174 157.27 33.8929 157.27 31.6629Z" fill="#FF319C"/>
<path d="M162.692 33.0008V24.5674H165.94V33.163C165.94 34.7443 167.077 35.9201 168.641 35.9201C170.204 35.9201 171.341 34.7443 171.341 33.163V24.5674H174.59V33.0008C174.59 36.6499 172.092 38.961 168.641 38.961C165.189 38.961 162.692 36.6499 162.692 33.0008Z" fill="#FF319C"/>
<path d="M177.168 24.5674H181.98C184.639 24.5674 186.731 26.5744 186.731 29.1287C186.731 30.8925 185.837 32.3115 184.436 33.0819L187.726 38.7582H183.848L181.005 33.6901H180.416V38.7582H177.168V24.5674ZM183.238 29.1287C183.238 28.2976 182.568 27.6083 181.756 27.6083H181.736C180.863 27.6083 180.213 28.257 180.213 29.1287C180.213 30.0005 180.863 30.6492 181.736 30.6492H181.756C182.568 30.6492 183.238 29.9599 183.238 29.1287Z" fill="#FF319C"/>
<path d="M192.538 31.6629C192.538 27.6286 195.685 24.3647 199.989 24.3647C204.294 24.3647 207.441 27.6286 207.441 31.6629C207.441 35.6972 204.294 38.9611 199.989 38.9611C195.685 38.9611 192.538 35.6972 192.538 31.6629ZM203.908 31.6629C203.908 29.4329 202.162 27.6084 199.989 27.6084C197.817 27.6084 196.07 29.4329 196.07 31.6629C196.07 33.8929 197.817 35.7174 199.989 35.7174C202.162 35.7174 203.908 33.8929 203.908 31.6629Z" fill="#FF319C"/>
<path d="M210.588 35.8998L208.212 24.5674H211.623L213.796 35.3524L215.42 28.3989C215.867 26.473 217.004 25.581 218.364 25.581C219.725 25.581 220.902 26.473 221.349 28.3989L223.014 35.4943L225.207 24.5674H228.516L226.141 35.8998C225.714 37.9879 224.679 38.961 223.034 38.961C221.39 38.961 220.273 38.0284 219.786 35.9201L218.344 29.7572L216.903 35.9201C216.415 38.0284 215.339 38.961 213.694 38.961C212.05 38.961 211.014 37.9879 210.588 35.8998Z" fill="#FF319C"/>
<path d="M235.826 34.5213V28.6423C235.826 27.8314 235.298 27.3043 234.608 27.3043C233.917 27.3043 233.389 27.8314 233.389 28.6423V38.7583H230.141V28.845C230.141 26.2096 232.029 24.3647 234.608 24.3647C237.186 24.3647 239.075 26.2096 239.075 28.845V34.6633C239.075 35.4742 239.602 36.0013 240.293 36.0013C240.983 36.0013 241.511 35.4742 241.511 34.6633V24.5675H244.76V34.5213C244.76 37.0554 242.892 38.9611 240.293 38.9611C237.694 38.9611 235.826 37.0554 235.826 34.5213Z" fill="#FF319C"/>
<path d="M252.658 35.8998L250.282 24.5674H253.693L255.866 35.3524L257.49 28.3989C257.937 26.473 259.074 25.581 260.434 25.581C261.795 25.581 262.972 26.473 263.419 28.3989L265.084 35.4943L267.277 24.5674H270.586L268.211 35.8998C267.784 37.9879 266.749 38.961 265.104 38.961C263.46 38.961 262.343 38.0284 261.856 35.9201L260.414 29.7572L258.972 35.9201C258.485 38.0284 257.409 38.961 255.764 38.961C254.12 38.961 253.084 37.9879 252.658 35.8998Z" fill="#FF319C"/>
<path d="M277.145 24.3647C277.612 24.3647 277.937 24.6486 278.18 25.1959L284.414 38.7583H269.795L276.109 25.1959C276.373 24.6486 276.678 24.3647 277.145 24.3647ZM279.175 33.6902C279.175 32.5549 278.261 31.6629 277.145 31.6629C276.028 31.6629 275.114 32.5549 275.114 33.6902C275.114 34.8254 276.028 35.7174 277.145 35.7174C278.261 35.7174 279.175 34.8052 279.175 33.6902Z" fill="#FF319C"/>
<path d="M287.52 32.1692L282.87 27.2227C282.16 26.4726 282.14 25.4792 282.83 24.8102C283.5 24.1615 284.535 24.2629 285.246 25.013L289.205 29.2702L293.104 25.0332C293.794 24.2831 294.83 24.1615 295.5 24.8102C296.17 25.459 296.109 26.4523 295.418 27.2024L290.769 32.1692V38.7578H287.52V32.1692Z" fill="#FF319C"/>
<path d="M297.124 36.9337C297.124 35.8187 298.037 34.9064 299.154 34.9064C300.271 34.9064 301.184 35.8187 301.184 36.9337C301.184 38.0487 300.271 38.961 299.154 38.961C298.037 38.961 297.124 38.0487 297.124 36.9337ZM297.631 24.5674H300.677V34.0955H297.631V24.5674Z" fill="#FF319C"/>
</svg>
