<?xml version="1.0" encoding="UTF-8"?>
<svg id="_레이어_2" data-name="레이어 2" xmlns="http://www.w3.org/2000/svg" viewBox="0 0 84 93.75">
  <defs>
    <style>
      .cls-1 {
        fill: #ff319c;
      }
    </style>
  </defs>
  <g id="_레이어_1-2" data-name="레이어 1">
    <path class="cls-1" d="M69.27,1.62l-10.56,18.25-.18.32.24.27,4.07,4.5.33.36.37-.32,1.12-.99,2.19,1.31-7.25,11.85-.41.67.78.09,10.86,1.22-6.76,22.05-.1.33.27.21,4.22,3.24.2.16.24-.07,15.08-4.54-29.33,33.22-5.42-18.14-.16-.55-.52.24-15.62,7.13-9.45-13.4-.19-.27-.32.06-5.1,1.01-.33.07-.06.33-1.97,10.48-11.93-3.89L0,52.96l3.76-6.48,8.95,2.34.3.08.2-.24,2.55-2.96.21-.25-.14-.29-.59-1.26,11.23-12.55.17-.19-.06-.25-2.23-9.66,8.56-2.96,8.35,3.07.25.09.21-.15,3.71-2.62,2.05,1.94.38.36.34-.39L66.15,0l2.83.22.29,1.4Z"/>
  </g>
</svg>