<?xml version="1.0" encoding="UTF-8"?>
<svg id="_레이어_2" data-name="레이어 2" xmlns="http://www.w3.org/2000/svg" viewBox="0 0 80.98 73.91">
  <defs>
    <style>
      .cls-1 {
        fill: #ff319c;
      }
    </style>
  </defs>
  <g id="_레이어_1-2" data-name="레이어 1">
    <path class="cls-1" d="M1.94,56.62l14.94,1.64.48.05.07-.48,1.53-10.7.03-.2-.12-.16-3.12-4.39,1.4-22.12,5.76-4.63.15-.12.03-.19,2.24-13.56,27.08-1.77,8.93,5.03.45.25.24-.46,2.3-4.39,5.05-.15,5.14,4.8,1.07,3.13.08.22.22.08,5.08,1.93-6.07,56.46-12.04,6.99-21-2.41-3.3-3.65-.12-.14-.18-.02L0,62.65l1.94-6.03Z"/>
  </g>
</svg>