<?xml version="1.0" encoding="UTF-8"?>
<svg id="_레이어_2" data-name="레이어 2" xmlns="http://www.w3.org/2000/svg" viewBox="0 0 97.79 107.65">
  <defs>
    <style>
      .cls-1 {
        fill: none;
        stroke: #ff319c;
      }
    </style>
  </defs>
  <g id="_레이어_1-2" data-name="레이어 1">
    <path class="cls-1" d="M63.18,64.06l-.02.35.32.14,13.94,6.03.6.26.1-.64,2.64-17.77,15.42,2.4-5.67,2.88-.26.13v.29s-.87,21.15-.87,21.15l-30.41.44h-.36s-.11.35-.11.35l-8.45,26.78-26.58-18.55.41-.88,2.52.6.43.1.15-.41,2.24-6.02.19-.5-.51-.15-15-4.52-.3-.09-.21.23-3.01,3.22-9.64-6.71L52.37,16.32l.59-.64-.85-.18-3.67-.79,7.69-7.05.48-.45-.56-.35-6.6-4.13.29-2.15,17.14,3.05-3.7,60.43Z"/>
  </g>
</svg>