<?xml version="1.0" encoding="UTF-8"?>
<svg id="_레이어_2" data-name="레이어 2" xmlns="http://www.w3.org/2000/svg" viewBox="0 0 87.17 86.13">
  <defs>
    <style>
      .cls-1 {
        fill: #ff319c;
      }
    </style>
  </defs>
  <g id="_레이어_1-2" data-name="레이어 1">
    <path class="cls-1" d="M16.7,8.02l.69.52.1-.86.68-5.83,1.93-1.85,18.76,27.1.1.14.17.05,8.38,2.56.96.29-.35-.94-3.91-10.67,15.23,8.38,1.86,8.33.13.57.55-.22,2.71-1.08.23-.09.07-.24,1.45-5.41,2.81-1.03.4-.14-.08-.41-.75-4.13,6.02-6.42,6.81,2.22,5.54,11.03-3.51,2.65-.16.12-.03.2-5.43,35.61-.12.78.75-.22,4.06-1.2,2.75,12.89-10.87-1.62-1.91-4-.17-.36-.39.09-35.61,8.35-.29.07-.08.28-.72,2.58-9.31-3.37-3.23-7.25,2.73-.47.28-.05.1-.27,4.67-12.55.09-.24-.14-.21-10.53-15.79,7.29-3.47.74-.35-.66-.5L1.58,22.01l4.45-1.82.57-.23-.35-.51L0,10.35,7.16.91l9.54,7.11Z"/>
  </g>
</svg>