<?xml version="1.0" encoding="UTF-8"?>
<svg id="_레이어_2" data-name="레이어 2" xmlns="http://www.w3.org/2000/svg" viewBox="0 0 64.29 72.76">
  <defs>
    <style>
      .cls-1 {
        fill: none;
        stroke: #ff319c;
      }
    </style>
  </defs>
  <g id="_레이어_1-2" data-name="레이어 1">
    <path class="cls-1" d="M1.26,41.42l1.73-1.52.24-.21-.1-.31L.56,31.18l3.31-3.82.18-.2-.07-.26-1.5-5.29,4.68-4.43.21-.2-.07-.28-.66-2.78,1.16-1.99,2.24.4.35.06.17-.31,3.98-7.2,3.17.88.29.08.21-.21L23.13.55l35.52,7.72,5.1,49.19-36.08,14.71-3.92-4.11-.14-.15h-.2s-5.36-.25-5.36-.25l-3.65-5.78-.11-.17-.19-.05-3.58-.93-1.43-5.85-.05-.21-.19-.11-3.86-2.1-3.73-11.05Z"/>
  </g>
</svg>