<?xml version="1.0" encoding="UTF-8"?>
<svg id="_레이어_2" data-name="레이어 2" xmlns="http://www.w3.org/2000/svg" viewBox="0 0 117.34 78.97">
  <defs>
    <style>
      .cls-1 {
        fill: #ff319c;
      }

      .cls-2 {
        fill: #e6e7e8;
      }
    </style>
  </defs>
  <g id="_레이어_1-2" data-name="레이어 1">
    <path class="cls-1" d="M117.34,1.58l-.03.71-6.74,3.77-16.43,58.97,7.39,9.41,3.28,2.31,4.27,1.57-.7.41-13.8.26-.71-.86-1.98.02-.78-1.16,4.74-1.12.67-.68-9.87-.57.83-1.84,2.09-.08.55-.41-9.53-13.59-.83,1.68-10.63-6.69L1.63,74.59l-1.48-1.3-.16-1.22L98.48,0l18.86,1.58Z"/>
    <path class="cls-2" d="M81.75,33.36h5.5c1.95,0,3.25-1.31,3.25-3.05s-1.31-3.05-3.25-3.05h-9.73v-3.6h10.07c4.04,0,6.93,2.78,6.93,6.56s-2.89,6.59-6.93,6.59h-2.19v4.79h-3.65v-8.24ZM80.51,46.54c0-1.77,1.34-3.11,3.1-3.11s3.1,1.34,3.1,3.11-1.4,3.11-3.1,3.11-3.1-1.4-3.1-3.11Z"/>
  </g>
</svg>