<svg width="358" height="263" viewBox="0 0 358 263" fill="none" xmlns="http://www.w3.org/2000/svg">
<path d="M316.611 93.3792L161.366 107.844L165.784 155.115L321.015 140.65L316.611 93.3929V93.3792ZM290.655 120.597H293.344V118.405H290.655V116.282H293.344V112.57H296.17V128.158H293.344V122.775H290.655V120.597ZM278.733 114.268H289.832V116.515H278.733V114.268ZM257.674 114.392H269.706V116.638H257.674V114.392ZM231.045 114.898H242.405C242.405 119.076 242.185 122.021 241.678 124.282L238.975 123.994C239.387 122.09 239.538 119.391 239.538 117.159H231.059V114.885L231.045 114.898ZM198.147 134.075C193.387 134.075 190.657 132.528 190.657 130.048C190.657 127.569 193.387 126.049 198.12 126.049C202.853 126.049 205.638 127.61 205.638 130.048C205.638 132.487 202.908 134.075 198.147 134.075ZM207.86 124.871H188.407V122.624H196.666V120.556H190.986V113.049H205.418V115.323H193.812V118.309H205.583V120.556H199.519V122.624H207.86V124.871ZM208.725 122.747C211.715 121.665 213.746 119.35 213.897 116.227H209.575V113.94H220.907V116.227H216.805C217.052 119.296 219.22 121.336 221.62 122.117L220.07 124.364C218.397 123.706 216.325 122.09 215.378 120.117C214.747 122.199 212.484 124.24 210.398 124.939L208.725 122.747ZM226.175 134.075H223.322V128.405H212.017V126.158H226.175V134.075ZM229.221 119.967H226.148V125.076H223.294V112.556H226.148V117.652H229.221V119.967ZM235.71 129.665C233.487 129.761 231.718 129.815 230.058 129.815L229.701 127.528C231.251 127.528 232.678 127.528 234.119 127.501V121.446H236.821V127.377C239.455 127.227 241.458 127.09 243.173 126.87L243.393 129.021C241.39 129.281 238.221 129.528 235.71 129.678V129.665ZM250.087 123.679H247.234V134.048H244.435V112.542H247.234V121.35H250.087V123.665V123.679ZM257.331 129.035C257.235 128.213 257.084 127.418 256.974 126.624H259.951L259.224 118.378C260.171 118.282 261.09 118.131 262.009 118.022C262.174 120.912 262.297 123.761 262.462 126.638L264.877 126.569C265.041 123.72 265.22 120.843 265.357 117.981L268.059 118.296L267.305 126.405C268.54 126.309 269.555 126.213 270.351 126.049C270.419 126.775 270.501 127.542 270.543 128.268C268.005 128.706 262.133 129.062 257.317 129.062L257.331 129.035ZM277.32 123.172H274.274V134.048H271.448V112.542H274.274V120.816H277.32V123.158V123.172ZM278.115 123.61H280.722L280.214 117.693C281.134 117.57 282.053 117.501 282.999 117.378C283.068 119.446 283.164 121.473 283.26 123.556C283.96 123.556 284.659 123.501 285.359 123.487C285.428 121.46 285.524 119.432 285.647 117.405L288.35 117.665L287.787 123.336C288.748 123.24 289.626 123.172 290.421 123.021L290.668 125.172C287.966 125.651 282.958 125.939 278.486 125.939L278.102 123.597L278.115 123.61ZM296.622 133.473H281.765V127.172H284.618V131.226H296.636V133.473H296.622Z" fill="#FF319C"/>
<path d="M198.12 128.295C195.335 128.295 193.551 128.966 193.551 130.076C193.551 131.185 195.335 131.843 198.12 131.843C200.905 131.843 202.729 131.185 202.729 130.076C202.729 128.966 200.918 128.295 198.12 128.295Z" fill="#FF319C"/>
<path d="M86.8306 31.6703C87.7361 33.314 88.9845 34.6016 90.5759 35.5331C92.1673 36.4645 93.9645 36.944 95.9812 36.944C97.9979 36.944 99.7951 36.4782 101.387 35.5331C102.978 34.5879 104.226 33.3003 105.132 31.6703C106.037 30.0265 106.49 28.191 106.49 26.1363V10.3701C106.49 9.61672 106.723 9.00032 107.203 8.50719C107.684 8.01407 108.301 7.76751 109.055 7.76751C109.81 7.76751 110.427 8.01407 110.908 8.50719C111.388 9.00032 111.621 9.63042 111.621 10.3701V36.4371H119.825V11.1372C119.825 8.95922 119.358 7.02782 118.439 5.35669C117.52 3.68555 116.231 2.38425 114.598 1.46649C112.952 0.548735 111.113 0.0830078 109.055 0.0830078C106.998 0.0830078 105.159 0.548735 103.513 1.46649C101.867 2.38425 100.591 3.68555 99.6717 5.35669C98.7525 7.02782 98.286 8.95922 98.286 11.1372V26.9034C98.286 27.5883 98.0665 28.1499 97.6138 28.5883C97.1748 29.0266 96.626 29.2595 95.9675 29.2595C95.309 29.2595 94.774 29.0403 94.3212 28.5883C93.8822 28.1499 93.649 27.5746 93.649 26.9034V11.1372C93.649 8.95922 93.1825 7.02782 92.2634 5.35669C91.3442 3.68555 90.0546 2.38425 88.422 1.46649C86.7758 0.548735 84.9374 0.0830078 82.8796 0.0830078C80.8217 0.0830078 78.9833 0.548735 77.3371 1.46649C75.6908 2.38425 74.4149 3.68555 73.4957 5.35669C72.5766 7.02782 72.1101 8.95922 72.1101 11.1372V36.4371H80.3141V10.3701C80.3141 9.61672 80.5473 9.00032 81.0275 8.50719C81.5076 8.01407 82.125 7.76751 82.8796 7.76751C83.6341 7.76751 84.2515 8.01407 84.7316 8.50719C85.2118 9.00032 85.445 9.63042 85.445 10.3701V26.1363C85.445 28.191 85.8977 30.0265 86.8032 31.6703H86.8306Z" fill="#FF319C"/>
<path d="M144.053 2.17878C143.435 0.781599 142.571 0.0830078 141.432 0.0830078C140.856 0.0830078 140.349 0.26108 139.951 0.589829C139.539 0.932275 139.169 1.46649 138.826 2.17878L122.871 36.4371H159.802L144.053 2.17878ZM144.025 28.0814C143.216 28.5198 142.352 28.7526 141.432 28.7526C140.513 28.7526 139.649 28.5335 138.84 28.0814C138.03 27.6431 137.413 27.013 136.974 26.2185C136.535 25.4104 136.302 24.5474 136.302 23.6296C136.302 22.7119 136.535 21.8489 136.987 21.0681C137.454 20.2874 138.071 19.6573 138.853 19.2052C139.635 18.7395 140.5 18.5203 141.419 18.5203C142.338 18.5203 143.202 18.7532 143.984 19.2052C144.766 19.6709 145.397 20.2874 145.85 21.0681C146.316 21.8489 146.536 22.7119 146.536 23.6296C146.536 24.5474 146.316 25.4104 145.864 26.2185C145.425 27.0267 144.794 27.6431 143.998 28.0814H144.025Z" fill="#FF319C"/>
<path d="M171.381 23.1916L182.864 35.4101C183.783 36.3963 184.853 36.9443 186.074 37.0264C187.282 37.1086 188.379 36.7114 189.326 35.821C190.245 34.9307 190.698 33.8896 190.684 32.6979C190.67 31.5062 190.19 30.3967 189.271 29.3693L178.913 18.3563L189.175 7.45276C190.094 6.46651 190.574 5.35699 190.615 4.15157C190.643 2.94616 190.217 1.91882 189.339 1.11065C188.42 0.288778 187.364 -0.0810643 186.184 0.0148208C185.004 0.0970079 183.948 0.644922 183.029 1.63117L171.381 14.0003V0.590131H163.177V36.4374H171.381V23.1916Z" fill="#FF319C"/>
<path d="M203.484 28.4929V8.5214V0.590332H195.28V8.5214V28.4929V36.4376H203.484V28.4929Z" fill="#FF319C"/>
<path d="M218.3 10.8769C218.3 9.84958 218.588 9.02771 219.178 8.42501C219.754 7.8086 220.495 7.50725 221.387 7.50725C222.279 7.50725 223.006 7.8086 223.596 8.42501C224.172 9.04141 224.474 9.86328 224.474 10.8769V25.7254C224.474 27.8486 224.968 29.7526 225.942 31.4648C226.916 33.177 228.26 34.5057 229.961 35.4783C231.676 36.4508 233.597 36.944 235.751 36.944C237.905 36.944 239.839 36.4508 241.54 35.4783C243.255 34.5057 244.586 33.1633 245.56 31.4648C246.534 29.7526 247.028 27.8486 247.028 25.7254V0.589829H238.824V26.0952C238.824 27.1226 238.536 27.9445 237.946 28.5472C237.37 29.1636 236.629 29.4649 235.737 29.4649C234.845 29.4649 234.118 29.1636 233.528 28.5472C232.952 27.9308 232.65 27.1089 232.65 26.0952V11.3974C232.65 9.21948 232.156 7.26069 231.182 5.53476C230.208 3.80883 228.864 2.46644 227.163 1.52128C225.448 0.562433 223.527 0.0830078 221.373 0.0830078C219.219 0.0830078 217.285 0.562433 215.584 1.52128C213.869 2.48013 212.538 3.82252 211.564 5.53476C210.59 7.26069 210.096 9.21948 210.096 11.3974V36.4371H218.3V10.8769Z" fill="#FF319C"/>
<path d="M261.282 34.4646C264.149 36.1221 267.277 36.944 270.666 36.944C274.055 36.944 277.059 36.1358 279.789 34.5057C282.519 32.8894 284.673 30.6703 286.251 27.8486C287.828 25.0268 288.61 21.9174 288.61 18.5066V14.6712H268.608V22.0955H279.597C279.432 23.0406 279.103 23.9173 278.609 24.7392C277.855 25.9857 276.785 26.9719 275.399 27.6842C274.013 28.3965 272.436 28.7663 270.652 28.7663C268.773 28.7663 267.072 28.3006 265.549 27.3828C264.026 26.4651 262.832 25.2186 261.982 23.6707C261.131 22.1229 260.706 20.3969 260.706 18.5203C260.706 16.6437 261.131 14.9315 261.982 13.3699C262.832 11.8221 264.026 10.5756 265.549 9.65781C267.072 8.74006 268.773 8.27433 270.652 8.27433C272.12 8.27433 273.519 8.56198 274.837 9.1236C276.154 9.68521 277.306 10.466 278.294 11.4522L283.726 5.46627C282.012 3.75404 280.036 2.43904 277.772 1.49389C275.509 0.548735 273.135 0.0830078 270.639 0.0830078C267.25 0.0830078 264.122 0.904879 261.255 2.56232C258.387 4.21976 256.096 6.45251 254.409 9.27427C252.721 12.096 251.871 15.1781 251.871 18.5203C251.871 21.8626 252.721 24.9446 254.409 27.7664C256.096 30.5881 258.387 32.8209 261.255 34.4783L261.282 34.4646Z" fill="#FF319C"/>
<path d="M72.4807 50.094C69.6134 48.4503 66.3895 47.6421 62.8362 47.6421C59.283 47.6421 56.0728 48.464 53.1918 50.094C50.3245 51.7378 48.0746 53.9568 46.442 56.7786C44.8231 59.6003 44 62.696 44 66.0794C44 69.4628 44.8094 72.5585 46.442 75.3803C48.0608 78.202 50.3108 80.4211 53.1918 82.0648C56.059 83.7085 59.283 84.5167 62.8362 84.5167C66.3895 84.5167 69.5997 83.6949 72.4807 82.0648C75.348 80.4211 77.5979 78.202 79.2305 75.3803C80.8493 72.5585 81.6725 69.4628 81.6725 66.0794C81.6725 62.696 80.8631 59.6003 79.2305 56.7786C77.6116 53.9568 75.3617 51.7378 72.4807 50.094ZM71.3969 71.1887C70.5052 72.764 69.3116 74.0105 67.8025 74.9282C66.2934 75.846 64.6334 76.3117 62.8225 76.3117C61.0116 76.3117 59.3516 75.846 57.8425 74.9282C56.3334 74.0105 55.1399 72.764 54.2481 71.1887C53.3564 69.6135 52.9174 67.9149 52.9174 66.0657C52.9174 64.2165 53.3564 62.518 54.2481 60.9427C55.1399 59.3675 56.3334 58.121 57.8425 57.2032C59.3516 56.2854 60.9979 55.8197 62.8225 55.8197C64.6472 55.8197 66.2934 56.2854 67.8025 57.2032C69.3116 58.121 70.5052 59.3675 71.3969 60.9427C72.2887 62.518 72.7277 64.2165 72.7277 66.0657C72.7277 67.9149 72.2887 69.6135 71.3969 71.1887Z" fill="#FF319C"/>
<path d="M105.53 49.7518C103.637 48.6697 101.538 48.1355 99.2464 48.1355H86.7896V83.9828H94.9935V72.2026H99.2464C101.538 72.2026 103.637 71.6684 105.53 70.5863C107.423 69.5042 108.918 68.0522 110.016 66.203C111.113 64.3538 111.662 62.3402 111.662 60.1622C111.662 57.9843 111.113 55.957 110.016 54.1215C108.918 52.2723 107.423 50.8203 105.53 49.7381V49.7518ZM102.278 62.2306C101.908 62.847 101.4 63.3401 100.769 63.71C100.138 64.0798 99.4385 64.2716 98.6977 64.2716H98.6428C97.8608 64.2716 97.1474 64.0935 96.5163 63.7374C95.8853 63.3812 95.3914 62.8881 95.0347 62.2717C94.678 61.6553 94.4996 60.9567 94.4996 60.1759C94.4996 59.3951 94.678 58.6965 95.0347 58.0801C95.3914 57.4637 95.8853 56.9843 96.5163 56.6145C97.1474 56.2583 97.8608 56.0803 98.6428 56.0803H98.6977C99.4522 56.0803 100.138 56.272 100.769 56.6419C101.4 57.0117 101.908 57.5185 102.278 58.1212C102.649 58.7376 102.841 59.4225 102.841 60.1759C102.841 60.9293 102.649 61.6142 102.278 62.2306Z" fill="#FF319C"/>
<path d="M124.942 56.669C125.519 56.1074 126.246 55.8197 127.096 55.8197H135.245C136.37 55.8197 137.303 55.4499 138.044 54.7239C138.785 53.9842 139.142 53.0802 139.142 51.9843C139.142 50.8885 138.771 49.9844 138.044 49.2448C137.303 48.5051 136.37 48.1489 135.245 48.1489H116.121V83.9962H135.245C136.37 83.9962 137.303 83.6264 138.044 82.9004C138.785 82.1607 139.142 81.2567 139.142 80.1608C139.142 79.065 138.771 78.1609 138.044 77.4213C137.303 76.6816 136.37 76.3254 135.245 76.3254H127.343C126.383 76.3254 125.601 76.0241 124.984 75.4077C124.366 74.7913 124.064 74.0105 124.064 73.0516V72.9558C124.064 71.9969 124.366 71.2161 124.984 70.5997C125.601 69.9833 126.383 69.682 127.343 69.682H132.68C133.805 69.682 134.738 69.3121 135.479 68.5861C136.219 67.8465 136.576 66.9424 136.576 65.8466C136.576 64.7507 136.206 63.8467 135.479 63.107C134.738 62.3673 133.805 62.0112 132.68 62.0112H127.096C126.246 62.0112 125.519 61.7235 124.942 61.1345C124.366 60.5592 124.064 59.8332 124.064 58.9839V58.8881C124.064 57.9977 124.353 57.2717 124.942 56.7101V56.669Z" fill="#FF319C"/>
<path d="M163.822 83.0374C165.537 84.0099 167.458 84.5031 169.612 84.5031C171.766 84.5031 173.7 84.0099 175.401 83.0374C177.116 82.0649 178.447 80.7225 179.421 79.0239C180.395 77.3117 180.889 75.4077 180.889 73.2845V48.1352H172.685V73.6407C172.685 74.668 172.397 75.4899 171.807 76.0926C171.23 76.709 170.49 77.0103 169.598 77.0103C168.706 77.0103 167.979 76.709 167.389 76.0926C166.813 75.4762 166.511 74.6543 166.511 73.6407V58.9429C166.511 56.7649 166.017 54.8061 165.043 53.0802C164.069 51.3542 162.725 50.0119 161.024 49.0667C159.309 48.1078 157.388 47.6284 155.234 47.6284C153.08 47.6284 151.146 48.1078 149.445 49.0667C147.73 50.0255 146.399 51.3679 145.425 53.0802C144.451 54.8061 143.957 56.7649 143.957 58.9429V83.9825H152.161V58.436C152.161 57.4087 152.449 56.5868 153.039 55.9841C153.615 55.3677 154.356 55.0664 155.248 55.0664C156.14 55.0664 156.867 55.3677 157.457 55.9841C158.033 56.6005 158.335 57.4224 158.335 58.436V73.2845C158.335 75.4077 158.828 77.3117 159.803 79.0239C160.777 80.7362 162.121 82.0649 163.822 83.0374Z" fill="#FF319C"/>
<path d="M187.515 48.1489V83.9962H202.894V48.1489H187.515ZM192.66 54.313C193.359 53.6144 194.224 53.2582 195.252 53.2582C196.213 53.2582 197.036 53.6144 197.736 54.313C198.435 55.0116 198.792 55.8608 198.792 56.8471C198.792 57.8333 198.449 58.6826 197.763 59.3812C197.077 60.0798 196.24 60.4359 195.252 60.4359C194.265 60.4359 193.359 60.0798 192.66 59.3812C191.96 58.6826 191.603 57.8333 191.603 56.8471C191.603 55.8608 191.96 55.0116 192.66 54.313Z" fill="#FF319C"/>
<path d="M217.71 58.436C217.71 57.4087 217.998 56.5868 218.588 55.9841C219.165 55.3677 219.905 55.0664 220.797 55.0664C221.689 55.0664 222.416 55.3677 223.006 55.9841C223.582 56.6005 223.884 57.4224 223.884 58.436V73.2845C223.884 75.4077 224.378 77.3117 225.352 79.0239C226.326 80.7362 227.67 82.0649 229.372 83.0374C231.086 84.0099 233.007 84.5031 235.161 84.5031C237.315 84.5031 239.249 84.0099 240.95 83.0374C242.665 82.0649 243.996 80.7225 244.97 79.0239C245.944 77.3117 246.438 75.4077 246.438 73.2845V48.1352H238.234V73.6407C238.234 74.668 237.946 75.4899 237.356 76.0926C236.78 76.709 236.039 77.0103 235.147 77.0103C234.256 77.0103 233.528 76.709 232.938 76.0926C232.362 75.4762 232.06 74.6543 232.06 73.6407V58.9429C232.06 56.7649 231.567 54.8061 230.593 53.0802C229.618 51.3542 228.274 50.0119 226.573 49.0667C224.858 48.1078 222.937 47.6284 220.783 47.6284C218.63 47.6284 216.695 48.1078 214.994 49.0667C213.279 50.0255 211.948 51.3679 210.974 53.0802C210 54.8061 209.506 56.7649 209.506 58.9429V83.9825H217.71V58.436Z" fill="#FF319C"/>
<path d="M260.692 82.0101C263.559 83.6675 266.687 84.4894 270.076 84.4894C273.464 84.4894 276.469 83.6812 279.199 82.0511C281.929 80.4348 284.083 78.2157 285.661 75.394C287.238 72.5722 288.02 69.4628 288.02 66.052V62.2166H268.018V69.6409H279.007C278.842 70.586 278.513 71.4627 278.019 72.2846C277.265 73.5311 276.195 74.5173 274.809 75.2296C273.423 75.9419 271.846 76.3117 270.062 76.3117C268.183 76.3117 266.481 75.846 264.959 74.9283C263.436 74.0105 262.242 72.764 261.392 71.2161C260.541 69.6683 260.116 67.9424 260.116 66.0657C260.116 64.1891 260.541 62.4769 261.392 60.9153C262.242 59.3675 263.436 58.121 264.959 57.2032C266.481 56.2855 268.183 55.8197 270.062 55.8197C271.53 55.8197 272.929 56.1074 274.246 56.669C275.563 57.2306 276.716 58.0114 277.704 58.9976L283.136 53.0117C281.421 51.2994 279.446 49.9845 277.182 49.0393C274.919 48.0941 272.545 47.6284 270.048 47.6284C266.66 47.6284 263.532 48.4503 260.665 50.1077C257.797 51.7652 255.506 53.9979 253.819 56.8197C252.131 59.6414 251.281 62.7235 251.281 66.0657C251.281 69.408 252.131 72.49 253.819 75.3118C255.506 78.1336 257.797 80.3663 260.665 82.0238L260.692 82.0101Z" fill="#FF319C"/>
<path d="M316.748 61.9701H303.468C302.412 61.9701 301.561 61.6824 300.93 61.1208C300.299 60.5592 299.984 59.8469 299.984 58.9976C299.984 58.1484 300.285 57.4498 300.903 56.9019C301.52 56.3539 302.371 56.08 303.468 56.08H316.748V48.1489H302.947C300.82 48.1489 298.9 48.601 297.157 49.505C295.415 50.4091 294.043 51.6967 293.028 53.3404C292.013 54.9979 291.519 56.9019 291.519 59.0524C291.519 61.203 292.026 62.9837 293.028 64.6138C294.029 66.2301 295.415 67.4766 297.157 68.3533C298.9 69.2299 300.834 69.6546 302.947 69.6546H304.95C306.143 69.6546 307.09 69.9422 307.776 70.5312C308.462 71.1065 308.805 71.8736 308.805 72.8325C308.805 73.7913 308.462 74.5721 307.776 75.1611C307.09 75.7638 306.157 76.0515 304.95 76.0515H291.354V83.9825H316.734V61.9701H316.748Z" fill="#FF319C"/>
<path d="M22.486 218.046L22.2017 217.079L23.4161 214.708C24.2972 212.99 24.9822 211.548 24.6426 210.393C24.3148 209.278 23.584 209.026 22.4154 209.37C21.7707 209.559 21.1094 210.09 20.6899 210.549L20.0618 209.405C20.573 208.861 21.4145 208.249 22.4756 207.937C24.4903 207.344 25.8089 208.007 26.2986 209.673C26.7804 211.311 25.8141 213.186 25.0294 214.686L24.2693 216.121L27.9629 215.035L28.3421 216.324L22.486 218.046ZM33.2553 215.055C31.2406 215.647 29.3034 214.816 28.3832 211.686L28.2133 211.109C27.2457 207.818 28.5905 206.139 30.4843 205.582C32.3916 205.021 34.3817 205.734 35.3335 208.971L35.5034 209.549C36.4552 212.786 35.176 214.49 33.2553 215.055ZM32.8841 213.792C34.1197 213.429 34.4769 212.361 33.8292 210.158L33.6278 209.473C32.984 207.284 32.0684 206.502 30.8595 206.858C29.6104 207.225 29.2611 208.32 29.8931 210.469L30.1024 211.181C30.7304 213.316 31.6349 214.16 32.8841 213.792ZM38.0947 213.457L37.8104 212.49L39.0248 210.119C39.9059 208.4 40.5909 206.958 40.2513 205.803C39.9235 204.689 39.1927 204.436 38.0241 204.78C37.3794 204.97 36.7181 205.5 36.2986 205.959L35.6705 204.816C36.1817 204.271 37.0232 203.659 38.0843 203.347C40.099 202.754 41.4176 203.417 41.9073 205.083C42.3891 206.722 41.4228 208.596 40.6381 210.097L39.878 211.531L43.5716 210.445L43.9508 211.735L38.0947 213.457ZM47.6592 210.79C46.6115 211.098 45.552 211.118 44.8544 210.929L44.7786 209.58C45.3625 209.729 46.136 209.779 46.8478 209.569C48.1238 209.194 48.7211 208.347 48.3933 207.232C48.0497 206.064 47.1822 205.794 45.9197 206.165C45.3422 206.335 44.5655 206.87 44.1989 207.211L43.0457 202.049L47.8541 200.635L48.2333 201.924L44.6874 202.967L45.1724 205.261C45.4576 205.09 45.9308 204.863 46.2801 204.76C48.1202 204.219 49.5383 204.824 50.111 206.771C50.6126 208.477 49.7544 210.174 47.6592 210.79ZM52.4066 209.482L51.9445 207.91L53.5831 207.428L54.0452 209L52.4066 209.482ZM56.9121 207.982L54.6846 200.406L53.2308 201.17L52.9464 200.202L54.9754 198.468L55.8485 198.211L58.5776 207.492L56.9121 207.982ZM60.5765 206.846L60.2921 205.879L61.5066 203.508C62.3876 201.789 63.0727 200.348 62.733 199.193C62.4052 198.078 61.6744 197.826 60.5059 198.169C59.8612 198.359 59.1999 198.889 58.7803 199.348L58.1523 198.205C58.6635 197.66 59.505 197.048 60.566 196.736C62.5807 196.144 63.8993 196.807 64.3891 198.472C64.8709 200.111 63.9046 201.985 63.1199 203.486L62.3598 204.92L66.0534 203.834L66.4326 205.124L60.5765 206.846ZM68.0022 204.896L67.5401 203.324L69.1787 202.842L69.6408 204.414L68.0022 204.896ZM74.7823 202.844C72.7676 203.436 70.8304 202.605 69.9102 199.475L69.7404 198.898C68.7727 195.607 70.1175 193.927 72.0113 193.371C73.9186 192.81 75.9087 193.523 76.8606 196.76L77.0304 197.338C77.9822 200.575 76.703 202.279 74.7823 202.844ZM74.4111 201.581C75.6468 201.218 76.0039 200.15 75.3562 197.947L75.1548 197.262C74.511 195.073 73.5954 194.291 72.3865 194.647C71.1374 195.014 70.7882 196.109 71.4201 198.258L71.6294 198.97C72.2574 201.105 73.162 201.948 74.4111 201.581ZM81.0597 200.881L78.8322 193.306L77.3784 194.069L77.094 193.102L79.123 191.367L79.9961 191.11L82.7252 200.391L81.0597 200.881ZM83.8599 196.657L83.4808 195.368L87.1744 194.282L87.5536 195.571L83.8599 196.657ZM89.4067 198.368L89.1223 197.401L90.3368 195.03C91.2178 193.312 91.9029 191.87 91.5632 190.715C91.2354 189.6 90.5046 189.348 89.3361 189.692C88.6914 189.881 88.0301 190.411 87.6105 190.87L86.9825 189.727C87.4937 189.183 88.3352 188.571 89.3962 188.258C91.4109 187.666 92.7295 188.329 93.2193 189.995C93.7011 191.633 92.7347 193.508 91.9501 195.008L91.19 196.443L94.8836 195.357L95.2628 196.646L89.4067 198.368ZM100.176 195.377C98.1613 195.969 96.2241 195.138 95.3038 192.008L95.134 191.431C94.1664 188.14 95.5112 186.46 97.405 185.904C99.3122 185.343 101.302 186.056 102.254 189.293L102.424 189.871C103.376 193.108 102.097 194.812 100.176 195.377ZM99.8047 194.114C101.04 193.751 101.398 192.683 100.75 190.48L100.548 189.795C99.9047 187.605 98.989 186.824 97.7802 187.179C96.5311 187.547 96.1818 188.642 96.8137 190.791L97.0231 191.503C97.651 193.638 98.5556 194.481 99.8047 194.114ZM105.015 193.778L104.731 192.811L105.946 190.44C106.827 188.722 107.512 187.28 107.172 186.125C106.844 185.01 106.113 184.758 104.945 185.102C104.3 185.291 103.639 185.822 103.219 186.281L102.591 185.137C103.102 184.593 103.944 183.981 105.005 183.669C107.02 183.076 108.338 183.739 108.828 185.405C109.31 187.043 108.343 188.918 107.559 190.418L106.799 191.853L110.492 190.767L110.871 192.056L105.015 193.778ZM114.58 191.112C113.532 191.42 112.473 191.44 111.775 191.251L111.699 189.901C112.283 190.051 113.057 190.101 113.768 189.891C115.044 189.516 115.642 188.669 115.314 187.554C114.97 186.386 114.103 186.115 112.84 186.487C112.263 186.657 111.486 187.191 111.12 187.533L109.966 182.37L114.775 180.956L115.154 182.246L111.608 183.288L112.093 185.583C112.378 185.411 112.852 185.185 113.201 185.082C115.041 184.541 116.459 185.145 117.032 187.093C117.533 188.799 116.675 190.496 114.58 191.112ZM119.327 189.803L118.865 188.232L120.504 187.75L120.966 189.322L119.327 189.803ZM123.833 188.303L121.605 180.728L120.151 181.491L119.867 180.524L121.896 178.789L122.769 178.533L125.498 187.814L123.833 188.303ZM127.497 187.168L127.213 186.201L128.427 183.83C129.308 182.111 129.993 180.669 129.654 179.514C129.326 178.4 128.595 178.147 127.427 178.491C126.782 178.681 126.121 179.211 125.701 179.67L125.073 178.526C125.584 177.982 126.426 177.37 127.487 177.058C129.501 176.465 130.82 177.128 131.31 178.794C131.792 180.433 130.825 182.307 130.041 183.808L129.28 185.242L132.974 184.156L133.353 185.446L127.497 187.168ZM134.923 185.218L134.461 183.646L136.099 183.164L136.561 184.736L134.923 185.218ZM141.703 183.165C139.688 183.758 137.751 182.927 136.831 179.797L136.661 179.22C135.693 175.929 137.038 174.249 138.932 173.692C140.839 173.132 142.829 173.845 143.781 177.082L143.951 177.66C144.903 180.897 143.624 182.601 141.703 183.165ZM141.332 181.903C142.567 181.54 142.925 180.471 142.277 178.269L142.075 177.584C141.432 175.394 140.516 174.613 139.307 174.968C138.058 175.336 137.709 176.431 138.341 178.58L138.55 179.292C139.178 181.427 140.083 182.27 141.332 181.903ZM150.118 180.691C147.888 181.347 146.275 180.128 145.532 177.603L145.339 176.945C144.328 173.507 145.712 171.713 147.901 171.07C148.828 170.797 149.744 170.834 150.2 170.948L150.233 172.252C149.829 172.166 148.987 172.18 148.382 172.358C147.012 172.761 146.31 173.697 146.871 176.101C147.222 175.559 147.829 174.943 148.783 174.663C150.368 174.197 151.815 174.851 152.332 176.611C152.85 178.37 152.159 180.091 150.118 180.691ZM149.718 179.481C150.698 179.192 151.109 178.357 150.77 177.201C150.406 175.966 149.587 175.711 148.647 175.987C147.975 176.184 147.455 176.848 147.259 177.373L147.283 177.453C147.741 179.011 148.509 179.836 149.718 179.481ZM37.9933 231.925L27.181 235.105L26.8177 233.869L31.4381 232.51L31.3196 232.107C29.252 232.57 28.1206 232.246 27.8639 231.373C27.5716 230.379 28.5735 229.369 31.1523 228.611C33.7311 227.852 35.1066 228.163 35.3989 229.157C35.6556 230.03 34.8971 230.924 32.895 231.659L33.0095 232.048L37.6299 230.69L37.9933 231.925ZM37.4756 234.383C37.7956 235.471 36.6617 236.578 33.7471 237.435C30.846 238.288 29.2801 237.975 28.9602 236.887C28.6442 235.813 29.7914 234.702 32.6389 233.865C35.6072 232.992 37.1597 233.309 37.4756 234.383ZM35.8051 226.965L26.336 229.75L25.9805 228.541L35.4496 225.756L35.8051 226.965ZM35.8544 234.875C35.728 234.445 34.6559 234.57 33.0307 235.048C31.4324 235.518 30.4629 235.993 30.5893 236.423C30.7078 236.826 31.7918 236.74 33.3901 236.27C35.0153 235.793 35.9729 235.278 35.8544 234.875ZM28.5001 227.333L28.1605 226.178L32.3511 224.946L32.6907 226.101L28.5001 227.333ZM33.8005 229.627C33.6979 229.278 32.9765 229.256 31.4722 229.699C29.9679 230.141 29.373 230.549 29.4756 230.899C29.5783 231.248 30.3115 231.309 31.8158 230.867C33.3201 230.425 33.9032 229.976 33.8005 229.627ZM48.3481 227.626L46.7901 228.084L44.7403 221.113L46.2983 220.655L48.3481 227.626ZM40.4362 230.594L48.5353 228.213L49.8308 232.618L48.2593 233.08L47.3312 229.924L40.8035 231.843L40.4362 230.594ZM37.7874 226.995C37.3016 225.343 38.3137 223.674 40.0464 223.164C41.7656 222.659 43.5163 223.501 44.0061 225.167C44.5037 226.859 43.4789 228.386 41.7328 228.9C40.0136 229.405 38.285 228.688 37.7874 226.995ZM39.3146 226.532C39.591 227.472 40.4237 227.971 41.3774 227.691C42.3041 227.418 42.7395 226.517 42.471 225.603C42.2142 224.73 41.406 224.165 40.4255 224.454C39.4585 224.738 39.0658 225.685 39.3146 226.532ZM61.7302 229.104L60.2259 229.547L58.4604 223.543L57.3993 223.855L59.0028 229.308L57.5254 229.743L54.2315 218.541L55.7089 218.106L57.032 222.606L58.0931 222.294L56.7068 217.579L58.2111 217.137L61.7302 229.104ZM52.2574 227.41C53.4915 227.091 54.897 226.561 55.6437 226.122L56.1548 227.315C55.326 227.821 53.5902 228.419 52.2067 228.826L51.0651 229.161L48.798 221.452L53.3244 220.121L53.6917 221.37C52.7112 221.658 51.7268 221.933 50.7329 222.225L52.2574 227.41ZM72.0664 218.141L70.3875 218.635L71.2406 221.536L69.6557 222.002L67.4282 214.427L69.0131 213.961L70.0163 217.372L71.6952 216.879L72.0664 218.141ZM63.5262 224.432L71.4105 222.114L72.5361 225.941L70.9646 226.404L70.2063 223.825L63.8936 225.681L63.5262 224.432ZM67.4335 217.869L60.4895 219.911L60.1301 218.689L67.0741 216.647L67.4335 217.869ZM61.7087 217.655L61.3493 216.433L64.8952 215.391L65.2546 216.613L61.7087 217.655ZM67.5282 220.424C67.8915 221.66 66.9315 222.861 65.3063 223.339C63.6677 223.821 62.1832 223.338 61.8198 222.103C61.4565 220.867 62.4339 219.675 64.0859 219.189C65.7111 218.711 67.1648 219.188 67.5282 220.424ZM63.3913 221.641C63.5453 222.164 64.243 222.353 64.9548 222.144C65.6533 221.939 66.1376 221.402 65.9836 220.878C65.8295 220.355 65.1359 220.179 64.4374 220.384C63.7121 220.598 63.2373 221.117 63.3913 221.641ZM85.1063 220.392L74.2941 223.571L73.9268 222.322L76.3444 221.611L75.2702 217.958L76.8551 217.492L77.9293 221.145L79.2187 220.766L78.1445 217.113L79.7025 216.655L80.7768 220.308L84.739 219.143L85.1063 220.392ZM81.2663 211.7C82.1589 214.736 82.5523 216.619 82.6462 218.328L81.0653 218.559C81.0195 217.114 80.5717 215.144 80.0527 213.429L73.2564 215.427L72.8852 214.165L81.2663 211.7ZM99.8403 217.898L98.2688 218.36L94.7498 206.393L96.3212 205.931L99.8403 217.898ZM96.2235 214.73L95.6578 216.18C94.4995 215.864 92.8239 214.781 92.0536 213.65C92.067 215.135 91.2776 217.016 90.2394 218.051L88.9461 217.176C90.5129 215.358 90.9902 213.16 90.2912 210.783L89.754 208.956L91.3792 208.478L91.8927 210.224C92.5878 212.588 94.0667 214.094 96.2235 214.73ZM110.324 206.293L108.618 206.795L109.471 209.696L107.886 210.162L105.82 203.137L107.405 202.671L108.239 205.505L109.944 205.004L110.324 206.293ZM110.942 214.648L109.357 215.114L108.429 211.958L102.116 213.814L101.749 212.565L109.646 210.243L110.942 214.648ZM104.274 204.38C105.192 207.7 103.68 210.45 100.705 212.142L99.5799 211.145C101.421 210.21 103.164 208.296 102.921 206.179L99.0793 207.309L98.7001 206.019L104.274 204.38ZM122.989 211.091L121.404 211.557L117.885 199.59L119.47 199.124L122.989 211.091ZM114.218 209.103C115.991 208.581 117.744 207.993 118.987 207.306C119.194 207.713 119.37 208.113 119.567 208.537C118.495 209.158 116.556 209.86 114.246 210.539C113.843 210.658 113.45 210.759 113.047 210.877L110.701 202.899L116.14 201.299L116.508 202.549L112.626 203.69L114.218 209.103ZM130.878 204.51L130.341 205.909C129.077 205.682 127.199 204.556 126.511 203.503C126.574 204.813 125.836 206.766 124.64 207.862L123.33 206.978C124.997 205.305 125.504 203.157 124.765 200.646L124.671 200.323L122.253 201.034L121.874 199.745L128.254 197.869L128.633 199.158L126.296 199.845L126.387 200.154C127.129 202.679 128.786 204.046 130.878 204.51ZM130.648 195.837L132.002 200.444L133.708 199.942L134.091 201.245L132.386 201.747L134.167 207.804L132.595 208.266L129.076 196.299L130.648 195.837ZM145.344 200.942L143.786 201.4L141.235 192.724L142.793 192.266L145.344 200.942ZM146.486 203.832L138.185 206.272L137.06 202.444L138.644 201.978L139.407 204.571L146.122 202.596L146.486 203.832ZM134.413 198.903C133.915 197.211 134.82 195.573 136.781 194.996C138.756 194.416 140.389 195.307 140.887 197C141.392 198.719 140.489 200.312 138.515 200.893C136.554 201.469 134.919 200.622 134.413 198.903ZM136.025 198.429C136.305 199.383 137.128 199.9 138.136 199.603C139.17 199.299 139.569 198.423 139.289 197.47C139.02 196.556 138.21 196.036 137.176 196.34C136.169 196.636 135.756 197.516 136.025 198.429ZM157.403 194.697L155.819 195.163L157.517 200.938L155.959 201.396L152.44 189.429L153.998 188.971L155.439 193.873L157.024 193.407L157.403 194.697ZM154.556 198.759C153.484 199.234 151.764 199.886 150.391 200.378C149.171 200.795 148.199 201.11 147.272 201.382L146.695 200.166C147.555 199.913 148.347 199.68 149.149 199.429L148.158 196.058L149.662 195.616L150.634 198.92C152.074 198.409 153.165 198 154.083 197.599L154.556 198.759ZM151.695 191.064C152.378 193.387 152.739 195.061 152.828 196.407L151.276 196.688C151.193 195.56 150.831 194.032 150.468 192.796L145.753 194.182L145.382 192.92L151.695 191.064ZM173 196.327L164.471 198.835L163.59 195.84L170.131 193.916L169.95 193.298L163.422 195.218L163.059 193.982L171.144 191.605L172.017 194.573L165.489 196.492L165.663 197.083L172.621 195.037L173 196.327ZM170.983 187.683L170.681 189.085C168.914 189.429 166.843 189.236 165.849 188.288C165.589 189.634 164.065 190.855 162.223 191.587L161.219 190.554C163.075 189.92 164.54 188.848 164.623 187.539L161.198 188.546L160.838 187.324L169.568 184.757L169.928 185.979L166.516 186.982C167.347 188.022 169.383 188.095 170.983 187.683ZM172.39 190.581L161.578 193.761L161.211 192.512L165.804 191.161L165.441 189.925L167.026 189.459L167.389 190.695L172.023 189.332L172.39 190.581ZM183.086 187.393L181.515 187.855L180.796 185.41L179.211 185.876L178.84 184.614L180.425 184.148L179.627 181.434L181.198 180.972L183.086 187.393ZM184.687 192.788L176.79 195.11L175.384 190.329L176.969 189.863L177.316 191.045L182.044 189.654L181.689 188.446L183.274 187.98L184.687 192.788ZM182.735 192.005L182.4 190.863L177.672 192.253L178.007 193.395L182.735 192.005ZM172.379 187.258C171.894 185.605 172.841 184.014 174.641 183.484C176.414 182.963 178.078 183.758 178.571 185.437C179.069 187.129 178.061 188.564 176.288 189.085C174.488 189.614 172.877 188.95 172.379 187.258ZM173.943 186.769C174.219 187.709 175.045 188.035 175.905 187.782C176.737 187.537 177.282 186.808 177.005 185.868C176.713 184.874 175.88 184.521 175.02 184.774C174.133 185.034 173.666 185.828 173.943 186.769ZM183.997 182.586L183.618 181.297L189.93 179.441L190.31 180.73L188.013 181.406C188.577 183.224 190.23 184.183 191.731 184.223L191.234 185.712C190.222 185.644 188.762 184.994 187.927 184.043C187.908 185.318 186.997 186.885 185.961 187.627L184.67 186.664C186.217 185.523 186.946 183.733 186.413 181.92L186.401 181.879L183.997 182.586ZM195.371 186.232L193.8 186.694L192.556 182.463L190.756 182.992L190.385 181.73L192.184 181.2L191.248 178.017L192.82 177.555L195.371 186.232ZM196.499 189.125L188.239 191.554L187.129 187.78L188.714 187.314L189.46 189.852L196.136 187.889L196.499 189.125ZM207.96 186.105L206.389 186.567L202.87 174.6L204.441 174.138L207.96 186.105ZM204.343 182.937L203.778 184.387C202.619 184.071 200.944 182.988 200.173 181.857C200.187 183.342 199.397 185.223 198.359 186.258L197.066 185.383C198.633 183.565 199.11 181.367 198.411 178.99L197.874 177.163L199.499 176.685L200.012 178.432C200.708 180.795 202.186 182.301 204.343 182.937ZM217.145 181.814C214.58 182.568 212.553 181.53 211.64 178.427L211.542 178.091C210.566 174.774 212.133 172.956 214.524 172.253C215.545 171.953 216.321 171.914 216.976 172.057L217.355 173.346C216.561 173.274 215.886 173.312 215.04 173.56C213.441 174.03 212.633 175.202 213.277 177.391L213.415 177.861C214.035 179.97 215.125 180.948 217.059 180.38C218.107 180.071 218.7 179.605 219.183 179.215L219.558 180.491C219.026 181.013 218.247 181.49 217.145 181.814ZM226.923 167.527L227.911 170.885L229.616 170.383L230 171.686L228.294 172.187L229.463 176.163L227.878 176.629L225.338 167.993L226.923 167.527ZM230.622 179.062L222.576 181.428L221.467 177.654L223.025 177.195L223.767 179.72L230.254 177.813L230.622 179.062ZM225.545 175.345L219.877 177.012L218.119 171.035L219.664 170.581L220.217 172.461L222.769 171.711L222.208 169.803L223.78 169.341L225.545 175.345ZM223.622 174.612L223.12 172.906L220.568 173.657L221.07 175.362L223.622 174.612ZM43.6355 251.113L32.8232 254.292L32.4599 253.057L37.0803 251.698L36.9618 251.295C34.8941 251.757 33.7628 251.433 33.5061 250.56C33.2138 249.566 34.2157 248.557 36.7945 247.798C39.3733 247.04 40.7488 247.351 41.0411 248.344C41.2978 249.218 40.5393 250.112 38.5372 250.846L38.6517 251.236L43.2721 249.877L43.6355 251.113ZM43.1178 253.571C43.4377 254.659 42.3039 255.766 39.3893 256.623C36.4881 257.476 34.9223 257.163 34.6023 256.075C34.2864 255 35.4336 253.89 38.2811 253.052C41.2494 252.179 42.8019 252.496 43.1178 253.571ZM41.4473 246.153L31.9782 248.937L31.6227 247.728L41.0918 244.944L41.4473 246.153ZM41.4966 254.062C41.3702 253.632 40.2981 253.758 38.6729 254.236C37.0745 254.706 36.1051 255.181 36.2315 255.61C36.35 256.013 37.4339 255.928 39.0323 255.458C40.6575 254.98 41.6151 254.465 41.4966 254.062ZM34.1423 246.521L33.8026 245.366L37.9932 244.133L38.3329 245.288L34.1423 246.521ZM39.4427 248.814C39.34 248.465 38.6187 248.444 37.1144 248.886C35.6101 249.329 35.0151 249.737 35.1178 250.086C35.2205 250.435 35.9537 250.497 37.458 250.055C38.9623 249.612 39.5454 249.164 39.4427 248.814ZM53.9903 246.813L52.4323 247.271L50.3825 240.3L51.9405 239.842L53.9903 246.813ZM46.0784 249.782L54.1775 247.4L55.473 251.806L53.9015 252.268L52.9734 249.111L46.4457 251.031L46.0784 249.782ZM43.4295 246.183C42.9437 244.531 43.9559 242.861 45.6886 242.352C47.4078 241.846 49.1585 242.689 49.6483 244.354C50.1459 246.047 49.1211 247.574 47.375 248.087C45.6558 248.593 43.9272 247.875 43.4295 246.183ZM44.9568 245.719C45.2332 246.659 46.0659 247.159 47.0196 246.878C47.9463 246.606 48.3817 245.704 48.1131 244.791C47.8564 243.918 47.0482 243.353 46.0677 243.641C45.1007 243.926 44.7079 244.873 44.9568 245.719ZM67.3723 248.292L65.868 248.734L64.1026 242.731L63.0415 243.043L64.645 248.496L63.1676 248.93L59.8737 237.728L61.3511 237.294L62.6742 241.793L63.7353 241.481L62.349 236.767L63.8533 236.325L67.3723 248.292ZM57.8996 246.598C59.1337 246.278 60.5392 245.748 61.2859 245.31L61.797 246.502C60.9681 247.009 59.2323 247.607 57.8489 248.013L56.7072 248.349L54.4402 240.64L58.9666 239.309L59.3339 240.558C58.3534 240.846 57.369 241.121 56.375 241.413L57.8996 246.598ZM77.7086 237.329L76.0297 237.822L76.8828 240.724L75.2979 241.19L73.0704 233.614L74.6553 233.148L75.6584 236.56L77.3374 236.066L77.7086 237.329ZM69.1684 243.62L77.0526 241.301L78.1782 245.129L76.6068 245.591L75.8485 243.012L69.5357 244.869L69.1684 243.62ZM73.0757 237.057L66.1317 239.099L65.7723 237.876L72.7163 235.834L73.0757 237.057ZM67.3509 236.843L66.9915 235.621L70.5374 234.578L70.8968 235.8L67.3509 236.843ZM73.1703 239.612C73.5337 240.848 72.5737 242.049 70.9485 242.527C69.3099 243.009 67.8254 242.526 67.462 241.29C67.0987 240.055 68.0761 238.863 69.7281 238.377C71.3533 237.899 72.807 238.376 73.1703 239.612ZM69.0335 240.828C69.1875 241.352 69.8851 241.541 70.597 241.332C71.2954 241.126 71.7798 240.59 71.6257 240.066C71.4717 239.542 70.778 239.367 70.0796 239.572C69.3543 239.785 68.8795 240.304 69.0335 240.828ZM90.7485 239.58L79.9363 242.759L79.569 241.51L81.9866 240.799L80.9123 237.146L82.4972 236.68L83.5715 240.333L84.8609 239.954L83.7866 236.3L85.3447 235.842L86.419 239.496L90.3812 238.33L90.7485 239.58ZM86.9085 230.888C87.8011 233.923 88.1945 235.807 88.2884 237.516L86.7074 237.747C86.6617 236.301 86.2138 234.332 85.6949 232.616L78.8986 234.615L78.5274 233.352L86.9085 230.888ZM105.27 232.989L94.4579 236.169L94.0946 234.933L98.7149 233.574L98.5965 233.171C96.5288 233.633 95.3975 233.309 95.1408 232.436C94.8485 231.442 95.8504 230.433 98.4292 229.674C101.008 228.916 102.383 229.227 102.676 230.221C102.932 231.094 102.174 231.988 100.172 232.723L100.286 233.112L104.907 231.753L105.27 232.989ZM104.753 235.447C105.072 236.535 103.939 237.642 101.024 238.499C98.1228 239.352 96.557 239.039 96.237 237.951C95.9211 236.877 97.0683 235.766 99.9158 234.928C102.884 234.056 104.437 234.373 104.753 235.447ZM103.082 228.029L93.6129 230.813L93.2574 229.605L102.727 226.82L103.082 228.029ZM103.131 235.938C103.005 235.509 101.933 235.634 100.308 236.112C98.7092 236.582 97.7398 237.057 97.8662 237.487C97.9847 237.89 99.0686 237.804 100.667 237.334C102.292 236.856 103.25 236.341 103.131 235.938ZM95.777 228.397L95.4373 227.242L99.6279 226.009L99.9676 227.164L95.777 228.397ZM101.077 230.691C100.975 230.341 100.253 230.32 98.7491 230.762C97.2448 231.205 96.6498 231.613 96.7525 231.962C96.8552 232.312 97.5884 232.373 99.0927 231.931C100.597 231.489 101.18 231.04 101.077 230.691ZM113.195 222.312L114.467 226.637L106.516 228.975L105.244 224.65L113.195 222.312ZM112.734 232.108L111.162 232.57L110.515 230.367L105.787 231.757L105.42 230.508L116.232 227.329L116.599 228.578L112.086 229.905L112.734 232.108ZM116.673 233.445L108.493 235.85L107.486 232.425L109.058 231.963L109.702 234.152L116.31 232.209L116.673 233.445ZM112.528 225.85L111.991 224.023L107.196 225.433L107.733 227.26L112.528 225.85ZM127.745 222.849L126.227 223.295L127.404 227.298L125.846 227.756L123.232 218.864L124.79 218.406L125.844 221.992L127.362 221.546L127.745 222.849ZM128.523 229.96L120.343 232.366L119.308 228.847L120.893 228.381L121.561 230.65L128.155 228.711L128.523 229.96ZM124.723 225.97C123.891 226.317 122.34 226.948 121.089 227.36C119.722 227.82 118.197 228.342 117.404 228.575L116.828 227.358C117.539 227.149 118.341 226.898 119.116 226.656L118.409 224.252L119.967 223.793L120.663 226.157C121.729 225.815 123.493 225.164 124.25 224.81L124.723 225.97ZM122.137 220.106C122.718 222.08 123.032 223.447 123.053 224.462L121.499 224.685C121.483 224.034 121.251 222.949 120.92 221.821L116.393 223.152L116.026 221.903L122.137 220.106ZM134.429 226.823L135.48 217.992L131.303 219.22L130.92 217.917L136.883 216.163L137.171 217.144L136.255 226.286L134.429 226.823ZM149.957 221.834C150.32 223.069 149.226 224.31 146.325 225.163C143.423 226.017 141.818 225.569 141.455 224.334C141.091 223.098 142.207 221.88 145.095 221.031C148.009 220.174 149.593 220.598 149.957 221.834ZM148.995 216.279L148.766 217.733C146.971 218.13 144.95 217.907 143.957 217.162C143.574 218.34 142.122 219.555 140.229 220.214L139.249 219.116C141.116 218.567 142.477 217.539 142.755 216.597L139.384 217.588L139.028 216.379L147.691 213.832L148.047 215.04L144.729 216.016C145.5 216.65 147.285 216.768 148.995 216.279ZM150.389 219.036L139.577 222.215L139.206 220.953L150.018 217.773L150.389 219.036ZM148.318 222.315C148.16 221.778 147.066 221.779 145.454 222.253C143.883 222.715 142.949 223.311 143.107 223.848C143.265 224.385 144.376 224.394 145.948 223.932C147.56 223.458 148.476 222.853 148.318 222.315ZM141.215 215.181L140.86 213.973L144.835 212.804L145.191 214.012L141.215 215.181ZM156.491 220.335L157.542 211.504L153.365 212.732L152.982 211.43L158.945 209.676L159.233 210.657L158.317 219.798L156.491 220.335ZM162.772 218.488L162.487 217.521L163.702 215.151C164.583 213.432 165.268 211.99 164.928 210.835C164.6 209.72 163.87 209.468 162.701 209.812C162.056 210.002 161.395 210.532 160.976 210.991L160.348 209.847C160.859 209.303 161.7 208.691 162.761 208.379C164.776 207.786 166.095 208.449 166.584 210.115C167.066 211.753 166.1 213.628 165.315 215.128L164.555 216.563L168.249 215.477L168.628 216.766L162.772 218.488ZM173.541 215.497C171.526 216.089 169.589 215.258 168.669 212.129L168.499 211.551C167.531 208.26 168.876 206.581 170.77 206.024C172.677 205.463 174.667 206.177 175.619 209.413L175.789 209.991C176.741 213.228 175.462 214.932 173.541 215.497ZM173.17 214.234C174.405 213.871 174.763 212.803 174.115 210.6L173.913 209.915C173.27 207.726 172.354 206.944 171.145 207.3C169.896 207.667 169.547 208.762 170.179 210.911L170.388 211.623C171.016 213.759 171.921 214.602 173.17 214.234ZM189.153 210.95L178.341 214.129L177.974 212.88L182.567 211.529L182.224 210.361C180.315 210.718 178.915 210.225 178.571 209.056C178.18 207.727 179.424 206.398 181.747 205.714C184.071 205.031 185.836 205.475 186.227 206.805C186.575 207.987 185.641 209.181 183.799 209.912L184.139 211.067L188.786 209.701L189.153 210.95ZM186.374 203.931L176.878 206.723L176.515 205.487L186.011 202.695L186.374 203.931ZM184.629 207.275C184.431 206.603 183.317 206.537 182.095 206.896C180.886 207.252 179.972 207.915 180.169 208.586C180.375 209.285 181.494 209.32 182.703 208.965C183.925 208.605 184.834 207.973 184.629 207.275ZM178.952 204.099L178.589 202.864L182.82 201.62L183.183 202.855L178.952 204.099Z" fill="#FF319C"/>
<path d="M55.8045 121.013L47.3559 118.114L48.269 115.452L54.771 117.683L54.9528 117.153L48.4375 114.918L48.8192 113.806L56.8837 116.573L55.9751 119.221L49.4731 116.99L49.2868 117.533L56.1861 119.9L55.8045 121.013ZM49.618 108.026C50.0178 106.861 51.5968 106.529 53.2256 107.088C54.8279 107.638 55.8444 108.86 55.4355 110.052C55.0402 111.204 53.4877 111.544 51.8854 110.995C50.2566 110.436 49.2136 109.205 49.618 108.026ZM53.2449 114.495L53.5947 113.476L55.9651 114.289L57.946 108.515L59.4821 109.042L57.0469 116.14L55.5108 115.613L55.6153 115.309L53.2449 114.495ZM51.4276 114.227L49.8783 113.696L50.3689 112.265C49.3357 111.955 48.501 111.713 47.6932 111.436L47.9039 110.132C49.2413 110.591 50.4244 110.982 51.7536 111.379C53.4229 111.863 54.5936 112.161 55.6851 112.387L55.4091 113.58C54.4367 113.395 53.1423 113.069 51.941 112.731L51.4276 114.227ZM51.176 108.576C51.0034 109.079 51.4327 109.596 52.267 109.882C53.0748 110.16 53.7578 110.024 53.9304 109.521C54.1031 109.017 53.6518 108.478 52.844 108.201C52.0097 107.914 51.3487 108.072 51.176 108.576ZM58.8502 116.848L59.2863 115.576L62.928 116.826L62.4918 118.097L58.8502 116.848ZM71.2584 126.108L63.3263 123.386L64.821 119.029L72.7532 121.751L71.2584 126.108ZM75.0975 114.918C74.5568 116.494 73.8887 117.967 73.2509 119.006L75.0121 119.61L74.5896 120.842L63.9295 117.184L64.3521 115.953L71.781 118.501C72.2299 117.797 72.8708 116.404 73.1256 115.618L66.7428 113.428L67.1653 112.196L75.0975 114.918ZM70.1358 124.375L70.8127 122.402L65.9528 120.735L65.2758 122.708L70.1358 124.375ZM79.0046 127.211L81.567 119.742L79.9396 119.524L80.2667 118.571L82.9252 118.329L83.786 118.624L80.6466 127.774L79.0046 127.211ZM86.1456 129.779C84.1592 129.098 83.0593 127.3 84.1178 124.214L84.3132 123.645C85.4263 120.4 87.4946 119.808 89.3618 120.448C91.2422 121.093 92.4534 122.826 91.3585 126.017L91.1631 126.587C90.0682 129.778 88.0392 130.429 86.1456 129.779ZM86.5726 128.535C87.7909 128.953 88.6999 128.288 89.445 126.116L89.6767 125.44C90.4173 123.282 90.122 122.115 88.9302 121.706C87.6986 121.284 86.7806 121.975 86.0536 124.094L85.8129 124.796C85.0905 126.901 85.3411 128.112 86.5726 128.535ZM92.2922 128.321L92.7284 127.05L96.37 128.299L95.9339 129.571L92.2922 128.321ZM99.3543 134.311C97.1958 133.571 96.3137 132.173 96.818 130.703C97.2087 129.564 98.3598 129.056 99.4893 128.999C98.6945 128.253 98.2459 127.404 98.6321 126.278C99.1136 124.874 100.65 124.321 102.557 124.975C104.464 125.629 105.343 126.864 104.857 128.28C104.516 129.274 103.556 129.743 102.461 129.871C103.398 130.592 104.124 131.581 103.688 132.853C103.161 134.389 101.513 135.052 99.3543 134.311ZM99.7234 133.106C100.836 133.487 101.737 133.19 102.005 132.408C102.328 131.468 101.785 130.764 100.557 129.943C99.6537 129.944 98.6767 130.29 98.3995 131.097C98.0997 131.971 98.6243 132.729 99.7234 133.106ZM101.456 128.919C102.258 128.869 103.03 128.601 103.28 127.873C103.512 127.197 103.199 126.513 102.179 126.163C101.252 125.845 100.52 126.082 100.274 126.797C100.006 127.578 100.426 128.255 101.456 128.919ZM104.438 135.877L107.554 126.793L110.732 127.884C112.864 128.615 113.596 129.976 112.978 131.777C112.329 133.671 110.783 134.251 108.889 133.601L107.234 133.033L106.066 136.436L104.438 135.877ZM107.652 131.815L109.003 132.278C110.234 132.701 110.875 132.343 111.238 131.284C111.647 130.092 111.334 129.496 110.129 129.083L108.751 128.61L107.652 131.815ZM112.326 138.584L115.443 129.5L117.734 130.286L117.596 137.891L117.636 137.904L122.196 131.817L124.474 132.598L121.357 141.682L119.729 141.124L122.15 134.065L122.097 134.047L117.398 140.324L116.06 139.865L116.217 132.03L116.178 132.016L113.756 139.075L112.326 138.584ZM50.0447 134.867L46.6811 133.713L45.9906 135.726L50.5724 137.298L50.1544 138.517L39.4943 134.859L39.9123 133.641L44.4412 135.195L45.1318 133.182L41.9536 132.092L44.1026 125.828L52.0877 128.567L51.6652 129.799L45.2294 127.591L44.7796 128.902L50.8181 130.974L50.4001 132.192L44.3616 130.12L43.9255 131.392L50.4672 133.636L50.0447 134.867ZM56.0777 140.49L58.6401 133.021L57.0128 132.803L57.3399 131.85L59.9984 131.607L60.8592 131.902L57.7198 141.053L56.0777 140.49ZM63.2187 143.058C61.2324 142.376 60.1324 140.578 61.191 137.493L61.3864 136.923C62.4994 133.679 64.5678 133.086 66.4349 133.727C68.3154 134.372 69.5266 136.105 68.4317 139.296L68.2363 139.865C67.1414 143.057 65.1124 143.708 63.2187 143.058ZM63.6458 141.813C64.8641 142.231 65.7731 141.566 66.5182 139.394L66.7499 138.719C67.4904 136.56 67.1951 135.394 66.0033 134.985C64.7718 134.562 63.8537 135.254 63.1268 137.372L62.886 138.074C62.1636 140.18 62.4143 141.391 63.6458 141.813ZM67.7688 144.441L74.196 136.493L75.8646 137.065L75.979 147.258L74.2973 146.681L74.2668 144.095L70.89 142.937L69.2784 144.959L67.7688 144.441ZM74.2081 138.658L71.692 141.85L74.2742 142.736L74.2478 138.672L74.2081 138.658ZM77.282 147.705L80.3986 138.621L82.6895 139.407L82.5522 147.012L82.5919 147.026L87.1522 140.938L89.4299 141.719L86.3132 150.804L84.6844 150.245L87.106 143.187L87.053 143.168L82.3538 149.445L81.0163 148.986L81.1734 141.151L81.1337 141.138L78.7121 148.196L77.282 147.705ZM89.1383 148.383L89.5745 147.112L93.2161 148.362L92.78 149.633L89.1383 148.383ZM96.2666 154.396C94.0684 153.642 93.4565 151.715 94.3107 149.226L94.5333 148.577C95.6964 145.187 97.8627 144.524 100.021 145.264C100.935 145.578 101.661 146.138 101.967 146.494L101.241 147.577C100.96 147.274 100.265 146.798 99.6687 146.594C98.3179 146.13 97.2036 146.488 96.2715 148.773C96.8713 148.535 97.7227 148.383 98.6629 148.706C100.225 149.242 101.028 150.613 100.433 152.347C99.8378 154.082 98.2794 155.087 96.2666 154.396ZM96.6403 153.177C97.607 153.509 98.4255 153.065 98.8162 151.926C99.2342 150.707 98.7133 150.026 97.7864 149.708C97.1242 149.48 96.3164 149.721 95.8532 150.036L95.8259 150.115C95.2989 151.652 95.4485 152.769 96.6403 153.177ZM101.064 155.864L104.18 146.78L107.359 147.87C109.491 148.602 110.223 149.963 109.605 151.764C108.955 153.658 107.409 154.237 105.516 153.588L103.86 153.02L102.693 156.423L101.064 155.864ZM104.278 151.802L105.629 152.265C106.86 152.688 107.501 152.33 107.865 151.271C108.273 150.079 107.96 149.483 106.755 149.069L105.378 148.597L104.278 151.802ZM108.952 158.571L112.069 149.487L114.36 150.272L114.223 157.877L114.262 157.891L118.823 151.804L121.1 152.585L117.984 161.669L116.355 161.11L118.776 154.052L118.723 154.034L114.024 160.311L112.687 159.852L112.844 152.017L112.804 152.003L110.382 159.061L108.952 158.571Z" fill="#FF319C"/>
</svg>
