<svg width="358" height="213" viewBox="0 0 358 213" fill="none" xmlns="http://www.w3.org/2000/svg">
<path d="M316.611 93.3792L161.366 107.844L165.784 155.115L321.015 140.65L316.611 93.3929V93.3792ZM290.655 120.597H293.344V118.405H290.655V116.282H293.344V112.57H296.17V128.158H293.344V122.775H290.655V120.597ZM278.733 114.268H289.831V116.515H278.733V114.268ZM257.674 114.392H269.706V116.638H257.674V114.392ZM231.045 114.898H242.405C242.405 119.076 242.185 122.021 241.678 124.282L238.975 123.994C239.387 122.09 239.537 119.391 239.537 117.159H231.059V114.885L231.045 114.898ZM198.147 134.075C193.387 134.075 190.656 132.528 190.656 130.048C190.656 127.569 193.387 126.049 198.12 126.049C202.853 126.049 205.638 127.61 205.638 130.048C205.638 132.487 202.908 134.075 198.147 134.075ZM207.86 124.871H188.407V122.624H196.665V120.556H190.986V113.049H205.418V115.323H193.812V118.309H205.583V120.556H199.519V122.624H207.86V124.871ZM208.724 122.747C211.715 121.665 213.746 119.35 213.897 116.227H209.575V113.94H220.907V116.227H216.805C217.052 119.296 219.22 121.336 221.62 122.117L220.07 124.364C218.396 123.706 216.325 122.09 215.378 120.117C214.747 122.199 212.483 124.24 210.398 124.939L208.724 122.747ZM226.175 134.075H223.322V128.405H212.017V126.158H226.175V134.075ZM229.221 119.967H226.148V125.076H223.294V112.556H226.148V117.652H229.221V119.967ZM235.71 129.665C233.487 129.761 231.718 129.815 230.058 129.815L229.701 127.528C231.251 127.528 232.678 127.528 234.118 127.501V121.446H236.821V127.377C239.455 127.227 241.458 127.09 243.173 126.87L243.392 129.021C241.389 129.281 238.22 129.528 235.71 129.678V129.665ZM250.087 123.679H247.234V134.048H244.435V112.542H247.234V121.35H250.087V123.665V123.679ZM257.331 129.035C257.235 128.213 257.084 127.418 256.974 126.624H259.951L259.224 118.378C260.171 118.282 261.09 118.131 262.009 118.022C262.174 120.912 262.297 123.761 262.462 126.638L264.876 126.569C265.041 123.72 265.219 120.843 265.357 117.981L268.059 118.296L267.305 126.405C268.539 126.309 269.555 126.213 270.35 126.049C270.419 126.775 270.501 127.542 270.542 128.268C268.004 128.706 262.133 129.062 257.317 129.062L257.331 129.035ZM277.32 123.172H274.274V134.048H271.448V112.542H274.274V120.816H277.32V123.158V123.172ZM278.115 123.61H280.722L280.214 117.693C281.134 117.57 282.053 117.501 282.999 117.378C283.068 119.446 283.164 121.473 283.26 123.556C283.96 123.556 284.659 123.501 285.359 123.487C285.428 121.46 285.524 119.432 285.647 117.405L288.35 117.665L287.787 123.336C288.748 123.24 289.626 123.172 290.421 123.021L290.668 125.172C287.966 125.651 282.958 125.939 278.486 125.939L278.102 123.597L278.115 123.61ZM296.622 133.473H281.765V127.172H284.618V131.226H296.636V133.473H296.622Z" fill="#FF319C"/>
<path d="M198.12 128.295C195.335 128.295 193.551 128.966 193.551 130.076C193.551 131.185 195.335 131.843 198.12 131.843C200.905 131.843 202.729 131.185 202.729 130.076C202.729 128.966 200.918 128.295 198.12 128.295Z" fill="#FF319C"/>
<path d="M86.8308 31.6703C87.7362 33.314 88.9846 34.6016 90.5761 35.5331C92.1675 36.4645 93.9647 36.944 95.9814 36.944C97.9981 36.944 99.7952 36.4782 101.387 35.5331C102.978 34.5879 104.226 33.3003 105.132 31.6703C106.037 30.0265 106.49 28.191 106.49 26.1363V10.3701C106.49 9.61672 106.723 9.00032 107.204 8.50719C107.684 8.01407 108.301 7.76751 109.056 7.76751C109.81 7.76751 110.427 8.01407 110.908 8.50719C111.388 9.00032 111.621 9.63042 111.621 10.3701V36.4371H119.825V11.1372C119.825 8.95922 119.359 7.02782 118.439 5.35669C117.52 3.68555 116.231 2.38425 114.598 1.46649C112.952 0.548735 111.113 0.0830078 109.056 0.0830078C106.998 0.0830078 105.159 0.548735 103.513 1.46649C101.867 2.38425 100.591 3.68555 99.6718 5.35669C98.7526 7.02782 98.2862 8.95922 98.2862 11.1372V26.9034C98.2862 27.5883 98.0666 28.1499 97.6139 28.5883C97.1749 29.0266 96.6261 29.2595 95.9676 29.2595C95.3091 29.2595 94.7741 29.0403 94.3213 28.5883C93.8823 28.1499 93.6491 27.5746 93.6491 26.9034V11.1372C93.6491 8.95922 93.1827 7.02782 92.2635 5.35669C91.3443 3.68555 90.0547 2.38425 88.4222 1.46649C86.7759 0.548735 84.9375 0.0830078 82.8797 0.0830078C80.8218 0.0830078 78.9835 0.548735 77.3372 1.46649C75.6909 2.38425 74.415 3.68555 73.4959 5.35669C72.5767 7.02782 72.1102 8.95922 72.1102 11.1372V36.4371H80.3142V10.3701C80.3142 9.61672 80.5474 9.00032 81.0276 8.50719C81.5078 8.01407 82.1251 7.76751 82.8797 7.76751C83.6342 7.76751 84.2516 8.01407 84.7317 8.50719C85.2119 9.00032 85.4451 9.63042 85.4451 10.3701V26.1363C85.4451 28.191 85.8979 30.0265 86.8033 31.6703H86.8308Z" fill="#FF319C"/>
<path d="M144.053 2.17878C143.436 0.781599 142.571 0.0830078 141.433 0.0830078C140.856 0.0830078 140.349 0.26108 139.951 0.589829C139.539 0.932275 139.169 1.46649 138.826 2.17878L122.871 36.4371H159.802L144.053 2.17878ZM144.025 28.0814C143.216 28.5198 142.352 28.7526 141.433 28.7526C140.513 28.7526 139.649 28.5335 138.84 28.0814C138.03 27.6431 137.413 27.013 136.974 26.2185C136.535 25.4104 136.302 24.5474 136.302 23.6296C136.302 22.7119 136.535 21.8489 136.988 21.0681C137.454 20.2874 138.071 19.6573 138.853 19.2052C139.635 18.7395 140.5 18.5203 141.419 18.5203C142.338 18.5203 143.202 18.7532 143.984 19.2052C144.766 19.6709 145.397 20.2874 145.85 21.0681C146.317 21.8489 146.536 22.7119 146.536 23.6296C146.536 24.5474 146.317 25.4104 145.864 26.2185C145.425 27.0267 144.794 27.6431 143.998 28.0814H144.025Z" fill="#FF319C"/>
<path d="M171.381 23.1916L182.864 35.4101C183.783 36.3963 184.853 36.9443 186.074 37.0264C187.282 37.1086 188.379 36.7114 189.326 35.821C190.245 34.9307 190.698 33.8896 190.684 32.6979C190.67 31.5062 190.19 30.3967 189.271 29.3693L178.913 18.3563L189.175 7.45276C190.094 6.46651 190.574 5.35699 190.615 4.15157C190.643 2.94616 190.218 1.91882 189.34 1.11065C188.42 0.288778 187.364 -0.0810643 186.184 0.0148208C185.004 0.0970079 183.948 0.644922 183.029 1.63117L171.381 14.0003V0.590131H163.177V36.4374H171.381V23.1916Z" fill="#FF319C"/>
<path d="M203.484 28.4929V8.5214V0.590332H195.28V8.5214V28.4929V36.4376H203.484V28.4929Z" fill="#FF319C"/>
<path d="M218.3 10.8769C218.3 9.84958 218.588 9.02771 219.178 8.42501C219.755 7.8086 220.495 7.50725 221.387 7.50725C222.279 7.50725 223.006 7.8086 223.596 8.42501C224.172 9.04141 224.474 9.86328 224.474 10.8769V25.7254C224.474 27.8486 224.968 29.7526 225.942 31.4648C226.916 33.177 228.26 34.5057 229.961 35.4783C231.676 36.4508 233.597 36.944 235.751 36.944C237.905 36.944 239.839 36.4508 241.54 35.4783C243.255 34.5057 244.586 33.1633 245.56 31.4648C246.534 29.7526 247.028 27.8486 247.028 25.7254V0.589829H238.824V26.0952C238.824 27.1226 238.536 27.9445 237.946 28.5472C237.37 29.1636 236.629 29.4649 235.737 29.4649C234.845 29.4649 234.118 29.1636 233.528 28.5472C232.952 27.9308 232.65 27.1089 232.65 26.0952V11.3974C232.65 9.21948 232.157 7.26069 231.182 5.53476C230.208 3.80883 228.864 2.46644 227.163 1.52128C225.448 0.562433 223.527 0.0830078 221.373 0.0830078C219.219 0.0830078 217.285 0.562433 215.584 1.52128C213.869 2.48013 212.538 3.82252 211.564 5.53476C210.59 7.26069 210.096 9.21948 210.096 11.3974V36.4371H218.3V10.8769Z" fill="#FF319C"/>
<path d="M261.282 34.4646C264.149 36.1221 267.277 36.944 270.666 36.944C274.054 36.944 277.059 36.1358 279.789 34.5057C282.519 32.8894 284.673 30.6703 286.251 27.8486C287.828 25.0268 288.61 21.9174 288.61 18.5066V14.6712H268.608V22.0955H279.597C279.432 23.0406 279.103 23.9173 278.609 24.7392C277.855 25.9857 276.785 26.9719 275.399 27.6842C274.013 28.3965 272.436 28.7663 270.652 28.7663C268.773 28.7663 267.071 28.3006 265.549 27.3828C264.026 26.4651 262.832 25.2186 261.982 23.6707C261.131 22.1229 260.706 20.3969 260.706 18.5203C260.706 16.6437 261.131 14.9315 261.982 13.3699C262.832 11.8221 264.026 10.5756 265.549 9.65781C267.071 8.74006 268.773 8.27433 270.652 8.27433C272.12 8.27433 273.519 8.56198 274.836 9.1236C276.153 9.68521 277.306 10.466 278.294 11.4522L283.726 5.46627C282.012 3.75404 280.036 2.43904 277.772 1.49389C275.509 0.548735 273.135 0.0830078 270.638 0.0830078C267.25 0.0830078 264.122 0.904879 261.255 2.56232C258.387 4.21976 256.096 6.45251 254.409 9.27427C252.721 12.096 251.871 15.1781 251.871 18.5203C251.871 21.8626 252.721 24.9446 254.409 27.7664C256.096 30.5881 258.387 32.8209 261.255 34.4783L261.282 34.4646Z" fill="#FF319C"/>
<path d="M72.4807 50.094C69.6134 48.4503 66.3895 47.6421 62.8362 47.6421C59.283 47.6421 56.0728 48.464 53.1918 50.094C50.3245 51.7378 48.0746 53.9568 46.442 56.7786C44.8231 59.6003 44 62.696 44 66.0794C44 69.4628 44.8094 72.5585 46.442 75.3803C48.0608 78.202 50.3108 80.4211 53.1918 82.0648C56.059 83.7085 59.283 84.5167 62.8362 84.5167C66.3895 84.5167 69.5997 83.6949 72.4807 82.0648C75.348 80.4211 77.5979 78.202 79.2305 75.3803C80.8493 72.5585 81.6725 69.4628 81.6725 66.0794C81.6725 62.696 80.8631 59.6003 79.2305 56.7786C77.6116 53.9568 75.3617 51.7378 72.4807 50.094ZM71.3969 71.1887C70.5052 72.764 69.3116 74.0105 67.8025 74.9282C66.2934 75.846 64.6334 76.3117 62.8225 76.3117C61.0116 76.3117 59.3516 75.846 57.8425 74.9282C56.3334 74.0105 55.1399 72.764 54.2481 71.1887C53.3564 69.6135 52.9174 67.9149 52.9174 66.0657C52.9174 64.2165 53.3564 62.518 54.2481 60.9427C55.1399 59.3675 56.3334 58.121 57.8425 57.2032C59.3516 56.2854 60.9979 55.8197 62.8225 55.8197C64.6472 55.8197 66.2934 56.2854 67.8025 57.2032C69.3116 58.121 70.5052 59.3675 71.3969 60.9427C72.2887 62.518 72.7277 64.2165 72.7277 66.0657C72.7277 67.9149 72.2887 69.6135 71.3969 71.1887Z" fill="#FF319C"/>
<path d="M105.53 49.7518C103.637 48.6697 101.538 48.1355 99.2465 48.1355H86.7896V83.9828H94.9936V72.2026H99.2465C101.538 72.2026 103.637 71.6684 105.53 70.5863C107.423 69.5042 108.918 68.0522 110.016 66.203C111.113 64.3538 111.662 62.3402 111.662 60.1622C111.662 57.9843 111.113 55.957 110.016 54.1215C108.918 52.2723 107.423 50.8203 105.53 49.7381V49.7518ZM102.278 62.2306C101.908 62.847 101.4 63.3401 100.769 63.71C100.138 64.0798 99.4386 64.2716 98.6977 64.2716H98.6429C97.8609 64.2716 97.1475 64.0935 96.5164 63.7374C95.8853 63.3812 95.3914 62.8881 95.0348 62.2717C94.6781 61.6553 94.4997 60.9567 94.4997 60.1759C94.4997 59.3951 94.6781 58.6965 95.0348 58.0801C95.3914 57.4637 95.8853 56.9843 96.5164 56.6145C97.1475 56.2583 97.8609 56.0803 98.6429 56.0803H98.6977C99.4523 56.0803 100.138 56.272 100.769 56.6419C101.4 57.0117 101.908 57.5185 102.278 58.1212C102.649 58.7376 102.841 59.4225 102.841 60.1759C102.841 60.9293 102.649 61.6142 102.278 62.2306Z" fill="#FF319C"/>
<path d="M124.942 56.669C125.519 56.1074 126.246 55.8197 127.096 55.8197H135.245C136.37 55.8197 137.303 55.4499 138.044 54.7239C138.785 53.9842 139.142 53.0802 139.142 51.9843C139.142 50.8885 138.771 49.9844 138.044 49.2448C137.303 48.5051 136.37 48.1489 135.245 48.1489H116.121V83.9962H135.245C136.37 83.9962 137.303 83.6264 138.044 82.9004C138.785 82.1607 139.142 81.2567 139.142 80.1608C139.142 79.065 138.771 78.1609 138.044 77.4213C137.303 76.6816 136.37 76.3254 135.245 76.3254H127.343C126.383 76.3254 125.601 76.0241 124.984 75.4077C124.366 74.7913 124.064 74.0105 124.064 73.0516V72.9558C124.064 71.9969 124.366 71.2161 124.984 70.5997C125.601 69.9833 126.383 69.682 127.343 69.682H132.68C133.805 69.682 134.738 69.3121 135.479 68.5861C136.219 67.8465 136.576 66.9424 136.576 65.8466C136.576 64.7507 136.206 63.8467 135.479 63.107C134.738 62.3673 133.805 62.0112 132.68 62.0112H127.096C126.246 62.0112 125.519 61.7235 124.942 61.1345C124.366 60.5592 124.064 59.8332 124.064 58.9839V58.8881C124.064 57.9977 124.352 57.2717 124.942 56.7101V56.669Z" fill="#FF319C"/>
<path d="M163.822 83.0374C165.537 84.0099 167.458 84.5031 169.612 84.5031C171.765 84.5031 173.7 84.0099 175.401 83.0374C177.116 82.0649 178.447 80.7225 179.421 79.0239C180.395 77.3117 180.889 75.4077 180.889 73.2845V48.1352H172.685V73.6407C172.685 74.668 172.397 75.4899 171.807 76.0926C171.23 76.709 170.49 77.0103 169.598 77.0103C168.706 77.0103 167.979 76.709 167.389 76.0926C166.813 75.4762 166.511 74.6543 166.511 73.6407V58.9429C166.511 56.7649 166.017 54.8061 165.043 53.0802C164.069 51.3542 162.725 50.0119 161.023 49.0667C159.309 48.1078 157.388 47.6284 155.234 47.6284C153.08 47.6284 151.146 48.1078 149.445 49.0667C147.73 50.0255 146.399 51.3679 145.425 53.0802C144.451 54.8061 143.957 56.7649 143.957 58.9429V83.9825H152.161V58.436C152.161 57.4087 152.449 56.5868 153.039 55.9841C153.615 55.3677 154.356 55.0664 155.248 55.0664C156.139 55.0664 156.867 55.3677 157.457 55.9841C158.033 56.6005 158.335 57.4224 158.335 58.436V73.2845C158.335 75.4077 158.828 77.3117 159.802 79.0239C160.777 80.7362 162.121 82.0649 163.822 83.0374Z" fill="#FF319C"/>
<path d="M187.515 48.1489V83.9962H202.894V48.1489H187.515ZM192.659 54.313C193.359 53.6144 194.223 53.2582 195.252 53.2582C196.213 53.2582 197.036 53.6144 197.736 54.313C198.435 55.0116 198.792 55.8608 198.792 56.8471C198.792 57.8333 198.449 58.6826 197.763 59.3812C197.077 60.0798 196.24 60.4359 195.252 60.4359C194.265 60.4359 193.359 60.0798 192.659 59.3812C191.96 58.6826 191.603 57.8333 191.603 56.8471C191.603 55.8608 191.96 55.0116 192.659 54.313Z" fill="#FF319C"/>
<path d="M217.71 58.436C217.71 57.4087 217.998 56.5868 218.588 55.9841C219.165 55.3677 219.905 55.0664 220.797 55.0664C221.689 55.0664 222.416 55.3677 223.006 55.9841C223.582 56.6005 223.884 57.4224 223.884 58.436V73.2845C223.884 75.4077 224.378 77.3117 225.352 79.0239C226.326 80.7362 227.67 82.0649 229.372 83.0374C231.086 84.0099 233.007 84.5031 235.161 84.5031C237.315 84.5031 239.249 84.0099 240.95 83.0374C242.665 82.0649 243.996 80.7225 244.97 79.0239C245.944 77.3117 246.438 75.4077 246.438 73.2845V48.1352H238.234V73.6407C238.234 74.668 237.946 75.4899 237.356 76.0926C236.78 76.709 236.039 77.0103 235.147 77.0103C234.256 77.0103 233.528 76.709 232.938 76.0926C232.362 75.4762 232.06 74.6543 232.06 73.6407V58.9429C232.06 56.7649 231.567 54.8061 230.593 53.0802C229.618 51.3542 228.274 50.0119 226.573 49.0667C224.858 48.1078 222.937 47.6284 220.783 47.6284C218.63 47.6284 216.695 48.1078 214.994 49.0667C213.279 50.0255 211.948 51.3679 210.974 53.0802C210 54.8061 209.506 56.7649 209.506 58.9429V83.9825H217.71V58.436Z" fill="#FF319C"/>
<path d="M260.692 82.0101C263.559 83.6675 266.687 84.4894 270.076 84.4894C273.465 84.4894 276.469 83.6812 279.199 82.0511C281.929 80.4348 284.083 78.2157 285.661 75.394C287.238 72.5722 288.02 69.4628 288.02 66.052V62.2166H268.018V69.6409H279.007C278.842 70.586 278.513 71.4627 278.019 72.2846C277.265 73.5311 276.195 74.5173 274.809 75.2296C273.423 75.9419 271.846 76.3117 270.062 76.3117C268.183 76.3117 266.482 75.846 264.959 74.9283C263.436 74.0105 262.242 72.764 261.392 71.2161C260.541 69.6683 260.116 67.9424 260.116 66.0657C260.116 64.1891 260.541 62.4769 261.392 60.9153C262.242 59.3675 263.436 58.121 264.959 57.2032C266.482 56.2855 268.183 55.8197 270.062 55.8197C271.53 55.8197 272.93 56.1074 274.247 56.669C275.564 57.2306 276.716 58.0114 277.704 58.9976L283.136 53.0117C281.422 51.2994 279.446 49.9845 277.182 49.0393C274.919 48.0941 272.545 47.6284 270.049 47.6284C266.66 47.6284 263.532 48.4503 260.665 50.1077C257.797 51.7652 255.506 53.9979 253.819 56.8197C252.131 59.6414 251.281 62.7235 251.281 66.0657C251.281 69.408 252.131 72.49 253.819 75.3118C255.506 78.1336 257.797 80.3663 260.665 82.0238L260.692 82.0101Z" fill="#FF319C"/>
<path d="M316.748 61.9701H303.468C302.412 61.9701 301.561 61.6824 300.93 61.1208C300.299 60.5592 299.983 59.8469 299.983 58.9976C299.983 58.1484 300.285 57.4498 300.903 56.9019C301.52 56.3539 302.371 56.08 303.468 56.08H316.748V48.1489H302.947C300.82 48.1489 298.9 48.601 297.157 49.505C295.415 50.4091 294.043 51.6967 293.028 53.3404C292.013 54.9979 291.519 56.9019 291.519 59.0524C291.519 61.203 292.026 62.9837 293.028 64.6138C294.029 66.2301 295.415 67.4766 297.157 68.3533C298.9 69.2299 300.834 69.6546 302.947 69.6546H304.95C306.143 69.6546 307.09 69.9422 307.776 70.5312C308.462 71.1065 308.805 71.8736 308.805 72.8325C308.805 73.7913 308.462 74.5721 307.776 75.1611C307.09 75.7638 306.157 76.0515 304.95 76.0515H291.354V83.9825H316.734V61.9701H316.748Z" fill="#FF319C"/>
<mask id="mask0_272_1021" style="mask-type:luminance" maskUnits="userSpaceOnUse" x="28" y="121" width="121" height="81">
<path d="M148.846 123.071L148.808 123.788L141.885 127.527L124.389 186.904L131.791 196.486L135.108 198.854L139.442 200.483L138.725 200.889L124.667 201.011L123.956 200.139L121.931 200.134L121.155 198.959L126.002 197.879L126.697 197.201L116.651 196.53L117.523 194.681L119.657 194.62L120.225 194.22L110.678 180.401L109.808 182.078L99.0627 175.206L29.9909 195.613L28.5019 194.281L28.3593 193.049L129.639 121.287L148.846 123.071Z" fill="white"/>
</mask>
<g mask="url(#mask0_272_1021)">
<path d="M24.7416 180.607C22.8037 162.246 20.7275 143.887 18.8925 125.515C18.8372 124.959 18.3772 121.203 18.5553 121.066C62.2771 116.622 105.979 111.801 149.687 107.321C152.405 132.795 155.086 158.28 157.741 183.762L156.598 183.085C156.486 184.196 156.767 184.447 157.871 184.532L160.074 205.61L160.055 205.731L153.987 206.384L152.572 206.064L152.84 206.355L152.595 206.534L45.6791 217.822C45.3279 217.859 44.8062 217.854 44.3938 217.897C44.4019 217.633 44.2996 217.248 44.0588 217.112C43.7015 216.909 43.744 217.34 43.5228 217.377C43.2597 217.421 42.8411 217.06 42.5203 217.105C42.4112 217.515 42.6529 217.907 42.2268 218.183C42.1107 218.194 41.9812 218.233 41.8423 218.247C41.4789 217.992 38.7505 217.259 38.6071 217.368C38.3396 217.939 39.3782 217.913 39.3089 218.476C38.883 218.521 38.4072 218.492 38.052 218.53C37.8058 218.313 37.3897 217.355 37.168 217.28C37.0871 217.253 36.4884 217.54 36.2128 217.564C35.9266 217.589 35.0522 217.574 34.7758 217.529C33.8953 217.388 32.5928 216.244 31.8093 216.931C32.2501 217.096 32.4856 217.469 32.9074 217.696C33.0549 217.775 34.1438 218.188 34.2171 218.157C34.4031 218.077 34.5075 217.639 35.1464 217.952C35.1414 218.442 35.0324 218.5 34.5633 218.486L34.9941 218.927C33.0431 219.134 31.0741 219.315 29.1389 219.636L28.7729 219.577C28.2919 213.79 27.6021 208.019 26.9933 202.243C26.9428 201.764 26.9995 201.214 26.9578 200.811C27.2922 200.894 27.5882 200.661 27.917 200.698C28.2032 200.731 27.9189 201.071 28.2972 201.02L28.5516 200.187C27.9522 200.159 27.3877 200.487 26.7887 200.285C26.1068 193.818 25.5067 187.332 24.8255 180.869L26.8793 180.504C26.3667 179.902 25.4259 180.76 24.7416 180.607ZM135.671 120.366L135.074 120.207C135.187 120.446 135.414 120.469 135.652 120.485L135.671 120.366ZM133.438 120.268C133.106 120.223 132.795 119.829 132.81 120.294L133.419 120.388L133.438 120.269L133.438 120.268ZM134.901 120.495C134.532 120.478 133.844 120.125 133.747 120.688C133.798 120.746 134.42 120.708 134.565 120.694C134.776 120.674 134.903 120.873 134.899 120.494L134.901 120.495ZM138.174 125.127C138.065 125.185 136.46 125.457 136.216 125.48C136.095 125.492 135.822 125.63 135.885 125.395C137.377 124.438 139.172 124.158 140.801 123.476C140.83 123.13 140.226 122.904 140.186 122.794C140.122 122.618 140.302 122.323 140.232 122.217C140.2 122.17 139.989 122.167 139.907 122.078C139.805 121.97 139.833 121.792 139.811 121.769C139.711 121.666 139.412 121.913 139.233 121.916C138.719 121.926 139.085 121.643 138.919 121.483C138.573 121.145 136.724 120.833 136.186 120.848C135.675 120.862 134.815 121.166 134.349 121.118C134.277 121.11 133.012 120.835 132.944 120.811C132.8 120.761 132.386 119.896 131.835 120.14L131.899 120.523L131.533 120.464L131.695 120.243C129.667 120.563 126.914 121.495 125.248 122.728C120.519 126.229 119.783 133.001 116.036 137.196C114.648 138.75 112.638 140.053 111.248 141.59C111.094 141.76 111.095 142.028 111.022 142.092C110.964 142.141 110.739 142.079 110.607 142.183C109.204 143.277 107.754 145.432 106.505 146.78C106.257 147.047 105.776 147.233 105.565 147.564C105.311 147.965 105.503 148.365 104.98 148.171C105.196 148.72 104.683 148.558 104.313 148.808C103.678 149.238 101.91 150.999 101.325 151.597C101.287 151.637 101.22 151.659 101.184 151.7C101.049 151.849 101.021 152.036 101.005 152.047C100.972 152.068 100.702 152.065 100.338 152.318C100.161 152.441 99.8724 152.461 99.8961 152.747C100.131 152.83 100.296 152.633 100.44 152.458C100.47 152.456 101.006 152.227 100.796 152.574C100.593 152.906 99.6415 153.197 99.3886 153.612C99.0429 153.738 98.9603 153.336 98.7973 153.379C98.7205 153.399 98.0178 153.926 97.8187 154.046C97.0772 154.496 96.9614 154.547 96.3899 155.197C96.1691 155.296 95.7143 155.284 95.6865 155.711C96.1564 155.679 96.1908 155.423 96.3899 155.197C96.5837 155.11 97.3446 154.826 97.4608 154.74C97.5055 154.706 97.7393 154.255 97.9221 154.187C98.0525 154.192 98.2118 154.1 98.2945 154.181C97.8983 154.262 97.9041 154.553 97.7162 154.719C97.6428 154.783 97.478 154.723 97.4608 154.74C97.0769 155.088 96.673 155.863 96.4801 156.059C96.4064 156.134 95.6137 156.297 95.4655 156.664C95.4309 156.749 95.5514 157.283 95.5752 157.307C95.72 157.452 96.6836 157.116 96.9579 157.157L96.9309 156.53C96.9701 156.524 97.0159 156.557 97.0525 156.55C97.9131 156.365 97.7634 155.562 98.6748 155.74C98.5539 155.962 97.9919 156.332 97.9039 156.463C97.1863 157.534 97.3817 159.173 95.4653 157.927L95.7536 158.471L95.1843 158.133C95.0634 158.305 95.2158 158.96 95.1724 159.001C95.1538 159.019 94.6888 159.079 94.6656 159.051C94.6424 159.024 94.7416 158.642 94.5567 158.535C94.3951 159.003 94.4035 158.95 93.9721 158.693C94.1806 159.669 93.3485 160.111 92.6719 160.614C92.6257 160.649 92.5771 160.682 92.5306 160.717C92.709 159.588 94.056 158.612 94.3859 157.635C94.8003 157.457 95.3086 156.824 95.2666 156.399L94.0878 157.152L94.442 157.268C94.4342 157.35 94.4147 157.431 94.4056 157.512C94.2832 157.497 94.162 157.468 94.0394 157.454C93.4959 157.398 93.7605 157.458 93.4942 157.744C93.4402 157.802 93.2353 157.811 93.2205 157.903C93.2047 158.002 93.3361 158.296 93.2788 158.334C93.251 158.352 92.9525 158.249 92.7801 158.317C92.7114 158.344 91.9785 159.175 91.7117 159.308C91.5991 159.363 91.4063 159.272 91.38 159.289C91.2908 159.345 91.8224 159.984 90.7355 159.436C90.5211 159.954 90.0928 160.522 89.7261 160.943C89.5059 161.195 89.1442 161.388 88.9878 161.569C88.1581 162.528 87.603 163.551 86.7257 164.307L86.6042 164.287L86.8636 163.831L85.9734 163.939L86.1163 164.21C85.3676 164.14 85.6791 164.375 85.3722 164.447C85.2358 164.479 85.0028 164.385 84.9614 164.406C84.9371 164.418 85.0803 164.761 85.0112 164.955C84.9947 165.001 84.0197 165.425 84.9504 165.277L84.8547 165.514L81.2758 167.27C80.6865 168.105 79.76 168.202 79.0305 168.601C78.6262 168.822 76.7078 169.883 76.518 170.076C76.3815 170.215 76.3584 170.351 76.6041 170.341C77.9009 169.662 79.2756 169.095 80.674 168.666C79.8394 169.09 78.9745 169.491 78.1673 169.966C77.0747 170.607 76.1919 171.324 75.0191 171.869C74.8504 171.947 74.4366 171.981 74.4126 172C74.3186 172.07 74.3164 172.264 74.5545 172.269C74.6709 172.272 75.8834 171.808 75.6213 172.247C75.5546 172.36 74.361 173.124 74.103 173.203C73.9362 173.482 74.4114 173.58 74.3947 173.676C74.3651 173.844 73.883 174.444 73.686 174.257L73.7023 173.762C73.4347 173.842 73.5618 174.13 73.4919 174.231C73.2571 174.566 72.8286 174.307 72.5108 174.349C72.4584 174.357 71.5694 174.67 71.5229 174.698C71.3879 174.778 71.3626 175.125 71.221 175.247C71.0305 175.412 70.6633 175.278 70.4651 175.368C70.3999 175.398 70.2416 175.821 70.0172 175.886C69.3011 176.095 68.6148 175.627 68.6781 176.723C68.4658 176.745 68.6591 176.481 68.524 176.439C68.4614 176.42 67.2722 176.461 67.2211 176.501C67.0502 176.634 67.423 177.338 66.6337 177.029C66.4715 177.321 66.7783 177.282 66.7978 177.332C67.0284 177.917 66.1126 177.447 65.7784 177.435C65.6882 177.433 65.4857 177.55 65.3013 177.57C65.1797 177.584 64.8565 177.462 64.8135 177.493C64.7776 177.52 64.7776 177.864 64.7379 177.981C64.5958 178.393 64.3011 178.266 64.1172 178.537C63.8987 178.86 64.072 179.319 63.6374 179.434C63.5182 179.383 62.3362 179.313 62.278 179.349C62.2417 179.371 62.2499 179.623 62.2198 179.712C61.8712 179.692 61.4937 179.566 61.3265 179.569C61.2489 179.57 61.2455 179.739 61.1109 179.784C61.0222 179.813 60.8276 179.7 60.7367 179.752C60.6777 179.784 60.6618 180.039 60.5348 180.143C59.595 180.921 58.1637 180.498 57.3462 181.07C57.2263 181.154 57.2383 181.333 57.1772 181.379C56.6633 181.752 56.1873 182.035 55.5072 181.913L55.5536 182.418C55.0524 182.212 55.2015 182.649 55.1224 182.708C55.0673 182.749 54.512 182.611 54.2608 182.646C53.7349 182.725 52.9867 183.593 52.1937 183.143C51.9529 183.27 52.7632 183.669 52.3167 183.973C51.8939 184.261 51.7231 183.869 51.3478 183.761C51.2489 183.895 51.8521 183.997 51.5327 184.164C51.4452 184.21 51.0181 184 50.8237 184.083C50.7646 184.108 50.7257 184.293 50.6315 184.332C50.3463 184.449 50.0564 184.12 50.0785 184.687C49.954 184.792 49.6799 184.167 49.2055 184.417C48.9631 184.545 48.7792 185.455 48.506 185.186C48.4844 185.165 48.651 184.822 48.1295 184.881C47.8448 184.913 48.3082 185.036 47.4955 184.906C47.4341 184.896 47.404 185.1 47.2114 185.138C46.9228 185.194 46.6616 185.031 46.3317 185.091C44.8144 185.369 42.2965 186.729 40.6762 187.273C40.3321 187.388 38.0032 188.16 37.8495 188.144C36.1762 187.979 32.6456 188.811 30.8319 189.439C30.476 189.563 30.0458 189.913 29.5515 189.86C29.4405 191.74 31.0713 192.36 32.6999 192.33C32.8578 192.934 32.8343 192.417 33.0198 192.324C33.071 192.3 33.8749 192.427 34.1613 192.401C34.5357 192.366 34.9477 192.081 34.9923 192.089C35.2099 192.132 35.5208 192.396 35.807 192.411C36.4015 192.445 37.4688 192.059 38.0636 192.304C38.1584 192.343 38.0651 192.541 38.2843 192.598C38.6535 192.694 38.9902 192.567 39.2925 192.614C39.6843 192.676 40.3467 193.113 40.5256 192.685C40.263 193.152 41.3296 193.237 41.3835 193.196C41.4331 193.157 41.4065 192.757 41.4593 192.707C41.7194 192.46 41.6266 193.055 41.784 193.007C41.8756 192.525 42.6835 192.784 43.0471 192.751C43.7596 192.687 44.4562 192.682 45.1234 192.622C46.6378 192.485 46.2421 192.137 47.9495 192.72C47.9417 192.802 47.9158 192.882 47.9119 192.964L48.3982 193.042C48.5441 192.656 48.2259 192.815 47.9495 192.72C48.0418 191.793 49.3509 192.773 49.4472 192.705C49.4814 192.68 49.4931 192.296 49.708 192.249L50.2424 192.829C50.4374 192.759 50.2041 192.265 50.5628 192.378C50.9264 192.493 51.0499 193.196 51.1347 193.093C51.1172 192.564 51.6829 193.138 51.7636 193.068L51.8418 192.58C52.0044 192.45 52.4809 193.212 52.2639 192.272C52.5293 192.255 52.5387 192.565 52.7723 192.606C52.8452 192.618 52.878 192.38 52.933 192.373C53.2973 192.328 53.1775 192.641 53.2799 192.682C53.6723 192.838 54.6786 192.489 55.0212 192.202C55.077 192.231 55.1881 192.217 55.2644 192.241C55.7802 192.398 55.7389 192.205 55.3033 191.998C55.3603 191.839 55.4705 191.701 55.5016 191.531C55.3566 191.494 55.2421 191.398 55.0923 191.366C54.0248 191.146 53.0376 191.016 52.0611 190.368C52.1033 190.104 52.2194 189.954 51.8749 189.965C51.8117 190.122 51.9082 190.224 51.9393 190.35C51.9623 190.444 52.0369 190.519 52.0234 190.611C51.8735 190.736 50.7621 190.438 50.5095 190.417C50.0729 190.382 49.8705 190.768 49.5338 190.215L47.2706 189.872C47.5978 189.854 47.9182 189.738 48.2209 189.619C51.9768 188.134 55.7884 186.858 59.4763 185.208C68.1908 181.311 76.6171 176.673 85.3772 172.893C85.7057 172.752 86.2794 172.317 86.6215 172.23C87.0964 172.11 89.2968 172.017 89.8397 172.053C90.284 172.082 90.7082 172.285 91.0167 172.302C92.957 172.407 94.8698 172.152 96.8678 172.503C97.5905 172.63 97.2461 172.903 97.3443 173.019C97.5444 173.262 97.9692 173.314 98.192 173.472C98.3782 173.604 98.0342 173.899 98.646 173.538C98.2804 174.255 99.194 174.14 99.2788 174.267C99.3413 174.359 99.2346 174.878 98.9645 174.712L98.9454 174.832C99.4025 174.772 99.4839 175.255 99.5175 175.275C99.5834 175.314 99.9637 175.169 100.124 175.268L99.8443 175.472C100.209 175.728 100.587 175.36 100.396 175.934C100.707 175.82 100.639 175.482 101.062 175.663L101.006 176.031C101.565 175.704 101.247 175.895 101.595 176.247C101.575 176.255 101.282 176.509 101.353 176.581L101.716 176.265C102.045 176.284 101.951 176.391 101.903 176.671C102.13 176.565 102.753 176.487 102.896 176.701C103.097 177.003 102.56 176.842 102.597 177.027C103.794 176.727 103.126 177.551 103.364 177.771C103.406 177.811 104.088 177.554 103.664 178.192C103.813 178.393 104.295 177.747 104.43 177.691L103.929 178.483L104.293 178.168C104.549 178.163 104.257 178.537 104.418 178.564C104.513 178.579 105.583 178.624 105.643 178.613C105.866 178.573 105.812 178.255 106.016 178.312L105.82 178.779L106.241 178.471L106.167 178.958L106.671 178.913L106.392 179.116C106.598 179.21 106.607 179.315 106.841 179.438C107.111 179.579 107.342 179.822 107.347 179.391C107.355 179.393 107.413 179.288 107.429 179.297C107.499 179.341 107.391 179.536 107.623 179.571C107.792 179.597 108.242 179.46 108.314 179.548C108.354 179.595 108.222 180.009 108.488 180.069C108.499 179.542 108.996 179.289 109.125 178.796C109.588 179.329 109.507 179.879 109.729 180.515C110.164 181.755 110.802 182.521 111.875 183.269C112.091 183.419 112.638 183.584 112.663 183.62C112.704 183.681 112.605 183.879 112.648 183.94C112.691 184.001 112.99 184.02 113.164 184.163C114.386 185.169 117.56 190.099 118.251 191.58C118.293 191.671 118.48 191.722 118.501 191.773C118.585 191.988 118.304 192.136 118.432 192.362C118.463 192.419 118.462 192.452 118.535 192.504C118.628 192.799 118.202 192.785 118.132 192.69C118.112 192.661 118.217 192.441 118.162 192.347C118.114 192.264 117.973 192.31 117.945 192.287C117.733 192.112 117.552 191.935 117.251 191.93L117.662 192.492C117.637 192.509 117.65 192.67 117.623 192.735C117.591 192.707 117.418 192.746 117.355 192.685C117.259 192.594 117.267 192.437 117.233 192.422C116.858 192.252 116.915 192.61 116.892 192.621C116.844 192.645 116.624 192.557 116.526 192.564C116.541 192.428 116.672 192.179 116.463 192.179L116.345 192.766L115.559 193.162C115.545 193.109 115.604 192.996 115.596 192.919L115.231 192.86C115.219 193.209 114.932 193.665 115.36 193.63C115.314 193.794 115.345 193.993 115.277 194.151C115.231 194.253 115.057 194.155 114.987 194.375C114.953 194.481 114.887 194.796 115.127 194.717C115.496 194.595 115.427 193.631 116.073 193.865L116.092 193.746C115.585 193.748 116.036 192.975 116.45 193.052C116.409 193.458 116.246 193.812 116.631 194.242C117.023 194.68 117.582 194.393 118.047 194.425C118.512 194.456 119.124 194.744 119.359 194.759C119.467 194.766 119.498 194.526 119.596 194.48C119.912 194.331 120.144 194.627 120.393 194.653C121.88 194.817 123.647 194.798 125.22 194.78C125.651 194.774 127.158 194.347 126.651 195.11C126.298 195.642 125.759 195.55 125.668 195.617C125.608 195.661 125.753 196.044 125.716 196.169C125.687 196.267 125.029 196.414 125.086 196.151C125.239 196.144 125.465 196.344 125.48 196.024C125.504 195.533 124.98 195.671 124.655 195.711L124.74 195.97C124.358 196.146 123.855 195.559 123.808 195.581C123.8 195.585 123.802 195.718 123.72 195.76C123.468 195.892 123.133 196.04 122.871 195.93L123.058 196.332L122.167 196.443C122.944 194.902 121.866 195.023 120.715 195.346C120.549 195.751 120.934 195.482 120.938 195.502C121.009 195.763 120.202 195.97 120.179 196.383C120.392 196.402 120.365 196.114 120.613 196.017C120.765 195.959 121.788 195.851 121.92 195.915C122.194 196.053 121.882 197.444 122.191 197.581C122.327 197.643 123.272 197.574 123.418 197.518C123.563 197.463 123.504 197.235 123.569 197.188C123.608 197.16 124.461 197.054 124.507 197.063C124.691 197.099 125.454 197.607 125.651 197.737C125.741 197.796 125.706 197.513 125.826 197.506C126.381 197.476 126.174 198.031 126.971 197.394C127.188 197.222 126.9 197.029 127.629 197.047C127.757 197.051 128.321 197.058 128.281 197.272C128.071 197.411 127.086 197.355 127.274 197.744C128.98 197.496 130.66 198.009 132.335 198.018C132.762 198.021 133.113 197.822 133.387 197.818C133.624 197.812 133.452 198.083 133.698 198.135C134.276 198.258 135.111 198.127 135.563 198.177C135.927 198.218 136.496 198.556 136.955 198.504C137.29 198.261 136.28 197.536 136.086 197.445C135.827 197.326 135.791 197.444 135.747 197.441C135.668 197.434 135.565 197.395 135.504 197.402C135.274 197.433 135.182 197.383 134.978 197.57L134.735 197.531C134.653 197.113 134.547 197.292 134.529 197.25C134.504 197.193 134.621 196.931 134.583 196.887C134.301 196.56 134.085 197.108 134.125 197.437C133.628 197.377 133.431 197.608 133.126 197.626C132.955 197.637 132.795 197.498 132.605 197.502C132.212 197.511 132.579 197.96 131.733 197.563L132.098 197.619L132.137 197.377C131.974 197.313 131.801 197.393 131.733 197.563C131.654 197.525 131.449 197.582 131.391 197.486C131.342 197.405 131.482 197.213 131.346 197.124C131.258 197.067 130.741 196.918 130.59 196.885C130.579 196.808 130.498 196.677 130.507 196.622C130.508 196.611 130.66 196.615 130.647 196.521C130.433 196.385 129.533 196.366 129.435 196.273C129.104 195.962 129.799 195.633 129.683 195.495L129.075 195.398L129.254 195.054C128.971 195.025 128.684 194.939 128.401 194.92C128.424 194.848 128.416 194.687 128.437 194.676C128.563 194.611 129.006 194.961 128.963 194.508C128.652 194.443 128.386 194.589 128.072 194.619L127.867 194.336C127.937 194.199 127.8 193.9 128.167 194.006C128.225 193.97 127.959 193.69 127.859 193.586L127.878 193.464L128.383 193.419C127.985 193.279 127.992 192.533 127.423 192.764C127.315 192.721 127.606 192.509 127.507 192.285C127.472 192.207 126.554 190.978 126.488 190.911C126.391 190.81 126.193 190.776 126.064 190.682C126.103 190.461 126.002 190.281 125.906 190.095C125.657 189.614 125.169 189.108 124.868 188.746C124.622 188.449 124.398 187.757 124.155 188.509C124.321 188.587 124.578 188.523 124.605 188.83C124.494 188.846 124.127 188.913 124.099 188.874C124.127 188.758 124.12 188.621 124.155 188.509C123.552 188.229 123.397 187.699 123.004 187.133C122.892 186.971 122.648 186.947 122.578 186.852C122.438 186.663 122.24 185.748 122.006 185.487L122.489 185.564C122.242 185.186 122.646 185.296 122.671 185.204C123.22 183.148 123.278 181.782 123.289 179.581C123.293 178.819 123.068 177.793 123.186 177.052C123.298 176.357 124.027 175.993 124.103 175.261L124.41 175.683C124.632 175.172 124.791 174.277 125.05 173.833C125.337 173.34 126.084 172.746 126.143 171.929L126.897 170.951C126.595 171.196 126.197 171.02 125.928 171.175C125.613 171.357 124.567 173.112 124.229 173.512C123.684 173.293 123.667 174.009 123.578 173.431C123.135 173.597 121.582 174.124 122.358 173.242C121.893 173.752 122.112 172.91 121.579 173.051L117.637 175.875C117.718 175.729 117.818 175.58 117.834 175.407L117.412 175.716C117.413 175.707 117.321 175.664 117.309 175.574C117.295 175.465 117.438 175.305 117.227 175.313C116.874 175.786 116.511 176.225 115.979 176.49L116.135 175.889L115.88 175.911L116.011 175.499C115.635 175.531 115.356 176.355 115.307 176.385C114.676 176.774 115.68 175.556 115.241 175.625C115.106 175.645 114.396 177.443 114.503 175.137C114.289 175.054 114.394 175.331 114.344 175.36C114.297 175.388 114.129 175.175 114.132 175.14C114.136 175.088 114.55 174.777 114.458 174.629C114.267 174.323 114.203 174.91 114.057 174.816L114.052 174.441L113.692 174.759L113.401 174.214C113.579 173.528 113.137 173.616 112.521 173.453C112.512 173.451 112.514 173.262 112.337 173.41C112.127 173.585 112.167 173.871 111.958 173.862C111.958 173.66 112.282 173.162 112.212 173.027C112.204 173.015 112.053 173.116 111.979 173.078C111.947 173.063 112.044 172.768 111.726 172.954C111.693 172.502 112.011 172.272 112.139 171.893L111.36 172.895C111.353 172.312 111.35 171.854 111.605 171.31C111.343 171.422 111.289 172.003 110.924 172.077C110.815 172.099 110.925 171.912 110.855 171.857C110.746 171.77 110.556 171.783 110.541 171.763C110.45 171.645 111.026 170.708 111.05 170.476L110.268 171.474L110.302 170.856C110.1 170.77 110.198 171.035 110.135 171.072C110.028 171.132 109.836 170.693 109.556 171.239L109.693 170.763L109.151 171.051L109.607 170.127L109.105 170.545C109.28 169.928 108.913 170.469 108.875 170.009L108.213 170.654C108.561 170.404 108.347 169.361 108.027 169.506C107.987 169.524 107.91 169.868 107.718 169.828L107.728 168.955C107.773 168.936 107.886 168.973 107.977 168.929C108.809 168.534 107.977 168.079 107.606 168.936C107.543 168.954 107.442 169.254 107.204 169.122L107.598 168.186C107.193 168.007 107.02 168.489 106.68 168.48C107.045 168.276 107.012 167.837 107.143 167.487C107.2 167.333 107.541 167.081 107.363 166.9L107.02 167.096L107.105 165.736L106.728 166.55C106.498 166.322 106.757 166.183 106.262 166.353L106.485 165.7L106.12 165.642C106.727 163.82 107.113 162.436 108.992 161.658C110.714 160.946 112.664 160.673 114.415 160.016L114.53 159.775C115.872 159.604 117.331 158.994 118.59 158.456C120.048 157.834 121.534 156.865 122.977 156.327C125.459 155.4 127.301 155.21 129.589 153.472C129.826 152.971 131.196 152.311 130.503 151.843C131.112 151.226 131.809 150.8 132.281 150.059L131.634 150.205L132.216 149.673L131.325 149.782C131.449 149.534 132.067 149.666 132.091 149.281C131.734 149.524 131.59 149.048 131.281 149.041C130.884 149.033 130.133 149.743 129.617 149.516L130.481 148.779C130.297 148.641 129.733 148.94 129.713 148.908C129.518 148.599 130.224 148.784 129.972 148.45C129.756 148.638 129.408 148.674 129.134 148.632C129.723 147.469 131.267 147.428 132.108 146.789C132.623 146.397 133.619 144.663 134.393 145.329C134.498 145.419 134.519 145.681 134.625 145.811C134.995 146.266 135.55 146.7 135.452 147.365C135.293 148.45 135.07 148.324 135.348 149.515C135.921 151.968 135.708 153.3 135.035 155.681C134.798 156.52 135.067 157.112 134.95 157.776C134.832 158.446 134.322 159.291 134.208 160.038C134.127 160.567 134.28 161.26 134.065 161.828C134.181 162.05 135.067 160.273 135.142 160.122C136.857 156.652 138.984 150.525 138.711 146.714C138.602 145.191 138.414 143.671 138.518 142.101C138.645 140.203 139.265 138.542 139.162 136.663C139.076 135.106 139.103 134.102 139.169 132.552C139.185 132.202 139.466 131.952 139.168 131.526L139.544 131.522C139.276 131.139 139.02 130.593 139.677 130.669C138.941 129.777 139.699 127.944 140.463 127.305C140.737 127.076 141.274 126.979 141.481 126.85C142.853 125.995 143.942 125.664 145.31 124.917C145.765 124.669 146.377 124.345 146.718 123.961C146.737 123.941 147.064 123.867 146.757 123.718C146.643 123.663 146.316 123.653 146.148 123.623C146.023 123.432 145.842 123.402 145.66 123.547C143.63 123.175 143.5 123.302 141.71 124.055C140.627 124.51 139.492 124.418 138.171 125.126L138.174 125.127ZM144.39 122.102L144.025 122.044L143.986 122.288L144.35 122.346L144.39 122.102ZM148.978 146.947C148.732 146.926 147.545 147.022 147.567 147.38C147.605 148.002 149.783 148.863 149.337 147.279C149.259 147.003 149.284 146.973 148.978 146.947ZM98.4546 142.78C98.7652 143.202 101.308 141.988 99.929 141.755C99.4343 141.672 99.4564 141.91 99.2294 142.025C99.0637 142.109 98.8007 142.095 98.6539 142.241C98.5427 142.353 98.3985 142.704 98.4557 142.782L98.4546 142.78ZM146.477 157.523C146.406 157.459 144.879 157.273 144.588 157.228C144.547 157.221 143.902 156.861 143.871 156.833C143.79 156.763 143.805 156.5 143.659 156.387C143.12 155.97 142.157 156.971 142.295 157.489C142.473 158.156 144.739 158.413 145.34 158.85C145.793 158.982 146.847 157.854 146.479 157.523L146.477 157.523ZM45.3652 144.483L44.2334 142.88C43.892 142.365 41.9119 142.762 41.7116 143.102C41.5922 143.306 41.8182 143.314 41.9111 143.381C42.1979 143.59 43.2032 144.205 43.4904 144.289C43.8951 144.409 44.3111 144.074 44.6119 144.122C44.8601 144.162 45.0564 144.51 45.3657 144.481L45.3652 144.483ZM99.7353 152.972C99.8963 152.852 99.7443 152.572 99.5016 152.874C99.4692 152.978 99.7249 152.98 99.7353 152.972ZM84.0753 150.793C83.9215 150.532 82.3559 150.211 82.1242 150.681C81.9184 151.097 82.893 152.6 83.2519 152.745C83.6478 152.904 84.167 152.973 84.3133 152.47C84.399 152.172 84.1394 152.031 84.0763 151.712C84.0295 151.48 84.1043 150.841 84.0765 150.794L84.0753 150.793ZM99.2893 153.028L99.2698 153.15C99.3557 153.121 99.3623 153.081 99.2893 153.028ZM144.871 163.016C144.64 162.596 143.732 162.294 143.316 162.588C143.777 162.96 144.274 163.152 144.871 163.016ZM144.516 168.245C144.401 168.101 143.768 167.704 143.578 167.676C142.892 167.578 141.734 168.792 141.774 169.432C141.802 169.878 142.517 170.586 142.991 170.588C143.198 170.589 144.636 169.752 144.688 169.645C144.849 169.316 144.741 168.527 144.516 168.244L144.516 168.245ZM82.3679 162.626C82.6999 162.086 82.7716 161.623 82.5968 161.001C82.4221 160.38 82.0258 160.395 81.8454 160.038C81.6812 159.711 81.8469 159.284 81.7426 159.033C81.6061 158.705 80.7554 158.346 80.3851 158.347C79.5457 158.35 79.7799 158.757 79.4922 159.053C79.2927 159.258 78.2324 159.19 78.8624 160.272C79.1999 160.852 80.0841 160.823 80.4745 161.147C80.7226 161.352 80.5851 161.726 80.8834 161.929C81.1426 162.106 81.4664 162.067 81.7271 162.177C81.9986 162.293 82.078 162.584 82.3694 162.625L82.3679 162.626ZM88.6649 161.487L88.3002 161.428L88.261 161.673L88.6257 161.731L88.6649 161.487ZM88.2049 162.039L87.1085 162.68C87.431 162.896 88.3712 162.32 88.2049 162.039ZM107.377 166.406L107.394 165.91C107.099 166.057 107.098 166.248 107.377 166.406ZM68.3422 161.2C68.2847 161.133 67.5035 161.028 67.3685 161.092C67.3016 161.124 66.4395 162.154 66.4938 162.275C66.6424 162.608 67.5658 162.957 67.9366 162.756C68.2857 162.568 68.527 161.415 68.3424 161.199L68.3422 161.2ZM108.734 168.117L108.492 168.079L108.436 168.445C108.619 168.431 108.746 168.291 108.735 168.117L108.734 168.117ZM52.7697 160.252L51.7939 160.1C51.6751 160.431 51.708 161.299 52.0327 161.493C52.6425 161.857 52.6792 160.71 52.7697 160.252ZM126.424 172.005L126.214 172.158C126.191 172.285 126.53 172.134 126.424 172.005ZM108.505 169.578C108.619 169.421 108.479 169.241 108.423 169.317C108.309 169.475 108.449 169.655 108.505 169.578ZM155.321 180.002C155.444 179.873 155.352 179.601 155.297 179.442C155.237 179.267 154.336 177.786 154.21 177.642C153.713 177.078 152.009 177.812 151.391 178.094C151.187 178.187 151.028 178.375 150.814 178.485C150.638 178.577 150.371 178.531 150.177 178.649C149.268 179.201 149.941 179.88 150.787 179.94C150.893 179.947 151.539 179.476 151.99 179.492C152.546 179.511 153.372 179.976 154.013 180.065C154.218 180.094 155.245 180.083 155.323 180.001L155.321 180.002ZM113.593 172.998L113.474 173.351C113.679 173.255 113.836 173.013 113.593 172.998ZM143.909 177.871C143.682 177.35 141.106 177.936 141.196 178.602C141.205 178.669 142.085 179.491 142.163 179.53C142.977 179.93 144.074 178.251 143.909 177.871ZM140.148 181.264L139.531 179.285C138.428 178.662 138.048 178.242 136.71 178.106C135.764 178.011 135.082 178.261 134.25 178.288C131.847 178.363 131.243 178.225 128.901 178.951C127.624 179.346 127.575 179.029 126.482 178.891C125.528 178.773 124.811 179.043 124.842 180.124C125.906 180.565 127.163 180.151 128.142 180.277C129.036 180.393 129.578 180.435 130.467 180.504C131.647 180.596 132.806 181.043 134.113 181.058C135.202 181.07 135.652 180.629 136.543 180.539C137.585 180.435 137.543 180.655 138.287 180.843C138.901 180.997 139.549 181.049 140.15 181.263L140.148 181.264ZM75.7577 170.585C75.9803 170.671 76.1117 170.482 76.2894 170.355C76.1621 170.306 75.6619 170.52 75.7577 170.585ZM154.064 183.313L153.699 183.255L153.66 183.499L154.024 183.558L154.064 183.313ZM55.5616 169.558C55.5064 169.484 54.8385 169.606 55.0192 169.846C55.0744 169.919 55.7423 169.798 55.5616 169.558ZM122.95 185.825L122.697 185.848C122.721 186.207 122.892 186.636 123.325 186.632L122.948 185.826L122.95 185.825ZM123.692 186.689L123.158 186.916C123.311 187.018 123.657 188.013 123.887 187.843C123.997 187.761 123.715 187.344 123.671 187.19C123.627 187.036 123.709 186.718 123.692 186.689ZM101.372 184.077C101.463 183.71 101.126 183.632 100.82 183.617L100.762 183.982L101.372 184.077ZM93.578 183.612C93.1794 183.625 92.7391 183.579 92.3473 183.632C92.1261 183.661 92.0365 183.54 92.0402 183.869C92.5174 183.873 93.2434 184.02 93.578 183.612ZM89.1139 183.413L85.8227 182.899C85.7651 183.054 86.0179 183.131 86.1227 183.165C86.8036 183.38 87.7607 183.641 88.4621 183.63C88.5884 183.628 89.0802 183.582 89.1139 183.413ZM77.3723 181.831L76.8856 181.755L76.8271 182.12C77.0491 182.185 77.1857 182.184 77.3432 182.013L77.3721 181.832L77.3723 181.831ZM56.3278 179.045C55.9447 179.11 55.4512 178.773 55.1749 178.745C54.7486 178.701 54.6689 179.215 55.3443 179.26L56.3278 179.045ZM26.8541 175.067C26.4826 174.96 26.0065 174.95 25.9257 175.421C26.5097 175.471 26.8763 175.821 26.8541 175.067ZM95.9173 186.223C95.8521 185.91 95.6697 185.851 95.4402 186.088L95.9173 186.223ZM110.873 188.809L110.265 188.714L110.226 188.956L110.835 189.051L110.874 188.809L110.873 188.809ZM95.4573 186.776C95.4478 186.319 94.7185 186.594 94.849 186.681L95.4573 186.776ZM152.385 195.665C152.359 195.63 151.506 195.662 151.719 195.935C151.788 196.023 152.583 195.941 152.385 195.665ZM101.757 188.011C101.464 188.038 100.845 187.703 100.643 187.96C100.935 187.932 101.544 188.267 101.757 188.011ZM93.3265 186.819C92.9123 186.79 92.4512 186.629 92.0448 186.617C91.8632 186.612 91.6521 186.652 91.8265 186.833C92.2407 186.861 92.7017 187.023 93.1081 187.035C93.2897 187.04 93.5009 187 93.3265 186.819ZM129.458 192.959C129.52 193.08 130.119 193.248 130.094 192.873C130.068 192.479 129.306 192.657 129.458 192.959ZM89.978 186.671C89.9093 186.584 89.1139 186.665 89.3125 186.941C89.3383 186.976 90.1915 186.944 89.978 186.671ZM128.527 193.312C128.563 193.357 129.413 193.702 129.574 193.791C129.631 193.417 128.123 192.81 128.527 193.312ZM82.446 186.121C82.4337 186.1 82.0059 185.902 81.9792 185.922C81.6429 186.161 82.7148 186.582 82.446 186.121ZM85.11 186.658C85.0979 186.398 84.9335 186.449 84.7764 186.405C84.4746 186.323 82.8324 186.061 82.6909 186.158C82.4872 186.298 82.6714 186.386 82.836 186.432C83.4414 186.602 84.4424 186.393 85.1102 186.657L85.11 186.658ZM99.8027 189.328C99.895 189.26 99.8448 188.836 99.6373 188.804C99.3132 189.122 99.538 189.522 99.8027 189.328ZM81.2088 186.052C81.0513 185.937 80.8713 186.078 80.9477 186.133C81.1052 186.248 81.2853 186.107 81.2088 186.052ZM97.4215 188.583C97.3095 188.43 97.0287 188.634 97.1407 188.787C97.2526 188.94 97.5335 188.736 97.4215 188.583ZM81.3726 186.201L81.3531 186.323C81.439 186.295 81.4456 186.254 81.3726 186.201ZM135.257 194.991C135.209 194.924 133.802 194.333 133.731 194.376C133.452 194.544 133.919 194.653 133.928 194.718C133.962 194.981 133.501 194.796 133.597 195.227C134.087 195.215 134.54 195.189 135.036 195.201C135.205 195.204 135.413 195.202 135.256 194.989L135.257 194.991ZM93.9512 188.417C93.7263 188.362 93.4214 188.299 93.3043 188.562C93.4634 188.651 94.0912 188.51 93.9512 188.417ZM79.1914 186.985C79.3902 187.292 80.3206 186.237 78.9397 186.196C78.8116 186.488 79.1462 186.505 79.2106 186.652C79.2629 186.768 79.1755 186.961 79.1914 186.985ZM128.797 193.981L128.555 193.943C128.488 194.117 128.569 194.206 128.681 194.337L128.797 193.981ZM136.355 195.161C136.321 195.112 135.864 195.241 135.728 195.189L135.709 195.308L136.317 195.405C136.322 195.328 136.37 195.183 136.356 195.161L136.355 195.161ZM36.824 179.996C36.5542 179.985 36.2354 179.983 36.2803 180.285L36.767 180.36L36.8255 179.995L36.824 179.996ZM34.348 179.859L33.9832 179.801L33.944 180.045L34.3088 180.104L34.348 179.859ZM78.8432 186.807C78.6646 186.561 78.1909 186.904 78.6055 187.143C78.8498 187.282 78.8733 186.848 78.8432 186.807ZM90.6673 188.652L90.1712 188.635C90.273 188.843 90.3997 188.888 90.6286 188.894L90.6673 188.652ZM84.7965 187.86C84.6846 187.707 84.4037 187.912 84.5157 188.065C84.6277 188.218 84.9085 188.014 84.7965 187.86ZM30.7745 179.551C30.2296 179.723 29.6939 179.339 29.2805 179.339C29.1309 179.338 28.5236 179.467 28.3084 179.507C28.0932 179.548 27.9932 179.394 27.9992 179.741C28.7945 179.627 29.6214 179.849 30.3908 179.832C30.6068 179.827 30.8017 179.84 30.7743 179.552L30.7745 179.551ZM76.8159 186.99C76.713 186.846 76.29 187.151 76.3951 187.298C76.5002 187.445 76.9211 187.137 76.8159 186.99ZM78.1569 187.198C78.0449 187.045 77.7641 187.249 77.8761 187.402C77.988 187.556 78.2689 187.351 78.1569 187.198ZM99.7339 190.568C99.5334 190.624 98.8994 190.616 98.9287 190.941C99.3113 190.855 99.79 191.119 99.7339 190.568ZM71.9212 186.35C71.1945 186.068 70.8899 187.076 71.722 186.601C71.8276 186.541 71.951 186.647 71.9212 186.35ZM87.1593 188.729C87.0474 188.576 86.7665 188.78 86.8785 188.933C86.9905 189.086 87.2713 188.882 87.1593 188.729ZM132.797 196.353C132.778 195.441 132.069 196.203 131.515 195.78C131.504 196.466 132.342 196.292 132.797 196.353ZM83.7267 188.319C83.5193 188.164 82.8951 188.364 83.0615 188.588C83.1509 188.71 83.8084 188.399 83.7267 188.319ZM100.794 190.982C100.453 191.005 100.295 190.997 99.9703 190.887C99.7286 190.806 99.7096 190.966 99.782 191.071C99.8631 191.187 100.826 191.447 100.794 190.981L100.794 190.982ZM93.5823 189.981L93.2176 189.923L93.1784 190.167L93.5431 190.226L93.5823 189.981ZM114.915 193.312C114.803 193.159 114.522 193.363 114.634 193.517C114.746 193.67 115.027 193.465 114.915 193.312ZM86.9804 189.076L86.7385 189.037L86.6629 189.525C86.7072 189.683 87.0373 189.154 86.9804 189.076ZM130.988 195.947C130.876 195.794 130.595 195.998 130.707 196.151C130.819 196.305 131.1 196.1 130.988 195.947ZM70.6264 186.648L70.0185 186.55L69.9794 186.795C70.0238 186.853 70.6832 186.826 70.6252 186.647L70.6264 186.648ZM91.959 189.978C91.8253 189.83 91.365 190.097 91.2937 190.247C91.3729 190.261 92.1951 190.242 91.959 189.978ZM96.5911 190.701C96.4791 190.548 96.1983 190.752 96.3103 190.905C96.4222 191.059 96.7031 190.854 96.5911 190.701ZM69.8756 186.656L69.1444 186.541C69.0753 187.079 69.6173 187.071 69.8756 186.656ZM86.4157 189.486C86.5302 189.329 86.3897 189.149 86.3342 189.225C86.2197 189.383 86.3601 189.563 86.4157 189.486ZM138.927 198.683C138.936 197.632 138.086 197.27 137.166 197.159C136.866 198.114 137.428 197.768 138.006 197.995L138.925 198.683L138.927 198.683ZM81.3151 188.567C81.1413 188.341 80.5831 188.588 80.6314 188.958C80.921 189.174 81.5086 188.817 81.3151 188.567ZM95.0909 190.717L94.4826 190.622L94.4438 190.864L95.0534 190.959L95.0921 190.717L95.0909 190.717ZM135.118 197.091L135.098 197.212C135.184 197.184 135.191 197.143 135.118 197.091ZM82.2519 188.962C82.14 188.809 81.8591 189.013 81.9711 189.167C82.0831 189.32 82.3639 189.115 82.2519 188.962ZM83.7046 190.063C83.6864 190.078 83.2041 189.967 83.4235 190.268C83.6432 190.569 83.6861 190.079 83.7046 190.063C83.7213 190.048 83.8677 190.11 83.9591 190.039C84.1991 189.852 84.0011 189.638 84.4737 189.933C84.5394 189.891 84.325 189.427 84.3044 189.408C84.0753 189.207 83.741 190.032 83.7059 190.063L83.7046 190.063ZM85.7837 190.064C85.6547 189.951 85.5682 189.811 85.3654 189.824L85.43 190.207C85.2905 190.283 84.7297 189.883 84.7825 190.356C85.4846 190.324 85.5731 190.919 86.3289 190.847L86.2631 190.464C86.7849 190.664 86.9244 190.039 86.285 190.122C86.1443 190.14 86.0259 190.297 85.8581 190.279C85.7651 190.27 85.8332 190.107 85.7837 190.064ZM116.816 194.734C116.55 194.686 116.191 194.567 116.048 194.861L116.779 194.976L116.817 194.734L116.816 194.734ZM90.0242 191.174C89.8501 191.032 89.6357 190.789 89.8575 190.65C89.7997 190.535 89.3345 190.849 89.3207 190.879C89.2071 191.12 89.9276 191.097 90.0058 191.297C89.8372 191.915 91.2716 191.384 90.9947 190.95L90.3063 190.97L90.3709 191.353C90.2012 191.364 90.1366 191.267 90.024 191.175L90.0242 191.174ZM78.6881 189.404C78.2792 189.351 78.1471 189.184 78.1441 189.694C78.5198 189.799 78.5607 189.724 78.6881 189.404C78.8103 189.42 78.9313 189.451 79.0543 189.462C79.1687 189.706 78.5257 189.68 78.7355 189.911C78.7767 189.957 79.6369 189.987 79.9532 190.102C80.1294 190.166 80.3691 190.062 80.2833 190.402L80.401 190.421C80.4064 190.362 80.4306 190.252 80.4695 190.231C80.6373 190.142 81.9602 190.094 82.2742 190.101C82.4809 190.106 83.273 190.561 83.3382 190.007C82.8732 190.14 82.6275 189.772 82.3263 189.711C81.8597 189.616 81.0069 189.548 80.581 189.527C80.2711 189.511 79.711 189.214 79.7478 189.82C79.6937 189.789 79.521 189.81 79.5046 189.781C79.4662 189.709 79.9074 189.045 79.4593 189.277C79.3977 189.309 79.5803 189.481 79.1759 189.481C79.1012 189.3 79.0298 189.09 78.8081 189.048C78.6821 189.024 78.7313 189.299 78.6891 189.406L78.6881 189.404ZM89.0484 191.022C89.1981 190.325 87.8623 190.747 88.4989 190.936C88.6693 190.987 88.8727 190.979 89.0484 191.022ZM95.7732 191.947C94.7942 192.183 93.9398 192.223 93.4408 193.264C93.4106 193.436 94.144 193.423 93.742 193.752C93.8751 193.88 95.0993 193.637 95.3472 193.655C95.5913 193.672 95.7876 193.847 96.0302 193.865C96.8407 193.927 98.8392 194.226 99.4747 194.127C99.6201 194.105 99.7488 193.801 99.9801 193.791C99.8275 193.228 99.2496 192.992 99.1863 192.855C99.118 192.708 99.2322 192.462 99.1829 192.377C99.0539 192.158 98.0879 192.116 98.3149 192.469C98.2948 192.447 97.906 192.399 97.7443 192.294C97.4623 192.113 97.7952 191.641 96.956 192.381L96.6456 191.958C97.0987 192.612 95.1472 193.33 95.2997 192.559C95.3177 192.471 95.4931 192.548 95.5376 192.508C95.6249 192.43 95.3519 192.118 95.7552 192.067C96.1897 192.116 96.4396 192.343 96.4207 191.797C96.1885 191.739 95.9946 191.892 95.7734 191.946L95.7732 191.947ZM76.7559 188.978C76.6439 188.825 76.3631 189.029 76.4751 189.182C76.587 189.336 76.8679 189.131 76.7559 188.978ZM91.6278 191.3C91.5158 191.147 91.235 191.351 91.347 191.504C91.4589 191.657 91.7398 191.453 91.6278 191.3ZM75.9853 189.109C75.8775 188.971 75.4231 188.85 75.358 189.133L75.9663 189.228C75.9662 189.187 75.9995 189.127 75.9853 189.109ZM77.7122 189.252L77.0761 189.339C77.2629 189.705 77.6683 189.649 77.7122 189.252ZM65.7083 187.751C65.5647 187.14 64.4134 187.55 65.0008 187.89C65.2951 188.06 65.3698 187.569 65.7083 187.751ZM100.123 192.876C100.011 192.723 99.7299 192.928 99.8419 193.081C99.9538 193.234 100.235 193.03 100.123 192.876ZM83.6472 190.429C83.5352 190.276 83.2544 190.48 83.3663 190.633C83.4783 190.786 83.7592 190.582 83.6472 190.429ZM106.199 193.95C105.702 193.81 105.664 194.051 106.18 194.069L106.199 193.95ZM107.605 194.544C107.568 194.501 107.687 194.204 107.36 194.124C106.842 193.998 106.718 194.62 106.141 194.317C106.129 194.589 106.473 194.54 106.563 194.661C106.619 194.735 106.54 194.85 106.554 194.88C103.399 195.334 100.125 194.543 96.8929 194.371C96.116 194.329 95.3135 194.193 94.5267 194.311C93.799 194.42 93.7777 194.799 94.4953 194.711C95.1085 194.636 96.2754 194.375 96.8745 194.494C97.1532 194.549 97.4058 194.808 97.6894 194.873C96.7462 195.27 97.5872 195.469 97.9757 195.265C98.1205 195.189 98.1888 194.722 98.2168 194.703C98.3021 194.646 98.7542 194.953 98.9686 194.951C99.0093 194.95 99.2228 194.544 99.5743 194.792L99.1536 195.098C99.2924 195.149 99.5322 195.12 99.6399 195.176C99.7272 195.222 99.7293 195.741 100.182 195.245C100.381 195.026 100.131 194.953 100.551 194.944C100.396 195.317 100.967 195.381 100.918 195.002C102.266 195.027 103.884 195.337 105.264 195.558C105.865 195.654 107.148 196.278 106.556 194.883C106.887 194.835 107.013 194.875 107.448 194.772C107.537 194.751 108.061 194.931 107.851 194.586C107.83 194.551 107.635 194.579 107.608 194.547L107.605 194.544ZM88.4846 191.435C87.982 191.147 87.6838 191.165 87.154 191.318C86.9695 191.371 86.8327 191.193 86.8447 191.552C87.0903 191.56 87.3841 191.692 87.6158 191.671C87.7144 191.662 87.7303 191.44 87.8049 191.45C87.9979 191.474 88.2698 191.85 88.4846 191.435ZM64.5922 187.703C64.4803 187.55 64.1994 187.755 64.3114 187.908C64.4234 188.061 64.7042 187.856 64.5922 187.703ZM72.1308 189.006C72.0189 188.853 71.738 189.057 71.85 189.21C71.962 189.364 72.2428 189.159 72.1308 189.006ZM89.2624 192.053C89.4121 191.357 88.0763 191.779 88.7129 191.968C88.8833 192.019 89.0867 192.011 89.2624 192.053ZM109.188 194.793C108.968 194.568 108.524 195.147 109.448 195.286C109.898 195.354 110.073 195.067 109.738 194.875C109.638 194.819 109.744 195.098 109.461 195.09C109.026 195.075 109.212 194.817 109.188 194.793ZM110.841 195.424L110.895 195.058C110.602 195.175 110.325 195.256 110.006 195.17C110.05 195.989 110.395 195.176 110.84 195.425L110.841 195.424ZM91.6166 192.172L91.0083 192.077L90.9696 192.319L91.5791 192.414L91.6179 192.172L91.6166 192.172ZM111.853 195.333L111.488 195.274L111.449 195.519L111.814 195.577L111.853 195.333ZM119.898 196.588C119.685 196.51 119.331 196.905 119.202 197.039C119.003 197.246 119.071 197.469 119.198 197.475C119.255 197.477 119.973 196.806 119.898 196.588ZM75.2627 189.744L74.8979 189.686L74.8588 189.93L75.2235 189.989L75.2627 189.744ZM116.795 196.269C116.641 196.168 115.86 195.934 115.94 196.343C116.36 196.235 116.42 196.651 116.475 196.675C116.749 196.789 117.184 196.745 117.488 196.834C117.368 196.29 117.101 196.536 116.869 196.486C116.786 196.468 116.828 196.29 116.795 196.269ZM70.1233 189.066L69.75 189.069C69.8408 189.215 69.9001 189.321 70.0856 189.31L70.1244 189.068L70.1233 189.066ZM121.323 197.06L120.34 196.968C120.398 197.31 121.644 197.394 121.323 197.06ZM86.0731 191.681C86.0473 191.646 85.0233 191.663 85.286 191.932C85.4788 192.089 86.273 191.95 86.0731 191.681ZM92.1688 192.633L91.6821 192.558L91.6433 192.8L92.1314 192.876L92.1701 192.634L92.1688 192.633ZM111.758 195.942C111.381 195.896 111.012 195.781 110.626 195.799C110.501 195.805 110.034 195.93 110.098 196.182C110.539 196.167 110.997 196.208 111.436 196.158C111.654 196.134 111.761 196.297 111.758 195.942ZM72.7951 190.357L72.7292 189.973L72.6102 189.954C72.5515 190.247 72.4666 190.367 72.7964 190.357L72.7951 190.357ZM88.0892 192.371L87.7244 192.312L87.6852 192.557L88.05 192.615L88.0892 192.371ZM108.596 196.197C108.555 195.59 107.968 195.424 107.452 195.52C107.471 196.711 107.777 195.94 107.83 195.947C108.006 195.967 108.32 196.255 108.594 196.197L108.596 196.197ZM80.7362 191.475C80.593 191.271 79.8177 191.292 79.8275 191.706C79.9141 191.755 80.9615 191.797 80.7362 191.475ZM83.5592 191.789C83.5056 191.714 82.8704 191.819 83.0155 192.077C83.2412 192.233 83.6791 191.958 83.5592 191.789ZM87.4599 192.399C87.3479 192.245 87.0671 192.45 87.179 192.603C87.291 192.756 87.5719 192.552 87.4599 192.399ZM66.839 189.304C66.6773 189.24 66.5045 189.319 66.4366 189.489L66.8013 189.547L66.8403 189.304L66.839 189.304ZM68.6299 189.834L68.2775 189.714C68.3732 189.92 68.6146 190.077 68.6299 189.834ZM78.1569 191.195L77.5304 191.222L77.5113 191.341C77.67 191.424 78.3033 191.289 78.1571 191.194L78.1569 191.195ZM110.058 196.426C110.025 196.384 109.459 196.428 109.43 196.454C109.018 196.82 110.333 196.774 110.058 196.426ZM65.1782 189.543C65.0662 189.39 64.7854 189.594 64.8973 189.747C65.0093 189.901 65.2902 189.696 65.1782 189.543ZM66.6418 189.772C66.5298 189.619 66.249 189.824 66.361 189.977C66.4729 190.13 66.7538 189.926 66.6418 189.772ZM83.9521 192.474C83.8401 192.321 83.5593 192.526 83.6713 192.679C83.7832 192.832 84.0641 192.628 83.9521 192.474ZM101.384 195.197C101.26 195.03 100.863 195.364 100.943 195.627C101.145 195.844 101.44 195.272 101.384 195.197ZM64.3057 189.532C64.2353 189.447 63.6958 189.447 63.6587 189.679L64.2666 189.776C64.2729 189.696 64.3189 189.548 64.3057 189.532ZM66.0407 190.427C66.2481 189.715 65.6971 190.401 65.691 189.873C65.3399 190.024 65.5826 190.329 65.7779 190.511C65.3023 190.62 65.1596 190.806 65.685 191.066C66.3575 191.399 66.1968 190.911 66.3991 190.763C66.4409 190.731 67.1846 190.399 67.2976 190.374C67.4134 190.348 67.5624 190.327 67.682 190.309C67.7561 190.568 67.574 190.509 67.4831 190.56C67.2017 190.718 66.8801 190.907 66.5743 191.013C66.7075 191.558 67.2843 191.481 67.7366 191.566C67.7554 192.088 66.8595 191.838 67.0167 192.201C67.0253 192.22 67.4067 192.224 67.2012 192.605C66.3226 192.673 67.5704 193.356 67.8501 193.2C67.9019 193.172 67.8655 193.006 67.8946 192.963C67.9411 192.895 68.0354 192.839 68.0541 192.738C68.1965 192.751 68.7264 192.696 68.8547 192.739C68.9956 192.785 68.7935 193.039 69.0092 193.012C69.0023 192.359 69.6331 192.51 69.7905 192.011L69.0218 192.139L69.2383 191.55C69.1181 191.374 68.4134 191.995 68.9487 191.006L68.4705 190.869C69.8874 190.096 68.4557 190.192 67.6835 190.308C67.6245 190.103 67.4588 190.187 67.3368 190.129C66.4913 189.729 67.0982 190.209 66.5941 190.529C66.4116 190.644 66.1986 190.417 66.0407 190.427ZM72.0877 190.872C71.8617 190.604 71.7504 191.117 71.7888 191.361C71.8589 191.808 72.5967 192.029 72.9774 192.012C73.2644 191.999 73.2441 191.798 73.3705 191.73C73.4151 191.706 74.0047 191.737 73.7583 191.383C73.6762 191.265 73.198 191.431 73.0761 191.405C73.0063 191.39 73.0362 191.195 73.0142 191.185C72.5403 190.972 72.4932 191.307 72.4603 191.307C72.0031 191.31 72.1583 190.956 72.0877 190.872ZM74.6305 191.395C74.6107 191.363 74.0826 191.145 74.0419 191.178L73.9835 191.542L74.593 191.637C74.5975 191.561 74.646 191.421 74.6316 191.397L74.6305 191.395ZM71.7046 190.937C71.5926 190.784 71.3117 190.988 71.4237 191.141C71.5357 191.294 71.8165 191.09 71.7046 190.937ZM102.059 195.677L101.694 195.618L101.655 195.863L102.02 195.921L102.059 195.677ZM60.9572 189.384C60.7955 189.32 60.6228 189.398 60.5548 189.569L60.9196 189.627L60.9585 189.384L60.9572 189.384ZM77.0494 191.897L76.6847 191.839L76.6455 192.083L77.0102 192.142L77.0494 191.897ZM60.0848 189.373C59.9231 189.309 59.7503 189.387 59.6824 189.558L60.0471 189.616L60.0861 189.373L60.0848 189.373ZM78.8587 192.304L78.494 192.245L78.4548 192.49L78.8195 192.548L78.8587 192.304ZM97.1446 195.16C97.0326 195.007 96.7518 195.211 96.8638 195.364C96.9757 195.517 97.2566 195.313 97.1446 195.16ZM75.5297 192.034C75.4177 191.881 75.1369 192.086 75.2488 192.239C75.3608 192.392 75.6417 192.187 75.5297 192.034ZM93.2049 194.793C92.8246 194.873 92.0016 194.553 91.9116 195.09C92.1635 195.157 92.3954 195.168 92.655 195.145C92.8132 195.132 93.2614 195.072 93.2049 194.793ZM94.1805 194.947L93.6942 194.869L93.6552 195.112C93.8781 195.18 94.0765 195.179 94.1792 194.947L94.1805 194.947ZM57.8996 189.78C57.8035 188.922 57.4993 189.632 57.3926 189.675C57.1248 189.782 56.612 189.353 56.6425 189.834C57.2108 190.072 57.4426 189.797 57.8994 189.781L57.8996 189.78ZM61.3695 189.949C61.2111 189.7 60.7112 190.452 60.7697 190.603C61.0985 190.747 61.445 190.067 61.3695 189.949ZM79.4109 192.765L78.9148 192.749C79.0166 192.957 79.1433 193.002 79.3722 193.007L79.4109 192.765ZM128.257 200.639C128.469 200.434 127.629 200.226 127.507 200.648C127.632 200.694 128.223 200.673 128.257 200.639ZM59.0809 190.215C58.7522 190.193 58.3668 189.977 58.0781 190.247L58.8824 190.683C58.15 190.634 57.9283 191.034 57.8718 191.034C57.6958 191.035 57.4637 190.78 57.2409 190.802C57.0654 190.922 57.5255 191.426 57.7173 191.474C57.8701 191.512 59.6427 191.157 59.3702 190.76C59.3586 190.742 59.0989 190.716 59.0055 190.701C59.0341 190.539 59.0525 190.375 59.0811 190.213C59.4006 190.234 59.4357 190.122 59.5227 189.784C59.0365 189.631 59.1553 189.808 59.0811 190.213L59.0809 190.215ZM70.7095 191.56C70.3208 191.241 70.3092 191.748 70.2772 192.086L70.9052 192.058C70.8501 191.96 70.7339 191.579 70.7097 191.558L70.7095 191.56ZM76.8315 192.487C76.6246 192.59 75.9047 192.16 75.941 192.596C76.2096 192.567 76.8615 192.955 76.8315 192.487ZM122.296 199.589C122.155 199.462 121.588 199.786 121.505 199.9C121.327 200.143 121.792 200.044 121.7 200.24L121.176 200.408L122.415 200.476C122.406 200.332 122.33 199.619 122.297 199.588L122.296 199.589ZM62.6531 190.523L62.2883 190.465L62.2491 190.709L62.6139 190.768L62.6531 190.523ZM73.953 192.535C73.9391 192.352 73.7993 192.224 73.6255 192.236L73.5868 192.478L73.9532 192.534L73.953 192.535ZM74.4408 192.612C74.4269 192.429 74.2871 192.301 74.1133 192.313L74.0746 192.555L74.441 192.611L74.4408 192.612ZM59.998 190.733C59.8882 190.583 59.6018 190.781 59.717 190.939C59.8309 191.096 60.1079 190.883 59.998 190.733C60.1598 190.764 60.3235 190.783 60.4861 190.809L60.5445 190.444C60.1597 190.478 59.7723 190.004 59.4371 190.335C59.3305 190.606 59.863 190.707 59.998 190.733ZM61.9022 190.532C61.8271 190.418 61.4283 190.663 61.369 190.762C61.2684 190.931 61.4846 190.942 61.557 191.08C61.6243 191.209 61.3601 191.416 61.8912 191.403C62.0734 191.101 61.6736 191.155 61.6902 191.052C61.7119 190.908 61.9299 190.736 61.9035 190.532L61.9022 190.532ZM71.9645 192.476C71.9553 192.468 72.0505 192.292 71.9146 192.223C71.7106 192.119 71.2886 192.066 71.0457 191.96C71.0322 192.224 71.3979 192.195 71.468 192.306C71.5275 192.402 71.4188 192.613 71.4401 192.644C71.4715 192.694 71.8373 192.582 71.9463 192.598C71.9745 192.603 72.3669 193.004 72.3222 192.595C72.3057 192.444 72.0277 192.532 71.9658 192.476L71.9645 192.476ZM72.8374 192.28C72.3245 191.934 72.2961 192.717 73.0414 192.768C73.1655 192.69 72.8588 192.294 72.8374 192.28ZM55.0082 190.703C55.3704 191.105 56.0139 190.784 56.4708 190.93C56.5329 190.887 56.554 189.862 56.5196 189.815C56.3202 189.544 56.072 190.192 56.0684 190.304C56.0628 190.47 56.4877 190.3 56.4066 190.545C56.2575 190.492 55.8737 190.512 55.7983 190.45C55.7786 190.434 56.0782 190.104 55.6718 190.052C55.3218 190.007 55.2903 190.326 55.1703 190.478L54.5538 190.442C54.8159 190.993 54.3371 190.648 54.2599 190.711C53.9262 190.983 54.8952 191.105 54.9534 191.069C54.9693 191.06 54.9133 190.886 55.0093 190.704L55.0082 190.703ZM65.3988 191.328C65.3814 191.306 64.9644 191.106 64.9317 191.13L64.8928 191.373L65.3795 191.449C65.3795 191.408 65.4126 191.349 65.3986 191.329L65.3988 191.328ZM90.5315 195.126C90.4285 194.982 90.0055 195.288 90.1106 195.434C90.2158 195.581 90.6366 195.273 90.5315 195.126ZM57.2324 190.052L56.7457 189.977L56.7069 190.219L57.1949 190.294L57.2337 190.052L57.2324 190.052ZM66.9073 191.917C67.0205 191.799 66.8524 191.555 66.8023 191.548C66.6854 191.532 66.3277 191.88 66.2094 191.954C65.963 192.108 65.6868 191.832 65.7176 192.5C65.9644 192.336 66.3226 192.633 66.4596 192.564C66.6637 192.462 66.5979 192.152 66.674 191.988C66.7219 191.885 66.8884 191.936 66.9073 191.917ZM73.6525 192.658C73.5435 192.584 73.4478 192.575 73.3248 192.564L73.2494 193.051L73.8761 193.023C73.8721 192.958 73.6702 192.67 73.6525 192.658ZM120.744 199.968C119.811 199.781 118.874 199.953 117.943 199.904C117.415 199.876 116.753 199.897 116.312 199.862C115.655 199.809 114.854 199.254 114.16 199.752C114.269 200.185 115.617 199.88 115.979 200.1C115.794 200.44 115.504 200.091 115.425 200.449C115.329 200.883 116.312 200.354 116.51 200.307C116.609 200.284 116.499 200.546 116.604 200.581C117.329 200.824 117.986 200.1 118.179 200.097C118.729 200.089 119.492 200.276 120.23 200.222C120.451 200.206 120.775 200.312 120.743 199.969L120.744 199.968ZM55.2626 189.869L54.7758 189.794L54.7174 190.159C54.9394 190.223 55.076 190.223 55.2334 190.051L55.2624 189.87L55.2626 189.869ZM60.9351 191.127C60.9991 190.966 60.9204 190.793 60.7502 190.725L60.6917 191.09L60.9349 191.129L60.9351 191.127ZM71.2135 192.486C71.1015 192.3 70.5121 192.234 70.5677 192.633L71.176 192.728C71.1804 192.651 71.229 192.512 71.2147 192.486L71.2135 192.486ZM71.9059 192.842C71.7483 192.728 71.5683 192.868 71.6447 192.924C71.8023 193.038 71.9823 192.898 71.9059 192.842ZM102.261 197.581C102.226 197.535 101.731 197.525 101.591 197.475C101.166 198.332 102.58 198.002 102.261 197.581ZM51.4078 189.767L51.0431 189.709L50.9675 190.197L51.148 190.226C51.3596 190.126 51.4014 189.996 51.4078 189.767ZM62.0395 192.05C62.1414 191.57 61.5953 191.652 61.3395 191.536C61.1854 191.466 61.1363 191.232 60.918 191.251L60.6818 191.962C61.2304 191.939 61.5046 191.694 62.0408 192.05L62.0395 192.05ZM88.345 195.533C88.242 195.389 87.819 195.694 87.9241 195.841C88.0271 195.985 88.4501 195.68 88.345 195.533ZM63.0528 191.96C63.0354 191.938 62.6184 191.738 62.5858 191.762L62.5468 192.005L63.0335 192.081C63.0335 192.04 63.0666 191.981 63.0526 191.962L63.0528 191.96ZM65.1445 192.162C65.0873 192.084 64.4837 192.238 64.6202 192.328L65.1066 192.406L65.1457 192.162L65.1445 192.162ZM72.7027 193.341L72.216 193.266L72.1772 193.508L72.6652 193.584L72.704 193.342L72.7027 193.341ZM68.7908 193.605C68.7507 193.527 68.6673 192.926 68.5824 192.948C68.3248 193.129 68.0341 193.248 68.0415 193.612L68.8942 193.746C68.9837 193.876 69.3151 194.019 69.4661 194.084C69.6061 194.145 69.7317 194.303 69.9346 194.281C70.114 193.866 69.6132 194.067 69.4856 193.963C69.4775 193.956 69.5408 193.798 69.4806 193.748C69.372 193.656 69.1785 193.684 69.1573 193.661C69.1369 193.64 69.3866 193.335 69.3555 193.194L68.7921 193.605L68.7908 193.605ZM143.557 205.029C142.002 204.663 143.256 205.577 143.498 205.394C143.527 205.372 143.525 205.126 143.557 205.029ZM86.5889 196.383C86.5022 196.392 86.4029 196.316 86.2577 196.37C86.135 196.414 85.5521 196.841 85.377 196.943C85.8472 197.08 86.1884 196.704 86.6142 197.012L86.417 196.67C86.4262 196.596 86.6021 196.588 86.691 196.524C86.697 196.52 86.7744 196.561 86.8214 196.481L86.8503 196.301C86.6754 196.212 86.6034 196.383 86.5874 196.384L86.5889 196.383ZM148.288 205.895C147.992 205.578 147.747 206.605 148.599 206.313L148.288 205.895ZM25.9638 187.166C26.1248 187.046 25.9729 186.766 25.7301 187.068C25.6977 187.172 25.9534 187.174 25.9638 187.166ZM112.432 200.419C112.357 200.348 112.092 200.363 111.985 200.471C111.639 200.818 112.232 201.134 112.419 200.917C112.511 200.809 112.45 200.436 112.432 200.419ZM55.9519 191.85L55.5867 191.794L55.5677 191.913L55.9129 192.093L55.9519 191.85ZM62.639 193.019C62.4935 192.854 61.5226 193.424 61.6717 193.616C62.1213 193.71 62.3585 193.279 62.639 193.019ZM141.806 205.872C141.938 206.161 142.911 205.906 142.943 205.744C143.007 205.42 141.538 205.288 141.806 205.872ZM84.1856 197.382C84.0141 197.428 83.706 197.54 83.6599 197.55C83.5958 197.564 83.4806 197.497 83.4167 197.511C82.7423 197.656 81.949 197.716 81.2622 197.89C81.1022 197.93 80.8919 197.899 80.8261 198.105C81.0448 198.182 81.2199 198.146 81.4333 198.125C82.1139 198.055 82.671 197.839 83.3775 197.755C83.4806 197.743 83.6383 197.823 83.7438 197.812C83.7663 197.811 84.1322 197.641 84.1479 197.625L85.8858 198.133L86.719 197.964L85.0582 197.392L85.2381 197.048C85.097 196.879 84.2926 197.353 84.1869 197.382L84.1856 197.382ZM111.857 201.702C111.877 201.687 111.968 201.33 111.997 201.226C111.429 201.269 111.619 201.889 111.857 201.702ZM27.3968 188.39C27.167 188.3 26.9883 188.113 26.6389 188.024C26.5128 187.992 26.1509 187.842 26.1862 188.138C26.2064 188.306 26.4671 188.088 26.5602 188.187C26.7276 188.364 26.4304 188.752 26.9124 188.693C26.978 188.685 26.9186 188.384 27.3771 188.512C27.6546 188.591 28.11 189.1 28.3514 188.666C28.0693 188.518 27.6561 188.492 27.3953 188.391L27.3968 188.39ZM63.2738 193.743C63.1619 193.59 62.881 193.794 62.993 193.947C63.105 194.1 63.3858 193.896 63.2738 193.743ZM91.4348 198.139C91.3405 197.99 90.9008 198.31 91.014 198.447C91.1909 198.662 91.5869 198.378 91.4348 198.139ZM93.2623 198.424L92.8976 198.366L92.8584 198.61L93.2231 198.669L93.2623 198.424ZM113.114 201.649L112.749 201.591L112.71 201.835L113.075 201.894L113.114 201.649ZM82.8628 197.052L82.4981 196.993L82.4591 197.236C82.6208 197.3 82.7935 197.222 82.8615 197.051L82.8628 197.052ZM30.0381 188.945C29.9691 188.885 29.0776 188.755 28.8998 188.75C28.0207 188.723 29.3427 189.181 29.3756 189.221C29.4652 189.334 29.1753 189.57 29.5177 189.596C29.9545 189.63 30.3316 189.203 30.0381 188.945ZM28.4173 189.049C28.3054 188.896 28.0245 189.101 28.1365 189.254C28.2485 189.407 28.5293 189.203 28.4173 189.049ZM108.611 201.695C108.239 201.548 108.085 201.923 107.76 201.934C106.641 201.972 104.624 201.51 103.367 201.425C103.119 201.407 102.866 201.529 102.579 201.51C102.255 201.488 101.558 201.024 101.511 201.584C101.652 201.731 102.811 201.746 103.016 201.815C103.1 201.843 103.05 202.047 103.14 202.085C103.709 202.326 104.599 201.79 105.296 201.96L108.167 202.375L108.611 201.694L108.611 201.695ZM90.0242 199.168C89.9707 199.093 89.3355 199.198 89.4805 199.456C89.7063 199.612 90.1441 199.337 90.0242 199.168ZM56.2189 194.14C56.1502 194.053 55.788 194.101 55.7041 194.248C55.4775 194.646 56.4305 194.409 56.2189 194.14ZM91.8164 199.698C91.5374 199.735 90.7792 199.306 90.8043 199.788C91.1233 199.813 91.6031 200.054 91.8164 199.698ZM94.7218 200.277C94.4535 200.305 93.8013 199.918 93.8313 200.386C94.0996 200.358 94.7518 200.745 94.7218 200.277ZM29.3428 190.319C29.2308 190.166 28.95 190.37 29.062 190.523C29.1739 190.676 29.4548 190.472 29.3428 190.319ZM124.794 205.221L124.429 205.162L124.39 205.407L124.755 205.465L124.794 205.221ZM27.7392 190.193C27.6272 190.04 27.3464 190.244 27.4583 190.397C27.5703 190.55 27.8512 190.346 27.7392 190.193ZM109.05 202.888C108.675 202.862 108.258 202.716 107.89 202.706C107.708 202.701 107.497 202.74 107.671 202.922C108.047 202.948 108.463 203.093 108.831 203.104C109.013 203.109 109.224 203.07 109.05 202.888ZM54.9046 194.56L54.5399 194.501L54.5007 194.746L54.8655 194.804L54.9046 194.56ZM97.6832 202.111C97.7432 202.196 99.4026 202.055 99.4934 201.71C99.4686 201.258 97.5967 201.365 97.6832 202.111ZM78.6574 198.393L78.1711 198.315L78.1321 198.558C78.355 198.625 78.5534 198.624 78.6561 198.392L78.6574 198.393ZM104.584 202.691C104.412 202.456 103.997 202.815 104.022 203.101L104.509 203.176C104.51 203.056 104.61 202.724 104.584 202.69L104.584 202.691ZM75.046 198.328C74.5487 198.188 74.5114 198.429 75.027 198.447L75.046 198.328ZM74.5398 198.375C74.0425 198.235 74.0052 198.475 74.5207 198.494L74.5398 198.375ZM46.1162 194.061C46.0042 193.908 45.7234 194.112 45.8354 194.265C45.9473 194.418 46.2282 194.214 46.1162 194.061ZM74.0336 198.421L73.4244 198.323L73.3683 198.69C73.4473 198.811 74.1176 198.503 74.0336 198.421ZM48.4763 196.551C49.5855 196.6 50.6908 196.388 51.8032 196.449C52.2144 196.472 53.6676 196.946 53.7437 196.438C53.8655 195.63 52.4294 196.121 52.0155 196.148C50.9465 196.217 49.8536 196.116 48.8038 196.342C48.6176 196.382 48.4665 196.17 48.4763 196.551ZM51.4387 196.766C51.3267 196.613 51.0459 196.817 51.1579 196.97C51.2698 197.124 51.5507 196.919 51.4387 196.766ZM48.2497 196.393L45.6615 196.767L44.507 197.181C45.061 197.45 45.3099 197.077 45.7153 196.988C46.4527 196.827 47.1857 196.824 47.8836 196.703C48.0943 196.666 48.2525 196.67 48.251 196.393L48.2497 196.393ZM44.3838 197.163C44.3245 197.083 43.5294 197.351 43.7001 197.555C43.7804 197.652 44.4488 197.446 44.3838 197.163ZM84.0866 203.61C84.0726 203.427 83.9329 203.299 83.7591 203.311L83.7203 203.553L84.0868 203.609L84.0866 203.61ZM91.6628 204.67L91.2981 204.611L91.2589 204.856L91.6237 204.914L91.6628 204.67ZM44.8144 197.605C44.7024 197.452 44.4216 197.656 44.5336 197.81C44.6455 197.963 44.9264 197.758 44.8144 197.605ZM82.1165 203.428L81.7518 203.37L81.7126 203.614L82.0773 203.673L82.1165 203.428ZM39.7784 197.069L39.2917 196.993L39.2726 197.112L39.7593 197.188L39.7784 197.069ZM41.237 198.918C41.4243 198.781 41.1736 198.257 40.8269 198.356C40.7161 198.622 41.0022 199.089 41.237 198.918ZM38.3958 198.725L36.5069 198.431C35.8013 198.32 35.6643 198.872 35.1126 198.964C35.1485 199.256 35.5067 199.298 35.7479 199.325C36.0999 199.364 37.3997 199.044 37.8583 198.95C38.0075 198.92 38.3692 198.9 38.3969 198.727L38.3958 198.725ZM34.8219 198.419C34.4883 198.469 32.5412 198.349 32.4479 198.423C32.4331 198.434 32.3815 198.772 32.3923 198.787C32.5258 198.978 33.6506 198.52 33.8839 198.833C33.8667 198.974 31.8738 198.951 32.2777 199.518C32.3183 199.576 33.4821 199.497 33.6847 199.479C33.7805 199.47 33.8117 199.284 33.9008 199.277C34.1745 199.256 34.5054 199.403 34.7915 199.412C35.0072 198.738 34.7047 198.921 34.1359 198.809L34.8206 198.419L34.8219 198.419ZM35.3814 199.63L34.8946 199.554L34.8362 199.919C35.1073 199.931 35.4261 199.932 35.3812 199.631L35.3814 199.63ZM46.9634 201.437C46.5986 201.469 46.2336 201.339 46.2797 201.829C46.3453 201.928 47.0321 201.721 46.9634 201.437ZM32.0329 199.482C31.7328 199.577 31.3565 199.623 31.0656 199.71C30.9607 199.742 30.5432 199.824 30.7006 200.022C30.8011 200.148 31.0876 199.851 31.2771 199.872C31.4682 199.893 31.6974 200.117 31.9378 200.091L32.0329 199.482ZM29.4617 199.954C29.393 199.867 28.5976 199.948 28.7962 200.224C28.822 200.26 29.6752 200.227 29.4617 199.954ZM30.1175 200.556L29.7528 200.497L29.7136 200.742L30.0783 200.8L30.1175 200.556ZM55.6025 205.284C55.2495 205.202 54.6369 205.142 54.5526 205.619C54.8223 205.549 55.6022 205.712 55.6025 205.284ZM42.375 205.218C42.0725 204.82 42.0936 205.859 42.1427 205.93C42.4065 206.315 42.4966 205.376 42.375 205.218ZM44.5518 205.682C44.4488 205.538 44.0258 205.843 44.1309 205.99C44.2339 206.134 44.6569 205.829 44.5518 205.682ZM36.0846 204.735C35.5903 204.494 34.556 204.633 33.993 204.533C33.9514 204.555 33.8327 204.763 34.117 204.767C34.3712 204.77 34.8766 204.794 35.1012 204.859C35.2719 204.908 35.4101 205.134 35.5748 205.163C35.6094 205.169 35.7669 204.94 35.9446 204.838C36.1464 205.168 36.3379 204.858 36.0859 204.735L36.0846 204.735ZM33.6073 204.597C33.0359 204.518 32.4435 204.332 31.8737 204.513C32.1341 205.23 32.1864 204.896 32.7261 204.968C33.1864 205.029 33.2519 205.43 33.6073 204.597ZM30.6252 204.505C30.5552 204.115 30.0187 204.154 29.7181 204.227C29.2932 204.331 29.5382 204.809 29.8461 204.698C30.0649 204.619 30.2305 204.323 30.6252 204.505ZM40.3198 206.394C40.3932 206.198 40.3061 206.136 40.176 206.014C39.4785 205.361 39.3387 206.455 40.3198 206.394ZM28.5529 204.184L28.0665 204.106L28.0276 204.349C28.2505 204.416 28.4488 204.415 28.5516 204.184L28.5529 204.184ZM39.3631 206.122C39.0516 205.92 38.551 205.882 38.4544 206.353C38.6751 206.304 39.3895 206.531 39.3631 206.122ZM37.8633 206.135C37.7955 205.796 37.1944 205.624 37.2549 206.04L37.8633 206.135ZM67.2993 214.354C67.4438 214.247 67.1343 213.827 66.9915 213.932C66.8471 214.038 67.1566 214.458 67.2993 214.354ZM32.5615 215.3C32.6677 215.44 33.4934 215.375 33.4798 215.009C33.4634 214.562 32.2932 214.943 32.5615 215.3Z" fill="#FF319C"/>
<path d="M67.9294 192.721C67.907 192.787 67.9117 192.954 67.8904 192.964C67.7658 193.03 67.2335 192.905 67.4406 192.644C67.6025 192.649 67.7668 192.712 67.9283 192.72L67.9294 192.721Z" fill="#FF319C"/>
<path d="M65.2994 177.572C65.037 178.398 65.9285 177.585 66.0291 177.686L66.0376 178.435L65.731 178.015L65.604 178.243L64.5002 178.694L65.2035 178.178L64.7351 177.981C64.7751 177.863 64.7751 177.519 64.8107 177.494C64.8537 177.462 65.1781 177.584 65.2984 177.57L65.2994 177.572Z" fill="#FF319C"/>
<path d="M112.521 173.454C113.138 173.617 113.58 173.529 113.401 174.216C113.342 174.441 112.989 174.647 112.86 174.88L112.874 174.383L112.453 174.691C112.411 174.389 112.792 174.156 112.827 173.945C112.841 173.857 112.393 173.737 112.52 173.453L112.521 173.454Z" fill="#FF319C"/>
<path d="M116.897 192.623C116.92 192.612 116.863 192.254 117.237 192.424C117.272 192.44 117.264 192.596 117.359 192.686C117.423 192.747 117.597 192.709 117.628 192.737C117.641 192.749 117.597 192.94 117.707 193.053C117.842 193.19 118.135 193.189 118.143 193.442L117.386 193.078L117.311 193.564L116.897 192.624L116.897 192.623Z" fill="#FF319C"/>
<path d="M130.508 196.621C130.499 196.676 130.58 196.808 130.592 196.884C130.459 196.855 129.981 196.697 129.964 196.91L130.919 197.186C131.049 197.438 129.165 197.376 129.761 196.563L130.508 196.621Z" fill="#FF319C"/>
<path d="M119.186 192.354L119.166 192.476L119.293 192.87C119.414 192.893 119.356 192.702 119.391 192.636C119.565 192.738 119.799 192.744 119.699 193.058C118.907 193.219 119.153 192.872 118.889 192.62C118.768 192.505 118.592 192.54 118.539 192.502C118.465 192.451 118.467 192.417 118.435 192.361C118.607 192.159 118.956 192.348 119.186 192.353L119.186 192.354Z" fill="#FF319C"/>
<path d="M86.6054 164.287L86.727 164.307C86.4694 165.537 86.1926 165.373 86.2393 164.23C86.2794 164.234 86.3214 164.242 86.3609 164.249C86.3826 164.253 86.4609 164.403 86.6039 164.288L86.6054 164.287Z" fill="#FF319C"/>
<path d="M135.75 197.439C136.031 198.191 135.379 198.056 135.507 197.4C135.569 197.392 135.671 197.432 135.75 197.439Z" fill="#FF319C"/>
<path d="M55.306 191.998C55.28 192.07 55.2898 192.165 55.267 192.242C55.1906 192.219 55.0782 192.232 55.0239 192.203C54.904 192.14 54.6074 191.919 54.5932 191.762C54.8101 191.826 55.1073 191.904 55.3062 191.997L55.306 191.998Z" fill="#FF319C"/>
<path d="M88.0883 192.374L87.7238 192.317L87.6861 192.558L88.0506 192.615L88.0883 192.374Z" fill="#FF319C"/>
<path d="M92.6743 160.614L92.4512 161.194L92.0993 161.085C92.1253 160.866 92.3804 160.832 92.5329 160.717C92.5792 160.683 92.6278 160.65 92.6743 160.614Z" fill="#FF319C"/>
<path d="M135.118 197.091C135.19 197.143 135.184 197.184 135.098 197.212L135.118 197.091Z" fill="#FF319C"/>
<path d="M129.948 139.996C129.976 140.013 129.949 140.162 130.044 140.209C130.481 140.425 131.718 140.438 131.869 140.532C131.965 140.59 132.188 141.24 132.262 141.385C132.317 141.495 132.519 141.557 132.559 141.649C132.608 141.759 132.983 142.951 132.985 143.024C132.999 143.459 132.583 143.377 132.365 143.59C132.065 143.883 131.647 144.623 131.251 145.022C130.57 145.707 127.603 147.389 126.692 147.657C126.472 147.721 125.057 147.965 124.95 147.924C124.872 147.894 124.916 147.66 124.847 147.645C124.586 147.587 122.61 148.411 122.153 148.54C121.746 148.656 121.289 148.659 120.91 148.761C119.442 149.157 117.995 149.717 116.458 149.838L117.965 147.426C119.313 146.646 119.846 144.819 120.804 143.73C121.204 143.274 121.97 142.942 122.481 142.468C123.314 141.693 123.36 140.997 124.61 140.656C124.89 140.58 125.209 140.651 125.512 140.559C126.064 140.392 127.098 139.703 127.535 139.632C127.917 139.57 129.677 139.82 129.948 139.996Z" fill="#FF319C"/>
<path d="M116.545 186.073C116.099 185.394 115.18 184.132 114.831 183.46C114.052 181.956 115.135 181.688 115.19 180.31C115.204 179.962 114.902 179.735 115.245 179.336C115.468 179.079 116.432 179.042 116.755 178.738L116.759 179.114L117.142 179.047C117.311 180.053 117.522 180.897 117.314 181.948C117.272 182.159 117.055 182.398 117.079 182.659C117.396 182.794 117.345 182.363 117.745 182.389C117.779 182.755 117.719 183.026 117.65 183.374C118.031 183.674 117.687 182.935 118.094 183.649C118.133 183.717 118.284 183.712 118.286 183.722C118.33 183.868 118.078 184.305 118.494 184.38C118.7 184.417 118.434 183.864 118.408 183.741C118.728 183.415 118.954 184.41 119.132 184.474C119.437 184.585 119.759 184.521 120.101 184.716C120.937 185.194 124.456 190.622 125.319 191.823C125.602 192.218 125.558 192.814 126.286 192.968C126.548 193.023 126.377 192.519 127.027 192.951C127.101 193 127.302 193.334 127.018 193.171C126.847 192.903 126.695 193.274 126.62 193.516C126.345 193.489 126.029 193.553 125.82 193.509C125.319 193.404 125.01 193.031 124.287 193.278L124.755 193.475C124.752 193.781 124.673 193.74 124.423 193.664C124.201 193.597 123.392 193.214 123.158 193.093C123.057 193.04 123.069 192.67 122.617 192.768L122.758 193.042C122.331 192.62 121.564 192.642 121.124 192.415C120.963 192.333 121.134 192.102 121.107 192.033C121.188 192.136 121.474 192.022 121.37 191.95C121.252 191.868 121.054 191.964 121.107 192.033C121.1 192.015 120.867 191.933 120.761 191.854C120.717 191.822 120.688 191.758 120.657 191.713C120.744 191.671 120.965 191.897 120.938 191.507L120.33 191.41L120.527 190.944L119.798 190.827C119.752 190.626 120.635 190.718 120.359 190.418C120.204 190.249 119.13 190.536 118.918 190.17C118.875 190.095 118.946 189.998 118.936 189.946C120.146 190.428 120.086 189.913 118.975 189.702C118.939 189.655 118.668 189.757 118.751 189.544L119.247 189.558C118.688 189.156 118.494 188.674 118.088 188.19C117.967 188.046 117.974 187.846 117.638 187.87C117.441 186.915 116.988 186.75 116.545 186.076L116.545 186.073ZM124.119 192.752L123.754 192.696L123.735 192.815L124.08 192.995L124.119 192.752Z" fill="#FF319C"/>
<path d="M119.397 157.417L119.377 157.539C117.952 158.462 116.174 159.096 114.551 159.658C112.676 160.308 110.759 160.877 108.89 161.522C107.76 161.912 106.605 162.243 105.513 162.743C105.262 162.748 105.299 162.631 105.429 162.48C106.248 161.52 108.116 161.427 109.168 161.092C112.56 160.008 115.966 158.363 119.395 157.418L119.397 157.417Z" fill="#FF319C"/>
<path d="M90.979 163.471C90.9857 163.446 91.1121 163.394 91.1014 163.322C91.0732 163.13 90.8029 163.006 90.8558 162.79C91.0061 162.18 91.6127 162.245 91.6625 162.188C91.7824 162.054 91.7433 161.454 91.8289 161.232L92.1409 161.488L91.9833 162.627C92.3317 162.141 92.7997 161.538 93.4301 161.421C93.6006 161.39 94.0298 161.57 94.163 161.468C94.5038 161.209 93.7452 161.233 93.8548 161.048C94.3833 161.264 94.2148 160.785 94.2774 160.738C94.5677 160.523 94.425 161.078 94.6033 161.038L94.9234 160.59C94.7471 160.862 95.0971 161.013 95.1001 161.076C95.1328 161.748 94.1885 161.825 93.8545 162.083C93.6672 162.227 93.3484 162.833 93.0971 162.934C92.8627 163.029 92.5035 162.977 92.1638 163.098C91.9771 163.165 91.3223 163.508 91.568 163.687C91.4086 163.682 91.23 163.609 91.08 163.611C91.0055 163.625 90.9643 163.514 90.9766 163.47L90.979 163.471Z" fill="#FF319C"/>
<path d="M106.885 151.968C107.109 152.302 106.5 152.14 106.481 152.154C106.772 152.563 106.043 153.256 105.728 153.422C105.507 153.539 105.413 153.364 105.314 153.384C105.287 153.391 105.205 153.717 104.894 153.528C104.904 153.231 105.226 153.091 105.321 152.849C105.392 152.667 105.286 152.443 105.341 152.374C105.369 152.338 106.062 151.892 106.117 151.871C106.306 151.803 106.781 151.814 106.885 151.968Z" fill="#FF319C"/>
<path d="M42.6571 189.025C42.6722 189.291 42.4833 189.282 42.3147 189.368C41.1224 189.968 39.9015 190.673 38.6883 191.207C38.1403 191.449 37.4581 191.471 38.2329 191.027C39.1712 190.488 40.6553 189.795 41.6664 189.366C41.8199 189.302 42.5978 188.945 42.6584 189.025L42.6571 189.025Z" fill="#FF319C"/>
<path d="M59.6993 181.444C59.902 181.677 59.2251 181.717 59.1498 181.933C59.101 182.074 59.2254 182.313 59.1628 182.483C58.8022 182.456 58.3219 182.227 58.0283 182.487C57.9105 182.592 57.9236 182.821 57.76 182.892C57.4837 183.011 57.2299 182.794 57.0688 182.784C57.0362 182.782 56.8029 183.19 56.5925 182.955C56.479 182.828 57.0022 182.527 57.0708 182.493C57.3407 182.356 59.6062 181.337 59.698 181.444L59.6993 181.444Z" fill="#FF319C"/>
<path d="M115.221 157.765C115.019 157.858 111.571 159.588 111.671 158.897C112.001 158.96 112.151 158.63 112.257 158.59C113.118 158.266 114.454 157.965 115.24 157.643L115.221 157.765Z" fill="#FF319C"/>
<path d="M70.0663 177.441C70.2455 177.281 70.1527 176.779 70.1903 176.733C70.2882 176.613 71.5884 176.131 71.7364 176.33C71.6369 177.147 70.7134 177.268 70.065 177.441L70.0663 177.441Z" fill="#FF319C"/>
<path d="M62.4691 180.504C62.4906 180.533 62.415 180.768 62.4107 180.868C61.8226 180.46 61.8715 180.965 61.5694 181.123C61.3774 181.224 61.1837 181.131 61.0236 181.188C60.9469 181.216 60.9087 181.414 60.7488 181.453C60.6339 181.482 60.0701 181.316 59.8342 181.404C60.0313 181.001 62.2899 180.247 62.4679 180.503L62.4691 180.504Z" fill="#FF319C"/>
<path d="M120.604 154.484L120.277 154.996C120.894 154.818 120.877 155.281 120.918 155.289C121.216 155.343 122.335 154.899 122.749 155.131C122.464 155.353 120.032 155.618 119.945 155.504C120.065 155.243 120.175 154.368 120.602 154.485L120.604 154.484Z" fill="#FF319C"/>
<path d="M84.591 167.594C85.0597 167.568 85.572 167.057 86.0289 166.974C86.187 166.946 86.5075 166.911 86.4013 167.189C85.8219 167.643 85.0217 167.683 84.4121 167.941C84.3982 167.889 84.3122 167.828 84.3088 167.8C84.3044 167.745 84.3279 167.615 84.3477 167.557C84.4274 167.559 84.5169 167.598 84.5908 167.595L84.591 167.594Z" fill="#FF319C"/>
<path d="M131.584 123.349C131.774 124.671 130.157 123.994 130.623 123.447C130.794 123.245 131.337 123.284 131.584 123.349Z" fill="#FF319C"/>
<path d="M126.934 196.317C127.219 196.753 125.5 197.102 125.218 196.918C125.268 196.664 125.712 196.842 125.844 196.732C126.05 196.561 125.822 196.647 126.25 196.418C126.512 196.277 126.354 196.027 126.934 196.317Z" fill="#FF319C"/>
<path d="M70.0652 177.441C69.4604 177.604 69.1079 177.617 68.5265 177.7C68.9705 177.099 69.4271 176.977 70.0652 177.441Z" fill="#FF319C"/>
<path d="M63.7382 179.576C63.8422 179.754 63.7345 179.968 63.9231 179.978C64.0166 179.256 64.2812 179.504 64.6908 179.331C64.9723 179.212 65.5995 178.819 65.7995 178.775C66.1818 178.691 65.8125 179.112 65.8014 179.148C65.404 179.09 65.3507 179.594 65.0161 179.774C64.6823 178.885 64.3685 180.008 63.9484 180.082C63.712 180.124 62.7914 180.195 63.3332 179.762C63.3557 179.76 63.553 179.52 63.7371 179.575L63.7382 179.576Z" fill="#FF319C"/>
<path d="M84.4116 167.941C84.2187 168.023 82.9905 168.915 82.7973 168.687C82.613 168.47 83.0118 168.446 83.0746 168.406C83.4816 168.152 83.9259 168.073 84.3083 167.8C84.3104 167.828 84.3964 167.889 84.4116 167.941Z" fill="#FF319C"/>
<path d="M125.167 190.042C125.075 189.96 124.334 189.346 124.55 189.197C124.744 189.064 124.921 189.703 125.101 189.713C125.2 189.809 125.146 189.953 125.168 190.042C125.6 190.421 125.736 190.305 125.953 190.436C126.005 190.468 126.022 190.648 126.067 190.682L125.987 190.794C125.123 190.748 125.303 190.586 125.168 190.043L125.167 190.042Z" fill="#FF319C"/>
<path d="M131.84 126.511L132.946 125.81C132.912 126.319 132.297 126.604 131.84 126.511Z" fill="#FF319C"/>
<path d="M68.5264 177.702C68.503 177.733 68.5413 177.863 68.4741 177.921L67.4377 178.28C67.7469 177.751 68.0227 177.774 68.5262 177.703L68.5264 177.702Z" fill="#FF319C"/>
<path d="M75.1741 175.117C75.1055 175.168 74.5773 175.036 74.6037 174.781C74.8377 174.887 74.8668 174.476 75.0661 174.602C75.2178 174.697 75.2603 175.055 75.1741 175.117Z" fill="#FF319C"/>
<path d="M112.725 157.75L111.675 158.084C111.703 157.665 112.469 157.706 112.725 157.75Z" fill="#FF319C"/>
<path d="M115.241 157.641C115.284 157.623 116.323 156.859 116.021 157.45C115.963 157.562 115.357 157.701 115.222 157.764L115.242 157.643L115.241 157.641Z" fill="#FF319C"/>
<path d="M121.658 194.114C121.487 194.08 121.284 194.089 121.129 194.016C120.657 193.793 121.489 193.369 121.658 194.114Z" fill="#FF319C"/>
<path d="M116.212 155.422C116.35 155.191 116.222 154.834 116.776 155.011C116.758 155.088 116.763 155.18 116.738 155.254C116.542 155.308 116.399 155.359 116.212 155.422Z" fill="#FF319C"/>
<path d="M104.247 153.678C104.245 153.397 104.435 153.184 104.706 153.125C104.708 153.406 104.518 153.619 104.247 153.678Z" fill="#FF319C"/>
<path d="M45.4691 190.213C45.7357 190.173 46.2276 190.031 46.0598 190.43C45.859 190.42 45.6486 190.339 45.4508 190.335L45.4704 190.213L45.4691 190.213Z" fill="#FF319C"/>
<path d="M128.402 194.919C128.271 195.33 128.253 195.112 127.754 195.066C127.762 194.864 128.186 194.904 128.402 194.919Z" fill="#FF319C"/>
<path d="M101.906 155.061C102.085 155.301 101.418 155.422 101.364 155.349C101.185 155.109 101.852 154.988 101.906 155.061Z" fill="#FF319C"/>
<path d="M119.397 157.417C119.547 157.377 119.694 157.134 119.922 157.25C119.957 157.605 119.634 157.492 119.377 157.54L119.397 157.418L119.397 157.417Z" fill="#FF319C"/>
<path d="M44.4572 190.306C44.3413 190.57 44.0348 190.507 43.8096 190.452C43.6697 190.358 44.2967 190.218 44.4572 190.306Z" fill="#FF319C"/>
<path d="M67.9094 176.856L67.8706 177.098L67.3846 177.022C67.4875 176.79 67.6875 176.789 67.9094 176.856Z" fill="#FF319C"/>
<path d="M142.078 124.115L141.714 124.058L141.675 124.301L142.04 124.358L142.078 124.115Z" fill="#FF319C"/>
<path d="M102.298 151.749L101.933 151.692L102.296 151.376L102.298 151.749Z" fill="#FF319C"/>
<path d="M91.1626 159.88L90.7981 159.823L90.7603 160.065L91.1249 160.122L91.1626 159.88Z" fill="#FF319C"/>
<path d="M67.7955 177.586L67.5539 177.548L67.6121 177.185C67.7822 177.252 67.8607 177.425 67.7968 177.587L67.7955 177.586Z" fill="#FF319C"/>
<path d="M43.3206 190.379C43.2527 190.549 43.0801 190.627 42.9186 190.563L42.9573 190.322L43.3204 190.38L43.3206 190.379Z" fill="#FF319C"/>
<path d="M117.461 154.617C117.526 154.68 117.044 154.943 116.928 154.847C117.158 154.6 117.05 154.483 117.461 154.617Z" fill="#FF319C"/>
<path d="M128.616 195.95C128.45 196.007 128.222 195.688 128.288 195.651C128.454 195.594 128.682 195.913 128.616 195.95Z" fill="#FF319C"/>
<path d="M103.137 150.381C103.075 150.314 103.554 150.056 103.671 150.151C103.491 150.277 103.361 150.465 103.137 150.381Z" fill="#FF319C"/>
<path d="M116.545 186.073C116.655 186.223 116.378 186.434 116.264 186.278C116.15 186.121 116.436 185.924 116.545 186.073Z" fill="#FF319C"/>
<path d="M53.541 192.098C53.6528 192.251 53.3734 192.456 53.2605 192.302C53.1476 192.147 53.4281 191.943 53.541 192.098Z" fill="#FF319C"/>
<path d="M87.9222 170.239C88.034 170.392 87.7546 170.598 87.6417 170.443C87.5288 170.289 87.8093 170.085 87.9222 170.239Z" fill="#FF319C"/>
<path d="M86.6922 170.921C86.804 171.074 86.5246 171.28 86.4117 171.125C86.2998 170.972 86.5793 170.767 86.6922 170.921Z" fill="#FF319C"/>
<path d="M118.24 183.215L118.121 183.196C118.139 182.68 118.38 182.717 118.24 183.215Z" fill="#FF319C"/>
<path d="M126.152 190.945C126.227 190.835 126.349 191.223 126.278 191.337C126.163 191.208 126.083 191.118 126.152 190.945Z" fill="#FF319C"/>
<path d="M68.0357 177.25C68.108 177.302 68.1015 177.342 68.0164 177.37L68.0357 177.25Z" fill="#FF319C"/>
<path d="M98.3135 192.469C98.3272 192.489 98.8161 192.531 98.5189 192.749C98.2189 192.969 98.3304 192.486 98.3135 192.469Z" fill="#FF319C"/>
<path d="M99.6401 195.174C99.6387 194.937 99.8449 194.79 100.063 194.866C100.135 194.915 99.7385 195.109 99.6401 195.174Z" fill="#FF319C"/>
<path d="M115.544 193.286C115.545 193.307 115.733 193.368 115.639 193.486L115.566 193.539C115.535 193.514 115.551 193.42 115.524 193.409L115.544 193.287L115.544 193.286Z" fill="#FF319C"/>
<path d="M86.2397 164.229C86.2561 163.841 86.5718 163.91 86.4905 164.205L86.3607 164.248C86.3212 164.242 86.2794 164.234 86.2397 164.229Z" fill="#FF319C"/>
</g>
<path d="M28 121.063H32.1553C34.4808 121.063 36.2951 122.819 36.2951 124.993C36.2951 127.168 34.4808 128.923 32.1553 128.923H30.7362V132.77H28V121.063ZM33.3528 124.993C33.3528 124.258 32.7367 123.655 31.9669 123.655H31.95C31.1632 123.655 30.5656 124.224 30.5656 124.993C30.5656 125.763 31.164 126.331 31.95 126.331H31.9669C32.7367 126.331 33.3528 125.729 33.3528 124.993Z" fill="#FF319C"/>
<path d="M37.3529 125.077H41.9544C42.7057 125.077 43.2538 125.545 43.2538 126.248C43.2538 126.95 42.7057 127.418 41.9544 127.418H41.133C40.4319 127.418 39.9185 127.92 39.9185 128.605V132.769H37.3529V125.077Z" fill="#FF319C"/>
<path d="M43.6971 128.924C43.6971 126.683 45.5432 124.91 47.8702 124.91H47.9034C50.2289 124.91 52.0764 126.683 52.0764 128.924C52.0764 131.164 50.2289 132.937 47.9034 132.937H47.8702C45.5432 132.937 43.6971 131.164 43.6971 128.924ZM49.4266 128.924C49.4266 128.104 48.7419 127.418 47.9041 127.418H47.8709C47.0332 127.418 46.3484 128.087 46.3484 128.924C46.3484 129.76 47.0332 130.429 47.8709 130.429H47.9041C48.7419 130.429 49.4266 129.726 49.4266 128.924Z" fill="#FF319C"/>
<path d="M53.7371 127.418H52.6423V125.077H53.7371C54.3355 125.077 54.7802 124.642 54.7802 124.057C54.7802 122.335 56.183 121.063 58.0985 121.063H59.74V123.405H58.2005C57.6871 123.405 57.3458 123.823 57.3458 124.241C57.3458 124.658 57.6871 125.077 58.2005 125.077H59.74V127.418H58.3889C57.7905 127.418 57.3458 127.853 57.3458 128.438V132.77H54.7802V128.438C54.7802 127.853 54.3355 127.418 53.7371 127.418Z" fill="#FF319C"/>
<path d="M59.7392 131.264C59.7392 130.344 60.5089 129.592 61.4486 129.592C62.3882 129.592 63.1595 130.344 63.1595 131.264C63.1595 132.183 62.3897 132.936 61.4486 132.936C60.5074 132.936 59.7392 132.183 59.7392 131.264Z" fill="#FF319C"/>
<path d="M64.8696 121.063H67.6051V124.124C67.6051 124.894 68.2382 125.495 69.0079 125.495H71.3172C72.1039 125.495 72.7363 124.894 72.7363 124.124V121.063H75.4717V132.769H72.7363V129.392C72.7363 128.639 72.1032 128.004 71.3172 128.004H69.0079C68.2382 128.004 67.6051 128.64 67.6051 129.392V132.769H64.8696V121.063Z" fill="#FF319C"/>
<path d="M77.1118 128.924V125.077H79.6773V129.057C79.6773 129.894 80.292 130.512 81.1304 130.512C81.9689 130.512 82.585 129.894 82.585 129.057V125.077H85.1505V132.769H80.9605C78.7362 132.769 77.1118 131.147 77.1118 128.923V128.924Z" fill="#FF319C"/>
<path d="M86.9612 121.063H89.5268V125.077H90.9799C93.3069 125.077 95 126.766 95 129.09V132.77H92.4344V128.873C92.4344 128.037 91.8198 127.418 90.9799 127.418C90.14 127.418 89.5268 128.037 89.5268 128.873V132.77H86.9612V121.063Z" fill="#FF319C"/>
</svg>
