<?xml version="1.0" encoding="UTF-8"?>
<svg id="_레이어_1" data-name="레이어_1" xmlns="http://www.w3.org/2000/svg" version="1.1" viewBox="0 0 358 213">
  <!-- Generator: Adobe Illustrator 30.0.0, SVG Export Plug-In . SVG Version: 2.1.1 Build 123)  -->
  <defs>
    <style>
      .st0 {
        fill: #ff319c;
      }
    </style>
  </defs>
  <path class="st0" d="M316.6,93.4l-155.2,14.5,4.4,47.3,155.2-14.5-4.4-47.3h0ZM290.7,120.6h2.7v-2.2h-2.7v-2.1h2.7v-3.7h2.8v15.6h-2.8v-5.4h-2.7v-2.2ZM278.7,114.3h11.1v2.2h-11.1v-2.2ZM257.7,114.4h12v2.2h-12v-2.2ZM231,114.9h11.4c0,4.2-.2,7.1-.7,9.4l-2.7-.3c.4-1.9.6-4.6.6-6.8h-8.5v-2.3h0ZM198.1,134.1c-4.8,0-7.5-1.5-7.5-4s2.7-4,7.5-4,7.5,1.6,7.5,4-2.7,4-7.5,4ZM207.9,124.9h-19.5v-2.2h8.3v-2.1h-5.7v-7.5h14.4v2.3h-11.6v3h11.8v2.2h-6.1v2.1h8.3v2.2ZM208.7,122.7c3-1.1,5-3.4,5.2-6.5h-4.3v-2.3h11.3v2.3h-4.1c.2,3.1,2.4,5.1,4.8,5.9l-1.5,2.2c-1.7-.7-3.7-2.3-4.7-4.2-.6,2.1-2.9,4.1-5,4.8l-1.7-2.2ZM226.2,134.1h-2.9v-5.7h-11.3v-2.2h14.2v7.9ZM229.2,120h-3.1v5.1h-2.9v-12.5h2.9v5.1h3.1v2.3ZM235.7,129.7c-2.2,0-4,.2-5.7.2l-.4-2.3c1.6,0,3,0,4.4,0v-6.1h2.7v5.9c2.6-.2,4.6-.3,6.4-.5l.2,2.2c-2,.3-5.2.5-7.7.7h0ZM250.1,123.7h-2.9v10.4h-2.8v-21.5h2.8v8.8h2.9v2.3h0ZM257.3,129c0-.8-.2-1.6-.4-2.4h3l-.7-8.2c.9,0,1.9-.2,2.8-.4.2,2.9.3,5.7.5,8.6h2.4c.2-2.9.3-5.8.5-8.7l2.7.3-.8,8.1c1.2,0,2.2-.2,3-.4,0,.7.2,1.5.2,2.2-2.5.4-8.4.8-13.2.8h0ZM277.3,123.2h-3v10.9h-2.8v-21.5h2.8v8.3h3v2.3h0ZM278.1,123.6h2.6l-.5-5.9c.9-.1,1.8-.2,2.8-.3,0,2.1.2,4.1.3,6.2.7,0,1.4,0,2.1,0,0-2,.2-4.1.3-6.1l2.7.3-.6,5.7c1,0,1.8-.2,2.6-.3l.2,2.2c-2.7.5-7.7.8-12.2.8l-.4-2.3h0ZM296.6,133.5h-14.9v-6.3h2.9v4.1h12v2.2h0Z"/>
  <path class="st0" d="M198.1,128.3c-2.8,0-4.6.7-4.6,1.8s1.8,1.8,4.6,1.8,4.6-.7,4.6-1.8-1.8-1.8-4.6-1.8Z"/>
  <path class="st0" d="M86.8,31.7c.9,1.6,2.2,2.9,3.7,3.9,1.6.9,3.4,1.4,5.4,1.4s3.8-.5,5.4-1.4c1.6-.9,2.8-2.2,3.7-3.9.9-1.6,1.4-3.5,1.4-5.5v-15.8c0-.8.2-1.4.7-1.9.5-.5,1.1-.7,1.9-.7s1.4.2,1.9.7c.5.5.7,1.1.7,1.9v26.1h8.2V11.1c0-2.2-.5-4.1-1.4-5.8-.9-1.7-2.2-3-3.8-3.9-1.6-.9-3.5-1.4-5.5-1.4s-3.9.5-5.5,1.4c-1.6.9-2.9,2.2-3.8,3.9-.9,1.7-1.4,3.6-1.4,5.8v15.8c0,.7-.2,1.2-.7,1.7-.4.4-1,.7-1.6.7s-1.2-.2-1.6-.7c-.4-.4-.7-1-.7-1.7v-15.8c0-2.2-.5-4.1-1.4-5.8-.9-1.7-2.2-3-3.8-3.9-1.6-.9-3.5-1.4-5.5-1.4s-3.9.5-5.5,1.4c-1.6.9-2.9,2.2-3.8,3.9-.9,1.7-1.4,3.6-1.4,5.8v25.3h8.2V10.4c0-.8.2-1.4.7-1.9.5-.5,1.1-.7,1.9-.7s1.4.2,1.9.7c.5.5.7,1.1.7,1.9v15.8c0,2.1.5,3.9,1.4,5.5h0Z"/>
  <path class="st0" d="M144.1,2.2c-.6-1.4-1.5-2.1-2.6-2.1s-1.1.2-1.5.5c-.4.3-.8.9-1.1,1.6l-16,34.3h36.9l-15.7-34.3ZM144,28.1c-.8.4-1.7.7-2.6.7s-1.8-.2-2.6-.7c-.8-.4-1.4-1.1-1.9-1.9-.4-.8-.7-1.7-.7-2.6s.2-1.8.7-2.6c.5-.8,1.1-1.4,1.9-1.9.8-.5,1.6-.7,2.6-.7s1.8.2,2.6.7c.8.5,1.4,1.1,1.9,1.9.5.8.7,1.6.7,2.6s-.2,1.8-.7,2.6c-.4.8-1.1,1.4-1.9,1.9h0Z"/>
  <path class="st0" d="M171.4,23.2l11.5,12.2c.9,1,2,1.5,3.2,1.6,1.2,0,2.3-.3,3.3-1.2.9-.9,1.4-1.9,1.4-3.1,0-1.2-.5-2.3-1.4-3.3l-10.4-11,10.3-10.9c.9-1,1.4-2.1,1.4-3.3,0-1.2-.4-2.2-1.3-3-.9-.8-2-1.2-3.2-1.1-1.2,0-2.2.6-3.2,1.6l-11.6,12.4V.6h-8.2v35.8h8.2v-13.2Z"/>
  <path class="st0" d="M203.5,28.5V.6h-8.2v35.8h8.2v-7.9Z"/>
  <path class="st0" d="M218.3,10.9c0-1,.3-1.8.9-2.5.6-.6,1.3-.9,2.2-.9s1.6.3,2.2.9c.6.6.9,1.4.9,2.5v14.8c0,2.1.5,4,1.5,5.7,1,1.7,2.3,3,4,4,1.7,1,3.6,1.5,5.8,1.5s4.1-.5,5.8-1.5c1.7-1,3-2.3,4-4,1-1.7,1.5-3.6,1.5-5.7V.6h-8.2v25.5c0,1-.3,1.8-.9,2.5-.6.6-1.3.9-2.2.9s-1.6-.3-2.2-.9c-.6-.6-.9-1.4-.9-2.5v-14.7c0-2.2-.5-4.1-1.5-5.9-1-1.7-2.3-3.1-4-4-1.7-1-3.6-1.4-5.8-1.4s-4.1.5-5.8,1.4c-1.7,1-3,2.3-4,4-1,1.7-1.5,3.7-1.5,5.9v25h8.2V10.9Z"/>
  <path class="st0" d="M261.3,34.5c2.9,1.7,6,2.5,9.4,2.5s6.4-.8,9.1-2.4c2.7-1.6,4.9-3.8,6.5-6.7,1.6-2.8,2.4-5.9,2.4-9.3v-3.8h-20v7.4h11c-.2.9-.5,1.8-1,2.6-.8,1.2-1.8,2.2-3.2,2.9-1.4.7-3,1.1-4.7,1.1s-3.6-.5-5.1-1.4c-1.5-.9-2.7-2.2-3.6-3.7-.9-1.5-1.3-3.3-1.3-5.2s.4-3.6,1.3-5.2c.9-1.5,2-2.8,3.6-3.7,1.5-.9,3.2-1.4,5.1-1.4s2.9.3,4.2.8c1.3.6,2.5,1.3,3.5,2.3l5.4-6c-1.7-1.7-3.7-3-6-4-2.3-.9-4.6-1.4-7.1-1.4s-6.5.8-9.4,2.5c-2.9,1.7-5.2,3.9-6.8,6.7-1.7,2.8-2.5,5.9-2.5,9.2s.8,6.4,2.5,9.2c1.7,2.8,4,5.1,6.8,6.7h0Z"/>
  <path class="st0" d="M72.5,50.1c-2.9-1.6-6.1-2.5-9.6-2.5s-6.8.8-9.6,2.5c-2.9,1.6-5.1,3.9-6.7,6.7-1.6,2.8-2.4,5.9-2.4,9.3s.8,6.5,2.4,9.3c1.6,2.8,3.9,5,6.7,6.7,2.9,1.6,6.1,2.5,9.6,2.5s6.8-.8,9.6-2.5c2.9-1.6,5.1-3.9,6.7-6.7,1.6-2.8,2.4-5.9,2.4-9.3s-.8-6.5-2.4-9.3c-1.6-2.8-3.9-5-6.7-6.7ZM71.4,71.2c-.9,1.6-2.1,2.8-3.6,3.7-1.5.9-3.2,1.4-5,1.4s-3.5-.5-5-1.4c-1.5-.9-2.7-2.2-3.6-3.7-.9-1.6-1.3-3.3-1.3-5.1s.4-3.5,1.3-5.1c.9-1.6,2.1-2.8,3.6-3.7,1.5-.9,3.2-1.4,5-1.4s3.5.5,5,1.4c1.5.9,2.7,2.2,3.6,3.7.9,1.6,1.3,3.3,1.3,5.1s-.4,3.5-1.3,5.1Z"/>
  <path class="st0" d="M105.5,49.8c-1.9-1.1-4-1.6-6.3-1.6h-12.5v35.8h8.2v-11.8h4.3c2.3,0,4.4-.5,6.3-1.6s3.4-2.5,4.5-4.4c1.1-1.8,1.6-3.9,1.6-6s-.5-4.2-1.6-6c-1.1-1.8-2.6-3.3-4.5-4.4h0ZM102.3,62.2c-.4.6-.9,1.1-1.5,1.5-.6.4-1.3.6-2.1.6h0c-.8,0-1.5-.2-2.1-.5-.6-.4-1.1-.8-1.5-1.5-.4-.6-.5-1.3-.5-2.1s.2-1.5.5-2.1c.4-.6.9-1.1,1.5-1.5.6-.4,1.3-.5,2.1-.5h0c.8,0,1.4.2,2.1.6.6.4,1.1.9,1.5,1.5.4.6.6,1.3.6,2.1s-.2,1.4-.6,2.1Z"/>
  <path class="st0" d="M124.9,56.7c.6-.6,1.3-.8,2.2-.8h8.1c1.1,0,2.1-.4,2.8-1.1.7-.7,1.1-1.6,1.1-2.7s-.4-2-1.1-2.7c-.7-.7-1.7-1.1-2.8-1.1h-19.1v35.8h19.1c1.1,0,2.1-.4,2.8-1.1.7-.7,1.1-1.6,1.1-2.7s-.4-2-1.1-2.7c-.7-.7-1.7-1.1-2.8-1.1h-7.9c-1,0-1.7-.3-2.4-.9-.6-.6-.9-1.4-.9-2.4h0c0-1.1.3-1.8.9-2.5.6-.6,1.4-.9,2.4-.9h5.3c1.1,0,2.1-.4,2.8-1.1.7-.7,1.1-1.6,1.1-2.7s-.4-2-1.1-2.7c-.7-.7-1.7-1.1-2.8-1.1h-5.6c-.8,0-1.6-.3-2.2-.9-.6-.6-.9-1.3-.9-2.2h0c0-1,.3-1.7.9-2.3h0Z"/>
  <path class="st0" d="M163.8,83c1.7,1,3.6,1.5,5.8,1.5s4.1-.5,5.8-1.5c1.7-1,3-2.3,4-4,1-1.7,1.5-3.6,1.5-5.7v-25.1h-8.2v25.5c0,1-.3,1.8-.9,2.5-.6.6-1.3.9-2.2.9s-1.6-.3-2.2-.9c-.6-.6-.9-1.4-.9-2.5v-14.7c0-2.2-.5-4.1-1.5-5.9-1-1.7-2.3-3.1-4-4-1.7-1-3.6-1.4-5.8-1.4s-4.1.5-5.8,1.4c-1.7,1-3,2.3-4,4-1,1.7-1.5,3.7-1.5,5.9v25h8.2v-25.5c0-1,.3-1.8.9-2.5.6-.6,1.3-.9,2.2-.9s1.6.3,2.2.9c.6.6.9,1.4.9,2.5v14.8c0,2.1.5,4,1.5,5.7,1,1.7,2.3,3,4,4Z"/>
  <path class="st0" d="M187.5,48.1v35.8h15.4v-35.8h-15.4ZM192.7,54.3c.7-.7,1.6-1.1,2.6-1.1s1.8.4,2.5,1.1c.7.7,1.1,1.5,1.1,2.5s-.3,1.8-1,2.5-1.5,1.1-2.5,1.1-1.9-.4-2.6-1.1c-.7-.7-1.1-1.5-1.1-2.5s.4-1.8,1.1-2.5Z"/>
  <path class="st0" d="M217.7,58.4c0-1,.3-1.8.9-2.5.6-.6,1.3-.9,2.2-.9s1.6.3,2.2.9c.6.6.9,1.4.9,2.5v14.8c0,2.1.5,4,1.5,5.7,1,1.7,2.3,3,4,4,1.7,1,3.6,1.5,5.8,1.5s4.1-.5,5.8-1.5c1.7-1,3-2.3,4-4,1-1.7,1.5-3.6,1.5-5.7v-25.1h-8.2v25.5c0,1-.3,1.8-.9,2.5-.6.6-1.3.9-2.2.9s-1.6-.3-2.2-.9c-.6-.6-.9-1.4-.9-2.5v-14.7c0-2.2-.5-4.1-1.5-5.9-1-1.7-2.3-3.1-4-4-1.7-1-3.6-1.4-5.8-1.4s-4.1.5-5.8,1.4c-1.7,1-3,2.3-4,4-1,1.7-1.5,3.7-1.5,5.9v25h8.2v-25.5Z"/>
  <path class="st0" d="M260.7,82c2.9,1.7,6,2.5,9.4,2.5s6.4-.8,9.1-2.4c2.7-1.6,4.9-3.8,6.5-6.7,1.6-2.8,2.4-5.9,2.4-9.3v-3.8h-20v7.4h11c-.2.9-.5,1.8-1,2.6-.8,1.2-1.8,2.2-3.2,2.9-1.4.7-3,1.1-4.7,1.1s-3.6-.5-5.1-1.4c-1.5-.9-2.7-2.2-3.6-3.7-.9-1.5-1.3-3.3-1.3-5.2s.4-3.6,1.3-5.2c.9-1.5,2-2.8,3.6-3.7,1.5-.9,3.2-1.4,5.1-1.4s2.9.3,4.2.8c1.3.6,2.5,1.3,3.5,2.3l5.4-6c-1.7-1.7-3.7-3-6-4-2.3-.9-4.6-1.4-7.1-1.4s-6.5.8-9.4,2.5c-2.9,1.7-5.2,3.9-6.8,6.7-1.7,2.8-2.5,5.9-2.5,9.2s.8,6.4,2.5,9.2c1.7,2.8,4,5.1,6.8,6.7h0Z"/>
  <path class="st0" d="M316.7,62h-13.3c-1.1,0-1.9-.3-2.5-.8-.6-.6-.9-1.3-.9-2.1s.3-1.5.9-2.1c.6-.5,1.5-.8,2.6-.8h13.3v-7.9h-13.8c-2.1,0-4,.5-5.8,1.4-1.7.9-3.1,2.2-4.1,3.8-1,1.7-1.5,3.6-1.5,5.7s.5,3.9,1.5,5.6c1,1.6,2.4,2.9,4.1,3.7,1.7.9,3.7,1.3,5.8,1.3h2c1.2,0,2.1.3,2.8.9.7.6,1,1.3,1,2.3s-.3,1.7-1,2.3c-.7.6-1.6.9-2.8.9h-13.6v7.9h25.4v-22h0Z"/>
  <path class="st0" d="M28,121.1h4.2c2.3,0,4.1,1.8,4.1,3.9s-1.8,3.9-4.1,3.9h-1.4v3.8h-2.7v-11.7ZM33.4,125c0-.7-.6-1.3-1.4-1.3h0c-.8,0-1.4.6-1.4,1.3s.6,1.3,1.4,1.3h0c.8,0,1.4-.6,1.4-1.3Z"/>
  <path class="st0" d="M37.4,125.1h4.6c.8,0,1.3.5,1.3,1.2s-.5,1.2-1.3,1.2h-.8c-.7,0-1.2.5-1.2,1.2v4.2h-2.6v-7.7Z"/>
  <path class="st0" d="M43.7,128.9c0-2.2,1.8-4,4.2-4h0c2.3,0,4.2,1.8,4.2,4s-1.8,4-4.2,4h0c-2.3,0-4.2-1.8-4.2-4ZM49.4,128.9c0-.8-.7-1.5-1.5-1.5h0c-.8,0-1.5.7-1.5,1.5s.7,1.5,1.5,1.5h0c.8,0,1.5-.7,1.5-1.5Z"/>
  <path class="st0" d="M53.7,127.4h-1.1v-2.3h1.1c.6,0,1-.4,1-1,0-1.7,1.4-3,3.3-3h1.6v2.3h-1.5c-.5,0-.9.4-.9.8s.3.8.9.8h1.5v2.3h-1.4c-.6,0-1,.4-1,1v4.3h-2.6v-4.3c0-.6-.4-1-1-1Z"/>
  <path class="st0" d="M59.7,131.3c0-.9.8-1.7,1.7-1.7s1.7.8,1.7,1.7-.8,1.7-1.7,1.7-1.7-.8-1.7-1.7Z"/>
  <path class="st0" d="M64.9,121.1h2.7v3.1c0,.8.6,1.4,1.4,1.4h2.3c.8,0,1.4-.6,1.4-1.4v-3.1h2.7v11.7h-2.7v-3.4c0-.8-.6-1.4-1.4-1.4h-2.3c-.8,0-1.4.6-1.4,1.4v3.4h-2.7v-11.7Z"/>
  <path class="st0" d="M77.1,128.9v-3.8h2.6v4c0,.8.6,1.5,1.5,1.5s1.5-.6,1.5-1.5v-4h2.6v7.7h-4.2c-2.2,0-3.8-1.6-3.8-3.8h0Z"/>
  <path class="st0" d="M87,121.1h2.6v4h1.5c2.3,0,4,1.7,4,4v3.7h-2.6v-3.9c0-.8-.6-1.5-1.5-1.5s-1.5.6-1.5,1.5v3.9h-2.6v-11.7Z"/>
  <g>
    <path class="st0" d="M59.8,190.8c0,0,.1,0,.2,0,0,0-.1,0-.2,0Z"/>
    <path class="st0" d="M122,197c0-.4,0-.9-.1-1-.1,0-1.2,0-1.3.1-.2,0-.2.4-.4.4,0-.4.8-.6.8-.9,0,0-.4.2-.2-.2,1.2-.3,2.2-.4,1.5,1.1h.9c0-.1-.2-.5-.2-.5.3.1.6,0,.8-.2,0,0,0-.2,0-.2,0,0,.6.6.9.4v-.3c.2,0,.8-.2.7.3,0,.3-.2.1-.4.1,0,.3.6.1.6,0,0-.1-.1-.5,0-.6,0,0,.6,0,1-.5.5-.8-1-.3-1.4-.3-1.6,0-3.3,0-4.8-.1-.2,0-.3-.2-.5-.2,0,0-.2,0-.3,0,0,0,0,0-.1.1,0,0,0,.1-.1.1,0,0-.3,0-.4-.1h-1.4s-.7,1.6-.7,1.6c0,0,0,0,0,0,0,0,0,.2,0,.2.2,0,.4-.1.5,0h2.2c.1,0,.3,0,.4,0,0,0,0,0,0,.2h2.2Z"/>
    <path class="st0" d="M136.2,125.5c.2,0,1.8-.3,2-.4,1.3-.7,2.5-.6,3.5-1.1,1.8-.8,1.9-.9,4-.5.2-.1.4-.1.5,0,.2,0,.5,0,.6,0,.3.1,0,.2,0,.2-.3.4-1,.7-1.4,1-1.4.7-2.5,1.1-3.8,1.9-.2.1-.7.2-1,.5-.8.6-1.5,2.5-.8,3.4-.7,0-.4.5-.1.9h-.4c.3.4,0,.7,0,1,0,1.6,0,2.6,0,4.1,0,0,0,0,0,0l2.7-9.2,6.9-3.7v-.7s-8.6-.8-8.6-.8c0,.1-.1.4,0,.5,0,.1.6.3.6.7-1.6.7-3.4,1-4.9,1.9,0,.2.2,0,.3,0Z"/>
    <path class="st0" d="M135.1,198.9l-.9-.7c-.2,0-.3,0-.5,0-.2,0,0-.3-.3-.3-.3,0-.6.2-1.1.2-1.7,0-3.4-.5-5.1-.3-.2-.4.8-.3,1-.5,0-.2-.5-.2-.7-.2-.7,0-.4.2-.7.3-.5.4-.6.3-.7.2l-.2.2-4.9,1.1.5.8c.2-.1.5-.3.6-.2,0,0,0,.3,0,.5h1.6s.7.9.7.9h14.1c0-.1.7-.5.7-.5l-4.3-1.6ZM128.3,200.7s-.6,0-.8,0c.1-.4,1-.2.8,0Z"/>
    <path class="st0" d="M115.2,175.7c.4,0-.6,1.2,0,.8,0,0,.3-.9.7-.9v.4c-.1,0,.1,0,.1,0l-.2.6c.5-.3.9-.7,1.2-1.2.2,0,0,.2,0,.3,0,0,.1.1.1.1l.4-.3c0,.2-.1.3-.2.5l3.9-2.8c.5-.1.3.7.8.2-.8.9.8.4,1.2.2,0,.6.1-.1.7,0,.3-.4,1.4-2.2,1.7-2.3.3-.2.7,0,1-.2l-.8,1c0,.8-.8,1.4-1.1,1.9-.3.4-.4,1.3-.6,1.9l-.3-.4c0,.7-.8,1.1-.9,1.8-.1.7.1,1.8.1,2.5,0,2.2,0,3.6-.6,5.6,0,0-.4,0-.2.4h-.5c.2.2.4,1.1.6,1.3,0,0,.3.1.4.3.4.6.5,1.1,1.2,1.4.2-.8.5,0,.7.2.3.4.8.9,1,1.3,0,.2.2.4.2.6.1,0,.3.1.4.2,0,0,1,1.3,1,1.4,0,.2-.2.4,0,.5.6-.2.6.5,1,.7h-.5s0,.2,0,.2c0,.1.4.4.3.4-.4-.1-.2.2-.3.3l.2.3c.3,0,.6-.2.9-.1,0,.5-.4.1-.5.2,0,0,0,.2,0,.2.3,0,.6.1.9.1l-.2.3h.6c.1.2-.6.6-.2.9,0,0,1,.1,1.2.2,0,0-.1,0-.1.1h-.7c-.6.8,1.3.8,1.2.6l-1-.3c0-.2.5,0,.6,0,.2,0,.7.2.8.2.1,0,0,.3,0,.4,0,0,.3,0,.3,0,0-.2.2-.3.4-.2v.2s-.4,0-.4,0c.8.4.5,0,.9,0,.2,0,.3.1.5.1,0,0,.1,0,.2,0l-1.5-1.1-7.4-9.6,1.9-6.6c-.5,0-1,0-1.5-.2,0-1.1.7-1.4,1.6-1.2,0,0,.2,0,.3,0l8.6-29.3s0,0,0-.1c-.3-1.2,0-1.1.1-2.2,0-.7-.5-1.1-.8-1.6-.1-.1-.1-.4-.2-.5-.8-.7-1.8,1.1-2.3,1.5-.8.6-2.4.7-3,1.8.3,0,.6,0,.8-.2.3.3-.5.1-.3.5,0,0,.6-.3.8-.1l-.9.7c.5.2,1.3-.5,1.7-.5.3,0,.5.5.8.2,0,.4-.6.3-.8.5h.9c0-.1-.6.4-.6.4h.6c-.5.6-1.2,1-1.8,1.6.7.5-.7,1.1-.9,1.6-2.3,1.7-4.1,1.9-6.6,2.9-1.4.5-2.9,1.5-4.4,2.1-1.3.5-2.7,1.2-4.1,1.3v.2c-1.9.7-3.8.9-5.5,1.6-1.9.8-2.3,2.2-2.9,4h.4c0,0-.2.7-.2.7.5-.2.2,0,.5.2l.4-.8v1.4c0,0,.3-.2.3-.2.2.2-.2.4-.2.6-.1.4,0,.8-.5,1,.3,0,.5-.5.9-.3l-.4.9c.2.1.3-.2.4-.2.4-.9,1.2-.4.4,0,0,0-.2,0-.2,0v.9c.2,0,.3-.3.3-.3.3-.1.5.8.2,1.1l.6-.6c0,.5.4,0,.2.5l.5-.4-.5.9.5-.3v.5c.1-.5.3-.1.4-.2,0,0,0-.3.2-.2v.6s.7-1,.7-1c0,.2-.6,1.2-.5,1.3,0,0,.2,0,.3,0,0,0,0,.2,0,.2.4,0,.4-.7.7-.8-.3.5-.3,1-.2,1.6l.8-1c-.1.4-.4.6-.4,1.1.3-.2.2.1.3.1,0,0,.2,0,.2,0,0,.1-.3.6-.3.8.2,0,.2-.3.4-.5.2-.1.2,0,.2,0-.1.3.3.4.3.5,0,.2-.4.4-.4.7l.4-.3v.5c.1-.2.5-.4.5-.7l.3.5.4-.3v.4c.2,0,.2-.5.4-.2,0,.1-.3.5-.3.5,0,0,.2.2.2.2,0,0,0-.3.2-.2-.1,2.3.6.5.7.5ZM131,196c.1.2-.2.4-.3.2-.1-.2.2-.4.3-.2ZM128.7,194.4c-.1-.1-.2-.2-.1-.4h.2s-.1.4-.1.4ZM129.6,193.9c-.2,0-1-.4-1-.5-.4-.5,1.1.1,1,.5ZM122.7,185.9h.3s.4.8.4.8c-.4,0-.6-.4-.6-.8ZM123.9,187.9c-.2.2-.6-.8-.7-.9l.5-.2s0,.3,0,.5c0,.2.3.6.2.7ZM126.2,172.2l.2-.2c.1.1-.2.3-.2.2ZM107.4,166v.5c-.3-.2-.3-.3,0-.5ZM108.5,168.1h.2c0,.2-.1.4-.3.4v-.4ZM108.5,169.6c0,0-.2-.1,0-.3,0,0,.2.1,0,.3ZM113.5,173.4v-.4c.4,0,.2.3,0,.4Z"/>
    <path class="st0" d="M103.8,178.3h.2c0,.1.4-.5.4-.5-.1,0-.4.5-.7.5Z"/>
    <path class="st0" d="M119.3,192.9v-.4c-.1,0-.1-.1-.1-.1,0,0-.2,0-.3,0l.5.8c0,0,.2,0,.3,0,.1-.3-.1-.3-.3-.4,0,0,0,.3,0,.2Z"/>
    <path class="st0" d="M113.5,184.5l4.3,6.2c-1-1.8-3.1-5-4.3-6.2Z"/>
    <path class="st0" d="M103.3,177.8c-.2-.2.4-1-.8-.7,0-.2.5,0,.3-.3-.1-.2-.8-.1-1,0,0-.3.1-.4-.2-.4l-.4.3c0,0,.2-.3.2-.3-.3-.4,0-.5-.6-.2v-.4c-.4-.2-.3.2-.6.3.2-.6-.2-.2-.6-.5l.3-.2c-.2,0-.5,0-.6,0,0,0-.1-.5-.6-.4h0c.3,0,.4-.5.3-.6,0-.1-1,0-.6-.7-.6.4-.3,0-.5,0-.2-.2-.6-.2-.8-.5,0-.1.2-.4-.5-.5-2-.4-3.9,0-5.9-.2-.3,0-.7-.2-1.2-.2-.5,0-2.7,0-3.2.2-.3,0-.9.5-1.2.7-8.8,3.8-17.2,8.4-25.9,12.3-3.7,1.7-7.5,2.9-11.3,4.4-.3.1-.6.2-1,.3l1.4.2,28.2-8.3h0s0,0,0,0l22.2-6.6,4.6,3c.4-.6-.3-.4-.3-.4Z"/>
    <path class="st0" d="M48.4,185.3c.3.3.5-.6.7-.8.5-.3.7.4.9.3,0-.6.3-.2.6-.4,0,0,.1-.2.2-.2.2,0,.6.1.7,0,.3-.2-.3-.3-.2-.4.4.1.5.5,1,.2.4-.3-.4-.7-.1-.8.8.4,1.5-.4,2.1-.5.3,0,.8.1.9,0,0,0,0-.5.4-.3v-.5c.6.1,1.1-.2,1.6-.5,0,0,0-.2.2-.3.8-.6,2.3-.2,3.2-.9.1-.1.1-.4.2-.4,0,0,.3,0,.4,0,.1,0,.1-.2.2-.2.2,0,.5.1.9.1,0,0,0-.3,0-.4,0,0,1.2,0,1.4,0,.4-.1.3-.6.5-.9.2-.3.5-.1.6-.6l.5.2-.7.5,1.1-.5v-.2c.1,0,.4.4.4.4v-.8c-.1-.1-1,.7-.7-.1.2,0,.4-.1.5-.1.3,0,1.3.5,1-.1,0,0-.3,0-.2-.3.8.3.4-.4.6-.5,0,0,1.2,0,1.3,0,.1,0,0,.3.2.3,0-1.1.6-.6,1.3-.8.2,0,.4-.5.4-.5.2,0,.6,0,.8-.1.1-.1.2-.5.3-.6,0,0,.9-.3,1-.3.3,0,.7.2,1-.1,0-.1,0-.4.2-.5v.5c.2.2.7-.4.7-.6,0,0-.5-.2-.3-.5.3,0,1.5-.8,1.5-1,.3-.4-1,0-1.1,0-.2,0-.2-.2-.1-.3,0,0,.4,0,.6-.1,1.2-.5,2.1-1.3,3.1-1.9.8-.5,1.7-.9,2.5-1.3-1.4.4-2.8,1-4.1,1.7-.2,0-.2-.1,0-.3.2-.2,2.1-1.3,2.5-1.5.7-.4,1.7-.5,2.2-1.3l3.6-1.8v-.2c-.8.1.1-.3.2-.3,0-.2,0-.5,0-.5,0,0,.3,0,.4,0,.3,0,0-.3.7-.2v-.3c-.1,0,.7-.1.7-.1l-.3.5c-.1.1-.2,0-.2,0h.1c0-.3-.2-.4-.3,0,0,1.1.2,1.3.5,0,.9-.8,1.4-1.8,2.3-2.7.2-.2.5-.4.7-.6.4-.4.8-1,1-1.5,1.1.5.6,0,.6-.1,0,0,.2,0,.3,0,.3-.1,1-1,1.1-1,.2,0,.5,0,.5,0,0,0,0-.3,0-.4,0,0,.2-.1.3-.2.3-.3,0-.3.5-.3.1,0,.2,0,.4,0,0,0,0-.2,0-.2h-.4c0-.1,1.2-.9,1.2-.9,0,.4-.5,1.1-.9,1.2-.3,1-1.7,2-1.9,3.1-.2.1-.4.2-.4.4h.4c0,.1.2-.5.2-.5.7-.5,1.5-.9,1.3-1.9.4.3.4.3.6-.2.2.1,0,.5.1.5,0,0,.5,0,.5,0,0,0-.1-.7,0-.9l.6.3-.3-.5c1.9,1.2,1.7-.4,2.4-1.5,0-.1.7-.5.8-.7-.9-.2-.8.6-1.6.8,0,0,0,0-.1,0v.6c-.2,0-1.2.3-1.4.2,0,0-.1-.6-.1-.6.1-.4.9-.5,1-.6.2-.2.6-1,1-1.3-.1,0-.9.4-1.1.5-.2.2-.2.5-.7.5,0-.4.5-.4.7-.5.6-.7.7-.7,1.4-1.2.2-.1.9-.6,1-.7.2,0,.2.4.6.2.3-.4,1.2-.7,1.4-1,.2-.3-.3-.1-.4-.1-.1.2-.3.4-.5.3,0-.3.3-.3.4-.4.4-.3.6-.3.7-.3,0,0,0-.2.2-.3,0,0,.1,0,.1-.1.6-.6,2.4-2.4,3-2.8.4-.3.9,0,.7-.6.5.2.3-.2.6-.6.2-.3.7-.5.9-.8,1.2-1.3,2.7-3.5,4.1-4.6.1-.1.4,0,.4,0,0,0,0-.3.2-.5,1.4-1.5,3.4-2.8,4.8-4.4,2.5-2.9,3.7-6.9,5.7-10.3l-21.4,15.2c0,.2-.5.5-.9.7l-64.5,45.7c1.1-.2,2.2-.3,2.9-.2.2,0,2.5-.8,2.8-.9,1.6-.5,4.1-1.9,5.7-2.2.3,0,.6.1.9,0,.2,0,.2-.2.3-.2.8.1.4,0,.6,0,.5,0,.4.3.4.3ZM99.7,153s-.3,0-.2,0c.2-.3.4,0,.2,0ZM99.2,153.2h0c0,0,0,0,0,0ZM88.6,161.5v.2s-.4,0-.4,0v-.2s.4,0,.4,0ZM88.2,162.1c.2.3-.8.9-1.1.6l1.1-.6ZM79.4,159.1c.3-.3,0-.7.9-.7.4,0,1.2.4,1.4.7.1.3,0,.7.1,1,.2.4.6.3.8,1,.2.6.1,1.1-.2,1.6-.3,0-.4-.3-.6-.4-.3-.1-.6,0-.8-.2-.3-.2-.2-.6-.4-.8-.4-.3-1.3-.3-1.6-.9-.6-1.1.4-1,.6-1.2ZM76.2,170.4c-.2.1-.3.3-.5.2,0,0,.4-.3.5-.2ZM55.1,178.8c.3,0,.8.4,1.2.3l-1,.2c-.7,0-.6-.6-.2-.5Z"/>
    <path class="st0" d="M38.2,192.7c-.2,0-.1-.3-.2-.3-.6-.2-1.7.1-2.3.1-.3,0-.6-.3-.8-.3,0,0-.5.3-.8.3-.3,0-1.1-.1-1.1,0-.2,0-.2.6-.3,0-.9,0-1.8-.2-2.4-.7l-1.9,1.4v1.2c.1,0,1.6,1.3,1.6,1.3l9.7-2.9c-.1,0-.3-.1-.4-.1-.3,0-.6,0-1,0Z"/>
    <path class="st0" d="M109.1,178.9c-.1.5-.6.7-.6,1.3-.3,0-.1-.5-.2-.5,0,0-.5,0-.7,0-.2,0-.1-.2-.2-.3,0,0,0,0,0,0,0,.4-.2.2-.5,0-.2-.1-.2-.2-.4-.3l.3-.2h-.5s0-.4,0-.4l-.4.3.2-.5c-.2,0-.1.3-.4.3,0,0-1.1,0-1.2,0-.2,0,.1-.4-.1-.4l-.3.2,5.8,3.7.3-.6c-.2-.3-.3-.6-.4-.9-.2-.6-.1-1.2-.6-1.7Z"/>
    <path class="st0" d="M124.1,188.9s.4,0,.5,0c0-.3-.3-.2-.5-.3,0,.1,0,.2,0,.4Z"/>
    <path class="st0" d="M98.3,154.2c0,0-.2,0-.4,0-.2,0-.4.5-.5.6,0,0,.2,0,.3,0,.2-.2.2-.5.6-.5Z"/>
    <path class="st0" d="M117.9,147.5l-1.5,2.4c1.5-.1,3-.7,4.5-1.1.4-.1.8-.1,1.2-.2.5-.1,2.4-1,2.7-.9,0,0,0,.2.1.3.1,0,1.5-.2,1.7-.3.9-.3,3.9-2,4.6-2.6.4-.4.8-1.1,1.1-1.4.2-.2.6-.1.6-.6,0,0-.4-1.3-.4-1.4,0,0-.2-.2-.3-.3,0-.1-.3-.8-.4-.9-.2,0-1.4-.1-1.8-.3,0,0,0-.2,0-.2-.3-.2-2-.4-2.4-.4-.4,0-1.5.8-2,.9-.3,0-.6,0-.9,0-1.3.3-1.3,1-2.1,1.8-.5.5-1.3.8-1.7,1.3-1,1.1-1.5,2.9-2.8,3.7Z"/>
    <path class="st0" d="M125.8,193.6c.2,0,.5,0,.8,0,0-.2.2-.6.4-.3.3.2,0-.2,0-.2-.7-.4-.5,0-.7,0-.7-.2-.7-.8-1-1.1-.9-1.2-4.4-6.6-5.2-7.1-.3-.2-.7-.1-1-.2-.2,0-.4-1.1-.7-.7,0,.1.3.7,0,.6-.4,0-.2-.5-.2-.7,0,0-.2,0-.2,0-.4-.7,0,0-.4-.3,0-.3.1-.6,0-1-.4,0-.3.4-.7.3,0-.3.2-.5.2-.7.2-1.1,0-1.9-.2-2.9h-.4c0,0,0-.3,0-.3-.3.3-1.3.3-1.5.6-.3.4,0,.6,0,1,0,1.4-1.1,1.6-.4,3.2.3.7,1.3,1.9,1.7,2.6.4.7.9.8,1.1,1.8.3,0,.3.2.5.3.4.5.6,1,1.2,1.4h-.5c0,.2.2,0,.2.1,1.1.2,1.2.7,0,.2,0,0,0,.1,0,.2.2.4,1.3,0,1.4.2.3.3-.6.2-.6.4h.7c0,.1-.2.6-.2.6h.6c0,.5-.2.3-.3.3,0,0,0,.1.1.1.1,0,.3.2.3.2,0,0,.1-.2.3,0,.1,0-.2.2-.3,0,0,0-.1.3,0,.4.4.2,1.2.2,1.6.6v-.3c.3,0,.3.3.4.3.2.1,1,.5,1.3.6.3,0,.3.1.3-.2l-.5-.2c.7-.2,1,.1,1.5.2ZM123.7,192.9h0c0-.1.4,0,.4,0v.2s-.4-.2-.4-.2Z"/>
    <path class="st0" d="M105.4,162.5c-.1.2-.2.3,0,.3,1.1-.5,2.2-.8,3.4-1.2,1.9-.6,3.8-1.2,5.7-1.9,1.6-.6,3.4-1.2,4.8-2.1.3,0,.6,0,.5-.3-.2-.1-.4.1-.5.2-3.4.9-6.8,2.6-10.2,3.7-1.1.3-2.9.4-3.7,1.4Z"/>
    <path class="st0" d="M92.1,163.1c.3-.1.7,0,.9-.2.3-.1.6-.7.8-.9.3-.3,1.3-.3,1.2-1,0,0-.4-.2-.2-.5l-.3.4c-.2,0,0-.5-.3-.3,0,0,.1.5-.4.3-.1.2.6.2.3.4-.1.1-.6,0-.7,0-.6.1-1.1.7-1.4,1.2l.2-1.1-.3-.3c0,.2,0,.8-.2,1,0,0-.7,0-.8.6,0,.2.2.3.2.5,0,0-.1.1-.1.2,0,0,0,.2.1.1.2,0,.3,0,.5,0-.2-.2.4-.5.6-.6Z"/>
    <path class="st0" d="M106.9,152c-.1-.2-.6-.2-.8,0,0,0-.7.5-.8.5,0,0,0,.3,0,.5,0,.2-.4.4-.4.7.3.2.4-.1.4-.1,0,0,.2.2.4,0,.3-.2,1-.9.8-1.3,0,0,.6.1.4-.2Z"/>
    <path class="st0" d="M41.6,189.5c-1,.4-2.5,1.1-3.4,1.7-.8.4,0,.4.5.2,1.2-.5,2.4-1.2,3.6-1.8.2,0,.4,0,.3-.3,0,0-.8.3-1,.3Z"/>
    <path class="st0" d="M59.6,181.5c0-.1-2.4.9-2.6,1.1,0,0-.6.3-.5.5.2.2.4-.2.5-.2.2,0,.4.2.7.1.2,0,.1-.3.3-.4.3-.3.8,0,1.1,0,0-.2,0-.4,0-.5,0-.2.8-.3.5-.5Z"/>
    <path class="st0" d="M112.2,158.6c-.1,0-.3.4-.6.3,0,.7,3.4-1,3.6-1.1.1,0,.7-.2.8-.3.3-.6-.7.2-.8.2-.8.3-2.1.6-3,.9Z"/>
    <path class="st0" d="M71.7,176.4c-.1-.2-1.5.3-1.5.4,0,0,0,.5-.1.7.6-.2,1.6-.3,1.7-1.1Z"/>
    <path class="st0" d="M62.4,180.6c-.2-.3-2.4.5-2.6.9.2,0,.8,0,.9,0,.2,0,.2-.2.3-.3.2,0,.4,0,.5,0,.3-.2.3-.7.8-.3,0-.1,0-.3,0-.4Z"/>
    <path class="st0" d="M120.9,155.3s0-.5-.6-.3l.3-.5c-.4-.1-.5.8-.7,1,0,.1,2.5-.2,2.8-.4-.4-.2-1.5.2-1.8.2Z"/>
    <path class="st0" d="M82.7,168.7c.2.2,1.4-.7,1.6-.7.6-.3,1.4-.3,2-.8.1-.3-.2-.2-.4-.2-.5,0-1,.6-1.4.6,0,0-.2,0-.2,0,0,0,0,.2,0,.2-.4.3-.8.4-1.2.6,0,0-.5,0-.3.3Z"/>
    <path class="st0" d="M131.6,123.4c-.2,0-.8-.1-1,0-.5.5,1.2,1.2,1,0Z"/>
    <path class="st0" d="M126.2,196.5c-.4.2-.2.1-.4.3-.1.1-.6,0-.6.2.3.2,2-.2,1.7-.6-.6-.3-.4,0-.7.1Z"/>
    <path class="st0" d="M68.5,177.8c.6,0,.9,0,1.5-.3-.6-.5-1.1-.3-1.5.3Z"/>
    <path class="st0" d="M63.7,179.6c-.2,0-.4.2-.4.2-.5.4.4.4.6.3.4,0,.7-1.2,1.1-.3.3-.2.4-.7.8-.6,0,0,.4-.5,0-.4-.2,0-.8.4-1.1.6-.4.2-.7,0-.8.6-.2,0,0-.2-.2-.4Z"/>
    <path class="st0" d="M125.1,189.8c-.2,0-.4-.6-.6-.5-.2.1.5.8.6.8,0,0,0-.2,0-.3Z"/>
    <path class="st0" d="M125.9,190.5c-.2-.1-.4,0-.8-.4.1.5,0,.7.8.8h0c0-.1,0-.3-.1-.4Z"/>
    <path class="st0" d="M132.9,125.8l-1.1.7c.5,0,1.1-.2,1.1-.7Z"/>
    <path class="st0" d="M67.4,178.3l1-.4c0,0,0-.2,0-.2-.5,0-.8,0-1.1.6Z"/>
    <path class="st0" d="M75,174.7c-.2-.1-.2.3-.5.2,0,.3.5.4.6.3,0,0,0-.4-.1-.5Z"/>
    <path class="st0" d="M111.7,158.1l1.1-.3c-.3,0-1,0-1.1.3Z"/>
    <path class="st0" d="M121.1,194.1c.2,0,.4,0,.5,0-.2-.7-1-.3-.5,0Z"/>
    <path class="st0" d="M116.8,155c-.6-.2-.4.2-.6.4.2,0,.3-.1.5-.2,0,0,0-.2,0-.2Z"/>
    <path class="st0" d="M104.2,153.7c.3,0,.5-.3.5-.6-.3,0-.5.3-.5.6Z"/>
    <path class="st0" d="M45.4,190.3h0c.2.1.4.2.6.2.2-.4-.3-.3-.6-.2Z"/>
    <path class="st0" d="M127.8,195.1c.5,0,.5.3.6-.1-.2,0-.6,0-.6.1Z"/>
    <path class="st0" d="M101.3,155.4c0,0,.7,0,.5-.3,0,0-.7,0-.5.3Z"/>
    <path class="st0" d="M43.7,190.5c.2,0,.5.1.6-.1-.2,0-.8,0-.6.1Z"/>
    <path class="st0" d="M67.9,176.9c-.2,0-.4,0-.5.2h.5c0,0,0-.2,0-.2Z"/>
    <rect class="st0" x="141.7" y="124" width=".2" height=".4" transform="translate(-2.7 245.3) rotate(-81.1)"/>
    <polygon class="st0" points="102.3 151.4 101.9 151.7 102.3 151.8 102.3 151.4"/>
    <rect class="st0" x="90.8" y="159.8" width=".2" height=".4" transform="translate(-81.2 225.2) rotate(-81.1)"/>
    <path class="st0" d="M67.7,177.7c0-.2,0-.3-.2-.4v.4c0,0,.2,0,.2,0Z"/>
    <path class="st0" d="M42.8,190.7c.2,0,.3,0,.4-.2h-.4c0,0,0,.2,0,.2Z"/>
    <path class="st0" d="M117.4,154.7c-.4-.1-.3,0-.5.2.1,0,.6-.2.5-.2Z"/>
    <path class="st0" d="M128.3,195.7c0,0,.2.4.3.3,0,0-.2-.4-.3-.3Z"/>
    <path class="st0" d="M103.1,150.4c.2,0,.4-.1.5-.2-.1,0-.6.2-.5.2Z"/>
    <path class="st0" d="M116.3,186.3c.1.2.4,0,.3-.2s-.4,0-.3.2Z"/>
    <path class="st0" d="M87.6,170.5c.1.2.4,0,.3-.2-.1-.2-.4,0-.3.2Z"/>
    <path class="st0" d="M86.4,171.2c.1.2.4,0,.3-.2s-.4,0-.3.2Z"/>
    <path class="st0" d="M118.1,183.3h.1c.1-.5-.1-.5-.1,0Z"/>
    <path class="st0" d="M126.1,191c0,.2,0,.3.1.4,0-.1,0-.5-.1-.4Z"/>
    <path class="st0" d="M68,177.3h0c0,0,0,0,0,0Z"/>
  </g>
</svg>