<?xml version="1.0" encoding="UTF-8"?>
<svg id="_레이어_2" data-name="레이어 2" xmlns="http://www.w3.org/2000/svg" xmlns:xlink="http://www.w3.org/1999/xlink" viewBox="0 0 109 26.18">
  <defs>
    <style>
      .cls-1 {
        fill: none;
      }

      .cls-2 {
        fill: #fff;
      }

      .cls-3 {
        fill: red;
      }

      .cls-4 {
        clip-path: url(#clippath);
      }
    </style>
    <clipPath id="clippath">
      <rect class="cls-1" width="109" height="26.18"/>
    </clipPath>
  </defs>
  <g id="_레이어_1-2" data-name="레이어 1">
    <g class="cls-4">
      <g>
        <path class="cls-3" d="M109,0H0v26.18h109V0Z"/>
        <path class="cls-2" d="M16.92,13.09c0,3.43-2.84,6.2-6.32,6.2h-.73c-1.06,0-1.93-.85-1.93-1.89v-8.62c0-1.04.82-1.87,1.83-1.91h.82c3.48,0,6.32,2.79,6.32,6.22M10.6,5.07h-5.55v16.04h5.55c4.51,0,8.18-3.6,8.18-8.02s-3.67-8.02-8.18-8.02Z"/>
        <path class="cls-2" d="M26.29,9.43c0,1.06-.87,1.91-1.95,1.91s-1.95-.85-1.95-1.91.87-1.94,1.95-1.94,1.95.88,1.95,1.94ZM27.23,5.07h-5.78v16.04h5.78V5.07Z"/>
        <path class="cls-2" d="M32.86,21.11v-12.16c0-1.24,1.03-2.26,2.3-2.26s2.3,1.01,2.3,2.26v8.27c0,2.28,1.9,4.15,4.23,4.15s4.23-1.87,4.23-4.15V5.07h-1.93v12.15c0,1.24-1.03,2.26-2.3,2.26s-2.3-1.01-2.3-2.26v-8.27c0-2.3-1.88-4.15-4.23-4.15s-4.23,1.84-4.23,4.15v12.16h1.93Z"/>
        <path class="cls-2" d="M68.24,21.11v-12.39c0-.81.68-1.45,1.5-1.45s1.48.65,1.48,1.45v8.73c0,2.17,1.79,3.92,4,3.92s3.97-1.75,3.97-3.92v-8.73c0-.81.68-1.45,1.48-1.45s1.5.65,1.5,1.45v12.39h2.49v-12.39c0-2.17-1.79-3.92-4-3.92s-3.97,1.75-3.97,3.92v8.73c0,.81-.68,1.45-1.48,1.45s-1.5-.64-1.5-1.45v-8.73c0-2.17-1.79-3.92-3.97-3.92s-4,1.75-4,3.92v12.39h2.49Z"/>
        <path class="cls-2" d="M95.81,9.11c2.24,0,4.06,1.79,4.06,3.98s-1.82,3.98-4.06,3.98-4.06-1.76-4.06-3.98,1.82-3.98,4.06-3.98ZM95.81,4.8c-4.66,0-8.45,3.72-8.45,8.29s3.79,8.29,8.45,8.29,8.46-3.69,8.46-8.29-3.79-8.29-8.46-8.29Z"/>
        <path class="cls-2" d="M58.6,15.74c0,1.7-1.38,3.08-3.08,3.08s-3.08-1.38-3.08-3.08,1.38-3.08,3.08-3.08,3.08,1.38,3.08,3.08ZM55.52,4.81c-.51,0-.87.3-1.17.92l-6.84,15.39h15.96l-6.8-15.39c-.28-.62-.64-.92-1.15-.92"/>
      </g>
    </g>
  </g>
</svg>